<?xml version="1.0" encoding="utf-8"?>
<!-- Generator: Adobe Illustrator 27.2.0, SVG Export Plug-In . SVG Version: 6.00 Build 0)  -->
<svg version="1.1" id="Layer_1" xmlns="http://www.w3.org/2000/svg" xmlns:xlink="http://www.w3.org/1999/xlink" x="0px" y="0px"
	 viewBox="0 0 45.4 45.4" style="enable-background:new 0 0 45.4 45.4;" xml:space="preserve">
<style type="text/css">
	.st0{fill:#C2E0AF;}
	.st1{fill:#DEEED4;}
	.st2{fill:#6ABD46;}
	.st3{fill:#FFFFFF;}
</style>
<g>
	<g>
		<g>
			<path class="st0" d="M15.5,0h14.3c8.6,0,15.5,6.9,15.5,15.5v14.3c0,8.6-6.9,15.5-15.5,15.5H15.5C6.9,45.4,0,38.4,0,29.8V15.5
				C0,6.9,6.9,0,15.5,0"/>
			<path class="st1" d="M23.6,39.7c0,0.5-0.4,0.9-0.9,0.9s-0.9-0.4-0.9-0.9c0-0.5,0.4-0.9,0.9-0.9S23.6,39.2,23.6,39.7"/>
			<path class="st1" d="M23.6,5.7c0,0.5-0.4,0.9-0.9,0.9s-0.9-0.4-0.9-0.9c0-0.5,0.4-0.9,0.9-0.9S23.6,5.2,23.6,5.7"/>
			<path class="st1" d="M40.5,22.7c0,0.5-0.4,0.9-0.9,0.9s-0.9-0.4-0.9-0.9c0-0.5,0.4-0.9,0.9-0.9S40.5,22.2,40.5,22.7"/>
			<path class="st1" d="M6.5,22.7c0,0.5-0.4,0.9-0.9,0.9s-0.9-0.4-0.9-0.9c0-0.5,0.4-0.9,0.9-0.9S6.5,22.2,6.5,22.7"/>
			<path class="st1" d="M9.5,8.7c0,0.5-0.4,0.9-0.9,0.9c-0.5,0-0.9-0.4-0.9-0.9c0-0.5,0.4-0.9,0.9-0.9C9.1,7.8,9.5,8.2,9.5,8.7"/>
			<path class="st1" d="M37.5,36.7c0,0.5-0.4,0.9-0.9,0.9c-0.5,0-0.9-0.4-0.9-0.9c0-0.5,0.4-0.9,0.9-0.9
				C37.1,35.9,37.5,36.3,37.5,36.7"/>
			<path class="st1" d="M9.4,36.7c0,0.5-0.4,0.9-0.9,0.9c-0.5,0-0.9-0.4-0.9-0.9c0-0.5,0.4-0.9,0.9-0.9C9,35.8,9.4,36.2,9.4,36.7"/>
			<path class="st1" d="M37.6,8.6c0,0.5-0.4,0.9-0.9,0.9s-0.9-0.4-0.9-0.9c0-0.5,0.4-0.9,0.9-0.9S37.6,8.1,37.6,8.6"/>
		</g>
		<g>
			<g>
				<path class="st2" d="M15.9,11.3h13.6c2.5,0,4.6,2.1,4.6,4.6v13.6c0,2.5-2.1,4.6-4.6,4.6H15.9c-2.5,0-4.6-2.1-4.6-4.6V15.9
					C11.3,13.4,13.3,11.3,15.9,11.3z"/>
			</g>
		</g>
	</g>
</g>
<path class="st3" d="M29.6,23.1l-2.4-3.6c-0.1-0.1-0.2-0.1-0.3-0.1h-3v-1.2c0-0.2-0.1-0.3-0.3-0.3H16c-0.1,0-0.2,0-0.2,0.1
	s-0.1,0.1-0.1,0.2v7.3c0,0.2,0.1,0.3,0.3,0.3h1.2c0,1,0.8,1.8,1.8,1.8s1.8-0.8,1.8-1.8h2.7h1.2c0,1,0.8,1.8,1.8,1.8s1.8-0.8,1.8-1.8
	h0.9c0.2,0,0.3-0.1,0.3-0.3v-2.1C29.6,23.2,29.6,23.1,29.6,23.1z M19,26.9c-0.7,0-1.2-0.5-1.2-1.2c0-0.7,0.5-1.2,1.2-1.2
	c0.7,0,1.2,0.5,1.2,1.2C20.2,26.3,19.7,26.9,19,26.9z M23.3,25.1h-2.5c-0.3-0.7-0.9-1.2-1.7-1.2c-0.8,0-1.5,0.5-1.7,1.2h-1v-6.7h7
	V25.1z M28.2,22h-2v-2.1h0.6L28.2,22z M26.6,26.9c-0.7,0-1.2-0.5-1.2-1.2c0-0.7,0.5-1.2,1.2-1.2c0.7,0,1.2,0.5,1.2,1.2
	C27.8,26.3,27.3,26.9,26.6,26.9z M29,25.1h-0.7c-0.3-0.7-0.9-1.2-1.7-1.2c-0.8,0-1.5,0.5-1.7,1.2h-1v-5.2h1.7v2.4
	c0,0.2,0.1,0.3,0.3,0.3h2.7l0.5,0.7V25.1z"/>
</svg>
