<?xml version="1.0" encoding="utf-8"?>
<!-- Generator: Adobe Illustrator 27.3.1, SVG Export Plug-In . SVG Version: 6.00 Build 0)  -->
<svg version="1.1" id="Layer_1" xmlns="http://www.w3.org/2000/svg" xmlns:xlink="http://www.w3.org/1999/xlink" x="0px" y="0px"
	 viewBox="0 0 30.96 30.96" style="enable-background:new 0 0 30.96 30.96;" xml:space="preserve">
<style type="text/css">
	.st0{fill:#28A8E0;}
	.st1{fill:#FFFFFF;}
</style>
<g>
	<path class="st0" d="M30.96,15.48c0,8.55-6.93,15.48-15.48,15.48S0,24.03,0,15.48C0,6.93,6.93,0,15.48,0S30.96,6.93,30.96,15.48z"
		/>
</g>
<g>
	<path class="st1" d="M17.16,5.62c0,0.06-0.08,0.17-0.03,0.25c0.03,0.03,0.08,0.03,0.11,0.03h0.16h0.03
		c0.25,0.03,0.38,0.22,0.55,0.33c0.14,0.06,0.3,0.14,0.47,0.17h0.27c0.11,0,0.16,0.03,0.19,0.11c0.03,0.14-0.19,0.19-0.22,0.3
		c0.11,0.14-0.05,0.19-0.05,0.33c0,0.08,0.11,0.22,0.19,0.25c0.16,0,0.36-0.14,0.41-0.28c0.08-0.19,0.05-0.41,0.16-0.55
		c0.69,0.03,1.26-0.3,1.24-1.02c-0.03-0.05-0.05-0.14-0.03-0.22c0-0.11,0.19-0.22,0.16-0.36c0.08-0.03,0.14-0.08,0.16-0.14
		C21,4.71,21.06,4.6,21.14,4.57c0.03,0,0.03-0.03,0.03-0.03c0.05,0,0.14,0,0.19,0.03h0.05c0.08,0.03,0.22,0.08,0.33,0.08
		c0.05,0,0.11-0.03,0.16-0.06c-0.52-0.3-1.04-0.58-1.59-0.8c0.05,0.05,0.16,0.11,0.22,0.17c0.14,0.08,0.25,0.14,0.3,0.28
		c-0.05,0.08-0.08,0.11-0.14,0.11c-0.11,0.03-0.25-0.08-0.38-0.11c-0.14,0-0.36,0.22-0.52,0.19c-0.08,0-0.14-0.03-0.19-0.14
		c0.05-0.14,0.22-0.19,0.27-0.33c-0.03,0-0.05,0-0.05,0.03c-0.08,0.03-0.14,0.05-0.22,0.08c-0.08,0.06-0.19,0.11-0.3,0.14
		c-0.11,0.03-0.19,0-0.3,0.03c-0.16,0.06-0.27,0.19-0.47,0.25c-0.08,0.03-0.16,0.03-0.25,0.06c-0.16,0.05-0.38,0.17-0.55,0.28
		c-0.19,0.08-0.41,0.19-0.52,0.3c-0.05,0.05-0.22,0.25-0.22,0.3C16.99,5.51,17.16,5.54,17.16,5.62z"/>
	<path class="st1" d="M22.65,5.6c0.11,0,0.25-0.03,0.33-0.08c0.05-0.03,0.08-0.05,0.11-0.08c-0.16-0.14-0.33-0.25-0.52-0.39
		c-0.03,0.14-0.14,0.17-0.14,0.3C22.46,5.49,22.57,5.57,22.65,5.6z"/>
	<path class="st1" d="M15.49,20.38c1.62-0.85,2.82-2.38,3.17-4.13c0.11-0.4,0.13-0.79,0.13-1.22v-0.97l-5.03,5.03
		C14.26,19.6,14.84,20.04,15.49,20.38z"/>
	<path class="st1" d="M15.49,12.62l-3.33,0.77v1.64c0,0.42,0.03,0.82,0.13,1.22c0.13,0.66,0.39,1.3,0.75,1.88l4.92-4.92
		C17.5,13.09,16.72,12.91,15.49,12.62z"/>
	<path class="st1" d="M27.81,12.95c-0.05-0.22-0.11-0.44-0.16-0.66c-0.05-0.17-0.08-0.33-0.14-0.47c-0.6-1.96-1.67-3.79-3.16-5.28
		C24.19,6.37,24,6.18,23.8,6.01c-0.03,0.06-0.03,0.11-0.03,0.17c0.03,0.25,0.33,0.25,0.49,0.36c0.05,0.06,0.05,0.14,0.11,0.19
		c0.05,0.11,0.16,0.11,0.16,0.22c0.03,0.25-0.22,0.25-0.22,0.55c-0.03,0.11-0.16,0.08-0.16,0.25c0,0.11,0.08,0.11,0.19,0.14h0.11
		c0.05,0.03,0.11,0.03,0.14,0.08c0.05,0.11,0,0.17-0.05,0.3c0.14,0.14,0.14,0.36-0.08,0.36h-0.03c-0.14,0-0.16-0.14-0.27-0.17
		c-0.08,0-0.14,0-0.22-0.03h-0.03c-0.08,0-0.14-0.03-0.22-0.03c-0.08-0.03-0.19-0.03-0.27-0.03c-0.08,0-0.16,0-0.22-0.06
		c0.16-0.25,0.38-0.47,0.6-0.66c0.08-0.05,0.22-0.11,0.19-0.22c-0.03-0.03-0.05-0.03-0.08-0.03c-0.08,0-0.19,0.05-0.27,0.11
		c-0.14,0.05-0.27,0.17-0.41,0.19c-0.25,0.03-0.55-0.08-0.77,0.05C22.43,7.89,22.71,7.84,22.65,8c-0.05,0.03-0.11,0.03-0.14,0
		c-0.05,0-0.11,0-0.16-0.05c-0.05-0.06-0.03-0.14-0.05-0.17c-0.05-0.03-0.11-0.05-0.19-0.05c-0.11-0.03-0.19-0.03-0.25,0
		c-0.16,0.03-0.3,0.11-0.33,0.25h0.14c0.11,0,0.22-0.03,0.3,0.03c0.05,0,0.11,0.03,0.14,0.08c-0.11,0.19-0.36,0.3-0.33,0.55
		c0.03,0.08,0.11,0.19,0.19,0.22c0.08,0,0.11-0.05,0.19-0.05h0.03c0.08,0,0.08,0.05,0.14,0.08c0.14-0.08,0.22-0.25,0.38-0.25h0.03
		c0.19,0.25-0.16,0.36-0.38,0.44c-0.22,0.08-0.52,0.11-0.71,0.19c-0.08,0.03-0.3,0.25-0.41,0.19c-0.05,0-0.11,0-0.11-0.08
		c-0.05-0.19,0.16-0.14,0.19-0.28c-0.19-0.03-0.38,0.08-0.58,0.17c-0.3,0.11-0.8,0.19-0.88,0.53c0,0.05,0.03,0.17,0,0.22
		c-0.05,0.03-0.25,0.05-0.36,0.08c-0.14,0.03-0.25,0.14-0.33,0.17C19.08,10.3,19,10.3,18.94,10.3c-0.02,0.01-0.04,0.03-0.06,0.04
		L15.5,9.57l-5.69,1.28v4.17c0,0.48,0.04,0.95,0.12,1.42c-0.07-0.01-0.14-0.02-0.18-0.07c-0.11-0.03-0.19-0.14-0.3-0.22
		C9.33,16.1,9.2,15.96,9.2,15.88c0-0.11,0.11-0.22,0.11-0.33c0.05-0.33-0.22-0.61-0.38-0.8c-0.11-0.17-0.25-0.28-0.36-0.41v-0.22
		c-0.11-0.08-0.16-0.22-0.27-0.36c-0.08-0.11-0.25-0.25-0.27-0.36c-0.03-0.17,0.05-0.33,0-0.47c-0.11-0.28-0.47-0.17-0.41,0.19
		c0,0.11,0.14,0.22,0.16,0.33c0.05,0.08,0.05,0.22,0.08,0.33c0.03,0.11,0.16,0.22,0.19,0.33c0.05,0.19,0.05,0.41,0.11,0.55
		c0.05,0.11,0.25,0.22,0.14,0.36c-0.14,0.03-0.19-0.11-0.27-0.19c-0.05-0.05-0.22-0.14-0.25-0.25c-0.03-0.08,0.05-0.19,0.03-0.3
		c-0.05-0.22-0.47-0.22-0.47-0.41c0-0.14,0.16-0.17,0.16-0.3c0-0.14-0.19-0.25-0.22-0.36c-0.05-0.11-0.05-0.3-0.05-0.44
		c-0.03-0.14,0-0.33-0.03-0.44C7.17,12.23,7,12.09,6.92,12.04c-0.14-0.08-0.25-0.05-0.3-0.17c-0.05-0.08-0.08-0.28-0.11-0.36
		c-0.03-0.19,0-0.39,0-0.58c-0.03-0.17-0.03-0.33,0-0.53H6.45v-0.03c0.08-0.17,0.22-0.22,0.27-0.36C6.78,9.91,6.81,9.8,6.86,9.69
		c0.11-0.19,0.33-0.36,0.49-0.55C7.52,8.94,7.69,8.75,7.77,8.5C7.8,8.42,7.91,8.25,7.88,8.14C7.88,8,7.6,7.89,7.63,7.7
		c0-0.08,0.16-0.08,0.19-0.19c0.03-0.05,0.05-0.19,0.05-0.28c0-0.14-0.08-0.28-0.05-0.41c0.03-0.14,0.22-0.19,0.14-0.33
		C7.93,6.45,7.91,6.45,7.88,6.42C7.82,6.45,7.74,6.48,7.66,6.48c-0.03,0-0.05,0-0.08-0.03c-0.11-0.08,0-0.17,0.03-0.33
		c0-0.05-0.05-0.14-0.03-0.17c0-0.08,0.14-0.19,0.08-0.22C7.63,5.68,7.6,5.62,7.58,5.57c-0.11,0.08-0.19,0.14-0.3,0.19
		c-2.75,2.32-4.48,5.81-4.48,9.7c0,7.02,5.66,12.72,12.63,12.72c1.04,0,2.06-0.14,3.05-0.39c0-0.03-0.03-0.03-0.03-0.06
		c0-0.28,0.03-0.47,0-0.75c-0.03-0.19-0.08-0.47-0.14-0.61c-0.08-0.14-0.41-0.36-0.55-0.44c-0.11-0.05-0.22-0.08-0.33-0.14
		c-0.05-0.03-0.11-0.06-0.16-0.08l-0.05-0.08L16.61,25v-0.03c-0.08-0.14-0.22-0.28-0.3-0.41c-0.19-0.28-0.33-0.64-0.52-0.91
		c-0.08-0.17-0.16-0.33-0.27-0.44c-0.05-0.06-0.25-0.14-0.27-0.22c-0.01-0.05-0.03-0.1-0.05-0.16l0.31,0.12l0.42-0.17
		c1.53-0.62,2.83-1.67,3.77-3.03c0.27-0.39,0.5-0.79,0.7-1.21c0.03-0.03,0.07-0.07,0.13-0.03h0.03c-0.05,0.14,0.03,0.19,0.08,0.3
		c0.03,0.06,0.03,0.11,0.05,0.14c0.08,0.08,0.19,0.08,0.3,0.14c0.11,0.08,0.16,0.19,0.3,0.33c0.11,0.14,0.3,0.28,0.49,0.3
		c0.14,0,0.27-0.05,0.38-0.03h0.03h0.03c0.3,0.05,0.49,0.19,0.69,0.36c0.14,0.08,0.25,0.17,0.27,0.28c0.03,0.06,0,0.17,0.05,0.25
		c0.05,0.19,0.33,0.28,0.22,0.58c0.05,0.11,0.14,0.14,0.25,0.19c0.08,0.05,0.14,0.14,0.22,0.17h0.16h0.05
		c0.16,0.03,0.27,0.08,0.41,0.14c0.08,0.03,0.19,0.05,0.27,0.08c0.05,0.05,0.08,0.22,0.16,0.25c0.05,0.03,0.16,0,0.25,0l0.03,0.03
		h0.03c0.05,0,0.16,0.03,0.25,0.06c0.08,0.03,0.14,0.05,0.22,0.05c0.08,0,0.14-0.05,0.22-0.03H26h0.03c0.03,0,0.08,0.03,0.11,0.03
		c1.21-1.94,1.92-4.2,1.92-6.66C28.06,14.61,27.98,13.75,27.81,12.95z M20.04,15.03c0,3.05-1.89,5.64-4.55,6.73
		c-2.69-1.09-4.58-3.68-4.58-6.73v-3.28l1.68-0.37v0.61l1.84-0.42v-0.61l1.06-0.24l1.04,0.24v0.61l1.84,0.42v-0.61l1.68,0.37V15.03z
		"/>
</g>
</svg>
