<?xml version="1.0" encoding="utf-8"?>
<!-- Generator: Adobe Illustrator 27.3.1, SVG Export Plug-In . SVG Version: 6.00 Build 0)  -->
<svg version="1.1" id="Layer_1" xmlns="http://www.w3.org/2000/svg" xmlns:xlink="http://www.w3.org/1999/xlink" x="0px" y="0px"
	 viewBox="0 0 30.96 30.96" style="enable-background:new 0 0 30.96 30.96;" xml:space="preserve">
<style type="text/css">
	.st0{fill:#28A8E0;}
	.st1{fill-rule:evenodd;clip-rule:evenodd;fill:#FFFFFF;}
</style>
<g>
	<g>
		<g>
			<path class="st0" d="M30.96,15.48c0,8.55-6.93,15.48-15.48,15.48S0,24.03,0,15.48C0,6.93,6.93,0,15.48,0S30.96,6.93,30.96,15.48z
				"/>
		</g>
		<g>
			<path class="st1" d="M19.39,19.9l-0.61-1.25c0.46-0.43,0.92-0.87,1.3-1.45l1.3,0.43c0.32,0.17,0.69,0,0.81-0.38l0.4-1.19
				c0.17-0.32,0-0.67-0.38-0.81l-1.36-0.49c0.12-0.55,0.09-1.25-0.09-1.88l1.3-0.64c0.29-0.14,0.43-0.52,0.29-0.81l-0.55-1.19
				c-0.12-0.29-0.49-0.41-0.87-0.23l-1.21,0.58c-0.38-0.52-0.89-0.93-1.44-1.3l0.49-1.33c0.06-0.35-0.06-0.64-0.38-0.81l-1.18-0.43
				c-0.38-0.12-0.75,0.06-0.87,0.43l-0.43,1.3C15.27,8.34,14.63,8.42,14,8.6l-0.61-1.36c-0.17-0.26-0.49-0.41-0.87-0.23l-1.1,0.49
				c-0.35,0.17-0.49,0.55-0.35,0.84l0.63,1.3c-0.52,0.38-0.92,0.87-1.3,1.45L9.06,10.6c-0.26-0.12-0.63,0.06-0.78,0.38l-0.43,1.19
				c-0.12,0.38,0.06,0.75,0.4,0.81l1.33,0.49c-0.06,0.61-0.03,1.3,0.09,1.88l-1.3,0.64c-0.29,0.14-0.4,0.52-0.23,0.87l0.49,1.13
				c0.17,0.35,0.55,0.46,0.92,0.32l1.21-0.61c0.38,0.52,0.87,0.93,1.39,1.25l-0.38,1.36c-0.17,0.32,0,0.7,0.32,0.84l1.24,0.38
				c0.32,0.17,0.63-0.06,0.81-0.38l0.43-1.3c0.61,0.06,1.3,0.06,1.93-0.14l0.55,1.3c0.23,0.32,0.55,0.46,0.89,0.32l1.18-0.55
				C19.39,20.56,19.54,20.24,19.39,19.9 M11.75,15.81c-0.92-1.97-0.12-4.23,1.85-5.19c1.93-0.98,4.21-0.12,5.17,1.85
				c0.87,1.91,0.12,4.26-1.85,5.19C15.01,18.56,12.7,17.78,11.75,15.81"/>
			<path class="st1" d="M11.73,14.5l0.42-0.06c0.03,0.14,0.06,0.26,0.14,0.31c0.08,0.06,0.17,0.09,0.31,0.09
				c0.14,0,0.22-0.03,0.31-0.09c0.06-0.06,0.11-0.11,0.11-0.2c0-0.06-0.03-0.09-0.06-0.11c-0.03-0.06-0.08-0.09-0.14-0.11
				c-0.06,0-0.17-0.03-0.34-0.08c-0.22-0.06-0.39-0.11-0.47-0.2c-0.14-0.11-0.2-0.26-0.2-0.42c0-0.11,0.03-0.23,0.08-0.31
				c0.06-0.08,0.14-0.17,0.25-0.2c0.11-0.06,0.25-0.09,0.42-0.09c0.25,0,0.45,0.06,0.59,0.17c0.14,0.11,0.2,0.28,0.22,0.48h-0.45
				c0-0.11-0.06-0.17-0.11-0.23c-0.06-0.06-0.14-0.08-0.25-0.08c-0.14,0-0.22,0.03-0.28,0.08c-0.06,0.03-0.08,0.09-0.08,0.14
				c0,0.06,0.03,0.09,0.06,0.11c0.06,0.06,0.2,0.11,0.39,0.14c0.22,0.06,0.36,0.11,0.45,0.17c0.11,0.03,0.2,0.11,0.25,0.2
				c0.06,0.09,0.08,0.2,0.08,0.34c0,0.11-0.06,0.23-0.11,0.34c-0.06,0.11-0.17,0.2-0.28,0.23c-0.11,0.06-0.28,0.09-0.45,0.09
				c-0.28,0-0.47-0.06-0.61-0.17C11.84,14.9,11.76,14.73,11.73,14.5"/>
			<polygon class="st1" points="14.67,15.27 14.67,13.08 16.25,13.08 16.25,13.46 15.1,13.46 15.1,13.93 16.19,13.93 16.19,14.3 
				15.1,14.3 15.1,14.89 16.31,14.89 16.31,15.27 			"/>
			<rect x="13.78" y="13.03" class="st1" width="0.47" height="2.18"/>
			<polygon class="st1" points="16.6,15.21 16.6,13.03 17.27,13.03 17.64,14.5 18.04,13.03 18.66,13.03 18.66,15.21 18.26,15.21 
				18.26,13.49 17.86,15.21 17.43,15.21 17,13.49 17,15.21 			"/>
			<path class="st1" d="M25.68,14.36c0.52-0.26,0.69-0.87,0.43-1.39c-0.26-0.49-0.9-0.7-1.39-0.44c-0.49,0.26-0.69,0.9-0.43,1.39
				C24.55,14.45,25.19,14.62,25.68,14.36 M27.87,12.91l-0.06,1.31c0,0.06-0.06,0.12-0.12,0.12l-0.95-0.06
				c-0.06,0.09-0.09,0.15-0.14,0.2l0.46,0.87c0.03,0.06,0,0.12-0.06,0.15l-1.16,0.61c-0.06,0.03-0.12,0-0.14-0.06l-0.46-0.84h-0.23
				l-0.52,0.81c-0.03,0.06-0.12,0.06-0.17,0.03l-1.07-0.7c-0.06-0.03-0.09-0.12-0.06-0.17l0.52-0.81c-0.03-0.03-0.03-0.06-0.06-0.09
				c-0.03-0.06-0.03-0.09-0.06-0.12l-0.95-0.06c-0.06,0-0.12-0.06-0.12-0.12l0.06-1.31c0-0.06,0.06-0.12,0.12-0.12l0.95,0.06
				c0.06-0.09,0.09-0.15,0.14-0.2l-0.46-0.87c-0.03-0.06,0-0.12,0.06-0.15l1.16-0.61c0.06-0.03,0.12,0,0.17,0.06l0.43,0.84
				c0.09,0,0.14,0,0.23,0.03l0.52-0.84c0.03-0.03,0.12-0.06,0.17-0.03l1.1,0.7c0.03,0.03,0.06,0.12,0.03,0.17l-0.52,0.81
				c0.03,0.03,0.03,0.06,0.06,0.12c0.03,0.03,0.03,0.06,0.06,0.09l0.95,0.06C27.81,12.79,27.87,12.85,27.87,12.91"/>
			<path class="st1" d="M8.53,22.77c0.59-0.23,0.86-0.89,0.65-1.46c-0.22-0.6-0.87-0.9-1.46-0.65c-0.59,0.23-0.87,0.87-0.65,1.46
				C7.3,22.72,7.96,22.99,8.53,22.77 M11.11,21.44l-0.21,1.41c0,0.09-0.08,0.12-0.15,0.11L9.7,22.81c-0.04,0.07-0.11,0.13-0.17,0.21
				L9.9,24c0.05,0.07,0.02,0.15-0.06,0.17l-1.32,0.52c-0.08,0.03-0.16-0.01-0.18-0.09l-0.38-0.97c-0.09,0-0.16-0.04-0.26-0.04
				l-0.67,0.83c-0.05,0.05-0.13,0.07-0.17,0.03l-1.12-0.91c-0.05-0.05-0.07-0.13-0.03-0.17l0.67-0.83L6.34,22.4l-0.04-0.11
				l-1.06-0.17c-0.06-0.01-0.12-0.08-0.11-0.15l0.21-1.41c0.01-0.06,0.08-0.12,0.15-0.11l1.06,0.17c0.04-0.07,0.1-0.16,0.17-0.21
				l-0.39-1c-0.05-0.05-0.01-0.12,0.06-0.17l1.33-0.5c0.08-0.03,0.16,0.01,0.17,0.06l0.39,1c0.09,0,0.16,0.01,0.26,0.04l0.67-0.83
				c0.04-0.07,0.13-0.07,0.17-0.03l1.11,0.88c0.05,0.05,0.07,0.13,0.04,0.2L9.87,20.9l0.04,0.11l0.04,0.14L11,21.29
				C11.06,21.3,11.12,21.38,11.11,21.44"/>
		</g>
	</g>
</g>
</svg>
