<?xml version="1.0" encoding="utf-8"?>
<!-- Generator: Adobe Illustrator 27.3.1, SVG Export Plug-In . SVG Version: 6.00 Build 0)  -->
<svg version="1.1" id="Layer_1" xmlns="http://www.w3.org/2000/svg" xmlns:xlink="http://www.w3.org/1999/xlink" x="0px" y="0px"
	 viewBox="0 0 30.96 30.96" style="enable-background:new 0 0 30.96 30.96;" xml:space="preserve">
<style type="text/css">
	.st0{fill:#28A8E0;}
	.st1{fill-rule:evenodd;clip-rule:evenodd;fill:#FFFFFF;}
</style>
<g>
	<g>
		<g>
			<path class="st0" d="M30.96,15.48c0,8.55-6.93,15.48-15.48,15.48S0,24.03,0,15.48C0,6.93,6.93,0,15.48,0S30.96,6.93,30.96,15.48z
				"/>
		</g>
		<g>
			<g>
				<path class="st1" d="M9.25,15.39c-0.56,0.14-0.91,0.71-0.78,1.27c0.12,0.57,0.68,0.92,1.24,0.78c2.83-0.63,5.65,1.18,6.29,4.04
					c0.06,0.29,0.23,0.51,0.47,0.67c0.21,0.14,0.5,0.2,0.78,0.14c0.56-0.14,0.93-0.69,0.8-1.25C17.17,17.02,13.21,14.51,9.25,15.39"
					/>
			</g>
			<g>
				<path class="st1" d="M12.39,20.2c-0.93-0.56-2.15-0.29-2.75,0.61c-0.59,0.9-0.32,2.09,0.61,2.67c0.93,0.58,2.17,0.31,2.77-0.6
					C13.61,21.98,13.34,20.77,12.39,20.2"/>
			</g>
			<g>
				<path class="st1" d="M8.83,11.34H8.77c-0.6,0.15-1,0.81-0.85,1.41c0.21,0.66,0.79,1,1.44,0.85h0.06l0.13-0.04
					c4.46-1.04,8.95,1.8,10,6.34l0.04,0.21l0.02,0.06c0.13,0.62,0.73,1.04,1.33,0.97c0.65-0.15,1.08-0.75,0.92-1.41l-0.02-0.08
					l-0.06-0.27c-1.37-5.82-7.04-9.43-12.76-8.09L8.83,11.34z"/>
			</g>
			<g>
				<path class="st1" d="M25.27,20.92c-0.58,0-1.11-0.43-1.2-1.02c-0.41-2.57-2.02-6.13-5.36-8.48c-3.79-2.65-8.25-2.84-10.99-1.86
					c-0.64,0.23-1.34-0.1-1.57-0.71c-0.23-0.64,0.1-1.33,0.74-1.57c4.08-1.47,9.28-0.64,13.24,2.15c3.36,2.38,5.75,6.15,6.37,10.09
					c0.1,0.68-0.37,1.3-1.03,1.39C25.4,20.92,25.33,20.92,25.27,20.92"/>
			</g>
		</g>
	</g>
</g>
</svg>
