<?xml version="1.0" encoding="utf-8"?>
<!-- Generator: Adobe Illustrator 27.3.1, SVG Export Plug-In . SVG Version: 6.00 Build 0)  -->
<svg version="1.1" id="Layer_1" xmlns="http://www.w3.org/2000/svg" xmlns:xlink="http://www.w3.org/1999/xlink" x="0px" y="0px"
	 viewBox="0 0 30.96 30.96" style="enable-background:new 0 0 30.96 30.96;" xml:space="preserve">
<style type="text/css">
	.st0{fill:#28A8E0;}
	.st1{fill-rule:evenodd;clip-rule:evenodd;fill:#FFFFFF;}
</style>
<g>
	<path class="st0" d="M30.96,15.48c0,8.55-6.93,15.48-15.48,15.48S0,24.03,0,15.48C0,6.93,6.93,0,15.48,0S30.96,6.93,30.96,15.48z"
		/>
</g>
<g>
	<g>
		<path class="st1" d="M8.67,10.12H24.4V8.71c0-0.41-0.35-0.74-0.77-0.74h-4.32c-0.18,0-0.35,0.06-0.5,0.18l-1.18,1.06
			c-0.12,0.12-0.33,0.18-0.5,0.18H5.42c-0.44,0-0.83,0.35-0.83,0.83v11.8l2.72-10.86C7.46,10.57,8.05,10.12,8.67,10.12z"/>
		<path class="st1" d="M19.42,19.83c-0.3,0-0.53,0.23-0.53,0.67c0,0.56,0.24,0.73,0.53,0.73c0.3,0,0.53-0.23,0.53-0.73
			C19.95,20.03,19.74,19.83,19.42,19.83z"/>
		<path class="st1" d="M16.63,19.83c-0.3,0-0.54,0.23-0.54,0.67c0,0.56,0.21,0.73,0.51,0.73c0.33,0,0.54-0.23,0.54-0.73
			C17.14,20.03,16.93,19.83,16.63,19.83z"/>
		<polygon class="st1" points="13.2,20.47 14.03,20.47 13.64,19.11 		"/>
		<path class="st1" d="M16.37,13.46c-1,0-1.83,0.82-1.83,1.82c0,1,0.83,1.82,1.83,1.82c1,0,1.83-0.82,1.83-1.82
			C18.2,14.28,17.37,13.46,16.37,13.46z M16.37,16.07c-0.44,0-0.8-0.35-0.8-0.79c0-0.44,0.35-0.79,0.8-0.79
			c0.44,0,0.8,0.35,0.8,0.79C17.16,15.72,16.81,16.07,16.37,16.07z"/>
	</g>
	<g>
		<g>
			<path class="st1" d="M27.52,11.58L27.52,11.58c0.02-0.09,0.02-0.16-0.03-0.21c-0.05-0.07-0.16-0.11-0.28-0.11H9.1
				c-0.28,0-0.6,0.24-0.66,0.49l0,0.01l0,0.01L5.57,23.25l0,0.01l0,0.01c-0.02,0.08-0.01,0.15,0.03,0.21
				c0.05,0.07,0.14,0.1,0.25,0.1h18.14c0.28,0,0.6-0.24,0.66-0.49l0-0.01l0-0.01L27.52,11.58L27.52,11.58z M14.42,21.69l-0.24-0.74
				h-1.12l-0.21,0.74h-0.74l1.12-3.16h0.83l1.12,3.16H14.42z M16.75,21.75c-0.27,0-0.47-0.09-0.62-0.27v0.98h-0.71v-3.07h0.53
				l0.12,0.27c0.18-0.18,0.41-0.33,0.74-0.33c0.62,0,1.03,0.41,1.03,1.18C17.85,21.28,17.37,21.75,16.75,21.75z M19.53,21.75
				c-0.24,0-0.47-0.09-0.62-0.27v0.98h-0.68v-3.07h0.5l0.15,0.27c0.15-0.18,0.41-0.33,0.71-0.33c0.62,0,1.03,0.41,1.03,1.18
				C20.62,21.28,20.15,21.75,19.53,21.75z M11.73,15.28c2.57-3.49,6.71-3.49,9.28,0C18.44,18.76,14.3,18.76,11.73,15.28z"/>
		</g>
	</g>
</g>
</svg>
