<?xml version="1.0" encoding="utf-8"?>
<!-- Generator: Adobe Illustrator 27.3.1, SVG Export Plug-In . SVG Version: 6.00 Build 0)  -->
<svg version="1.1" id="Layer_1" xmlns="http://www.w3.org/2000/svg" xmlns:xlink="http://www.w3.org/1999/xlink" x="0px" y="0px"
	 viewBox="0 0 30.96 30.96" style="enable-background:new 0 0 30.96 30.96;" xml:space="preserve">
<style type="text/css">
	.st0{fill:#28A8E0;}
	.st1{fill:#FFFFFF;}
</style>
<g>
	<g>
		<g>
			<g>
				<path class="st0" d="M30.96,15.48c0,8.55-6.93,15.48-15.48,15.48S0,24.03,0,15.48C0,6.93,6.93,0,15.48,0S30.96,6.93,30.96,15.48
					z"/>
			</g>
		</g>
	</g>
</g>
<g>
	<path class="st1" d="M17.95,15.23h-0.28v-0.8c0-1.39-0.95-2.36-2.26-2.36c-1.31,0-2.26,0.97-2.26,2.36v0.8h-0.28
		c-0.21,0-0.38,0.17-0.38,0.38v4.7c0,0.21,0.17,0.38,0.38,0.38h5.08c0.21,0,0.38-0.17,0.38-0.38v-4.7
		C18.33,15.4,18.16,15.23,17.95,15.23z M16.91,15.23H13.9v-0.8c0-0.96,0.62-1.61,1.51-1.61c0.88,0,1.51,0.65,1.51,1.61V15.23z"/>
	<path class="st1" d="M28.71,15c-0.03-0.05-0.06-0.09-0.1-0.13l-2.65-2.65c-0.26-0.26-0.67-0.26-0.93,0l-0.09,0.09
		c-0.26,0.26-0.26,0.67,0,0.93l1.55,1.55h-4.4v-4.46l-3.37-3.37h-8.41c-0.8,0-1.45,0.65-1.45,1.45v6.38h-4.4L6,13.24
		c0.26-0.26,0.26-0.67,0-0.93l-0.09-0.09c-0.26-0.26-0.67-0.26-0.93,0l-2.65,2.65C2.3,14.9,2.27,14.95,2.24,15
		c-0.11,0.12-0.18,0.27-0.18,0.45v0.13c0,0.2,0.09,0.39,0.24,0.51c0.01,0.01,0.02,0.03,0.04,0.05l2.65,2.65
		c0.26,0.26,0.67,0.26,0.93,0L6,18.68c0.26-0.26,0.26-0.67,0-0.93l-1.52-1.52h4.38v6.43c0,0.8,0.65,1.45,1.45,1.45h10.34
		c0.8,0,1.45-0.65,1.45-1.45v-6.43h4.37l-1.52,1.52c-0.26,0.26-0.26,0.67,0,0.93l0.09,0.09c0.26,0.26,0.67,0.26,0.93,0l2.65-2.65
		c0.01-0.01,0.02-0.03,0.04-0.05c0.15-0.12,0.24-0.3,0.24-0.51v-0.13C28.89,15.27,28.82,15.11,28.71,15z M10.42,22.55V8.52h6.92v2.5
		c0,0.38,0.31,0.69,0.69,0.69h2.5v10.85H10.42z"/>
</g>
</svg>
