<?xml version="1.0" encoding="utf-8"?>
<!-- Generator: Adobe Illustrator 27.3.1, SVG Export Plug-In . SVG Version: 6.00 Build 0)  -->
<svg version="1.1" id="Layer_1" xmlns="http://www.w3.org/2000/svg" xmlns:xlink="http://www.w3.org/1999/xlink" x="0px" y="0px"
	 viewBox="0 0 30.96 30.96" style="enable-background:new 0 0 30.96 30.96;" xml:space="preserve">
<style type="text/css">
	.st0{fill:#28A8E0;}
	.st1{fill:#FFFFFF;}
</style>
<g>
	<g>
		<g>
			<path class="st0" d="M30.96,15.48c0,8.55-6.93,15.48-15.48,15.48S0,24.03,0,15.48C0,6.93,6.93,0,15.48,0S30.96,6.93,30.96,15.48z
				"/>
		</g>
		<g>
			<path class="st1" d="M15.47,5.92c-5.67,0-11.41,1.3-11.41,3.8v12.18c0,2.49,5.74,3.8,11.41,3.8s11.41-1.3,11.41-3.8V9.72
				C26.88,7.22,21.14,5.92,15.47,5.92z M15.47,7.42c6.07,0,9.79,1.48,9.79,2.29c0,0.78-3.45,2.29-9.79,2.29s-9.79-1.51-9.79-2.29
				C5.68,8.91,9.4,7.42,15.47,7.42z M15.47,24.19c-6.33,0-9.79-1.51-9.79-2.29V11.76c2.1,1.16,5.96,1.75,9.79,1.75
				s7.69-0.6,9.79-1.75v10.13C25.26,22.67,21.81,24.19,15.47,24.19z"/>
		</g>
	</g>
</g>
</svg>
