<?xml version="1.0" encoding="utf-8"?>
<!-- Generator: Adobe Illustrator 27.3.1, SVG Export Plug-In . SVG Version: 6.00 Build 0)  -->
<svg version="1.1" id="Layer_1" xmlns="http://www.w3.org/2000/svg" xmlns:xlink="http://www.w3.org/1999/xlink" x="0px" y="0px"
	 viewBox="0 0 30.96 30.96" style="enable-background:new 0 0 30.96 30.96;" xml:space="preserve">
<style type="text/css">
	.st0{fill:#28A8E0;}
	.st1{fill-rule:evenodd;clip-rule:evenodd;fill:#FFFFFF;}
</style>
<g>
	<g>
		<g>
			<path class="st0" d="M30.96,15.48c0,8.55-6.93,15.48-15.48,15.48S0,24.03,0,15.48C0,6.93,6.93,0,15.48,0S30.96,6.93,30.96,15.48z
				"/>
		</g>
	</g>
</g>
<g>
	<g>
		<g>
			<path class="st1" d="M7.76,11.72l-0.05,0.03c-0.42,0.45-0.4,1.22,0.06,1.64c0.53,0.44,1.21,0.41,1.67-0.07l0.05-0.03l0.09-0.11
				c3.18-3.3,8.48-3.35,11.84-0.12l0.15,0.16l0.05,0.04c0.45,0.45,1.18,0.48,1.64,0.09c0.46-0.49,0.49-1.22,0.01-1.69l-0.06-0.05
				l-0.2-0.2c-4.31-4.14-11.03-4.09-15.1,0.14L7.76,11.72z"/>
		</g>
		<g>
			<path class="st1" d="M26.77,10.83c-0.49,0.32-1.16,0.24-1.57-0.21c-1.74-1.94-5.02-4.04-9.11-4.21
				c-4.62-0.16-8.47,2.1-10.23,4.41c-0.41,0.54-1.18,0.65-1.71,0.25c-0.54-0.41-0.64-1.17-0.23-1.71c2.62-3.45,7.44-5.58,12.27-5.39
				c4.11,0.17,8.16,2.04,10.82,5.01c0.45,0.52,0.39,1.29-0.11,1.73C26.88,10.76,26.82,10.8,26.77,10.83"/>
		</g>
	</g>
	<path class="st1" d="M18.3,17.94l-3.54-1.78l0,0c-0.03-0.01-0.05-0.03-0.09-0.03c-0.09,0-0.17,0.08-0.17,0.16v4.55
		c0.12,0.05,0.23,0.11,0.35,0.14v-1.77L18.3,17.94z"/>
	<g>
		<path class="st1" d="M18.88,15.12c-0.91-0.94-2.07-1.4-3.22-1.4c-1.18,0-2.4,0.46-3.33,1.4c-1.54,1.63-1.71,4.09-0.63,5.95
			l-3.47,3.66c-0.3,0.26-0.3,0.77,0,1.09l0.39,0.4c0.3,0.31,0.8,0.31,1.05,0l3.53-3.63c0.77,0.49,1.6,0.71,2.48,0.71
			c1.16,0,2.31-0.46,3.22-1.37C20.72,20.03,20.72,16.97,18.88,15.12 M17.83,20.81c-0.58,0.6-1.38,0.94-2.18,0.94
			c-0.85,0-1.65-0.34-2.26-0.94c-1.21-1.29-1.21-3.35,0-4.6c0.61-0.63,1.4-0.97,2.26-0.97c0.8,0,1.6,0.34,2.18,0.97
			c0.61,0.6,0.94,1.43,0.94,2.32C18.77,19.35,18.44,20.18,17.83,20.81"/>
	</g>
</g>
</svg>
