<?xml version="1.0" encoding="utf-8"?>
<!-- Generator: Adobe Illustrator 27.3.1, SVG Export Plug-In . SVG Version: 6.00 Build 0)  -->
<svg version="1.1" id="Layer_1" xmlns="http://www.w3.org/2000/svg" xmlns:xlink="http://www.w3.org/1999/xlink" x="0px" y="0px"
	 viewBox="0 0 30.96 30.96" style="enable-background:new 0 0 30.96 30.96;" xml:space="preserve">
<style type="text/css">
	.st0{fill:#28A8E0;}
	.st1{fill-rule:evenodd;clip-rule:evenodd;fill:#FFFFFF;}
</style>
<g>
	<g>
		<g>
			<path class="st0" d="M30.96,15.48c0,8.55-6.93,15.48-15.48,15.48S0,24.03,0,15.48C0,6.93,6.93,0,15.48,0S30.96,6.93,30.96,15.48z
				"/>
		</g>
		<g>
			<g>
				<path class="st1" d="M18.1,14.36c0-0.09-0.03-0.14-0.03-0.23c0-0.34,0.11-0.69,0.31-0.94l1.23-2.06H6.75
					c-0.43,0-0.83,0.09-1.14,0.2l8.37,5.94L18.1,14.36z"/>
			</g>
			<g>
				<path class="st1" d="M4.83,11.99c-0.25,0.28-0.37,0.63-0.37,0.99v7.76c0,0.37,0.11,0.68,0.28,0.97l6.01-5.48L4.83,11.99z"/>
			</g>
			<g>
				<path class="st1" d="M14.37,18.24c-0.11,0.09-0.29,0.14-0.4,0.14c-0.14,0-0.31-0.06-0.37-0.14l-1.97-1.39L5.47,22.5
					c0.4,0.2,0.83,0.35,1.28,0.35h14.41c0.48,0,0.91-0.15,1.31-0.35l-6.16-5.65L14.37,18.24z"/>
			</g>
			<g>
				<path class="st1" d="M19.68,15.7c-0.43,0-0.83-0.17-1.12-0.43l-1.38,0.96l6.11,5.47c0.2-0.28,0.32-0.59,0.32-0.96V15.7H19.68z"
					/>
			</g>
			<g>
				<path class="st1" d="M23.47,13.74c-0.31,0-0.54-0.26-0.54-0.54c0-0.31,0.23-0.57,0.54-0.57c0.31,0,0.54,0.26,0.54,0.57
					C24.01,13.48,23.78,13.74,23.47,13.74 M23.07,9.89c0-0.23,0.17-0.43,0.4-0.43c0.23,0,0.43,0.2,0.43,0.43v1.65
					c0,0.23-0.2,0.4-0.43,0.4c-0.23,0-0.4-0.17-0.4-0.4V9.89z M27.82,13.8L27.82,13.8l-0.03-0.06v-0.03L24.01,7.3
					c-0.09-0.17-0.31-0.31-0.54-0.31c-0.26,0-0.48,0.17-0.57,0.4l-3.72,6.29c-0.09,0.11-0.14,0.26-0.14,0.4
					c0,0.34,0.28,0.63,0.65,0.63h7.55c0.37,0,0.65-0.28,0.65-0.63C27.9,13.97,27.87,13.88,27.82,13.8"/>
			</g>
		</g>
	</g>
</g>
</svg>
