<?xml version="1.0" encoding="utf-8"?>
<!-- Generator: Adobe Illustrator 27.3.1, SVG Export Plug-In . SVG Version: 6.00 Build 0)  -->
<svg version="1.1" id="Layer_1" xmlns="http://www.w3.org/2000/svg" xmlns:xlink="http://www.w3.org/1999/xlink" x="0px" y="0px"
	 viewBox="0 0 30.96 30.96" style="enable-background:new 0 0 30.96 30.96;" xml:space="preserve">
<style type="text/css">
	.st0{fill:#28A8E0;}
	.st1{fill:none;stroke:#FFFFFF;stroke-width:1.1377;stroke-miterlimit:10;}
</style>
<g>
	<g>
		<g>
			<path class="st0" d="M30.96,15.48c0,8.55-6.93,15.48-15.48,15.48S0,24.03,0,15.48S6.93,0,15.48,0C24.03,0,30.96,6.93,30.96,15.48
				z"/>
		</g>
	</g>
</g>
<g>
	<path class="st1" d="M9.27,18.4V6.16c0-1.16,0.94-2.11,2.11-2.11h8.75c1.16,0,2.11,0.94,2.11,2.11v18.73
		c0,1.16-0.94,2.11-2.11,2.11h-8.75c-1.16,0-2.11-0.94-2.11-2.11v-3.6"/>
	<path class="st1" d="M15.62,21.84H4.75c-0.71,0-1.29-0.58-1.29-1.29v-0.32c0-0.71,0.58-1.29,1.29-1.29h10.87
		c0.71,0,1.29,0.58,1.29,1.29v0.32C16.91,21.27,16.33,21.84,15.62,21.84z"/>
</g>
<path class="st1" d="M11.92,18.71c0.63-1.32,1.97-2.22,3.53-2.22c2.16,0,3.91,1.75,3.91,3.91s-1.75,3.91-3.91,3.91
	c-1.61,0-2.99-0.97-3.59-2.36"/>
<path class="st1" d="M13.83,9.31h-1.42c-0.29,0-0.52-0.23-0.52-0.52V7.37c0-0.29,0.23-0.52,0.52-0.52h1.42
	c0.29,0,0.52,0.23,0.52,0.52v1.42C14.36,9.08,14.12,9.31,13.83,9.31z"/>
<path class="st1" d="M13.83,13.8h-1.42c-0.29,0-0.52-0.23-0.52-0.52v-1.42c0-0.29,0.23-0.52,0.52-0.52h1.42
	c0.29,0,0.52,0.23,0.52,0.52v1.42C14.36,13.57,14.12,13.8,13.83,13.8z"/>
<path class="st1" d="M17.6,9.31h1.42c0.29,0,0.52-0.23,0.52-0.52V7.37c0-0.29-0.23-0.52-0.52-0.52H17.6c-0.29,0-0.52,0.23-0.52,0.52
	v1.42C17.08,9.08,17.31,9.31,17.6,9.31z"/>
<path class="st1" d="M17.6,13.8h1.42c0.29,0,0.52-0.23,0.52-0.52v-1.42c0-0.29-0.23-0.52-0.52-0.52H17.6
	c-0.29,0-0.52,0.23-0.52,0.52v1.42C17.08,13.57,17.31,13.8,17.6,13.8z"/>
</svg>
