<?xml version="1.0" encoding="utf-8"?>
<!-- Generator: Adobe Illustrator 27.3.1, SVG Export Plug-In . SVG Version: 6.00 Build 0)  -->
<svg version="1.1" id="Layer_1" xmlns="http://www.w3.org/2000/svg" xmlns:xlink="http://www.w3.org/1999/xlink" x="0px" y="0px"
	 viewBox="0 0 30.96 30.96" style="enable-background:new 0 0 30.96 30.96;" xml:space="preserve">
<style type="text/css">
	.st0{fill:#28A8E0;}
	.st1{fill:#FFFFFF;}
</style>
<g>
	<g>
		<g>
			<path class="st0" d="M30.96,15.48c0,8.55-6.93,15.48-15.48,15.48S0,24.03,0,15.48C0,6.93,6.93,0,15.48,0S30.96,6.93,30.96,15.48z
				"/>
		</g>
	</g>
</g>
<g>
	<path class="st1" d="M12.3,10.88h6.39c0.31,0,0.57-0.25,0.57-0.57S19,9.74,18.68,9.74H12.3c-0.31,0-0.57,0.25-0.57,0.57
		S11.98,10.88,12.3,10.88z"/>
	<path class="st1" d="M12.3,14.08h6.39c0.31,0,0.57-0.25,0.57-0.57s-0.25-0.57-0.57-0.57H12.3c-0.31,0-0.57,0.25-0.57,0.57
		S11.98,14.08,12.3,14.08z"/>
	<path class="st1" d="M15.09,16.14h-2.8c-0.31,0-0.57,0.25-0.57,0.57c0,0.31,0.25,0.57,0.57,0.57h2.8c0.31,0,0.57-0.25,0.57-0.57
		C15.66,16.39,15.41,16.14,15.09,16.14z"/>
	<path class="st1" d="M22.6,23.34l0.46-0.22c0.09-0.04,0.14-0.13,0.13-0.23l-0.06-0.72c-0.01-0.07,0.03-0.21,0.07-0.27l0.41-0.6
		c0.05-0.08,0.05-0.18,0-0.26l-0.41-0.6c-0.04-0.06-0.08-0.19-0.07-0.27l0.05-0.72c0.01-0.09-0.04-0.18-0.13-0.23l-0.65-0.31
		c-0.07-0.03-0.16-0.13-0.2-0.2l-0.31-0.65c-0.04-0.09-0.13-0.14-0.23-0.13l-0.72,0.06c-0.07,0-0.21-0.03-0.27-0.07l-0.6-0.41
		c0,0,0,0,0,0c-0.01-0.01-0.08-0.04-0.13-0.04c-0.05,0-0.11,0.03-0.13,0.04c0,0,0,0,0,0l-0.6,0.41c-0.06,0.04-0.2,0.08-0.27,0.07
		l-0.72-0.06c-0.09-0.01-0.18,0.04-0.23,0.13l-0.31,0.65c-0.03,0.07-0.13,0.16-0.19,0.19l-0.65,0.31c-0.09,0.04-0.14,0.13-0.13,0.23
		l0.05,0.72c0.01,0.07-0.03,0.21-0.07,0.27l-0.41,0.6c-0.05,0.08-0.05,0.18,0,0.26l0.41,0.6c0.04,0.06,0.08,0.19,0.07,0.27
		l-0.05,0.72c-0.01,0.09,0.04,0.18,0.13,0.23l0.46,0.22l-1.49,2.34c-0.05,0.08-0.05,0.19,0.01,0.26c0.06,0.08,0.16,0.11,0.25,0.08
		l1.4-0.4l0.4,1.4c0.03,0.09,0.11,0.16,0.21,0.17c0,0,0.01,0,0.01,0c0.09,0,0.18-0.06,0.21-0.14l1.05-2.52l0.46,0.31
		c0,0,0.01,0,0.01,0c0.01,0.01,0.03,0.01,0.04,0.02c0.01,0,0.01,0.01,0.02,0.01c0.02,0.01,0.04,0.01,0.06,0.01c0,0,0,0,0,0h0
		c0,0,0,0,0,0c0.02,0,0.04,0,0.06-0.01c0.01,0,0.01,0,0.02-0.01c0.01-0.01,0.03-0.01,0.04-0.02c0,0,0.01,0,0.01,0l0.46-0.31
		l1.05,2.52c0.04,0.09,0.12,0.14,0.21,0.14c0,0,0.01,0,0.01,0c0.1-0.01,0.18-0.07,0.21-0.17l0.4-1.4l1.4,0.4
		c0.09,0.03,0.19-0.01,0.25-0.08c0.06-0.08,0.06-0.18,0.01-0.26L22.6,23.34z M19.97,23.39c-1.22,0-2.22-1-2.22-2.22
		c0-1.22,1-2.22,2.22-2.22c1.22,0,2.22,1,2.22,2.22C22.19,22.39,21.19,23.39,19.97,23.39z"/>
	<path class="st1" d="M28.71,15c-0.03-0.05-0.06-0.09-0.1-0.13l-2.65-2.65c-0.26-0.26-0.67-0.26-0.93,0l-0.09,0.09
		c-0.26,0.26-0.26,0.67,0,0.93l1.55,1.55h-4.06V8.24c0-1.15-0.94-2.09-2.09-2.09h-9.79c-1.15,0-2.09,0.94-2.09,2.09v6.55H4.45
		L6,13.24c0.26-0.26,0.26-0.67,0-0.93l-0.09-0.09c-0.26-0.26-0.67-0.26-0.93,0l-2.65,2.65C2.3,14.9,2.27,14.95,2.24,15
		c-0.11,0.12-0.18,0.27-0.18,0.45v0.13c0,0.2,0.09,0.39,0.24,0.51c0.01,0.01,0.02,0.03,0.04,0.05l2.65,2.65
		c0.26,0.26,0.67,0.26,0.93,0L6,18.68c0.26-0.26,0.26-0.67,0-0.93l-1.52-1.52h3.97v5.46c0,1.15,0.94,2.09,2.09,2.09h4.62V22.5h-4.62
		c-0.45,0-0.81-0.36-0.81-0.81V8.24c0-0.45,0.36-0.81,0.81-0.81h9.79c0.45,0,0.81,0.36,0.81,0.81v7.99h0.88h0.4h4.04l-1.52,1.52
		c-0.26,0.26-0.26,0.67,0,0.93l0.09,0.09c0.26,0.26,0.67,0.26,0.93,0l2.65-2.65c0.01-0.01,0.02-0.03,0.04-0.05
		c0.15-0.12,0.24-0.3,0.24-0.51v-0.13C28.89,15.27,28.82,15.11,28.71,15z"/>
</g>
</svg>
