<?xml version="1.0" encoding="utf-8"?>
<!-- Generator: Adobe Illustrator 27.3.1, SVG Export Plug-In . SVG Version: 6.00 Build 0)  -->
<svg version="1.1" id="Layer_1" xmlns="http://www.w3.org/2000/svg" xmlns:xlink="http://www.w3.org/1999/xlink" x="0px" y="0px"
	 viewBox="0 0 30.96 30.96" style="enable-background:new 0 0 30.96 30.96;" xml:space="preserve">
<style type="text/css">
	.st0{fill:#28A8E0;}
	.st1{fill-rule:evenodd;clip-rule:evenodd;fill:#FFFFFF;}
</style>
<g>
	<g>
		<g>
			<path class="st0" d="M30.96,15.48c0,8.55-6.93,15.48-15.48,15.48S0,24.03,0,15.48C0,6.93,6.93,0,15.48,0S30.96,6.93,30.96,15.48z
				"/>
		</g>
		<g>
			<g>
				<path class="st1" d="M14.68,14.49L14.68,14.49c-0.04,0.07-0.11,0.15-0.18,0.15c-0.11-0.04-0.15-0.15-0.15-0.22
					c0.33-1.04,1.41-1.74,2.52-1.52c0.11,0,0.15,0.11,0.11,0.19c0,0.11-0.07,0.15-0.15,0.11C15.87,13.09,14.98,13.6,14.68,14.49
					 M18.27,15.79c0.56-1.07,0.15-2.44-0.96-3.03c-1.07-0.55-2.44-0.15-3,0.92c-0.59,1.07-0.19,2.48,0.89,3.03
					C16.31,17.3,17.68,16.86,18.27,15.79 M20.71,11.16c-3.07,0-4.7-1.48-5.37-2.18c-0.63,0.7-2.37,2.18-5.37,2.18
					c-0.41,0-0.74-0.07-1.15-0.07c0.07,0.3,0.07,0.7,0.19,1.29c0.07,1.04,0.22,2.48,0.7,3.96c0.44,1.63,1.11,3.33,2.11,4.77
					c0.15-0.26,0.56-1.04,1.81-3.29l0.33,0.18l0.41-0.78c-1.22-0.89-1.63-2.59-0.89-4c0.81-1.52,2.7-2.11,4.26-1.3
					c1.52,0.81,2.11,2.74,1.3,4.25c-0.74,1.37-2.33,1.96-3.77,1.52l-0.44,0.78l0.37,0.22c0,0-0.33,0.67-2.07,3.89
					c0.63,0.59,1.37,1.11,2.22,1.52c4.74-2.18,6.03-8.58,6.36-11.73c0.07-0.59,0.07-1,0.07-1.29
					C21.38,11.09,21.05,11.16,20.71,11.16"/>
			</g>
			<g>
				<path class="st1" d="M22.53,11.88c-0.37,3.55-1.85,10.75-7.18,13.23c-3.55-1.63-5.4-5.28-6.33-8.76
					c-0.56-1.63-0.74-3.29-0.81-4.47c-0.11-0.63-0.11-1.11-0.18-1.48c0.44,0,0.81,0.11,1.26,0.11c3.41,0,5.37-1.63,6.07-2.48
					c0.74,0.85,2.59,2.48,6.07,2.48c0.37,0,0.74-0.11,1.22-0.11C22.64,10.77,22.64,11.25,22.53,11.88 M23.01,9.52
					c-0.56,0.07-1.11,0.07-1.59,0.07c-2.11,0-3.55-0.52-4.48-1.18c-0.48-0.37-0.74-0.63-0.93-0.81c-0.11-0.18-0.18-0.26-0.3-0.26
					V7.23l-0.37-0.55l-0.33,0.55L14.9,7.34c-0.37,0.33-1.92,2.25-5.63,2.25c-0.52,0-1.07,0-1.63-0.07H7.17v0.44c0,0,0,3.1,1.04,6.65
					c0.89,3.58,2.92,7.58,7,9.42h0.15h0.18c4.07-1.85,6-5.84,7-9.42c0.93-3.55,0.93-6.65,0.93-6.65V9.52H23.01z"/>
			</g>
		</g>
	</g>
</g>
</svg>
