<?xml version="1.0" encoding="utf-8"?>
<!-- Generator: Adobe Illustrator 27.3.1, SVG Export Plug-In . SVG Version: 6.00 Build 0)  -->
<svg version="1.1" id="Layer_1" xmlns="http://www.w3.org/2000/svg" xmlns:xlink="http://www.w3.org/1999/xlink" x="0px" y="0px"
	 viewBox="0 0 30.96 30.96" style="enable-background:new 0 0 30.96 30.96;" xml:space="preserve">
<style type="text/css">
	.st0{fill:#28A8E0;}
	.st1{fill-rule:evenodd;clip-rule:evenodd;fill:#FFFFFF;}
	.st2{fill:#FFFFFF;}
</style>
<g>
	<g>
		<g>
			<path class="st0" d="M30.96,15.48c0,8.55-6.93,15.48-15.48,15.48S0,24.03,0,15.48C0,6.93,6.93,0,15.48,0S30.96,6.93,30.96,15.48z
				"/>
		</g>
		<g>
			<polygon class="st1" points="14.92,17.33 17.12,17.33 17,16.89 15.06,16.89 			"/>
			<polygon class="st2" points="13.89,17.33 14.05,16.89 14.66,16.89 14.7,17.33 			"/>
			<polygon class="st2" points="14.4,15.71 14.57,15.26 14.62,15.26 14.62,15.71 			"/>
			<polygon class="st2" points="13.5,14.16 13.38,13.64 14.11,13.64 13.95,14.16 			"/>
			<path class="st1" d="M14.47,12.46l0.15-0.44h-2.16c-0.08,0.15-0.19,0.29-0.27,0.44H14.47z"/>
			<path class="st1" d="M12.46,14.16l0.18-0.52H11.8c-0.04,0.17-0.04,0.34-0.04,0.52H12.46z"/>
			<polygon class="st1" points="18.15,14.16 18.3,13.64 16.98,13.64 17.13,14.16 			"/>
			<path class="st1" d="M11.83,15.26c0.04,0.11,0.04,0.18,0.09,0.29l0.13-0.29H11.83z"/>
			<polygon class="st1" points="15.43,15.71 16.61,15.71 16.49,15.26 15.63,15.26 			"/>
			<path class="st1" d="M20.52,9.2l0.08,0.09h6.65c0.12,0,0.23-0.09,0.23-0.26c0-0.13-0.12-0.26-0.23-0.26h-7.12
				C20.25,8.9,20.41,9.03,20.52,9.2"/>
			<path class="st1" d="M16.62,12.46h2.05c-0.08-0.15-0.19-0.29-0.31-0.44h-1.89L16.62,12.46z"/>
			<path class="st1" d="M12.79,16.89c0,0,0.04,0,0.04,0.04c0.15,0.12,0.29,0.28,0.48,0.4l-0.11-0.44H12.79z"/>
			<polygon class="st1" points="15.47,12.46 15.69,12.46 15.87,12.02 15.43,12.02 			"/>
			<path class="st1" d="M13.89,10.91h1.14l0.11-0.37C14.68,10.59,14.27,10.71,13.89,10.91"/>
			<path class="st1" d="M27.25,16.89h-5.08c-0.08,0.15-0.16,0.29-0.19,0.44h5.28c0.12,0,0.23-0.11,0.23-0.22
				C27.48,16.96,27.37,16.89,27.25,16.89"/>
			<path class="st1" d="M27.25,15.26h-4.69c0,0.15-0.04,0.29-0.08,0.44h4.76c0.12,0,0.23-0.07,0.23-0.22
				C27.48,15.37,27.37,15.26,27.25,15.26"/>
			<path class="st1" d="M6.85,17.33h2.05c-0.04-0.15-0.12-0.29-0.19-0.44H6.85c-0.15,0-0.23,0.07-0.23,0.22
				C6.61,17.22,6.69,17.33,6.85,17.33"/>
			<path class="st1" d="M6.84,15.71h1.53c-0.04-0.15-0.08-0.29-0.08-0.44H6.84c-0.15,0-0.23,0.11-0.23,0.22
				C6.61,15.63,6.69,15.71,6.84,15.71"/>
			<path class="st1" d="M27.25,10.4h-5.72c0.12,0.17,0.19,0.34,0.27,0.52h5.45c0.12,0,0.23-0.13,0.23-0.26
				C27.48,10.48,27.37,10.4,27.25,10.4"/>
			<path class="st1" d="M27.25,13.64h-4.62c0.04,0.17,0.04,0.34,0.04,0.52h4.58c0.12,0,0.23-0.13,0.23-0.26
				C27.48,13.73,27.37,13.64,27.25,13.64"/>
			<path class="st1" d="M27.25,12.02h-4.98c0.04,0.15,0.08,0.29,0.12,0.44h4.87c0.12,0,0.23-0.07,0.23-0.22
				C27.48,12.13,27.37,12.02,27.25,12.02"/>
			<path class="st1" d="M6.85,9.29h3.38c0.04-0.04,0.08-0.04,0.12-0.09c0.12-0.17,0.27-0.3,0.39-0.43H6.85
				c-0.16,0-0.23,0.13-0.23,0.26C6.61,9.2,6.69,9.29,6.85,9.29"/>
			<path class="st1" d="M6.84,14.16h1.35c0-0.17,0-0.34,0.04-0.52H6.84c-0.15,0-0.23,0.09-0.23,0.26
				C6.61,14.03,6.69,14.16,6.84,14.16"/>
			<path class="st1" d="M18.23,15.26l-0.15,0.44h0.76c0.08-0.15,0.11-0.29,0.19-0.44H18.23z"/>
			<path class="st1" d="M15.36,10.54v0.37h1.62c-0.5-0.22-1-0.37-1.54-0.37H15.36z"/>
			<path class="st1" d="M6.85,12.46h1.59c0.04-0.15,0.12-0.29,0.16-0.44H6.85c-0.16,0-0.23,0.11-0.23,0.22
				C6.61,12.39,6.69,12.46,6.85,12.46"/>
			<path class="st1" d="M17.82,16.89l-0.11,0.29c0.15-0.07,0.26-0.18,0.33-0.26l0.04-0.04H17.82z"/>
			<path class="st1" d="M6.85,10.91h2.21c0.08-0.17,0.19-0.34,0.27-0.52H6.85c-0.16,0-0.23,0.09-0.23,0.26
				C6.61,10.78,6.69,10.91,6.85,10.91"/>
			<path class="st1" d="M14.92,16.69l1.28-3.37l1.24,4.11l0.66-2.58l0.62-0.12l0.39-1.21c-0.04-0.23-0.12-0.51-0.23-0.7l-0.04,0.04
				l-0.47,1.49l-0.62,0.12l-0.35,1.25l-1.16-3.84l-0.93,2.47l-0.08-3.13l-1.55,4.62l-0.58-2.58l-0.97,2.66
				c0.08,0.2,0.16,0.35,0.27,0.55l0.62-1.57l0.58,2.62v0.04l1.24-3.72L14.92,16.69z"/>
			<path class="st1" d="M20.03,9.65c-1.28-1.25-2.92-1.91-4.55-1.91c-1.67,0-3.38,0.66-4.7,1.91c-2.18,2.22-2.41,5.58-0.89,8.11
				l-4.9,4.99c-0.43,0.35-0.43,1.05,0,1.48l0.54,0.55c0.43,0.43,1.13,0.43,1.48,0l4.98-4.95c1.09,0.66,2.25,0.98,3.5,0.98
				c1.63,0,3.27-0.62,4.55-1.87C22.63,16.36,22.63,12.19,20.03,9.65 M18.55,17.42c-0.82,0.82-1.94,1.29-3.07,1.29
				c-1.21,0-2.33-0.47-3.19-1.29c-1.71-1.76-1.71-4.52,0-6.24c0.86-0.86,1.98-1.37,3.19-1.37c1.13,0,2.25,0.51,3.07,1.37
				c0.86,0.78,1.32,1.91,1.32,3.12C19.87,15.43,19.41,16.56,18.55,17.42"/>
		</g>
	</g>
</g>
</svg>
