<?xml version="1.0" encoding="utf-8"?>
<!-- Generator: Adobe Illustrator 27.3.1, SVG Export Plug-In . SVG Version: 6.00 Build 0)  -->
<svg version="1.1" id="Layer_1" xmlns="http://www.w3.org/2000/svg" xmlns:xlink="http://www.w3.org/1999/xlink" x="0px" y="0px"
	 viewBox="0 0 30.96 30.96" style="enable-background:new 0 0 30.96 30.96;" xml:space="preserve">
<style type="text/css">
	.st0{fill:#28A8E0;}
	.st1{fill:#FFFFFF;}
</style>
<g>
	<g>
		<g>
			<path class="st0" d="M30.96,15.48c0,8.55-6.93,15.48-15.48,15.48S0,24.03,0,15.48C0,6.93,6.93,0,15.48,0S30.96,6.93,30.96,15.48z
				"/>
		</g>
	</g>
</g>
<g>
	<path class="st1" d="M17.26,14.6h-0.2v-0.45c0-0.98-0.66-1.66-1.58-1.66c-0.92,0-1.58,0.68-1.58,1.66v0.45h-0.2
		c-0.15,0-0.26,0.12-0.26,0.27v3.18c0,0.15,0.12,0.26,0.26,0.26h3.57c0.15,0,0.26-0.12,0.26-0.26v-3.18
		C17.53,14.71,17.41,14.6,17.26,14.6z M16.54,14.6h-2.11v-0.45c0-0.68,0.44-1.13,1.06-1.13c0.62,0,1.06,0.45,1.06,1.13V14.6z"/>
	<path class="st1" d="M29.11,15c-0.03-0.05-0.06-0.09-0.1-0.13l-2.65-2.65c-0.26-0.26-0.67-0.26-0.93,0l-0.09,0.09
		c-0.26,0.26-0.26,0.67,0,0.93l1.55,1.55h-2.73l0-0.03c0.06-0.41-0.25-0.72-0.72-0.73l-1.65-0.01c-0.09-0.64-0.38-1.38-0.81-2
		l1.16-1.18c0.26-0.27,0.27-0.73,0-0.99l-1.05-1.07c-0.24-0.27-0.68-0.25-1.02,0.08l-1.09,1.09c-0.6-0.42-1.32-0.66-2.06-0.85
		l0.02-1.63c-0.07-0.4-0.31-0.67-0.72-0.73l-1.44-0.02c-0.45,0.02-0.79,0.35-0.77,0.8l0.03,1.57c-0.76,0.13-1.41,0.47-2.03,0.9
		l-1.18-1.24c-0.29-0.22-0.68-0.25-1.02,0.08l-1,0.95c-0.31,0.32-0.32,0.78-0.05,1.04l1.18,1.16c-0.42,0.61-0.66,1.29-0.85,2.06
		l-1.65-0.01c-0.32-0.03-0.66,0.31-0.7,0.7l0,0.05H4l1.55-1.55c0.26-0.26,0.26-0.67,0-0.93l-0.09-0.09c-0.26-0.26-0.67-0.26-0.93,0
		l-2.65,2.65C1.85,14.9,1.81,14.95,1.79,15c-0.11,0.12-0.18,0.27-0.18,0.45v0.13c0,0.2,0.09,0.39,0.24,0.51
		c0.01,0.01,0.02,0.03,0.04,0.05l2.65,2.65c0.26,0.26,0.67,0.26,0.93,0l0.09-0.09c0.26-0.26,0.26-0.67,0-0.93l-1.52-1.52h2.72
		c0.04,0.43,0.36,0.74,0.74,0.67l1.62,0.02c0.17,0.68,0.47,1.42,0.81,2l-1.16,1.18c-0.26,0.27-0.24,0.72,0.08,1.03l0.96,1.03
		c0.32,0.31,0.77,0.29,1.12-0.01l1.08-1.12c0.6,0.42,1.29,0.67,1.97,0.81l0.12,1.61c-0.06,0.41,0.27,0.75,0.66,0.79l1.48-0.07
		c0.41,0.07,0.66-0.31,0.73-0.72l-0.03-1.57c0.68-0.17,1.42-0.43,2.03-0.9l1.09,1.2c0.37,0.26,0.77,0.29,1.09,0l1.07-1.05
		c0.2-0.32,0.24-0.72-0.05-1.04L21.04,19c0.33-0.65,0.66-1.29,0.85-2.06l1.57-0.03c0.4,0.06,0.73-0.25,0.73-0.68h2.69l-1.52,1.52
		c-0.26,0.26-0.26,0.67,0,0.93l0.09,0.09c0.26,0.26,0.67,0.26,0.93,0l2.65-2.65c0.01-0.01,0.02-0.03,0.04-0.05
		c0.15-0.12,0.24-0.3,0.24-0.51v-0.13C29.29,15.27,29.22,15.11,29.11,15z M18.64,18.66c-1.71,1.7-4.5,1.74-6.28-0.02
		c-1.75-1.77-1.74-4.52,0.01-6.3c1.71-1.8,4.5-1.74,6.28,0.02C20.31,14.08,20.4,16.9,18.64,18.66z"/>
</g>
</svg>
