<?xml version="1.0" encoding="utf-8"?>
<!-- Generator: Adobe Illustrator 27.3.1, SVG Export Plug-In . SVG Version: 6.00 Build 0)  -->
<svg version="1.1" id="Layer_1" xmlns="http://www.w3.org/2000/svg" xmlns:xlink="http://www.w3.org/1999/xlink" x="0px" y="0px"
	 viewBox="0 0 30.96 30.96" style="enable-background:new 0 0 30.96 30.96;" xml:space="preserve">
<style type="text/css">
	.st0{fill:#28A8E0;}
	.st1{fill-rule:evenodd;clip-rule:evenodd;fill:#FFFFFF;}
</style>
<g>
	<g>
		<g>
			<path class="st0" d="M30.96,15.48c0,8.55-6.93,15.48-15.48,15.48S0,24.03,0,15.48C0,6.93,6.93,0,15.48,0S30.96,6.93,30.96,15.48z
				"/>
		</g>
		<g>
			<path class="st1" d="M12.65,12.26c-0.08,0.06-0.17,0.06-0.31,0.06v0.25h0.39v1.02h0.31v-1.55h-0.28
				C12.73,12.15,12.71,12.2,12.65,12.26"/>
			<path class="st1" d="M13.61,15.21c0-0.36,0.11-0.53,0.28-0.53c0.17,0,0.25,0.17,0.25,0.53s-0.08,0.53-0.25,0.53
				C13.72,15.74,13.61,15.58,13.61,15.21 M14.34,15.77c0.08-0.14,0.14-0.34,0.14-0.56c0-0.25-0.06-0.45-0.14-0.59
				c-0.11-0.14-0.25-0.22-0.45-0.22c-0.19,0-0.33,0.08-0.45,0.22c-0.08,0.14-0.14,0.34-0.14,0.59s0.06,0.45,0.14,0.59
				c0.11,0.14,0.25,0.22,0.45,0.22C14.08,16.02,14.22,15.94,14.34,15.77"/>
			<path class="st1" d="M12.11,15.21c0-0.36,0.09-0.53,0.26-0.53c0.17,0,0.28,0.17,0.28,0.53s-0.11,0.53-0.28,0.53
				C12.2,15.74,12.11,15.58,12.11,15.21 M12.82,15.77c0.09-0.14,0.14-0.34,0.14-0.56c0-0.25-0.06-0.45-0.14-0.59
				c-0.11-0.14-0.26-0.22-0.45-0.22c-0.2,0-0.34,0.08-0.45,0.22c-0.09,0.14-0.14,0.34-0.14,0.59s0.06,0.45,0.14,0.59
				c0.11,0.14,0.26,0.22,0.45,0.22C12.57,16.02,12.71,15.94,12.82,15.77"/>
			<path class="st1" d="M12.6,17.03c-0.06,0.06-0.17,0.08-0.31,0.08v0.25h0.4v1.02H13v-1.55h-0.26C12.71,16.91,12.65,17,12.6,17.03"
				/>
			<path class="st1" d="M10.91,14.65c-0.08,0.06-0.17,0.08-0.31,0.08v0.22H11v1.01h0.31v-1.54h-0.28
				C11,14.54,10.97,14.59,10.91,14.65"/>
			<path class="st1" d="M14.2,18.16c-0.19,0-0.28-0.2-0.28-0.56c0-0.37,0.08-0.54,0.28-0.54c0.17,0,0.25,0.17,0.25,0.54
				C14.45,17.96,14.36,18.16,14.2,18.16 M14.2,16.81c-0.19,0-0.33,0.06-0.45,0.2c-0.11,0.17-0.14,0.37-0.14,0.59
				c0,0.25,0.03,0.45,0.14,0.59c0.08,0.14,0.25,0.23,0.45,0.23c0.19,0,0.33-0.08,0.45-0.23c0.08-0.14,0.14-0.34,0.14-0.59
				c0-0.23-0.06-0.42-0.17-0.56C14.53,16.86,14.36,16.81,14.2,16.81"/>
			<path class="st1" d="M14.22,13.36c-0.17,0-0.25-0.2-0.25-0.53c0-0.36,0.08-0.56,0.25-0.56c0.17,0,0.28,0.2,0.28,0.56
				C14.51,13.16,14.39,13.36,14.22,13.36 M14.22,12.01c-0.2,0-0.34,0.06-0.45,0.22c-0.08,0.14-0.14,0.34-0.14,0.59
				c0,0.22,0.06,0.42,0.14,0.56c0.11,0.14,0.25,0.22,0.45,0.22c0.2,0,0.34-0.08,0.45-0.22c0.08-0.14,0.14-0.34,0.14-0.56
				c0-0.25-0.06-0.45-0.14-0.59C14.56,12.09,14.42,12.01,14.22,12.01"/>
			<path class="st1" d="M15.21,15.97h0.31v-1.54h-0.25c-0.03,0.11-0.08,0.17-0.14,0.22c-0.06,0.06-0.17,0.08-0.31,0.08v0.22h0.39
				V15.97z"/>
			<path class="st1" d="M16.86,15.21c0,0.36-0.08,0.53-0.28,0.53c-0.17,0-0.25-0.17-0.25-0.53c0-0.36,0.08-0.53,0.25-0.53
				C16.78,14.68,16.86,14.85,16.86,15.21 M14.53,18.69c-0.17,0.08-0.34,0.11-0.53,0.17c-0.11,0.03-0.22,0.03-0.36,0.06
				c-0.11,0-0.25,0.03-0.36,0.03c-0.14,0-0.25-0.03-0.39-0.03c-0.11-0.03-0.25-0.03-0.36-0.06c-0.17-0.06-0.36-0.08-0.53-0.17
				c-0.11-0.03-0.22-0.08-0.31-0.14c-0.11-0.03-0.22-0.08-0.31-0.14c0.14-0.03,0.25-0.11,0.34-0.22c0.11-0.14,0.14-0.34,0.14-0.59
				c0-0.22-0.03-0.42-0.14-0.56c-0.11-0.17-0.25-0.22-0.45-0.22s-0.34,0.06-0.42,0.2c-0.11,0.17-0.17,0.36-0.17,0.59
				c0,0.11,0.03,0.2,0.03,0.28l-0.06-0.06l0.03,0.03l-0.06-0.06l0.03,0.03c-0.03-0.03-0.06-0.08-0.11-0.11
				c-0.11-0.14-0.22-0.28-0.31-0.42c-0.06-0.06-0.11-0.14-0.14-0.2c-0.03-0.06-0.14-0.25-0.14-0.25c-0.08-0.22-0.2-0.45-0.25-0.7
				c0-0.03,0-0.08-0.03-0.14c0,0.03,0,0.03,0.03,0.03c0.2,0,0.34-0.08,0.45-0.25c0.08-0.14,0.14-0.34,0.14-0.56
				c0-0.25-0.06-0.45-0.17-0.59c-0.08-0.14-0.25-0.22-0.42-0.22H9.65c0.03-0.08,0.06-0.2,0.08-0.31c0.06-0.17,0.11-0.34,0.2-0.5
				c0.03-0.03,0.08-0.14,0.08-0.14c0.06-0.11,0.11-0.22,0.2-0.31c0.14-0.25,0.34-0.45,0.53-0.64c-0.03,0.08-0.03,0.2-0.03,0.34
				c0,0.22,0.06,0.42,0.14,0.56c0.11,0.14,0.25,0.22,0.45,0.22c0.2,0,0.34-0.08,0.45-0.22c0.08-0.14,0.14-0.34,0.14-0.56
				c0-0.25-0.06-0.45-0.14-0.59c-0.11-0.14-0.22-0.2-0.39-0.22c0.56-0.34,1.21-0.53,1.91-0.53c0.84,0,1.63,0.31,2.27,0.79
				c-0.08,0.06-0.17,0.06-0.28,0.06v0.25h0.39v1.01h0.31v-0.9c0.14,0.14,0.25,0.28,0.36,0.45c0.06,0.08,0.11,0.2,0.17,0.31
				c0.14,0.2,0.22,0.42,0.28,0.64c0.06,0.11,0.08,0.22,0.08,0.34c0,0,0.03,0.03,0.03,0.06c-0.08-0.06-0.2-0.08-0.31-0.08
				c-0.2,0-0.34,0.08-0.42,0.22c-0.11,0.14-0.17,0.34-0.17,0.59c0,0.25,0.06,0.45,0.14,0.59c0.11,0.14,0.25,0.22,0.45,0.22
				c0.11,0,0.22-0.03,0.31-0.08c0,0,0,0.03-0.03,0.03c0,0.06,0,0.11-0.03,0.17c-0.11,0.42-0.28,0.79-0.51,1.15
				c-0.03-0.11-0.06-0.2-0.11-0.25c-0.11-0.17-0.25-0.22-0.45-0.22c-0.2,0-0.34,0.06-0.42,0.2c-0.11,0.17-0.17,0.36-0.17,0.59
				c0,0.25,0.06,0.45,0.14,0.59c0.03,0.03,0.06,0.06,0.06,0.06c-0.14,0.14-0.34,0.22-0.51,0.31C14.76,18.6,14.65,18.66,14.53,18.69
				 M11,17.59c0-0.36,0.08-0.53,0.25-0.53c0.2,0,0.28,0.17,0.28,0.53c0,0.36-0.08,0.56-0.28,0.56C11.08,18.15,11,17.96,11,17.59
				 M5.58,16.64c-0.08-0.03-0.34-0.53-0.34-1.43c0-0.93,0.25-1.43,0.34-1.46c0.11,0.03,0.36,0.53,0.36,1.46
				C5.94,16.11,5.69,16.61,5.58,16.64 M9.57,15.21c0-0.2,0.03-0.36,0.03-0.53h0.08c0.17,0,0.25,0.17,0.25,0.53
				c0,0.36-0.08,0.53-0.25,0.53H9.59C9.59,15.57,9.57,15.38,9.57,15.21 M11.31,12.27c0.17,0,0.25,0.2,0.25,0.56
				c0,0.34-0.08,0.53-0.25,0.53c-0.2,0-0.28-0.2-0.28-0.53C11.03,12.46,11.11,12.27,11.31,12.27 M15.52,17.59
				c0-0.36,0.08-0.53,0.25-0.53c0.2,0,0.28,0.17,0.28,0.53v0.06c-0.03,0.03-0.03,0.03-0.06,0.06c-0.03,0.06-0.08,0.08-0.11,0.14
				c-0.08,0.08-0.17,0.14-0.25,0.22C15.54,17.99,15.52,17.85,15.52,17.59 M5.58,22.05c-0.08-0.03-0.34-0.53-0.34-1.46
				c0-0.9,0.25-1.4,0.34-1.43c0.11,0.03,0.36,0.53,0.36,1.43C5.94,21.52,5.69,22.02,5.58,22.05 M5.58,11.23
				C5.5,11.2,5.24,10.7,5.24,9.77c0-0.9,0.25-1.4,0.34-1.43c0.11,0.03,0.36,0.53,0.36,1.43C5.94,10.7,5.69,11.2,5.58,11.23
				 M25.17,11.82h-9.32c-0.65-0.5-1.43-0.81-2.3-0.9l-2.83-2.94H5.58c-0.48,0-0.7,0.95-0.7,1.79c0,0.87,0.22,1.82,0.7,1.82h3.96
				l0.65,0.67c-0.34,0.34-0.59,0.73-0.79,1.12H5.58c-0.48,0-0.7,0.95-0.7,1.82c0,0.87,0.22,1.79,0.7,1.79H9.4
				c0.2,0.42,0.45,0.81,0.76,1.12L9.54,18.8H5.58c-0.48,0-0.7,0.93-0.7,1.79c0,0.87,0.22,1.82,0.7,1.82h5.14l2.81-2.94
				c0.87-0.06,1.68-0.36,2.36-0.9h9.29c0.93,0,1.32-1.74,1.32-3.36C26.49,13.56,26.1,11.82,25.17,11.82"/>
		</g>
	</g>
</g>
</svg>
