<?xml version="1.0" encoding="utf-8"?>
<!-- Generator: Adobe Illustrator 27.3.1, SVG Export Plug-In . SVG Version: 6.00 Build 0)  -->
<svg version="1.1" id="Layer_1" xmlns="http://www.w3.org/2000/svg" xmlns:xlink="http://www.w3.org/1999/xlink" x="0px" y="0px"
	 viewBox="0 0 30.96 30.96" style="enable-background:new 0 0 30.96 30.96;" xml:space="preserve">
<style type="text/css">
	.st0{fill:#28A8E0;}
	.st1{fill:#FFFFFF;}
	.st2{fill-rule:evenodd;clip-rule:evenodd;fill:#28A8E0;}
</style>
<g>
	<g>
		<g>
			<path class="st0" d="M30.96,15.48c0,8.55-6.93,15.48-15.48,15.48S0,24.03,0,15.48C0,6.93,6.93,0,15.48,0S30.96,6.93,30.96,15.48z
				"/>
		</g>
	</g>
</g>
<rect x="6.71" y="9.83" class="st1" width="17.52" height="10.34"/>
<path class="st1" d="M24.81,7.44H6.28c-1.24,0-2.26,1.02-2.26,2.26v10.6c0,1.24,1.02,2.26,2.26,2.26h7.3v1.55H10.4
	c-0.54,0-0.98,0.44-0.98,0.98c0,0.54,0.44,0.98,0.98,0.98h10.29c0.54,0,0.98-0.44,0.98-0.98c0-0.54-0.44-0.98-0.98-0.98h-2.8v-1.55
	h6.92c1.24,0,2.26-1.02,2.26-2.26V9.7C27.08,8.46,26.06,7.44,24.81,7.44 M25.94,20.3c0,0.62-0.51,1.13-1.13,1.13H6.28
	c-0.62,0-1.13-0.51-1.13-1.13V9.7c0-0.62,0.51-1.13,1.13-1.13h18.54c0.62,0,1.13,0.51,1.13,1.13V20.3z"/>
<g>
	<g>
		<path class="st2" d="M16.12,17.89c0-0.39,0.12-0.7,0.28-0.7c0.15,0,0.28,0.31,0.28,0.7c0,0.39-0.12,0.7-0.28,0.7
			C16.24,18.58,16.12,18.27,16.12,17.89"/>
	</g>
	<g>
		<path class="st2" d="M18.22,17.19c-0.19,0-0.29,0.25-0.29,0.76c0,0.32,0.05,0.54,0.12,0.63c0.1-0.1,0.17-0.19,0.27-0.32
			c0.05-0.06,0.1-0.13,0.12-0.16c0.02-0.03,0.05-0.06,0.05-0.1v-0.06C18.49,17.44,18.39,17.19,18.22,17.19"/>
	</g>
	<g>
		<path class="st2" d="M13.89,14.96c0-0.39,0.16-0.7,0.35-0.7c0.19,0,0.35,0.31,0.35,0.7c0,0.39-0.16,0.7-0.35,0.7
			C14.05,15.65,13.89,15.34,13.89,14.96"/>
	</g>
	<g>
		<path class="st2" d="M12.63,17.89c0-0.39,0.12-0.7,0.28-0.7c0.15,0,0.28,0.31,0.28,0.7c0,0.39-0.12,0.7-0.28,0.7
			C12.76,18.58,12.63,18.27,12.63,17.89"/>
	</g>
	<g>
		<path class="st2" d="M15.7,14.96c0-0.39,0.12-0.7,0.28-0.7c0.15,0,0.28,0.31,0.28,0.7c0,0.39-0.12,0.7-0.28,0.7
			C15.83,15.65,15.7,15.34,15.7,14.96"/>
	</g>
	<g>
		<path class="st2" d="M17.96,15.89H17.6v-1.25h-0.47v-0.28c0.17,0,0.27-0.03,0.36-0.11c0.08-0.03,0.14-0.11,0.17-0.26h0.3V15.89z
			 M16.97,12.68c-0.14,0.2-0.3,0.28-0.55,0.28c-0.22,0-0.41-0.09-0.52-0.26c-0.11-0.17-0.16-0.43-0.16-0.71
			c0-0.31,0.06-0.57,0.16-0.74c0.14-0.17,0.3-0.26,0.52-0.26c0.25,0,0.41,0.09,0.52,0.26c0.14,0.17,0.19,0.43,0.19,0.74
			C17.14,12.29,17.08,12.51,16.97,12.68 M16.92,18.62c-0.11,0.2-0.3,0.28-0.55,0.28c-0.22,0-0.38-0.08-0.52-0.28
			c-0.11-0.17-0.16-0.4-0.16-0.71c0-0.31,0.05-0.54,0.16-0.71c0.14-0.2,0.3-0.28,0.52-0.28c0.25,0,0.41,0.09,0.55,0.28
			c0.11,0.17,0.17,0.4,0.17,0.71C17.08,18.2,17.03,18.45,16.92,18.62 M15.49,15.67c-0.11-0.17-0.17-0.43-0.17-0.71
			c0-0.31,0.06-0.54,0.17-0.74c0.14-0.17,0.3-0.26,0.52-0.26c0.25,0,0.41,0.08,0.55,0.28c0.11,0.17,0.17,0.4,0.17,0.71
			c0,0.28-0.06,0.51-0.17,0.71c-0.11,0.17-0.3,0.28-0.55,0.28C15.79,15.95,15.63,15.84,15.49,15.67 M15.02,12.94h-0.38v-1.25h-0.47
			v-0.28c0.17,0,0.3-0.03,0.38-0.11c0.05-0.06,0.11-0.14,0.14-0.26h0.33V12.94z M14.97,18.88h-0.38V17.6h-0.47v-0.28
			c0.16,0,0.3-0.03,0.38-0.09c0.06-0.06,0.11-0.14,0.14-0.26h0.33V18.88z M13.68,15.67c-0.11-0.17-0.16-0.43-0.16-0.71
			c0-0.31,0.05-0.54,0.19-0.74c0.11-0.17,0.27-0.26,0.52-0.26c0.22,0,0.38,0.08,0.52,0.28c0.11,0.17,0.17,0.4,0.17,0.71
			c0,0.28-0.06,0.51-0.17,0.71c-0.11,0.17-0.3,0.28-0.52,0.28C13.98,15.95,13.81,15.84,13.68,15.67 M12.94,15.89h-0.38v-1.25h-0.44
			v-0.28c0.14,0,0.27-0.03,0.36-0.11c0.05-0.03,0.11-0.11,0.16-0.26h0.3V15.89z M18.73,15.67c-0.11-0.17-0.19-0.43-0.19-0.71
			c0-0.31,0.08-0.54,0.19-0.74c0.11-0.17,0.3-0.26,0.52-0.26c0.14,0,0.25,0.03,0.36,0.08c0-0.03-0.03-0.06-0.03-0.06
			c-0.03-0.14-0.05-0.28-0.08-0.4c-0.08-0.31-0.19-0.57-0.33-0.82c-0.08-0.14-0.17-0.26-0.22-0.4c-0.14-0.2-0.27-0.37-0.44-0.57
			v1.14h-0.38v-1.25h-0.47v-0.28c0.14,0,0.25-0.03,0.33-0.09c-0.74-0.6-1.67-0.97-2.72-0.97c-0.82,0-1.59,0.23-2.25,0.65
			c0.19,0,0.33,0.11,0.44,0.26c0.14,0.17,0.19,0.43,0.19,0.74c0,0.28-0.06,0.51-0.16,0.68c-0.14,0.2-0.3,0.28-0.55,0.28
			c-0.22,0-0.41-0.09-0.52-0.26c-0.11-0.17-0.19-0.43-0.19-0.71c0-0.17,0.03-0.31,0.05-0.43c-0.25,0.26-0.47,0.51-0.66,0.8
			c-0.08,0.14-0.14,0.26-0.22,0.4c0,0-0.08,0.14-0.08,0.17c-0.11,0.2-0.19,0.43-0.25,0.65c-0.03,0.11-0.08,0.23-0.11,0.37h0.03
			c0.22,0,0.41,0.08,0.52,0.28c0.14,0.17,0.19,0.4,0.19,0.71c0,0.28-0.05,0.51-0.16,0.71c-0.14,0.17-0.3,0.28-0.55,0.28
			c0,0.03,0,0.09,0.03,0.14c0.08,0.31,0.17,0.6,0.3,0.88c0,0,0.11,0.23,0.16,0.28c0.03,0.08,0.08,0.17,0.14,0.26
			c0.11,0.2,0.25,0.37,0.38,0.54c0.05,0.03,0.11,0.08,0.14,0.14l0.08,0.06c-0.03-0.11-0.03-0.23-0.03-0.34
			c0-0.31,0.06-0.54,0.17-0.71c0.14-0.2,0.3-0.28,0.52-0.28c0.25,0,0.41,0.09,0.52,0.28c0.14,0.17,0.19,0.4,0.19,0.71
			c0,0.28-0.05,0.54-0.16,0.71c-0.11,0.14-0.25,0.26-0.41,0.28c0.11,0.06,0.22,0.11,0.36,0.2c0.11,0.06,0.25,0.11,0.38,0.17
			c0.19,0.06,0.41,0.14,0.63,0.17c0.14,0.03,0.3,0.06,0.44,0.09c0.14,0,0.3,0.03,0.44,0.03c0.16,0,0.3-0.03,0.47-0.03
			c0.14-0.03,0.27-0.06,0.44-0.09c0.22-0.03,0.41-0.11,0.63-0.17c0.11-0.06,0.25-0.11,0.38-0.17c0.22-0.11,0.44-0.26,0.63-0.4
			c-0.03-0.03-0.05-0.06-0.08-0.09c-0.11-0.17-0.16-0.4-0.16-0.71c0-0.31,0.05-0.54,0.19-0.71c0.11-0.2,0.27-0.28,0.52-0.28
			c0.22,0,0.38,0.09,0.52,0.28c0.05,0.09,0.11,0.2,0.14,0.31c0.27-0.43,0.47-0.91,0.6-1.42c0.03-0.06,0.03-0.11,0.03-0.2
			c0.03,0,0.03-0.03,0.03-0.06c-0.11,0.06-0.22,0.11-0.36,0.11C19.03,15.95,18.84,15.84,18.73,15.67"/>
	</g>
	<g>
		<path class="st2" d="M18.91,14.96c0-0.39,0.16-0.7,0.35-0.7c0.19,0,0.35,0.31,0.35,0.7c0,0.39-0.16,0.7-0.35,0.7
			C19.07,15.65,18.91,15.34,18.91,14.96"/>
	</g>
	<g>
		<path class="st2" d="M16.12,11.96c0-0.35,0.12-0.63,0.28-0.63c0.15,0,0.28,0.28,0.28,0.63c0,0.35-0.12,0.63-0.28,0.63
			C16.24,12.59,16.12,12.31,16.12,11.96"/>
	</g>
	<g>
		<path class="st2" d="M12.63,11.96c0-0.35,0.12-0.63,0.28-0.63c0.15,0,0.28,0.28,0.28,0.63c0,0.35-0.12,0.63-0.28,0.63
			C12.76,12.59,12.63,12.31,12.63,11.96"/>
	</g>
	<g>
		<path class="st2" d="M11.38,14.97c0-0.47-0.14-0.71-0.42-0.71h-0.1c-0.03,0.24-0.03,0.47-0.03,0.71c0,0.24,0,0.45,0.03,0.68h0.1
			C11.24,15.65,11.38,15.45,11.38,14.97"/>
	</g>
</g>
</svg>
