<?xml version="1.0" encoding="utf-8"?>
<!-- Generator: Adobe Illustrator 27.3.1, SVG Export Plug-In . SVG Version: 6.00 Build 0)  -->
<svg version="1.1" id="Layer_1" xmlns="http://www.w3.org/2000/svg" xmlns:xlink="http://www.w3.org/1999/xlink" x="0px" y="0px"
	 viewBox="0 0 30.96 30.96" style="enable-background:new 0 0 30.96 30.96;" xml:space="preserve">
<style type="text/css">
	.st0{fill:#28A8E0;}
	.st1{fill-rule:evenodd;clip-rule:evenodd;fill:#FFFFFF;}
</style>
<g>
	<g>
		<g>
			<path class="st0" d="M30.96,15.48c0,8.55-6.93,15.48-15.48,15.48S0,24.03,0,15.48C0,6.93,6.93,0,15.48,0S30.96,6.93,30.96,15.48z
				"/>
		</g>
	</g>
</g>
<g>
	<path class="st1" d="M6.68,20.29v-9.77c0-0.34,0.27-0.61,0.61-0.61h13.67c0.34,0,0.61,0.27,0.61,0.61v2.66h1.03V7.18
		c0-0.51-0.41-0.92-0.92-0.92H6.51C6,6.25,5.59,6.67,5.59,7.18v14.08c0,0.51,0.41,0.92,0.92,0.92h7.52v-1.27H7.3
		C6.96,20.91,6.68,20.63,6.68,20.29z M11.65,7.31c0.38,0,0.68,0.31,0.68,0.68c0,0.38-0.31,0.68-0.68,0.68
		c-0.38,0-0.68-0.31-0.68-0.68C10.96,7.62,11.27,7.31,11.65,7.31z M9.49,7.31c0.38,0,0.68,0.31,0.68,0.68
		c0,0.38-0.31,0.68-0.68,0.68c-0.38,0-0.68-0.31-0.68-0.68C8.81,7.62,9.11,7.31,9.49,7.31z M7.33,7.31c0.38,0,0.68,0.31,0.68,0.68
		c0,0.38-0.31,0.68-0.68,0.68S6.65,8.37,6.65,7.99C6.65,7.62,6.95,7.31,7.33,7.31z"/>
	<path class="st1" d="M26.31,21.46l-1.06-0.38c0.09-0.43,0.07-0.97-0.07-1.47l1.01-0.5c0.22-0.11,0.34-0.41,0.22-0.63l-0.43-0.92
		c-0.09-0.23-0.38-0.32-0.67-0.18l-0.94,0.45c-0.29-0.41-0.7-0.72-1.12-1.01l0.38-1.04c0.04-0.27-0.04-0.5-0.29-0.63l-0.92-0.34
		c-0.29-0.09-0.58,0.05-0.67,0.34l-0.34,1.01c-0.52-0.09-1.01-0.02-1.51,0.11l-0.47-1.06c-0.13-0.2-0.38-0.32-0.67-0.18l-0.85,0.38
		c-0.27,0.14-0.38,0.43-0.27,0.65l0.49,1.01c-0.4,0.29-0.72,0.68-1.01,1.13l-1.06-0.38c-0.2-0.09-0.49,0.05-0.61,0.29l-0.34,0.92
		c-0.09,0.29,0.04,0.59,0.31,0.63l1.03,0.38c-0.04,0.47-0.02,1.01,0.07,1.47l-1.01,0.5c-0.22,0.11-0.31,0.41-0.18,0.68l0.38,0.88
		c0.13,0.27,0.43,0.36,0.72,0.25l0.94-0.47c0.29,0.41,0.67,0.72,1.08,0.97l-0.29,1.06c-0.13,0.25,0,0.54,0.25,0.65l0.97,0.29
		c0.25,0.14,0.49-0.05,0.63-0.29l0.34-1.01c0.47,0.05,1.01,0.05,1.51-0.11l0.43,1.01c0.18,0.25,0.43,0.36,0.7,0.25l0.92-0.43
		c0.2-0.16,0.31-0.41,0.2-0.68l-0.47-0.97c0.36-0.34,0.72-0.68,1.01-1.13l1.01,0.34c0.25,0.14,0.54,0,0.63-0.29l0.31-0.92
		C26.73,21.85,26.6,21.58,26.31,21.46z M22.17,23.34c-1.48,0.7-3.28,0.09-4.02-1.44c-0.72-1.53-0.09-3.29,1.44-4.04
		c1.51-0.77,3.28-0.09,4.02,1.44C24.28,20.79,23.7,22.62,22.17,23.34z"/>
</g>
</svg>
