<?xml version="1.0" encoding="utf-8"?>
<!-- Generator: Adobe Illustrator 27.3.1, SVG Export Plug-In . SVG Version: 6.00 Build 0)  -->
<svg version="1.1" id="Layer_1" xmlns="http://www.w3.org/2000/svg" xmlns:xlink="http://www.w3.org/1999/xlink" x="0px" y="0px"
	 viewBox="0 0 30.96 30.96" style="enable-background:new 0 0 30.96 30.96;" xml:space="preserve">
<style type="text/css">
	.st0{fill:#28A8E0;}
	.st1{fill:#FFFFFF;}
</style>
<g>
	<g>
		<g>
			<path class="st0" d="M30.96,15.48c0,8.55-6.93,15.48-15.48,15.48S0,24.03,0,15.48C0,6.93,6.93,0,15.48,0S30.96,6.93,30.96,15.48z
				"/>
		</g>
		<g>
			<path class="st1" d="M15.53,4.79c-5.77,0-10.45,4.68-10.45,10.45S9.76,25.7,15.53,25.7c5.77,0,10.45-4.68,10.45-10.45
				S21.31,4.79,15.53,4.79z M16.39,6.85h1.39v6.12h3.64V12l2.89,1.67l-2.89,1.67v-0.97h-5.03V6.85z M7.04,12.97h6.12V9.33h-0.97
				l1.67-2.89l1.67,2.89h-0.97v5.03H7.04V12.97z M14.56,23.73h-1.39v-6.12H9.53v0.97l-2.89-1.67l2.89-1.67v0.97h5.03V23.73z
				 M23.9,17.61h-6.12v3.64h0.97l-1.67,2.89l-1.67-2.89h0.97v-5.03h7.51V17.61z"/>
			<g>
				<path class="st1" d="M15.32,28.5c-0.31,0-0.62-0.02-0.92-0.05l0.08-0.89c0.28,0.02,0.57,0.04,0.86,0.04L15.32,28.5z
					 M16.24,28.49l-0.05-0.89c0.28-0.02,0.57-0.04,0.85-0.08l0.11,0.88C16.85,28.44,16.54,28.47,16.24,28.49z M13.49,28.35
					c-0.3-0.05-0.61-0.11-0.9-0.17l0.2-0.87c0.28,0.06,0.56,0.12,0.84,0.16L13.49,28.35z M18.06,28.26l-0.17-0.87
					c0.28-0.05,0.56-0.12,0.83-0.19l0.23,0.86C18.66,28.13,18.36,28.2,18.06,28.26z M11.7,27.94c-0.29-0.09-0.59-0.19-0.87-0.3
					l0.32-0.83c0.27,0.1,0.54,0.2,0.81,0.28L11.7,27.94z M19.84,27.78l-0.29-0.84c0.27-0.09,0.54-0.2,0.8-0.31l0.35,0.82
					C20.41,27.57,20.13,27.68,19.84,27.78z M9.98,27.28c-0.28-0.13-0.55-0.27-0.82-0.42l0.43-0.78c0.25,0.14,0.51,0.27,0.76,0.39
					L9.98,27.28z M21.53,27.06l-0.41-0.79c0.25-0.13,0.5-0.27,0.75-0.42l0.46,0.76C22.07,26.77,21.8,26.92,21.53,27.06z M8.37,26.38
					c-0.26-0.17-0.51-0.34-0.75-0.53l0.54-0.71c0.23,0.17,0.46,0.34,0.7,0.49L8.37,26.38z M23.1,26.11l-0.51-0.73
					c0.23-0.16,0.46-0.34,0.68-0.52l0.56,0.69C23.59,25.74,23.35,25.93,23.1,26.11z M6.9,25.27c-0.23-0.2-0.46-0.41-0.67-0.63
					l0.63-0.63c0.2,0.2,0.41,0.4,0.63,0.59L6.9,25.27z M24.52,24.95l-0.61-0.65c0.21-0.19,0.41-0.4,0.61-0.61l0.65,0.6
					C24.96,24.52,24.74,24.74,24.52,24.95z M5.6,23.97c-0.2-0.23-0.39-0.47-0.58-0.71l0.71-0.54c0.17,0.23,0.35,0.45,0.54,0.67
					L5.6,23.97z M25.77,23.6l-0.69-0.56c0.18-0.22,0.35-0.45,0.52-0.69l0.73,0.51C26.15,23.11,25.96,23.36,25.77,23.6z M4.5,22.51
					c-0.17-0.26-0.33-0.52-0.47-0.79l0.78-0.43c0.14,0.25,0.29,0.49,0.44,0.73L4.5,22.51z M26.83,22.09l-0.76-0.46
					c0.15-0.24,0.29-0.5,0.42-0.75l0.79,0.4C27.13,21.56,26.98,21.83,26.83,22.09z M3.6,20.9c-0.13-0.27-0.25-0.56-0.36-0.84
					l0.83-0.32c0.1,0.27,0.22,0.53,0.34,0.79L3.6,20.9z M27.66,20.45l-0.82-0.35c0.11-0.26,0.22-0.53,0.31-0.8l0.84,0.29
					C27.89,19.88,27.78,20.17,27.66,20.45z M2.94,19.19C2.85,18.9,2.77,18.6,2.7,18.3l0.87-0.2c0.07,0.28,0.14,0.56,0.23,0.83
					L2.94,19.19z M28.26,18.72l-0.86-0.23c0.07-0.27,0.14-0.56,0.19-0.84l0.87,0.17C28.41,18.12,28.34,18.42,28.26,18.72z
					 M2.52,17.4c-0.05-0.3-0.09-0.61-0.12-0.91l0.89-0.08c0.03,0.28,0.06,0.57,0.11,0.85L2.52,17.4z M28.61,16.91l-0.88-0.11
					c0.04-0.28,0.06-0.57,0.08-0.85L28.7,16C28.68,16.3,28.65,16.61,28.61,16.91z M2.35,15.57c0-0.11,0-0.22,0-0.33
					c0-0.31,0.01-0.61,0.03-0.92l0.89,0.06c-0.02,0.28-0.03,0.57-0.03,0.86c0,0.1,0,0.21,0,0.31L2.35,15.57z M27.83,15.09
					c0-0.29-0.02-0.57-0.04-0.86l0.89-0.07c0.02,0.3,0.04,0.61,0.04,0.92L27.83,15.09z M3.35,13.53l-0.88-0.12
					c0.04-0.3,0.09-0.61,0.16-0.91l0.87,0.18C3.44,12.97,3.39,13.25,3.35,13.53z M27.69,13.38c-0.04-0.28-0.09-0.57-0.16-0.84
					l0.87-0.19c0.07,0.3,0.12,0.6,0.17,0.9L27.69,13.38z M3.7,11.86l-0.86-0.24c0.08-0.29,0.18-0.59,0.28-0.88l0.84,0.3
					C3.87,11.31,3.78,11.58,3.7,11.86z M27.32,11.71c-0.08-0.27-0.17-0.55-0.27-0.81l0.83-0.31c0.11,0.29,0.2,0.58,0.29,0.87
					L27.32,11.71z M4.28,10.24L3.47,9.88c0.12-0.28,0.26-0.56,0.4-0.83l0.79,0.41C4.52,9.72,4.4,9.98,4.28,10.24z M26.72,10.1
					c-0.12-0.26-0.25-0.52-0.38-0.77l0.78-0.42c0.15,0.27,0.28,0.55,0.41,0.82L26.72,10.1z M5.08,8.72L4.32,8.25
					C4.48,8,4.66,7.74,4.83,7.49l0.72,0.52C5.39,8.24,5.23,8.48,5.08,8.72z M25.9,8.6c-0.15-0.24-0.31-0.48-0.48-0.71l0.72-0.53
					c0.18,0.25,0.36,0.5,0.52,0.76L25.9,8.6z M6.08,7.33L5.4,6.76C5.59,6.53,5.8,6.3,6.01,6.07l0.64,0.61
					C6.45,6.89,6.26,7.11,6.08,7.33z M24.89,7.22C24.7,7,24.51,6.79,24.31,6.58l0.64-0.62c0.21,0.22,0.42,0.45,0.62,0.68L24.89,7.22
					z M7.26,6.09l-0.6-0.66c0.23-0.21,0.46-0.41,0.7-0.6l0.55,0.7C7.69,5.71,7.47,5.89,7.26,6.09z M23.69,5.99
					c-0.21-0.19-0.44-0.38-0.66-0.55l0.54-0.7c0.24,0.19,0.48,0.38,0.71,0.59L23.69,5.99z M8.61,5.02L8.1,4.29
					c0.25-0.17,0.51-0.34,0.78-0.49l0.45,0.77C9.08,4.7,8.84,4.86,8.61,5.02z M22.34,4.94c-0.24-0.16-0.48-0.31-0.73-0.45l0.44-0.77
					c0.26,0.15,0.53,0.31,0.78,0.48L22.34,4.94z M10.08,4.15l-0.4-0.8c0.27-0.14,0.56-0.26,0.84-0.38l0.34,0.82
					C10.6,3.9,10.34,4.02,10.08,4.15z M20.85,4.08c-0.26-0.12-0.52-0.24-0.79-0.35l0.33-0.83c0.28,0.11,0.57,0.24,0.84,0.37
					L20.85,4.08z M11.66,3.5l-0.28-0.84c0.29-0.1,0.59-0.18,0.88-0.26l0.22,0.86C12.21,3.33,11.93,3.41,11.66,3.5z M19.25,3.45
					c-0.27-0.09-0.55-0.16-0.83-0.23l0.21-0.86c0.3,0.07,0.59,0.16,0.89,0.25L19.25,3.45z M13.32,3.07L13.16,2.2
					c0.3-0.05,0.61-0.1,0.91-0.13l0.1,0.88C13.89,2.98,13.6,3.02,13.32,3.07z M17.59,3.05C17.31,3,17.02,2.96,16.74,2.93l0.09-0.88
					c0.3,0.03,0.61,0.07,0.91,0.12L17.59,3.05z M15.03,2.88l-0.04-0.89c0.3-0.01,0.61-0.01,0.92-0.01l-0.03,0.89
					C15.6,2.87,15.31,2.87,15.03,2.88z"/>
			</g>
		</g>
	</g>
</g>
</svg>
