<?xml version="1.0" encoding="utf-8"?>
<!-- Generator: Adobe Illustrator 27.3.1, SVG Export Plug-In . SVG Version: 6.00 Build 0)  -->
<svg version="1.1" id="Layer_1" xmlns="http://www.w3.org/2000/svg" xmlns:xlink="http://www.w3.org/1999/xlink" x="0px" y="0px"
	 viewBox="0 0 30.96 30.96" style="enable-background:new 0 0 30.96 30.96;" xml:space="preserve">
<style type="text/css">
	.st0{fill:#28A8E0;}
	.st1{fill:#FFFFFF;}
</style>
<g>
	<g>
		<g>
			<path class="st0" d="M30.96,15.48c0,8.55-6.93,15.48-15.48,15.48S0,24.03,0,15.48C0,6.93,6.93,0,15.48,0
				C24.03,0,30.96,6.93,30.96,15.48z"/>
		</g>
	</g>
</g>
<path class="st1" d="M13.66,8.53c-0.35,0-0.64-0.29-0.64-0.64V6.73c0-0.35,0.29-0.64,0.64-0.64s0.64,0.29,0.64,0.64v1.16
	C14.3,8.24,14.01,8.53,13.66,8.53z"/>
<path class="st1" d="M17.22,8.53c-0.35,0-0.64-0.29-0.64-0.64V6.73c0-0.35,0.29-0.64,0.64-0.64s0.64,0.29,0.64,0.64v1.16
	C17.86,8.24,17.57,8.53,17.22,8.53z"/>
<path class="st1" d="M11.73,10.71V4.74c0-0.45,0.36-0.81,0.81-0.81h5.78c0.45,0,0.81,0.36,0.81,0.81v5.97h1.28V4.74
	c0-1.15-0.94-2.09-2.09-2.09h-5.78c-1.15,0-2.09,0.94-2.09,2.09v5.97H11.73z"/>
<g>
	<path class="st1" d="M20.45,11.99h-9.99c-0.76,0-1.38,0.62-1.38,1.38v9.87c0,2.5,2.02,4.52,4.52,4.52h3.72
		c2.5,0,4.52-2.02,4.52-4.52v-9.87C21.84,12.61,21.22,11.99,20.45,11.99z M18.3,23.56c0,0.2-0.16,0.36-0.36,0.36h-4.92
		c-0.2,0-0.36-0.16-0.36-0.36v-4.38c0-0.2,0.16-0.37,0.36-0.37h0.27v-0.63c0-1.35,0.91-2.29,2.18-2.29c1.27,0,2.18,0.94,2.18,2.29
		v0.63h0.27c0.2,0,0.36,0.16,0.36,0.37V23.56z"/>
	<path class="st1" d="M15.48,16.63c-0.85,0-1.46,0.63-1.46,1.56v0.63h2.91v-0.63C16.93,17.26,16.33,16.63,15.48,16.63z"/>
</g>
</svg>
