<?xml version="1.0" encoding="utf-8"?>
<!-- Generator: Adobe Illustrator 27.3.1, SVG Export Plug-In . SVG Version: 6.00 Build 0)  -->
<svg version="1.1" id="Layer_1" xmlns="http://www.w3.org/2000/svg" xmlns:xlink="http://www.w3.org/1999/xlink" x="0px" y="0px"
	 viewBox="0 0 30.96 30.96" style="enable-background:new 0 0 30.96 30.96;" xml:space="preserve">
<style type="text/css">
	.st0{fill:#28A8E0;}
	.st1{fill-rule:evenodd;clip-rule:evenodd;fill:#FFFFFF;}
</style>
<g>
	<g>
		<g>
			<path class="st0" d="M30.96,15.48c0,8.55-6.93,15.48-15.48,15.48S0,24.03,0,15.48C0,6.93,6.93,0,15.48,0S30.96,6.93,30.96,15.48z
				"/>
		</g>
		<g>
			<rect x="4.66" y="8.24" class="st1" width="6.62" height="1.43"/>
			<rect x="12.2" y="8.24" class="st1" width="6.62" height="1.43"/>
			<rect x="19.66" y="8.24" class="st1" width="6.62" height="1.43"/>
			<rect x="8.43" y="10.64" class="st1" width="6.62" height="1.49"/>
			<rect x="15.9" y="10.64" class="st1" width="6.62" height="1.49"/>
			<rect x="4.66" y="10.64" class="st1" width="2.81" height="1.49"/>
			<rect x="23.47" y="10.64" class="st1" width="2.81" height="1.49"/>
			<rect x="4.66" y="12.98" class="st1" width="6.62" height="1.51"/>
			<rect x="12.2" y="12.98" class="st1" width="6.62" height="1.51"/>
			<rect x="19.66" y="12.98" class="st1" width="6.62" height="1.51"/>
			<rect x="8.43" y="15.4" class="st1" width="6.62" height="1.43"/>
			<rect x="15.9" y="15.4" class="st1" width="6.62" height="1.43"/>
			<rect x="4.66" y="15.4" class="st1" width="2.81" height="1.43"/>
			<rect x="23.47" y="15.4" class="st1" width="2.81" height="1.43"/>
			<rect x="4.66" y="17.78" class="st1" width="6.62" height="1.44"/>
			<rect x="12.2" y="17.78" class="st1" width="6.62" height="1.44"/>
			<rect x="19.66" y="17.78" class="st1" width="6.62" height="1.44"/>
			<rect x="8.43" y="20.18" class="st1" width="6.62" height="1.49"/>
			<rect x="15.9" y="20.18" class="st1" width="6.62" height="1.49"/>
			<rect x="4.66" y="20.18" class="st1" width="2.81" height="1.49"/>
			<rect x="23.47" y="20.18" class="st1" width="2.81" height="1.49"/>
		</g>
	</g>
</g>
</svg>
