<?xml version="1.0" encoding="utf-8"?>
<!-- Generator: Adobe Illustrator 27.3.1, SVG Export Plug-In . SVG Version: 6.00 Build 0)  -->
<svg version="1.1" id="Layer_1" xmlns="http://www.w3.org/2000/svg" xmlns:xlink="http://www.w3.org/1999/xlink" x="0px" y="0px"
	 viewBox="0 0 30.96 30.96" style="enable-background:new 0 0 30.96 30.96;" xml:space="preserve">
<style type="text/css">
	.st0{fill:#28A8E0;}
	.st1{fill:#FFFFFF;}
</style>
<g>
	<g>
		<g>
			<path class="st0" d="M30.96,15.48c0,8.55-6.93,15.48-15.48,15.48S0,24.03,0,15.48C0,6.93,6.93,0,15.48,0S30.96,6.93,30.96,15.48z
				"/>
		</g>
		<path class="st1" d="M13.55,7.58c0.47,0,0.85,0.38,0.85,0.85l0,4.88c0,0.03-0.01,0.05-0.01,0.08c0.02,0.25-0.06,0.5-0.25,0.69
			l-0.12,0.12c-0.16,0.16-0.37,0.24-0.58,0.25c-0.07,0.02-0.14,0.03-0.21,0.03l-4.88,0c-0.47,0-0.85-0.38-0.85-0.85l0-0.17
			c0-0.47,0.38-0.85,0.85-0.85l2.86,0L6.34,7.72c-0.33-0.33-0.33-0.87,0-1.21l0.12-0.12c0.33-0.33,0.87-0.33,1.21,0l4.85,4.85
			l0-2.81c0-0.47,0.38-0.85,0.85-0.85L13.55,7.58z M23.27,17.3c0-0.47-0.38-0.85-0.85-0.85l-4.88,0c-0.03,0-0.05,0.01-0.08,0.01
			c-0.25-0.02-0.5,0.06-0.69,0.25l-0.12,0.12c-0.16,0.16-0.24,0.37-0.25,0.58c-0.02,0.07-0.03,0.14-0.03,0.21l0,4.88
			c0,0.47,0.38,0.85,0.85,0.85l0.17,0c0.47,0,0.85-0.38,0.85-0.85l0-2.86l4.88,4.88c0.33,0.33,0.87,0.33,1.21,0l0.12-0.12
			c0.33-0.33,0.33-0.87,0-1.21l-4.85-4.85l2.81,0c0.47,0,0.85-0.38,0.85-0.85L23.27,17.3z M12.81,23.82c0-0.47-0.38-0.85-0.85-0.85
			l-2.81,0L14,18.12c0.33-0.33,0.33-0.87,0-1.21l-0.12-0.12c-0.33-0.33-0.87-0.33-1.21,0l-4.88,4.88l0-2.86
			c0-0.47-0.38-0.85-0.85-0.85l-0.17,0c-0.47,0-0.85,0.38-0.85,0.85l0,4.88c0,0.07,0.01,0.15,0.03,0.21
			c0.01,0.21,0.09,0.42,0.25,0.58l0.12,0.12C6.5,24.78,6.75,24.86,7,24.84c0.03,0,0.05,0.01,0.08,0.01l4.88,0
			c0.47,0,0.85-0.38,0.85-0.85L12.81,23.82z M23.9,12.9c0.47,0,0.85-0.38,0.85-0.85l0-4.88c0-0.03-0.01-0.05-0.01-0.08
			c0.02-0.25-0.06-0.5-0.25-0.69l-0.12-0.12c-0.16-0.16-0.37-0.24-0.58-0.25C23.73,6.01,23.66,6,23.59,6l-4.88,0
			c-0.47,0-0.85,0.38-0.85,0.85l0,0.17c0,0.47,0.38,0.85,0.85,0.85l2.86,0l-4.88,4.88c-0.33,0.33-0.33,0.87,0,1.21l0.12,0.12
			c0.33,0.33,0.87,0.33,1.21,0l4.85-4.85l0,2.81c0,0.47,0.38,0.85,0.85,0.85L23.9,12.9z"/>
	</g>
</g>
</svg>
