<?xml version="1.0" encoding="utf-8"?>
<!-- Generator: Adobe Illustrator 27.3.1, SVG Export Plug-In . SVG Version: 6.00 Build 0)  -->
<svg version="1.1" id="Layer_1" xmlns="http://www.w3.org/2000/svg" xmlns:xlink="http://www.w3.org/1999/xlink" x="0px" y="0px"
	 viewBox="0 0 30.96 30.96" style="enable-background:new 0 0 30.96 30.96;" xml:space="preserve">
<style type="text/css">
	.st0{fill:#28A8E0;}
	.st1{fill:#FFFFFF;}
</style>
<g>
	<g>
		<g>
			<path class="st0" d="M30.96,15.48c0,8.55-6.93,15.48-15.48,15.48S0,24.03,0,15.48C0,6.93,6.93,0,15.48,0S30.96,6.93,30.96,15.48z
				"/>
		</g>
		<g>
			<g>
				<g>
					<path class="st1" d="M15.23,28.75c-0.31,0-0.62-0.02-0.92-0.05l0.08-0.89c0.28,0.02,0.57,0.04,0.86,0.04L15.23,28.75z
						 M16.15,28.74l-0.05-0.89c0.28-0.02,0.57-0.04,0.85-0.08l0.11,0.88C16.76,28.69,16.46,28.72,16.15,28.74z M13.4,28.6
						c-0.3-0.05-0.61-0.11-0.9-0.17l0.2-0.87c0.28,0.06,0.56,0.12,0.84,0.16L13.4,28.6z M17.97,28.51l-0.17-0.87
						c0.28-0.05,0.56-0.12,0.83-0.19l0.23,0.86C18.58,28.38,18.27,28.45,17.97,28.51z M11.61,28.18c-0.29-0.09-0.59-0.19-0.87-0.3
						l0.32-0.83c0.27,0.1,0.54,0.2,0.81,0.28L11.61,28.18z M19.75,28.03l-0.29-0.84c0.27-0.09,0.54-0.2,0.8-0.31l0.35,0.82
						C20.33,27.82,20.04,27.93,19.75,28.03z M9.89,27.52c-0.28-0.13-0.55-0.27-0.82-0.42l0.43-0.78c0.25,0.14,0.51,0.27,0.76,0.39
						L9.89,27.52z M21.44,27.31l-0.41-0.79c0.25-0.13,0.5-0.27,0.75-0.42l0.46,0.76C21.98,27.02,21.71,27.17,21.44,27.31z
						 M8.28,26.63c-0.26-0.17-0.51-0.34-0.75-0.53l0.54-0.71c0.23,0.17,0.46,0.34,0.7,0.49L8.28,26.63z M23.01,26.36l-0.51-0.73
						c0.23-0.16,0.46-0.34,0.68-0.52l0.56,0.69C23.5,25.99,23.26,26.18,23.01,26.36z M6.82,25.52c-0.23-0.2-0.46-0.41-0.67-0.63
						l0.63-0.63c0.2,0.2,0.41,0.4,0.63,0.59L6.82,25.52z M24.43,25.19l-0.61-0.65c0.21-0.19,0.41-0.4,0.61-0.61l0.65,0.6
						C24.87,24.77,24.66,24.99,24.43,25.19z M5.52,24.22c-0.2-0.23-0.39-0.47-0.58-0.71l0.71-0.54C5.82,23.2,6,23.42,6.19,23.64
						L5.52,24.22z M25.68,23.85l-0.69-0.56c0.18-0.22,0.35-0.45,0.52-0.69l0.73,0.51C26.06,23.36,25.88,23.61,25.68,23.85z
						 M4.41,22.76c-0.17-0.26-0.33-0.52-0.47-0.79l0.78-0.43c0.14,0.25,0.29,0.49,0.44,0.73L4.41,22.76z M26.74,22.34l-0.76-0.46
						c0.15-0.24,0.29-0.5,0.42-0.75l0.79,0.4C27.04,21.81,26.89,22.08,26.74,22.34z M3.52,21.15c-0.13-0.27-0.25-0.56-0.36-0.84
						l0.83-0.32c0.1,0.27,0.22,0.53,0.34,0.79L3.52,21.15z M27.57,20.7l-0.82-0.35c0.11-0.26,0.22-0.53,0.31-0.8l0.84,0.29
						C27.8,20.13,27.69,20.42,27.57,20.7z M2.85,19.44c-0.09-0.29-0.17-0.59-0.24-0.89l0.87-0.2c0.07,0.28,0.14,0.56,0.23,0.83
						L2.85,19.44z M28.17,18.96l-0.86-0.23c0.07-0.27,0.14-0.56,0.19-0.84l0.87,0.17C28.32,18.37,28.25,18.67,28.17,18.96z
						 M2.43,17.65c-0.05-0.3-0.09-0.61-0.12-0.91l0.89-0.08c0.03,0.28,0.06,0.57,0.11,0.85L2.43,17.65z M28.53,17.16l-0.88-0.11
						c0.04-0.28,0.06-0.57,0.08-0.85l0.89,0.05C28.59,16.55,28.56,16.86,28.53,17.16z M2.26,15.82c0-0.11,0-0.22,0-0.33
						c0-0.31,0.01-0.61,0.03-0.92l0.89,0.06c-0.02,0.28-0.03,0.57-0.03,0.86c0,0.1,0,0.21,0,0.31L2.26,15.82z M27.74,15.34
						c0-0.29-0.02-0.57-0.04-0.86l0.89-0.07c0.02,0.3,0.04,0.61,0.04,0.92L27.74,15.34z M3.26,13.78l-0.88-0.12
						c0.04-0.3,0.09-0.61,0.16-0.91l0.87,0.18C3.35,13.21,3.3,13.5,3.26,13.78z M27.6,13.63c-0.04-0.28-0.09-0.57-0.16-0.84
						l0.87-0.19c0.07,0.3,0.12,0.6,0.17,0.9L27.6,13.63z M3.61,12.1l-0.86-0.24c0.08-0.29,0.18-0.59,0.28-0.88l0.84,0.3
						C3.78,11.56,3.69,11.83,3.61,12.1z M27.23,11.96c-0.08-0.27-0.17-0.55-0.27-0.81l0.83-0.31c0.11,0.29,0.2,0.58,0.29,0.87
						L27.23,11.96z M4.19,10.49l-0.81-0.36C3.5,9.85,3.64,9.57,3.78,9.3l0.79,0.41C4.43,9.97,4.31,10.23,4.19,10.49z M26.63,10.35
						c-0.12-0.26-0.25-0.52-0.38-0.77l0.78-0.42c0.15,0.27,0.28,0.55,0.41,0.82L26.63,10.35z M4.99,8.97L4.24,8.5
						C4.4,8.24,4.57,7.99,4.75,7.74l0.72,0.52C5.3,8.49,5.14,8.73,4.99,8.97z M25.82,8.84c-0.15-0.24-0.31-0.48-0.48-0.71l0.72-0.53
						c0.18,0.25,0.36,0.5,0.52,0.76L25.82,8.84z M5.99,7.58L5.31,7.01c0.19-0.23,0.4-0.47,0.61-0.69l0.64,0.61
						C6.37,7.14,6.17,7.36,5.99,7.58z M24.8,7.46c-0.18-0.22-0.38-0.43-0.58-0.63l0.64-0.62c0.21,0.22,0.42,0.45,0.62,0.68
						L24.8,7.46z M7.18,6.34l-0.6-0.66c0.23-0.21,0.46-0.41,0.7-0.6l0.55,0.7C7.61,5.96,7.39,6.14,7.18,6.34z M23.6,6.24
						c-0.21-0.19-0.44-0.38-0.66-0.55l0.54-0.7c0.24,0.19,0.48,0.38,0.71,0.59L23.6,6.24z M8.52,5.27l-0.5-0.73
						C8.27,4.36,8.53,4.2,8.79,4.04l0.45,0.77C9,4.95,8.75,5.11,8.52,5.27z M22.25,5.19c-0.24-0.16-0.48-0.31-0.73-0.45l0.44-0.77
						c0.26,0.15,0.53,0.31,0.78,0.48L22.25,5.19z M9.99,4.4L9.6,3.6c0.27-0.14,0.56-0.26,0.84-0.38l0.34,0.82
						C10.51,4.15,10.25,4.27,9.99,4.4z M20.76,4.33c-0.26-0.12-0.52-0.24-0.79-0.35l0.33-0.83c0.28,0.11,0.57,0.24,0.84,0.37
						L20.76,4.33z M11.58,3.75L11.29,2.9c0.29-0.1,0.59-0.18,0.88-0.26L12.4,3.5C12.12,3.57,11.84,3.66,11.58,3.75z M19.17,3.7
						c-0.27-0.09-0.55-0.16-0.83-0.23l0.21-0.86c0.3,0.07,0.59,0.16,0.89,0.25L19.17,3.7z M13.23,3.32l-0.16-0.87
						c0.3-0.05,0.61-0.1,0.91-0.13l0.1,0.88C13.8,3.23,13.52,3.27,13.23,3.32z M17.5,3.29c-0.28-0.05-0.57-0.09-0.85-0.11l0.09-0.88
						c0.3,0.03,0.61,0.07,0.91,0.12L17.5,3.29z M14.94,3.13L14.9,2.24c0.3-0.01,0.61-0.01,0.92-0.01L15.8,3.13
						C15.51,3.12,15.22,3.12,14.94,3.13z"/>
				</g>
			</g>
			<circle class="st1" cx="15.5" cy="15.45" r="5.36"/>
		</g>
	</g>
</g>
</svg>
