<?xml version="1.0" encoding="utf-8"?>
<!-- Generator: Adobe Illustrator 27.3.1, SVG Export Plug-In . SVG Version: 6.00 Build 0)  -->
<svg version="1.1" id="Layer_1" xmlns="http://www.w3.org/2000/svg" xmlns:xlink="http://www.w3.org/1999/xlink" x="0px" y="0px"
	 viewBox="0 0 30.96 30.96" style="enable-background:new 0 0 30.96 30.96;" xml:space="preserve">
<style type="text/css">
	.st0{fill:#28A8E0;}
	.st1{fill:#FFFFFF;}
	.st2{fill-rule:evenodd;clip-rule:evenodd;fill:#FFFFFF;}
</style>
<g>
	<g>
		<g>
			<path class="st0" d="M30.96,15.48c0,8.55-6.93,15.48-15.48,15.48S0,24.03,0,15.48C0,6.93,6.93,0,15.48,0S30.96,6.93,30.96,15.48z
				"/>
		</g>
		<g>
			<g>
				<g>
					<path class="st1" d="M15.32,28.68c-0.31,0-0.62-0.02-0.92-0.05l0.08-0.89c0.28,0.02,0.57,0.04,0.86,0.04L15.32,28.68z
						 M16.24,28.67l-0.05-0.89c0.28-0.02,0.57-0.04,0.85-0.08l0.11,0.88C16.85,28.62,16.54,28.65,16.24,28.67z M13.49,28.53
						c-0.3-0.05-0.61-0.11-0.9-0.17l0.2-0.87c0.28,0.06,0.56,0.12,0.84,0.16L13.49,28.53z M18.06,28.44l-0.17-0.87
						c0.28-0.05,0.56-0.12,0.83-0.19l0.23,0.86C18.66,28.31,18.36,28.38,18.06,28.44z M11.7,28.11c-0.29-0.09-0.59-0.19-0.87-0.3
						l0.32-0.83c0.27,0.1,0.54,0.2,0.81,0.28L11.7,28.11z M19.84,27.96l-0.29-0.84c0.27-0.09,0.54-0.2,0.8-0.31l0.35,0.82
						C20.41,27.75,20.13,27.86,19.84,27.96z M9.98,27.45c-0.28-0.13-0.55-0.27-0.82-0.42l0.43-0.78c0.25,0.14,0.51,0.27,0.76,0.39
						L9.98,27.45z M21.53,27.24l-0.41-0.79c0.25-0.13,0.5-0.27,0.75-0.42l0.46,0.76C22.07,26.95,21.8,27.1,21.53,27.24z M8.37,26.56
						c-0.26-0.17-0.51-0.34-0.75-0.53l0.54-0.71c0.23,0.17,0.46,0.34,0.7,0.49L8.37,26.56z M23.1,26.29l-0.51-0.73
						c0.23-0.16,0.46-0.34,0.68-0.52l0.56,0.69C23.59,25.92,23.35,26.11,23.1,26.29z M6.9,25.45c-0.23-0.2-0.46-0.41-0.67-0.63
						l0.63-0.63c0.2,0.2,0.41,0.4,0.63,0.59L6.9,25.45z M24.52,25.12l-0.61-0.65c0.21-0.19,0.41-0.4,0.61-0.61l0.65,0.6
						C24.96,24.7,24.74,24.92,24.52,25.12z M5.6,24.15c-0.2-0.23-0.39-0.47-0.58-0.71l0.71-0.54c0.17,0.23,0.35,0.45,0.54,0.67
						L5.6,24.15z M25.77,23.78l-0.69-0.56c0.18-0.22,0.35-0.45,0.52-0.69l0.73,0.51C26.15,23.29,25.96,23.54,25.77,23.78z
						 M4.5,22.69c-0.17-0.26-0.33-0.52-0.47-0.79l0.78-0.43c0.14,0.25,0.29,0.49,0.44,0.73L4.5,22.69z M26.83,22.27l-0.76-0.46
						c0.15-0.24,0.29-0.5,0.42-0.75l0.79,0.4C27.13,21.74,26.98,22.01,26.83,22.27z M3.6,21.08c-0.13-0.27-0.25-0.56-0.36-0.84
						l0.83-0.32c0.1,0.27,0.22,0.53,0.34,0.79L3.6,21.08z M27.66,20.63l-0.82-0.35c0.11-0.26,0.22-0.53,0.31-0.8l0.84,0.29
						C27.89,20.06,27.78,20.35,27.66,20.63z M2.94,19.37c-0.09-0.29-0.17-0.59-0.24-0.89l0.87-0.2c0.07,0.28,0.14,0.56,0.23,0.83
						L2.94,19.37z M28.26,18.89l-0.86-0.23c0.07-0.27,0.14-0.56,0.19-0.84L28.47,18C28.41,18.3,28.34,18.6,28.26,18.89z M2.52,17.58
						c-0.05-0.3-0.09-0.61-0.12-0.91l0.89-0.08c0.03,0.28,0.06,0.57,0.11,0.85L2.52,17.58z M28.61,17.09l-0.88-0.11
						c0.04-0.28,0.06-0.57,0.08-0.85l0.89,0.05C28.68,16.48,28.65,16.79,28.61,17.09z M2.35,15.75c0-0.11,0-0.22,0-0.33
						c0-0.31,0.01-0.61,0.03-0.92l0.89,0.06c-0.02,0.28-0.03,0.57-0.03,0.86c0,0.1,0,0.21,0,0.31L2.35,15.75z M27.83,15.27
						c0-0.29-0.02-0.57-0.04-0.86l0.89-0.07c0.02,0.3,0.04,0.61,0.04,0.92L27.83,15.27z M3.35,13.71l-0.88-0.12
						c0.04-0.3,0.09-0.61,0.16-0.91l0.87,0.18C3.44,13.14,3.39,13.43,3.35,13.71z M27.69,13.56c-0.04-0.28-0.09-0.57-0.16-0.84
						l0.87-0.19c0.07,0.3,0.12,0.6,0.17,0.9L27.69,13.56z M3.7,12.03l-0.86-0.24c0.08-0.29,0.18-0.59,0.28-0.88l0.84,0.3
						C3.87,11.49,3.78,11.76,3.7,12.03z M27.32,11.89c-0.08-0.27-0.17-0.55-0.27-0.81l0.83-0.31c0.11,0.29,0.2,0.58,0.29,0.87
						L27.32,11.89z M4.28,10.42l-0.81-0.36c0.12-0.28,0.26-0.56,0.4-0.83l0.79,0.41C4.52,9.9,4.4,10.16,4.28,10.42z M26.72,10.28
						c-0.12-0.26-0.25-0.52-0.38-0.77l0.78-0.42c0.15,0.27,0.28,0.55,0.41,0.82L26.72,10.28z M5.08,8.9L4.32,8.43
						c0.16-0.26,0.33-0.52,0.51-0.77l0.72,0.52C5.39,8.42,5.23,8.66,5.08,8.9z M25.9,8.77c-0.15-0.24-0.31-0.48-0.48-0.71l0.72-0.53
						c0.18,0.25,0.36,0.5,0.52,0.76L25.9,8.77z M6.08,7.51L5.4,6.94c0.19-0.23,0.4-0.47,0.61-0.69l0.64,0.61
						C6.45,7.07,6.26,7.29,6.08,7.51z M24.89,7.39c-0.18-0.22-0.38-0.43-0.58-0.63l0.64-0.62c0.21,0.22,0.42,0.45,0.62,0.68
						L24.89,7.39z M7.26,6.27l-0.6-0.66c0.23-0.21,0.46-0.41,0.7-0.6l0.55,0.7C7.69,5.89,7.47,6.07,7.26,6.27z M23.69,6.17
						c-0.21-0.19-0.44-0.38-0.66-0.55l0.54-0.7c0.24,0.19,0.48,0.38,0.71,0.59L23.69,6.17z M8.61,5.2L8.1,4.47
						c0.25-0.17,0.51-0.34,0.78-0.49l0.45,0.77C9.08,4.88,8.84,5.04,8.61,5.2z M22.34,5.12c-0.24-0.16-0.48-0.31-0.73-0.45
						l0.44-0.77c0.26,0.15,0.53,0.31,0.78,0.48L22.34,5.12z M10.08,4.33l-0.4-0.8c0.27-0.14,0.56-0.26,0.84-0.38l0.34,0.82
						C10.6,4.08,10.34,4.2,10.08,4.33z M20.85,4.26c-0.26-0.12-0.52-0.24-0.79-0.35l0.33-0.83c0.28,0.11,0.57,0.24,0.84,0.37
						L20.85,4.26z M11.66,3.68l-0.28-0.84c0.29-0.1,0.59-0.18,0.88-0.26l0.22,0.86C12.21,3.5,11.93,3.59,11.66,3.68z M19.25,3.63
						c-0.27-0.09-0.55-0.16-0.83-0.23l0.21-0.86c0.3,0.07,0.59,0.16,0.89,0.25L19.25,3.63z M13.32,3.25l-0.16-0.87
						c0.3-0.05,0.61-0.1,0.91-0.13l0.1,0.88C13.89,3.16,13.6,3.2,13.32,3.25z M17.59,3.22c-0.28-0.05-0.57-0.09-0.85-0.11l0.09-0.88
						c0.3,0.03,0.61,0.07,0.91,0.12L17.59,3.22z M15.03,3.06l-0.04-0.89c0.3-0.01,0.61-0.01,0.92-0.01l-0.03,0.89
						C15.6,3.05,15.31,3.05,15.03,3.06z"/>
				</g>
			</g>
			<g>
				<rect x="6.06" y="9.43" class="st2" width="5.78" height="1.25"/>
				<rect x="12.65" y="9.43" class="st2" width="5.78" height="1.25"/>
				<rect x="19.18" y="9.43" class="st2" width="5.78" height="1.25"/>
				<rect x="9.36" y="11.53" class="st2" width="5.78" height="1.3"/>
				<rect x="15.88" y="11.53" class="st2" width="5.78" height="1.3"/>
				<rect x="6.06" y="11.53" class="st2" width="2.46" height="1.3"/>
				<rect x="22.5" y="11.53" class="st2" width="2.46" height="1.3"/>
				<rect x="6.06" y="13.57" class="st2" width="5.78" height="1.32"/>
				<rect x="12.65" y="13.57" class="st2" width="5.78" height="1.32"/>
				<rect x="19.18" y="13.57" class="st2" width="5.78" height="1.32"/>
				<rect x="9.36" y="15.68" class="st2" width="5.78" height="1.25"/>
				<rect x="15.88" y="15.68" class="st2" width="5.78" height="1.25"/>
				<rect x="6.06" y="15.68" class="st2" width="2.46" height="1.25"/>
				<rect x="22.5" y="15.68" class="st2" width="2.46" height="1.25"/>
				<rect x="6.06" y="17.77" class="st2" width="5.78" height="1.26"/>
				<rect x="12.65" y="17.77" class="st2" width="5.78" height="1.26"/>
				<rect x="19.18" y="17.77" class="st2" width="5.78" height="1.26"/>
				<rect x="9.36" y="19.86" class="st2" width="5.78" height="1.3"/>
				<rect x="15.88" y="19.86" class="st2" width="5.78" height="1.3"/>
				<rect x="6.06" y="19.86" class="st2" width="2.46" height="1.3"/>
				<rect x="22.5" y="19.86" class="st2" width="2.46" height="1.3"/>
			</g>
		</g>
	</g>
</g>
</svg>
