<?xml version="1.0" encoding="utf-8"?>
<!-- Generator: Adobe Illustrator 27.3.1, SVG Export Plug-In . SVG Version: 6.00 Build 0)  -->
<svg version="1.1" id="Layer_1" xmlns="http://www.w3.org/2000/svg" xmlns:xlink="http://www.w3.org/1999/xlink" x="0px" y="0px"
	 viewBox="0 0 30.96 30.96" style="enable-background:new 0 0 30.96 30.96;" xml:space="preserve">
<style type="text/css">
	.st0{fill:#28A8E0;}
	.st1{fill:#FFFFFF;}
</style>
<g>
	<g>
		<g>
			<path class="st0" d="M30.96,15.48c0,8.55-6.93,15.48-15.48,15.48S0,24.03,0,15.48C0,6.93,6.93,0,15.48,0S30.96,6.93,30.96,15.48z
				"/>
		</g>
		<path class="st1" d="M27.09,15.06c-0.03-0.05-0.06-0.1-0.1-0.14l-2.75-2.75c-0.27-0.27-0.7-0.27-0.96,0l-0.1,0.1
			c-0.27,0.27-0.27,0.7,0,0.96l1.61,1.61h-4.22c0.94-1.11,1.75-2.19,2.37-3.17c1.42-2.21,1.75-3.64,1.02-4.37
			c-0.17-0.17-0.49-0.38-1.01-0.38c-1.49,0-4.09,1.7-6.66,3.88V6.34l1.58,1.58c0.27,0.27,0.7,0.27,0.96,0l0.1-0.1
			c0.27-0.27,0.27-0.7,0-0.96l-2.75-2.75c-0.01-0.01-0.03-0.03-0.05-0.04c-0.13-0.15-0.31-0.25-0.53-0.25h-0.14
			c-0.18,0-0.34,0.07-0.47,0.18c-0.05,0.03-0.1,0.06-0.14,0.1l-2.75,2.75c-0.27,0.27-0.27,0.7,0,0.96l0.1,0.1
			c0.27,0.27,0.7,0.27,0.96,0l1.61-1.61v4.55c-2.59-2.2-5.23-3.94-6.73-3.94c-0.52,0-0.84,0.2-1.01,0.38
			c-0.73,0.73-0.4,2.16,1.02,4.37c0.63,0.98,1.44,2.06,2.37,3.17H6.26l1.61-1.61c0.27-0.27,0.27-0.7,0-0.96l-0.1-0.1
			c-0.27-0.27-0.7-0.27-0.96,0l-2.75,2.75c-0.04,0.04-0.08,0.09-0.1,0.14c-0.11,0.12-0.18,0.29-0.18,0.47v0.14
			c0,0.21,0.1,0.4,0.25,0.53c0.01,0.02,0.02,0.03,0.04,0.05l2.75,2.75c0.27,0.27,0.7,0.27,0.96,0l0.1-0.1c0.27-0.27,0.27-0.7,0-0.96
			l-1.58-1.58h4.43c-1.05,1.23-1.96,2.42-2.65,3.49c-1.42,2.21-1.75,3.64-1.02,4.37c0.17,0.17,0.49,0.38,1.01,0.38h0
			c1.5,0,4.14-1.73,6.73-3.94v4.2l-1.61-1.61c-0.27-0.27-0.7-0.27-0.96,0l-0.1,0.1c-0.27,0.27-0.27,0.7,0,0.96l2.75,2.75
			c0.04,0.04,0.09,0.08,0.14,0.1c0.12,0.11,0.29,0.18,0.47,0.18h0.14c0.21,0,0.4-0.1,0.53-0.25c0.02-0.01,0.03-0.02,0.05-0.04
			l2.75-2.75c0.27-0.27,0.27-0.7,0-0.96l-0.1-0.1c-0.27-0.27-0.7-0.27-0.96,0l-1.58,1.58V20.7c2.57,2.18,5.17,3.88,6.66,3.88
			c0.52,0,0.84-0.2,1.01-0.38c0.73-0.73,0.4-2.16-1.02-4.37c-0.69-1.08-1.59-2.27-2.65-3.49h4.47l-1.58,1.58
			c-0.27,0.27-0.27,0.7,0,0.96l0.1,0.1c0.27,0.27,0.7,0.27,0.96,0l2.75-2.75c0.01-0.01,0.03-0.03,0.04-0.05
			c0.15-0.13,0.25-0.31,0.25-0.53v-0.14C27.27,15.34,27.2,15.18,27.09,15.06z M8.05,23.32c-0.06,0-0.1-0.01-0.12-0.01
			c-0.21-0.52,0.9-2.82,3.63-6.03c0.43,1.1,1.3,1.98,2.41,2.41C11.19,22.06,8.97,23.32,8.05,23.32z M11.57,14.23
			c-2.73-3.21-3.84-5.52-3.63-6.03c0.02-0.01,0.05-0.01,0.11-0.01c0.92,0,3.13,1.26,5.92,3.64C12.88,12.25,12,13.12,11.57,14.23z
			 M22.95,8.18c0.06,0,0.1,0.01,0.11,0.01c0.21,0.52-0.9,2.82-3.63,6.03c-0.43-1.1-1.3-1.98-2.41-2.41
			C19.81,9.44,22.03,8.18,22.95,8.18z M23.06,23.31c-0.02,0.01-0.05,0.01-0.12,0.01c-0.92,0-3.13-1.26-5.92-3.64
			c1.1-0.43,1.98-1.3,2.41-2.41C22.16,20.49,23.27,22.79,23.06,23.31z"/>
	</g>
</g>
</svg>
