<?xml version="1.0" encoding="utf-8"?>
<!-- Generator: Adobe Illustrator 27.3.1, SVG Export Plug-In . SVG Version: 6.00 Build 0)  -->
<svg version="1.1" id="Layer_1" xmlns="http://www.w3.org/2000/svg" xmlns:xlink="http://www.w3.org/1999/xlink" x="0px" y="0px"
	 viewBox="0 0 30.96 30.96" style="enable-background:new 0 0 30.96 30.96;" xml:space="preserve">
<style type="text/css">
	.st0{fill:#28A8E0;}
	.st1{fill:#FFFFFF;}
</style>
<g>
	<g>
		<g>
			<circle class="st0" cx="15.48" cy="15.48" r="15.48"/>
		</g>
	</g>
</g>
<path class="st1" d="M15.4,5.34c-5.66,0-11.39,1.31-11.39,3.82v11.31c0,1.89,3.25,3.09,7.27,3.58c0.18,0.27,0.39,0.54,0.63,0.78
	c1,1,2.32,1.51,3.64,1.51c1.12,0,2.22-0.38,3.15-1.1l2.63,2.63c0.12,0.12,0.29,0.19,0.45,0.19s0.33-0.06,0.45-0.19
	c0.25-0.25,0.25-0.65,0-0.9l-2.63-2.63c0.08-0.1,0.13-0.21,0.2-0.31c3.89-0.5,6.98-1.7,6.98-3.54V9.16
	C26.79,6.65,21.06,5.34,15.4,5.34z M5.29,20.47v-1.93c1.17,0.76,3.06,1.3,5.22,1.62c-0.17,0.84-0.11,1.7,0.14,2.52
	C7.12,22.15,5.29,21.11,5.29,20.47z M10.94,18.94c-3.72-0.51-5.65-1.59-5.65-2.25v-1.92c1.62,1.05,4.62,1.68,7.85,1.89
	c-0.44,0.24-0.86,0.52-1.22,0.88C11.49,17.96,11.18,18.44,10.94,18.94z M18.29,23.92c-1.51,1.51-3.96,1.51-5.47,0
	c-1.51-1.51-1.51-3.96,0-5.47c0.73-0.73,1.7-1.13,2.74-1.13c1.03,0,2,0.4,2.74,1.13C19.8,19.95,19.8,22.41,18.29,23.92z
	 M25.51,20.47c0,0.62-1.72,1.62-5.04,2.16c0.24-0.82,0.27-1.68,0.1-2.52c2.04-0.33,3.82-0.85,4.94-1.57V20.47z M25.51,16.69
	c0,0.64-1.83,1.68-5.36,2.21c-0.24-0.49-0.55-0.95-0.96-1.36c-0.37-0.37-0.8-0.66-1.26-0.9c3.12-0.22,5.99-0.85,7.57-1.87V16.69z
	 M25.51,12.92c0,0.88-3.47,2.54-10.11,2.54c-6.64,0-10.11-1.65-10.11-2.54v-1.91c0.03,0.02,0.06,0.03,0.09,0.05
	c0.23,0.14,0.48,0.28,0.75,0.4c0,0,0,0,0,0c0.29,0.13,0.6,0.25,0.93,0.36c0.06,0.02,0.11,0.04,0.17,0.06
	c2.17,0.71,5.17,1.08,8.16,1.08c2.98,0,5.98-0.37,8.15-1.08c0.06-0.02,0.13-0.04,0.19-0.06c0.32-0.11,0.63-0.23,0.91-0.35
	c0.01,0,0.01-0.01,0.02-0.01c0.28-0.13,0.52-0.26,0.75-0.4c0.03-0.02,0.06-0.03,0.09-0.05V12.92z M15.4,11.69
	c-6.64,0-10.11-1.65-10.11-2.54c0-0.89,3.47-2.54,10.11-2.54c6.64,0,10.11,1.65,10.11,2.54C25.51,10.04,22.03,11.69,15.4,11.69z"/>
</svg>
