<?xml version="1.0" encoding="utf-8"?>
<!-- Generator: Adobe Illustrator 27.3.1, SVG Export Plug-In . SVG Version: 6.00 Build 0)  -->
<svg version="1.1" id="Layer_1" xmlns="http://www.w3.org/2000/svg" xmlns:xlink="http://www.w3.org/1999/xlink" x="0px" y="0px"
	 viewBox="0 0 30.96 30.96" style="enable-background:new 0 0 30.96 30.96;" xml:space="preserve">
<style type="text/css">
	.st0{fill:#28A8E0;}
	.st1{fill:#FFFFFF;}
</style>
<g>
	<g>
		<g>
			<path class="st0" d="M30.96,15.48c0,8.55-6.93,15.48-15.48,15.48S0,24.03,0,15.48C0,6.93,6.93,0,15.48,0S30.96,6.93,30.96,15.48z
				"/>
		</g>
	</g>
</g>
<g>
	<path class="st1" d="M23.83,9.94h-0.59L21.11,7.3h-4.64c-0.71,0-1.29,0.58-1.29,1.29v1.34H7.09c-0.93,0-1.68,0.75-1.68,1.68v9.82
		c0,0.93,0.75,1.68,1.68,1.68h16.74c0.93,0,1.68-0.75,1.68-1.68v-9.82C25.51,10.69,24.76,9.94,23.83,9.94z M16.31,8.6
		c0-0.09,0.07-0.15,0.15-0.15h4.1l1.21,1.5h-5.46V8.6z M24.37,21.43c0,0.3-0.24,0.54-0.54,0.54H7.09c-0.3,0-0.54-0.24-0.54-0.54
		v-9.82c0-0.3,0.24-0.54,0.54-0.54h8.08v0h8.66c0.3,0,0.54,0.25,0.54,0.54V21.43z"/>
	<path class="st1" d="M19.31,13.25c-0.18,0-0.35,0.07-0.48,0.2l-4.44,4.44l-2-2c-0.13-0.13-0.3-0.2-0.48-0.2h0
		c-0.18,0-0.35,0.07-0.48,0.2c-0.13,0.13-0.2,0.3-0.2,0.48s0.07,0.35,0.2,0.48l2.29,2.29c0.18,0.18,0.42,0.28,0.67,0.28
		c0.25,0,0.49-0.1,0.67-0.28l4.73-4.73c0.27-0.27,0.27-0.7,0-0.96C19.66,13.32,19.49,13.25,19.31,13.25z"/>
</g>
</svg>
