<?xml version="1.0" encoding="utf-8"?>
<!-- Generator: Adobe Illustrator 27.3.1, SVG Export Plug-In . SVG Version: 6.00 Build 0)  -->
<svg version="1.1" id="Layer_1" xmlns="http://www.w3.org/2000/svg" xmlns:xlink="http://www.w3.org/1999/xlink" x="0px" y="0px"
	 viewBox="0 0 30.96 30.96" style="enable-background:new 0 0 30.96 30.96;" xml:space="preserve">
<style type="text/css">
	.st0{fill:#28A8E0;}
	.st1{fill:#FFFFFF;}
</style>
<g>
	<g>
		<g>
			<path class="st0" d="M30.96,15.48c0,8.55-6.93,15.48-15.48,15.48S0,24.03,0,15.48C0,6.93,6.93,0,15.48,0S30.96,6.93,30.96,15.48z
				"/>
		</g>
		<g>
			<g>
				<g>
					<g>
						<path class="st1" d="M15.22,28.84c-0.31,0-0.62-0.02-0.92-0.05l0.08-0.89c0.28,0.02,0.57,0.04,0.86,0.04L15.22,28.84z
							 M16.14,28.82l-0.05-0.89c0.28-0.02,0.57-0.04,0.85-0.08l0.11,0.88C16.76,28.78,16.45,28.8,16.14,28.82z M13.39,28.68
							c-0.3-0.05-0.61-0.11-0.9-0.17l0.2-0.87c0.28,0.06,0.56,0.12,0.84,0.16L13.39,28.68z M17.97,28.59l-0.17-0.87
							c0.28-0.05,0.56-0.12,0.83-0.19l0.23,0.86C18.57,28.46,18.27,28.53,17.97,28.59z M11.6,28.27c-0.29-0.09-0.59-0.19-0.87-0.3
							l0.32-0.83c0.27,0.1,0.54,0.2,0.81,0.28L11.6,28.27z M19.74,28.11l-0.29-0.84c0.27-0.09,0.54-0.2,0.8-0.31l0.35,0.82
							C20.32,27.9,20.03,28.01,19.74,28.11z M9.88,27.61c-0.28-0.13-0.55-0.27-0.82-0.42l0.43-0.78c0.25,0.14,0.51,0.27,0.76,0.39
							L9.88,27.61z M21.43,27.39l-0.41-0.79c0.25-0.13,0.5-0.27,0.75-0.42l0.46,0.76C21.97,27.1,21.7,27.25,21.43,27.39z
							 M8.27,26.71c-0.26-0.17-0.51-0.34-0.75-0.53l0.54-0.71c0.23,0.17,0.46,0.34,0.7,0.49L8.27,26.71z M23,26.44l-0.51-0.73
							c0.23-0.16,0.46-0.34,0.68-0.52l0.56,0.69C23.5,26.08,23.25,26.26,23,26.44z M6.81,25.61c-0.23-0.2-0.46-0.41-0.67-0.63
							l0.63-0.63c0.2,0.2,0.41,0.4,0.63,0.59L6.81,25.61z M24.42,25.28l-0.61-0.65c0.21-0.19,0.41-0.4,0.61-0.61l0.65,0.6
							C24.87,24.85,24.65,25.07,24.42,25.28z M5.51,24.31c-0.2-0.23-0.39-0.47-0.58-0.71l0.71-0.54c0.17,0.23,0.35,0.45,0.54,0.67
							L5.51,24.31z M25.68,23.93l-0.69-0.56c0.18-0.22,0.35-0.45,0.52-0.69l0.73,0.51C26.05,23.45,25.87,23.69,25.68,23.93z
							 M4.4,22.84c-0.17-0.26-0.33-0.52-0.47-0.79l0.78-0.43c0.14,0.25,0.29,0.49,0.44,0.73L4.4,22.84z M26.73,22.43l-0.76-0.46
							c0.15-0.24,0.29-0.5,0.42-0.75l0.79,0.4C27.04,21.89,26.89,22.16,26.73,22.43z M3.51,21.24c-0.13-0.27-0.25-0.56-0.36-0.84
							l0.83-0.32c0.1,0.27,0.22,0.53,0.34,0.79L3.51,21.24z M27.57,20.79l-0.82-0.35c0.11-0.26,0.22-0.53,0.31-0.8l0.84,0.29
							C27.8,20.22,27.69,20.5,27.57,20.79z M2.84,19.52c-0.09-0.29-0.17-0.59-0.24-0.89l0.87-0.2c0.07,0.28,0.14,0.56,0.23,0.83
							L2.84,19.52z M28.17,19.05l-0.86-0.23c0.07-0.27,0.14-0.56,0.19-0.84l0.87,0.17C28.31,18.45,28.24,18.75,28.17,19.05z
							 M2.42,17.73c-0.05-0.3-0.09-0.61-0.12-0.91l0.89-0.08c0.03,0.28,0.06,0.57,0.11,0.85L2.42,17.73z M28.52,17.24l-0.88-0.11
							c0.04-0.28,0.06-0.57,0.08-0.85l0.89,0.05C28.58,16.63,28.56,16.94,28.52,17.24z M2.25,15.91c0-0.11,0-0.22,0-0.33
							c0-0.31,0.01-0.61,0.03-0.92l0.89,0.06C3.15,15,3.14,15.29,3.14,15.58c0,0.1,0,0.21,0,0.31L2.25,15.91z M27.73,15.42
							c0-0.29-0.02-0.57-0.04-0.86l0.89-0.07c0.02,0.3,0.04,0.61,0.04,0.92L27.73,15.42z M3.25,13.87l-0.88-0.12
							c0.04-0.3,0.09-0.61,0.16-0.91l0.87,0.18C3.34,13.3,3.29,13.58,3.25,13.87z M27.59,13.71c-0.04-0.28-0.09-0.57-0.16-0.84
							l0.87-0.19c0.07,0.3,0.12,0.6,0.17,0.9L27.59,13.71z M3.6,12.19l-0.86-0.24c0.08-0.29,0.18-0.59,0.28-0.88l0.84,0.3
							C3.77,11.64,3.68,11.91,3.6,12.19z M27.22,12.04c-0.08-0.27-0.17-0.55-0.27-0.81l0.83-0.31c0.11,0.29,0.2,0.58,0.29,0.87
							L27.22,12.04z M4.18,10.57l-0.81-0.36c0.12-0.28,0.26-0.56,0.4-0.83L4.56,9.8C4.43,10.05,4.3,10.31,4.18,10.57z M26.62,10.43
							c-0.12-0.26-0.25-0.52-0.38-0.77l0.78-0.42c0.15,0.27,0.28,0.55,0.41,0.82L26.62,10.43z M4.98,9.05L4.23,8.59
							c0.16-0.26,0.33-0.52,0.51-0.77l0.72,0.52C5.29,8.57,5.13,8.81,4.98,9.05z M25.81,8.93c-0.15-0.24-0.31-0.48-0.48-0.71
							l0.72-0.53c0.18,0.25,0.36,0.5,0.52,0.76L25.81,8.93z M5.98,7.66L5.3,7.09c0.19-0.23,0.4-0.47,0.61-0.69l0.64,0.61
							C6.36,7.23,6.17,7.44,5.98,7.66z M24.79,7.55c-0.18-0.22-0.38-0.43-0.58-0.63l0.64-0.62c0.21,0.22,0.42,0.45,0.62,0.68
							L24.79,7.55z M7.17,6.42l-0.6-0.66c0.23-0.21,0.46-0.41,0.7-0.6l0.55,0.7C7.6,6.04,7.38,6.23,7.17,6.42z M23.59,6.32
							c-0.21-0.19-0.44-0.38-0.66-0.55l0.54-0.7c0.24,0.19,0.48,0.38,0.71,0.59L23.59,6.32z M8.51,5.35l-0.5-0.73
							c0.25-0.17,0.51-0.34,0.78-0.49l0.45,0.77C8.99,5.04,8.74,5.19,8.51,5.35z M22.24,5.27C22,5.11,21.76,4.96,21.51,4.82
							l0.44-0.77c0.26,0.15,0.53,0.31,0.78,0.48L22.24,5.27z M9.98,4.48l-0.4-0.8c0.27-0.14,0.56-0.26,0.84-0.38l0.34,0.82
							C10.5,4.24,10.24,4.36,9.98,4.48z M20.75,4.42c-0.26-0.12-0.52-0.24-0.79-0.35l0.33-0.83c0.28,0.11,0.57,0.24,0.84,0.37
							L20.75,4.42z M11.57,3.83l-0.28-0.84c0.29-0.1,0.59-0.18,0.88-0.26l0.22,0.86C12.11,3.66,11.84,3.74,11.57,3.83z M19.16,3.78
							c-0.27-0.09-0.55-0.16-0.83-0.23l0.21-0.86c0.3,0.07,0.59,0.16,0.89,0.25L19.16,3.78z M13.23,3.4l-0.16-0.87
							c0.3-0.05,0.61-0.1,0.91-0.13l0.1,0.88C13.79,3.31,13.51,3.35,13.23,3.4z M17.49,3.38c-0.28-0.05-0.57-0.09-0.85-0.11
							l0.09-0.88c0.3,0.03,0.61,0.07,0.91,0.12L17.49,3.38z M14.93,3.22l-0.04-0.89c0.3-0.01,0.61-0.01,0.92-0.01l-0.03,0.89
							C15.5,3.2,15.21,3.2,14.93,3.22z"/>
					</g>
				</g>
			</g>
			<g>
				<polygon class="st1" points="21.33,19.22 15.88,19.22 15.88,22.35 21.33,22.35 21.33,23.94 24.42,20.83 24.47,20.78 
					21.33,17.63 				"/>
				<polygon class="st1" points="21.33,16.86 24.42,13.75 24.47,13.7 21.33,10.54 21.33,12.14 15.88,12.14 15.88,15.26 21.33,15.26 
									"/>
				<polygon class="st1" points="9.78,14.21 6.68,17.31 6.63,17.36 9.78,20.52 9.78,18.93 15.23,18.93 15.23,15.8 9.78,15.8 				"/>
				<polygon class="st1" points="9.78,7.04 6.68,10.15 6.63,10.2 9.78,13.36 9.78,11.76 15.23,11.76 15.23,8.64 9.78,8.64 				"/>
			</g>
		</g>
	</g>
</g>
</svg>
