<?xml version="1.0" encoding="utf-8"?>
<!-- Generator: Adobe Illustrator 27.3.1, SVG Export Plug-In . SVG Version: 6.00 Build 0)  -->
<svg version="1.1" id="Layer_1" xmlns="http://www.w3.org/2000/svg" xmlns:xlink="http://www.w3.org/1999/xlink" x="0px" y="0px"
	 viewBox="0 0 30.96 30.96" style="enable-background:new 0 0 30.96 30.96;" xml:space="preserve">
<style type="text/css">
	.st0{fill:#28A8E0;}
	.st1{fill-rule:evenodd;clip-rule:evenodd;fill:#FFFFFF;}
	.st2{fill:#FFFFFF;}
</style>
<g>
	<g>
		<path class="st0" d="M30.96,15.48c0,8.55-6.93,15.48-15.48,15.48S0,24.03,0,15.48C0,6.93,6.93,0,15.48,0
			C24.03,0,30.96,6.93,30.96,15.48z"/>
	</g>
</g>
<g>
	<path class="st1" d="M11.46,13.52v2.32h0.5c0.55,0,0.9-0.35,0.9-1.16c0-0.81-0.35-1.16-0.91-1.16H11.46z"/>
	<g>
		<path class="st2" d="M28.49,16.44c0.02-0.3,0.04-0.61,0.04-0.92c0-7.23-5.88-13.12-13.12-13.12S2.29,8.29,2.29,15.52
			s5.88,13.12,13.12,13.12c2.21,0,4.29-0.55,6.12-1.52c-0.4-0.31-0.77-0.66-1.11-1.04c-1.01,0.48-2.11,0.83-3.26,1
			c0.81-0.81,1.52-1.69,2.13-2.64c-0.12-0.22-0.22-0.45-0.32-0.68c-0.77,1.26-1.73,2.41-2.85,3.42c-0.13,0.01-0.26,0.01-0.39,0.01
			v-6.3c1.46,0.04,2.89,0.37,4.21,0.95l0.25-0.58c-1.39-0.61-2.91-0.96-4.45-1v-2.63h2.63v-1.01l0.88-0.19
			c-0.1,0.01-0.21,0.02-0.33,0.02c-0.88,0-1.4-0.42-1.5-1.08h0.76c0.05,0.3,0.3,0.52,0.75,0.52c0.46,0,0.64-0.15,0.64-0.4
			c0-0.35-0.37-0.45-0.86-0.56c-0.57-0.13-1.16-0.34-1.16-1.07c0-0.61,0.47-0.99,1.38-0.99c0.8,0,1.27,0.36,1.36,0.95h-0.75
			c-0.04-0.26-0.29-0.41-0.63-0.41c-0.41,0-0.55,0.14-0.55,0.35c0,0.28,0.22,0.37,0.7,0.47c0.66,0.14,1.33,0.41,1.33,1.16
			c0,0.4-0.23,0.77-0.76,0.94l4.29-0.97L28.49,16.44z M10.6,21.3c-0.46-1.17-0.78-2.39-0.95-3.64h5.47v2.63
			c-1.57,0.04-3.09,0.39-4.5,1.01L10.6,21.3z M10.84,21.88l0.02-0.01c1.33-0.59,2.77-0.92,4.25-0.96v6.3
			c-0.15,0-0.29-0.01-0.44-0.01C13.02,25.69,11.73,23.88,10.84,21.88 M23.3,6.9c-0.82,0.81-1.76,1.48-2.77,2
			c-0.82-1.83-1.98-3.51-3.43-4.95C19.47,4.29,21.61,5.35,23.3,6.9z M15.75,3.83c0.1,0,0.21,0,0.31,0.01c1.68,1.5,3,3.32,3.9,5.33
			c-1.32,0.58-2.74,0.91-4.21,0.95V3.83z M14.76,3.84c0.12-0.01,0.24-0.01,0.36-0.01v6.29c-1.48-0.04-2.92-0.37-4.25-0.96
			C11.76,7.16,13.08,5.34,14.76,3.84z M13.73,3.95c-1.45,1.44-2.61,3.11-3.43,4.94c-1.01-0.52-1.95-1.19-2.77-2
			C9.22,5.34,11.36,4.29,13.73,3.95z M13.65,27.09c-2.33-0.35-4.45-1.4-6.11-2.92c0.81-0.8,1.73-1.47,2.74-1.99
			C11.09,23.99,12.22,25.66,13.65,27.09z M10.03,21.59c-1.09,0.56-2.08,1.27-2.95,2.13c-2.02-2.05-3.29-4.84-3.36-7.92h5.16
			C8.91,17.82,9.31,19.77,10.03,21.59z M9.31,11.8l-0.07,0.32c-0.21,1-0.33,2.03-0.36,3.07H3.72c0.09-3.05,1.35-5.82,3.35-7.85
			c0.88,0.87,1.88,1.59,2.97,2.15C9.74,10.23,9.5,11,9.31,11.8z M10.62,9.74c1.41,0.62,2.93,0.97,4.5,1.01v1.04H9.96
			C10.14,11.1,10.35,10.41,10.62,9.74z M11.96,16.4h-1.3v-3.43h1.29c1.11,0,1.71,0.54,1.71,1.72C13.66,15.88,13.03,16.4,11.96,16.4z
			 M17,16.4h-0.82l-1.35-2.44v2.44h-0.69v-3.43h0.89l1.3,2.34v-2.34H17V16.4z M15.75,11.8v-1.04c1.55-0.04,3.06-0.39,4.45-1
			c0.26,0.66,0.48,1.35,0.65,2.04H15.75z M21.94,15.18c-0.05-1.98-0.44-3.91-1.16-5.7c1.09-0.55,2.09-1.27,2.98-2.14
			c2,2.03,3.25,4.79,3.34,7.84H21.94z"/>
	</g>
	<path class="st2" d="M26.73,17.01v0.6l-1.8-0.42v-0.6l-1.02-0.23l-1.05,0.23v0.6l-1.8,0.42v-0.6l-1.65,0.36v3.23
		c0,2.99,1.86,5.55,4.5,6.61c2.62-1.07,4.47-3.62,4.47-6.61v-3.23L26.73,17.01z M20.64,20.6v-1.61l3.27-0.76
		c1.21,0.29,1.97,0.47,2.44,0.58l-4.84,4.84c-0.35-0.57-0.61-1.2-0.74-1.85C20.67,21.41,20.64,21.02,20.64,20.6z M27.02,21.8
		c-0.34,1.72-1.52,3.23-3.11,4.06c-0.64-0.33-1.21-0.77-1.7-1.27l4.94-4.94v0.96C27.15,21.02,27.13,21.41,27.02,21.8z"/>
</g>
</svg>
