<?xml version="1.0" encoding="utf-8"?>
<!-- Generator: Adobe Illustrator 27.3.1, SVG Export Plug-In . SVG Version: 6.00 Build 0)  -->
<svg version="1.1" id="Layer_1" xmlns="http://www.w3.org/2000/svg" xmlns:xlink="http://www.w3.org/1999/xlink" x="0px" y="0px"
	 viewBox="0 0 30.96 30.96" style="enable-background:new 0 0 30.96 30.96;" xml:space="preserve">
<style type="text/css">
	.st0{fill:#28A8E0;}
	.st1{fill-rule:evenodd;clip-rule:evenodd;fill:#FFFFFF;}
</style>
<g>
	<path class="st0" d="M30.96,15.48c0,8.55-6.93,15.48-15.48,15.48S0,24.03,0,15.48C0,6.93,6.93,0,15.48,0S30.96,6.93,30.96,15.48z"
		/>
</g>
<g>
	<path class="st1" d="M8.2,11.9h3.65c0.04,0,0.08-0.04,0.08-0.08V8.31l-1.48-1.49H8.2c-0.04,0-0.08,0.04-0.08,0.08v4.94
		C8.13,11.87,8.17,11.9,8.2,11.9z M8.48,7.17h1.64v1.13c0,0.21,0.15,0.28,0.28,0.28h1.16v2.96H8.48V7.17z"/>
	<polygon class="st1" points="15.8,7.52 15.07,7.52 15.07,5.19 14.29,5.19 14.29,7.52 13.56,7.52 14.68,8.65 	"/>
	<polygon class="st1" points="21.7,10.95 21.7,13.03 20.96,13.03 22.09,14.14 23.2,13.03 22.47,13.03 22.47,10.95 	"/>
	<path class="st1" d="M24.28,17.04l-2.62-2.62c-0.04-0.04-0.12-0.08-0.15-0.08h-2.35l0,0.67h2.15l1.75,1.79H18.7v-4.69l-2.37-2.38
		h-3.58c-0.06,0-0.12,0.06-0.12,0.12v6.95H8l1.75-1.79h2.41l0-0.67H9.59c-0.08,0-0.12,0.04-0.19,0.08l-2.62,2.62
		c-0.08,0.08-0.08,0.19-0.04,0.27c0.04,0.08,0.12,0.15,0.19,0.15h0.54v8.32c0,0.15,0.08,0.23,0.23,0.23H23.4
		c0.12,0,0.23-0.08,0.23-0.23v-8.32h0.5c0.08,0,0.17-0.03,0.21-0.15C24.36,17.24,24.36,17.12,24.28,17.04z M13.2,10.3h2.62v1.81
		c0,0.33,0.24,0.45,0.45,0.45h1.86v4.24H13.2V10.3z M22.88,25.27H8.22v-7.8h14.66V25.27z"/>
	<path class="st1" d="M11.05,10.77H8.99c-0.1,0-0.18,0.08-0.18,0.18s0.08,0.18,0.18,0.18h2.06c0.1,0,0.18-0.08,0.18-0.18
		S11.15,10.77,11.05,10.77z"/>
	<path class="st1" d="M11.05,9H8.99C8.9,9,8.82,9.08,8.82,9.18c0,0.1,0.08,0.18,0.18,0.18h2.06c0.1,0,0.18-0.08,0.18-0.18
		C11.23,9.08,11.15,9,11.05,9z"/>
	<path class="st1" d="M11.05,9.89H8.99c-0.1,0-0.18,0.08-0.18,0.18v0c0,0.1,0.08,0.18,0.18,0.18h2.06c0.1,0,0.18-0.08,0.18-0.18v0
		C11.23,9.97,11.15,9.89,11.05,9.89z"/>
	<path class="st1" d="M18.82,10.31h4.54c0.05,0,0.09-0.05,0.09-0.1V5.84l-1.85-1.86h-2.79c-0.05,0-0.09,0.05-0.09,0.1v6.14
		C18.72,10.26,18.77,10.31,18.82,10.31z M19.17,4.42h2.05v1.41c0,0.26,0.19,0.35,0.35,0.35h1.45v3.68h-3.84V4.42z"/>
	<path class="st1" d="M22.37,8.9H19.8c-0.12,0-0.22,0.1-0.22,0.22c0,0.12,0.1,0.22,0.22,0.22h2.56c0.12,0,0.22-0.1,0.22-0.22
		C22.59,9,22.49,8.9,22.37,8.9z"/>
	<path class="st1" d="M22.37,6.7H19.8c-0.12,0-0.22,0.1-0.22,0.22c0,0.12,0.1,0.22,0.22,0.22h2.56c0.12,0,0.22-0.1,0.22-0.22
		C22.59,6.8,22.49,6.7,22.37,6.7z"/>
	<path class="st1" d="M22.37,7.8H19.8c-0.12,0-0.22,0.1-0.22,0.22c0,0.12,0.1,0.22,0.22,0.22h2.56c0.12,0,0.22-0.1,0.22-0.22
		C22.59,7.9,22.49,7.8,22.37,7.8z"/>
	<path class="st1" d="M17.31,13.22h-3.29c-0.16,0-0.29,0.13-0.29,0.29c0,0.16,0.13,0.29,0.29,0.29h3.29c0.16,0,0.29-0.13,0.29-0.29
		C17.59,13.35,17.46,13.22,17.31,13.22z"/>
	<path class="st1" d="M17.31,14.53h-3.29c-0.16,0-0.29,0.13-0.29,0.29v0c0,0.16,0.13,0.29,0.29,0.29h3.29
		c0.16,0,0.29-0.13,0.29-0.29v0C17.59,14.66,17.46,14.53,17.31,14.53z"/>
	<path class="st1" d="M17.31,15.85h-3.29c-0.16,0-0.29,0.13-0.29,0.29c0,0.16,0.13,0.29,0.29,0.29h3.29c0.16,0,0.29-0.13,0.29-0.29
		C17.59,15.97,17.46,15.85,17.31,15.85z"/>
</g>
</svg>
