<?xml version="1.0" encoding="utf-8"?>
<!-- Generator: Adobe Illustrator 27.3.1, SVG Export Plug-In . SVG Version: 6.00 Build 0)  -->
<svg version="1.1" id="Layer_1" xmlns="http://www.w3.org/2000/svg" xmlns:xlink="http://www.w3.org/1999/xlink" x="0px" y="0px"
	 viewBox="0 0 30.96 30.96" style="enable-background:new 0 0 30.96 30.96;" xml:space="preserve">
<style type="text/css">
	.st0{fill:#28A8E0;}
	.st1{fill-rule:evenodd;clip-rule:evenodd;fill:#FFFFFF;}
</style>
<g>
	<g>
		<g>
			<path class="st0" d="M30.96,15.48c0,8.55-6.93,15.48-15.48,15.48S0,24.03,0,15.48C0,6.93,6.93,0,15.48,0S30.96,6.93,30.96,15.48z
				"/>
		</g>
		<g>
			<g>
				<path class="st1" d="M9.63,13.29v4.35h0.91v-3.08l0.41,0.73c0.03-0.45,0.09-0.91,0.19-1.36l-0.35-0.63H9.63z"/>
			</g>
			<g>
				<path class="st1" d="M14.3,7.3c0.44,0,0.76,0.27,0.88,0.82h0.97c-0.15-1.01-0.88-1.53-1.85-1.53c-1.23,0-2,0.79-2,2.26
					c0,0.92,0.29,1.56,0.76,1.92c0.21-0.21,0.44-0.4,0.65-0.58c-0.24-0.21-0.38-0.64-0.38-1.34C13.33,7.75,13.72,7.3,14.3,7.3"/>
			</g>
			<g>
				<path class="st1" d="M20.89,9.77c0.09-0.24,0.12-0.54,0.12-0.86c0-1.46-0.74-2.15-2.09-2.15h-1.59v2.15h0.29
					c0.24,0,0.47,0,0.68,0.03V7.45h0.62c0.68,0,1.09,0.45,1.09,1.46c0,0.15,0,0.3-0.03,0.45C20.3,9.47,20.6,9.62,20.89,9.77"/>
			</g>
			<g>
				<path class="st1" d="M20,21.82c-0.32,0.12-0.63,0.2-0.95,0.26l-0.35,1.32l-0.32-1.2c-0.26,0.03-0.49,0.03-0.72,0.03h-0.17
					l0.61,1.93h1.15L20,21.82z"/>
			</g>
			<g>
				<path class="st1" d="M12.91,20.4v-0.03c-0.15-0.12-0.28-0.24-0.4-0.39h-0.37v2.83c0,0.95,0.67,1.52,1.84,1.52
					s1.84-0.57,1.84-1.52v-0.77c-0.34-0.09-0.64-0.21-0.98-0.36v1.19c0,0.51-0.31,0.75-0.86,0.75c-0.52,0-0.83-0.24-0.83-0.75v-2.26
					C13.06,20.55,13,20.46,12.91,20.4"/>
			</g>
			<g>
				<path class="st1" d="M5.4,17.68c-0.03-0.06-0.03-0.12-0.06-0.18C5.37,17.56,5.37,17.62,5.4,17.68 M5.4,13.38
					c-0.03,0.09-0.03,0.15-0.06,0.21C5.37,13.53,5.37,13.47,5.4,13.38 M9.1,7.46h0.33c0.39,0,0.66,0.18,0.66,0.51
					c0,0.39-0.24,0.57-0.63,0.57H8.95V7.58L9.1,7.46z M9.52,10.42H8.95V9.16h0.6c0.45,0,0.69,0.21,0.69,0.66
					C10.24,10.24,10.03,10.42,9.52,10.42 M15.32,25.79c-1.97,0-3.83-0.56-5.38-1.55v-3.5h1.26v-0.75H7.67v0.75h1.26v2.78
					c-0.84-0.69-1.55-1.52-2.15-2.42c-0.54-0.9-1.17-2.36-1.37-3.41h0.69V15.8l1.58,1.88h1.31l-2-2.3l1.79-2H7.61L6.08,15.2v-1.82
					H5.4c0.17-0.78,0.43-1.59,0.78-2.3h0.84l-0.33-0.93C7.05,9.56,7.46,9.01,7.94,8.5v2.57h1.55c1.26,0,1.76-0.42,1.76-1.23
					c0-0.57-0.36-0.93-0.96-1.05c0.42-0.09,0.78-0.42,0.78-0.87c0-0.63-0.33-0.99-1.11-1.11c1.55-0.96,3.39-1.52,5.35-1.52
					c5.59,0,10.16,4.58,10.16,10.23c0,1.46-0.3,2.84-0.87,4.1l1.17,1.2c0.81-1.58,1.26-3.38,1.26-5.29
					c0-6.49-5.26-11.78-11.71-11.78c-3.14,0-6.07,1.23-8.28,3.47C4.83,9.43,3.6,12.39,3.6,15.53c0,6.52,5.26,11.81,11.71,11.81
					c3.02,0,5.8-1.17,7.89-3.08l-1.11-1.11C20.28,24.8,17.92,25.79,15.32,25.79"/>
			</g>
			<g>
				<path class="st1" d="M20.46,18.42c-0.74,0.72-1.75,1.13-2.8,1.13c-1.04,0-2.05-0.42-2.77-1.13c-0.74-0.78-1.19-1.79-1.19-2.83
					c0-1.04,0.45-2.06,1.19-2.77c0.71-0.75,1.73-1.19,2.77-1.19c1.04,0,2.05,0.45,2.8,1.19C21.98,14.33,21.98,16.84,20.46,18.42
					 M26.98,23.13l-4.37-4.44c1.4-2.24,1.16-5.25-0.8-7.22c-1.13-1.13-2.68-1.7-4.14-1.7c-1.49,0-2.95,0.57-4.11,1.7
					c-2.26,2.27-2.26,5.99,0,8.26c1.16,1.1,2.62,1.67,4.11,1.67c1.1,0,2.14-0.27,3.09-0.83l4.43,4.38c0.33,0.39,0.95,0.39,1.31,0
					l0.48-0.48C27.37,24.08,27.37,23.46,26.98,23.13"/>
			</g>
			<g>
				<path class="st1" d="M17.58,16.88c-0.18,0-0.32-0.18-0.32-0.36c0-0.21,0.15-0.35,0.32-0.35c0.21,0,0.35,0.15,0.35,0.35
					C17.93,16.7,17.78,16.88,17.58,16.88 M17.31,14.45c0-0.15,0.12-0.27,0.26-0.27c0.15,0,0.26,0.12,0.26,0.27v1.04
					c0,0.15-0.12,0.27-0.26,0.27c-0.15,0-0.26-0.12-0.26-0.27V14.45z M20.31,16.91l-0.03-0.06l-2.35-4.02
					c-0.06-0.12-0.21-0.21-0.35-0.21c-0.15,0-0.29,0.12-0.35,0.27l-2.32,3.97c-0.06,0.06-0.09,0.15-0.09,0.24
					c0,0.21,0.18,0.38,0.41,0.38h4.73c0.21,0,0.38-0.18,0.38-0.38C20.34,17,20.34,16.94,20.31,16.91"/>
			</g>
		</g>
	</g>
</g>
</svg>
