<?xml version="1.0" encoding="utf-8"?>
<!-- Generator: Adobe Illustrator 27.3.1, SVG Export Plug-In . SVG Version: 6.00 Build 0)  -->
<svg version="1.1" id="Layer_1" xmlns="http://www.w3.org/2000/svg" xmlns:xlink="http://www.w3.org/1999/xlink" x="0px" y="0px"
	 viewBox="0 0 30.96 30.96" style="enable-background:new 0 0 30.96 30.96;" xml:space="preserve">
<style type="text/css">
	.st0{fill:#28A8E0;}
	.st1{fill:#FFFFFF;}
</style>
<g>
	<g>
		<g>
			<path class="st0" d="M30.96,15.48c0,8.55-6.93,15.48-15.48,15.48S0,24.03,0,15.48C0,6.93,6.93,0,15.48,0S30.96,6.93,30.96,15.48z
				"/>
		</g>
		<g>
			<polygon class="st1" points="22.22,19.85 15.88,19.85 15.88,23.49 22.22,23.49 22.22,25.34 25.82,21.73 25.87,21.67 22.22,18 			
				"/>
			<polygon class="st1" points="22.22,17.1 25.82,13.49 25.87,13.43 22.22,9.76 22.22,11.62 15.88,11.62 15.88,15.25 22.22,15.25 
							"/>
			<polygon class="st1" points="8.79,14.02 5.19,17.63 5.13,17.69 8.79,21.36 8.79,19.51 15.13,19.51 15.13,15.87 8.79,15.87 			"/>
			<polygon class="st1" points="8.79,5.69 5.19,9.31 5.13,9.36 8.79,13.03 8.79,11.18 15.13,11.18 15.13,7.55 8.79,7.55 			"/>
		</g>
	</g>
</g>
</svg>
