<?xml version="1.0" encoding="utf-8"?>
<!-- Generator: Adobe Illustrator 27.3.1, SVG Export Plug-In . SVG Version: 6.00 Build 0)  -->
<svg version="1.1" id="Layer_1" xmlns="http://www.w3.org/2000/svg" xmlns:xlink="http://www.w3.org/1999/xlink" x="0px" y="0px"
	 viewBox="0 0 30.96 30.96" style="enable-background:new 0 0 30.96 30.96;" xml:space="preserve">
<style type="text/css">
	.st0{fill:#28A8E0;}
	.st1{fill:#FFFFFF;}
</style>
<g>
	<g>
		<g>
			<path class="st0" d="M30.96,15.48c0,8.55-6.93,15.48-15.48,15.48S0,24.03,0,15.48C0,6.93,6.93,0,15.48,0S30.96,6.93,30.96,15.48z
				"/>
		</g>
		<g>
			<path class="st1" d="M15.5,4.93c-5.77,0-10.45,4.68-10.45,10.45S9.73,25.84,15.5,25.84c5.77,0,10.45-4.68,10.45-10.45
				S21.27,4.93,15.5,4.93z M16.36,6.99h1.39v6.12h3.64v-0.97l2.89,1.67l-2.89,1.67v-0.97h-5.03V6.99z M7.01,13.11h6.12V9.47h-0.97
				l1.67-2.89l1.67,2.89h-0.97v5.03H7.01V13.11z M14.52,23.87h-1.39v-6.12H9.49v0.97L6.6,17.06l2.89-1.67v0.97h5.03V23.87z
				 M23.86,17.76h-6.12v3.64h0.97l-1.67,2.89l-1.67-2.89h0.97v-5.03h7.51V17.76z"/>
		</g>
	</g>
</g>
</svg>
