<?xml version="1.0" encoding="utf-8"?>
<!-- Generator: Adobe Illustrator 27.3.1, SVG Export Plug-In . SVG Version: 6.00 Build 0)  -->
<svg version="1.1" id="Layer_1" xmlns="http://www.w3.org/2000/svg" xmlns:xlink="http://www.w3.org/1999/xlink" x="0px" y="0px"
	 viewBox="0 0 30.96 30.96" style="enable-background:new 0 0 30.96 30.96;" xml:space="preserve">
<style type="text/css">
	.st0{fill:#28A8E0;}
	.st1{fill:#FFFFFF;}
</style>
<g>
	<g>
		<g>
			<path class="st0" d="M30.96,15.48c0,8.55-6.93,15.48-15.48,15.48S0,24.03,0,15.48C0,6.93,6.93,0,15.48,0S30.96,6.93,30.96,15.48z
				"/>
		</g>
	</g>
</g>
<g>
	<path class="st1" d="M18.82,14.65c-0.87-1.51-2.15-2.63-3.73-3.24c1-0.83,1.58-2.08,1.58-3.38c0-2.43-1.97-4.4-4.38-4.4
		c-2.44,0-4.43,1.98-4.43,4.4c0,1.31,0.57,2.52,1.57,3.36c-3,1.16-4.85,4.09-4.85,7.73v2.54h7.74v-1H5.59v-1.54
		c0-3.55,1.94-6.31,4.96-7.05c1.09,0.47,2.33,0.47,3.42,0.02c1.57,0.4,2.88,1.34,3.78,2.72l0.05,0.07h1.17L18.82,14.65z M15.67,8.03
		c0,1.88-1.53,3.4-3.4,3.4c-1.87,0-3.4-1.53-3.4-3.4c0-1.87,1.54-3.4,3.42-3.4C14.16,4.63,15.67,6.16,15.67,8.03z"/>
</g>
<path class="st1" d="M26.4,15.56H13.57c-0.28,0-0.51,0.22-0.51,0.49v8.76c0,0.27,0.23,0.49,0.51,0.49H26.4c0.28,0,0.5-0.22,0.5-0.49
	v-8.76C26.91,15.78,26.68,15.56,26.4,15.56z M25.6,24.09H14.38v-7.32H25.6V24.09z M26.65,20.57c0,0.13-0.11,0.24-0.25,0.24h-0.23
	c-0.14,0-0.25-0.11-0.25-0.24v-0.23c0-0.14,0.11-0.25,0.25-0.25h0.23c0.14,0,0.25,0.11,0.25,0.25V20.57z"/>
</svg>
