<?xml version="1.0" encoding="utf-8"?>
<!-- Generator: Adobe Illustrator 27.3.1, SVG Export Plug-In . SVG Version: 6.00 Build 0)  -->
<svg version="1.1" id="Layer_1" xmlns="http://www.w3.org/2000/svg" xmlns:xlink="http://www.w3.org/1999/xlink" x="0px" y="0px"
	 viewBox="0 0 30.96 30.96" style="enable-background:new 0 0 30.96 30.96;" xml:space="preserve">
<style type="text/css">
	.st0{fill:#28A8E0;}
	.st1{fill-rule:evenodd;clip-rule:evenodd;fill:#FFFFFF;}
</style>
<g>
	<path class="st0" d="M30.96,15.48c0,8.55-6.93,15.48-15.48,15.48S0,24.03,0,15.48C0,6.93,6.93,0,15.48,0S30.96,6.93,30.96,15.48z"
		/>
</g>
<g>
	<path class="st1" d="M28,10.94c-0.53-1.25-1.29-2.38-2.26-3.35c-0.97-0.97-2.09-1.73-3.35-2.26c-1.3-0.55-2.68-0.83-4.1-0.83
		s-2.8,0.28-4.1,0.83c-1.25,0.53-2.38,1.29-3.35,2.26s-1.73,2.09-2.26,3.35C8.57,10.97,8.55,11,8.54,11.03h0.29h0.67h0.33
		c0.46-0.96,1.07-1.84,1.84-2.6c0.24-0.24,0.48-0.46,0.74-0.66c0,0.02,0.01,0.04,0.01,0.05c0,0.12-0.09,0.18,0,0.24
		c0.06,0.09,0.21-0.09,0.28,0.03c0.06,0.09-0.06,0.12-0.09,0.24c-0.03,0.09,0.03,0.21,0.03,0.31c0,0.06,0,0.18-0.03,0.21
		c-0.03,0.06-0.15,0.06-0.15,0.15c0,0.12,0.18,0.21,0.21,0.31c0,0.09-0.06,0.21-0.09,0.28c-0.09,0.18-0.21,0.34-0.34,0.49
		c-0.12,0.12-0.28,0.28-0.37,0.4c-0.03,0.09-0.06,0.18-0.09,0.24c-0.06,0.12-0.15,0.15-0.21,0.28v0.03h1.84h0.86h5.55v1.16
		c0.15-0.09,0.31-0.15,0.43-0.24c0.06-0.15,0-0.34,0-0.49c0.06-0.03,0.12,0.03,0.18,0c0.09,0,0.09-0.15,0.15-0.21
		c0.03-0.03,0.12-0.03,0.15-0.09c0.12-0.06,0.15-0.18,0.25-0.21c0.03,0,0.09,0,0.15-0.03c0.06,0,0.15-0.09,0.25-0.12
		c0.09-0.03,0.25-0.03,0.28-0.06c0.03-0.03,0-0.12,0-0.18c0.06-0.24,0.43-0.28,0.64-0.37c0.15-0.06,0.31-0.18,0.49-0.12
		c-0.03,0.09-0.18,0.06-0.15,0.21c0.03,0.18,0.28-0.06,0.37-0.09c0.12-0.06,0.37-0.09,0.52-0.15c0.15-0.06,0.43-0.15,0.31-0.34
		c-0.12,0-0.18,0.15-0.31,0.21c-0.06,0-0.06-0.06-0.12-0.09c-0.06,0-0.09,0.06-0.15,0.06c-0.06-0.03-0.12-0.12-0.15-0.18
		c0-0.18,0.15-0.24,0.25-0.4c-0.06-0.15-0.28-0.03-0.43-0.09c0.03-0.09,0.12-0.18,0.25-0.18c0.09-0.03,0.31,0,0.37,0.03
		c0.03,0.03,0,0.09,0.03,0.15c0.06,0.06,0.12,0.03,0.21,0.03c0.03-0.12-0.15-0.09-0.15-0.18c0.15-0.09,0.4,0,0.58-0.03
		c0.09-0.03,0.21-0.09,0.31-0.15c0.09-0.03,0.21-0.12,0.31-0.06c0,0.09-0.09,0.12-0.15,0.18c-0.15,0.15-0.34,0.31-0.46,0.49
		c0.09,0.06,0.21,0.03,0.37,0.06c0.03,0,0.12,0,0.15,0.03h0.21c0.09,0.03,0.09,0.12,0.18,0.12c0.15,0,0.15-0.15,0.09-0.24
		c0-0.12,0.06-0.15,0.03-0.24c-0.09-0.12-0.34,0-0.34-0.15c0-0.12,0.09-0.12,0.12-0.21c0-0.09,0.04-0.14,0.08-0.19
		c0.77,0.81,1.37,1.74,1.81,2.77c0.49,1.15,0.73,2.38,0.73,3.64s-0.25,2.49-0.73,3.64c-0.16,0.37-0.34,0.73-0.54,1.08
		c-0.03-0.01-0.06-0.01-0.09-0.01c-0.03,0-0.09,0.03-0.15,0.03c-0.12,0-0.28-0.09-0.4-0.09c-0.06,0-0.18,0.03-0.21,0
		c-0.06-0.03-0.06-0.15-0.12-0.18c-0.06-0.03-0.15-0.06-0.21-0.09c-0.09-0.03-0.18-0.09-0.31-0.09c-0.03,0-0.09,0.03-0.15,0.03
		c-0.06-0.03-0.12-0.12-0.18-0.15c-0.06-0.03-0.15-0.06-0.18-0.12c0.09-0.24-0.12-0.31-0.15-0.46c-0.03-0.06-0.03-0.12-0.06-0.18
		c0-0.09-0.09-0.12-0.18-0.21c-0.15-0.12-0.31-0.21-0.52-0.24c-0.12-0.03-0.21,0.03-0.34,0c-0.12,0-0.28-0.12-0.37-0.21
		c-0.09-0.12-0.15-0.21-0.21-0.24c-0.09-0.06-0.18-0.06-0.25-0.12c-0.03,0-0.03-0.03-0.03-0.09c-0.06-0.09-0.12-0.12-0.06-0.21
		c-0.09-0.06-0.09,0.06-0.18,0.06c-0.09-0.12-0.15-0.18-0.37-0.15c-0.09,0.03-0.12,0.12-0.25,0.12c-0.06,0.03-0.15-0.09-0.25-0.09
		c-0.09-0.03-0.18,0.03-0.25,0c-0.09,0-0.12-0.09-0.21-0.15c-0.06-0.03-0.18-0.09-0.21-0.09c-0.12,0-0.18,0.21-0.34,0.15
		c-0.09-0.09,0.12-0.15,0.03-0.24c-0.06-0.06-0.12,0.03-0.18,0.06c-0.06,0.03-0.09,0.06-0.15,0.09v0.28v0.98v0.76v1.04v0.76v1.81
		h-0.09c0.06,0.03,0.09,0.03,0.12,0.06c0.09,0.03,0.18,0.06,0.25,0.09c0.12,0.06,0.37,0.24,0.43,0.34c0.03,0.09,0.06,0.31,0.09,0.46
		c0.03,0.21,0,0.34,0.03,0.55v0.13c-0.76,0.2-1.54,0.3-2.34,0.3c-1.26,0-2.49-0.25-3.64-0.73c-0.73-0.31-1.42-0.71-2.04-1.19h-0.12
		c0,0,0,0,0,0h-0.95c0,0,0,0,0,0h-0.72c0.01,0.01,0.01,0.02,0.02,0.02c0.97,0.97,2.09,1.73,3.35,2.26c1.3,0.55,2.68,0.83,4.1,0.83
		s2.8-0.28,4.1-0.83c1.25-0.53,2.38-1.29,3.35-2.26c0.97-0.97,1.73-2.09,2.26-3.35c0.55-1.3,0.83-2.68,0.83-4.1
		S28.55,12.24,28,10.94z M22.38,6.96c0.03,0.09-0.12,0.18-0.15,0.24c0,0.06,0.03,0.12,0.03,0.18c0.03,0.52-0.4,0.76-0.92,0.76
		c-0.09,0.09-0.06,0.28-0.12,0.4C21.15,8.67,21,8.79,20.88,8.76c-0.06,0-0.15-0.12-0.15-0.18c0-0.09,0.12-0.15,0.06-0.24
		c0-0.09,0.15-0.12,0.15-0.24c-0.03-0.12-0.21-0.06-0.37-0.06C20.48,8,20.33,7.94,20.24,7.87c-0.12-0.06-0.25-0.21-0.4-0.21
		c-0.09-0.03-0.18,0.03-0.25-0.03c-0.03-0.06,0.03-0.15,0.03-0.18c0-0.06-0.12-0.09-0.12-0.15c-0.03-0.06,0.09-0.18,0.15-0.24
		c0.09-0.06,0.25-0.15,0.37-0.21c0.15-0.09,0.31-0.15,0.43-0.21c0.06,0,0.12,0,0.18-0.03c0.15-0.03,0.25-0.15,0.37-0.18
		c0.06,0,0.15,0,0.21-0.03c0.09,0,0.15-0.06,0.25-0.09c0.01-0.01,0.02-0.02,0.04-0.03c0.04,0.01,0.08,0.03,0.12,0.05
		c-0.05,0.04-0.11,0.08-0.13,0.17c0.1,0.21,0.29,0.02,0.44-0.04c0.21,0.09,0.42,0.19,0.63,0.29c-0.03,0.04-0.04,0.08-0.06,0.12
		C22.47,6.9,22.44,6.93,22.38,6.96z"/>
	<rect x="2.96" y="11.77" class="st1" width="4.94" height="1.03"/>
	<rect x="8.59" y="11.77" class="st1" width="4.94" height="1.03"/>
	<rect x="14.15" y="11.77" class="st1" width="4.92" height="1.03"/>
	<rect x="5.77" y="13.54" class="st1" width="4.94" height="1.1"/>
	<rect x="11.36" y="13.54" class="st1" width="4.94" height="1.1"/>
	<rect x="2.96" y="13.54" class="st1" width="2.12" height="1.1"/>
	<rect x="16.99" y="13.54" class="st1" width="2.08" height="1.1"/>
	<rect x="2.96" y="15.28" class="st1" width="4.94" height="1.1"/>
	<rect x="8.59" y="15.28" class="st1" width="4.94" height="1.1"/>
	<rect x="14.15" y="15.28" class="st1" width="4.92" height="1.1"/>
	<rect x="5.78" y="17.08" class="st1" width="4.94" height="1.04"/>
	<rect x="11.36" y="17.08" class="st1" width="4.94" height="1.04"/>
	<rect x="2.96" y="17.08" class="st1" width="2.12" height="1.04"/>
	<rect x="16.99" y="17.08" class="st1" width="2.08" height="1.04"/>
	<rect x="2.96" y="18.84" class="st1" width="4.94" height="1.09"/>
	<rect x="8.59" y="18.84" class="st1" width="4.94" height="1.09"/>
	<rect x="14.15" y="18.84" class="st1" width="4.92" height="1.09"/>
	<rect x="5.78" y="20.64" class="st1" width="4.94" height="1.09"/>
	<rect x="11.36" y="20.64" class="st1" width="4.94" height="1.09"/>
	<rect x="2.96" y="20.64" class="st1" width="2.12" height="1.09"/>
	<rect x="16.99" y="20.64" class="st1" width="2.08" height="1.09"/>
</g>
</svg>
