<?xml version="1.0" encoding="utf-8"?>
<!-- Generator: Adobe Illustrator 27.3.1, SVG Export Plug-In . SVG Version: 6.00 Build 0)  -->
<svg version="1.1" id="Layer_1" xmlns="http://www.w3.org/2000/svg" xmlns:xlink="http://www.w3.org/1999/xlink" x="0px" y="0px"
	 viewBox="0 0 30.96 30.96" style="enable-background:new 0 0 30.96 30.96;" xml:space="preserve">
<style type="text/css">
	.st0{fill:#28A8E0;}
	.st1{fill:#FFFFFF;}
</style>
<g>
	<g>
		<g>
			<path class="st0" d="M30.96,15.48c0,8.55-6.93,15.48-15.48,15.48S0,24.03,0,15.48S6.93,0,15.48,0C24.03,0,30.96,6.93,30.96,15.48
				z"/>
		</g>
	</g>
</g>
<path class="st1" d="M3.98,9.6v12.84c0,0.28,0.23,0.52,0.52,0.52h2c0.28,0,0.52-0.23,0.52-0.52V9.6c0-0.84-0.68-1.52-1.52-1.52h0
	C4.66,8.08,3.98,8.76,3.98,9.6z"/>
<path class="st1" d="M8.96,8.64v13.8c0,0.28,0.23,0.52,0.52,0.52h2c0.28,0,0.52-0.23,0.52-0.52V8.64c0-0.84-0.68-1.52-1.52-1.52h0
	C9.64,7.12,8.96,7.8,8.96,8.64z"/>
<path class="st1" d="M13.94,7.68v14.76c0,0.28,0.23,0.52,0.52,0.52h2c0.28,0,0.52-0.23,0.52-0.52V7.68c0-0.84-0.68-1.52-1.52-1.52h0
	C14.62,6.16,13.94,6.84,13.94,7.68z"/>
<path class="st1" d="M18.93,8.64v13.8c0,0.28,0.23,0.52,0.52,0.52h2c0.28,0,0.52-0.23,0.52-0.52V8.64c0-0.84-0.68-1.52-1.52-1.52h0
	C19.6,7.12,18.93,7.8,18.93,8.64z"/>
<path class="st1" d="M23.91,9.6v12.84c0,0.28,0.23,0.52,0.52,0.52h2c0.28,0,0.52-0.23,0.52-0.52V9.6c0-0.84-0.68-1.52-1.52-1.52h0
	C24.59,8.08,23.91,8.76,23.91,9.6z"/>
<rect x="3.03" y="11.68" class="st1" width="24.88" height="1.04"/>
<rect x="3.03" y="19.83" class="st1" width="24.88" height="1.04"/>
</svg>
