<?xml version="1.0" encoding="utf-8"?>
<!-- Generator: Adobe Illustrator 27.3.1, SVG Export Plug-In . SVG Version: 6.00 Build 0)  -->
<svg version="1.1" id="Layer_1" xmlns="http://www.w3.org/2000/svg" xmlns:xlink="http://www.w3.org/1999/xlink" x="0px" y="0px"
	 viewBox="0 0 30.96 30.96" style="enable-background:new 0 0 30.96 30.96;" xml:space="preserve">
<style type="text/css">
	.st0{fill:#28A8E0;}
	.st1{fill:#FFFFFF;}
</style>
<g>
	<g>
		<g>
			<path class="st0" d="M30.96,15.48c0,8.55-6.93,15.48-15.48,15.48S0,24.03,0,15.48C0,6.93,6.93,0,15.48,0
				C24.03,0,30.96,6.93,30.96,15.48z"/>
		</g>
	</g>
</g>
<g>
	<g>
		<g>
			<polygon class="st1" points="22.07,19.79 15.73,19.79 15.73,23.42 22.07,23.42 22.07,25.28 25.67,21.66 25.73,21.61 22.07,17.93 
							"/>
			<polygon class="st1" points="22.07,17.04 25.67,13.43 25.73,13.37 22.07,9.7 22.07,11.55 15.73,11.55 15.73,15.19 22.07,15.19 
							"/>
			<polygon class="st1" points="8.64,13.96 5.04,17.57 4.98,17.63 8.64,21.3 8.64,19.45 14.98,19.45 14.98,15.81 8.64,15.81 			"/>
			<polygon class="st1" points="8.64,5.63 5.04,9.24 4.98,9.3 8.64,12.97 8.64,11.12 14.98,11.12 14.98,7.48 8.64,7.48 			"/>
		</g>
	</g>
</g>
</svg>
