<?xml version="1.0" encoding="utf-8"?>
<!-- Generator: Adobe Illustrator 27.3.1, SVG Export Plug-In . SVG Version: 6.00 Build 0)  -->
<svg version="1.1" id="Layer_1" xmlns="http://www.w3.org/2000/svg" xmlns:xlink="http://www.w3.org/1999/xlink" x="0px" y="0px"
	 viewBox="0 0 30.96 30.96" style="enable-background:new 0 0 30.96 30.96;" xml:space="preserve">
<style type="text/css">
	.st0{fill:#28A8E0;}
	.st1{fill:#FFFFFF;}
</style>
<g>
	<g>
		<g>
			<path class="st0" d="M30.96,15.48c0,8.55-6.93,15.48-15.48,15.48S0,24.03,0,15.48C0,6.93,6.93,0,15.48,0S30.96,6.93,30.96,15.48z
				"/>
		</g>
	</g>
</g>
<g>
	<path class="st1" d="M9.73,16.94H6.02c-0.75,0-1.36,0.61-1.36,1.36l0,4.56c0,0.37,0.3,0.67,0.67,0.67c0.37,0,0.67-0.3,0.67-0.67
		l0-3.71l0.23,0l0.17,4.31h0.01l2.97-0.01l0.17-4.31l0.23,0l0,3.71c0,0.37,0.3,0.67,0.67,0.67c0.37,0,0.67-0.3,0.67-0.67l0-4.56
		C11.09,17.55,10.48,16.94,9.73,16.94z"/>
	<path class="st1" d="M7.87,16.44c0.76,0,1.37-0.61,1.37-1.37c0-0.76-0.61-1.37-1.37-1.37c-0.76,0-1.37,0.61-1.37,1.37
		C6.5,15.83,7.11,16.44,7.87,16.44z"/>
	<path class="st1" d="M24.84,16.94h-3.71c-0.75,0-1.36,0.61-1.36,1.36l0,4.56c0,0.37,0.3,0.67,0.67,0.67c0.37,0,0.67-0.3,0.67-0.67
		l0-3.71l0.23,0l0.17,4.31l2.97,0.01h0.01l0.17-4.31l0.23,0l0,3.71c0,0.37,0.3,0.67,0.67,0.67c0.37,0,0.67-0.3,0.67-0.67l0-4.56
		C26.21,17.55,25.6,16.94,24.84,16.94z"/>
	<path class="st1" d="M21.62,15.07c0,0.76,0.61,1.37,1.37,1.37c0.76,0,1.37-0.61,1.37-1.37c0-0.76-0.61-1.37-1.37-1.37
		C22.23,13.7,21.62,14.31,21.62,15.07z"/>
	<path class="st1" d="M15.45,8.41c0.76,0,1.37-0.61,1.37-1.37c0-0.76-0.61-1.37-1.37-1.37c-0.76,0-1.37,0.61-1.37,1.37
		C14.08,7.79,14.69,8.41,15.45,8.41z"/>
	<path class="st1" d="M17.3,21.36H13.6c-0.75,0-1.36,0.61-1.36,1.36l0,4.56c0,0.37,0.3,0.67,0.67,0.67c0.37,0,0.67-0.3,0.67-0.67
		l0-3.71l0.23,0l0.17,4.31l2.97,0.01h0.01l0.17-4.31l0.23,0l0,3.71c0,0.37,0.3,0.67,0.67,0.67c0.37,0,0.67-0.3,0.67-0.67l0-4.56
		C18.67,21.97,18.06,21.36,17.3,21.36z"/>
	<path class="st1" d="M14.08,19.48c0,0.76,0.61,1.37,1.37,1.37c0.76,0,1.37-0.61,1.37-1.37c0-0.76-0.61-1.37-1.37-1.37
		C14.69,18.11,14.08,18.72,14.08,19.48z"/>
	<path class="st1" d="M15.48,16.12c3.62,0,6.55-2.93,6.55-6.55s-2.93-6.55-6.55-6.55S8.93,5.96,8.93,9.57S11.86,16.12,15.48,16.12z
		 M13.57,11.12l0.23,0l0.12,3.08c-0.12-0.04-0.23-0.08-0.35-0.13L13.57,11.12z M17.33,14.1c-0.11,0.05-0.23,0.09-0.35,0.13l0.12-3.1
		l0.23,0L17.33,14.1z M12.02,6.12c0.92-0.92,2.15-1.43,3.46-1.43s2.53,0.51,3.46,1.43c0.92,0.92,1.43,2.15,1.43,3.46
		s-0.51,2.53-1.43,3.46c-0.09,0.09-0.18,0.17-0.27,0.25l0-3.01c0-0.75-0.61-1.36-1.36-1.36H13.6c-0.75,0-1.36,0.61-1.36,1.36l0,2.95
		c-0.07-0.06-0.14-0.13-0.21-0.2c-0.92-0.92-1.43-2.15-1.43-3.46S11.1,7.04,12.02,6.12z"/>
</g>
</svg>
