<?xml version="1.0" encoding="utf-8"?>
<!-- Generator: Adobe Illustrator 27.3.1, SVG Export Plug-In . SVG Version: 6.00 Build 0)  -->
<svg version="1.1" id="Layer_1" xmlns="http://www.w3.org/2000/svg" xmlns:xlink="http://www.w3.org/1999/xlink" x="0px" y="0px"
	 viewBox="0 0 30.96 30.96" style="enable-background:new 0 0 30.96 30.96;" xml:space="preserve">
<style type="text/css">
	.st0{fill:#28A8E0;}
	.st1{fill:#FFFFFF;}
</style>
<g>
	<g>
		<g>
			<path class="st0" d="M30.96,15.48c0,8.55-6.93,15.48-15.48,15.48S0,24.03,0,15.48C0,6.93,6.93,0,15.48,0S30.96,6.93,30.96,15.48z
				"/>
		</g>
	</g>
</g>
<g>
	<path class="st1" d="M22.42,20.32c2.87,0,4.45-1.02,4.45-3.07c0-2.23-1.11-2.88-2.41-3.35c0.09-1.21-1.02-1.86-1.85-1.86
		c1.3-7.25-9.54-7.99-10.47-2.79c-2.96-1.58-5.19,0.93-4.82,2.79c-5.74,0-5.19,8.27-0.28,8.27c1.76,0,6.85,0,6.85,0s0.49,0,1.25,0
		v1.13c-0.26,0.1-0.46,0.3-0.56,0.56h-4.7c-0.15-0.37-0.5-0.63-0.92-0.63c-0.55,0-0.99,0.44-0.99,0.99s0.44,0.99,0.99,0.99
		c0.42,0,0.78-0.26,0.92-0.63h4.7c0.15,0.37,0.5,0.63,0.92,0.63c0.42,0,0.78-0.26,0.92-0.63h4.7c0.15,0.37,0.5,0.63,0.92,0.63
		c0.55,0,0.99-0.44,0.99-0.99s-0.44-0.99-0.99-0.99c-0.42,0-0.78,0.26-0.92,0.63h-4.7c-0.1-0.26-0.3-0.46-0.56-0.56v-1.13
		C17.79,20.32,20.64,20.32,22.42,20.32z M15.56,19.34l-0.37-0.15c-1.09-0.44-2.01-1.18-2.68-2.14c-0.68-0.99-1.04-2.14-1.04-3.34
		v-3.02l4.1-0.92l4.07,0.92v3.02c0,1.2-0.36,2.36-1.04,3.34c-0.66,0.96-1.58,1.7-2.66,2.14L15.56,19.34z"/>
	<path class="st1" d="M17.51,11.23v0.41l-1.25-0.29v-0.41l-0.7-0.16l-0.72,0.16v0.41l-1.25,0.29v-0.41l-1.14,0.25v2.23
		c0,2.07,1.28,3.83,3.1,4.56c1.8-0.74,3.09-2.5,3.09-4.56v-2.23L17.51,11.23z M13.3,13.71V12.6l2.26-0.52
		c0.83,0.2,1.36,0.32,1.68,0.4l-3.34,3.34c-0.24-0.39-0.42-0.83-0.51-1.27C13.32,14.27,13.3,14,13.3,13.71z M17.71,14.54
		c-0.23,1.19-1.05,2.23-2.15,2.8c-0.44-0.23-0.83-0.53-1.17-0.88l3.41-3.41v0.66C17.8,14,17.78,14.27,17.71,14.54z"/>
</g>
</svg>
