<?xml version="1.0" encoding="utf-8"?>
<!-- Generator: Adobe Illustrator 27.3.1, SVG Export Plug-In . SVG Version: 6.00 Build 0)  -->
<svg version="1.1" id="Layer_1" xmlns="http://www.w3.org/2000/svg" xmlns:xlink="http://www.w3.org/1999/xlink" x="0px" y="0px"
	 viewBox="0 0 30.96 30.96" style="enable-background:new 0 0 30.96 30.96;" xml:space="preserve">
<style type="text/css">
	.st0{fill:#28A8E0;}
	.st1{fill:#FFFFFF;}
</style>
<g>
	<g>
		<path class="st0" d="M30.96,15.48c0,8.55-6.93,15.48-15.48,15.48S0,24.03,0,15.48C0,6.93,6.93,0,15.48,0S30.96,6.93,30.96,15.48z"
			/>
	</g>
</g>
<path class="st1" d="M15.22,16.74l0.27-0.12l0.27-0.7v-0.16c0,0,0.23-0.16,0.35-0.04l0.12,0.12c0.7,0.58,1.7,0.78,2.59,0.39
	c1.27-0.55,1.89-2.03,1.35-3.31c-0.58-1.29-2.05-1.91-3.32-1.36c-0.89,0.39-1.47,1.25-1.55,2.18c0.04,0.35-0.46,0.58-0.46,0.58
	l-3.75,1.6c0,0-0.31,0.12-0.39,0.35c-0.08,0.23-0.39,0.9-0.39,0.9s-0.08,0.43,0.42,0.55l0.85,0.31l0.31-0.12l0.15-0.39l0.23-0.12
	l0.35,0.16l0.35-0.16l0.12-0.31l0.42-0.16l0.35,0.12l0.15-0.08l0.23-0.51l0.73-0.31L15.22,16.74z M18.47,12.92
	c0.31-0.12,0.66,0,0.77,0.31c0.12,0.31,0,0.66-0.31,0.78c-0.31,0.16-0.66,0-0.77-0.31C18,13.38,18.16,13.03,18.47,12.92z"/>
<path class="st1" d="M15.45,2.83c-6.84,0-12.44,5.65-12.44,12.55c0,6.94,5.6,12.59,12.44,12.59c6.88,0,12.48-5.65,12.48-12.59
	C27.93,8.48,22.33,2.83,15.45,2.83z M26.81,14.79c-0.04,0.04-0.08,0.08-0.15,0.12c-1.08-1.44-2.2-2.57-3.36-3.55
	c0.5-1.44,0.73-2.65,0.85-3.39C25.69,9.84,26.7,12.22,26.81,14.79z M25.73,16.97c0.08,0.08,0.08,0.23,0,0.31
	c-0.08,0.08-0.23,0.08-0.31,0c-0.54-0.55-0.62-0.62-0.62-0.62c-0.54,0.55-0.62,0.62-0.62,0.62c-0.08,0.08-0.23,0.08-0.31,0
	c-0.08-0.08-0.08-0.23,0-0.31c0.54-0.55,0.62-0.62,0.62-0.62c-0.54-0.55-0.62-0.62-0.62-0.62c-0.08-0.08-0.08-0.23,0-0.31
	c0.08-0.08,0.23-0.08,0.31,0c0.54,0.55,0.62,0.62,0.62,0.62l0.62-0.62c0.08-0.08,0.23-0.08,0.31,0c0.08,0.08,0.08,0.23,0,0.31
	c-0.54,0.55-0.62,0.62-0.62,0.62C25.65,16.89,25.73,16.97,25.73,16.97z M24.8,14.36c-1.08,0-1.97,0.9-1.97,1.99
	c0,0.31,0.08,0.62,0.23,0.9c-1.12,0.86-2.36,1.91-3.55,3.23c-0.31-0.16-0.62-0.27-1-0.27c-0.85,0-1.58,0.55-1.82,1.32
	c-0.54-0.04-0.93-0.12-1.27-0.19v-0.04v-0.12c0.04-0.08,0.12-0.16,0.15-0.27c2.94-1.64,4.83-3.86,6.03-5.84
	c0.7-1.17,1.24-2.34,1.58-3.39c1.12,0.94,2.2,2.03,3.21,3.39c-0.04,0-0.04,0-0.08,0.04C25.96,14.63,25.42,14.36,24.8,14.36z
	 M19.59,21.65l-1.12,1.52c-0.04,0.04-0.12,0.08-0.15,0.08h-0.04c-0.04,0-0.12-0.04-0.15-0.08l-0.81-0.78
	c-0.08-0.08-0.08-0.23,0-0.31c0.08-0.08,0.23-0.08,0.31,0l0.62,0.62l1-1.32c0.08-0.12,0.23-0.12,0.31-0.04
	C19.67,21.41,19.67,21.53,19.59,21.65z M14.84,19.89c-0.35-0.35-0.81-0.55-1.35-0.55c-0.66,0-1.24,0.31-1.58,0.78
	c-1.31-0.62-2.43-1.4-3.4-2.18c0.15-0.27,0.23-0.62,0.23-0.97c0-0.78-0.46-1.44-1.12-1.75c0.66-2.1,1.55-3.9,2.47-5.34
	c0.23,0.08,0.5,0.16,0.77,0.16c0.23,0,0.46-0.08,0.7-0.16c0.73,1.13,1.47,2.49,2.09,4.17l0.27-0.12c-0.62-1.75-1.35-3.12-2.05-4.21
	c0.54-0.31,0.93-0.97,0.93-1.68V7.85c0.15,0,0.27,0.04,0.39,0.04c1.51,0.04,3.17,0.31,4.94,0.94c0.15,0.78,0.7,1.36,1.43,1.56
	c-0.04,0.23-0.08,0.47-0.12,0.7c0.08,0.04,0.19,0.12,0.27,0.19c0.04-0.27,0.12-0.55,0.15-0.82h0.19c0.39,0,0.73-0.12,1-0.27
	c0.62,0.39,1.27,0.82,1.89,1.29c-0.39,1.05-0.89,2.26-1.62,3.43c-1.12,1.83-2.82,3.86-5.41,5.45c0.12-0.19,0.23-0.35,0.35-0.55
	c0.46-0.82,0.93-1.71,1.39-2.69c-0.12,0-0.23,0-0.35-0.04c-0.42,0.94-0.89,1.79-1.31,2.57c-0.23,0.35-0.42,0.7-0.66,1.01v0.04
	c-0.04-0.12-0.08-0.23-0.15-0.35c-0.04-0.97-0.15-1.87-0.31-2.73l-0.19-0.39l-0.12,0.27h-0.04C14.68,18.29,14.8,19.07,14.84,19.89z
	 M14.41,21.92c0.08,0.08,0.08,0.23,0,0.31c-0.12,0.08-0.23,0.08-0.31,0c-0.54-0.55-0.62-0.62-0.62-0.62
	c-0.54,0.55-0.62,0.62-0.62,0.62c-0.12,0.08-0.23,0.08-0.31,0c-0.08-0.08-0.08-0.23,0-0.31c0.54-0.55,0.62-0.62,0.62-0.62
	c-0.54-0.55-0.62-0.62-0.62-0.62c-0.08-0.08-0.08-0.23,0-0.31c0.08-0.08,0.19-0.08,0.31,0c0.54,0.55,0.62,0.62,0.62,0.62l0.62-0.62
	c0.08-0.08,0.19-0.08,0.31,0c0.08,0.12,0.08,0.23,0,0.31c-0.54,0.55-0.62,0.62-0.62,0.62C14.33,21.84,14.41,21.92,14.41,21.92z
	 M9.66,8.24C9.55,8.16,9.55,8.05,9.62,7.93c0.08-0.08,0.23-0.08,0.31,0l0.66,0.62l0.97-1.32c0.08-0.08,0.23-0.12,0.31-0.04
	c0.12,0.08,0.12,0.19,0.08,0.31l-1.16,1.52C10.74,9.06,10.7,9.1,10.63,9.1c-0.08,0-0.12,0-0.15-0.04L9.66,8.24z M23.88,7.66
	c-0.08,0.62-0.27,1.91-0.81,3.51c-0.58-0.43-1.16-0.82-1.74-1.17c0.42-0.35,0.7-0.9,0.7-1.48c0-1.01-0.77-1.87-1.74-1.99
	c0-0.51,0-1.01-0.04-1.56C21.64,5.63,22.87,6.57,23.88,7.66z M20.67,7.58c0.08-0.08,0.23-0.08,0.31,0c0.08,0.08,0.08,0.23,0,0.31
	c-0.54,0.55-0.62,0.62-0.62,0.62c0.54,0.55,0.62,0.62,0.62,0.62c0.08,0.08,0.08,0.19,0,0.27c-0.08,0.12-0.23,0.12-0.31,0
	c-0.54-0.55-0.62-0.62-0.62-0.62c-0.54,0.55-0.62,0.62-0.62,0.62c-0.08,0.12-0.19,0.12-0.31,0c-0.08-0.08-0.08-0.19,0-0.27
	c0.54-0.55,0.62-0.62,0.62-0.62c-0.54-0.55-0.62-0.66-0.62-0.66c-0.08-0.08-0.08-0.19,0-0.27c0.12-0.12,0.23-0.12,0.31,0
	c0.54,0.55,0.62,0.62,0.62,0.62L20.67,7.58z M15.69,3.92c1.51,0.04,2.94,0.35,4.25,0.94c0.04,0.55,0.04,1.13,0.04,1.68
	c-1.04,0.04-1.85,0.9-1.85,1.95c-1.78-0.58-3.44-0.86-4.91-0.9c-0.15-0.04-0.31-0.04-0.46-0.04c-0.08-0.23-0.19-0.47-0.35-0.7
	C13.76,5.36,14.99,4.42,15.69,3.92z M15.15,3.92c-0.73,0.55-1.82,1.44-2.97,2.69c-0.35-0.31-0.81-0.55-1.31-0.55
	c-0.62,0-1.12,0.27-1.51,0.7C9.08,6.53,8.85,6.33,8.7,6.18C10.51,4.81,12.71,3.99,15.15,3.92z M8.43,6.37
	c0.15,0.16,0.42,0.35,0.73,0.66C9.04,7.27,8.93,7.54,8.89,7.85c-1,0.19-1.85,0.39-2.47,0.58C7,7.66,7.69,6.99,8.43,6.37z M6.11,8.87
	c0.62-0.19,1.58-0.47,2.78-0.7c0.04,0.66,0.42,1.21,0.93,1.56C8.89,11.16,8,12.96,7.34,15.1c-0.19-0.04-0.39-0.08-0.58-0.08
	c-0.35,0-0.66,0.08-0.93,0.23c-0.73-0.86-1.24-1.64-1.51-2.1C4.64,11.59,5.26,10.15,6.11,8.87z M6.34,22.23
	c-1.39-1.91-2.24-4.29-2.24-6.86c0-0.58,0.04-1.17,0.12-1.75c0.31,0.47,0.77,1.09,1.35,1.83c-0.46,0.35-0.73,0.9-0.73,1.52
	c0,1.01,0.73,1.83,1.7,1.95C6.42,19.97,6.34,21.06,6.34,22.23z M6.53,18.02c-0.04,0-0.12,0-0.15-0.04L5.57,17.2
	c-0.08-0.08-0.08-0.23,0-0.31c0.08-0.12,0.23-0.12,0.31-0.04l0.62,0.62l1-1.32c0.08-0.08,0.23-0.12,0.31-0.04
	c0.12,0.08,0.12,0.23,0.04,0.31l-1.12,1.52c-0.04,0.04-0.12,0.08-0.15,0.08H6.53z M6.65,22.66c-0.04-1.32,0.04-2.53,0.19-3.7
	c0.62-0.04,1.12-0.31,1.47-0.78c1,0.82,2.12,1.6,3.44,2.22c-0.15,0.27-0.23,0.58-0.23,0.9c0,0.35,0.08,0.62,0.23,0.9
	c-1.39,0.43-2.97,0.74-4.71,0.86C6.92,22.93,6.76,22.78,6.65,22.66z M7.3,23.36c1.7-0.16,3.24-0.47,4.6-0.9
	c0.35,0.51,0.93,0.82,1.58,0.82h0.12c-1.04,1.4-1.89,2.38-2.28,2.81C9.78,25.46,8.43,24.53,7.3,23.36z M15.34,26.87
	c-1.27-0.04-2.55-0.27-3.71-0.66c0.46-0.51,1.35-1.56,2.43-3.04c0.7-0.19,1.2-0.78,1.35-1.52c0.31,0.08,0.7,0.16,1.2,0.19
	c-0.04,0.12-0.04,0.23-0.04,0.35c0,0.51,0.19,1.01,0.54,1.36C16.46,24.57,15.84,25.66,15.34,26.87z M15.69,26.87
	c0.46-1.13,1.04-2.18,1.66-3.12c0.31,0.23,0.73,0.39,1.16,0.39c1.08,0,1.97-0.86,1.97-1.95v-0.23c1.51-0.08,3.21-0.39,4.94-1.01
	C23.53,24.41,19.86,26.79,15.69,26.87z M20.4,21.65c-0.12-0.39-0.35-0.74-0.66-1.01c1.16-1.25,2.39-2.3,3.48-3.12
	c0.35,0.47,0.93,0.78,1.58,0.78c1.08,0,1.93-0.86,1.93-1.95c0-0.35-0.08-0.7-0.27-1.01c0.04,0,0.08-0.04,0.12-0.04
	c0.08,0.12,0.15,0.23,0.27,0.39c-0.08,1.71-0.5,3.35-1.2,4.83C23.8,21.26,21.98,21.57,20.4,21.65z"/>
</svg>
