<?xml version="1.0" encoding="utf-8"?>
<!-- Generator: Adobe Illustrator 27.3.1, SVG Export Plug-In . SVG Version: 6.00 Build 0)  -->
<svg version="1.1" id="Layer_1" xmlns="http://www.w3.org/2000/svg" xmlns:xlink="http://www.w3.org/1999/xlink" x="0px" y="0px"
	 viewBox="0 0 30.96 30.96" style="enable-background:new 0 0 30.96 30.96;" xml:space="preserve">
<style type="text/css">
	.st0{fill:#28A8E0;}
	.st1{fill:none;stroke:#FFFFFF;stroke-width:1.1377;stroke-linecap:round;stroke-linejoin:round;stroke-miterlimit:10;}
	.st2{fill:none;stroke:#FFFFFF;stroke-width:0.8533;stroke-linecap:round;stroke-linejoin:round;stroke-miterlimit:10;}
	.st3{fill:none;stroke:#FFFFFF;stroke-width:0.9481;stroke-linecap:round;stroke-linejoin:round;stroke-miterlimit:10;}
</style>
<g>
	<g>
		<g>
			<path class="st0" d="M30.96,15.48c0,8.55-6.93,15.48-15.48,15.48S0,24.03,0,15.48C0,6.93,6.93,0,15.48,0
				C24.03,0,30.96,6.93,30.96,15.48z"/>
		</g>
	</g>
</g>
<path class="st1" d="M15.44,25.48c5.81,0,8.4-4.95,8.4-8.46c0-2.59-1.99-4.42-2.87-5.14c-1.06-0.86-2.04-1.58-3.23-2.43
	c-1.14-0.81-2.3-0.7-2.3-0.7s-1.17-0.1-2.3,0.7c-1.19,0.84-2.16,1.56-3.23,2.43c-0.88,0.72-2.87,2.55-2.87,5.14
	C7.04,20.53,9.63,25.48,15.44,25.48z"/>
<path class="st1" d="M18.32,12.86c0,0-1.06-1.41-2.88-1.41s-2.88,1.41-2.88,1.41"/>
<line class="st1" x1="19.04" y1="15.96" x2="11.7" y2="15.96"/>
<line class="st1" x1="19.04" y1="21.14" x2="11.7" y2="21.14"/>
<line class="st1" x1="20.15" y1="18.55" x2="10.72" y2="18.55"/>
<line class="st2" x1="8.81" y1="16.73" x2="8.81" y2="18.27"/>
<line class="st2" x1="22.08" y1="16.73" x2="22.08" y2="18.27"/>
<path class="st3" d="M22.41,17.33c0,0,2.61-1.65,2.27-3.26c-0.34-1.61-1.82-3.54-1.31-4.98s2.34-3.19,3.5-2.03s-0.65,2.51-1.61,2.78
	c-0.96,0.27-4.43,0.52-6.15,0.41"/>
<path class="st3" d="M12.83,9.6c-1-0.07-5.01-0.82-6.42,2.16c-1.07,2.27,0.96,5.15,2.06,5.77"/>
</svg>
