<?xml version="1.0" encoding="utf-8"?>
<!-- Generator: Adobe Illustrator 27.3.1, SVG Export Plug-In . SVG Version: 6.00 Build 0)  -->
<svg version="1.1" id="Layer_1" xmlns="http://www.w3.org/2000/svg" xmlns:xlink="http://www.w3.org/1999/xlink" x="0px" y="0px"
	 viewBox="0 0 11.52 11.52" style="enable-background:new 0 0 11.52 11.52;" xml:space="preserve">
<style type="text/css">
	.st0{fill:#28A8E0;}
	.st1{fill-rule:evenodd;clip-rule:evenodd;fill:#FFFFFF;}
</style>
<g>
	<g>
		<g>
			<path class="st0" d="M11.52,5.76c0,3.18-2.58,5.76-5.76,5.76S0,8.94,0,5.76C0,2.58,2.58,0,5.76,0S11.52,2.58,11.52,5.76z"/>
		</g>
		<g>
			<g>
				<path class="st1" d="M5.18,3.43C4.85,3.76,4.66,4.22,4.66,4.72c0,0.48,0.19,0.95,0.53,1.29c0.73,0.71,1.87,0.71,2.58,0
					C8.12,5.66,8.31,5.2,8.31,4.72c0-0.5-0.19-0.96-0.55-1.28c-0.33-0.36-0.8-0.55-1.28-0.55C6,2.89,5.54,3.08,5.18,3.43 M8.38,2.81
					c0.54,0.54,0.79,1.22,0.79,1.91c0,0.68-0.26,1.39-0.79,1.92c-0.9,0.9-2.29,1.01-3.32,0.38L3,9.03c-0.15,0.17-0.44,0.17-0.61,0
					L2.17,8.81c-0.17-0.17-0.17-0.46,0-0.61L4.2,6.15C3.93,5.71,3.8,5.22,3.8,4.72c0-0.69,0.26-1.37,0.77-1.91
					C5.63,1.75,7.34,1.75,8.38,2.81"/>
			</g>
			<g>
				<path class="st1" d="M5.3,4.31V5.1h0.16c0.18,0,0.3-0.12,0.3-0.39c0-0.27-0.12-0.39-0.3-0.39H5.3z M5.46,4.13
					c0.36,0,0.57,0.19,0.57,0.58c0,0.4-0.21,0.58-0.57,0.58H5.03V4.13H5.46z"/>
			</g>
			<polygon class="st1" points="6.39,4.13 6.39,5.08 6.91,5.08 6.91,5.29 6.13,5.29 6.13,4.13 			"/>
			<g>
				<path class="st1" d="M7.3,4.31v0.39h0.17c0.13,0,0.21-0.07,0.21-0.2c0-0.14-0.08-0.2-0.22-0.2H7.3z M7.45,4.13
					c0.36,0,0.5,0.13,0.5,0.38c0,0.26-0.17,0.38-0.5,0.38H7.3v0.39H7.02V4.13H7.45z"/>
			</g>
		</g>
	</g>
</g>
</svg>
