<?xml version="1.0" encoding="utf-8"?>
<!-- Generator: Adobe Illustrator 27.3.1, SVG Export Plug-In . SVG Version: 6.00 Build 0)  -->
<svg version="1.1" id="Layer_1" xmlns="http://www.w3.org/2000/svg" xmlns:xlink="http://www.w3.org/1999/xlink" x="0px" y="0px"
	 viewBox="0 0 11.52 11.52" style="enable-background:new 0 0 11.52 11.52;" xml:space="preserve">
<style type="text/css">
	.st0{fill:#28A8E0;}
	.st1{fill-rule:evenodd;clip-rule:evenodd;fill:#FFFFFF;}
</style>
<g>
	<g>
		<g>
			<path class="st0" d="M11.52,5.76c0,3.18-2.58,5.76-5.76,5.76S0,8.94,0,5.76C0,2.58,2.58,0,5.76,0S11.52,2.58,11.52,5.76z"/>
		</g>
		<g>
			<path class="st1" d="M5.52,1.84h0.21c0.22,0.17-0.3,0.29-0.37,0.12C5.36,1.86,5.47,1.88,5.52,1.84"/>
			<path class="st1" d="M6.42,2.13c-0.14,0-0.24-0.04-0.35,0.02c0.2,0.13,0.49,0.14,0.73,0.23c0.21,0.08,0.49,0.17,0.51,0.44
				C7.1,2.77,6.91,2.63,6.68,2.55C6.33,2.42,6,2.45,5.52,2.4C5.39,2.39,5.27,2.32,5.14,2.32C4.9,2.32,4.71,2.54,4.51,2.42
				c0.09-0.43,0.72-0.25,1.14-0.31C5.9,2.07,6.33,1.74,6.42,2.13"/>
			<path class="st1" d="M6.96,2.33C6.82,2.37,6.65,2.28,6.55,2.2C6.59,1.99,6.99,2.14,6.96,2.33"/>
			<path class="st1" d="M8.14,4.62C7.98,4.47,7.93,4.29,7.81,4.12c-0.1-0.16-0.3-0.28-0.37-0.45C7.4,3.58,7.43,3.44,7.38,3.34
				C7.25,3.03,6.56,2.77,6.07,2.73c-0.4-0.03-0.66-0.03-1-0.1c0.13,0.24,0.58,0.18,0.94,0.2C6.58,2.87,7.2,3.08,7.28,3.53
				C6.86,3.35,6.51,3.06,5.97,3.02C5.79,3,5.6,3.04,5.42,3.02C5.26,3,5.12,2.88,4.97,2.87C4.4,2.83,4.13,3.51,3.6,3.5
				C3.56,3.26,3.88,3.19,4.07,3.08c0.22-0.13,0.51-0.39,0.78-0.55c0.21-0.12,0.44-0.04,0.7,0c0.19,0.03,0.39,0.01,0.59,0.02
				c0.45,0.03,1.19,0.3,1.41,0.61c0.09,0.13,0.07,0.27,0.12,0.41c0.04,0.1,0.14,0.14,0.22,0.24C8.06,4.01,8.22,4.31,8.14,4.62"/>
			<path class="st1" d="M4.47,2.55C4.4,2.79,4.15,2.94,3.94,2.94C4.01,2.71,4.2,2.5,4.47,2.55"/>
			<path class="st1" d="M5.1,3.07C4.79,3.27,4.46,3.36,4.25,3.64C4.18,3.72,4.17,3.83,4.1,3.91C3.97,4.06,3.76,4.14,3.61,4.3
				C3.46,4.45,3.39,4.66,3.18,4.75C3.12,4.46,3.37,4.26,3.57,4.07c0.11-0.1,0.28-0.15,0.37-0.25c0.1-0.1,0.14-0.29,0.25-0.41
				C4.37,3.21,4.86,2.88,5.1,3.07"/>
			<path class="st1" d="M8.44,6.13v0.43c-0.08,0.21-0.06,0.52-0.26,0.6C8.16,6.8,8.27,6.44,8.24,6.09c-0.06-0.79-0.59-1.68-1-2.11
				c-0.5-0.53-1.57-0.94-2.42-0.45c-0.18,0.1-0.26,0.35-0.51,0.31C4.38,3.56,4.66,3.41,4.89,3.3c0.35-0.17,0.87-0.24,1.28-0.14
				C7.44,3.46,8.26,4.71,8.44,6.13"/>
			<path class="st1" d="M2.96,5.83V5.67c0.18-0.6,0.63-1.33,1.12-1.57c0.13-0.06,0.27-0.08,0.39-0.14c0.17-0.09,0.3-0.23,0.43-0.31
				c0.27-0.15,0.6-0.22,1.06-0.21C6.5,3.46,6.98,3.82,7.27,4.16c0.44,0.51,0.86,1.26,0.86,2.11c0,0.24,0.04,0.53-0.18,0.7
				C7.83,6.7,7.91,6.44,7.9,6.2C7.86,5.45,7.5,4.82,7.14,4.39c-0.41-0.5-1.27-0.97-2.08-0.58C4.87,3.9,4.73,4.1,4.51,4.2
				C4.41,4.25,4.27,4.24,4.15,4.3C3.76,4.49,3.48,4.97,3.31,5.34C3.23,5.52,3.14,5.92,2.96,5.83"/>
			<path class="st1" d="M3.94,3.51C3.9,3.85,3.62,3.93,3.38,4.05C3.37,3.76,3.64,3.57,3.94,3.51"/>
			<path class="st1" d="M4.99,4.34c0.17,0.01,0.28-0.09,0.43-0.1C6.38,4.12,7.28,5,7.28,5.83c0,0.05-0.01,0.12-0.02,0.16
				C7.06,6.94,7.13,7.71,6.56,8.25c-0.21,0.2-0.47,0.24-0.77,0.35c-0.2,0.07-0.33,0.24-0.55,0.33C5.04,9,4.8,8.97,4.57,9.02
				C4.44,9.05,4.33,9.19,4.16,9.15C4.15,8.77,4.7,8.85,5.01,8.74C5.74,8.48,6.38,7.82,6.54,7c0.04-0.16-0.03-0.37,0.12-0.53
				c0.25,0.1,0.1,0.46,0.04,0.68C6.59,7.57,6.45,7.93,6.2,8.21c0.58-0.21,0.68-0.94,0.73-1.7c0.03-0.32,0.12-0.59,0.06-0.86
				C6.86,5.08,6.34,4.49,5.69,4.48c-0.41-0.01-0.73,0.16-1,0.37c-0.19,0.16-0.46,0.4-0.63,0.59c-0.18,0.21-0.3,0.63-0.45,0.94
				C3.48,6.64,3.4,6.98,3.12,7.1C3.03,6.81,3.28,6.53,3.42,6.24c0.13-0.27,0.21-0.6,0.37-0.86c0.14-0.23,0.4-0.43,0.59-0.63
				c0.38-0.4,0.53-0.86,1.2-0.92C5.7,3.82,5.94,3.8,5.95,3.93C5.97,4.1,5.58,4.06,5.42,4.09C5.24,4.13,5.07,4.19,4.99,4.34"/>
			<path class="st1" d="M7.57,6.97C7.42,6.78,7.59,6.45,7.55,6.19c-0.02-0.1-0.08-0.17-0.1-0.27C7.36,5.62,7.33,5.38,7.2,5.14
				C7.02,4.81,6.72,4.45,6.43,4.27C6.29,4.19,6.05,4.2,6.02,3.96C6.25,3.8,6.84,4.23,7.04,4.48c0.35,0.44,0.67,1.1,0.71,1.63
				C7.78,6.42,7.78,6.83,7.57,6.97"/>
			<path class="st1" d="M4.42,4.34c0.03,0.31-0.3,0.42-0.46,0.6C3.79,5.11,3.63,5.34,3.53,5.59c-0.13,0.32-0.17,0.7-0.46,0.9
				c-0.04-0.28,0.11-0.54,0.2-0.78C3.36,5.47,3.44,5.2,3.57,5c0.16-0.24,0.56-0.52,0.81-0.66H4.42z"/>
			<path class="st1" d="M6.68,6.37C6.66,5.6,6.42,4.93,5.73,4.9C5.38,4.89,5.01,5.06,4.79,5.28C4.73,5.33,4.71,5.4,4.65,5.46
				C4.53,5.57,4.28,5.64,4.32,5.85c0.43-0.22,1.04-1.2,1.81-0.68c0.49,0.33,0.36,1.7,0.1,2.27c-0.18,0.4-0.53,0.8-0.86,0.99
				C5.27,8.5,5.13,8.53,5.01,8.6C4.91,8.65,4.8,8.78,4.67,8.72c0.12-0.39,0.48-0.39,0.75-0.6c0.41-0.32,0.66-0.8,0.73-1.48
				C6.2,6.24,6.33,5.79,6.11,5.48C5.93,5.22,5.48,5.19,5.2,5.36C5.04,5.45,4.96,5.64,4.79,5.81C4.7,5.9,4.55,5.97,4.48,6.08
				C4.38,6.27,4.44,6.46,4.4,6.72C4.37,6.95,4.19,7.25,4.06,7.44C3.92,7.63,3.75,7.86,3.47,7.85c0.03-0.3,0.3-0.42,0.43-0.64
				c0.12-0.2,0.24-0.52,0.2-0.89c-0.03-0.24-0.11-0.45,0-0.68C4.2,5.43,4.51,5.21,4.73,5.03C5.38,4.5,6.36,4.55,6.75,5.38
				C6.85,5.6,6.99,6.28,6.68,6.37"/>
			<path class="st1" d="M6.03,5.7C5.9,5.65,5.77,5.59,5.6,5.58C5.51,5.23,6.18,5.43,6.03,5.7"/>
			<path class="st1" d="M5.54,5.5c0.01,0.13-0.14,0.11-0.21,0.17C5.22,5.89,4.98,6,4.83,6.19C4.72,6.32,4.73,6.53,4.56,6.62
				C4.38,6.27,4.79,5.96,4.99,5.73C5.11,5.59,5.3,5.26,5.54,5.5"/>
			<path class="st1" d="M3.89,8.77C3.95,8.61,4.09,8.6,4.24,8.5c0.21-0.15,0.38-0.43,0.59-0.56c0.1-0.06,0.22-0.06,0.33-0.12
				c0.35-0.2,0.65-0.73,0.67-1.15C5.83,6.59,5.8,6.51,5.81,6.44c0.01-0.21,0.11-0.5-0.14-0.54C5.43,5.87,5.37,6.09,5.32,6.28
				C4.79,6.73,4.57,7.73,3.95,8.13C3.87,8.18,3.74,8.24,3.62,8.21c0-0.26,0.23-0.28,0.39-0.41c0.4-0.35,0.48-1.01,0.84-1.44
				c0.07-0.08,0.18-0.13,0.27-0.23c0.1-0.11,0.15-0.26,0.24-0.33c0.28-0.2,0.69-0.03,0.71,0.27C6.08,6.2,6.02,6.35,6.01,6.46
				C6,6.61,6.02,6.75,6.01,6.89C5.96,7.3,5.72,7.7,5.44,7.92c-0.13,0.1-0.32,0.13-0.47,0.23C4.63,8.35,4.39,8.87,3.89,8.77"/>
			<path class="st1" d="M5.01,7.38c0.26-0.03,0.45-0.42,0.43-0.74c-0.03,0-0.03-0.03-0.06-0.02C5.27,6.89,5.12,7.11,5.01,7.38
				 M5.66,6.02c0.1,0.11,0,0.29-0.04,0.39c0.18,0.23-0.1,1-0.37,1.13C4.93,7.69,4.72,7.78,4.5,8.04C4.35,8.21,3.99,8.65,3.69,8.47
				c0.09-0.19,0.25-0.19,0.39-0.29c0.15-0.11,0.6-0.55,0.67-0.74C4.9,7.04,5.1,6.57,5.43,6.33C5.47,6.2,5.49,6.05,5.61,6.02H5.66z"
				/>
			<path class="st1" d="M7.38,6.11C7.53,6.27,7.45,6.8,7.26,6.87C7.25,6.64,7.18,6.2,7.38,6.11"/>
			<path class="st1" d="M3.9,6.2C4,6.5,3.89,6.79,3.76,7c-0.13,0.2-0.3,0.42-0.47,0.54c-0.1-0.55,0.44-0.79,0.52-1.3
				c0.01-0.03,0.04-0.03,0.04-0.06C3.88,6.18,3.88,6.2,3.9,6.2"/>
			<path class="st1" d="M7.33,7.06c0.08,0.34-0.1,0.7-0.24,0.97C6.94,8.3,6.76,8.59,6.49,8.73C6.22,8.88,5.88,8.86,5.64,9.1
				c0.3,0.07,0.57-0.18,0.79-0.18c-0.03,0.48-0.62,0.3-0.98,0.43C5.22,9.43,5.08,9.69,4.82,9.61c0.03-0.18,0.19-0.18,0.29-0.27
				c0.16-0.13,0.26-0.34,0.41-0.45c0.32-0.24,0.72-0.22,1-0.43c0.44-0.34,0.47-0.77,0.71-1.32c0.01-0.02,0.02-0.06,0.04-0.08H7.33z"
				/>
			<path class="st1" d="M8.01,7.12C8.1,7.48,7.89,7.9,7.67,8.11C7.58,8.2,7.43,8.22,7.32,8.32C7.09,8.52,6.94,9,6.55,8.89
				c0-0.2,0.16-0.2,0.26-0.29c0.27-0.24,0.5-0.72,0.61-1.12c0.04-0.12,0.03-0.32,0.18-0.37C7.8,7.34,7.5,7.71,7.44,7.94
				c0.29-0.08,0.3-0.62,0.51-0.85C7.97,7.11,7.99,7.12,8.01,7.12"/>
			<path class="st1" d="M7.88,8.08C7.91,8.34,7.62,8.44,7.49,8.6c0.06,0.06,0.09-0.08,0.18-0.04c0.01,0.16-0.12,0.19-0.18,0.29
				C6.96,8.93,6.72,9.41,6.21,9.44c0.08-0.2,0.31-0.28,0.47-0.38c0.17-0.1,0.39-0.21,0.53-0.36c0.2-0.2,0.32-0.5,0.61-0.63H7.88z"/>
			<path class="st1" d="M5.1,9.14c-0.07,0.2-0.5,0.4-0.69,0.22C4.46,9.12,4.91,9.09,5.1,9.14"/>
			<path class="st1" d="M5.59,9.66H5.39C5.2,9.47,5.75,9.31,5.92,9.45C5.89,9.6,5.72,9.6,5.59,9.66"/>
		</g>
	</g>
</g>
</svg>
