<?xml version="1.0" encoding="utf-8"?>
<!-- Generator: Adobe Illustrator 27.3.1, SVG Export Plug-In . SVG Version: 6.00 Build 0)  -->
<svg version="1.1" id="Layer_1" xmlns="http://www.w3.org/2000/svg" xmlns:xlink="http://www.w3.org/1999/xlink" x="0px" y="0px"
	 viewBox="0 0 11.52 11.52" style="enable-background:new 0 0 11.52 11.52;" xml:space="preserve">
<style type="text/css">
	.st0{fill:#28A8E0;}
	.st1{fill-rule:evenodd;clip-rule:evenodd;fill:#FFFFFF;}
</style>
<g>
	<g>
		<g>
			<path class="st0" d="M11.52,5.76c0,3.18-2.58,5.76-5.76,5.76S0,8.94,0,5.76C0,2.58,2.58,0,5.76,0S11.52,2.58,11.52,5.76z"/>
		</g>
	</g>
</g>
<g>
	<path class="st1" d="M2.49,7.55V3.92c0-0.13,0.1-0.23,0.23-0.23H7.8c0.13,0,0.23,0.1,0.23,0.23v0.99h0.38V2.67
		c0-0.19-0.15-0.34-0.34-0.34H2.42c-0.19,0-0.34,0.15-0.34,0.34v5.24c0,0.19,0.15,0.34,0.34,0.34h2.8V7.78H2.72
		C2.59,7.78,2.49,7.68,2.49,7.55z M4.33,2.72c0.14,0,0.25,0.11,0.25,0.25c0,0.14-0.11,0.25-0.25,0.25S4.08,3.11,4.08,2.97
		C4.08,2.83,4.19,2.72,4.33,2.72z M3.53,2.72c0.14,0,0.25,0.11,0.25,0.25c0,0.14-0.11,0.25-0.25,0.25c-0.14,0-0.25-0.11-0.25-0.25
		C3.28,2.83,3.39,2.72,3.53,2.72z M2.73,2.72c0.14,0,0.25,0.11,0.25,0.25c0,0.14-0.11,0.25-0.25,0.25c-0.14,0-0.25-0.11-0.25-0.25
		C2.47,2.83,2.59,2.72,2.73,2.72z"/>
	<path class="st1" d="M9.79,7.99L9.4,7.84C9.43,7.68,9.42,7.48,9.37,7.3l0.38-0.18c0.08-0.04,0.13-0.15,0.08-0.23L9.67,6.53
		C9.64,6.45,9.53,6.42,9.42,6.47L9.07,6.64C8.96,6.48,8.81,6.37,8.65,6.26l0.14-0.39c0.02-0.1-0.02-0.18-0.11-0.23L8.34,5.51
		C8.23,5.48,8.12,5.53,8.09,5.64L7.97,6.01C7.77,5.98,7.59,6.01,7.41,6.06L7.23,5.66C7.18,5.59,7.09,5.54,6.98,5.6L6.66,5.74
		c-0.1,0.05-0.14,0.16-0.1,0.24l0.18,0.38C6.59,6.47,6.48,6.61,6.37,6.78L5.98,6.64C5.9,6.6,5.79,6.65,5.75,6.74L5.63,7.09
		C5.59,7.2,5.64,7.31,5.74,7.32l0.38,0.14C6.11,7.64,6.12,7.84,6.15,8.01L5.78,8.2C5.69,8.24,5.66,8.35,5.71,8.45l0.14,0.33
		c0.05,0.1,0.16,0.13,0.27,0.09l0.35-0.18c0.11,0.15,0.25,0.27,0.4,0.36L6.76,9.45c-0.05,0.09,0,0.2,0.09,0.24L7.21,9.8
		C7.31,9.85,7.4,9.78,7.45,9.69l0.13-0.38c0.18,0.02,0.38,0.02,0.56-0.04l0.16,0.38c0.07,0.09,0.16,0.13,0.26,0.09l0.34-0.16
		c0.08-0.06,0.12-0.15,0.08-0.25L8.79,8.97c0.13-0.13,0.27-0.25,0.38-0.42l0.38,0.13c0.09,0.05,0.2,0,0.23-0.11L9.9,8.22
		C9.95,8.13,9.9,8.03,9.79,7.99z M8.25,8.68C7.7,8.94,7.03,8.72,6.75,8.15c-0.27-0.57-0.03-1.23,0.54-1.5
		c0.56-0.29,1.22-0.03,1.5,0.54C9.04,7.74,8.82,8.41,8.25,8.68z"/>
</g>
</svg>
