<?xml version="1.0" encoding="utf-8"?>
<!-- Generator: Adobe Illustrator 27.3.1, SVG Export Plug-In . SVG Version: 6.00 Build 0)  -->
<svg version="1.1" id="Layer_1" xmlns="http://www.w3.org/2000/svg" xmlns:xlink="http://www.w3.org/1999/xlink" x="0px" y="0px"
	 viewBox="0 0 11.52 11.52" style="enable-background:new 0 0 11.52 11.52;" xml:space="preserve">
<style type="text/css">
	.st0{fill:#28A8E0;}
	.st1{fill:#FFFFFF;}
</style>
<g>
	<g>
		<g>
			<path class="st0" d="M11.52,5.76c0,3.18-2.58,5.76-5.76,5.76S0,8.94,0,5.76C0,2.58,2.58,0,5.76,0S11.52,2.58,11.52,5.76z"/>
		</g>
		<g>
			<g>
				<g>
					<path class="st1" d="M5.67,10.7c-0.11,0-0.23-0.01-0.34-0.02l0.03-0.33c0.11,0.01,0.21,0.01,0.32,0.02L5.67,10.7z M6.01,10.69
						l-0.02-0.33c0.11-0.01,0.21-0.02,0.32-0.03l0.04,0.33C6.24,10.68,6.12,10.69,6.01,10.69z M4.99,10.64
						c-0.11-0.02-0.23-0.04-0.34-0.06l0.07-0.32c0.1,0.02,0.21,0.04,0.31,0.06L4.99,10.64z M6.69,10.61l-0.06-0.32
						c0.1-0.02,0.21-0.04,0.31-0.07l0.09,0.32C6.91,10.56,6.8,10.59,6.69,10.61z M4.32,10.49C4.21,10.45,4.1,10.42,4,10.38
						l0.12-0.31c0.1,0.04,0.2,0.07,0.3,0.1L4.32,10.49z M7.35,10.43l-0.11-0.31c0.1-0.03,0.2-0.07,0.3-0.12l0.13,0.3
						C7.56,10.35,7.46,10.39,7.35,10.43z M3.68,10.24c-0.1-0.05-0.21-0.1-0.31-0.16L3.54,9.8c0.09,0.05,0.19,0.1,0.28,0.15
						L3.68,10.24z M7.98,10.16L7.83,9.87c0.09-0.05,0.19-0.1,0.28-0.16l0.17,0.28C8.18,10.05,8.08,10.11,7.98,10.16z M3.08,9.91
						c-0.1-0.06-0.19-0.13-0.28-0.2L3,9.45c0.08,0.06,0.17,0.13,0.26,0.18L3.08,9.91z M8.56,9.81L8.37,9.54
						c0.09-0.06,0.17-0.13,0.25-0.19L8.83,9.6C8.75,9.67,8.65,9.74,8.56,9.81z M2.54,9.5C2.45,9.42,2.37,9.34,2.29,9.26l0.23-0.23
						C2.59,9.1,2.67,9.18,2.75,9.25L2.54,9.5z M9.09,9.37L8.87,9.13c0.08-0.07,0.15-0.15,0.23-0.23l0.24,0.23
						C9.26,9.22,9.17,9.3,9.09,9.37z M2.05,9.01C1.98,8.93,1.91,8.84,1.84,8.75l0.26-0.2C2.17,8.63,2.23,8.72,2.3,8.8L2.05,9.01z
						 M9.56,8.87L9.3,8.67C9.37,8.58,9.43,8.5,9.49,8.41L9.76,8.6C9.7,8.69,9.63,8.79,9.56,8.87z M1.64,8.47
						c-0.06-0.1-0.12-0.19-0.18-0.29l0.29-0.16C1.8,8.11,1.86,8.2,1.92,8.29L1.64,8.47z M9.95,8.31L9.67,8.14
						c0.05-0.09,0.11-0.18,0.15-0.28l0.29,0.15C10.06,8.12,10.01,8.22,9.95,8.31z M1.31,7.87c-0.05-0.1-0.09-0.21-0.13-0.31
						l0.31-0.12c0.04,0.1,0.08,0.2,0.13,0.29L1.31,7.87z M10.26,7.7l-0.3-0.13c0.04-0.1,0.08-0.2,0.11-0.3l0.31,0.11
						C10.35,7.49,10.3,7.6,10.26,7.7z M1.06,7.23C1.03,7.13,1,7.01,0.97,6.9l0.32-0.08c0.02,0.1,0.05,0.21,0.08,0.31L1.06,7.23z
						 M10.48,7.06l-0.32-0.09c0.03-0.1,0.05-0.21,0.07-0.31l0.32,0.06C10.54,6.83,10.51,6.95,10.48,7.06z M0.9,6.57
						C0.89,6.46,0.87,6.34,0.86,6.23L1.19,6.2C1.2,6.3,1.21,6.41,1.23,6.51L0.9,6.57z M10.61,6.39l-0.33-0.04
						c0.01-0.1,0.02-0.21,0.03-0.32l0.33,0.02C10.64,6.16,10.63,6.27,10.61,6.39z M0.84,5.89c0-0.04,0-0.08,0-0.12
						c0-0.11,0-0.23,0.01-0.34l0.33,0.02C1.17,5.55,1.17,5.66,1.17,5.76c0,0.04,0,0.08,0,0.11L0.84,5.89z M10.32,5.71
						c0-0.11-0.01-0.21-0.01-0.32l0.33-0.03c0.01,0.11,0.01,0.23,0.02,0.34L10.32,5.71z M1.21,5.13L0.89,5.08
						C0.9,4.97,0.92,4.86,0.94,4.75l0.32,0.07C1.25,4.92,1.23,5.02,1.21,5.13z M10.27,5.07c-0.02-0.1-0.04-0.21-0.06-0.31l0.32-0.07
						c0.02,0.11,0.05,0.22,0.06,0.34L10.27,5.07z M1.34,4.5L1.03,4.41C1.06,4.3,1.09,4.2,1.13,4.09L1.44,4.2
						C1.41,4.3,1.37,4.4,1.34,4.5z M10.13,4.45c-0.03-0.1-0.06-0.2-0.1-0.3l0.31-0.12c0.04,0.11,0.08,0.22,0.11,0.32L10.13,4.45z
						 M1.56,3.9l-0.3-0.13c0.05-0.1,0.1-0.21,0.15-0.31L1.7,3.62C1.65,3.71,1.6,3.81,1.56,3.9z M9.91,3.85
						c-0.04-0.1-0.09-0.19-0.14-0.29l0.29-0.16c0.05,0.1,0.11,0.2,0.15,0.31L9.91,3.85z M1.86,3.34L1.58,3.16
						c0.06-0.1,0.12-0.19,0.19-0.28l0.27,0.19C1.97,3.16,1.91,3.25,1.86,3.34z M9.61,3.29C9.55,3.2,9.49,3.11,9.43,3.03l0.27-0.2
						c0.07,0.09,0.13,0.19,0.19,0.28L9.61,3.29z M2.23,2.82L1.98,2.61C2.05,2.52,2.12,2.43,2.2,2.35l0.24,0.23
						C2.37,2.66,2.3,2.74,2.23,2.82z M9.23,2.78C9.16,2.7,9.09,2.62,9.01,2.54l0.24-0.23c0.08,0.08,0.16,0.17,0.23,0.25L9.23,2.78z
						 M2.67,2.36L2.45,2.11c0.08-0.08,0.17-0.15,0.26-0.22l0.21,0.26C2.83,2.22,2.75,2.29,2.67,2.36z M8.78,2.32
						C8.7,2.25,8.62,2.18,8.54,2.12l0.2-0.26C8.83,1.92,8.92,2,9,2.07L8.78,2.32z M3.17,1.96L2.98,1.69
						C3.08,1.62,3.17,1.56,3.27,1.5l0.17,0.29C3.35,1.84,3.26,1.9,3.17,1.96z M8.28,1.93C8.19,1.87,8.1,1.81,8.01,1.76l0.16-0.29
						c0.1,0.06,0.2,0.12,0.29,0.18L8.28,1.93z M3.72,1.64l-0.15-0.3c0.1-0.05,0.21-0.1,0.31-0.14l0.13,0.31
						C3.91,1.55,3.81,1.59,3.72,1.64z M7.72,1.61c-0.1-0.05-0.19-0.09-0.29-0.13l0.12-0.31c0.11,0.04,0.21,0.09,0.31,0.14L7.72,1.61
						z M4.31,1.39L4.2,1.08c0.11-0.04,0.22-0.07,0.33-0.1L4.61,1.3C4.51,1.33,4.41,1.36,4.31,1.39z M7.13,1.38
						c-0.1-0.03-0.2-0.06-0.31-0.09L6.9,0.97C7.01,1,7.12,1.03,7.23,1.06L7.13,1.38z M4.92,1.24L4.87,0.91
						C4.98,0.89,5.09,0.87,5.2,0.86l0.04,0.33C5.13,1.2,5.03,1.22,4.92,1.24z M6.51,1.23C6.41,1.21,6.3,1.19,6.2,1.18l0.03-0.33
						C6.34,0.87,6.46,0.88,6.57,0.9L6.51,1.23z M5.56,1.17L5.54,0.83c0.11,0,0.23-0.01,0.34,0L5.88,1.16
						C5.77,1.16,5.66,1.16,5.56,1.17z"/>
				</g>
			</g>
			<circle class="st1" cx="5.77" cy="5.75" r="2"/>
		</g>
	</g>
</g>
</svg>
