<?xml version="1.0" encoding="utf-8"?>
<!-- Generator: Adobe Illustrator 27.3.1, SVG Export Plug-In . SVG Version: 6.00 Build 0)  -->
<svg version="1.1" id="Layer_1" xmlns="http://www.w3.org/2000/svg" xmlns:xlink="http://www.w3.org/1999/xlink" x="0px" y="0px"
	 viewBox="0 0 11.52 11.52" style="enable-background:new 0 0 11.52 11.52;" xml:space="preserve">
<style type="text/css">
	.st0{fill:#28A8E0;}
	.st1{fill:#FFFFFF;}
	.st2{fill-rule:evenodd;clip-rule:evenodd;fill:#FFFFFF;}
</style>
<g>
	<g>
		<g>
			<path class="st0" d="M11.52,5.76c0,3.18-2.58,5.76-5.76,5.76S0,8.94,0,5.76C0,2.58,2.58,0,5.76,0S11.52,2.58,11.52,5.76z"/>
		</g>
		<g>
			<g>
				<g>
					<path class="st1" d="M5.7,10.67c-0.11,0-0.23-0.01-0.34-0.02l0.03-0.33c0.11,0.01,0.21,0.01,0.32,0.02L5.7,10.67z M6.04,10.67
						l-0.02-0.33c0.11-0.01,0.21-0.02,0.32-0.03l0.04,0.33C6.27,10.65,6.16,10.66,6.04,10.67z M5.02,10.61
						c-0.11-0.02-0.23-0.04-0.34-0.06l0.07-0.32c0.1,0.02,0.21,0.04,0.31,0.06L5.02,10.61z M6.72,10.58l-0.06-0.32
						c0.1-0.02,0.21-0.04,0.31-0.07l0.09,0.32C6.94,10.53,6.83,10.56,6.72,10.58z M4.35,10.46c-0.11-0.03-0.22-0.07-0.32-0.11
						l0.12-0.31c0.1,0.04,0.2,0.07,0.3,0.1L4.35,10.46z M7.38,10.4l-0.11-0.31c0.1-0.03,0.2-0.07,0.3-0.12l0.13,0.3
						C7.6,10.33,7.49,10.37,7.38,10.4z M3.71,10.22c-0.1-0.05-0.21-0.1-0.31-0.16l0.16-0.29c0.09,0.05,0.19,0.1,0.28,0.15
						L3.71,10.22z M8.01,10.13L7.86,9.84c0.09-0.05,0.19-0.1,0.28-0.16l0.17,0.28C8.21,10.03,8.11,10.08,8.01,10.13z M3.11,9.88
						c-0.1-0.06-0.19-0.13-0.28-0.2l0.2-0.26C3.12,9.49,3.21,9.55,3.3,9.61L3.11,9.88z M8.59,9.78L8.4,9.51
						c0.09-0.06,0.17-0.13,0.25-0.19l0.21,0.26C8.78,9.65,8.69,9.72,8.59,9.78z M2.57,9.47C2.48,9.4,2.4,9.32,2.32,9.24L2.55,9
						c0.07,0.07,0.15,0.15,0.23,0.22L2.57,9.47z M9.12,9.35L8.9,9.11c0.08-0.07,0.15-0.15,0.23-0.23l0.24,0.23
						C9.29,9.19,9.21,9.27,9.12,9.35z M2.09,8.99C2.01,8.9,1.94,8.81,1.87,8.72l0.26-0.2c0.06,0.08,0.13,0.17,0.2,0.25L2.09,8.99z
						 M9.59,8.85L9.33,8.64C9.4,8.56,9.46,8.47,9.52,8.38L9.8,8.57C9.73,8.67,9.66,8.76,9.59,8.85z M1.67,8.44
						C1.61,8.35,1.55,8.25,1.5,8.15l0.29-0.16c0.05,0.09,0.11,0.18,0.16,0.27L1.67,8.44z M9.98,8.29L9.7,8.12
						C9.75,8.03,9.8,7.93,9.85,7.84l0.29,0.15C10.1,8.09,10.04,8.19,9.98,8.29z M1.34,7.84c-0.05-0.1-0.09-0.21-0.13-0.31l0.31-0.12
						c0.04,0.1,0.08,0.2,0.13,0.29L1.34,7.84z M10.29,7.68l-0.3-0.13c0.04-0.1,0.08-0.2,0.11-0.3l0.31,0.11
						C10.38,7.46,10.34,7.57,10.29,7.68z M1.09,7.21C1.06,7.1,1.03,6.99,1,6.88L1.33,6.8c0.02,0.1,0.05,0.21,0.08,0.31L1.09,7.21z
						 M10.52,7.03L10.2,6.94c0.03-0.1,0.05-0.21,0.07-0.31l0.32,0.06C10.57,6.81,10.55,6.92,10.52,7.03z M0.94,6.54
						C0.92,6.43,0.9,6.32,0.89,6.2l0.33-0.03c0.01,0.11,0.02,0.21,0.04,0.32L0.94,6.54z M10.65,6.36l-0.33-0.04
						c0.01-0.1,0.02-0.21,0.03-0.32l0.33,0.02C10.67,6.13,10.66,6.25,10.65,6.36z M0.87,5.86c0-0.04,0-0.08,0-0.12
						c0-0.11,0-0.23,0.01-0.34l0.33,0.02C1.21,5.53,1.2,5.63,1.2,5.74c0,0.04,0,0.08,0,0.11L0.87,5.86z M10.35,5.68
						c0-0.11-0.01-0.21-0.01-0.32l0.33-0.03c0.01,0.11,0.01,0.23,0.02,0.34L10.35,5.68z M1.25,5.1L0.92,5.06
						c0.02-0.11,0.04-0.23,0.06-0.34L1.3,4.79C1.28,4.89,1.26,5,1.25,5.1z M10.3,5.05c-0.02-0.1-0.04-0.21-0.06-0.31l0.32-0.07
						c0.02,0.11,0.05,0.22,0.06,0.34L10.3,5.05z M1.38,4.48L1.06,4.39c0.03-0.11,0.07-0.22,0.1-0.33l0.31,0.11
						C1.44,4.27,1.41,4.38,1.38,4.48z M10.17,4.42c-0.03-0.1-0.06-0.2-0.1-0.3L10.37,4c0.04,0.11,0.08,0.22,0.11,0.32L10.17,4.42z
						 M1.59,3.88l-0.3-0.13c0.05-0.1,0.1-0.21,0.15-0.31l0.29,0.15C1.68,3.68,1.64,3.78,1.59,3.88z M9.94,3.83
						C9.9,3.73,9.85,3.63,9.8,3.54l0.29-0.16c0.05,0.1,0.11,0.2,0.15,0.31L9.94,3.83z M1.89,3.31L1.61,3.14
						c0.06-0.1,0.12-0.19,0.19-0.28l0.27,0.19C2.01,3.13,1.95,3.22,1.89,3.31z M9.64,3.26C9.58,3.18,9.52,3.09,9.46,3l0.27-0.2
						C9.79,2.9,9.86,2.99,9.92,3.09L9.64,3.26z M2.26,2.79L2.01,2.58c0.07-0.09,0.15-0.17,0.23-0.26l0.24,0.23
						C2.4,2.63,2.33,2.71,2.26,2.79z M9.26,2.75C9.19,2.67,9.12,2.59,9.05,2.52l0.24-0.23c0.08,0.08,0.16,0.17,0.23,0.25L9.26,2.75z
						 M2.7,2.33L2.48,2.09c0.08-0.08,0.17-0.15,0.26-0.22l0.21,0.26C2.86,2.19,2.78,2.26,2.7,2.33z M8.82,2.29
						c-0.08-0.07-0.16-0.14-0.25-0.2l0.2-0.26C8.86,1.9,8.95,1.97,9.04,2.05L8.82,2.29z M3.2,1.93L3.01,1.66
						C3.11,1.6,3.21,1.54,3.3,1.48l0.17,0.29C3.38,1.82,3.29,1.87,3.2,1.93z M8.31,1.9C8.22,1.84,8.13,1.79,8.04,1.74L8.2,1.45
						C8.3,1.5,8.4,1.57,8.49,1.63L8.31,1.9z M3.75,1.61L3.6,1.31c0.1-0.05,0.21-0.1,0.31-0.14l0.13,0.31
						C3.94,1.52,3.85,1.56,3.75,1.61z M7.76,1.59C7.66,1.54,7.56,1.5,7.46,1.46l0.12-0.31C7.69,1.19,7.8,1.24,7.9,1.29L7.76,1.59z
						 M4.34,1.37l-0.1-0.31c0.11-0.04,0.22-0.07,0.33-0.1l0.08,0.32C4.54,1.3,4.44,1.33,4.34,1.37z M7.16,1.35
						c-0.1-0.03-0.2-0.06-0.31-0.09l0.08-0.32C7.05,0.97,7.16,1,7.26,1.03L7.16,1.35z M4.96,1.21L4.9,0.88
						c0.11-0.02,0.23-0.04,0.34-0.05l0.04,0.33C5.17,1.17,5.06,1.19,4.96,1.21z M6.54,1.2c-0.1-0.02-0.21-0.03-0.32-0.04l0.03-0.33
						C6.37,0.84,6.49,0.85,6.6,0.87L6.54,1.2z M5.59,1.14L5.58,0.81c0.11,0,0.23-0.01,0.34,0L5.91,1.14C5.8,1.13,5.7,1.13,5.59,1.14
						z"/>
				</g>
			</g>
			<g>
				<rect x="2.25" y="3.51" class="st2" width="2.15" height="0.47"/>
				<rect x="4.71" y="3.51" class="st2" width="2.15" height="0.47"/>
				<rect x="7.14" y="3.51" class="st2" width="2.15" height="0.47"/>
				<rect x="3.48" y="4.29" class="st2" width="2.15" height="0.48"/>
				<rect x="5.91" y="4.29" class="st2" width="2.15" height="0.48"/>
				<rect x="2.25" y="4.29" class="st2" width="0.91" height="0.48"/>
				<rect x="8.37" y="4.29" class="st2" width="0.91" height="0.48"/>
				<rect x="2.25" y="5.05" class="st2" width="2.15" height="0.49"/>
				<rect x="4.71" y="5.05" class="st2" width="2.15" height="0.49"/>
				<rect x="7.14" y="5.05" class="st2" width="2.15" height="0.49"/>
				<rect x="3.48" y="5.84" class="st2" width="2.15" height="0.47"/>
				<rect x="5.91" y="5.84" class="st2" width="2.15" height="0.47"/>
				<rect x="2.25" y="5.84" class="st2" width="0.91" height="0.47"/>
				<rect x="8.37" y="5.84" class="st2" width="0.91" height="0.47"/>
				<rect x="2.25" y="6.61" class="st2" width="2.15" height="0.47"/>
				<rect x="4.71" y="6.61" class="st2" width="2.15" height="0.47"/>
				<rect x="7.14" y="6.61" class="st2" width="2.15" height="0.47"/>
				<rect x="3.48" y="7.39" class="st2" width="2.15" height="0.48"/>
				<rect x="5.91" y="7.39" class="st2" width="2.15" height="0.48"/>
				<rect x="2.25" y="7.39" class="st2" width="0.91" height="0.48"/>
				<rect x="8.37" y="7.39" class="st2" width="0.91" height="0.48"/>
			</g>
		</g>
	</g>
</g>
</svg>
