<?xml version="1.0" encoding="utf-8"?>
<!-- Generator: Adobe Illustrator 27.3.1, SVG Export Plug-In . SVG Version: 6.00 Build 0)  -->
<svg version="1.1" id="Layer_1" xmlns="http://www.w3.org/2000/svg" xmlns:xlink="http://www.w3.org/1999/xlink" x="0px" y="0px"
	 viewBox="0 0 11.52 11.52" style="enable-background:new 0 0 11.52 11.52;" xml:space="preserve">
<style type="text/css">
	.st0{fill:#28A8E0;}
	.st1{fill-rule:evenodd;clip-rule:evenodd;fill:#FFFFFF;}
</style>
<g>
	<path class="st0" d="M11.52,5.76c0,3.18-2.58,5.76-5.76,5.76S0,8.94,0,5.76C0,2.58,2.58,0,5.76,0S11.52,2.58,11.52,5.76z"/>
</g>
<g>
	<g>
		<path class="st1" d="M3.23,3.77h5.85V3.24c0-0.15-0.13-0.27-0.29-0.27H7.19C7.12,2.97,7.05,2.99,7,3.03l-0.44,0.4
			C6.52,3.47,6.44,3.49,6.37,3.49H2.02c-0.16,0-0.31,0.13-0.31,0.31v4.39l1.01-4.04C2.78,3.93,3,3.77,3.23,3.77z"/>
		<path class="st1" d="M7.23,7.38c-0.11,0-0.2,0.09-0.2,0.25c0,0.21,0.09,0.27,0.2,0.27c0.11,0,0.2-0.09,0.2-0.27
			C7.42,7.45,7.35,7.38,7.23,7.38z"/>
		<path class="st1" d="M6.19,7.38c-0.11,0-0.2,0.09-0.2,0.25c0,0.21,0.08,0.27,0.19,0.27c0.12,0,0.2-0.09,0.2-0.27
			C6.38,7.45,6.3,7.38,6.19,7.38z"/>
		<polygon class="st1" points="4.91,7.62 5.22,7.62 5.08,7.11 		"/>
		<path class="st1" d="M6.09,5.01c-0.37,0-0.68,0.31-0.68,0.68c0,0.37,0.31,0.68,0.68,0.68c0.37,0,0.68-0.31,0.68-0.68
			C6.77,5.31,6.46,5.01,6.09,5.01z M6.09,5.98c-0.16,0-0.3-0.13-0.3-0.3c0-0.16,0.13-0.3,0.3-0.3c0.16,0,0.3,0.13,0.3,0.3
			C6.39,5.85,6.25,5.98,6.09,5.98z"/>
	</g>
	<g>
		<g>
			<path class="st1" d="M10.24,4.31L10.24,4.31c0.01-0.03,0.01-0.06-0.01-0.08c-0.02-0.03-0.06-0.04-0.1-0.04H3.39
				c-0.1,0-0.22,0.09-0.24,0.18l0,0l0,0L2.07,8.65l0,0l0,0C2.06,8.69,2.07,8.71,2.08,8.73C2.1,8.76,2.14,8.77,2.18,8.77h6.75
				c0.1,0,0.22-0.09,0.24-0.18l0,0l0,0L10.24,4.31L10.24,4.31z M5.37,8.07L5.28,7.8H4.86L4.78,8.07H4.51l0.42-1.18h0.31l0.42,1.18
				H5.37z M6.23,8.09c-0.1,0-0.18-0.03-0.23-0.1v0.36H5.74V7.21h0.2l0.04,0.1c0.07-0.07,0.15-0.12,0.27-0.12
				c0.23,0,0.38,0.15,0.38,0.44C6.64,7.92,6.46,8.09,6.23,8.09z M7.27,8.09c-0.09,0-0.18-0.03-0.23-0.1v0.36H6.78V7.21h0.19
				l0.05,0.1c0.05-0.07,0.15-0.12,0.26-0.12c0.23,0,0.38,0.15,0.38,0.44C7.67,7.92,7.5,8.09,7.27,8.09z M4.36,5.68
				c0.96-1.3,2.5-1.3,3.45,0C6.86,6.98,5.32,6.98,4.36,5.68z"/>
		</g>
	</g>
</g>
</svg>
