<?xml version="1.0" encoding="utf-8"?>
<!-- Generator: Adobe Illustrator 27.3.1, SVG Export Plug-In . SVG Version: 6.00 Build 0)  -->
<svg version="1.1" id="Layer_1" xmlns="http://www.w3.org/2000/svg" xmlns:xlink="http://www.w3.org/1999/xlink" x="0px" y="0px"
	 viewBox="0 0 11.52 11.52" style="enable-background:new 0 0 11.52 11.52;" xml:space="preserve">
<style type="text/css">
	.st0{fill:#28A8E0;}
	.st1{fill-rule:evenodd;clip-rule:evenodd;fill:#FFFFFF;}
</style>
<g>
	<g>
		<g>
			<path class="st0" d="M11.52,5.76c0,3.18-2.58,5.76-5.76,5.76S0,8.94,0,5.76C0,2.58,2.58,0,5.76,0S11.52,2.58,11.52,5.76z"/>
		</g>
	</g>
</g>
<g>
	<path class="st1" d="M9.34,8.18H9.28V5.57c0-0.27-0.22-0.49-0.49-0.49H7.05C6.74,4.61,6.3,4.26,5.78,4.06
		C6.15,3.75,6.37,3.29,6.37,2.8c0-0.9-0.73-1.64-1.63-1.64C3.84,1.17,3.1,1.9,3.1,2.8c0,0.49,0.21,0.94,0.58,1.25
		c-1.11,0.43-1.8,1.52-1.8,2.87v0.95H4v0.3H3.94c-0.24,0-0.44,0.2-0.44,0.44c0,0.24,0.2,0.44,0.44,0.44h5.41
		c0.24,0,0.44-0.2,0.44-0.44C9.78,8.38,9.58,8.18,9.34,8.18z M3.47,2.8c0-0.7,0.57-1.26,1.27-1.26C5.44,1.54,6,2.11,6,2.8
		c0,0.7-0.57,1.26-1.26,1.26C4.04,4.07,3.47,3.5,3.47,2.8z M2.25,7.5V6.93c0-1.32,0.72-2.35,1.84-2.62c0.4,0.17,0.87,0.17,1.27,0.01
		c0.48,0.12,0.9,0.38,1.22,0.76H4.49C4.22,5.08,4,5.3,4,5.57V7.5H2.25z M4.39,5.57c0-0.06,0.05-0.11,0.11-0.11h4.29
		c0.06,0,0.11,0.05,0.11,0.11v2.61h-4.5V5.57z"/>
	<path class="st1" d="M7.21,6.3c-0.24,0-0.45,0.15-0.54,0.36H5.63L5.46,6.88L5.63,7.1h0.21l0.08,0.08l0.08,0.07l0.08-0.07L6.15,7.1
		l0.08,0.08l0.08,0.07l0.08-0.07L6.46,7.1h0.21c0.09,0.21,0.29,0.36,0.54,0.36c0.32,0,0.58-0.26,0.58-0.58
		C7.79,6.56,7.53,6.3,7.21,6.3z M7.48,7.04c-0.09,0-0.16-0.07-0.16-0.16c0-0.09,0.07-0.16,0.16-0.16c0.09,0,0.16,0.07,0.16,0.16
		C7.64,6.97,7.57,7.04,7.48,7.04z"/>
</g>
</svg>
