<?xml version="1.0" encoding="utf-8"?>
<!-- Generator: Adobe Illustrator 27.3.1, SVG Export Plug-In . SVG Version: 6.00 Build 0)  -->
<svg version="1.1" id="Layer_1" xmlns="http://www.w3.org/2000/svg" xmlns:xlink="http://www.w3.org/1999/xlink" x="0px" y="0px"
	 viewBox="0 0 11.52 11.52" style="enable-background:new 0 0 11.52 11.52;" xml:space="preserve">
<style type="text/css">
	.st0{fill:#28A8E0;}
	.st1{fill-rule:evenodd;clip-rule:evenodd;fill:#FFFFFF;}
</style>
<g>
	<g>
		<g>
			<path class="st0" d="M11.52,5.76c0,3.18-2.58,5.76-5.76,5.76S0,8.94,0,5.76C0,2.58,2.58,0,5.76,0S11.52,2.58,11.52,5.76z"/>
		</g>
		<g>
			<path class="st1" d="M7.96,4.6v2.23V7.1H7.68H6.15H5.86V6.82V4.6V4.31h0.28h1.53h0.28V4.6z M5.64,4.6v2.23V7.1H5.36H3.82H3.54
				V6.82V4.6V4.31h0.27h1.54h0.28V4.6z M9.48,2.77h-1.6c-0.07,0-0.13,0.03-0.19,0.08L7.26,3.23C7.22,3.27,7.15,3.3,7.08,3.3H2.01
				c-0.15,0-0.28,0.12-0.28,0.27v4.28c0,0.15,0.13,0.29,0.28,0.29h7.47c0.15,0,0.28-0.13,0.28-0.29v-4.8
				C9.77,2.9,9.63,2.77,9.48,2.77"/>
			<path class="st1" d="M4.94,5.63c0,0.03-0.01,0.07-0.03,0.08H4.86c-0.04,0-0.08,0.03-0.08,0.08v0.15c-0.11,0.05-0.27,0.05-0.37,0
				V5.78c0-0.04-0.03-0.08-0.08-0.08H4.27C4.25,5.69,4.23,5.66,4.23,5.63V5.48c0-0.02,0.01-0.04,0.02-0.07
				c0.1,0.01,0.21,0.02,0.33,0.02h0.01c0.12,0,0.24-0.01,0.34-0.02c0.01,0.02,0.01,0.04,0.01,0.07V5.63z M4.99,5.2L4.88,4.83
				c0-0.01-0.01-0.03-0.03-0.03h-0.5c-0.02,0-0.03,0.02-0.04,0.03L4.19,5.2c-0.2,0.02-0.34,0.08-0.34,0.12
				c0,0.03,0.12,0.07,0.29,0.09c-0.02,0.04-0.03,0.1-0.03,0.15c0,0.04,0.01,0.1,0.03,0.14H4.13c-0.04,0-0.08,0.03-0.08,0.08v0.09
				C3.98,5.87,3.94,5.93,3.94,6v0.47c0,0.08,0.05,0.14,0.12,0.14h0.5V6h0.05v0.61h0.5c0.07,0,0.12-0.07,0.12-0.14V6
				c0-0.07-0.04-0.13-0.1-0.13V5.78c0-0.04-0.04-0.08-0.08-0.08H5.04c0.01-0.04,0.02-0.1,0.02-0.14c0-0.05-0.01-0.11-0.02-0.15
				c0.17-0.02,0.28-0.05,0.28-0.09C5.33,5.28,5.19,5.22,4.99,5.2"/>
			<path class="st1" d="M4.49,5.48H4.35H4.34c-0.01,0-0.01,0-0.01,0.01v0.11c0,0.03,0.02,0.06,0.07,0.06h0.08
				c0.03,0,0.07-0.02,0.07-0.06V5.54C4.54,5.5,4.54,5.48,4.49,5.48"/>
			<path class="st1" d="M4.87,5.48H4.85H4.7c-0.04,0-0.04,0.01-0.04,0.06v0.07c0.01,0.03,0.03,0.06,0.07,0.06h0.09
				c0.03,0,0.07-0.02,0.07-0.06V5.5C4.88,5.48,4.87,5.48,4.87,5.48"/>
			<rect x="6.15" y="4.79" class="st1" width="1.52" height="0.2"/>
			<rect x="6.15" y="5.27" class="st1" width="1.26" height="0.19"/>
			<rect x="6.15" y="5.75" class="st1" width="1.52" height="0.2"/>
			<rect x="6.15" y="6.22" class="st1" width="1.26" height="0.19"/>
		</g>
	</g>
</g>
</svg>
