<?xml version="1.0" encoding="utf-8"?>
<!-- Generator: Adobe Illustrator 27.3.1, SVG Export Plug-In . SVG Version: 6.00 Build 0)  -->
<svg version="1.1" id="Layer_1" xmlns="http://www.w3.org/2000/svg" xmlns:xlink="http://www.w3.org/1999/xlink" x="0px" y="0px"
	 viewBox="0 0 11.52 11.52" style="enable-background:new 0 0 11.52 11.52;" xml:space="preserve">
<style type="text/css">
	.st0{fill:#28A8E0;}
	.st1{fill-rule:evenodd;clip-rule:evenodd;fill:#FFFFFF;}
</style>
<g>
	<path class="st0" d="M11.52,5.76c0,3.18-2.58,5.76-5.76,5.76S0,8.94,0,5.76C0,2.58,2.58,0,5.76,0S11.52,2.58,11.52,5.76z"/>
</g>
<g>
	<path class="st1" d="M10.42,4.07c-0.2-0.47-0.48-0.89-0.84-1.25S8.8,2.18,8.33,1.98c-0.48-0.2-1-0.31-1.53-0.31
		s-1.04,0.1-1.53,0.31c-0.47,0.2-0.89,0.48-1.25,0.84S3.39,3.6,3.19,4.07c0,0.01-0.01,0.02-0.01,0.03h0.11h0.25h0.12
		c0.17-0.36,0.4-0.68,0.68-0.97c0.09-0.09,0.18-0.17,0.27-0.25c0,0.01,0,0.01,0,0.02c0,0.05-0.03,0.07,0,0.09
		c0.02,0.03,0.08-0.03,0.1,0.01C4.75,3.04,4.7,3.06,4.69,3.1C4.68,3.14,4.7,3.18,4.7,3.21c0,0.02,0,0.07-0.01,0.08
		C4.68,3.32,4.63,3.32,4.63,3.35c0,0.05,0.07,0.08,0.08,0.11c0,0.03-0.02,0.08-0.03,0.1C4.65,3.64,4.6,3.69,4.55,3.75
		C4.51,3.8,4.45,3.85,4.42,3.9C4.41,3.93,4.39,3.97,4.38,3.99C4.36,4.03,4.33,4.05,4.3,4.09V4.1h0.68h0.32h2.06v0.43
		C7.43,4.5,7.48,4.48,7.53,4.44c0.02-0.06,0-0.13,0-0.18c0.02-0.01,0.05,0.01,0.07,0c0.03,0,0.03-0.06,0.06-0.08
		C7.67,4.17,7.7,4.17,7.71,4.15C7.76,4.13,7.77,4.08,7.8,4.07c0.01,0,0.03,0,0.06-0.01c0.02,0,0.06-0.03,0.09-0.05
		C7.99,4,8.04,4,8.05,3.99c0.01-0.01,0-0.05,0-0.07c0.02-0.09,0.16-0.1,0.24-0.14c0.06-0.02,0.11-0.07,0.18-0.05
		C8.46,3.77,8.41,3.76,8.42,3.82c0.01,0.07,0.1-0.02,0.14-0.03C8.6,3.76,8.69,3.75,8.75,3.73C8.81,3.7,8.91,3.67,8.86,3.6
		c-0.05,0-0.07,0.06-0.11,0.08c-0.02,0-0.02-0.02-0.05-0.03c-0.02,0-0.03,0.02-0.06,0.02C8.62,3.66,8.6,3.62,8.59,3.6
		c0-0.07,0.06-0.09,0.09-0.15C8.66,3.4,8.58,3.44,8.52,3.42c0.01-0.03,0.05-0.07,0.09-0.07c0.03-0.01,0.11,0,0.14,0.01
		c0.01,0.01,0,0.03,0.01,0.06c0.02,0.02,0.05,0.01,0.08,0.01C8.85,3.39,8.78,3.4,8.78,3.36c0.06-0.03,0.15,0,0.22-0.01
		c0.03-0.01,0.08-0.03,0.11-0.06c0.03-0.01,0.08-0.05,0.11-0.02c0,0.03-0.03,0.05-0.06,0.07C9.11,3.4,9.05,3.45,9,3.52
		c0.03,0.02,0.08,0.01,0.14,0.02c0.01,0,0.05,0,0.06,0.01h0.08C9.31,3.57,9.31,3.6,9.34,3.6c0.06,0,0.06-0.06,0.03-0.09
		c0-0.05,0.02-0.06,0.01-0.09c-0.03-0.05-0.13,0-0.13-0.06c0-0.05,0.03-0.05,0.05-0.08c0-0.03,0.02-0.05,0.03-0.07
		c0.28,0.3,0.51,0.65,0.67,1.03c0.18,0.43,0.27,0.88,0.27,1.35c0,0.47-0.09,0.93-0.27,1.35c-0.06,0.14-0.13,0.27-0.2,0.4
		c-0.01,0-0.02-0.01-0.04-0.01c-0.01,0-0.03,0.01-0.06,0.01c-0.05,0-0.1-0.03-0.15-0.03c-0.02,0-0.07,0.01-0.08,0
		C9.47,7.31,9.47,7.27,9.44,7.26C9.42,7.24,9.39,7.23,9.36,7.22C9.33,7.21,9.3,7.19,9.25,7.19c-0.01,0-0.03,0.01-0.06,0.01
		C9.17,7.19,9.15,7.15,9.13,7.14C9.1,7.13,9.07,7.12,9.06,7.1C9.09,7.01,9.01,6.98,9,6.93C8.99,6.9,8.99,6.88,8.98,6.86
		c0-0.03-0.03-0.05-0.07-0.08C8.85,6.73,8.79,6.7,8.72,6.69c-0.05-0.01-0.08,0.01-0.13,0c-0.05,0-0.1-0.05-0.14-0.08
		C8.42,6.56,8.4,6.53,8.37,6.52C8.34,6.49,8.3,6.49,8.28,6.47c-0.01,0-0.01-0.01-0.01-0.03C8.25,6.4,8.22,6.39,8.25,6.36
		C8.21,6.33,8.21,6.38,8.18,6.38C8.15,6.33,8.12,6.31,8.04,6.32C8.01,6.33,8,6.37,7.95,6.37C7.93,6.38,7.89,6.33,7.86,6.33
		c-0.03-0.01-0.07,0.01-0.09,0c-0.03,0-0.05-0.03-0.08-0.06C7.67,6.27,7.62,6.24,7.61,6.24c-0.05,0-0.07,0.08-0.13,0.06
		C7.45,6.27,7.53,6.24,7.5,6.21C7.47,6.19,7.45,6.22,7.43,6.23S7.39,6.25,7.37,6.27v0.1v0.36v0.28V7.4v0.28v0.67H7.34
		c0.02,0.01,0.03,0.01,0.05,0.02c0.03,0.01,0.07,0.02,0.09,0.03c0.05,0.02,0.14,0.09,0.16,0.13c0.01,0.03,0.02,0.11,0.03,0.17
		c0.01,0.08,0,0.13,0.01,0.2v0.05C7.39,9.04,7.1,9.08,6.81,9.08c-0.47,0-0.93-0.09-1.35-0.27C5.18,8.69,4.92,8.54,4.69,8.36H4.65
		c0,0,0,0,0,0H4.29c0,0,0,0,0,0H4.02c0,0,0.01,0.01,0.01,0.01c0.36,0.36,0.78,0.64,1.25,0.84c0.48,0.2,1,0.31,1.53,0.31
		s1.04-0.1,1.53-0.31c0.47-0.2,0.89-0.48,1.25-0.84c0.36-0.36,0.64-0.78,0.84-1.25c0.2-0.48,0.31-1,0.31-1.53S10.62,4.55,10.42,4.07
		z M8.33,2.59c0.01,0.03-0.05,0.07-0.06,0.09c0,0.02,0.01,0.05,0.01,0.07c0.01,0.19-0.15,0.28-0.34,0.28
		c-0.03,0.03-0.02,0.1-0.05,0.15C7.87,3.23,7.81,3.27,7.77,3.26c-0.02,0-0.06-0.05-0.06-0.07c0-0.03,0.05-0.06,0.02-0.09
		c0-0.03,0.06-0.05,0.06-0.09C7.78,2.96,7.71,2.99,7.65,2.99C7.62,2.98,7.56,2.95,7.53,2.93C7.48,2.91,7.44,2.85,7.38,2.85
		C7.35,2.84,7.31,2.86,7.29,2.84C7.28,2.82,7.3,2.78,7.3,2.77c0-0.02-0.05-0.03-0.05-0.06C7.24,2.69,7.29,2.65,7.31,2.62
		C7.35,2.6,7.4,2.57,7.45,2.54c0.06-0.03,0.11-0.06,0.16-0.08c0.02,0,0.05,0,0.07-0.01C7.73,2.44,7.77,2.4,7.81,2.38
		c0.02,0,0.06,0,0.08-0.01c0.03,0,0.06-0.02,0.09-0.03c0,0,0.01-0.01,0.02-0.01c0.02,0.01,0.03,0.01,0.05,0.02
		C8.03,2.36,8,2.37,8,2.41c0.04,0.08,0.11,0.01,0.17-0.02C8.24,2.42,8.32,2.46,8.4,2.5C8.39,2.51,8.38,2.53,8.37,2.54
		C8.36,2.57,8.35,2.58,8.33,2.59z"/>
	<rect x="1.1" y="4.38" class="st1" width="1.84" height="0.38"/>
	<rect x="3.2" y="4.38" class="st1" width="1.84" height="0.38"/>
	<rect x="5.26" y="4.38" class="st1" width="1.83" height="0.38"/>
	<rect x="2.15" y="5.04" class="st1" width="1.84" height="0.41"/>
	<rect x="4.23" y="5.04" class="st1" width="1.84" height="0.41"/>
	<rect x="1.1" y="5.04" class="st1" width="0.79" height="0.41"/>
	<rect x="6.32" y="5.04" class="st1" width="0.77" height="0.41"/>
	<rect x="1.1" y="5.69" class="st1" width="1.84" height="0.41"/>
	<rect x="3.2" y="5.69" class="st1" width="1.84" height="0.41"/>
	<rect x="5.26" y="5.69" class="st1" width="1.83" height="0.41"/>
	<rect x="2.15" y="6.35" class="st1" width="1.84" height="0.39"/>
	<rect x="4.23" y="6.35" class="st1" width="1.84" height="0.39"/>
	<rect x="1.1" y="6.35" class="st1" width="0.79" height="0.39"/>
	<rect x="6.32" y="6.35" class="st1" width="0.77" height="0.39"/>
	<rect x="1.1" y="7.01" class="st1" width="1.84" height="0.41"/>
	<rect x="3.2" y="7.01" class="st1" width="1.84" height="0.41"/>
	<rect x="5.26" y="7.01" class="st1" width="1.83" height="0.41"/>
	<rect x="2.15" y="7.68" class="st1" width="1.84" height="0.41"/>
	<rect x="4.23" y="7.68" class="st1" width="1.84" height="0.41"/>
	<rect x="1.1" y="7.68" class="st1" width="0.79" height="0.41"/>
	<rect x="6.32" y="7.68" class="st1" width="0.77" height="0.41"/>
</g>
</svg>
