<?xml version="1.0" encoding="utf-8"?>
<!-- Generator: Adobe Illustrator 27.3.1, SVG Export Plug-In . SVG Version: 6.00 Build 0)  -->
<svg version="1.1" id="Layer_1" xmlns="http://www.w3.org/2000/svg" xmlns:xlink="http://www.w3.org/1999/xlink" x="0px" y="0px"
	 viewBox="0 0 11.52 11.52" style="enable-background:new 0 0 11.52 11.52;" xml:space="preserve">
<style type="text/css">
	.st0{fill:#28A8E0;}
	.st1{fill:#FFFFFF;}
</style>
<g>
	<g>
		<g>
			<path class="st0" d="M11.52,5.76c0,3.18-2.58,5.76-5.76,5.76S0,8.94,0,5.76C0,2.58,2.58,0,5.76,0S11.52,2.58,11.52,5.76z"/>
		</g>
		<g>
			<polygon class="st1" points="8.27,7.39 5.91,7.39 5.91,8.74 8.27,8.74 8.27,9.43 9.61,8.08 9.63,8.06 8.27,6.7 			"/>
			<polygon class="st1" points="8.27,6.36 9.61,5.02 9.63,5 8.27,3.63 8.27,4.32 5.91,4.32 5.91,5.67 8.27,5.67 			"/>
			<polygon class="st1" points="3.27,5.22 1.93,6.56 1.91,6.58 3.27,7.95 3.27,7.26 5.63,7.26 5.63,5.91 3.27,5.91 			"/>
			<polygon class="st1" points="3.27,2.12 1.93,3.46 1.91,3.48 3.27,4.85 3.27,4.16 5.63,4.16 5.63,2.81 3.27,2.81 			"/>
		</g>
	</g>
</g>
</svg>
