<?xml version="1.0" encoding="utf-8"?>
<!-- Generator: Adobe Illustrator 27.3.1, SVG Export Plug-In . SVG Version: 6.00 Build 0)  -->
<svg version="1.1" id="Layer_1" xmlns="http://www.w3.org/2000/svg" xmlns:xlink="http://www.w3.org/1999/xlink" x="0px" y="0px"
	 viewBox="0 0 11.52 11.52" style="enable-background:new 0 0 11.52 11.52;" xml:space="preserve">
<style type="text/css">
	.st0{fill:#28A8E0;}
	.st1{fill:#FFFFFF;}
</style>
<g>
	<g>
		<g>
			<path class="st0" d="M11.52,5.76c0,3.18-2.58,5.76-5.76,5.76S0,8.94,0,5.76C0,2.58,2.58,0,5.76,0S11.52,2.58,11.52,5.76z"/>
		</g>
	</g>
</g>
<g>
	<g>
		<g>
			<polygon class="st1" points="8.21,7.36 5.85,7.36 5.85,8.72 8.21,8.72 8.21,9.41 9.55,8.06 9.57,8.04 8.21,6.67 			"/>
			<polygon class="st1" points="8.21,6.34 9.55,5 9.57,4.98 8.21,3.61 8.21,4.3 5.85,4.3 5.85,5.65 8.21,5.65 			"/>
			<polygon class="st1" points="3.21,5.19 1.88,6.54 1.85,6.56 3.21,7.92 3.21,7.24 5.57,7.24 5.57,5.88 3.21,5.88 			"/>
			<polygon class="st1" points="3.21,2.1 1.88,3.44 1.85,3.46 3.21,4.83 3.21,4.14 5.57,4.14 5.57,2.78 3.21,2.78 			"/>
		</g>
	</g>
</g>
</svg>
