<?xml version="1.0" encoding="utf-8"?>
<!-- Generator: Adobe Illustrator 27.3.1, SVG Export Plug-In . SVG Version: 6.00 Build 0)  -->
<svg version="1.1" id="Layer_1" xmlns="http://www.w3.org/2000/svg" xmlns:xlink="http://www.w3.org/1999/xlink" x="0px" y="0px"
	 viewBox="0 0 11.52 11.52" style="enable-background:new 0 0 11.52 11.52;" xml:space="preserve">
<style type="text/css">
	.st0{fill:#28A8E0;}
	.st1{fill:#FFFFFF;}
</style>
<g>
	<g>
		<g>
			<path class="st0" d="M11.52,5.76c0,3.18-2.58,5.76-5.76,5.76S0,8.94,0,5.76C0,2.58,2.58,0,5.76,0S11.52,2.58,11.52,5.76z"/>
		</g>
	</g>
</g>
<path class="st1" d="M9.41,6.84H9.13V5.56c0-0.44-0.36-0.79-0.79-0.79H5.98V3.73h0.44c0.23,0,0.42-0.19,0.42-0.42V2
	c0-0.23-0.19-0.42-0.42-0.42H5.1C4.87,1.58,4.68,1.77,4.68,2v1.31c0,0.23,0.19,0.42,0.42,0.42h0.44v1.03H3.18
	c-0.44,0-0.79,0.36-0.79,0.79v1.43l-0.53,0c-0.14,0-0.27,0.08-0.34,0.2C1.46,7.32,1.47,7.47,1.54,7.58l0.74,1.13
	C2.35,8.82,2.47,8.88,2.6,8.88c0,0,0,0,0,0c0.13,0,0.25-0.06,0.32-0.17l0,0l0.74-1.13c0.08-0.12,0.08-0.27,0.02-0.39
	c-0.07-0.12-0.2-0.2-0.34-0.2c0,0,0,0,0,0l-0.51,0V5.56c0-0.19,0.16-0.35,0.35-0.35h2.36v1.66c-0.21,0.04-0.4,0.14-0.55,0.3
	C4.78,7.37,4.67,7.64,4.67,7.94c0,0.6,0.49,1.09,1.09,1.09c0,0,0,0,0,0c0.6,0,1.09-0.49,1.09-1.09c0-0.29-0.11-0.57-0.32-0.77
	c-0.15-0.15-0.35-0.26-0.56-0.3V5.21h2.36c0.19,0,0.35,0.16,0.35,0.35v1.29H8.38c-0.3,0-0.55,0.25-0.55,0.55v1.03
	c0,0.3,0.25,0.55,0.55,0.55h1.03c0.3,0,0.55-0.25,0.55-0.55V7.4C9.96,7.09,9.71,6.84,9.41,6.84z M2.6,8.39L1.97,7.43l1.26,0
	L2.6,8.39z M6.42,7.94c0,0.36-0.29,0.65-0.65,0.65c-0.36,0-0.65-0.29-0.65-0.65c0-0.17,0.07-0.34,0.19-0.46
	c0.12-0.12,0.29-0.19,0.46-0.19c0.17,0,0.34,0.07,0.46,0.19C6.35,7.6,6.42,7.76,6.42,7.94z M9.52,8.43c0,0.06-0.05,0.11-0.11,0.11
	H8.38c-0.06,0-0.11-0.05-0.11-0.11V7.4c0-0.06,0.05-0.11,0.11-0.11h1.03c0.06,0,0.11,0.05,0.11,0.11V8.43z"/>
</svg>
