<?xml version="1.0" encoding="utf-8"?>
<!-- Generator: Adobe Illustrator 27.3.1, SVG Export Plug-In . SVG Version: 6.00 Build 0)  -->
<svg version="1.1" id="Layer_1" xmlns="http://www.w3.org/2000/svg" xmlns:xlink="http://www.w3.org/1999/xlink" x="0px" y="0px"
	 viewBox="0 0 11.52 11.52" style="enable-background:new 0 0 11.52 11.52;" xml:space="preserve">
<style type="text/css">
	.st0{fill:#28A8E0;}
	.st1{fill:#FFFFFF;}
</style>
<g>
	<g>
		<g>
			<path class="st0" d="M11.52,5.76c0,3.18-2.58,5.76-5.76,5.76S0,8.94,0,5.76C0,2.58,2.58,0,5.76,0S11.52,2.58,11.52,5.76z"/>
		</g>
	</g>
</g>
<path class="st1" d="M4.29,5.53l0.02,0.19c0,0.01,0.01,0.02,0.03,0.02l0.11-0.01c0.01,0,0.03,0.01,0.03,0.02l0.04,0.12
	c0.01,0.01,0,0.03-0.01,0.04L4.42,5.98C4.41,5.99,4.4,6,4.41,6.01l0.11,0.16c0.01,0.01,0.02,0.01,0.04,0.01l0.09-0.06
	c0.01-0.01,0.03-0.01,0.04,0l0.1,0.08C4.8,6.2,4.8,6.22,4.8,6.23l-0.05,0.1c-0.01,0.01,0,0.03,0.01,0.03l0.18,0.08
	c0.01,0.01,0.03,0,0.03-0.01l0.05-0.1c0.01-0.01,0.02-0.02,0.03-0.02l0.12,0.02c0.01,0,0.03,0.01,0.03,0.03l0.01,0.11
	c0,0.01,0.01,0.02,0.03,0.02l0.19-0.02c0.01,0,0.02-0.01,0.02-0.03L5.45,6.35c0-0.01,0.01-0.03,0.02-0.03l0.12-0.04
	c0.01-0.01,0.03,0,0.04,0.01l0.06,0.09C5.7,6.39,5.71,6.39,5.72,6.38l0.16-0.11C5.89,6.26,5.9,6.25,5.89,6.24L5.82,6.15
	c-0.01-0.01-0.01-0.03,0-0.04l0.08-0.1C5.92,6,5.93,5.99,5.95,6l0.1,0.05c0.01,0.01,0.03,0,0.03-0.01l0.08-0.18
	c0.01-0.01,0-0.03-0.01-0.03l-0.1-0.05C6.04,5.77,6.03,5.76,6.03,5.74l0.02-0.13c0-0.01,0.01-0.03,0.03-0.03l0.11-0.01
	c0.01,0,0.02-0.01,0.02-0.03L6.2,5.36c0-0.01-0.01-0.02-0.03-0.02L6.06,5.35c-0.01,0-0.03-0.01-0.03-0.02L5.99,5.21
	C5.98,5.19,5.99,5.18,6,5.17l0.09-0.06C6.1,5.1,6.1,5.08,6.09,5.07L5.98,4.91C5.97,4.9,5.96,4.9,5.95,4.91L5.86,4.97
	c-0.01,0.01-0.03,0.01-0.04,0l-0.1-0.08C5.71,4.88,5.7,4.86,5.71,4.85l0.05-0.1c0.01-0.01,0-0.03-0.01-0.03L5.57,4.63
	c-0.01-0.01-0.03,0-0.03,0.01l-0.05,0.1C5.48,4.76,5.47,4.76,5.45,4.76L5.33,4.74c-0.01,0-0.03-0.01-0.03-0.03L5.29,4.6
	c0-0.01-0.01-0.02-0.03-0.02L5.07,4.6c-0.01,0-0.02,0.01-0.02,0.03l0.01,0.11c0,0.01-0.01,0.03-0.02,0.03L4.92,4.81
	c-0.01,0.01-0.03,0-0.04-0.01L4.82,4.71C4.81,4.7,4.79,4.69,4.78,4.7L4.62,4.81C4.61,4.82,4.61,4.84,4.62,4.85l0.06,0.09
	c0.01,0.01,0.01,0.03,0,0.04L4.6,5.08C4.59,5.09,4.57,5.09,4.56,5.09l-0.1-0.05c-0.01-0.01-0.03,0-0.03,0.01L4.34,5.23
	c-0.01,0.01,0,0.03,0.01,0.03l0.1,0.05c0.01,0.01,0.02,0.02,0.02,0.03L4.45,5.47c0,0.01-0.01,0.03-0.03,0.03L4.31,5.5
	C4.3,5.5,4.29,5.52,4.29,5.53z M4.94,5.57C4.93,5.4,5.05,5.25,5.22,5.23c0.17-0.02,0.32,0.11,0.34,0.28
	c0.02,0.17-0.11,0.32-0.28,0.33C5.11,5.86,4.96,5.74,4.94,5.57z"/>
<path class="st1" d="M5.76,4.3l0.01,0.13c0,0.01,0.01,0.02,0.02,0.02l0.08-0.01c0.01,0,0.02,0.01,0.02,0.02l0.03,0.08
	c0,0.01,0,0.02-0.01,0.03L5.85,4.61c-0.01,0.01-0.01,0.02,0,0.02l0.08,0.11c0.01,0.01,0.02,0.01,0.02,0l0.06-0.05
	c0.01-0.01,0.02,0,0.03,0l0.07,0.06c0.01,0.01,0.01,0.02,0.01,0.03L6.08,4.86c0,0.01,0,0.02,0.01,0.02l0.12,0.06
	c0.01,0,0.02,0,0.02-0.01l0.03-0.07c0-0.01,0.02-0.01,0.02-0.01l0.09,0.02c0.01,0,0.02,0.01,0.02,0.02l0.01,0.08
	c0,0.01,0.01,0.02,0.02,0.02l0.14-0.01c0.01,0,0.02-0.01,0.02-0.02L6.57,4.87c0-0.01,0.01-0.02,0.02-0.02l0.08-0.03
	c0.01,0,0.02,0,0.03,0.01l0.04,0.06c0.01,0.01,0.02,0.01,0.02,0l0.11-0.08c0.01-0.01,0.01-0.02,0-0.02L6.84,4.73
	c-0.01-0.01,0-0.02,0-0.03l0.06-0.07C6.9,4.63,6.91,4.62,6.92,4.63l0.07,0.03c0.01,0,0.02,0,0.02-0.01l0.06-0.12
	c0-0.01,0-0.02-0.01-0.02L6.99,4.47c-0.01,0-0.01-0.02-0.01-0.02L7,4.36c0-0.01,0.01-0.02,0.02-0.02l0.08-0.01
	c0.01,0,0.02-0.01,0.02-0.02L7.1,4.18c0-0.01-0.01-0.02-0.02-0.02L7,4.17c-0.01,0-0.02-0.01-0.02-0.02L6.95,4.07
	c0-0.01,0-0.02,0.01-0.03L7.02,4c0.01-0.01,0.01-0.02,0-0.02L6.94,3.87c-0.01-0.01-0.02-0.01-0.02,0L6.86,3.91
	c-0.01,0.01-0.02,0-0.03,0L6.76,3.85C6.75,3.84,6.75,3.83,6.75,3.82l0.03-0.07c0-0.01,0-0.02-0.01-0.02L6.66,3.67
	c-0.01,0-0.02,0-0.02,0.01L6.6,3.75c0,0.01-0.02,0.01-0.02,0.01L6.49,3.75c-0.01,0-0.02-0.01-0.02-0.02L6.46,3.65
	c0-0.01-0.01-0.02-0.02-0.02L6.31,3.65c-0.01,0-0.02,0.01-0.02,0.02L6.3,3.74c0,0.01-0.01,0.02-0.02,0.02L6.2,3.79
	c-0.01,0-0.02,0-0.03-0.01L6.13,3.72c-0.01-0.01-0.02-0.01-0.02,0L5.99,3.8c-0.01,0.01-0.01,0.02,0,0.02l0.05,0.06
	c0.01,0.01,0,0.02,0,0.03L5.98,3.98C5.97,3.99,5.96,3.99,5.95,3.99L5.88,3.95c-0.01,0-0.02,0-0.02,0.01L5.8,4.09
	c0,0.01,0,0.02,0.01,0.02l0.07,0.03c0.01,0,0.01,0.02,0.01,0.02L5.87,4.25c0,0.01-0.01,0.02-0.02,0.02L5.78,4.28
	C5.77,4.28,5.76,4.29,5.76,4.3z M6.22,4.33C6.21,4.21,6.3,4.1,6.42,4.09c0.12-0.01,0.22,0.08,0.23,0.2c0.01,0.12-0.08,0.22-0.2,0.23
	C6.33,4.53,6.23,4.45,6.22,4.33z"/>
<path class="st1" d="M9.08,8.6H8.94V8.35c0-0.25-0.2-0.45-0.45-0.45H5.92V7.25H8.6c0.19,0,0.34-0.15,0.34-0.34v-4.7
	c0-0.19-0.15-0.34-0.34-0.34H2.95c-0.19,0-0.34,0.15-0.34,0.34v4.7c0,0.19,0.15,0.34,0.34,0.34h2.67V7.9H3.05
	C2.8,7.9,2.6,8.1,2.6,8.35V8.6H2.47c-0.11,0-0.2,0.09-0.2,0.2v0.57c0,0.11,0.09,0.2,0.2,0.2h0.57c0.11,0,0.2-0.09,0.2-0.2V8.8
	c0-0.11-0.09-0.2-0.2-0.2H2.9V8.35c0-0.08,0.07-0.15,0.15-0.15h2.57v0.4H5.49c-0.11,0-0.2,0.09-0.2,0.2v0.57
	c0,0.11,0.09,0.2,0.2,0.2h0.57c0.11,0,0.2-0.09,0.2-0.2V8.8c0-0.11-0.09-0.2-0.2-0.2H5.92V8.2h2.57c0.08,0,0.15,0.07,0.15,0.15V8.6
	H8.51c-0.11,0-0.2,0.09-0.2,0.2v0.57c0,0.11,0.09,0.2,0.2,0.2h0.57c0.11,0,0.2-0.09,0.2-0.2V8.8C9.27,8.69,9.19,8.6,9.08,8.6z
	 M4.87,2.26c0.14,0,0.25,0.11,0.25,0.25c0,0.14-0.11,0.25-0.25,0.25c-0.14,0-0.25-0.11-0.25-0.25C4.61,2.37,4.72,2.26,4.87,2.26z
	 M4.06,2.26c0.14,0,0.25,0.11,0.25,0.25c0,0.14-0.11,0.25-0.25,0.25c-0.14,0-0.25-0.11-0.25-0.25C3.81,2.37,3.92,2.26,4.06,2.26z
	 M3.26,2.26c0.14,0,0.25,0.11,0.25,0.25c0,0.14-0.11,0.25-0.25,0.25C3.12,2.77,3,2.66,3,2.51C3,2.37,3.12,2.26,3.26,2.26z
	 M3.02,6.55V3.46c0-0.13,0.1-0.23,0.23-0.23h5.09c0.13,0,0.23,0.1,0.23,0.23v3.09c0,0.13-0.1,0.23-0.23,0.23H3.25
	C3.12,6.78,3.02,6.68,3.02,6.55z"/>
</svg>
