<?xml version="1.0" encoding="utf-8"?>
<!-- Generator: Adobe Illustrator 27.3.1, SVG Export Plug-In . SVG Version: 6.00 Build 0)  -->
<svg version="1.1" id="Layer_1" xmlns="http://www.w3.org/2000/svg" xmlns:xlink="http://www.w3.org/1999/xlink" x="0px" y="0px"
	 viewBox="0 0 11.52 11.52" style="enable-background:new 0 0 11.52 11.52;" xml:space="preserve">
<style type="text/css">
	.st0{fill:#28A8E0;}
	.st1{fill:#FFFFFF;}
</style>
<g>
	<g>
		<g>
			<path class="st0" d="M11.52,5.76c0,3.18-2.58,5.76-5.76,5.76S0,8.94,0,5.76C0,2.58,2.58,0,5.76,0S11.52,2.58,11.52,5.76z"/>
		</g>
	</g>
</g>
<g>
	<path class="st1" d="M7,5.45C6.68,4.89,6.2,4.47,5.61,4.25C5.99,3.94,6.2,3.47,6.2,2.99c0-0.9-0.73-1.64-1.63-1.64
		c-0.91,0-1.65,0.73-1.65,1.64c0,0.49,0.21,0.94,0.58,1.25c-1.12,0.43-1.8,1.52-1.8,2.88v0.95h2.88V7.69H2.08V7.12
		c0-1.32,0.72-2.35,1.84-2.62C4.33,4.67,4.79,4.67,5.19,4.5C5.78,4.65,6.26,5,6.6,5.51l0.02,0.03h0.44L7,5.45z M5.83,2.99
		c0,0.7-0.57,1.27-1.27,1.27c-0.7,0-1.27-0.57-1.27-1.27c0-0.7,0.57-1.27,1.27-1.27C5.27,1.72,5.83,2.29,5.83,2.99z"/>
</g>
<path class="st1" d="M9.82,5.79H5.05c-0.1,0-0.19,0.08-0.19,0.18v3.26c0,0.1,0.08,0.18,0.19,0.18h4.78c0.1,0,0.19-0.08,0.19-0.18
	V5.97C10.01,5.87,9.93,5.79,9.82,5.79z M9.53,8.96H5.35V6.24h4.18V8.96z M9.92,7.65c0,0.05-0.04,0.09-0.09,0.09H9.74
	c-0.05,0-0.09-0.04-0.09-0.09V7.57c0-0.05,0.04-0.09,0.09-0.09h0.09c0.05,0,0.09,0.04,0.09,0.09V7.65z"/>
</svg>
