<?xml version="1.0" encoding="utf-8"?>
<!-- Generator: Adobe Illustrator 27.3.1, SVG Export Plug-In . SVG Version: 6.00 Build 0)  -->
<svg version="1.1" id="Layer_1" xmlns="http://www.w3.org/2000/svg" xmlns:xlink="http://www.w3.org/1999/xlink" x="0px" y="0px"
	 viewBox="0 0 11.52 11.52" style="enable-background:new 0 0 11.52 11.52;" xml:space="preserve">
<style type="text/css">
	.st0{fill:#28A8E0;}
	.st1{fill:#FFFFFF;}
</style>
<g>
	<g>
		<path class="st0" d="M11.52,5.76c0,3.18-2.58,5.76-5.76,5.76S0,8.94,0,5.76C0,2.58,2.58,0,5.76,0S11.52,2.58,11.52,5.76z"/>
	</g>
</g>
<path class="st1" d="M5.66,6.23l0.1-0.04l0.1-0.26V5.86c0,0,0.09-0.06,0.13-0.01l0.04,0.04C6.3,6.11,6.67,6.18,7,6.04
	c0.47-0.2,0.7-0.75,0.5-1.23C7.29,4.33,6.74,4.1,6.27,4.3C5.94,4.44,5.72,4.76,5.69,5.11c0.01,0.13-0.17,0.22-0.17,0.22L4.13,5.92
	c0,0-0.11,0.04-0.14,0.13C3.95,6.14,3.84,6.39,3.84,6.39S3.81,6.55,4,6.59l0.32,0.12l0.11-0.04l0.06-0.14l0.09-0.04L4.7,6.53
	l0.13-0.06l0.04-0.12L5.03,6.3l0.13,0.04l0.06-0.03l0.09-0.19l0.27-0.12L5.66,6.23z M6.87,4.81c0.11-0.04,0.24,0,0.29,0.12
	c0.04,0.12,0,0.25-0.11,0.29c-0.11,0.06-0.24,0-0.29-0.12C6.7,4.98,6.76,4.85,6.87,4.81z"/>
<path class="st1" d="M5.75,1.05c-2.54,0-4.63,2.1-4.63,4.67c0,2.58,2.08,4.68,4.63,4.68c2.56,0,4.64-2.1,4.64-4.68
	C10.39,3.15,8.31,1.05,5.75,1.05z M9.98,5.5C9.96,5.52,9.95,5.53,9.92,5.55C9.52,5.01,9.1,4.59,8.67,4.23
	c0.19-0.54,0.27-0.99,0.32-1.26C9.56,3.66,9.93,4.55,9.98,5.5z M9.57,6.31c0.03,0.03,0.03,0.09,0,0.12c-0.03,0.03-0.09,0.03-0.11,0
	C9.26,6.23,9.23,6.2,9.23,6.2C9.03,6.4,9,6.43,9,6.43c-0.03,0.03-0.09,0.03-0.11,0c-0.03-0.03-0.03-0.09,0-0.12
	c0.2-0.2,0.23-0.23,0.23-0.23c-0.2-0.2-0.23-0.23-0.23-0.23c-0.03-0.03-0.03-0.09,0-0.12c0.03-0.03,0.09-0.03,0.11,0
	c0.2,0.2,0.23,0.23,0.23,0.23l0.23-0.23c0.03-0.03,0.09-0.03,0.11,0c0.03,0.03,0.03,0.09,0,0.12c-0.2,0.2-0.23,0.23-0.23,0.23
	C9.54,6.29,9.57,6.31,9.57,6.31z M9.23,5.34c-0.4,0-0.73,0.33-0.73,0.74c0,0.12,0.03,0.23,0.09,0.33c-0.42,0.32-0.88,0.71-1.32,1.2
	c-0.11-0.06-0.23-0.1-0.37-0.1c-0.32,0-0.59,0.2-0.68,0.49C6.01,8,5.87,7.97,5.74,7.94V7.92V7.88c0.01-0.03,0.04-0.06,0.06-0.1
	c1.09-0.61,1.8-1.44,2.24-2.17C8.29,5.17,8.5,4.73,8.63,4.34C9.04,4.69,9.44,5.1,9.82,5.6c-0.01,0-0.01,0-0.03,0.01
	C9.66,5.44,9.46,5.34,9.23,5.34z M7.29,8.05L6.87,8.62C6.86,8.63,6.83,8.65,6.81,8.65H6.8c-0.01,0-0.04-0.01-0.06-0.03l-0.3-0.29
	c-0.03-0.03-0.03-0.09,0-0.12c0.03-0.03,0.09-0.03,0.11,0l0.23,0.23l0.37-0.49c0.03-0.04,0.09-0.04,0.11-0.01
	C7.32,7.97,7.32,8.01,7.29,8.05z M5.52,7.4c-0.13-0.13-0.3-0.2-0.5-0.2c-0.24,0-0.46,0.12-0.59,0.29C3.94,7.26,3.52,6.97,3.16,6.68
	c0.06-0.1,0.09-0.23,0.09-0.36c0-0.29-0.17-0.54-0.42-0.65c0.24-0.78,0.57-1.45,0.92-1.99C3.84,3.7,3.94,3.73,4.04,3.73
	c0.09,0,0.17-0.03,0.26-0.06C4.57,4.1,4.85,4.6,5.08,5.23l0.1-0.04c-0.23-0.65-0.5-1.16-0.76-1.57c0.2-0.12,0.34-0.36,0.34-0.62
	V2.92c0.06,0,0.1,0.01,0.14,0.01c0.56,0.01,1.18,0.12,1.84,0.35C6.8,3.57,7,3.79,7.27,3.86C7.26,3.95,7.25,4.04,7.23,4.13
	C7.26,4.14,7.3,4.17,7.33,4.2c0.01-0.1,0.04-0.2,0.06-0.3h0.07c0.14,0,0.27-0.04,0.37-0.1c0.23,0.14,0.47,0.3,0.7,0.48
	C8.4,4.66,8.21,5.11,7.94,5.55C7.52,6.23,6.89,6.98,5.92,7.58c0.04-0.07,0.09-0.13,0.13-0.2c0.17-0.3,0.34-0.64,0.52-1
	c-0.04,0-0.09,0-0.13-0.01C6.28,6.71,6.11,7.02,5.95,7.31C5.87,7.45,5.79,7.58,5.71,7.69v0.01C5.69,7.66,5.68,7.62,5.65,7.58
	c-0.01-0.36-0.06-0.7-0.11-1.01L5.46,6.42l-0.04,0.1H5.41C5.46,6.81,5.51,7.1,5.52,7.4z M5.36,8.16c0.03,0.03,0.03,0.09,0,0.12
	c-0.04,0.03-0.09,0.03-0.11,0c-0.2-0.2-0.23-0.23-0.23-0.23c-0.2,0.2-0.23,0.23-0.23,0.23C4.74,8.3,4.7,8.3,4.67,8.27
	c-0.03-0.03-0.03-0.09,0-0.12c0.2-0.2,0.23-0.23,0.23-0.23c-0.2-0.2-0.23-0.23-0.23-0.23c-0.03-0.03-0.03-0.09,0-0.12
	c0.03-0.03,0.07-0.03,0.11,0c0.2,0.2,0.23,0.23,0.23,0.23l0.23-0.23c0.03-0.03,0.07-0.03,0.11,0c0.03,0.04,0.03,0.09,0,0.12
	c-0.2,0.2-0.23,0.23-0.23,0.23C5.33,8.13,5.36,8.16,5.36,8.16z M3.59,3.07C3.55,3.04,3.55,2.99,3.58,2.95
	c0.03-0.03,0.09-0.03,0.11,0l0.24,0.23L4.3,2.69c0.03-0.03,0.09-0.04,0.11-0.01C4.46,2.7,4.46,2.75,4.44,2.79L4.01,3.36
	C4,3.37,3.98,3.39,3.95,3.39c-0.03,0-0.04,0-0.06-0.01L3.59,3.07z M8.88,2.85c-0.03,0.23-0.1,0.71-0.3,1.3
	c-0.22-0.16-0.43-0.3-0.65-0.43c0.16-0.13,0.26-0.33,0.26-0.55c0-0.38-0.29-0.7-0.65-0.74c0-0.19,0-0.38-0.01-0.58
	C8.05,2.1,8.51,2.44,8.88,2.85z M7.69,2.82c0.03-0.03,0.09-0.03,0.11,0c0.03,0.03,0.03,0.09,0,0.12c-0.2,0.2-0.23,0.23-0.23,0.23
	c0.2,0.2,0.23,0.23,0.23,0.23c0.03,0.03,0.03,0.07,0,0.1c-0.03,0.04-0.09,0.04-0.11,0c-0.2-0.2-0.23-0.23-0.23-0.23
	C7.26,3.47,7.23,3.5,7.23,3.5c-0.03,0.04-0.07,0.04-0.11,0c-0.03-0.03-0.03-0.07,0-0.1c0.2-0.2,0.23-0.23,0.23-0.23
	c-0.2-0.2-0.23-0.25-0.23-0.25c-0.03-0.03-0.03-0.07,0-0.1c0.04-0.04,0.09-0.04,0.11,0c0.2,0.2,0.23,0.23,0.23,0.23L7.69,2.82z
	 M5.84,1.46C6.4,1.47,6.93,1.59,7.42,1.81c0.01,0.2,0.01,0.42,0.01,0.62C7.04,2.44,6.74,2.76,6.74,3.15
	C6.08,2.94,5.46,2.83,4.92,2.82C4.86,2.81,4.8,2.81,4.74,2.81C4.72,2.72,4.67,2.63,4.62,2.54C5.12,1.99,5.58,1.65,5.84,1.46z
	 M5.64,1.46c-0.27,0.2-0.68,0.54-1.11,1c-0.13-0.12-0.3-0.2-0.49-0.2c-0.23,0-0.42,0.1-0.56,0.26C3.38,2.43,3.29,2.36,3.24,2.3
	C3.91,1.79,4.73,1.49,5.64,1.46z M3.13,2.37C3.19,2.43,3.29,2.5,3.41,2.62c-0.04,0.09-0.09,0.19-0.1,0.3
	C2.93,2.99,2.62,3.07,2.39,3.14C2.6,2.85,2.86,2.6,3.13,2.37z M2.27,3.3C2.5,3.23,2.86,3.12,3.31,3.04
	c0.01,0.25,0.16,0.45,0.34,0.58c-0.34,0.54-0.68,1.2-0.92,2C2.66,5.6,2.59,5.59,2.52,5.59c-0.13,0-0.24,0.03-0.34,0.09
	C1.9,5.36,1.71,5.07,1.61,4.89C1.73,4.31,1.96,3.78,2.27,3.3z M2.36,8.27C1.84,7.56,1.53,6.68,1.53,5.72c0-0.22,0.01-0.43,0.04-0.65
	c0.11,0.17,0.29,0.41,0.5,0.68C1.9,5.88,1.8,6.08,1.8,6.31C1.8,6.69,2.07,7,2.43,7.04C2.39,7.43,2.36,7.84,2.36,8.27z M2.43,6.71
	c-0.01,0-0.04,0-0.06-0.01L2.07,6.4c-0.03-0.03-0.03-0.09,0-0.12C2.1,6.24,2.16,6.24,2.19,6.27L2.42,6.5l0.37-0.49
	C2.82,5.98,2.88,5.97,2.9,6c0.04,0.03,0.04,0.09,0.01,0.12L2.5,6.68C2.49,6.69,2.46,6.71,2.45,6.71H2.43z M2.47,8.43
	C2.46,7.94,2.49,7.49,2.55,7.05c0.23-0.01,0.42-0.12,0.55-0.29c0.37,0.3,0.79,0.59,1.28,0.83c-0.06,0.1-0.09,0.22-0.09,0.33
	c0,0.13,0.03,0.23,0.09,0.33C3.85,8.42,3.26,8.53,2.62,8.58C2.57,8.53,2.52,8.47,2.47,8.43z M2.72,8.69
	c0.63-0.06,1.21-0.17,1.71-0.33c0.13,0.19,0.34,0.3,0.59,0.3h0.04c-0.39,0.52-0.7,0.88-0.85,1.04C3.64,9.47,3.13,9.13,2.72,8.69z
	 M5.71,10C5.23,9.98,4.76,9.9,4.33,9.75c0.17-0.19,0.5-0.58,0.91-1.13c0.26-0.07,0.45-0.29,0.5-0.57c0.11,0.03,0.26,0.06,0.45,0.07
	C6.17,8.17,6.17,8.21,6.17,8.26c0,0.19,0.07,0.38,0.2,0.51C6.12,9.14,5.89,9.55,5.71,10z M5.84,10c0.17-0.42,0.39-0.81,0.62-1.16
	c0.11,0.09,0.27,0.14,0.43,0.14c0.4,0,0.73-0.32,0.73-0.72V8.17c0.56-0.03,1.19-0.14,1.84-0.38C8.75,9.08,7.39,9.97,5.84,10z
	 M7.59,8.05C7.55,7.91,7.46,7.78,7.35,7.68c0.43-0.46,0.89-0.86,1.29-1.16c0.13,0.17,0.34,0.29,0.59,0.29c0.4,0,0.72-0.32,0.72-0.72
	c0-0.13-0.03-0.26-0.1-0.38c0.01,0,0.03-0.01,0.04-0.01c0.03,0.04,0.06,0.09,0.1,0.14C9.96,6.47,9.8,7.08,9.54,7.63
	C8.86,7.91,8.18,8.02,7.59,8.05z"/>
</svg>
