<?xml version="1.0" encoding="utf-8"?>
<!-- Generator: Adobe Illustrator 27.3.1, SVG Export Plug-In . SVG Version: 6.00 Build 0)  -->
<svg version="1.1" id="Layer_1" xmlns="http://www.w3.org/2000/svg" xmlns:xlink="http://www.w3.org/1999/xlink" x="0px" y="0px"
	 viewBox="0 0 11.52 11.52" style="enable-background:new 0 0 11.52 11.52;" xml:space="preserve">
<style type="text/css">
	.st0{fill:#28A8E0;}
	.st1{fill:#FFFFFF;}
</style>
<g>
	<g>
		<g>
			<path class="st0" d="M11.52,5.76c0,3.18-2.58,5.76-5.76,5.76S0,8.94,0,5.76C0,2.58,2.58,0,5.76,0S11.52,2.58,11.52,5.76z"/>
		</g>
	</g>
</g>
<g>
	<path class="st1" d="M6.42,5.43H6.35V5.26c0-0.36-0.25-0.62-0.59-0.62c-0.34,0-0.59,0.25-0.59,0.62v0.17H5.1
		C5.04,5.43,5,5.48,5,5.53v1.18c0,0.05,0.04,0.1,0.1,0.1h1.33c0.05,0,0.1-0.04,0.1-0.1V5.53C6.52,5.48,6.48,5.43,6.42,5.43z
		 M6.15,5.43H5.37V5.26c0-0.25,0.16-0.42,0.39-0.42c0.23,0,0.39,0.17,0.39,0.42V5.43z"/>
	<path class="st1" d="M10.83,5.58c-0.01-0.02-0.02-0.03-0.04-0.05L9.81,4.55c-0.1-0.1-0.25-0.1-0.34,0L9.43,4.58
		c-0.1,0.1-0.1,0.25,0,0.34l0.58,0.58H8.99l0-0.01C9.02,5.34,8.9,5.22,8.72,5.22l-0.61,0C8.08,4.98,7.97,4.7,7.81,4.47l0.43-0.44
		c0.1-0.1,0.1-0.27,0-0.37l-0.39-0.4c-0.09-0.1-0.25-0.09-0.38,0.03L7.06,3.7C6.84,3.54,6.57,3.46,6.3,3.38l0.01-0.61
		C6.28,2.63,6.19,2.53,6.04,2.5L5.5,2.5C5.34,2.51,5.21,2.63,5.22,2.8l0.01,0.59C4.95,3.43,4.7,3.55,4.47,3.72L4.04,3.25
		C3.93,3.17,3.78,3.16,3.66,3.28L3.29,3.64C3.17,3.76,3.17,3.93,3.27,4.03l0.44,0.43C3.55,4.68,3.46,4.94,3.39,5.23l-0.61,0
		C2.66,5.21,2.53,5.33,2.52,5.48l0,0.02H1.49l0.58-0.58c0.1-0.1,0.1-0.25,0-0.34L2.03,4.55c-0.1-0.1-0.25-0.1-0.34,0L0.7,5.53
		C0.69,5.55,0.68,5.56,0.66,5.58C0.62,5.62,0.6,5.68,0.6,5.75V5.8c0,0.08,0.03,0.14,0.09,0.19C0.69,5.99,0.7,6,0.7,6l0.98,0.98
		c0.1,0.1,0.25,0.1,0.34,0l0.03-0.03c0.1-0.1,0.1-0.25,0-0.34L1.5,6.04h1.01C2.53,6.2,2.65,6.31,2.79,6.29l0.6,0.01
		c0.06,0.25,0.17,0.53,0.3,0.74L3.27,7.48c-0.1,0.1-0.09,0.27,0.03,0.38l0.36,0.38c0.12,0.11,0.29,0.11,0.42,0l0.4-0.42
		C4.7,7.98,4.95,8.08,5.2,8.13l0.04,0.6c-0.02,0.15,0.1,0.28,0.25,0.29L6.05,9C6.2,9.02,6.29,8.88,6.32,8.73L6.31,8.15
		c0.25-0.06,0.53-0.16,0.76-0.33l0.41,0.45c0.14,0.1,0.29,0.11,0.4,0l0.4-0.39C8.34,7.75,8.36,7.6,8.25,7.48L7.83,7.07
		C7.95,6.83,8.08,6.59,8.14,6.3l0.58-0.01C8.88,6.32,9,6.2,9,6.04h1L9.43,6.61c-0.1,0.1-0.1,0.25,0,0.34l0.03,0.03
		c0.1,0.1,0.25,0.1,0.34,0L10.8,6C10.8,6,10.81,5.99,10.81,5.98c0.05-0.04,0.09-0.11,0.09-0.19V5.75
		C10.9,5.68,10.87,5.62,10.83,5.58z M6.93,6.94C6.3,7.57,5.26,7.59,4.6,6.93c-0.65-0.66-0.65-1.68,0-2.35
		C5.24,3.92,6.28,3.94,6.94,4.6C7.56,5.24,7.59,6.29,6.93,6.94z"/>
</g>
</svg>
