<?xml version="1.0" encoding="utf-8"?>
<!-- Generator: Adobe Illustrator 27.3.1, SVG Export Plug-In . SVG Version: 6.00 Build 0)  -->
<svg version="1.1" id="Layer_1" xmlns="http://www.w3.org/2000/svg" xmlns:xlink="http://www.w3.org/1999/xlink" x="0px" y="0px"
	 viewBox="0 0 11.52 11.52" style="enable-background:new 0 0 11.52 11.52;" xml:space="preserve">
<style type="text/css">
	.st0{fill:#28A8E0;}
	.st1{fill-rule:evenodd;clip-rule:evenodd;fill:#FFFFFF;}
</style>
<g>
	<g>
		<g>
			<path class="st0" d="M11.52,5.76c0,3.18-2.58,5.76-5.76,5.76S0,8.94,0,5.76C0,2.58,2.58,0,5.76,0S11.52,2.58,11.52,5.76z"/>
		</g>
	</g>
</g>
<g>
	<path class="st1" d="M10.48,7.13l-0.44-0.7H7.18v0.9h3.19C10.48,7.33,10.54,7.22,10.48,7.13z"/>
	<path class="st1" d="M9.8,5.9c0,0.1-0.09,0.18-0.19,0.18H7.18v0.2h2.6c0.13,0,0.24-0.11,0.24-0.24V5.78
		c-0.07,0-0.15,0.01-0.23,0.03V5.9z"/>
	<path class="st1" d="M6.71,7.13H3.8V5.96c-0.08,0-0.16,0-0.24-0.01v1.81c0,0.1,0.07,0.16,0.15,0.16h3.1c0.08,0,0.15-0.07,0.15-0.16
		V5.99C6.88,6,6.79,6,6.71,6V7.13z M5.26,7.71c-0.11,0-0.19-0.08-0.19-0.19c0-0.11,0.08-0.19,0.19-0.19c0.09,0,0.18,0.08,0.18,0.19
		C5.44,7.63,5.36,7.71,5.26,7.71"/>
	<path class="st1" d="M5.79,5.78c3,0,5.45-0.27,5.48-0.61c0-0.15-0.46-0.29-1.25-0.38V4.32c0-0.14-0.11-0.24-0.24-0.24h-2.6V4.3
		h2.42c0.09,0,0.18,0.08,0.18,0.18v0.96C9.11,5.53,8.1,5.6,6.95,5.64v-2c0-0.08-0.07-0.15-0.15-0.15h-3.1
		c-0.09,0-0.16,0.07-0.16,0.15v1.94C2.85,5.56,2.24,5.5,1.78,5.44V4.49h1.54V4.04c-0.16-0.08-0.38-0.12-0.5-0.12H2.58H2.54H2.33
		C2.1,3.92,1.6,4.07,1.6,4.31v0.46C0.78,4.88,0.3,5.02,0.3,5.16C0.32,5.5,2.77,5.78,5.79,5.78 M10.03,4.87
		c0.47,0.08,0.73,0.18,0.73,0.27c0,0.05-0.09,0.11-0.24,0.16c-0.12,0.04-0.28,0.07-0.49,0.11V4.87z M3.8,3.98h2.91v1.66
		c-0.3,0-0.61,0.01-0.92,0.01c-0.7,0-1.38-0.03-1.99-0.05V3.98z M2.22,4.26h0.7c0.03,0,0.05,0.03,0.05,0.05S2.95,4.36,2.92,4.36
		h-0.7c-0.01,0-0.05-0.03-0.05-0.05S2.2,4.26,2.22,4.26 M1.6,4.87v0.54C1.38,5.38,1.19,5.34,1.07,5.3C0.9,5.25,0.82,5.19,0.81,5.14
		C0.81,5.03,1.09,4.95,1.6,4.87"/>
</g>
<path class="st1" d="M1.78,6.92V5.8c-0.07,0-0.14-0.01-0.19-0.03V7.1c0,0.2,0.5,0.4,0.73,0.4h0.16h0.07h0.27
	c0.14,0,0.34-0.05,0.5-0.14V6.92H1.78z M2.58,7.29c-0.07,0-0.12-0.05-0.12-0.12s0.05-0.12,0.12-0.12S2.7,7.1,2.7,7.17
	S2.64,7.29,2.58,7.29z"/>
</svg>
