<?xml version="1.0" encoding="utf-8"?>
<!-- Generator: Adobe Illustrator 27.3.1, SVG Export Plug-In . SVG Version: 6.00 Build 0)  -->
<svg version="1.1" id="Layer_1" xmlns="http://www.w3.org/2000/svg" xmlns:xlink="http://www.w3.org/1999/xlink" x="0px" y="0px"
	 viewBox="0 0 11.52 11.52" style="enable-background:new 0 0 11.52 11.52;" xml:space="preserve">
<style type="text/css">
	.st0{fill:#28A8E0;}
	.st1{fill:none;stroke:#FFFFFF;stroke-width:0.4763;stroke-linecap:round;stroke-miterlimit:10;}
	.st2{fill:none;stroke:#FFFFFF;stroke-width:0.4763;stroke-miterlimit:10;}
	.st3{fill:#28A8E0;stroke:#FFFFFF;stroke-width:0.4763;stroke-linecap:round;stroke-miterlimit:10;}
</style>
<g>
	<g>
		<g>
			<circle class="st0" cx="5.76" cy="5.76" r="5.76"/>
		</g>
	</g>
</g>
<path class="st1" d="M1.73,4.81c0,0.65,1.79,1.18,4,1.18s4-0.53,4-1.18"/>
<path class="st1" d="M1.73,6.21c0,0.65,1.79,1.18,4,1.18s4-0.53,4-1.18"/>
<path class="st2" d="M6.75,10.51"/>
<ellipse class="st1" cx="5.73" cy="3.41" rx="4" ry="1.18"/>
<path class="st1" d="M9.73,7.62c0,0.65-1.79,1.18-4,1.18s-4-0.53-4-1.18V3.41c0,0.65,1.79,1.18,4,1.18s4-0.53,4-1.18V7.62z"/>
<circle class="st3" cx="5.79" cy="7.88" r="1.68"/>
<line class="st1" x1="7.11" y1="9.2" x2="8.11" y2="10.2"/>
</svg>
