<?xml version="1.0" encoding="utf-8"?>
<!-- Generator: Adobe Illustrator 27.3.1, SVG Export Plug-In . SVG Version: 6.00 Build 0)  -->
<svg version="1.1" id="Layer_1" xmlns="http://www.w3.org/2000/svg" xmlns:xlink="http://www.w3.org/1999/xlink" x="0px" y="0px"
	 viewBox="0 0 11.52 11.52" style="enable-background:new 0 0 11.52 11.52;" xml:space="preserve">
<style type="text/css">
	.st0{fill:#28A8E0;}
	.st1{fill-rule:evenodd;clip-rule:evenodd;fill:#FFFFFF;}
</style>
<g>
	<g>
		<g>
			<path class="st0" d="M11.52,5.76c0,3.18-2.58,5.76-5.76,5.76S0,8.94,0,5.76C0,2.58,2.58,0,5.76,0S11.52,2.58,11.52,5.76z"/>
		</g>
		<g>
			<polygon class="st1" points="0.88,5.55 0.88,6.1 2.53,6.1 2.53,6.62 3.33,5.82 2.53,5.02 2.53,5.55 			"/>
			<g>
				<path class="st1" d="M5.76,4.22c-0.87,0-1.59,0.72-1.59,1.6c0,0.89,0.71,1.6,1.59,1.6c0.87,0,1.59-0.72,1.59-1.6
					C7.35,4.94,6.63,4.22,5.76,4.22 M5.76,7.87c-1.12,0-2.03-0.92-2.03-2.05c0-1.13,0.91-2.05,2.03-2.05s2.03,0.92,2.03,2.05
					C7.79,6.95,6.88,7.87,5.76,7.87"/>
			</g>
			<g>
				<path class="st1" d="M8.98,3.27l0.27,0.46L7.84,4.55c0.12,0.14,0.21,0.3,0.29,0.47l1.4-0.81l0.27,0.46l0.3-1.11L8.98,3.27z"/>
			</g>
			<g>
				<path class="st1" d="M10.59,5.82L9.8,5.02v0.53H8.29C8.3,5.64,8.31,5.73,8.31,5.82c0,0.09-0.01,0.19-0.02,0.28H9.8v0.53
					L10.59,5.82z"/>
			</g>
			<g>
				<path class="st1" d="M10.09,8.04l-0.3-1.08L9.53,7.41l-1.4-0.79C8.05,6.79,7.95,6.94,7.84,7.08l1.41,0.79L8.98,8.32L10.09,8.04z
					"/>
			</g>
		</g>
	</g>
</g>
</svg>
