<?xml version="1.0" encoding="utf-8"?>
<!-- Generator: Adobe Illustrator 27.3.1, SVG Export Plug-In . SVG Version: 6.00 Build 0)  -->
<svg version="1.1" id="Layer_1" xmlns="http://www.w3.org/2000/svg" xmlns:xlink="http://www.w3.org/1999/xlink" x="0px" y="0px"
	 viewBox="0 0 11.52 11.52" style="enable-background:new 0 0 11.52 11.52;" xml:space="preserve">
<style type="text/css">
	.st0{fill:#28A8E0;}
	.st1{fill:#FFFFFF;}
</style>
<g>
	<g>
		<g>
			<path class="st0" d="M11.52,5.76c0,3.18-2.58,5.76-5.76,5.76S0,8.94,0,5.76C0,2.58,2.58,0,5.76,0S11.52,2.58,11.52,5.76z"/>
		</g>
	</g>
</g>
<path class="st1" d="M5.08,3.17c-0.13,0-0.24-0.11-0.24-0.24V2.5c0-0.13,0.11-0.24,0.24-0.24c0.13,0,0.24,0.11,0.24,0.24v0.43
	C5.32,3.07,5.21,3.17,5.08,3.17z"/>
<path class="st1" d="M6.41,3.17c-0.13,0-0.24-0.11-0.24-0.24V2.5c0-0.13,0.11-0.24,0.24-0.24S6.64,2.37,6.64,2.5v0.43
	C6.64,3.07,6.54,3.17,6.41,3.17z"/>
<path class="st1" d="M4.37,3.99V1.76c0-0.17,0.14-0.3,0.3-0.3h2.15c0.17,0,0.3,0.14,0.3,0.3v2.22H7.6V1.76
	c0-0.43-0.35-0.78-0.78-0.78H4.67c-0.43,0-0.78,0.35-0.78,0.78v2.22H4.37z"/>
<g>
	<path class="st1" d="M7.61,4.46H3.89c-0.28,0-0.52,0.23-0.52,0.52v3.67c0,0.93,0.75,1.68,1.68,1.68h1.38
		c0.93,0,1.68-0.75,1.68-1.68V4.98C8.13,4.69,7.9,4.46,7.61,4.46z M6.81,8.77c0,0.07-0.06,0.14-0.14,0.14H4.84
		c-0.07,0-0.14-0.06-0.14-0.14V7.14C4.71,7.06,4.77,7,4.84,7h0.1V6.77c0-0.5,0.34-0.85,0.81-0.85c0.47,0,0.81,0.35,0.81,0.85V7h0.1
		c0.07,0,0.14,0.06,0.14,0.14V8.77z"/>
	<path class="st1" d="M5.76,6.19c-0.32,0-0.54,0.23-0.54,0.58V7H6.3V6.77C6.3,6.42,6.08,6.19,5.76,6.19z"/>
</g>
</svg>
