<?xml version="1.0" encoding="utf-8"?>
<!-- Generator: Adobe Illustrator 27.3.1, SVG Export Plug-In . SVG Version: 6.00 Build 0)  -->
<svg version="1.1" id="Layer_1" xmlns="http://www.w3.org/2000/svg" xmlns:xlink="http://www.w3.org/1999/xlink" x="0px" y="0px"
	 viewBox="0 0 11.52 11.52" style="enable-background:new 0 0 11.52 11.52;" xml:space="preserve">
<style type="text/css">
	.st0{fill:#28A8E0;}
	.st1{fill:none;stroke:#FFFFFF;stroke-width:0.4233;stroke-miterlimit:10;}
</style>
<g>
	<g>
		<g>
			<path class="st0" d="M11.52,5.76c0,3.18-2.58,5.76-5.76,5.76S0,8.94,0,5.76S2.58,0,5.76,0S11.52,2.58,11.52,5.76z"/>
		</g>
	</g>
</g>
<g>
	<path class="st1" d="M3.45,6.84V2.29c0-0.43,0.35-0.78,0.78-0.78h3.26c0.43,0,0.78,0.35,0.78,0.78v6.97c0,0.43-0.35,0.78-0.78,0.78
		H4.23c-0.43,0-0.78-0.35-0.78-0.78V7.92"/>
	<path class="st1" d="M5.81,8.13H1.77c-0.26,0-0.48-0.21-0.48-0.48V7.53c0-0.26,0.21-0.48,0.48-0.48h4.04
		c0.26,0,0.48,0.21,0.48,0.48v0.12C6.29,7.91,6.08,8.13,5.81,8.13z"/>
</g>
<path class="st1" d="M4.44,6.96c0.23-0.49,0.73-0.83,1.31-0.83c0.8,0,1.45,0.65,1.45,1.45S6.55,9.04,5.75,9.04
	c-0.6,0-1.11-0.36-1.34-0.88"/>
<path class="st1" d="M5.15,3.47H4.62c-0.11,0-0.19-0.09-0.19-0.19V2.74c0-0.11,0.09-0.19,0.19-0.19h0.53c0.11,0,0.19,0.09,0.19,0.19
	v0.53C5.34,3.38,5.26,3.47,5.15,3.47z"/>
<path class="st1" d="M5.15,5.14H4.62c-0.11,0-0.19-0.09-0.19-0.19V4.41c0-0.11,0.09-0.19,0.19-0.19h0.53c0.11,0,0.19,0.09,0.19,0.19
	v0.53C5.34,5.05,5.26,5.14,5.15,5.14z"/>
<path class="st1" d="M6.55,3.47h0.53c0.11,0,0.19-0.09,0.19-0.19V2.74c0-0.11-0.09-0.19-0.19-0.19H6.55c-0.11,0-0.19,0.09-0.19,0.19
	v0.53C6.36,3.38,6.44,3.47,6.55,3.47z"/>
<path class="st1" d="M6.55,5.14h0.53c0.11,0,0.19-0.09,0.19-0.19V4.41c0-0.11-0.09-0.19-0.19-0.19H6.55c-0.11,0-0.19,0.09-0.19,0.19
	v0.53C6.36,5.05,6.44,5.14,6.55,5.14z"/>
</svg>
