<?xml version="1.0" encoding="utf-8"?>
<!-- Generator: Adobe Illustrator 27.3.1, SVG Export Plug-In . SVG Version: 6.00 Build 0)  -->
<svg version="1.1" id="Layer_1" xmlns="http://www.w3.org/2000/svg" xmlns:xlink="http://www.w3.org/1999/xlink" x="0px" y="0px"
	 viewBox="0 0 11.52 11.52" style="enable-background:new 0 0 11.52 11.52;" xml:space="preserve">
<style type="text/css">
	.st0{fill:#28A8E0;}
	.st1{fill-rule:evenodd;clip-rule:evenodd;fill:#FFFFFF;}
</style>
<g>
	<path class="st0" d="M11.52,5.76c0,3.18-2.58,5.76-5.76,5.76S0,8.94,0,5.76C0,2.58,2.58,0,5.76,0S11.52,2.58,11.52,5.76z"/>
</g>
<g>
	<path class="st1" d="M3.05,4.43h1.36c0.01,0,0.03-0.01,0.03-0.03V3.09L3.89,2.54H3.05c-0.01,0-0.03,0.01-0.03,0.03V4.4
		C3.02,4.42,3.04,4.43,3.05,4.43z M3.16,2.67h0.61v0.42c0,0.08,0.06,0.1,0.1,0.1h0.43v1.1H3.16V2.67z"/>
	<polygon class="st1" points="5.88,2.8 5.61,2.8 5.61,1.93 5.32,1.93 5.32,2.8 5.05,2.8 5.46,3.22 	"/>
	<polygon class="st1" points="8.07,4.07 8.07,4.85 7.8,4.85 8.22,5.26 8.63,4.85 8.36,4.85 8.36,4.07 	"/>
	<path class="st1" d="M9.03,6.34L8.06,5.37C8.05,5.35,8.02,5.34,8,5.34H7.13l0,0.25h0.8l0.65,0.66H6.96V4.51L6.08,3.62H4.75
		c-0.02,0-0.05,0.02-0.05,0.05v2.59H2.98l0.65-0.66h0.9l0-0.25H3.57c-0.03,0-0.04,0.01-0.07,0.03L2.52,6.34
		c-0.03,0.03-0.03,0.07-0.01,0.1C2.52,6.47,2.55,6.5,2.58,6.5h0.2v3.1c0,0.06,0.03,0.09,0.09,0.09h5.84c0.04,0,0.09-0.03,0.09-0.09
		V6.5h0.19c0.03,0,0.06-0.01,0.08-0.06C9.06,6.41,9.06,6.37,9.03,6.34z M4.91,3.83h0.98v0.67c0,0.12,0.09,0.17,0.17,0.17h0.69v1.58
		H4.91V3.83z M8.51,9.4H3.06V6.5h5.46V9.4z"/>
	<path class="st1" d="M4.11,4.01H3.35c-0.04,0-0.07,0.03-0.07,0.07c0,0.04,0.03,0.07,0.07,0.07h0.77c0.04,0,0.07-0.03,0.07-0.07
		C4.18,4.04,4.15,4.01,4.11,4.01z"/>
	<path class="st1" d="M4.11,3.35H3.35c-0.04,0-0.07,0.03-0.07,0.07c0,0.04,0.03,0.07,0.07,0.07h0.77c0.04,0,0.07-0.03,0.07-0.07
		C4.18,3.38,4.15,3.35,4.11,3.35z"/>
	<path class="st1" d="M4.11,3.68H3.35c-0.04,0-0.07,0.03-0.07,0.07v0c0,0.04,0.03,0.07,0.07,0.07h0.77c0.04,0,0.07-0.03,0.07-0.07v0
		C4.18,3.71,4.15,3.68,4.11,3.68z"/>
	<path class="st1" d="M7,3.84h1.69c0.02,0,0.04-0.02,0.04-0.04V2.17L8.04,1.48H7c-0.02,0-0.04,0.02-0.04,0.04V3.8
		C6.97,3.82,6.98,3.84,7,3.84z M7.13,1.65h0.76v0.53c0,0.1,0.07,0.13,0.13,0.13h0.54v1.37H7.13V1.65z"/>
	<path class="st1" d="M8.32,3.31H7.37c-0.05,0-0.08,0.04-0.08,0.08s0.04,0.08,0.08,0.08h0.95c0.05,0,0.08-0.04,0.08-0.08
		S8.37,3.31,8.32,3.31z"/>
	<path class="st1" d="M8.32,2.49H7.37c-0.05,0-0.08,0.04-0.08,0.08c0,0.05,0.04,0.08,0.08,0.08h0.95c0.05,0,0.08-0.04,0.08-0.08
		C8.41,2.53,8.37,2.49,8.32,2.49z"/>
	<path class="st1" d="M8.32,2.9H7.37c-0.05,0-0.08,0.04-0.08,0.08c0,0.05,0.04,0.08,0.08,0.08h0.95c0.05,0,0.08-0.04,0.08-0.08
		C8.41,2.94,8.37,2.9,8.32,2.9z"/>
	<path class="st1" d="M6.44,4.92H5.22c-0.06,0-0.11,0.05-0.11,0.11c0,0.06,0.05,0.11,0.11,0.11h1.22c0.06,0,0.11-0.05,0.11-0.11
		C6.55,4.97,6.5,4.92,6.44,4.92z"/>
	<path class="st1" d="M6.44,5.41H5.22c-0.06,0-0.11,0.05-0.11,0.11v0c0,0.06,0.05,0.11,0.11,0.11h1.22c0.06,0,0.11-0.05,0.11-0.11v0
		C6.55,5.45,6.5,5.41,6.44,5.41z"/>
	<path class="st1" d="M6.44,5.9H5.22C5.16,5.9,5.11,5.94,5.11,6c0,0.06,0.05,0.11,0.11,0.11h1.22C6.5,6.11,6.55,6.06,6.55,6
		C6.55,5.94,6.5,5.9,6.44,5.9z"/>
</g>
</svg>
