<?xml version="1.0" encoding="utf-8"?>
<!-- Generator: Adobe Illustrator 27.3.1, SVG Export Plug-In . SVG Version: 6.00 Build 0)  -->
<svg version="1.1" id="Layer_1" xmlns="http://www.w3.org/2000/svg" xmlns:xlink="http://www.w3.org/1999/xlink" x="0px" y="0px"
	 viewBox="0 0 11.52 11.52" style="enable-background:new 0 0 11.52 11.52;" xml:space="preserve">
<style type="text/css">
	.st0{fill:#28A8E0;}
	.st1{fill-rule:evenodd;clip-rule:evenodd;fill:#FFFFFF;}
</style>
<g>
	<g>
		<g>
			<path class="st0" d="M11.52,5.76c0,3.18-2.58,5.76-5.76,5.76S0,8.94,0,5.76C0,2.58,2.58,0,5.76,0S11.52,2.58,11.52,5.76z"/>
		</g>
		<g>
			<g>
				<path class="st1" d="M6.73,5.34c0-0.03-0.01-0.05-0.01-0.09c0-0.13,0.04-0.26,0.12-0.35L7.3,4.14H2.51
					c-0.16,0-0.31,0.03-0.43,0.07L5.2,6.43L6.73,5.34z"/>
			</g>
			<g>
				<path class="st1" d="M1.8,4.46C1.7,4.57,1.66,4.69,1.66,4.83v2.89c0,0.14,0.04,0.25,0.11,0.36L4,6.04L1.8,4.46z"/>
			</g>
			<g>
				<path class="st1" d="M5.35,6.79C5.3,6.82,5.24,6.84,5.2,6.84c-0.05,0-0.12-0.02-0.14-0.05L4.33,6.27l-2.29,2.1
					C2.18,8.45,2.34,8.5,2.51,8.5h5.36c0.18,0,0.34-0.05,0.49-0.13l-2.29-2.1L5.35,6.79z"/>
			</g>
			<g>
				<path class="st1" d="M7.32,5.84c-0.16,0-0.31-0.06-0.42-0.16L6.39,6.04l2.28,2.03c0.07-0.11,0.12-0.22,0.12-0.36V5.84H7.32z"/>
			</g>
			<g>
				<path class="st1" d="M8.73,5.11c-0.12,0-0.2-0.1-0.2-0.2c0-0.12,0.08-0.21,0.2-0.21c0.12,0,0.2,0.1,0.2,0.21
					C8.93,5.02,8.85,5.11,8.73,5.11 M8.59,3.68c0-0.08,0.06-0.16,0.15-0.16c0.08,0,0.16,0.07,0.16,0.16V4.3
					c0,0.08-0.07,0.15-0.16,0.15c-0.08,0-0.15-0.06-0.15-0.15V3.68z M10.35,5.13L10.35,5.13l-0.01-0.02V5.1L8.93,2.72
					C8.9,2.65,8.82,2.6,8.73,2.6c-0.1,0-0.18,0.06-0.21,0.15L7.14,5.09c-0.03,0.04-0.05,0.1-0.05,0.15c0,0.13,0.11,0.23,0.24,0.23
					h2.81c0.14,0,0.24-0.11,0.24-0.23C10.38,5.2,10.37,5.16,10.35,5.13"/>
			</g>
		</g>
	</g>
</g>
</svg>
