<?xml version="1.0" encoding="utf-8"?>
<!-- Generator: Adobe Illustrator 27.3.1, SVG Export Plug-In . SVG Version: 6.00 Build 0)  -->
<svg version="1.1" id="Layer_1" xmlns="http://www.w3.org/2000/svg" xmlns:xlink="http://www.w3.org/1999/xlink" x="0px" y="0px"
	 viewBox="0 0 11.52 11.52" style="enable-background:new 0 0 11.52 11.52;" xml:space="preserve">
<style type="text/css">
	.st0{fill:#28A8E0;}
	.st1{fill:#FFFFFF;}
</style>
<g>
	<g>
		<g>
			<g>
				<path class="st0" d="M11.52,5.76c0,3.18-2.58,5.76-5.76,5.76S0,8.94,0,5.76C0,2.58,2.58,0,5.76,0S11.52,2.58,11.52,5.76z"/>
			</g>
		</g>
	</g>
</g>
<g>
	<path class="st1" d="M9.5,4.18C9.29,3.7,9,3.26,8.63,2.89S7.82,2.23,7.34,2.02C6.84,1.81,6.31,1.7,5.76,1.7S4.68,1.81,4.18,2.02
		c-0.48,0.2-0.92,0.5-1.29,0.87S2.23,3.7,2.02,4.18C1.81,4.68,1.7,5.21,1.7,5.76v0.21h2.01H7.8h2.01V5.76
		C9.82,5.21,9.71,4.68,9.5,4.18z M8.33,3.19c0.08,0.08,0.15,0.16,0.22,0.24C8.28,3.54,7.99,3.63,7.71,3.7
		C7.62,3.43,7.51,3.17,7.39,2.94c-0.12-0.23-0.26-0.43-0.41-0.6c0.06,0.02,0.13,0.05,0.19,0.07C7.61,2.59,8,2.86,8.33,3.19z
		 M5.1,2.38c0.15-0.12,0.3-0.19,0.45-0.23v1.79C5.1,3.93,4.66,3.89,4.22,3.8C4.3,3.56,4.4,3.34,4.5,3.14
		C4.68,2.81,4.88,2.56,5.1,2.38z M5.97,2.15c0.15,0.04,0.3,0.11,0.45,0.23c0.22,0.18,0.42,0.43,0.59,0.76
		c0.11,0.2,0.2,0.42,0.28,0.66C6.86,3.89,6.42,3.93,5.97,3.95V2.15z M4.35,2.41c0.06-0.03,0.13-0.05,0.19-0.07
		c-0.15,0.17-0.28,0.37-0.41,0.6C4.01,3.17,3.9,3.43,3.81,3.7C3.53,3.63,3.24,3.54,2.97,3.43c0.07-0.08,0.14-0.17,0.22-0.24
		C3.52,2.86,3.91,2.59,4.35,2.41z M2.41,4.35c0.08-0.2,0.18-0.38,0.3-0.56C3.03,3.92,3.36,4.03,3.7,4.11
		C3.59,4.56,3.52,5.05,3.51,5.55H2.13C2.16,5.13,2.25,4.73,2.41,4.35z M4.11,4.21c0.47,0.1,0.95,0.15,1.44,0.16v1.18H3.93
		C3.95,5.08,4.01,4.62,4.11,4.21z M5.97,5.55V4.37C6.46,4.36,6.94,4.3,7.41,4.21c0.1,0.42,0.16,0.87,0.18,1.34H5.97z M8.01,5.55
		C8,5.05,7.93,4.56,7.82,4.11c0.33-0.09,0.66-0.19,0.99-0.32c0.11,0.18,0.21,0.36,0.3,0.56c0.16,0.38,0.26,0.79,0.28,1.2H8.01z"/>
	<path class="st1" d="M5.05,6.99c0-0.35-0.28-0.63-0.63-0.63c-0.35,0-0.63,0.28-0.63,0.63c0,0.35,0.28,0.63,0.63,0.63
		C4.77,7.62,5.05,7.34,5.05,6.99z M4.68,7.25C4.61,7.32,4.52,7.36,4.42,7.36c-0.1,0-0.19-0.04-0.26-0.11
		C4.09,7.18,4.05,7.09,4.05,6.99c0-0.1,0.04-0.19,0.11-0.26c0.07-0.07,0.16-0.11,0.26-0.11h0c0.1,0,0.19,0.04,0.26,0.11
		C4.75,6.8,4.79,6.89,4.79,6.99C4.79,7.09,4.75,7.18,4.68,7.25z"/>
	<path class="st1" d="M5.78,7.58c-0.28,0-0.51,0.23-0.51,0.51c0,0.28,0.23,0.51,0.51,0.51c0.28,0,0.51-0.23,0.51-0.51
		C6.29,7.81,6.06,7.58,5.78,7.58z M5.99,8.3C5.93,8.35,5.86,8.38,5.78,8.38c-0.08,0-0.15-0.03-0.21-0.09
		C5.51,8.24,5.48,8.17,5.48,8.09c0-0.08,0.03-0.15,0.09-0.21C5.63,7.82,5.7,7.79,5.78,7.79c0.08,0,0.15,0.03,0.21,0.09
		c0.06,0.06,0.09,0.13,0.09,0.21C6.07,8.17,6.04,8.24,5.99,8.3z"/>
	<path class="st1" d="M4.91,8.94c-0.22,0-0.41,0.18-0.41,0.41c0,0.22,0.18,0.41,0.41,0.41c0.22,0,0.41-0.18,0.41-0.41
		C5.31,9.12,5.13,8.94,4.91,8.94z M4.91,9.59c-0.06,0-0.12-0.02-0.17-0.07C4.7,9.47,4.67,9.41,4.67,9.35c0-0.06,0.02-0.12,0.07-0.17
		c0.04-0.04,0.1-0.07,0.17-0.07h0c0.06,0,0.12,0.02,0.17,0.07c0.04,0.04,0.07,0.1,0.07,0.17C5.15,9.48,5.04,9.59,4.91,9.59z"/>
	<path class="st1" d="M6.62,8.94c-0.22,0-0.41,0.18-0.41,0.41c0,0.22,0.18,0.41,0.41,0.41c0.22,0,0.41-0.18,0.41-0.41
		C7.02,9.12,6.84,8.94,6.62,8.94z M6.62,9.59c-0.06,0-0.12-0.02-0.17-0.07C6.4,9.47,6.38,9.41,6.38,9.35c0-0.06,0.02-0.12,0.07-0.17
		c0.04-0.04,0.1-0.07,0.17-0.07h0c0.06,0,0.12,0.02,0.17,0.07c0.04,0.04,0.07,0.1,0.07,0.17C6.85,9.48,6.75,9.59,6.62,9.59z"/>
	<polygon class="st1" points="1.66,6.51 2.42,7.66 3.18,6.51 	"/>
	<path class="st1" d="M8.9,6.36c-0.35,0-0.63,0.28-0.63,0.63c0,0.35,0.28,0.63,0.63,0.63c0.35,0,0.63-0.28,0.63-0.63
		C9.53,6.64,9.25,6.36,8.9,6.36z M9.16,7.25C9.09,7.32,9,7.36,8.9,7.36c-0.1,0-0.19-0.04-0.26-0.11C8.57,7.18,8.53,7.09,8.53,6.99
		c0-0.1,0.04-0.19,0.11-0.26C8.71,6.66,8.8,6.62,8.9,6.62h0c0.1,0,0.19,0.04,0.26,0.11C9.23,6.8,9.27,6.89,9.27,6.99
		C9.27,7.09,9.23,7.18,9.16,7.25z"/>
	<polygon class="st1" points="7.66,6.51 6.14,6.51 6.9,7.66 	"/>
	<polygon class="st1" points="3.53,8.91 4.14,7.99 2.93,7.99 	"/>
	<polygon class="st1" points="8,8.91 8.61,7.99 7.4,7.99 	"/>
</g>
</svg>
