<?xml version="1.0" encoding="utf-8"?>
<!-- Generator: Adobe Illustrator 27.3.1, SVG Export Plug-In . SVG Version: 6.00 Build 0)  -->
<svg version="1.1" id="Layer_1" xmlns="http://www.w3.org/2000/svg" xmlns:xlink="http://www.w3.org/1999/xlink" x="0px" y="0px"
	 viewBox="0 0 11.52 11.52" style="enable-background:new 0 0 11.52 11.52;" xml:space="preserve">
<style type="text/css">
	.st0{fill:#28A8E0;}
	.st1{fill-rule:evenodd;clip-rule:evenodd;fill:#FFFFFF;}
	.st2{fill:#FFFFFF;}
</style>
<g>
	<g>
		<g>
			<path class="st0" d="M11.52,5.76c0,3.18-2.58,5.76-5.76,5.76S0,8.94,0,5.76C0,2.58,2.58,0,5.76,0S11.52,2.58,11.52,5.76z"/>
		</g>
	</g>
</g>
<g>
	<g>
		<path class="st1" d="M6.26,5.7c0-0.31-0.2-0.55-0.51-0.55C5.44,5.11,5.2,5.39,5.2,5.66c0,0.31,0.24,0.55,0.51,0.55
			C6.02,6.21,6.26,5.98,6.26,5.7z M6.93,6.25c0,0.79,0.59,1.38,1.37,1.38c0.78-0.04,1.33-0.67,1.33-1.42
			c-0.04-0.75-0.67-1.34-1.41-1.3C7.51,4.91,6.89,5.54,6.93,6.25z M1.87,6.25C1.87,7,2.45,7.63,3.2,7.63c0.75,0,1.37-0.59,1.37-1.34
			c0-0.75-0.59-1.38-1.29-1.38C2.49,4.91,1.87,5.47,1.87,6.25z M5.4,3.58c0.24-0.12,0.47-0.12,0.71,0c0.04-0.04,0.04-0.12,0.08-0.16
			C6.46,3.02,7,2.99,7.36,3.3c0.12,0.12,0.24,0.24,0.35,0.35c0.04,0.04,0.08,0.08,0.12,0.08c0.39,0,0.71,0.16,1.02,0.35
			c0.24,0.24,0.51,0.43,0.78,0.67c0.71,0.63,0.86,1.77,0.35,2.6C9.52,8.02,8.73,8.42,7.91,8.26C7.08,8.1,6.46,7.51,6.3,6.69
			c0-0.04-0.04-0.04-0.04-0.08c-0.35,0.16-0.67,0.2-1.06,0c0,0.04,0,0.08,0,0.12C4.97,7.75,3.95,8.42,2.96,8.26
			C2.02,8.14,1.32,7.43,1.2,6.49C1.12,5.82,1.36,5.23,1.87,4.76c0.27-0.24,0.59-0.47,0.9-0.71C3,3.85,3.32,3.73,3.63,3.73
			c0.04,0,0.12-0.04,0.12-0.08c0.12-0.08,0.24-0.2,0.35-0.31c0.43-0.39,0.98-0.31,1.26,0.2C5.36,3.54,5.4,3.54,5.4,3.58z"/>
		<path class="st2" d="M3.98,6.99C3.74,7.22,3.47,7.38,3.12,7.34C2.69,7.3,2.41,7.06,2.26,6.63C2.14,6.36,2.22,6.04,2.41,5.77
			c0,0.43,0.12,0.75,0.47,1.02C3.2,7.03,3.55,7.06,3.98,6.99z"/>
		<path class="st2" d="M9.04,6.99C8.81,7.22,8.53,7.38,8.18,7.34C7.79,7.3,7.47,7.1,7.32,6.71C7.2,6.4,7.24,6.08,7.44,5.77
			C7.55,6.71,8.06,7.14,9.04,6.99z"/>
	</g>
</g>
</svg>
