<?xml version="1.0" encoding="utf-8"?>
<!-- Generator: Adobe Illustrator 27.3.1, SVG Export Plug-In . SVG Version: 6.00 Build 0)  -->
<svg version="1.1" id="Layer_1" xmlns="http://www.w3.org/2000/svg" xmlns:xlink="http://www.w3.org/1999/xlink" x="0px" y="0px"
	 viewBox="0 0 11.52 11.52" style="enable-background:new 0 0 11.52 11.52;" xml:space="preserve">
<style type="text/css">
	.st0{fill:#28A8E0;}
	.st1{fill-rule:evenodd;clip-rule:evenodd;fill:#FFFFFF;}
</style>
<g>
	<g>
		<g>
			<path class="st0" d="M11.52,5.76c0,3.18-2.58,5.76-5.76,5.76S0,8.94,0,5.76C0,2.58,2.58,0,5.76,0S11.52,2.58,11.52,5.76z"/>
		</g>
		<g>
			<g>
				<path class="st1" d="M5.46,5.39L5.46,5.39C5.45,5.42,5.42,5.45,5.39,5.45C5.35,5.43,5.34,5.39,5.34,5.36
					C5.46,4.98,5.86,4.72,6.28,4.8c0.04,0,0.06,0.04,0.04,0.07c0,0.04-0.03,0.06-0.06,0.04C5.9,4.87,5.57,5.06,5.46,5.39 M6.8,5.87
					C7,5.48,6.85,4.97,6.44,4.75c-0.4-0.21-0.91-0.06-1.12,0.34C5.1,5.49,5.26,6.01,5.66,6.22C6.07,6.44,6.58,6.27,6.8,5.87
					 M7.71,4.15c-1.14,0-1.75-0.55-2-0.81c-0.23,0.26-0.88,0.81-2,0.81c-0.15,0-0.28-0.03-0.43-0.03c0.03,0.11,0.03,0.26,0.07,0.48
					c0.03,0.39,0.08,0.92,0.26,1.47C3.78,6.69,4.03,7.32,4.4,7.86c0.06-0.1,0.21-0.39,0.67-1.23L5.2,6.7l0.15-0.29
					C4.9,6.08,4.75,5.45,5.02,4.92c0.3-0.56,1.01-0.78,1.58-0.48c0.56,0.3,0.78,1.02,0.48,1.58c-0.28,0.51-0.87,0.73-1.4,0.56
					L5.52,6.88l0.14,0.08c0,0-0.12,0.25-0.77,1.45c0.23,0.22,0.51,0.41,0.83,0.56c1.76-0.81,2.24-3.19,2.37-4.36
					c0.03-0.22,0.03-0.37,0.03-0.48C7.96,4.13,7.83,4.15,7.71,4.15"/>
			</g>
			<g>
				<path class="st1" d="M8.38,4.42c-0.14,1.32-0.69,4-2.67,4.92C4.39,8.74,3.7,7.38,3.36,6.09c-0.21-0.61-0.28-1.22-0.3-1.66
					C3.01,4.19,3.01,4.01,2.98,3.87c0.17,0,0.3,0.04,0.47,0.04c1.27,0,2-0.61,2.26-0.92c0.28,0.32,0.96,0.92,2.26,0.92
					c0.14,0,0.28-0.04,0.45-0.04C8.42,4.01,8.42,4.19,8.38,4.42 M8.56,3.54C8.35,3.57,8.15,3.57,7.97,3.57
					c-0.78,0-1.32-0.19-1.67-0.44c-0.18-0.14-0.28-0.23-0.34-0.3c-0.04-0.07-0.07-0.1-0.11-0.1V2.69L5.71,2.48L5.59,2.69L5.55,2.73
					C5.41,2.85,4.83,3.57,3.45,3.57c-0.19,0-0.4,0-0.61-0.03H2.67v0.17c0,0,0,1.15,0.39,2.48C3.38,7.51,4.14,9,5.66,9.69h0.06h0.07
					C7.29,9,8.01,7.51,8.38,6.18c0.34-1.32,0.34-2.48,0.34-2.48V3.54H8.56z"/>
			</g>
		</g>
	</g>
</g>
</svg>
