<?xml version="1.0" encoding="utf-8"?>
<!-- Generator: Adobe Illustrator 27.3.1, SVG Export Plug-In . SVG Version: 6.00 Build 0)  -->
<svg version="1.1" id="Layer_1" xmlns="http://www.w3.org/2000/svg" xmlns:xlink="http://www.w3.org/1999/xlink" x="0px" y="0px"
	 viewBox="0 0 11.52 11.52" style="enable-background:new 0 0 11.52 11.52;" xml:space="preserve">
<style type="text/css">
	.st0{fill:#6ABD46;}
	.st1{fill:#FFFFFF;}
</style>
<g>
	<g>
		<g>
			<g>
				<path class="st0" d="M11.52,5.76c0,3.18-2.58,5.76-5.76,5.76S0,8.94,0,5.76C0,2.58,2.58,0,5.76,0S11.52,2.58,11.52,5.76z"/>
			</g>
		</g>
	</g>
</g>
<path class="st1" d="M5.74,1.15c-2.54,0-4.6,2.06-4.6,4.6s2.06,4.6,4.6,4.6s4.6-2.06,4.6-4.6S8.28,1.15,5.74,1.15z M5.74,9.47
	c-0.5,0-0.99-0.1-1.45-0.29c-0.44-0.19-0.84-0.46-1.18-0.8C2.77,8.04,2.51,7.64,2.32,7.2C2.12,6.74,2.03,6.26,2.03,5.75
	s0.1-0.99,0.29-1.45C2.45,4,2.62,3.71,2.83,3.45C4.26,4.88,6.7,7.33,8.05,8.67C7.79,8.88,7.5,9.05,7.19,9.18
	C6.73,9.37,6.25,9.47,5.74,9.47z M8.67,8.05C7.33,6.7,4.88,4.25,3.45,2.83c0.26-0.2,0.54-0.37,0.85-0.5
	c0.46-0.19,0.94-0.29,1.45-0.29s0.99,0.1,1.45,0.29c0.44,0.19,0.84,0.46,1.18,0.8c0.34,0.34,0.61,0.74,0.8,1.18
	c0.19,0.46,0.29,0.94,0.29,1.45S9.36,6.74,9.17,7.2C9.04,7.51,8.87,7.79,8.67,8.05z"/>
</svg>
