<?xml version="1.0" encoding="utf-8"?>
<!-- Generator: Adobe Illustrator 27.3.1, SVG Export Plug-In . SVG Version: 6.00 Build 0)  -->
<svg version="1.1" id="Layer_1" xmlns="http://www.w3.org/2000/svg" xmlns:xlink="http://www.w3.org/1999/xlink" x="0px" y="0px"
	 viewBox="0 0 11.52 11.52" style="enable-background:new 0 0 11.52 11.52;" xml:space="preserve">
<style type="text/css">
	.st0{fill:#28A8E0;}
	.st1{fill:#FFFFFF;}
</style>
<g>
	<g>
		<g>
			<circle class="st0" cx="5.76" cy="5.76" r="5.76"/>
		</g>
	</g>
</g>
<g>
	<g>
		<path class="st1" d="M3.81,5.76c0-0.07,0-0.14,0.01-0.21C3.67,5.5,3.51,5.47,3.35,5.46c-0.03,0-0.06,0-0.09,0
			c-0.03,0-0.06,0-0.09,0c-0.01,0.1-0.02,0.2-0.02,0.3c0,0.35,0.07,0.69,0.2,1.01C3.49,7.08,3.67,7.36,3.91,7.6
			c0.23,0.23,0.51,0.42,0.81,0.55c0.03-0.05,0.06-0.1,0.09-0.16c0.07-0.14,0.13-0.3,0.16-0.45c-0.22-0.1-0.42-0.23-0.59-0.4
			C4.01,6.77,3.81,6.28,3.81,5.76z"/>
		<path class="st1" d="M7.22,3.6c-0.14-0.1-0.29-0.18-0.45-0.24c-0.32-0.14-0.66-0.2-1.01-0.2c-0.35,0-0.69,0.07-1.01,0.2
			C4.55,3.44,4.37,3.54,4.2,3.67c0.03,0.05,0.06,0.11,0.09,0.16c0.09,0.13,0.19,0.26,0.32,0.36c0.33-0.24,0.73-0.37,1.15-0.37
			c0.12,0,0.24,0.01,0.36,0.03L7.22,3.6z"/>
	</g>
	<g>
		<path class="st1" d="M10.24,6.94c0.06,0.42-0.02,0.87-0.25,1.26C9.43,9.16,8.2,9.49,7.24,8.94c-0.35-0.2-0.61-0.49-0.78-0.82
			C6.35,7.9,6.28,7.67,6.25,7.43c-0.2-0.34-0.34-0.7-0.42-1.08c-0.03,0-0.05,0.01-0.08,0.01c-0.18,0-0.35-0.08-0.45-0.21L5.05,6.28
			c0.02,0.04,0.04,0.09,0.06,0.13c0.24,0.56,0.2,1.19-0.06,1.7C4.88,8.45,4.61,8.74,4.27,8.94C3.3,9.49,2.08,9.16,1.52,8.2
			C0.97,7.24,1.3,6.01,2.26,5.46c0.35-0.2,0.73-0.29,1.1-0.27C3.94,5.22,4.5,5.5,4.87,5.99C4.9,6.03,4.92,6.07,4.95,6.11L5.2,5.96
			C5.18,5.9,5.16,5.83,5.16,5.76c0-0.29,0.21-0.53,0.49-0.58V4.89c-0.05,0-0.1-0.01-0.15-0.01C4.9,4.8,4.38,4.46,4.07,3.97
			c-0.2-0.31-0.32-0.69-0.32-1.09c0-1.11,0.9-2.01,2.01-2.01s2.01,0.9,2.01,2.01c0,0.21-0.03,0.42-0.1,0.62l0.46-0.1L8.61,3.5
			C8.55,1.98,7.29,0.76,5.75,0.76c-1.58,0-2.86,1.28-2.86,2.86c0,0.17,0.02,0.35,0.05,0.51C2.78,4.19,2.62,4.26,2.47,4.35
			C1.1,5.14,0.63,6.89,1.42,8.26c0.79,1.37,2.54,1.84,3.91,1.05c0.15-0.09,0.29-0.19,0.42-0.3C5.88,9.12,6.02,9.22,6.17,9.3
			c1.37,0.79,3.12,0.32,3.91-1.05c0.35-0.61,0.45-1.3,0.34-1.94C10.38,6.53,10.32,6.74,10.24,6.94z"/>
	</g>
	<path class="st1" d="M9.35,4.12v0.26L8.57,4.2V3.94l-0.44-0.1l-0.45,0.1V4.2L6.91,4.38V4.12L6.21,4.28v1.38
		c0,1.28,0.8,2.38,1.93,2.83c1.12-0.46,1.92-1.55,1.92-2.83V4.28L9.35,4.12z M6.74,5.66V4.97l1.4-0.32c0.52,0.12,0.84,0.2,1.05,0.25
		L7.11,6.96C6.96,6.72,6.85,6.45,6.79,6.17C6.75,6.01,6.74,5.84,6.74,5.66z M9.47,6.17C9.32,6.91,8.82,7.56,8.14,7.91
		C7.86,7.77,7.62,7.59,7.41,7.37l2.12-2.12v0.41C9.53,5.84,9.51,6.01,9.47,6.17z"/>
</g>
</svg>
