<?xml version="1.0" encoding="utf-8"?>
<!-- Generator: Adobe Illustrator 27.3.1, SVG Export Plug-In . SVG Version: 6.00 Build 0)  -->
<svg version="1.1" id="Layer_1" xmlns="http://www.w3.org/2000/svg" xmlns:xlink="http://www.w3.org/1999/xlink" x="0px" y="0px"
	 viewBox="0 0 11.52 11.52" style="enable-background:new 0 0 11.52 11.52;" xml:space="preserve">
<style type="text/css">
	.st0{fill:#28A8E0;}
	.st1{fill:#FFFFFF;}
</style>
<g>
	<g>
		<g>
			<path class="st0" d="M11.52,5.76c0,3.18-2.58,5.76-5.76,5.76S0,8.94,0,5.76C0,2.58,2.58,0,5.76,0S11.52,2.58,11.52,5.76z"/>
		</g>
	</g>
</g>
<g>
	<path class="st1" d="M8.34,7.56C9.41,7.56,10,7.18,10,6.42c0-0.83-0.41-1.07-0.9-1.24c0.03-0.45-0.38-0.69-0.69-0.69
		c0.48-2.7-3.55-2.97-3.89-1.04c-1.1-0.59-1.93,0.35-1.79,1.04c-2.14,0-1.93,3.08-0.1,3.08c0.65,0,2.55,0,2.55,0s0.18,0,0.47,0v0.42
		c-0.1,0.04-0.17,0.11-0.21,0.21H3.68C3.62,8.05,3.49,7.95,3.33,7.95c-0.2,0-0.37,0.17-0.37,0.37c0,0.2,0.17,0.37,0.37,0.37
		c0.16,0,0.29-0.1,0.34-0.23h1.75C5.48,8.6,5.62,8.69,5.77,8.69c0.16,0,0.29-0.1,0.34-0.23h1.75C7.92,8.6,8.05,8.69,8.21,8.69
		c0.2,0,0.37-0.17,0.37-0.37c0-0.2-0.17-0.37-0.37-0.37c-0.16,0-0.29,0.1-0.34,0.23H6.12C6.08,8.09,6,8.02,5.91,7.98V7.56
		C6.62,7.56,7.68,7.56,8.34,7.56z M5.79,7.2L5.65,7.14c-0.4-0.16-0.75-0.44-1-0.8C4.4,5.98,4.27,5.55,4.27,5.1V3.98l1.52-0.34
		l1.52,0.34V5.1c0,0.45-0.13,0.88-0.39,1.24C6.67,6.7,6.33,6.98,5.93,7.14L5.79,7.2z"/>
	<path class="st1" d="M6.52,4.18v0.15L6.05,4.23V4.07L5.79,4.01L5.52,4.07v0.15L5.06,4.33V4.18L4.64,4.27V5.1
		c0,0.77,0.48,1.42,1.15,1.7c0.67-0.27,1.15-0.93,1.15-1.7V4.27L6.52,4.18z M4.95,5.1V4.69l0.84-0.19C6.1,4.57,6.3,4.61,6.42,4.64
		L5.17,5.88C5.08,5.74,5.02,5.58,4.98,5.41C4.96,5.31,4.95,5.21,4.95,5.1z M6.59,5.41C6.5,5.85,6.2,6.24,5.79,6.45
		c-0.16-0.09-0.31-0.2-0.44-0.33l1.27-1.27V5.1C6.62,5.21,6.62,5.31,6.59,5.41z"/>
</g>
</svg>
