<?xml version="1.0" encoding="utf-8"?>
<!-- Generator: Adobe Illustrator 27.3.1, SVG Export Plug-In . SVG Version: 6.00 Build 0)  -->
<svg version="1.1" id="Layer_1" xmlns="http://www.w3.org/2000/svg" xmlns:xlink="http://www.w3.org/1999/xlink" x="0px" y="0px"
	 viewBox="0 0 11.52 11.52" style="enable-background:new 0 0 11.52 11.52;" xml:space="preserve">
<style type="text/css">
	.st0{fill:#28A8E0;}
	.st1{fill:none;stroke:#FFFFFF;stroke-width:0.4233;stroke-linejoin:round;stroke-miterlimit:10;}
	.st2{fill:none;stroke:#FFFFFF;stroke-width:0.4233;stroke-linecap:round;stroke-linejoin:round;stroke-miterlimit:10;}
</style>
<g>
	<g>
		<g>
			<circle class="st0" cx="5.76" cy="5.76" r="5.76"/>
		</g>
	</g>
</g>
<path class="st1" d="M7.29,3.09H4.38c-0.89,0-1.61,0.71-1.61,1.57S3.5,6.23,4.38,6.23h3.04c0.4,0,0.73,0.3,0.73,0.69
	c0,0.38-0.33,0.69-0.73,0.69H4.21"/>
<path class="st1" d="M7.2,3.97H4.38c-0.4,0-0.73,0.31-0.73,0.69c0,0.38,0.33,0.69,0.73,0.69h3.04c0.89,0,1.61,0.7,1.61,1.56
	c0,0.87-0.72,1.57-1.61,1.57H4.28"/>
<rect x="7.29" y="2.7" class="st1" width="0.91" height="1.63"/>
<rect x="3.29" y="7.2" class="st1" width="0.91" height="1.63"/>
<line class="st2" x1="8.26" y1="3.53" x2="9.89" y2="3.53"/>
<line class="st2" x1="1.63" y1="8.05" x2="3.24" y2="8.05"/>
</svg>
