<?xml version="1.0" encoding="utf-8"?>
<!-- Generator: Adobe Illustrator 27.3.1, SVG Export Plug-In . SVG Version: 6.00 Build 0)  -->
<svg version="1.1" id="Layer_1" xmlns="http://www.w3.org/2000/svg" xmlns:xlink="http://www.w3.org/1999/xlink" x="0px" y="0px"
	 viewBox="0 0 11.52 11.52" style="enable-background:new 0 0 11.52 11.52;" xml:space="preserve">
<style type="text/css">
	.st0{fill:#28A8E0;}
	.st1{fill-rule:evenodd;clip-rule:evenodd;fill:#FFFFFF;}
</style>
<g>
	<g>
		<g>
			<path class="st0" d="M11.52,5.76c0,3.18-2.58,5.76-5.76,5.76S0,8.94,0,5.76C0,2.58,2.58,0,5.76,0S11.52,2.58,11.52,5.76z"/>
		</g>
	</g>
</g>
<g>
	<circle class="st1" cx="5.73" cy="7.82" r="0.86"/>
	<g>
		<g>
			<path class="st1" d="M2.84,4.35L2.82,4.36C2.67,4.53,2.67,4.81,2.84,4.97c0.2,0.16,0.45,0.15,0.62-0.03l0.02-0.01l0.03-0.04
				C4.7,3.66,6.67,3.64,7.92,4.85l0.06,0.06l0.02,0.01C8.16,5.09,8.43,5.1,8.6,4.95c0.17-0.18,0.18-0.45,0-0.63L8.58,4.31L8.51,4.23
				c-1.6-1.54-4.11-1.52-5.62,0.05L2.84,4.35z"/>
		</g>
		<g>
			<path class="st1" d="M9.91,4.01C9.73,4.13,9.48,4.11,9.33,3.94c-0.65-0.72-1.87-1.5-3.39-1.57C4.22,2.31,2.79,3.15,2.13,4.01
				C1.98,4.22,1.7,4.26,1.5,4.11C1.3,3.96,1.26,3.67,1.41,3.47C2.39,2.19,4.18,1.4,5.98,1.46c1.53,0.06,3.04,0.76,4.03,1.86
				c0.17,0.19,0.15,0.48-0.04,0.64C9.95,3.99,9.93,4,9.91,4.01"/>
		</g>
	</g>
	<path class="st1" d="M7.55,6.16c-0.77,0-1.44-0.42-1.8-1.04c-0.36,0.62-1.03,1.04-1.8,1.04c-0.27,0-0.53-0.05-0.77-0.15v0.03
		c0,0,0,0.87,0.33,1.87c0.11,0.42,0.28,0.84,0.53,1.23C4.18,9,4.37,8.81,4.64,8.54C4.51,8.33,4.43,8.09,4.43,7.82
		c0-0.72,0.58-1.3,1.3-1.3s1.3,0.58,1.3,1.3s-0.58,1.3-1.3,1.3c-0.25,0-0.48-0.07-0.68-0.19L4.38,9.62
		c0.33,0.39,0.78,0.73,1.33,0.95h0.06h0.06c1.28-0.5,1.88-1.65,2.19-2.65c0.28-1.01,0.28-1.87,0.28-1.87V6.02
		C8.06,6.11,7.81,6.16,7.55,6.16z"/>
</g>
</svg>
