<?xml version="1.0" encoding="utf-8"?>
<!-- Generator: Adobe Illustrator 27.3.1, SVG Export Plug-In . SVG Version: 6.00 Build 0)  -->
<svg version="1.1" id="Layer_1" xmlns="http://www.w3.org/2000/svg" xmlns:xlink="http://www.w3.org/1999/xlink" x="0px" y="0px"
	 viewBox="0 0 11.52 11.52" style="enable-background:new 0 0 11.52 11.52;" xml:space="preserve">
<style type="text/css">
	.st0{fill:#28A8E0;}
	.st1{fill:#FFFFFF;}
	.st2{fill-rule:evenodd;clip-rule:evenodd;fill:#28A8E0;}
</style>
<g>
	<g>
		<g>
			<path class="st0" d="M11.52,5.76c0,3.18-2.58,5.76-5.76,5.76S0,8.94,0,5.76C0,2.58,2.58,0,5.76,0S11.52,2.58,11.52,5.76z"/>
		</g>
	</g>
</g>
<rect x="2.49" y="3.66" class="st1" width="6.52" height="3.85"/>
<path class="st1" d="M9.23,2.77h-6.9c-0.46,0-0.84,0.38-0.84,0.84v3.94c0,0.46,0.38,0.84,0.84,0.84h2.72v0.58H3.87
	c-0.2,0-0.37,0.16-0.37,0.37c0,0.2,0.16,0.37,0.37,0.37H7.7c0.2,0,0.37-0.16,0.37-0.37c0-0.2-0.16-0.37-0.37-0.37H6.66V8.4h2.57
	c0.46,0,0.84-0.38,0.84-0.84V3.61C10.07,3.15,9.7,2.77,9.23,2.77 M9.65,7.56c0,0.23-0.19,0.42-0.42,0.42h-6.9
	c-0.23,0-0.42-0.19-0.42-0.42V3.61c0-0.23,0.19-0.42,0.42-0.42h6.9c0.23,0,0.42,0.19,0.42,0.42V7.56z"/>
<g>
	<g>
		<path class="st2" d="M6,6.66C6,6.51,6.04,6.4,6.1,6.4c0.06,0,0.1,0.12,0.1,0.26c0,0.14-0.05,0.26-0.1,0.26C6.04,6.91,6,6.8,6,6.66
			"/>
	</g>
	<g>
		<path class="st2" d="M6.78,6.4c-0.07,0-0.11,0.09-0.11,0.28c0,0.12,0.02,0.2,0.05,0.24c0.04-0.04,0.06-0.07,0.1-0.12
			c0.02-0.02,0.04-0.05,0.05-0.06C6.87,6.73,6.88,6.71,6.88,6.7V6.68C6.88,6.49,6.84,6.4,6.78,6.4"/>
	</g>
	<g>
		<path class="st2" d="M5.17,5.57c0-0.14,0.06-0.26,0.13-0.26c0.07,0,0.13,0.12,0.13,0.26c0,0.14-0.06,0.26-0.13,0.26
			C5.23,5.82,5.17,5.71,5.17,5.57"/>
	</g>
	<g>
		<path class="st2" d="M4.7,6.66c0-0.14,0.05-0.26,0.1-0.26c0.06,0,0.1,0.12,0.1,0.26c0,0.14-0.05,0.26-0.1,0.26
			C4.75,6.91,4.7,6.8,4.7,6.66"/>
	</g>
	<g>
		<path class="st2" d="M5.84,5.57c0-0.14,0.05-0.26,0.1-0.26c0.06,0,0.1,0.12,0.1,0.26c0,0.14-0.05,0.26-0.1,0.26
			C5.89,5.82,5.84,5.71,5.84,5.57"/>
	</g>
	<g>
		<path class="st2" d="M6.68,5.91H6.55V5.45H6.38V5.34c0.06,0,0.1-0.01,0.13-0.04c0.03-0.01,0.05-0.04,0.06-0.1h0.11V5.91z
			 M6.31,4.72C6.26,4.79,6.2,4.83,6.11,4.83c-0.08,0-0.15-0.03-0.19-0.1C5.88,4.67,5.86,4.57,5.86,4.47c0-0.12,0.02-0.21,0.06-0.27
			c0.05-0.06,0.11-0.1,0.19-0.1c0.09,0,0.15,0.03,0.19,0.1c0.05,0.06,0.07,0.16,0.07,0.27C6.38,4.57,6.36,4.66,6.31,4.72 M6.29,6.93
			C6.25,7,6.18,7.03,6.09,7.03C6.01,7.03,5.95,7,5.9,6.93C5.86,6.87,5.83,6.78,5.83,6.66c0-0.12,0.02-0.2,0.06-0.26
			c0.05-0.07,0.11-0.11,0.19-0.11c0.09,0,0.15,0.03,0.2,0.11c0.04,0.06,0.06,0.15,0.06,0.26C6.36,6.77,6.34,6.87,6.29,6.93
			 M5.76,5.83C5.72,5.77,5.7,5.67,5.7,5.57c0-0.12,0.02-0.2,0.06-0.27c0.05-0.06,0.11-0.1,0.19-0.1c0.09,0,0.15,0.03,0.2,0.11
			C6.2,5.36,6.22,5.45,6.22,5.57c0,0.11-0.02,0.19-0.06,0.26c-0.04,0.06-0.11,0.11-0.2,0.11C5.88,5.94,5.81,5.89,5.76,5.83
			 M5.59,4.82H5.45V4.35H5.27V4.24c0.06,0,0.11-0.01,0.14-0.04c0.02-0.02,0.04-0.05,0.05-0.1h0.12V4.82z M5.57,7.02H5.43V6.55H5.25
			V6.44c0.06,0,0.11-0.01,0.14-0.03c0.02-0.02,0.04-0.05,0.05-0.1h0.12V7.02z M5.09,5.83C5.05,5.77,5.03,5.67,5.03,5.57
			c0-0.12,0.02-0.2,0.07-0.27c0.04-0.06,0.1-0.1,0.19-0.1c0.08,0,0.14,0.03,0.19,0.11c0.04,0.06,0.06,0.15,0.06,0.26
			c0,0.11-0.02,0.19-0.06,0.26C5.45,5.89,5.38,5.94,5.29,5.94C5.2,5.94,5.14,5.89,5.09,5.83 M4.81,5.91H4.67V5.45H4.51V5.34
			c0.05,0,0.1-0.01,0.13-0.04c0.02-0.01,0.04-0.04,0.06-0.1h0.11V5.91z M6.97,5.83C6.93,5.77,6.9,5.67,6.9,5.57
			c0-0.12,0.03-0.2,0.07-0.27c0.04-0.06,0.11-0.1,0.19-0.1c0.05,0,0.09,0.01,0.13,0.03c0-0.01-0.01-0.02-0.01-0.02
			C7.27,5.15,7.26,5.1,7.25,5.06C7.22,4.94,7.18,4.85,7.13,4.75C7.1,4.7,7.07,4.66,7.05,4.6C7,4.53,6.95,4.47,6.89,4.39v0.42H6.74
			V4.35H6.57V4.24c0.05,0,0.09-0.01,0.12-0.03C6.42,3.99,6.07,3.85,5.68,3.85c-0.31,0-0.59,0.08-0.84,0.24
			c0.07,0,0.12,0.04,0.16,0.1c0.05,0.06,0.07,0.16,0.07,0.27c0,0.11-0.02,0.19-0.06,0.25c-0.05,0.07-0.11,0.11-0.2,0.11
			c-0.08,0-0.15-0.03-0.19-0.1C4.58,4.67,4.55,4.57,4.55,4.47c0-0.06,0.01-0.12,0.02-0.16C4.48,4.4,4.39,4.5,4.32,4.6
			C4.29,4.66,4.27,4.7,4.24,4.75c0,0-0.03,0.05-0.03,0.06C4.17,4.89,4.14,4.97,4.12,5.06C4.11,5.1,4.09,5.14,4.08,5.2h0.01
			c0.08,0,0.15,0.03,0.19,0.11c0.05,0.06,0.07,0.15,0.07,0.26c0,0.11-0.02,0.19-0.06,0.26c-0.05,0.06-0.11,0.11-0.2,0.11
			c0,0.01,0,0.03,0.01,0.05C4.13,6.1,4.16,6.21,4.21,6.32c0,0,0.04,0.08,0.06,0.11c0.01,0.03,0.03,0.06,0.05,0.1
			c0.04,0.07,0.09,0.14,0.14,0.2c0.02,0.01,0.04,0.03,0.05,0.05l0.03,0.02C4.54,6.75,4.54,6.71,4.54,6.66c0-0.12,0.02-0.2,0.06-0.26
			c0.05-0.07,0.11-0.11,0.19-0.11c0.09,0,0.15,0.03,0.19,0.11c0.05,0.06,0.07,0.15,0.07,0.26c0,0.11-0.02,0.2-0.06,0.26
			c-0.04,0.05-0.09,0.1-0.15,0.11c0.04,0.02,0.08,0.04,0.13,0.07c0.04,0.02,0.09,0.04,0.14,0.06c0.07,0.02,0.15,0.05,0.23,0.06
			c0.05,0.01,0.11,0.02,0.16,0.03c0.05,0,0.11,0.01,0.16,0.01c0.06,0,0.11-0.01,0.17-0.01c0.05-0.01,0.1-0.02,0.16-0.03
			C6.1,7.22,6.17,7.19,6.25,7.17C6.29,7.15,6.35,7.13,6.4,7.11c0.08-0.04,0.16-0.1,0.23-0.15C6.62,6.95,6.61,6.94,6.6,6.93
			C6.56,6.87,6.54,6.78,6.54,6.66c0-0.12,0.02-0.2,0.07-0.26c0.04-0.07,0.1-0.11,0.19-0.11C6.89,6.29,6.95,6.33,7,6.4
			c0.02,0.03,0.04,0.07,0.05,0.12c0.1-0.16,0.17-0.34,0.22-0.53c0.01-0.02,0.01-0.04,0.01-0.07C7.3,5.91,7.3,5.9,7.3,5.89
			C7.25,5.91,7.21,5.94,7.16,5.94C7.08,5.94,7.01,5.89,6.97,5.83"/>
	</g>
	<g>
		<path class="st2" d="M7.04,5.57c0-0.14,0.06-0.26,0.13-0.26c0.07,0,0.13,0.12,0.13,0.26c0,0.14-0.06,0.26-0.13,0.26
			C7.09,5.82,7.04,5.71,7.04,5.57"/>
	</g>
	<g>
		<path class="st2" d="M6,4.45c0-0.13,0.05-0.23,0.1-0.23c0.06,0,0.1,0.1,0.1,0.23c0,0.13-0.05,0.23-0.1,0.23
			C6.04,4.68,6,4.58,6,4.45"/>
	</g>
	<g>
		<path class="st2" d="M4.7,4.45c0-0.13,0.05-0.23,0.1-0.23c0.06,0,0.1,0.1,0.1,0.23c0,0.13-0.05,0.23-0.1,0.23
			C4.75,4.68,4.7,4.58,4.7,4.45"/>
	</g>
	<g>
		<path class="st2" d="M4.23,5.57c0-0.18-0.05-0.27-0.16-0.27H4.04C4.03,5.39,4.03,5.48,4.03,5.57c0,0.09,0,0.17,0.01,0.25h0.04
			C4.18,5.82,4.23,5.75,4.23,5.57"/>
	</g>
</g>
</svg>
