<?xml version="1.0" encoding="utf-8"?>
<!-- Generator: Adobe Illustrator 27.3.1, SVG Export Plug-In . SVG Version: 6.00 Build 0)  -->
<svg version="1.1" id="Layer_1" xmlns="http://www.w3.org/2000/svg" xmlns:xlink="http://www.w3.org/1999/xlink" x="0px" y="0px"
	 viewBox="0 0 11.52 11.52" style="enable-background:new 0 0 11.52 11.52;" xml:space="preserve">
<style type="text/css">
	.st0{fill:#28A8E0;}
	.st1{fill-rule:evenodd;clip-rule:evenodd;fill:#FFFFFF;}
</style>
<g>
	<g>
		<g>
			<path class="st0" d="M11.52,5.76c0,3.18-2.58,5.76-5.76,5.76S0,8.94,0,5.76C0,2.58,2.58,0,5.76,0S11.52,2.58,11.52,5.76z"/>
		</g>
		<g>
			<g>
				<path class="st1" d="M5.48,3.12C5.45,3.14,5.41,3.15,5.35,3.15v0.09h0.16v0.42h0.13V3.03H5.53C5.52,3.07,5.5,3.1,5.48,3.12"/>
				<path class="st1" d="M5.88,4.35c0-0.15,0.05-0.22,0.12-0.22s0.1,0.07,0.1,0.22C6.1,4.5,6.07,4.58,6,4.58S5.88,4.5,5.88,4.35
					 M6.18,4.59c0.03-0.06,0.06-0.14,0.06-0.25S6.22,4.17,6.18,4.11C6.14,4.04,6.08,4.02,6,4.02S5.86,4.04,5.81,4.1
					C5.78,4.16,5.75,4.24,5.75,4.35s0.02,0.19,0.06,0.25C5.86,4.65,5.91,4.69,6,4.69S6.14,4.65,6.18,4.59"/>
				<path class="st1" d="M5.26,4.35c0-0.15,0.03-0.22,0.1-0.22s0.12,0.07,0.12,0.22c0,0.15-0.05,0.24-0.12,0.24S5.26,4.5,5.26,4.35
					 M5.55,4.59c0.03-0.06,0.06-0.14,0.06-0.25S5.59,4.17,5.55,4.11c-0.05-0.07-0.1-0.09-0.19-0.09S5.23,4.04,5.18,4.1
					C5.15,4.16,5.12,4.24,5.12,4.35s0.02,0.19,0.06,0.25c0.05,0.06,0.1,0.09,0.19,0.09S5.51,4.65,5.55,4.59"/>
				<path class="st1" d="M5.46,5.12C5.43,5.15,5.39,5.16,5.33,5.16v0.09h0.16v0.42h0.13V5.03H5.51C5.5,5.08,5.48,5.1,5.46,5.12"/>
				<path class="st1" d="M4.76,4.11C4.72,4.14,4.69,4.15,4.63,4.15v0.09h0.16v0.44h0.13V4.03H4.8C4.79,4.07,4.78,4.1,4.76,4.11"/>
				<path class="st1" d="M6.12,5.58c-0.08,0-0.12-0.07-0.12-0.22c0-0.15,0.03-0.23,0.12-0.23c0.07,0,0.1,0.08,0.1,0.23
					C6.23,5.5,6.19,5.58,6.12,5.58 M6.12,5.01c-0.08,0-0.14,0.04-0.19,0.09C5.89,5.17,5.88,5.25,5.88,5.35
					c0,0.09,0.01,0.18,0.06,0.23c0.03,0.07,0.1,0.09,0.19,0.09c0.08,0,0.14-0.02,0.19-0.09c0.03-0.06,0.06-0.14,0.06-0.23
					c0-0.11-0.02-0.19-0.07-0.25C6.26,5.05,6.19,5.01,6.12,5.01"/>
				<path class="st1" d="M6.14,3.57c-0.07,0-0.11-0.07-0.11-0.22c0-0.15,0.04-0.23,0.11-0.23c0.07,0,0.12,0.08,0.12,0.23
					C6.25,3.5,6.21,3.57,6.14,3.57 M6.14,3.01C6.05,3.01,6,3.05,5.95,3.11C5.91,3.16,5.89,3.25,5.89,3.35s0.02,0.18,0.06,0.23
					C6,3.65,6.05,3.68,6.14,3.68c0.08,0,0.14-0.02,0.19-0.09c0.04-0.06,0.06-0.14,0.06-0.23c0-0.11-0.02-0.19-0.06-0.25
					C6.28,3.05,6.22,3.01,6.14,3.01"/>
				<path class="st1" d="M6.51,4.11C6.49,4.14,6.44,4.15,6.38,4.15v0.09h0.16v0.44h0.13V4.03H6.57C6.56,4.07,6.53,4.1,6.51,4.11"/>
				<path class="st1" d="M7.24,4.35c0,0.15-0.04,0.23-0.12,0.23c-0.07,0-0.11-0.08-0.11-0.23s0.04-0.22,0.11-0.22
					C7.2,4.13,7.24,4.2,7.24,4.35 M7.12,4.02c-0.08,0-0.14,0.02-0.18,0.08C6.9,4.16,6.87,4.24,6.87,4.35c0,0.11,0.02,0.19,0.06,0.25
					c0.05,0.06,0.11,0.09,0.19,0.09c0.05,0,0.09-0.01,0.13-0.04c0,0.01,0,0.01-0.01,0.02c0,0.02,0,0.04-0.01,0.06
					C7.18,4.91,7.11,5.07,7.02,5.22C7,5.18,6.99,5.14,6.97,5.11C6.92,5.05,6.86,5.02,6.78,5.02c-0.08,0-0.14,0.04-0.18,0.09
					C6.56,5.17,6.54,5.25,6.54,5.36c0,0.09,0.02,0.18,0.06,0.23C6.61,5.6,6.62,5.61,6.62,5.62C6.56,5.67,6.48,5.72,6.41,5.75
					C6.36,5.78,6.31,5.79,6.27,5.81C6.2,5.84,6.13,5.86,6.05,5.87C6,5.88,5.95,5.89,5.89,5.89C5.85,5.91,5.79,5.91,5.74,5.91
					c-0.06,0-0.11,0-0.16-0.01c-0.05,0-0.11-0.01-0.15-0.02C5.36,5.86,5.27,5.84,5.2,5.81C5.16,5.79,5.11,5.78,5.08,5.75
					C5.03,5.73,4.98,5.71,4.95,5.68c0.06-0.01,0.11-0.05,0.14-0.09c0.05-0.06,0.06-0.14,0.06-0.23c0-0.11-0.01-0.19-0.06-0.25
					C5.04,5.05,4.98,5.02,4.9,5.02c-0.08,0-0.14,0.04-0.18,0.09C4.68,5.17,4.65,5.25,4.65,5.36c0,0.04,0.01,0.07,0.01,0.11
					L4.64,5.44c0,0.01,0,0.01,0.01,0.01L4.63,5.43l0.01,0.01L4.6,5.39C4.55,5.34,4.5,5.29,4.47,5.22C4.44,5.19,4.42,5.16,4.41,5.13
					C4.4,5.11,4.35,5.03,4.35,5.03C4.32,4.93,4.27,4.84,4.25,4.74c0-0.01,0-0.04-0.01-0.05h0.01c0.08,0,0.14-0.04,0.19-0.09
					c0.04-0.06,0.06-0.14,0.06-0.25c0-0.11-0.02-0.18-0.07-0.23C4.39,4.04,4.32,4.02,4.25,4.02H4.23c0.01-0.05,0.02-0.09,0.04-0.13
					c0.02-0.08,0.05-0.15,0.08-0.22c0.01-0.01,0.04-0.06,0.04-0.06c0.02-0.05,0.05-0.08,0.08-0.13C4.53,3.39,4.61,3.3,4.69,3.21
					C4.68,3.25,4.68,3.3,4.68,3.35c0,0.11,0.02,0.18,0.06,0.23c0.05,0.07,0.11,0.09,0.19,0.09c0.08,0,0.14-0.02,0.19-0.09
					c0.04-0.06,0.06-0.14,0.06-0.23c0-0.11-0.02-0.19-0.06-0.25C5.06,3.05,5.02,3.03,4.95,3.01C5.18,2.87,5.45,2.8,5.74,2.8
					c0.35,0,0.68,0.12,0.95,0.33C6.65,3.14,6.62,3.16,6.57,3.16v0.09h0.16v0.42h0.13V3.3c0.06,0.06,0.11,0.12,0.15,0.19
					c0.02,0.05,0.05,0.08,0.07,0.13C7.14,3.69,7.18,3.79,7.2,3.89c0.02,0.05,0.04,0.09,0.04,0.14c0,0,0.01,0,0.01,0.02
					C7.21,4.03,7.17,4.02,7.12,4.02 M6.9,5.37C6.89,5.38,6.89,5.39,6.87,5.39C6.86,5.41,6.84,5.43,6.83,5.45
					C6.79,5.48,6.76,5.52,6.72,5.54C6.69,5.51,6.68,5.45,6.68,5.36c0-0.15,0.04-0.23,0.11-0.23c0.08,0,0.12,0.08,0.12,0.23V5.37z
					 M4.8,5.36c0-0.15,0.04-0.23,0.11-0.23c0.08,0,0.12,0.08,0.12,0.23S4.98,5.58,4.9,5.58C4.83,5.58,4.8,5.51,4.8,5.36 M4.2,4.35
					c0-0.07,0.01-0.15,0.01-0.22h0.04c0.07,0,0.11,0.07,0.11,0.22S4.32,4.58,4.25,4.58c-0.01,0-0.02,0-0.04-0.01
					C4.21,4.5,4.2,4.43,4.2,4.35 M4.92,3.12c0.07,0,0.11,0.08,0.11,0.23S4.99,3.58,4.92,3.58c-0.08,0-0.12-0.07-0.12-0.22
					S4.84,3.12,4.92,3.12 M1.25,7.52C1.21,7.51,1.11,7.3,1.11,6.91c0-0.37,0.09-0.59,0.14-0.6C1.3,6.33,1.4,6.54,1.4,6.91
					C1.4,7.3,1.3,7.51,1.25,7.52 M10.39,6.16H9.14L7.51,4.33C7.49,3.35,6.71,2.56,5.74,2.56c-0.48,0-0.92,0.19-1.26,0.53
					C4.15,3.42,3.97,3.87,3.97,4.35c0,0.06,0,0.11,0.01,0.15L2.51,6.16H1.25c-0.2,0-0.29,0.39-0.29,0.75s0.09,0.76,0.29,0.76h3.7
					V7.39H3.25l0.18-0.21h1.2V6.9H3.67l0.99-1.12C4.97,6,5.33,6.14,5.74,6.14c0.44,0,0.85-0.16,1.16-0.44L7.96,6.9H7.44v0.28h0.78
					l0.18,0.21H7.76v0.28h2.63c0.2,0,0.29-0.4,0.29-0.76S10.59,6.16,10.39,6.16"/>
				<rect x="5.1" y="6.9" class="st1" width="0.7" height="0.28"/>
				<rect x="6.26" y="6.9" class="st1" width="0.7" height="0.28"/>
				<rect x="6.59" y="7.39" class="st1" width="0.7" height="0.28"/>
				<rect x="5.42" y="7.39" class="st1" width="0.7" height="0.28"/>
			</g>
		</g>
	</g>
</g>
</svg>
