<?xml version="1.0" encoding="utf-8"?>
<!-- Generator: Adobe Illustrator 27.3.1, SVG Export Plug-In . SVG Version: 6.00 Build 0)  -->
<svg version="1.1" id="Layer_1" xmlns="http://www.w3.org/2000/svg" xmlns:xlink="http://www.w3.org/1999/xlink" x="0px" y="0px"
	 viewBox="0 0 11.52 11.52" style="enable-background:new 0 0 11.52 11.52;" xml:space="preserve">
<style type="text/css">
	.st0{fill:#28A8E0;}
	.st1{fill:#FFFFFF;}
</style>
<g>
	<g>
		<g>
			<path class="st0" d="M11.52,5.76c0,3.18-2.58,5.76-5.76,5.76S0,8.94,0,5.76C0,2.58,2.58,0,5.76,0S11.52,2.58,11.52,5.76z"/>
		</g>
	</g>
</g>
<g>
	<path class="st1" d="M8.87,3.7H8.65L7.86,2.72H6.13c-0.27,0-0.48,0.22-0.48,0.48v0.5H2.64c-0.35,0-0.63,0.28-0.63,0.63v3.65
		c0,0.35,0.28,0.63,0.63,0.63h6.23c0.35,0,0.63-0.28,0.63-0.63V4.32C9.49,3.98,9.21,3.7,8.87,3.7z M6.07,3.2
		c0-0.03,0.03-0.06,0.06-0.06h1.53L8.1,3.7H6.07V3.2z M9.07,7.98c0,0.11-0.09,0.2-0.2,0.2H2.64c-0.11,0-0.2-0.09-0.2-0.2V4.32
		c0-0.11,0.09-0.2,0.2-0.2h3.01v0h3.22c0.11,0,0.2,0.09,0.2,0.2V7.98z"/>
	<path class="st1" d="M7.18,4.93C7.12,4.93,7.05,4.96,7,5L5.35,6.66L4.61,5.91C4.56,5.87,4.5,5.84,4.43,5.84h0
		c-0.07,0-0.13,0.03-0.18,0.07C4.2,5.96,4.18,6.02,4.18,6.09S4.2,6.22,4.25,6.27L5.1,7.12c0.07,0.07,0.16,0.1,0.25,0.1
		c0.09,0,0.18-0.04,0.25-0.1l1.76-1.76c0.1-0.1,0.1-0.26,0-0.36C7.31,4.96,7.25,4.93,7.18,4.93z"/>
</g>
</svg>
