<?xml version="1.0" encoding="utf-8"?>
<!-- Generator: Adobe Illustrator 27.3.1, SVG Export Plug-In . SVG Version: 6.00 Build 0)  -->
<svg version="1.1" id="Layer_1" xmlns="http://www.w3.org/2000/svg" xmlns:xlink="http://www.w3.org/1999/xlink" x="0px" y="0px"
	 viewBox="0 0 11.52 11.52" style="enable-background:new 0 0 11.52 11.52;" xml:space="preserve">
<style type="text/css">
	.st0{fill:#28A8E0;}
	.st1{fill:none;stroke:#FFFFFF;stroke-width:0.4233;stroke-linecap:round;stroke-linejoin:round;stroke-miterlimit:10;}
	.st2{fill:none;stroke:#FFFFFF;stroke-width:0.4233;stroke-linecap:square;stroke-linejoin:round;stroke-miterlimit:10;}
</style>
<g>
	<g>
		<g>
			<path class="st0" d="M11.52,5.76c0,3.18-2.58,5.76-5.76,5.76S0,8.94,0,5.76C0,2.58,2.58,0,5.76,0S11.52,2.58,11.52,5.76z"/>
		</g>
	</g>
</g>
<g>
	<rect x="2.49" y="2.36" class="st1" width="6.52" height="6.77"/>
</g>
<line class="st1" x1="5.75" y1="2.36" x2="5.75" y2="9.13"/>
<line class="st2" x1="4.12" y1="2.36" x2="4.12" y2="6.64"/>
<line class="st2" x1="4.12" y1="7.6" x2="4.12" y2="9.1"/>
<circle class="st1" cx="5.75" cy="4.43" r="0.94"/>
<path class="st1" d="M4.13,6.66c0-0.54,0.44-0.98,0.98-0.98H6.4c0.54,0,0.98,0.44,0.98,0.98"/>
<path class="st1" d="M3.72,6.67h0.42c0.21,0,0.39,0.17,0.39,0.39v0.03c0,0.21-0.17,0.39-0.39,0.39H3.72V6.67z"/>
<line class="st2" x1="7.39" y1="2.36" x2="7.39" y2="6.64"/>
<line class="st2" x1="7.38" y1="7.6" x2="7.38" y2="9.1"/>
<path class="st1" d="M7.78,6.67H7.37c-0.21,0-0.39,0.17-0.39,0.39v0.03c0,0.21,0.17,0.39,0.39,0.39h0.42V6.67z"/>
</svg>
