<?xml version="1.0" encoding="utf-8"?>
<!-- Generator: Adobe Illustrator 27.3.1, SVG Export Plug-In . SVG Version: 6.00 Build 0)  -->
<svg version="1.1" id="Layer_1" xmlns="http://www.w3.org/2000/svg" xmlns:xlink="http://www.w3.org/1999/xlink" x="0px" y="0px"
	 viewBox="0 0 11.52 11.52" style="enable-background:new 0 0 11.52 11.52;" xml:space="preserve">
<style type="text/css">
	.st0{fill:#28A8E0;}
	.st1{fill-rule:evenodd;clip-rule:evenodd;fill:#FFFFFF;}
</style>
<g>
	<g>
		<g>
			<path class="st0" d="M11.52,5.76c0,3.18-2.58,5.76-5.76,5.76S0,8.94,0,5.76C0,2.58,2.58,0,5.76,0S11.52,2.58,11.52,5.76z"/>
		</g>
		<g>
			<rect x="1.73" y="3.07" class="st1" width="2.46" height="0.53"/>
			<rect x="4.54" y="3.07" class="st1" width="2.46" height="0.53"/>
			<rect x="7.32" y="3.07" class="st1" width="2.46" height="0.53"/>
			<rect x="3.14" y="3.96" class="st1" width="2.46" height="0.55"/>
			<rect x="5.92" y="3.96" class="st1" width="2.46" height="0.55"/>
			<rect x="1.73" y="3.96" class="st1" width="1.05" height="0.55"/>
			<rect x="8.73" y="3.96" class="st1" width="1.05" height="0.55"/>
			<rect x="1.73" y="4.83" class="st1" width="2.46" height="0.56"/>
			<rect x="4.54" y="4.83" class="st1" width="2.46" height="0.56"/>
			<rect x="7.32" y="4.83" class="st1" width="2.46" height="0.56"/>
			<rect x="3.14" y="5.73" class="st1" width="2.46" height="0.53"/>
			<rect x="5.92" y="5.73" class="st1" width="2.46" height="0.53"/>
			<rect x="1.73" y="5.73" class="st1" width="1.05" height="0.53"/>
			<rect x="8.73" y="5.73" class="st1" width="1.05" height="0.53"/>
			<rect x="1.73" y="6.62" class="st1" width="2.46" height="0.54"/>
			<rect x="4.54" y="6.62" class="st1" width="2.46" height="0.54"/>
			<rect x="7.32" y="6.62" class="st1" width="2.46" height="0.54"/>
			<rect x="3.14" y="7.51" class="st1" width="2.46" height="0.55"/>
			<rect x="5.92" y="7.51" class="st1" width="2.46" height="0.55"/>
			<rect x="1.73" y="7.51" class="st1" width="1.05" height="0.55"/>
			<rect x="8.73" y="7.51" class="st1" width="1.05" height="0.55"/>
		</g>
	</g>
</g>
</svg>
