<?xml version="1.0" encoding="utf-8"?>
<!-- Generator: Adobe Illustrator 27.3.1, SVG Export Plug-In . SVG Version: 6.00 Build 0)  -->
<svg version="1.1" id="Layer_1" xmlns="http://www.w3.org/2000/svg" xmlns:xlink="http://www.w3.org/1999/xlink" x="0px" y="0px"
	 viewBox="0 0 11.52 11.52" style="enable-background:new 0 0 11.52 11.52;" xml:space="preserve">
<style type="text/css">
	.st0{fill:#28A8E0;}
	.st1{fill:#FFFFFF;}
</style>
<g>
	<g>
		<g>
			<path class="st0" d="M11.52,5.76c0,3.18-2.58,5.76-5.76,5.76S0,8.94,0,5.76S2.58,0,5.76,0S11.52,2.58,11.52,5.76z"/>
		</g>
	</g>
</g>
<path class="st1" d="M1.48,3.57v4.78c0,0.11,0.09,0.19,0.19,0.19h0.75c0.11,0,0.19-0.09,0.19-0.19V3.57c0-0.31-0.25-0.56-0.56-0.56
	h0C1.73,3.01,1.48,3.26,1.48,3.57z"/>
<path class="st1" d="M3.33,3.22v5.13c0,0.11,0.09,0.19,0.19,0.19h0.75c0.11,0,0.19-0.09,0.19-0.19V3.22c0-0.31-0.25-0.56-0.56-0.56
	h0C3.59,2.65,3.33,2.9,3.33,3.22z"/>
<path class="st1" d="M5.19,2.86v5.49c0,0.11,0.09,0.19,0.19,0.19h0.75c0.11,0,0.19-0.09,0.19-0.19V2.86c0-0.31-0.25-0.56-0.56-0.56
	h0C5.44,2.29,5.19,2.55,5.19,2.86z"/>
<path class="st1" d="M7.04,3.22v5.13c0,0.11,0.09,0.19,0.19,0.19h0.75c0.11,0,0.19-0.09,0.19-0.19V3.22c0-0.31-0.25-0.56-0.56-0.56
	h0C7.29,2.65,7.04,2.9,7.04,3.22z"/>
<path class="st1" d="M8.9,3.57v4.78c0,0.11,0.09,0.19,0.19,0.19h0.75c0.11,0,0.19-0.09,0.19-0.19V3.57c0-0.31-0.25-0.56-0.56-0.56h0
	C9.15,3.01,8.9,3.26,8.9,3.57z"/>
<rect x="1.13" y="4.35" class="st1" width="9.26" height="0.39"/>
<rect x="1.13" y="7.38" class="st1" width="9.26" height="0.39"/>
</svg>
