<?xml version="1.0" encoding="utf-8"?>
<!-- Generator: Adobe Illustrator 27.3.1, SVG Export Plug-In . SVG Version: 6.00 Build 0)  -->
<svg version="1.1" id="Layer_1" xmlns="http://www.w3.org/2000/svg" xmlns:xlink="http://www.w3.org/1999/xlink" x="0px" y="0px"
	 viewBox="0 0 11.52 11.52" style="enable-background:new 0 0 11.52 11.52;" xml:space="preserve">
<style type="text/css">
	.st0{fill:#28A8E0;}
	.st1{fill:#FFFFFF;}
</style>
<g>
	<g>
		<path class="st0" d="M11.52,5.76c0,3.18-2.58,5.76-5.76,5.76S0,8.94,0,5.76C0,2.58,2.58,0,5.76,0S11.52,2.58,11.52,5.76z"/>
	</g>
</g>
<g>
	<path class="st1" d="M1.82,6.31C3.59,7.79,4.8,7.79,4.8,10.36c0,0.24,0.44,0.43,0.99,0.43s1-0.18,1-0.43
		c0-2.57,1.16-2.57,2.92-4.06C8.85,6.72,7.4,7,5.75,7C4.12,7,2.68,6.72,1.82,6.31z"/>
	<path class="st1" d="M7.68,6.44c0.25-0.03,0.49-0.07,0.71-0.12c1.04-0.22,1.71-0.56,1.71-0.94c0-0.29-0.39-0.56-1.04-0.77
		c0.01-0.1,0.01-0.2,0.01-0.31c0-0.45-0.09-0.88-0.26-1.28c-0.17-0.39-0.4-0.75-0.71-1.05c-0.3-0.3-0.66-0.54-1.05-0.71
		C6.66,1.09,6.23,1.01,5.78,1.01c-0.45,0-0.88,0.09-1.28,0.26C4.1,1.43,3.75,1.67,3.45,1.97c-0.3,0.3-0.54,0.66-0.71,1.05
		C2.57,3.43,2.48,3.86,2.48,4.31c0,0.1,0,0.21,0.01,0.31c0,0,0,0,0,0C1.85,4.82,1.46,5.09,1.46,5.38c0,0.38,0.67,0.73,1.71,0.94
		c0.22,0.05,0.46,0.09,0.71,0.12C3.84,6.41,3.8,6.37,3.76,6.33C3.22,5.79,2.92,5.07,2.92,4.31s0.3-1.48,0.84-2.02
		C3.81,2.24,3.85,2.19,3.9,2.15c0,0.01-0.01,0.03,0.01,0.04c0.02,0.02,0.07-0.03,0.09,0c0.02,0.03-0.02,0.05-0.03,0.08
		c0,0.03,0.01,0.07,0.01,0.1c0,0.01,0,0.05-0.01,0.06C3.96,2.45,3.92,2.45,3.92,2.48c0,0.05,0.06,0.07,0.07,0.1
		c0,0.02-0.02,0.07-0.03,0.09C3.93,2.72,3.9,2.76,3.85,2.81C3.82,2.85,3.76,2.9,3.74,2.95C3.72,2.97,3.72,2.99,3.71,3.02
		C3.69,3.05,3.67,3.07,3.64,3.11v0.13v0.14C3.66,3.4,3.66,3.44,3.68,3.45c0.01,0.03,0.03,0.02,0.07,0.03
		c0.02,0.02,0.06,0.05,0.06,0.07c0.01,0.03,0.01,0.07,0.01,0.1c0,0.03,0,0.08,0.01,0.1C3.84,3.8,3.89,3.82,3.89,3.86
		c0,0.03-0.05,0.03-0.05,0.07c0,0.05,0.1,0.05,0.12,0.09c0,0.02-0.01,0.06-0.01,0.08C3.96,4.12,3.99,4.13,4,4.14
		C4.03,4.17,4.04,4.2,4.07,4.19C4.1,4.17,4.05,4.13,4.04,4.11C4.03,4.09,4.03,4.03,4.02,3.98C4,3.95,3.98,3.93,3.97,3.9
		C3.96,3.88,3.96,3.85,3.96,3.82C3.95,3.8,3.91,3.78,3.91,3.75C3.9,3.66,3.98,3.64,4,3.7c0.02,0.05,0,0.08,0,0.12
		C4.02,3.85,4.05,3.87,4.07,3.9C4.1,3.94,4.12,3.96,4.13,3.98c0.01,0.02,0.01,0.02,0,0.05C4.17,4.06,4.2,4.1,4.22,4.13
		c0.05,0.05,0.1,0.1,0.09,0.18c0,0.03-0.02,0.06-0.02,0.08c0,0.02,0.02,0.05,0.05,0.07C4.38,4.49,4.4,4.51,4.42,4.51
		c0.01,0.01,0.05,0.01,0.06,0.02C4.5,4.55,4.53,4.57,4.55,4.58C4.6,4.6,4.64,4.62,4.68,4.64c0.05,0.01,0.1,0.05,0.13,0.05
		c0.03,0,0.07-0.03,0.1-0.03C5,4.64,5.04,4.75,5.11,4.79C5.12,4.8,5.14,4.8,5.16,4.8c0.02,0,0.03,0.01,0.06,0.02
		c0.03,0.01,0.08,0,0.1,0.02c0.05,0.01,0.08,0.09,0.12,0.12v0.07c0.02,0.03,0.05,0.02,0.08,0.03c0.03,0.02,0.05,0.07,0.08,0.09h0.06
		c0.05,0.02,0.06,0.07,0.09,0.06c0.03,0,0.02-0.03,0.03-0.06C5.8,5.15,5.83,5.11,5.85,5.11c0.05,0,0.05,0.05,0.07,0.08
		c0,0.03,0.02,0.05,0.03,0.07c0.01,0.05,0,0.17,0,0.21C5.94,5.49,5.9,5.5,5.87,5.54C5.86,5.56,5.85,5.58,5.84,5.59
		C5.83,5.62,5.8,5.62,5.78,5.64c0,0.01-0.01,0.03-0.01,0.05C5.75,5.73,5.71,5.77,5.73,5.81c0.01,0.02,0.05,0.03,0.05,0.07
		c0,0.02-0.07,0.05-0.07,0.08C5.7,5.99,5.72,6.03,5.73,6.07c0,0.02,0.05,0.03,0.07,0.06c0.02,0.02,0.03,0.07,0.06,0.09
		c0.05,0.07,0.08,0.15,0.13,0.22c0.02,0.03,0.06,0.07,0.07,0.1v0.01C6.63,6.53,7.18,6.51,7.68,6.44z M9.05,4.74
		C9.05,4.74,9.05,4.74,9.05,4.74C9.05,4.74,9.05,4.74,9.05,4.74z M7.03,1.97c0.01,0.17-0.13,0.24-0.29,0.24
		C6.71,2.24,6.72,2.29,6.7,2.34c-0.01,0.03-0.07,0.07-0.1,0.07c-0.02,0-0.05-0.03-0.05-0.06c0-0.03,0.03-0.05,0.01-0.08
		c0-0.02,0.06-0.03,0.05-0.08c0-0.03-0.06-0.01-0.1-0.02c-0.03,0-0.08-0.02-0.12-0.03C6.35,2.11,6.31,2.06,6.26,2.05
		c-0.02,0-0.06,0.01-0.07,0C6.18,2.03,6.2,2,6.2,1.99c0-0.02-0.05-0.03-0.05-0.05c0-0.02,0.03-0.07,0.05-0.08
		C6.23,1.84,6.28,1.82,6.33,1.8c0.05-0.02,0.09-0.05,0.14-0.06C6.48,1.73,6.5,1.73,6.52,1.73c0.03-0.02,0.07-0.05,0.1-0.06
		C6.65,1.66,6.67,1.66,6.7,1.66c0.03-0.01,0.06-0.02,0.08-0.03c0.01,0,0.03,0.01,0.04,0.01C6.8,1.65,6.8,1.66,6.79,1.68
		C6.82,1.73,6.86,1.7,6.9,1.67c0.07,0.03,0.14,0.06,0.21,0.1c0,0.01-0.01,0.01-0.01,0.02C7.09,1.82,7.08,1.83,7.07,1.83
		c0,0.03-0.05,0.06-0.05,0.08C7.02,1.93,7.03,1.96,7.03,1.97z M2.51,4.74C2.51,4.74,2.51,4.74,2.51,4.74
		C2.51,4.74,2.51,4.74,2.51,4.74z M7.64,5.5c-0.01-0.02,0-0.05-0.01-0.06C7.62,5.42,7.59,5.4,7.57,5.38
		C7.51,5.34,7.46,5.31,7.39,5.3c-0.03,0-0.06,0.01-0.1,0.01c-0.03,0-0.08-0.05-0.12-0.08C7.14,5.2,7.13,5.17,7.1,5.16
		C7.08,5.13,7.05,5.13,7.03,5.12C7.02,5.11,7.02,5.1,7.01,5.09C7,5.07,6.99,5.05,7,5.02C6.98,5.01,6.96,5.04,6.94,5.04
		C6.92,5,6.9,4.98,6.83,5C6.8,5,6.78,5.03,6.76,5.03C6.72,5.03,6.7,5.01,6.66,5C6.64,5,6.6,5.01,6.59,5.01
		C6.56,5,6.55,4.97,6.52,4.96C6.5,4.94,6.47,4.92,6.45,4.93C6.42,4.93,6.4,5,6.35,4.97C6.33,4.94,6.38,4.93,6.36,4.89
		C6.34,4.88,6.31,4.9,6.3,4.92C6.28,4.93,6.27,4.95,6.24,4.95C6.2,4.97,6.16,4.96,6.13,4.98C6.09,5,6.09,5.03,6.07,5.07
		C6.06,5.09,6.02,5.13,5.99,5.13c-0.02,0-0.05-0.03-0.08-0.05C5.83,5.05,5.79,5.11,5.72,5.11c-0.06,0-0.15-0.09-0.14-0.15
		c0-0.03,0.01-0.09,0.02-0.14c0-0.03,0.02-0.05,0.02-0.08c0-0.05-0.06-0.08-0.08-0.08c-0.07-0.01-0.15,0.02-0.23,0
		C5.3,4.64,5.34,4.62,5.34,4.59c0.01-0.01,0-0.02,0.01-0.05C5.36,4.54,5.39,4.51,5.4,4.49c0-0.01,0-0.05,0.01-0.07
		C5.42,4.4,5.43,4.39,5.43,4.36c0.01-0.02,0-0.05-0.02-0.06c-0.06,0-0.09,0-0.13,0.01C5.21,4.35,5.22,4.46,5.15,4.48
		C5.12,4.49,5.08,4.49,5.06,4.49C5.04,4.5,5,4.51,4.98,4.51c-0.03,0-0.08-0.03-0.1-0.05c-0.01-0.02-0.06-0.1-0.06-0.13
		c-0.03-0.09,0-0.18,0.05-0.26c0-0.01,0.01-0.02,0.02-0.05c0.01-0.02,0-0.06,0.01-0.08c0.01-0.05,0.08-0.08,0.12-0.1
		c0.06-0.02,0.1-0.07,0.16-0.07c0.02,0,0.07,0.01,0.09,0.01C5.3,3.8,5.32,3.81,5.34,3.81c0.07,0.01,0.08-0.05,0.14-0.07
		c0.05,0.01,0.09-0.01,0.14,0c0.03,0,0.06,0.03,0.08,0.03c0.02,0,0.05-0.01,0.06-0.01c0.02,0,0.06,0.05,0.06,0.07
		C5.83,3.87,5.79,3.89,5.8,3.93C5.84,3.96,5.9,3.97,5.94,3.98c0.03-0.02,0.01-0.07,0-0.1V3.83c0-0.02-0.01-0.05-0.01-0.07
		c0-0.09,0.08-0.14,0.15-0.18c0.02-0.01,0.05-0.05,0.07-0.06C6.19,3.51,6.22,3.5,6.24,3.49C6.3,3.45,6.35,3.43,6.38,3.4
		c0.02-0.05,0-0.1,0-0.15c0.02-0.01,0.03,0.01,0.06,0.01C6.48,3.25,6.48,3.2,6.5,3.19c0.01-0.01,0.03-0.02,0.05-0.03
		C6.58,3.13,6.59,3.1,6.62,3.09c0.01,0,0.03,0,0.05-0.01c0.02,0,0.06-0.02,0.09-0.03c0.02-0.01,0.07-0.01,0.08-0.02V2.97
		c0.01-0.08,0.14-0.1,0.21-0.13C7.09,2.83,7.14,2.8,7.2,2.81C7.19,2.84,7.14,2.83,7.14,2.88c0.01,0.06,0.1-0.02,0.12-0.03
		C7.3,2.83,7.37,2.82,7.43,2.8c0.05-0.02,0.14-0.05,0.09-0.1c-0.03,0-0.06,0.05-0.09,0.06C7.41,2.76,7.42,2.74,7.39,2.74
		C7.37,2.73,7.36,2.75,7.35,2.75C7.32,2.74,7.3,2.72,7.29,2.69c0-0.06,0.06-0.08,0.08-0.13C7.35,2.52,7.28,2.56,7.23,2.53
		c0.01-0.02,0.05-0.05,0.08-0.06c0.02,0,0.09,0,0.12,0.02c0,0,0,0.02,0.01,0.03C7.46,2.56,7.48,2.56,7.5,2.54
		C7.51,2.51,7.45,2.52,7.46,2.5c0.05-0.03,0.12-0.01,0.17-0.02c0.03,0,0.07-0.02,0.1-0.05C7.77,2.42,7.8,2.39,7.84,2.42
		c0,0.02-0.03,0.03-0.05,0.05c-0.05,0.06-0.1,0.1-0.15,0.16c0.02,0.02,0.07,0.01,0.12,0.01c0.02,0.01,0.03,0.01,0.06,0.01
		c0.02,0.01,0.05,0.01,0.06,0.01c0.03,0.01,0.03,0.03,0.07,0.03c0.05,0,0.05-0.05,0.02-0.08c0-0.03,0.01-0.05,0-0.07
		c-0.01-0.05-0.09,0-0.1-0.06c0-0.03,0.03-0.03,0.05-0.06c0-0.01,0-0.02,0-0.03c0.47,0.52,0.73,1.2,0.73,1.91
		c0,0.56-0.16,1.09-0.46,1.55C8.16,5.85,8.14,5.84,8.13,5.84c-0.02,0-0.06,0.01-0.07,0C8.03,5.83,8.03,5.79,8.02,5.78
		C8,5.77,7.98,5.77,7.95,5.76C7.92,5.74,7.89,5.73,7.86,5.72c-0.02,0-0.03,0.01-0.05,0.01C7.79,5.72,7.78,5.7,7.75,5.69
		C7.73,5.68,7.71,5.66,7.7,5.64C7.72,5.57,7.65,5.55,7.64,5.5z"/>
</g>
</svg>
