<?xml version="1.0" encoding="utf-8"?>
<!-- Generator: Adobe Illustrator 27.3.1, SVG Export Plug-In . SVG Version: 6.00 Build 0)  -->
<svg version="1.1" id="Layer_1" xmlns="http://www.w3.org/2000/svg" xmlns:xlink="http://www.w3.org/1999/xlink" x="0px" y="0px"
	 viewBox="0 0 11.52 11.52" style="enable-background:new 0 0 11.52 11.52;" xml:space="preserve">
<style type="text/css">
	.st0{fill:#28A8E0;}
	.st1{fill-rule:evenodd;clip-rule:evenodd;fill:#FFFFFF;}
</style>
<g>
	<g>
		<g>
			<path class="st0" d="M11.52,5.76c0,3.18-2.58,5.76-5.76,5.76S0,8.94,0,5.76C0,2.58,2.58,0,5.76,0C8.94,0,11.52,2.58,11.52,5.76z"
				/>
		</g>
	</g>
</g>
<g>
	<path class="st1" d="M7.7,3.22H5.75c-0.1,0-0.18,0.08-0.18,0.18v0.09c0,0.1,0.08,0.18,0.18,0.18H7.7c0.1,0,0.18-0.08,0.18-0.18V3.4
		C7.88,3.3,7.8,3.22,7.7,3.22z"/>
	<path class="st1" d="M7.7,4.18H5.75c-0.1,0-0.18,0.08-0.18,0.18v0.09c0,0.1,0.08,0.18,0.18,0.18H7.7c0.1,0,0.18-0.08,0.18-0.18
		V4.36C7.88,4.26,7.8,4.18,7.7,4.18z"/>
	<path class="st1" d="M3.91,7.59C3.8,7.45,3.74,7.29,3.74,7.11V5.4c0-0.17,0.06-0.34,0.17-0.48L4,4.83C4.1,4.7,4.16,4.55,4.16,4.38
		V3.61c0-0.38-0.3-0.68-0.68-0.68H3.02c-0.38,0-0.68,0.3-0.68,0.68v0.78c0,0.16,0.05,0.31,0.16,0.43l0.08,0.1
		c0.11,0.13,0.17,0.3,0.17,0.47v1.72c0,0.17-0.06,0.34-0.17,0.47L2.5,7.69c-0.1,0.12-0.16,0.28-0.16,0.43V8.9
		c0,0.38,0.3,0.68,0.68,0.68h0.46c0.38,0,0.68-0.3,0.68-0.68V8.13C4.16,7.97,4.1,7.81,4,7.69L3.91,7.59z"/>
	<path class="st1" d="M2.18,5.09c-0.16-0.2-0.25-0.44-0.25-0.7V3.94C1.66,4.17,1.49,4.51,1.49,4.89v2.72c0,0.38,0.17,0.72,0.44,0.96
		V8.12c0-0.25,0.09-0.5,0.25-0.7l0.08-0.1c0.05-0.06,0.07-0.13,0.07-0.21V5.39c0-0.07-0.03-0.15-0.07-0.21L2.18,5.09z"/>
	<path class="st1" d="M8.7,3.63V2.16c0-0.05-0.04-0.1-0.1-0.1H4.8c-0.05,0-0.1,0.04-0.1,0.1v1.47H4.57v0.76
		c0,0.26-0.09,0.51-0.26,0.71l-0.08,0.1C4.18,5.25,4.15,5.32,4.15,5.4v1.71c0,0.08,0.03,0.15,0.08,0.21l0.08,0.1
		c0.17,0.2,0.26,0.45,0.26,0.71v0.76h4.1C8.85,8.88,9,8.74,9,8.56V3.95C9,3.78,8.87,3.64,8.7,3.63z M5.53,8.14
		c-0.21,0-0.37-0.12-0.37-0.27s0.17-0.27,0.37-0.27c0.21,0,0.37,0.12,0.37,0.27S5.74,8.14,5.53,8.14z M5.53,7.35
		c-0.21,0-0.37-0.12-0.37-0.27s0.17-0.27,0.37-0.27c0.21,0,0.37,0.12,0.37,0.27S5.74,7.35,5.53,7.35z M5.53,6.55
		c-0.21,0-0.37-0.12-0.37-0.27s0.17-0.27,0.37-0.27c0.21,0,0.37,0.12,0.37,0.27S5.74,6.55,5.53,6.55z M6.69,8.14
		c-0.21,0-0.37-0.12-0.37-0.27s0.17-0.27,0.37-0.27c0.21,0,0.37,0.12,0.37,0.27S6.89,8.14,6.69,8.14z M6.69,7.35
		c-0.21,0-0.37-0.12-0.37-0.27s0.17-0.27,0.37-0.27c0.21,0,0.37,0.12,0.37,0.27S6.89,7.35,6.69,7.35z M6.69,6.55
		c-0.21,0-0.37-0.12-0.37-0.27s0.17-0.27,0.37-0.27c0.21,0,0.37,0.12,0.37,0.27S6.89,6.55,6.69,6.55z M7.84,8.14
		c-0.21,0-0.37-0.12-0.37-0.27s0.17-0.27,0.37-0.27c0.21,0,0.37,0.12,0.37,0.27S8.05,8.14,7.84,8.14z M7.84,7.35
		c-0.21,0-0.37-0.12-0.37-0.27s0.17-0.27,0.37-0.27c0.21,0,0.37,0.12,0.37,0.27S8.05,7.35,7.84,7.35z M7.84,6.55
		c-0.21,0-0.37-0.12-0.37-0.27s0.17-0.27,0.37-0.27c0.21,0,0.37,0.12,0.37,0.27S8.05,6.55,7.84,6.55z M8.27,3.63v1.64
		c0,0.05-0.04,0.1-0.1,0.1H5.23c-0.05,0-0.1-0.04-0.1-0.1V3.63V2.6c0-0.05,0.04-0.1,0.1-0.1h2.93c0.05,0,0.1,0.04,0.1,0.1V3.63z"/>
</g>
</svg>
