<?xml version="1.0" encoding="utf-8"?>
<!-- Generator: Adobe Illustrator 27.3.1, SVG Export Plug-In . SVG Version: 6.00 Build 0)  -->
<svg version="1.1" id="Layer_1" xmlns="http://www.w3.org/2000/svg" xmlns:xlink="http://www.w3.org/1999/xlink" x="0px" y="0px"
	 viewBox="0 0 11.52 11.52" style="enable-background:new 0 0 11.52 11.52;" xml:space="preserve">
<style type="text/css">
	.st0{fill:#28A8E0;}
	.st1{fill:#FFFFFF;}
</style>
<g>
	<g>
		<g>
			<path class="st0" d="M11.52,5.76c0,3.18-2.58,5.76-5.76,5.76S0,8.94,0,5.76C0,2.58,2.58,0,5.76,0S11.52,2.58,11.52,5.76z"/>
		</g>
	</g>
</g>
<g>
	<path class="st1" d="M3.16,2.63c-0.17-0.17-0.45-0.17-0.62,0c-0.17,0.17-0.17,0.45,0,0.62l2.51,2.51L2.54,8.27
		c-0.17,0.17-0.17,0.45,0,0.62c0.17,0.17,0.45,0.17,0.62,0l3.13-3.13L3.16,2.63z"/>
	<rect x="5.92" y="3.38" transform="matrix(0.7071 -0.7071 0.7071 0.7071 -0.473 6.4988)" class="st1" width="3.38" height="0.88"/>
	<rect x="7.17" y="6.01" transform="matrix(0.7071 -0.7071 0.7071 0.7071 -3.216 7.635)" class="st1" width="0.88" height="3.38"/>
</g>
</svg>
