<?xml version="1.0" encoding="utf-8"?>
<!-- Generator: Adobe Illustrator 27.3.1, SVG Export Plug-In . SVG Version: 6.00 Build 0)  -->
<svg version="1.1" id="Layer_1" xmlns="http://www.w3.org/2000/svg" xmlns:xlink="http://www.w3.org/1999/xlink" x="0px" y="0px"
	 viewBox="0 0 11.52 11.52" style="enable-background:new 0 0 11.52 11.52;" xml:space="preserve">
<style type="text/css">
	.st0{fill:#28A8E0;}
	.st1{fill:#FFFFFF;}
</style>
<g>
	<path class="st0" d="M11.52,5.76c0,3.18-2.58,5.76-5.76,5.76S0,8.94,0,5.76C0,2.58,2.58,0,5.76,0S11.52,2.58,11.52,5.76z"/>
</g>
<g>
	<path class="st1" d="M6.75,3.97v0.21L6.13,4.04V3.83L5.78,3.75L5.42,3.83v0.21L4.8,4.18V3.97L4.24,4.1v1.11
		c0,1.03,0.64,1.91,1.55,2.27c0.9-0.37,1.54-1.24,1.54-2.27V4.1L6.75,3.97z M4.66,5.21V4.65l1.12-0.26c0.42,0.1,0.68,0.16,0.84,0.2
		L4.96,6.25c-0.12-0.2-0.21-0.41-0.25-0.63C4.67,5.49,4.66,5.35,4.66,5.21z M6.85,5.62c-0.12,0.59-0.52,1.11-1.07,1.4
		C5.56,6.9,5.37,6.75,5.2,6.58l1.7-1.7v0.33C6.9,5.35,6.89,5.49,6.85,5.62z"/>
	<g>
		<polygon class="st1" points="5.21,3.75 5.01,3.75 5.01,3.92 5.21,3.87 		"/>
		<polygon class="st1" points="6.54,3.75 6.34,3.75 6.34,3.87 6.54,3.92 		"/>
		<rect x="3.8" y="3.08" class="st1" width="1.87" height="0.43"/>
		<rect x="5.91" y="7.77" class="st1" width="1.87" height="0.38"/>
		<rect x="3.8" y="7.77" class="st1" width="1.87" height="0.38"/>
		<path class="st1" d="M6.72,7.12c-0.14,0.14-0.3,0.26-0.47,0.36h0.47V7.12z"/>
		<path class="st1" d="M4.85,7.48h0.46c-0.17-0.1-0.32-0.22-0.46-0.35V7.48z"/>
		<rect x="5.91" y="3.08" class="st1" width="1.87" height="0.43"/>
		<rect x="2.75" y="7.1" class="st1" width="1.87" height="0.38"/>
		<rect x="6.96" y="2.41" class="st1" width="1.87" height="0.38"/>
		<rect x="2.75" y="7.77" class="st1" width="0.77" height="0.38"/>
		<path class="st1" d="M4.04,5.42H3.8v0.43h0.31C4.07,5.71,4.05,5.57,4.04,5.42z"/>
		<rect x="2.75" y="4.75" class="st1" width="1.28" height="0.38"/>
		<polygon class="st1" points="6.72,3.75 6.72,3.75 6.71,3.75 		"/>
		<rect x="2.75" y="5.42" class="st1" width="0.77" height="0.43"/>
		<rect x="4.85" y="8.39" class="st1" width="1.87" height="0.43"/>
		<rect x="6.96" y="7.1" class="st1" width="1.87" height="0.38"/>
		<rect x="8.06" y="7.77" class="st1" width="0.77" height="0.38"/>
		<rect x="6.96" y="8.39" class="st1" width="1.87" height="0.43"/>
		<rect x="7.53" y="4.75" class="st1" width="1.29" height="0.38"/>
		<path class="st1" d="M7.21,6.48h1.62V6.05H7.39C7.34,6.19,7.28,6.34,7.21,6.48z"/>
		<rect x="2.75" y="8.39" class="st1" width="1.87" height="0.43"/>
		<rect x="8.06" y="5.42" class="st1" width="0.77" height="0.43"/>
		<path class="st1" d="M7.77,5.42H7.52C7.51,5.57,7.49,5.71,7.45,5.85h0.32V5.42z"/>
		<rect x="8.06" y="3.08" class="st1" width="0.77" height="0.43"/>
		<polygon class="st1" points="8.82,4.18 8.82,3.75 6.96,3.75 6.96,3.8 7.53,3.93 7.53,4.18 		"/>
		<rect x="4.85" y="2.41" class="st1" width="1.87" height="0.38"/>
		<rect x="2.75" y="3.08" class="st1" width="0.77" height="0.43"/>
		<polygon class="st1" points="4.03,3.93 4.61,3.8 4.61,3.75 2.75,3.75 2.75,4.18 4.03,4.18 		"/>
		<rect x="2.75" y="2.41" class="st1" width="1.87" height="0.38"/>
		<path class="st1" d="M4.16,6.05H2.75v0.43h1.6C4.28,6.34,4.21,6.19,4.16,6.05z"/>
	</g>
</g>
</svg>
