<?xml version="1.0" encoding="utf-8"?>
<!-- Generator: Adobe Illustrator 27.3.1, SVG Export Plug-In . SVG Version: 6.00 Build 0)  -->
<svg version="1.1" id="Layer_1" xmlns="http://www.w3.org/2000/svg" xmlns:xlink="http://www.w3.org/1999/xlink" x="0px" y="0px"
	 viewBox="0 0 11.52 11.52" style="enable-background:new 0 0 11.52 11.52;" xml:space="preserve">
<style type="text/css">
	.st0{fill:#28A8E0;}
	.st1{fill:#FFFFFF;}
</style>
<g>
	<g>
		<g>
			<path class="st0" d="M11.52,5.76c0,3.18-2.58,5.76-5.76,5.76S0,8.94,0,5.76C0,2.58,2.58,0,5.76,0S11.52,2.58,11.52,5.76z"/>
		</g>
		<path class="st1" d="M10.08,5.6c-0.01-0.02-0.02-0.04-0.04-0.05L9.02,4.53c-0.1-0.1-0.26-0.1-0.36,0L8.62,4.56
			c-0.1,0.1-0.1,0.26,0,0.36l0.6,0.6H7.65C8,5.11,8.3,4.71,8.53,4.34c0.53-0.82,0.65-1.35,0.38-1.63C8.85,2.65,8.73,2.58,8.54,2.58
			c-0.55,0-1.52,0.63-2.48,1.44V2.36l0.59,0.59c0.1,0.1,0.26,0.1,0.36,0l0.04-0.04c0.1-0.1,0.1-0.26,0-0.36L6.02,1.53
			C6.01,1.52,6.01,1.52,6,1.51c-0.05-0.06-0.12-0.09-0.2-0.09H5.75c-0.07,0-0.13,0.03-0.17,0.07C5.56,1.5,5.55,1.51,5.53,1.53
			L4.51,2.55c-0.1,0.1-0.1,0.26,0,0.36l0.04,0.04c0.1,0.1,0.26,0.1,0.36,0l0.6-0.6v1.69C4.54,3.22,3.56,2.58,3,2.58
			c-0.19,0-0.31,0.08-0.37,0.14C2.35,2.99,2.47,3.52,3,4.34c0.23,0.37,0.54,0.77,0.88,1.18H2.33l0.6-0.6c0.1-0.1,0.1-0.26,0-0.36
			L2.89,4.53c-0.1-0.1-0.26-0.1-0.36,0L1.51,5.55C1.49,5.57,1.48,5.58,1.47,5.6C1.43,5.65,1.4,5.71,1.4,5.78v0.05
			c0,0.08,0.04,0.15,0.09,0.2c0,0.01,0.01,0.01,0.01,0.02l1.02,1.02c0.1,0.1,0.26,0.1,0.36,0l0.04-0.04c0.1-0.1,0.1-0.26,0-0.36
			L2.34,6.08h1.65C3.59,6.54,3.26,6.98,3,7.38C2.47,8.2,2.35,8.73,2.62,9.01C2.69,9.07,2.8,9.15,3,9.15h0c0.56,0,1.54-0.65,2.5-1.47
			v1.56l-0.6-0.6c-0.1-0.1-0.26-0.1-0.36,0L4.51,8.68c-0.1,0.1-0.1,0.26,0,0.36l1.02,1.02c0.02,0.02,0.03,0.03,0.05,0.04
			c0.05,0.04,0.11,0.07,0.17,0.07h0.05c0.08,0,0.15-0.04,0.2-0.09c0.01,0,0.01-0.01,0.02-0.01l1.02-1.02c0.1-0.1,0.1-0.26,0-0.36
			L7.01,8.64c-0.1-0.1-0.26-0.1-0.36,0L6.06,9.23V7.7c0.96,0.81,1.92,1.44,2.48,1.44c0.19,0,0.31-0.08,0.38-0.14
			c0.27-0.27,0.15-0.8-0.38-1.63c-0.26-0.4-0.59-0.84-0.98-1.3h1.66L8.62,6.67c-0.1,0.1-0.1,0.26,0,0.36l0.04,0.04
			c0.1,0.1,0.26,0.1,0.36,0l1.02-1.02c0.01-0.01,0.01-0.01,0.01-0.02c0.06-0.05,0.09-0.12,0.09-0.2V5.78
			C10.15,5.71,10.12,5.65,10.08,5.6z M3,8.68c-0.02,0-0.04,0-0.04,0C2.88,8.48,3.29,7.62,4.31,6.43c0.16,0.41,0.49,0.74,0.9,0.9
			C4.16,8.21,3.34,8.68,3,8.68z M4.31,5.29C3.29,4.1,2.88,3.24,2.95,3.05c0.01,0,0.02,0,0.04,0c0.34,0,1.17,0.47,2.2,1.35
			C4.79,4.56,4.46,4.88,4.31,5.29z M8.54,3.04c0.02,0,0.04,0,0.04,0C8.66,3.24,8.25,4.1,7.23,5.29c-0.16-0.41-0.49-0.74-0.9-0.9
			C7.37,3.51,8.2,3.04,8.54,3.04z M8.58,8.67c-0.01,0-0.02,0-0.04,0c-0.34,0-1.17-0.47-2.2-1.35c0.41-0.16,0.74-0.49,0.9-0.9
			C8.25,7.62,8.66,8.48,8.58,8.67z"/>
	</g>
</g>
</svg>
