<?xml version="1.0" encoding="utf-8"?>
<!-- Generator: Adobe Illustrator 27.3.1, SVG Export Plug-In . SVG Version: 6.00 Build 0)  -->
<svg version="1.1" id="Layer_1" xmlns="http://www.w3.org/2000/svg" xmlns:xlink="http://www.w3.org/1999/xlink" x="0px" y="0px"
	 viewBox="0 0 11.52 11.52" style="enable-background:new 0 0 11.52 11.52;" xml:space="preserve">
<style type="text/css">
	.st0{fill:#28A8E0;}
	.st1{fill-rule:evenodd;clip-rule:evenodd;fill:#FFFFFF;}
	.st2{fill:#FFFFFF;}
</style>
<g>
	<g>
		<g>
			<path class="st0" d="M11.52,5.76c0,3.18-2.58,5.76-5.76,5.76S0,8.94,0,5.76C0,2.58,2.58,0,5.76,0S11.52,2.58,11.52,5.76z"/>
		</g>
		<g>
			<g>
				<path class="st1" d="M5.25,5.11V4.88l0.5-0.11c0.26,0.06,0.38,0.08,0.44,0.1L5.42,5.61C5.35,5.52,5.3,5.41,5.27,5.29
					C5.26,5.23,5.25,5.18,5.25,5.11 M6.25,5.11c0,0.06-0.01,0.12-0.03,0.18c-0.05,0.26-0.23,0.48-0.47,0.6
					C5.65,5.84,5.56,5.78,5.49,5.7l0.76-0.73V5.11z M5.75,6.09c0.4-0.16,0.68-0.54,0.68-0.98V4.64L6.18,4.59v0.09L5.9,4.61V4.52
					L5.75,4.49L5.59,4.52v0.09L5.32,4.67V4.59L5.07,4.64v0.47C5.07,5.56,5.35,5.93,5.75,6.09"/>
			</g>
		</g>
	</g>
</g>
<g>
	<path class="st2" d="M7.43,3.85C7.53,3.91,7.61,4,7.67,4.09l0.56-0.56c0.3,0.19,0.71,0.16,0.97-0.11c0.3-0.3,0.3-0.8,0-1.1
		c-0.3-0.3-0.8-0.3-1.1,0C7.83,2.59,7.79,2.99,7.98,3.3L7.43,3.85z"/>
	<path class="st2" d="M3.3,3.54l0.56,0.56C3.91,4,3.99,3.91,4.09,3.85L3.54,3.3c0.19-0.3,0.16-0.71-0.11-0.97
		c-0.3-0.3-0.8-0.3-1.1,0c-0.3,0.3-0.3,0.8,0,1.1C2.59,3.69,2.99,3.73,3.3,3.54z"/>
	<path class="st2" d="M5.59,2.44v1.29h0.34V2.44c0.35-0.08,0.61-0.39,0.61-0.76c0-0.43-0.35-0.78-0.78-0.78
		c-0.43,0-0.78,0.35-0.78,0.78C4.98,2.06,5.24,2.37,5.59,2.44z"/>
	<path class="st2" d="M3.75,5.59H2.44C2.37,5.24,2.06,4.98,1.68,4.98c-0.43,0-0.78,0.35-0.78,0.78c0,0.43,0.35,0.78,0.78,0.78
		c0.37,0,0.68-0.26,0.76-0.61h1.31V5.59z"/>
	<path class="st2" d="M9.84,4.98c-0.37,0-0.68,0.26-0.76,0.61H7.77v0.34h1.31c0.08,0.35,0.39,0.61,0.76,0.61
		c0.43,0,0.78-0.35,0.78-0.78C10.62,5.33,10.27,4.98,9.84,4.98z"/>
</g>
<path class="st2" d="M3.99,7.77c-0.1-0.06-0.18-0.15-0.22-0.27L3.3,7.98c-0.3-0.19-0.71-0.16-0.97,0.11c-0.3,0.3-0.3,0.8,0,1.1
	c0.3,0.3,0.8,0.3,1.1,0c0.26-0.26,0.3-0.67,0.11-0.97L3.99,7.77z"/>
<path class="st2" d="M7.04,6.51H4.48c-0.23,0-0.41-0.19-0.41-0.41V4.47c0-0.23,0.19-0.41,0.41-0.41h2.55c0.23,0,0.41,0.19,0.41,0.41
	V6.1C7.45,6.33,7.26,6.51,7.04,6.51z M4.48,4.34c-0.07,0-0.12,0.06-0.12,0.12V6.1c0,0.07,0.06,0.12,0.12,0.12h2.55
	c0.07,0,0.12-0.06,0.12-0.12V4.47c0-0.07-0.06-0.12-0.12-0.12H4.48z"/>
<path class="st2" d="M9.19,8.09c-0.26-0.26-0.67-0.3-0.97-0.11L7.75,7.51C7.71,7.62,7.63,7.71,7.53,7.77l0.45,0.45
	c-0.19,0.3-0.16,0.71,0.11,0.97c0.3,0.3,0.8,0.3,1.1,0C9.5,8.89,9.5,8.4,9.19,8.09z"/>
<path class="st2" d="M5.93,9.08V7.83H5.59v1.24C5.24,9.15,4.98,9.46,4.98,9.84c0,0.43,0.35,0.78,0.78,0.78
	c0.43,0,0.78-0.35,0.78-0.78C6.54,9.46,6.28,9.15,5.93,9.08z"/>
<path class="st2" d="M7.29,6.69H4.23c-0.09,0-0.16,0.07-0.16,0.16v0.51c0,0.09,0.07,0.16,0.16,0.16h3.07c0.09,0,0.16-0.07,0.16-0.16
	V6.85C7.45,6.76,7.38,6.69,7.29,6.69z M7.15,7.19c0,0.03-0.02,0.05-0.05,0.05H5.57c-0.03,0-0.05-0.02-0.05-0.05V7.02
	c0-0.03,0.02-0.05,0.05-0.05H7.1c0.03,0,0.05,0.02,0.05,0.05V7.19z"/>
</svg>
