<?xml version="1.0" encoding="utf-8"?>
<!-- Generator: Adobe Illustrator 27.3.1, SVG Export Plug-In . SVG Version: 6.00 Build 0)  -->
<svg version="1.1" id="Layer_1" xmlns="http://www.w3.org/2000/svg" xmlns:xlink="http://www.w3.org/1999/xlink" x="0px" y="0px"
	 viewBox="0 0 11.52 11.52" style="enable-background:new 0 0 11.52 11.52;" xml:space="preserve">
<style type="text/css">
	.st0{fill:#28A8E0;}
	.st1{fill:#FFFFFF;}
</style>
<g>
	<g>
		<g>
			<g>
				<path class="st0" d="M11.52,5.76c0,3.18-2.58,5.76-5.76,5.76S0,8.94,0,5.76C0,2.58,2.58,0,5.76,0S11.52,2.58,11.52,5.76z"/>
			</g>
		</g>
	</g>
</g>
<g>
	<path class="st1" d="M5.74,1.15c-2.54,0-4.6,2.06-4.6,4.6s2.06,4.6,4.6,4.6s4.6-2.06,4.6-4.6S8.28,1.15,5.74,1.15z M8.67,2.83
		c0.38,0.38,0.68,0.82,0.89,1.32c0.22,0.51,0.33,1.05,0.33,1.61s-0.11,1.1-0.33,1.61C9.52,7.45,9.48,7.54,9.44,7.62L5.99,5.63V1.62
		c0.47,0.03,0.93,0.13,1.37,0.32C7.85,2.15,8.29,2.44,8.67,2.83z M1.93,4.14c0.21-0.49,0.51-0.94,0.89-1.32s0.82-0.68,1.32-0.89
		c0.45-0.19,0.91-0.3,1.4-0.32v4.01L2.05,7.63C2.01,7.55,1.97,7.46,1.93,7.37C1.71,6.85,1.6,6.31,1.6,5.75S1.71,4.65,1.93,4.14z
		 M5.12,8.6l0.08,0l0.05,1.27C5.2,9.86,5.16,9.85,5.12,9.85L5.12,8.6z M6.39,9.84C6.35,9.85,6.31,9.86,6.27,9.86L6.32,8.6l0.08,0
		L6.39,9.84z M8.67,8.68C8.29,9.06,7.85,9.36,7.36,9.57C7.19,9.64,7.02,9.7,6.85,9.75l0-1.44c0-0.26-0.21-0.46-0.46-0.46H5.13
		c-0.26,0-0.46,0.21-0.46,0.46l0,1.44C4.48,9.7,4.31,9.64,4.13,9.57C3.64,9.36,3.2,9.06,2.82,8.68c-0.2-0.2-0.38-0.42-0.53-0.65
		l3.48-2.01l3.45,1.99C9.06,8.26,8.88,8.48,8.67,8.68z"/>
	<path class="st1" d="M5.76,6.75c-0.26,0-0.46,0.21-0.46,0.47c0,0.26,0.21,0.47,0.46,0.47c0.26,0,0.47-0.21,0.47-0.47
		C6.22,6.95,6.01,6.75,5.76,6.75z"/>
	<path class="st1" d="M6.8,4.89h0.21l0.08,0.08l0.08,0.07l0.08-0.07l0.08-0.08L7.4,4.96l0.08,0.07l0.08-0.07l0.08-0.08h0.21
		C7.94,5.1,8.14,5.25,8.39,5.25c0.32,0,0.58-0.26,0.58-0.58c0-0.32-0.26-0.58-0.58-0.58c-0.24,0-0.45,0.15-0.54,0.36H6.8L6.63,4.67
		L6.8,4.89z M8.65,4.51c0.09,0,0.16,0.07,0.16,0.16c0,0.09-0.07,0.16-0.16,0.16c-0.09,0-0.16-0.07-0.16-0.16
		C8.49,4.58,8.56,4.51,8.65,4.51z"/>
	<path class="st1" d="M3.21,5.04h0.02l0.23,0.5l0.23-0.5h0.48c0.35,0,0.63-0.28,0.63-0.63V4.4c0-0.35-0.28-0.63-0.63-0.63H3.21
		c-0.35,0-0.63,0.28-0.63,0.63v0.02C2.59,4.76,2.87,5.04,3.21,5.04z M4.18,4.24c0.09,0,0.16,0.07,0.16,0.16
		c0,0.09-0.07,0.16-0.16,0.16c-0.09,0-0.16-0.07-0.16-0.16C4.02,4.31,4.09,4.24,4.18,4.24z M3.68,4.24c0.09,0,0.16,0.07,0.16,0.16
		c0,0.09-0.07,0.16-0.16,0.16c-0.09,0-0.16-0.07-0.16-0.16C3.52,4.31,3.59,4.24,3.68,4.24z M3.18,4.24c0.09,0,0.16,0.07,0.16,0.16
		c0,0.09-0.07,0.16-0.16,0.16c-0.09,0-0.16-0.07-0.16-0.16C3.02,4.31,3.09,4.24,3.18,4.24z"/>
</g>
</svg>
