<?xml version="1.0" encoding="utf-8"?>
<!-- Generator: Adobe Illustrator 27.3.1, SVG Export Plug-In . SVG Version: 6.00 Build 0)  -->
<svg version="1.1" id="Layer_1" xmlns="http://www.w3.org/2000/svg" xmlns:xlink="http://www.w3.org/1999/xlink" x="0px" y="0px"
	 viewBox="0 0 11.52 11.52" style="enable-background:new 0 0 11.52 11.52;" xml:space="preserve">
<style type="text/css">
	.st0{fill:#28A8E0;}
	.st1{fill:#FFFFFF;}
</style>
<g>
	<g>
		<g>
			<path class="st0" d="M11.52,5.76c0,3.18-2.58,5.76-5.76,5.76S0,8.94,0,5.76C0,2.58,2.58,0,5.76,0S11.52,2.58,11.52,5.76z"/>
		</g>
	</g>
</g>
<g>
	<path class="st1" d="M5.74,1.23c-2.49,0-4.51,2.02-4.51,4.51c0,1.93,1.21,3.58,2.92,4.22l0.83-4.32c-0.6-0.28-1.02-0.9-1.02-1.61
		c0-0.98,0.8-1.78,1.78-1.78s1.78,0.8,1.78,1.78c0,0.71-0.42,1.32-1.02,1.61l0.83,4.32c1.71-0.64,2.93-2.29,2.93-4.23
		C10.25,3.25,8.23,1.23,5.74,1.23z"/>
	<path class="st1" d="M6.35,8.44v0.14L5.95,8.48V8.34L5.72,8.29L5.48,8.34v0.14L5.08,8.57V8.44L4.7,8.52v0.73
		c0,0.68,0.42,1.25,1.01,1.49c0.59-0.24,1.01-0.82,1.01-1.49V8.52L6.35,8.44z M4.98,9.25V8.88l0.74-0.17
		c0.27,0.07,0.44,0.11,0.55,0.13L5.18,9.93C5.1,9.8,5.04,9.66,5.01,9.52C4.99,9.43,4.98,9.34,4.98,9.25z M6.42,9.52
		c-0.08,0.39-0.34,0.73-0.7,0.92c-0.14-0.07-0.27-0.17-0.38-0.29l1.11-1.11v0.22C6.45,9.34,6.44,9.43,6.42,9.52z"/>
</g>
</svg>
