<?xml version="1.0" encoding="utf-8"?>
<!-- Generator: Adobe Illustrator 27.3.1, SVG Export Plug-In . SVG Version: 6.00 Build 0)  -->
<svg version="1.1" id="Layer_1" xmlns="http://www.w3.org/2000/svg" xmlns:xlink="http://www.w3.org/1999/xlink" x="0px" y="0px"
	 viewBox="0 0 11.52 11.52" style="enable-background:new 0 0 11.52 11.52;" xml:space="preserve">
<style type="text/css">
	.st0{fill:#28A8E0;}
	.st1{fill:#FFFFFF;}
	.st2{fill-rule:evenodd;clip-rule:evenodd;fill:#FFFFFF;}
</style>
<g>
	<g>
		<g>
			<path class="st0" d="M11.52,5.76c0,3.18-2.58,5.76-5.76,5.76S0,8.94,0,5.76C0,2.58,2.58,0,5.76,0S11.52,2.58,11.52,5.76z"/>
		</g>
	</g>
</g>
<g>
	<path class="st1" d="M6.64,4.25v0.19L6.07,4.3V4.12L5.75,4.04L5.41,4.12V4.3L4.85,4.44V4.25L4.32,4.36v1.02
		c0,0.95,0.59,1.75,1.42,2.09c0.83-0.34,1.41-1.14,1.41-2.09V4.36L6.64,4.25z M4.71,5.38V4.87l1.03-0.24
		c0.38,0.09,0.62,0.15,0.77,0.18L4.99,6.34C4.88,6.16,4.8,5.96,4.75,5.76C4.72,5.64,4.71,5.51,4.71,5.38z M6.73,5.76
		C6.62,6.3,6.25,6.78,5.75,7.04c-0.2-0.11-0.38-0.24-0.54-0.4l1.56-1.56v0.3C6.77,5.51,6.76,5.64,6.73,5.76z"/>
	<g>
		<path class="st2" d="M4.05,5.38V5.25L1.78,3.65c-0.1,0.12-0.15,0.27-0.15,0.44V7.4c0,0.16,0.05,0.29,0.12,0.41l2.32-2.09
			C4.05,5.61,4.05,5.49,4.05,5.38"/>
		<path class="st2" d="M7.46,4.13v0.56l1.87-1.32C9.19,3.32,9.03,3.28,8.84,3.28H7.53H3.96H2.66c-0.18,0-0.35,0.04-0.49,0.08
			l1.88,1.32V4.13l1.7-0.39L7.46,4.13z"/>
		<path class="st2" d="M9.76,7.81C9.82,7.69,9.87,7.56,9.87,7.4V4.09c0-0.17-0.05-0.32-0.15-0.44L7.46,5.23v0.15
			c0,0.12-0.01,0.24-0.02,0.36l2.31,2.08L9.76,7.81z"/>
		<path class="st2" d="M6.38,7.45C6.22,7.56,6.05,7.65,5.86,7.73L5.75,7.78L5.64,7.73C5.1,7.51,4.67,7.13,4.39,6.66
			C4.32,6.52,4.25,6.39,4.2,6.24V6.23L2.1,8.1c0.17,0.09,0.35,0.15,0.56,0.15h6.17c0.2,0,0.38-0.06,0.55-0.15L7.3,6.24
			C7.13,6.73,6.81,7.14,6.38,7.45"/>
	</g>
</g>
</svg>
