<?xml version="1.0" encoding="utf-8"?>
<!-- Generator: Adobe Illustrator 27.3.1, SVG Export Plug-In . SVG Version: 6.00 Build 0)  -->
<svg version="1.1" id="Layer_1" xmlns="http://www.w3.org/2000/svg" xmlns:xlink="http://www.w3.org/1999/xlink" x="0px" y="0px"
	 viewBox="0 0 11.52 11.52" style="enable-background:new 0 0 11.52 11.52;" xml:space="preserve">
<style type="text/css">
	.st0{fill:#28A8E0;}
	.st1{fill:#FFFFFF;}
</style>
<g>
	<g>
		<g>
			<path class="st0" d="M11.52,5.76c0,3.18-2.58,5.76-5.76,5.76S0,8.94,0,5.76C0,2.58,2.58,0,5.76,0S11.52,2.58,11.52,5.76z"/>
		</g>
	</g>
</g>
<g>
	<path class="st1" d="M3.62,6.3H2.24c-0.28,0-0.51,0.23-0.51,0.51l0,1.7c0,0.14,0.11,0.25,0.25,0.25c0.14,0,0.25-0.11,0.25-0.25
		l0-1.38l0.09,0l0.06,1.61h0l1.1,0l0.06-1.6l0.09,0l0,1.38c0,0.14,0.11,0.25,0.25,0.25c0.14,0,0.25-0.11,0.25-0.25l0-1.7
		C4.13,6.53,3.9,6.3,3.62,6.3z"/>
	<path class="st1" d="M2.93,6.12c0.28,0,0.51-0.23,0.51-0.51c0-0.28-0.23-0.51-0.51-0.51c-0.28,0-0.51,0.23-0.51,0.51
		C2.42,5.89,2.65,6.12,2.93,6.12z"/>
	<path class="st1" d="M9.24,6.3H7.86c-0.28,0-0.51,0.23-0.51,0.51l0,1.7c0,0.14,0.11,0.25,0.25,0.25c0.14,0,0.25-0.11,0.25-0.25
		l0-1.38l0.09,0L8,8.73l1.1,0h0l0.06-1.61l0.09,0l0,1.38c0,0.14,0.11,0.25,0.25,0.25c0.14,0,0.25-0.11,0.25-0.25l0-1.7
		C9.75,6.53,9.52,6.3,9.24,6.3z"/>
	<path class="st1" d="M8.04,5.61c0,0.28,0.23,0.51,0.51,0.51c0.28,0,0.51-0.23,0.51-0.51c0-0.28-0.23-0.51-0.51-0.51
		C8.27,5.1,8.04,5.33,8.04,5.61z"/>
	<path class="st1" d="M5.75,3.13c0.28,0,0.51-0.23,0.51-0.51c0-0.28-0.23-0.51-0.51-0.51c-0.28,0-0.51,0.23-0.51,0.51
		C5.24,2.9,5.47,3.13,5.75,3.13z"/>
	<path class="st1" d="M6.44,7.95H5.06c-0.28,0-0.51,0.23-0.51,0.51l0,1.7c0,0.14,0.11,0.25,0.25,0.25c0.14,0,0.25-0.11,0.25-0.25
		l0-1.38l0.09,0l0.06,1.6l1.1,0h0l0.06-1.61l0.09,0l0,1.38c0,0.14,0.11,0.25,0.25,0.25c0.14,0,0.25-0.11,0.25-0.25l0-1.7
		C6.95,8.17,6.72,7.95,6.44,7.95z"/>
	<path class="st1" d="M5.24,7.25c0,0.28,0.23,0.51,0.51,0.51c0.28,0,0.51-0.23,0.51-0.51c0-0.28-0.23-0.51-0.51-0.51
		C5.47,6.74,5.24,6.97,5.24,7.25z"/>
	<path class="st1" d="M5.76,6C7.11,6,8.2,4.91,8.2,3.56S7.11,1.13,5.76,1.13S3.32,2.22,3.32,3.56S4.41,6,5.76,6z M5.05,4.14l0.09,0
		l0.04,1.15C5.13,5.27,5.09,5.25,5.05,5.24L5.05,4.14z M6.45,5.25C6.41,5.26,6.36,5.28,6.32,5.29l0.05-1.15l0.09,0L6.45,5.25z
		 M4.47,2.28c0.34-0.34,0.8-0.53,1.29-0.53S6.7,1.93,7.05,2.28c0.34,0.34,0.53,0.8,0.53,1.29c0,0.49-0.19,0.94-0.53,1.29
		c-0.03,0.03-0.07,0.06-0.1,0.09l0-1.12c0-0.28-0.23-0.51-0.51-0.51H5.06c-0.28,0-0.51,0.23-0.51,0.51l0,1.1
		C4.53,4.9,4.5,4.87,4.47,4.85C4.13,4.5,3.94,4.05,3.94,3.56C3.94,3.08,4.13,2.62,4.47,2.28z"/>
</g>
</svg>
