<?xml version="1.0" encoding="utf-8"?>
<!-- Generator: Adobe Illustrator 27.3.1, SVG Export Plug-In . SVG Version: 6.00 Build 0)  -->
<svg version="1.1" id="Layer_1" xmlns="http://www.w3.org/2000/svg" xmlns:xlink="http://www.w3.org/1999/xlink" x="0px" y="0px"
	 viewBox="0 0 11.52 11.52" style="enable-background:new 0 0 11.52 11.52;" xml:space="preserve">
<style type="text/css">
	.st0{fill:#28A8E0;}
	.st1{fill-rule:evenodd;clip-rule:evenodd;fill:#FFFFFF;}
</style>
<g>
	<g>
		<g>
			<g>
				<path class="st0" d="M11.52,5.76c0,3.18-2.58,5.76-5.76,5.76S0,8.94,0,5.76C0,2.58,2.58,0,5.76,0S11.52,2.58,11.52,5.76z"/>
			</g>
		</g>
	</g>
</g>
<path class="st1" d="M9.49,2.15H2.01c-0.16,0-0.29,0.13-0.29,0.29v4.75c0,0.16,0.13,0.29,0.29,0.29h1.91C3.96,7.54,4,7.61,4.04,7.68
	L2.52,9.23c-0.13,0.11-0.13,0.33,0,0.46l0.17,0.17c0.13,0.13,0.35,0.13,0.47,0l1.55-1.52c0.78,0.49,1.83,0.4,2.51-0.28
	C7.6,7.65,7.8,7.11,7.8,6.61c0-0.52-0.2-1.02-0.59-1.43c-0.79-0.79-2.08-0.79-2.87,0c-0.38,0.4-0.58,0.91-0.58,1.43
	c0,0.05,0,0.1,0.01,0.15H2.48V2.85h6.54v3.91h-0.6C8.41,7,8.34,7.24,8.24,7.47h1.25c0.16,0,0.29-0.13,0.29-0.29V2.43
	C9.78,2.27,9.65,2.15,9.49,2.15z M4.79,5.65c0.27-0.26,0.62-0.41,0.99-0.41c0.36,0,0.72,0.16,0.96,0.41C7,5.89,7.15,6.25,7.15,6.61
	c0,0.05,0,0.1-0.01,0.15H5.04c0.03,0.26,0.13,0.5,0.29,0.71h1.52c-0.03,0.04-0.07,0.08-0.1,0.11c-0.53,0.53-1.4,0.53-1.95,0
	C4.54,7.32,4.39,6.97,4.39,6.61C4.39,6.25,4.54,5.89,4.79,5.65z M9.63,4.89c0,0.08-0.07,0.14-0.15,0.14H9.35
	c-0.08,0-0.15-0.06-0.15-0.14V4.76c0-0.08,0.07-0.14,0.15-0.14h0.13c0.08,0,0.15,0.06,0.15,0.14V4.89z"/>
</svg>
