<?xml version="1.0" encoding="utf-8"?>
<!-- Generator: Adobe Illustrator 27.3.1, SVG Export Plug-In . SVG Version: 6.00 Build 0)  -->
<svg version="1.1" id="Layer_1" xmlns="http://www.w3.org/2000/svg" xmlns:xlink="http://www.w3.org/1999/xlink" x="0px" y="0px"
	 viewBox="0 0 11.52 11.52" style="enable-background:new 0 0 11.52 11.52;" xml:space="preserve">
<style type="text/css">
	.st0{fill:#28A8E0;}
	.st1{fill:#FFFFFF;}
</style>
<g>
	<g>
		<g>
			<g>
				<path class="st0" d="M11.52,5.76c0,3.18-2.58,5.76-5.76,5.76S0,8.94,0,5.76C0,2.58,2.58,0,5.76,0S11.52,2.58,11.52,5.76z"/>
			</g>
		</g>
	</g>
</g>
<path class="st1" d="M10.34,5.88c-0.07-0.16-0.16-0.3-0.28-0.41C9.94,5.34,9.8,5.25,9.65,5.18c-0.16-0.07-0.33-0.1-0.51-0.1
	c-0.18,0-0.35,0.03-0.51,0.1C8.61,5.19,8.59,5.2,8.56,5.21L6.78,3.08c0.08-0.09,0.14-0.2,0.18-0.31c0.07-0.16,0.1-0.33,0.1-0.51
	c0-0.18-0.03-0.35-0.1-0.51C6.9,1.6,6.8,1.46,6.68,1.34C6.56,1.22,6.42,1.12,6.27,1.06c-0.16-0.07-0.33-0.1-0.51-0.1
	s-0.35,0.03-0.51,0.1C5.1,1.12,4.96,1.22,4.84,1.34C4.72,1.46,4.62,1.6,4.56,1.75c-0.07,0.16-0.1,0.33-0.1,0.51
	c0,0.18,0.03,0.35,0.1,0.51C4.6,2.88,4.67,2.98,4.74,3.08L2.96,5.21C2.93,5.2,2.91,5.19,2.89,5.18c-0.16-0.07-0.33-0.1-0.51-0.1
	c-0.18,0-0.35,0.03-0.51,0.1c-0.16,0.07-0.3,0.16-0.41,0.28C1.34,5.58,1.24,5.72,1.18,5.88c-0.07,0.16-0.1,0.33-0.1,0.51
	s0.03,0.35,0.1,0.51c0.07,0.16,0.16,0.3,0.28,0.41c0.12,0.12,0.26,0.21,0.41,0.28c0.16,0.07,0.33,0.1,0.51,0.1
	c0.18,0,0.35-0.03,0.51-0.1C2.98,7.55,3.07,7.5,3.14,7.44L4.62,8.7C4.6,8.74,4.58,8.78,4.56,8.83c-0.07,0.16-0.1,0.33-0.1,0.51
	c0,0.18,0.03,0.35,0.1,0.51c0.07,0.16,0.16,0.3,0.28,0.41c0.12,0.12,0.26,0.21,0.41,0.28c0.16,0.07,0.33,0.1,0.51,0.1
	s0.35-0.03,0.51-0.1c0.16-0.07,0.3-0.16,0.41-0.28C6.8,10.14,6.9,10,6.96,9.84c0.07-0.16,0.1-0.33,0.1-0.51
	c0-0.18-0.03-0.35-0.1-0.51C6.94,8.78,6.92,8.74,6.9,8.7l1.47-1.26C8.45,7.5,8.54,7.55,8.63,7.59c0.16,0.07,0.33,0.1,0.51,0.1
	c0.18,0,0.35-0.03,0.51-0.1c0.16-0.07,0.3-0.16,0.41-0.28c0.12-0.12,0.21-0.26,0.28-0.41c0.07-0.16,0.1-0.33,0.1-0.51
	S10.41,6.04,10.34,5.88z M7.94,6.89C7.96,6.94,7.98,6.98,8,7.02L6.53,8.28C6.45,8.22,6.36,8.17,6.27,8.13
	C6.19,8.1,6.12,8.08,6.04,8.06V3.54C6.12,3.52,6.19,3.5,6.27,3.46c0.02-0.01,0.05-0.02,0.07-0.03l1.78,2.13
	c-0.08,0.09-0.14,0.2-0.18,0.31c-0.07,0.16-0.1,0.33-0.1,0.51S7.87,6.73,7.94,6.89z M5.25,8.13C5.16,8.17,5.07,8.22,5,8.28
	L3.52,7.02c0.02-0.04,0.04-0.08,0.06-0.13c0.07-0.16,0.1-0.33,0.1-0.51s-0.03-0.35-0.1-0.51C3.54,5.76,3.47,5.66,3.4,5.57l1.78-2.13
	C5.2,3.44,5.23,3.45,5.25,3.46C5.33,3.5,5.4,3.52,5.48,3.54v4.52C5.4,8.08,5.33,8.1,5.25,8.13z M5.76,1.52
	c0.41,0,0.74,0.33,0.74,0.74S6.17,3,5.76,3C5.35,3,5.02,2.67,5.02,2.26S5.35,1.52,5.76,1.52z M1.64,6.38c0-0.41,0.33-0.74,0.74-0.74
	s0.74,0.33,0.74,0.74S2.79,7.13,2.38,7.13S1.64,6.79,1.64,6.38z M5.76,10.08c-0.41,0-0.74-0.33-0.74-0.74
	c0-0.41,0.33-0.74,0.74-0.74c0.41,0,0.74,0.33,0.74,0.74C6.5,9.75,6.17,10.08,5.76,10.08z M9.14,7.13c-0.41,0-0.74-0.33-0.74-0.74
	s0.33-0.74,0.74-0.74s0.74,0.33,0.74,0.74S9.55,7.13,9.14,7.13z"/>
</svg>
