<?xml version="1.0" encoding="utf-8"?>
<!-- Generator: Adobe Illustrator 27.3.1, SVG Export Plug-In . SVG Version: 6.00 Build 0)  -->
<svg version="1.1" id="Layer_1" xmlns="http://www.w3.org/2000/svg" xmlns:xlink="http://www.w3.org/1999/xlink" x="0px" y="0px"
	 viewBox="0 0 11.52 11.52" style="enable-background:new 0 0 11.52 11.52;" xml:space="preserve">
<style type="text/css">
	.st0{fill:#28A8E0;}
	.st1{fill-rule:evenodd;clip-rule:evenodd;fill:#FFFFFF;}
</style>
<g>
	<g>
		<g>
			<path class="st0" d="M11.52,5.76c0,3.18-2.58,5.76-5.76,5.76S0,8.94,0,5.76C0,2.58,2.58,0,5.76,0S11.52,2.58,11.52,5.76z"/>
		</g>
		<g>
			<g>
				<path class="st1" d="M6.66,5.34C6.46,5,6.34,4.6,6.34,4.17V4.14H2.56c-0.16,0-0.3,0.03-0.41,0.09l3,2.25L6.66,5.34z"/>
			</g>
			<g>
				<path class="st1" d="M1.86,4.5C1.77,4.61,1.73,4.74,1.73,4.88v2.9c0,0.13,0.04,0.24,0.09,0.35l2.19-2.04L1.86,4.5z"/>
			</g>
			<g>
				<path class="st1" d="M8.28,6.25c-0.54,0-1.03-0.23-1.38-0.6L6.3,6.09l2.17,2.05c0.07-0.11,0.11-0.22,0.11-0.35V6.22
					C8.48,6.24,8.39,6.25,8.28,6.25"/>
			</g>
			<g>
				<path class="st1" d="M5.28,6.83c-0.04,0.02-0.1,0.05-0.14,0.05c-0.05,0-0.11-0.03-0.13-0.05L4.3,6.32L2.1,8.43
					c0.14,0.06,0.29,0.12,0.47,0.12h5.15c0.16,0,0.32-0.05,0.46-0.12l-2.2-2.11L5.28,6.83z"/>
			</g>
			<g>
				<path class="st1" d="M8.58,5.28c0-0.14,0.05-0.26,0.1-0.26c0.06,0,0.1,0.12,0.1,0.26c0,0.14-0.05,0.26-0.1,0.26
					C8.63,5.54,8.58,5.42,8.58,5.28"/>
			</g>
			<g>
				<path class="st1" d="M9.37,5.02c-0.07,0-0.11,0.09-0.11,0.28c0,0.12,0.02,0.2,0.05,0.24C9.34,5.5,9.37,5.47,9.4,5.42
					C9.42,5.4,9.44,5.37,9.45,5.36c0.01-0.01,0.02-0.02,0.02-0.04V5.3C9.47,5.11,9.43,5.02,9.37,5.02"/>
			</g>
			<g>
				<path class="st1" d="M7.75,4.19c0-0.14,0.06-0.26,0.13-0.26c0.07,0,0.13,0.12,0.13,0.26c0,0.14-0.06,0.26-0.13,0.26
					C7.81,4.45,7.75,4.33,7.75,4.19"/>
			</g>
			<g>
				<path class="st1" d="M7.29,5.28c0-0.14,0.05-0.26,0.1-0.26c0.06,0,0.1,0.12,0.1,0.26c0,0.14-0.05,0.26-0.1,0.26
					C7.33,5.54,7.29,5.42,7.29,5.28"/>
			</g>
			<g>
				<path class="st1" d="M8.43,4.19c0-0.14,0.05-0.26,0.1-0.26c0.06,0,0.1,0.12,0.1,0.26c0,0.14-0.05,0.26-0.1,0.26
					C8.48,4.45,8.43,4.33,8.43,4.19"/>
			</g>
			<g>
				<path class="st1" d="M9.27,4.54H9.14V4.07H8.96V3.97c0.06,0,0.1-0.01,0.13-0.04c0.03-0.01,0.05-0.04,0.06-0.1h0.11V4.54z
					 M8.9,3.34C8.85,3.42,8.79,3.45,8.7,3.45c-0.08,0-0.15-0.03-0.19-0.1C8.46,3.29,8.44,3.19,8.44,3.09c0-0.12,0.02-0.21,0.06-0.27
					c0.05-0.06,0.11-0.1,0.19-0.1c0.09,0,0.15,0.03,0.19,0.1c0.05,0.06,0.07,0.16,0.07,0.27C8.96,3.19,8.94,3.28,8.9,3.34
					 M8.88,5.55c-0.04,0.07-0.11,0.11-0.2,0.11c-0.08,0-0.14-0.03-0.19-0.11C8.44,5.49,8.42,5.4,8.42,5.29
					c0-0.12,0.02-0.2,0.06-0.26c0.05-0.07,0.11-0.11,0.19-0.11c0.09,0,0.15,0.03,0.2,0.11c0.04,0.06,0.06,0.15,0.06,0.26
					C8.94,5.39,8.92,5.49,8.88,5.55 M8.35,4.45C8.31,4.39,8.29,4.29,8.29,4.19c0-0.12,0.02-0.2,0.06-0.27
					c0.05-0.06,0.11-0.1,0.19-0.1c0.09,0,0.15,0.03,0.2,0.11c0.04,0.06,0.06,0.15,0.06,0.26c0,0.11-0.02,0.19-0.06,0.26
					c-0.04,0.06-0.11,0.11-0.2,0.11C8.46,4.56,8.4,4.52,8.35,4.45 M8.18,3.44H8.03V2.97H7.86V2.87c0.06,0,0.11-0.01,0.14-0.04
					c0.02-0.02,0.04-0.05,0.05-0.1h0.12V3.44z M8.16,5.65H8.01V5.17H7.84V5.07c0.06,0,0.11-0.01,0.14-0.03
					C8,5.01,8.02,4.98,8.03,4.94h0.12V5.65z M7.68,4.45C7.63,4.39,7.61,4.29,7.61,4.19c0-0.12,0.02-0.2,0.07-0.27
					c0.04-0.06,0.1-0.1,0.19-0.1c0.08,0,0.14,0.03,0.19,0.11c0.04,0.06,0.06,0.15,0.06,0.26c0,0.11-0.02,0.19-0.06,0.26
					C8.03,4.52,7.96,4.56,7.88,4.56C7.79,4.56,7.73,4.52,7.68,4.45 M7.4,4.54H7.26V4.07H7.09V3.97c0.05,0,0.1-0.01,0.13-0.04
					c0.02-0.01,0.04-0.04,0.06-0.1H7.4V4.54z M9.55,4.45C9.51,4.39,9.48,4.29,9.48,4.19c0-0.12,0.03-0.2,0.07-0.27
					c0.04-0.06,0.11-0.1,0.19-0.1c0.05,0,0.09,0.01,0.13,0.03c0-0.01-0.01-0.02-0.01-0.02C9.86,3.78,9.85,3.72,9.84,3.68
					C9.81,3.56,9.77,3.47,9.72,3.37c-0.03-0.05-0.06-0.1-0.08-0.15c-0.05-0.07-0.1-0.14-0.16-0.21v0.42H9.33V2.97H9.16V2.87
					c0.05,0,0.09-0.01,0.12-0.03C9,2.61,8.66,2.48,8.27,2.48c-0.31,0-0.59,0.08-0.84,0.24c0.07,0,0.12,0.04,0.16,0.1
					c0.05,0.06,0.07,0.16,0.07,0.27c0,0.11-0.02,0.19-0.06,0.25C7.55,3.42,7.49,3.45,7.4,3.45c-0.08,0-0.15-0.03-0.19-0.1
					C7.16,3.29,7.13,3.19,7.13,3.09c0-0.06,0.01-0.12,0.02-0.16c-0.09,0.1-0.17,0.19-0.25,0.3c-0.03,0.05-0.05,0.1-0.08,0.15
					c0,0-0.03,0.05-0.03,0.06C6.76,3.51,6.73,3.6,6.7,3.68C6.69,3.72,6.67,3.77,6.66,3.82h0.01c0.08,0,0.15,0.03,0.19,0.11
					c0.05,0.06,0.07,0.15,0.07,0.26c0,0.11-0.02,0.19-0.06,0.26c-0.05,0.06-0.11,0.11-0.2,0.11c0,0.01,0,0.03,0.01,0.05
					C6.72,4.73,6.75,4.83,6.8,4.94c0,0,0.04,0.08,0.06,0.11c0.01,0.03,0.03,0.06,0.05,0.1C6.95,5.21,7,5.28,7.05,5.34
					C7.07,5.35,7.09,5.37,7.1,5.39l0.03,0.02C7.12,5.37,7.12,5.33,7.12,5.29c0-0.12,0.02-0.2,0.06-0.26
					C7.24,4.95,7.3,4.92,7.38,4.92c0.09,0,0.15,0.03,0.19,0.11c0.05,0.06,0.07,0.15,0.07,0.26c0,0.11-0.02,0.2-0.06,0.26
					c-0.04,0.05-0.09,0.1-0.15,0.11C7.47,5.68,7.51,5.7,7.56,5.73C7.6,5.75,7.65,5.77,7.71,5.8c0.07,0.02,0.15,0.05,0.23,0.06
					C7.99,5.87,8.05,5.88,8.1,5.89c0.05,0,0.11,0.01,0.16,0.01c0.06,0,0.11-0.01,0.17-0.01c0.05-0.01,0.1-0.02,0.16-0.03
					C8.69,5.85,8.76,5.82,8.84,5.8c0.04-0.02,0.09-0.04,0.14-0.06c0.08-0.04,0.16-0.1,0.23-0.15C9.21,5.57,9.2,5.56,9.19,5.55
					C9.15,5.49,9.13,5.4,9.13,5.29c0-0.12,0.02-0.2,0.07-0.26c0.04-0.07,0.1-0.11,0.19-0.11c0.08,0,0.14,0.03,0.19,0.11
					C9.61,5.06,9.63,5.1,9.64,5.14c0.1-0.16,0.17-0.34,0.22-0.53c0.01-0.02,0.01-0.04,0.01-0.07c0.01,0,0.01-0.01,0.01-0.02
					C9.84,4.54,9.8,4.56,9.75,4.56C9.67,4.56,9.6,4.52,9.55,4.45"/>
			</g>
			<g>
				<path class="st1" d="M9.62,4.19c0-0.14,0.06-0.26,0.13-0.26c0.07,0,0.13,0.12,0.13,0.26c0,0.14-0.06,0.26-0.13,0.26
					C9.68,4.45,9.62,4.33,9.62,4.19"/>
			</g>
			<g>
				<path class="st1" d="M8.58,3.07c0-0.13,0.05-0.23,0.1-0.23c0.06,0,0.1,0.1,0.1,0.23c0,0.13-0.05,0.23-0.1,0.23
					C8.63,3.31,8.58,3.2,8.58,3.07"/>
			</g>
			<g>
				<path class="st1" d="M7.29,3.07c0-0.13,0.05-0.23,0.1-0.23c0.06,0,0.1,0.1,0.1,0.23c0,0.13-0.05,0.23-0.1,0.23
					C7.33,3.31,7.29,3.2,7.29,3.07"/>
			</g>
			<g>
				<path class="st1" d="M6.82,4.19c0-0.18-0.05-0.27-0.16-0.27H6.63C6.61,4.02,6.61,4.11,6.61,4.19c0,0.09,0,0.17,0.01,0.25h0.04
					C6.77,4.45,6.82,4.37,6.82,4.19"/>
			</g>
		</g>
	</g>
</g>
</svg>
