<?xml version="1.0" encoding="utf-8"?>
<!-- Generator: Adobe Illustrator 27.3.1, SVG Export Plug-In . SVG Version: 6.00 Build 0)  -->
<svg version="1.1" id="Layer_1" xmlns="http://www.w3.org/2000/svg" xmlns:xlink="http://www.w3.org/1999/xlink" x="0px" y="0px"
	 viewBox="0 0 11.52 11.52" style="enable-background:new 0 0 11.52 11.52;" xml:space="preserve">
<style type="text/css">
	.st0{fill:#28A8E0;}
	.st1{fill:#FFFFFF;}
	.st2{fill-rule:evenodd;clip-rule:evenodd;fill:#FFFFFF;}
</style>
<g>
	<g>
		<g>
			<path class="st0" d="M11.52,5.76c0,3.18-2.58,5.76-5.76,5.76S0,8.94,0,5.76C0,2.58,2.58,0,5.76,0S11.52,2.58,11.52,5.76z"/>
		</g>
	</g>
</g>
<g>
	<path class="st1" d="M9.37,7.28H9.28v-3.5c0-0.36-0.3-0.66-0.66-0.66H2.87c-0.36,0-0.66,0.3-0.66,0.66v3.5H2.12
		c-0.33,0-0.59,0.26-0.59,0.59c0,0.33,0.26,0.59,0.59,0.59h7.24c0.33,0,0.59-0.26,0.59-0.59C9.96,7.55,9.69,7.28,9.37,7.28z
		 M2.73,3.78c0-0.08,0.06-0.14,0.14-0.14h5.75c0.08,0,0.14,0.06,0.14,0.14v3.5H2.73V3.78z"/>
	<path class="st2" d="M6.52,4.77c-0.32,0-0.6,0.2-0.72,0.48H4.39L4.17,5.54l0.22,0.29h0.28l0.1,0.1l0.11,0.1l0.1-0.1l0.1-0.1
		l0.1,0.1l0.11,0.1l0.1-0.1l0.1-0.1H5.8c0.12,0.28,0.4,0.48,0.72,0.48c0.43,0,0.78-0.35,0.78-0.78C7.29,5.11,6.95,4.77,6.52,4.77z
		 M6.87,5.75c-0.12,0-0.21-0.1-0.21-0.21c0-0.12,0.1-0.21,0.21-0.21c0.12,0,0.21,0.1,0.21,0.21C7.08,5.66,6.99,5.75,6.87,5.75z"/>
</g>
</svg>
