<?xml version="1.0" encoding="utf-8"?>
<!-- Generator: Adobe Illustrator 27.3.1, SVG Export Plug-In . SVG Version: 6.00 Build 0)  -->
<svg version="1.1" id="Layer_1" xmlns="http://www.w3.org/2000/svg" xmlns:xlink="http://www.w3.org/1999/xlink" x="0px" y="0px"
	 viewBox="0 0 11.52 11.52" style="enable-background:new 0 0 11.52 11.52;" xml:space="preserve">
<style type="text/css">
	.st0{fill:#28A8E0;}
	.st1{fill-rule:evenodd;clip-rule:evenodd;fill:#FFFFFF;}
	.st2{fill-rule:evenodd;clip-rule:evenodd;fill:#28A8E0;}
</style>
<g>
	<g>
		<g>
			<path class="st0" d="M11.52,5.76c0,3.18-2.58,5.76-5.76,5.76S0,8.94,0,5.76C0,2.58,2.58,0,5.76,0S11.52,2.58,11.52,5.76z"/>
		</g>
	</g>
</g>
<g>
	<g>
		<g>
			<path class="st1" d="M2.87,4.36L2.85,4.37C2.69,4.54,2.7,4.83,2.87,4.99c0.2,0.16,0.45,0.15,0.62-0.03l0.02-0.01l0.03-0.04
				C4.73,3.68,6.7,3.66,7.95,4.86L8,4.92l0.02,0.01C8.19,5.1,8.46,5.11,8.63,4.97c0.17-0.18,0.18-0.45,0-0.63L8.61,4.32L8.54,4.25
				C6.94,2.71,4.44,2.73,2.92,4.3L2.87,4.36z"/>
		</g>
		<g>
			<path class="st1" d="M9.94,4.03C9.76,4.15,9.51,4.12,9.36,3.95c-0.65-0.72-1.87-1.5-3.39-1.57C4.25,2.33,2.82,3.17,2.16,4.03
				c-0.15,0.2-0.44,0.24-0.64,0.09c-0.2-0.15-0.24-0.44-0.09-0.64C2.42,2.2,4.21,1.41,6.01,1.48c1.53,0.06,3.04,0.76,4.03,1.86
				C10.2,3.53,10.18,3.82,10,3.99C9.98,4,9.96,4.02,9.94,4.03"/>
		</g>
	</g>
	<g>
		<path class="st1" d="M7.08,6.86c0.05,0.13,0.07,0.26,0.07,0.41c0,0.14-0.02,0.27-0.07,0.4h0.05c0.11,0,0.21,0.09,0.21,0.21V8.1
			c0.17,0.02,0.3,0.18,0.3,0.38v1.3c0,0.21-0.16,0.38-0.34,0.38H5.92V8.47H5.78v1.67H4.4c-0.19,0-0.33-0.17-0.33-0.38v-1.3
			c0-0.2,0.13-0.36,0.29-0.38V7.87c0-0.11,0.09-0.21,0.21-0.21h0.05C4.58,7.53,4.55,7.4,4.55,7.26c0-0.15,0.03-0.28,0.07-0.41
			C4.14,6.79,3.84,6.7,3.84,6.62c0-0.14,0.37-0.28,0.92-0.34l0.3-1c0.01-0.04,0.04-0.08,0.1-0.08h1.38c0.06,0,0.09,0.04,0.11,0.08
			l0.29,1C7.5,6.33,7.86,6.48,7.87,6.62C7.87,6.7,7.56,6.79,7.08,6.86z"/>
		<g>
			<path class="st2" d="M5.88,6.93H5.86H5.84H5.83c-0.32,0-0.64-0.01-0.91-0.04c-0.03,0.05-0.04,0.1-0.04,0.18v0.38
				c0,0.09,0.04,0.18,0.09,0.22h0.16c0.11,0,0.21,0.09,0.21,0.21v0.42c0.29,0.17,0.73,0.17,1.02,0V7.87c0-0.11,0.09-0.21,0.21-0.21
				h0.16c0.06-0.04,0.1-0.13,0.1-0.22V7.06c0-0.07-0.02-0.13-0.05-0.18C6.51,6.92,6.2,6.93,5.88,6.93z M5.65,7.2v0.18
				C5.64,7.47,5.57,7.56,5.47,7.56H5.25c-0.09,0-0.18-0.08-0.18-0.18V7.09c0-0.02,0.01-0.03,0.03-0.03h0.04h0.4
				C5.67,7.05,5.65,7.09,5.65,7.2z M6.56,7.38c0,0.09-0.07,0.18-0.18,0.18H6.16c-0.09,0-0.18-0.08-0.18-0.18V7.21
				c0-0.13,0.01-0.16,0.14-0.16H6.5h0.01h0.03c0.01,0,0.02,0.01,0.02,0.03V7.38z"/>
		</g>
	</g>
</g>
</svg>
