<?xml version="1.0" encoding="utf-8"?>
<!-- Generator: Adobe Illustrator 27.3.1, SVG Export Plug-In . SVG Version: 6.00 Build 0)  -->
<svg version="1.1" id="Layer_1" xmlns="http://www.w3.org/2000/svg" xmlns:xlink="http://www.w3.org/1999/xlink" x="0px" y="0px"
	 viewBox="0 0 11.52 11.52" style="enable-background:new 0 0 11.52 11.52;" xml:space="preserve">
<style type="text/css">
	.st0{fill:#28A8E0;}
	.st1{fill:#FFFFFF;}
</style>
<g>
	<g>
		<g>
			<path class="st0" d="M11.52,5.76c0,3.18-2.58,5.76-5.76,5.76S0,8.94,0,5.76C0,2.58,2.58,0,5.76,0S11.52,2.58,11.52,5.76z"/>
		</g>
		<g>
			<path class="st1" d="M5.72,1.31c-2.41,0-4.38,1.98-4.38,4.4c0,2.43,1.96,4.4,4.38,4.4s4.38-1.98,4.38-4.4
				C10.1,3.29,8.13,1.31,5.72,1.31z M5.72,9.42c-2.02,0-3.67-1.66-3.67-3.7s1.65-3.7,3.67-3.7s3.67,1.66,3.67,3.7
				S7.74,9.42,5.72,9.42z"/>
			<path class="st1" d="M7.38,4.49L6.03,5.34V2.72c0-0.18-0.14-0.32-0.32-0.32c-0.18,0-0.32,0.14-0.32,0.32v3.19
				c0,0.09,0.04,0.17,0.1,0.23C5.5,6.15,5.52,6.16,5.53,6.17c0,0,0.01,0.01,0.01,0.01c0.05,0.04,0.11,0.06,0.18,0.06
				c0.06,0,0.12-0.02,0.17-0.05l1.83-1.16c0.15-0.09,0.19-0.29,0.1-0.44C7.72,4.44,7.53,4.39,7.38,4.49z"/>
		</g>
	</g>
</g>
</svg>
