<?xml version="1.0" encoding="utf-8"?>
<!-- Generator: Adobe Illustrator 27.3.1, SVG Export Plug-In . SVG Version: 6.00 Build 0)  -->
<svg version="1.1" xmlns="http://www.w3.org/2000/svg" xmlns:xlink="http://www.w3.org/1999/xlink" x="0px" y="0px"
	 viewBox="0 0 11.52 11.52" style="enable-background:new 0 0 11.52 11.52;" xml:space="preserve">
<style type="text/css">
	.st0{fill:#28A8E0;}
	.st1{fill:#FFFFFF;}
</style>
<g id="Layer_1">
	<g>
		<g>
			<g>
				<path class="st0" d="M11.52,5.76c0,3.18-2.58,5.76-5.76,5.76S0,8.94,0,5.76C0,2.58,2.58,0,5.76,0S11.52,2.58,11.52,5.76z"/>
			</g>
		</g>
	</g>
	<g>
		<path class="st1" d="M6.95,3.62H4.58c-0.12,0-0.21,0.09-0.21,0.21c0,0.12,0.09,0.21,0.21,0.21h2.38c0.12,0,0.21-0.09,0.21-0.21
			C7.16,3.72,7.07,3.62,6.95,3.62z"/>
		<path class="st1" d="M6.95,4.81H4.58c-0.12,0-0.21,0.09-0.21,0.21c0,0.12,0.09,0.21,0.21,0.21h2.38c0.12,0,0.21-0.09,0.21-0.21
			C7.16,4.91,7.07,4.81,6.95,4.81z"/>
		<path class="st1" d="M5.62,6H4.58C4.46,6,4.36,6.1,4.36,6.22s0.09,0.21,0.21,0.21h1.04c0.12,0,0.21-0.09,0.21-0.21S5.73,6,5.62,6z
			"/>
		<path class="st1" d="M3.62,8.07v-5c0-0.17,0.14-0.3,0.3-0.3h3.64c0.17,0,0.3,0.14,0.3,0.3v2.97h0.48V3.07
			c0-0.43-0.35-0.78-0.78-0.78H3.92c-0.43,0-0.78,0.35-0.78,0.78v5c0,0.43,0.35,0.78,0.78,0.78h1.72V8.37H3.92
			C3.76,8.37,3.62,8.24,3.62,8.07z"/>
		<path class="st1" d="M8.96,9.55L8.41,8.68L8.58,8.6c0.03-0.02,0.05-0.05,0.05-0.08L8.61,8.25c0-0.03,0.01-0.08,0.03-0.1l0.15-0.22
			c0.02-0.03,0.02-0.07,0-0.1L8.64,7.61c-0.02-0.02-0.03-0.07-0.03-0.1l0.02-0.27c0-0.04-0.02-0.07-0.05-0.08L8.34,7.04
			C8.32,7.03,8.28,6.99,8.27,6.96L8.15,6.72C8.13,6.69,8.1,6.67,8.07,6.67L7.8,6.69c-0.03,0-0.08-0.01-0.1-0.03L7.48,6.51
			c0,0,0,0,0,0c0,0-0.03-0.01-0.05-0.01c-0.02,0-0.04,0.01-0.05,0.01c0,0,0,0,0,0L7.15,6.67c-0.02,0.02-0.07,0.03-0.1,0.03
			L6.79,6.67c-0.03,0-0.07,0.02-0.08,0.05L6.59,6.96C6.57,6.99,6.54,7.03,6.51,7.04L6.27,7.15C6.24,7.17,6.22,7.2,6.22,7.24
			l0.02,0.27c0,0.03-0.01,0.08-0.03,0.1L6.06,7.83c-0.02,0.03-0.02,0.07,0,0.1l0.15,0.22c0.02,0.02,0.03,0.07,0.03,0.1L6.22,8.52
			c0,0.04,0.02,0.07,0.05,0.08l0.17,0.08L5.89,9.55c-0.02,0.03-0.02,0.07,0,0.1c0.02,0.03,0.06,0.04,0.09,0.03l0.52-0.15l0.15,0.52
			c0.01,0.04,0.04,0.06,0.08,0.06c0,0,0,0,0.01,0c0.03,0,0.07-0.02,0.08-0.05l0.39-0.94l0.17,0.12c0,0,0,0,0,0
			c0,0,0.01,0.01,0.02,0.01c0,0,0,0,0.01,0c0.01,0,0.01,0,0.02,0c0,0,0,0,0,0h0c0,0,0,0,0,0c0.01,0,0.01,0,0.02,0c0,0,0,0,0.01,0
			c0.01,0,0.01,0,0.02-0.01c0,0,0,0,0,0l0.17-0.12l0.39,0.94c0.01,0.03,0.04,0.05,0.08,0.05c0,0,0,0,0.01,0
			c0.04,0,0.07-0.03,0.08-0.06l0.15-0.52l0.52,0.15c0.03,0.01,0.07,0,0.09-0.03C8.98,9.62,8.98,9.58,8.96,9.55z M7.43,8.7
			C6.97,8.7,6.6,8.33,6.6,7.88c0-0.46,0.37-0.83,0.83-0.83c0.46,0,0.83,0.37,0.83,0.83C8.26,8.33,7.89,8.7,7.43,8.7z"/>
	</g>
</g>
<g id="Layer_2">
</g>
</svg>
