<?xml version="1.0" encoding="utf-8"?>
<!-- Generator: Adobe Illustrator 27.3.1, SVG Export Plug-In . SVG Version: 6.00 Build 0)  -->
<svg version="1.1" id="Layer_1" xmlns="http://www.w3.org/2000/svg" xmlns:xlink="http://www.w3.org/1999/xlink" x="0px" y="0px"
	 viewBox="0 0 11.52 11.52" style="enable-background:new 0 0 11.52 11.52;" xml:space="preserve">
<style type="text/css">
	.st0{fill:#28A8E0;}
	.st1{fill-rule:evenodd;clip-rule:evenodd;fill:#FFFFFF;}
</style>
<g>
	<g>
		<g>
			<path class="st0" d="M11.52,5.76c0,3.18-2.58,5.76-5.76,5.76S0,8.94,0,5.76C0,2.58,2.58,0,5.76,0S11.52,2.58,11.52,5.76z"/>
		</g>
		<g>
			<path class="st1" d="M5.7,5.52c0.04,0.04,0.04,0.04,0.04,0.04c0.04,0,0.04,0,0.04,0c0.04,0,0.04,0,0.04,0c0.08,0,0.08,0,0.08,0
				c0.04,0,0.04,0,0.04,0c0.04,0,0.04,0,0.04,0c0.04,0,0.04,0,0.04,0c0.04,0,0.04,0,0.04,0c0.04,0,0.04,0,0.04,0
				c0.04,0,0.04,0,0.04,0c0.08,0,0.08,0,0.08,0c0.04,0,0.04,0,0.04,0c0.04,0,0.04,0,0.04,0c0.04-0.04,0.04-0.04,0.04-0.04
				c0.04,0,0.04,0,0.04,0c0.04,0,0.04,0,0.04,0c0.04-0.04,0.04-0.04,0.04-0.04c0.04,0,0.04,0,0.04,0C6.5,5.44,6.5,5.44,6.5,5.44
				c0.04,0,0.04,0,0.04,0C6.58,5.4,6.58,5.4,6.58,5.4c0.04,0,0.04,0,0.04,0c0.04-0.04,0.04-0.04,0.04-0.04
				c0.04-0.04,0.04-0.04,0.04-0.04c0.04,0,0.04,0,0.04,0c0-0.04,0-0.04,0-0.04c0.04,0,0.04,0,0.04,0c0.04-0.04,0.04-0.04,0.04-0.04
				c0.04-0.04,0.04-0.04,0.04-0.04c0-0.04,0-0.04,0-0.04c0.04,0,0.04,0,0.04,0c0.04-0.04,0.04-0.04,0.04-0.04c0-0.04,0-0.04,0-0.04
				c0.04-0.04,0.04-0.04,0.04-0.04c0-0.04,0-0.04,0-0.04c0.04,0,0.04,0,0.04,0c0-0.04,0-0.04,0-0.04c0-0.04,0-0.04,0-0.04
				c0-0.04,0-0.04,0-0.04c0.04-0.04,0.04-0.04,0.04-0.04l0,0c0-0.04,0-0.04,0-0.04c0-0.04,0-0.04,0-0.04l0,0C7,4.75,7,4.75,7,4.75
				l0,0c0-0.04,0-0.04,0-0.04c0-0.04,0-0.04,0-0.04c-0.04,0-0.04,0-0.04,0c0-0.04,0-0.04,0-0.04c-0.04,0-0.04,0-0.04,0l0,0
				C6.88,4.6,6.88,4.6,6.88,4.6l0,0c-0.04,0-0.04,0-0.04,0l0,0c-0.04,0-0.04,0-0.04,0C6.77,4.56,6.77,4.56,6.77,4.56l0,0
				c-0.04,0-0.04,0-0.04,0c-0.04,0-0.04,0-0.04,0l0,0C6.65,4.6,6.65,4.6,6.65,4.6c-0.08,0-0.08,0-0.08,0c-0.08,0-0.08,0-0.08,0
				C6.43,4.64,6.43,4.64,6.43,4.64C6.35,4.68,6.35,4.68,6.35,4.68C6.27,4.71,6.27,4.71,6.27,4.71C6.2,4.75,6.2,4.75,6.2,4.75
				C6,4.83,6,4.83,6,4.83C5.85,4.87,5.85,4.87,5.85,4.87C5.7,4.94,5.7,4.94,5.7,4.94c-0.04,0-0.04,0-0.04,0
				C5.62,4.98,5.62,4.98,5.62,4.98C5.55,5.02,5.55,5.02,5.55,5.02c-0.11,0-0.11,0-0.11,0C5.32,5.06,5.32,5.06,5.32,5.06
				c-0.11,0-0.11,0-0.11,0C5.09,5.1,5.09,5.1,5.09,5.1c-0.11,0-0.11,0-0.11,0c-0.15,0-0.15,0-0.15,0c0-0.04,0-0.04,0-0.04
				c0.04-0.08,0.04-0.08,0.04-0.08c0-0.04,0-0.04,0-0.04C4.9,4.87,4.9,4.87,4.9,4.87c0.11,0,0.11,0,0.11,0
				c0.11-0.04,0.11-0.04,0.11-0.04c0.08,0,0.08,0,0.08,0c0.11-0.04,0.11-0.04,0.11-0.04c0.08,0,0.08,0,0.08,0
				c0.08-0.04,0.08-0.04,0.08-0.04c0.08,0,0.08,0,0.08,0c0.08-0.04,0.08-0.04,0.08-0.04c0.15-0.04,0.15-0.04,0.15-0.04
				C5.89,4.6,5.89,4.6,5.89,4.6c0.23-0.08,0.23-0.08,0.23-0.08C6.2,4.48,6.2,4.48,6.2,4.48c0.11-0.04,0.11-0.04,0.11-0.04
				c0.08-0.04,0.08-0.04,0.08-0.04C6.5,4.37,6.5,4.37,6.5,4.37c0.04,0,0.04,0,0.04,0c0.04,0,0.04,0,0.04,0
				c0.04-0.04,0.04-0.04,0.04-0.04c0.04,0,0.04,0,0.04,0c0.04,0,0.04,0,0.04,0c0.04,0,0.04,0,0.04,0c0.04,0,0.04,0,0.04,0
				c0.04,0,0.04,0,0.04,0c0.04,0,0.04,0,0.04,0c0.04,0.04,0.04,0.04,0.04,0.04c0.04,0,0.04,0,0.04,0c0.04,0,0.04,0,0.04,0
				C7,4.41,7,4.41,7,4.41c0.04,0,0.04,0,0.04,0c0,0.04,0,0.04,0,0.04c0.04,0,0.04,0,0.04,0c0.04,0.04,0.04,0.04,0.04,0.04
				c0.04,0.04,0.04,0.04,0.04,0.04c0,0.04,0,0.04,0,0.04C7.19,4.6,7.19,4.6,7.19,4.6c0.04,0.04,0.04,0.04,0.04,0.04
				c0,0.04,0,0.04,0,0.04c0,0.04,0,0.04,0,0.04c0.04,0.04,0.04,0.04,0.04,0.04c0,0.04,0,0.04,0,0.04c0,0.04,0,0.04,0,0.04
				c0,0.04,0,0.04,0,0.04c0,0.08,0,0.08,0,0.08C7.23,4.98,7.23,4.98,7.23,4.98c0,0.04,0,0.04,0,0.04C7.19,5.06,7.19,5.06,7.19,5.06
				c0,0.08,0,0.08,0,0.08C7.15,5.17,7.15,5.17,7.15,5.17C7.11,5.21,7.11,5.21,7.11,5.21c0,0.04,0,0.04,0,0.04
				C7.07,5.33,7.07,5.33,7.07,5.33c-0.04,0-0.04,0-0.04,0C7,5.36,7,5.36,7,5.36C6.96,5.4,6.96,5.4,6.96,5.4
				C6.92,5.44,6.92,5.44,6.92,5.44C6.88,5.48,6.88,5.48,6.88,5.48C6.85,5.52,6.85,5.52,6.85,5.52C6.81,5.55,6.81,5.55,6.81,5.55
				c-0.04,0-0.04,0-0.04,0C6.73,5.59,6.73,5.59,6.73,5.59C6.69,5.63,6.69,5.63,6.69,5.63c-0.04,0-0.04,0-0.04,0
				C6.62,5.67,6.62,5.67,6.62,5.67C6.54,5.71,6.54,5.71,6.54,5.71c-0.04,0-0.04,0-0.04,0C6.46,5.75,6.46,5.75,6.46,5.75
				c-0.08,0-0.08,0-0.08,0c-0.04,0-0.04,0-0.04,0C6.31,5.78,6.31,5.78,6.31,5.78c-0.08,0-0.08,0-0.08,0c-0.04,0-0.04,0-0.04,0
				C6.16,5.82,6.16,5.82,6.16,5.82c-0.08,0-0.08,0-0.08,0c-0.04,0-0.04,0-0.04,0c-0.08,0-0.08,0-0.08,0c-0.04,0-0.04,0-0.04,0
				c-0.08,0-0.08,0-0.08,0C5.81,5.78,5.81,5.78,5.81,5.78c-0.08,0-0.08,0-0.08,0c-0.04,0-0.04,0-0.04,0
				C5.62,5.75,5.62,5.75,5.62,5.75c-0.04,0-0.04,0-0.04,0C5.51,5.71,5.51,5.71,5.51,5.71c-0.08,0-0.08,0-0.08,0
				C5.36,5.67,5.36,5.67,5.36,5.67c-0.08,0-0.08,0-0.08,0C5.2,5.63,5.2,5.63,5.2,5.63c-0.08,0-0.08,0-0.08,0
				C5.01,5.59,5.01,5.59,5.01,5.59c-0.11,0-0.11,0-0.11,0c-0.08,0-0.08,0-0.08,0C4.78,5.52,4.78,5.52,4.78,5.52
				c0-0.04,0-0.04,0-0.04c0-0.08,0-0.08,0-0.08c0-0.08,0-0.08,0-0.08c0.08,0,0.08,0,0.08,0c0.08,0.04,0.08,0.04,0.08,0.04
				c0.04-0.04,0.04-0.04,0.04-0.04c0.08,0,0.08,0,0.08,0c0.08,0,0.08,0,0.08,0c0.04,0,0.04,0,0.04,0c0.04,0,0.04,0,0.04,0
				c0.08,0,0.08,0,0.08,0c0.04,0,0.04,0,0.04,0c0.08,0,0.08,0,0.08,0c0.04-0.04,0.04-0.04,0.04-0.04c0.04,0,0.04,0,0.04,0
				c0.08,0,0.08,0,0.08,0c0.04-0.04,0.04-0.04,0.04-0.04c0.04,0,0.04,0,0.04,0c0.04,0,0.04,0,0.04,0c0.11-0.04,0.11-0.04,0.11-0.04
				c0.08-0.04,0.08-0.04,0.08-0.04c0.08-0.04,0.08-0.04,0.08-0.04C6.04,5.1,6.04,5.1,6.04,5.1c0.08-0.08,0.08-0.08,0.08-0.08
				C6.2,4.98,6.2,4.98,6.2,4.98c0.08-0.04,0.08-0.04,0.08-0.04c0.11-0.08,0.11-0.08,0.11-0.08c0.04,0,0.04,0,0.04,0
				c0-0.04,0-0.04,0-0.04c0.04,0,0.04,0,0.04,0c0.04,0,0.04,0,0.04,0l0,0c0.04-0.04,0.04-0.04,0.04-0.04c0.04,0,0.04,0,0.04,0l0,0
				c0.04,0,0.04,0,0.04,0c0.04,0.04,0.04,0.04,0.04,0.04l0,0c0.04,0,0.04,0,0.04,0c0.04,0.04,0.04,0.04,0.04,0.04l0,0
				c0.04,0.04,0.04,0.04,0.04,0.04l0,0c0,0.04,0,0.04,0,0.04l0,0c0,0.04,0,0.04,0,0.04l0,0c0,0.04,0,0.04,0,0.04
				c-0.04,0-0.04,0-0.04,0c0,0.04,0,0.04,0,0.04l0,0C6.69,5.1,6.69,5.1,6.69,5.1C6.65,5.13,6.65,5.13,6.65,5.13l0,0
				C6.58,5.17,6.58,5.17,6.58,5.17C6.54,5.21,6.54,5.21,6.54,5.21C6.46,5.25,6.46,5.25,6.46,5.25C6.43,5.29,6.43,5.29,6.43,5.29
				C6.35,5.33,6.35,5.33,6.35,5.33C6.31,5.36,6.31,5.36,6.31,5.36c-0.08,0-0.08,0-0.08,0C6.2,5.4,6.2,5.4,6.2,5.4
				c-0.08,0-0.08,0-0.08,0C6.08,5.44,6.08,5.44,6.08,5.44C6,5.44,6,5.44,6,5.44C5.93,5.48,5.93,5.48,5.93,5.48
				c-0.11,0-0.11,0-0.11,0C5.66,5.52,5.66,5.52,5.66,5.52H5.7z M4.97,4.64c0.04-0.08,0.04-0.08,0.04-0.08c0-0.08,0-0.08,0-0.08
				c0.04-0.04,0.04-0.04,0.04-0.04c0.08-0.04,0.08-0.04,0.08-0.04c0.08,0,0.08,0,0.08,0c0.04,0,0.04,0,0.04,0
				c0.08-0.04,0.08-0.04,0.08-0.04c0.04,0,0.04,0,0.04,0c0.08-0.04,0.08-0.04,0.08-0.04c0.04,0,0.04,0,0.04,0c0.04,0,0.04,0,0.04,0
				c0.11-0.08,0.11-0.08,0.11-0.08c0.11-0.04,0.11-0.04,0.11-0.04C5.97,4.1,5.97,4.1,5.97,4.1c0.08-0.04,0.08-0.04,0.08-0.04
				c0.11-0.04,0.11-0.04,0.11-0.04c0.11-0.04,0.11-0.04,0.11-0.04c0.11-0.08,0.11-0.08,0.11-0.08c0.04,0,0.04,0,0.04,0
				C6.5,3.87,6.5,3.87,6.5,3.87c0.04,0,0.04,0,0.04,0c0.04,0,0.04,0,0.04,0c0.08-0.04,0.08-0.04,0.08-0.04c0.04,0,0.04,0,0.04,0
				c0.08,0,0.08,0,0.08,0c0.04,0,0.04,0,0.04,0c0.04,0,0.04,0,0.04,0c0.08,0,0.08,0,0.08,0c0.04,0,0.04,0,0.04,0
				c0.04,0,0.04,0,0.04,0c0.04,0,0.04,0,0.04,0c0.08,0,0.08,0,0.08,0c0.04,0.04,0.04,0.04,0.04,0.04c0.04,0,0.04,0,0.04,0
				c0.08,0.04,0.08,0.04,0.08,0.04C7.3,3.95,7.3,3.95,7.3,3.95c0.04,0.04,0.04,0.04,0.04,0.04c0.04,0.04,0.04,0.04,0.04,0.04
				c0.04,0.04,0.04,0.04,0.04,0.04C7.46,4.1,7.46,4.1,7.46,4.1c0.08,0.04,0.08,0.04,0.08,0.04c0.04,0.08,0.04,0.08,0.04,0.08
				c0,0.04,0,0.04,0,0.04c0.04,0.04,0.04,0.04,0.04,0.04c0,0.04,0,0.04,0,0.04c0.04,0.04,0.04,0.04,0.04,0.04c0,0.04,0,0.04,0,0.04
				c0.04,0.04,0.04,0.04,0.04,0.04c0,0.04,0,0.04,0,0.04c0,0.04,0,0.04,0,0.04C7.72,4.6,7.72,4.6,7.72,4.6c0,0.04,0,0.04,0,0.04
				c0,0.04,0,0.04,0,0.04c0,0.04,0,0.04,0,0.04c0,0.04,0,0.04,0,0.04c0,0.04,0,0.04,0,0.04c0,0.08,0,0.08,0,0.08
				c0,0.04,0,0.04,0,0.04c0,0.04,0,0.04,0,0.04C7.69,4.98,7.69,4.98,7.69,4.98c0,0.04,0,0.04,0,0.04c0,0.08,0,0.08,0,0.08
				C7.65,5.13,7.65,5.13,7.65,5.13c0,0.04,0,0.04,0,0.04c0,0.04,0,0.04,0,0.04C7.61,5.29,7.61,5.29,7.61,5.29
				C7.57,5.33,7.57,5.33,7.57,5.33c0,0.04,0,0.04,0,0.04C7.53,5.4,7.53,5.4,7.53,5.4C7.49,5.44,7.49,5.44,7.49,5.44
				C7.46,5.48,7.46,5.48,7.46,5.48c0,0.08,0,0.08,0,0.08C7.42,5.59,7.42,5.59,7.42,5.59C7.38,5.63,7.38,5.63,7.38,5.63
				C7.34,5.67,7.34,5.67,7.34,5.67C7.27,5.75,7.27,5.75,7.27,5.75C7.23,5.78,7.23,5.78,7.23,5.78C7.19,5.82,7.19,5.82,7.19,5.82
				C7.15,5.86,7.15,5.86,7.15,5.86C7.07,5.9,7.07,5.9,7.07,5.9C7.04,5.94,7.04,5.94,7.04,5.94C6.96,5.98,6.96,5.98,6.96,5.98
				C6.92,6.01,6.92,6.01,6.92,6.01C6.85,6.05,6.85,6.05,6.85,6.05C6.81,6.09,6.81,6.09,6.81,6.09C6.73,6.13,6.73,6.13,6.73,6.13
				C6.65,6.17,6.65,6.17,6.65,6.17c-0.04,0-0.04,0-0.04,0C6.54,6.2,6.54,6.2,6.54,6.2C6.46,6.24,6.46,6.24,6.46,6.24
				c-0.04,0-0.04,0-0.04,0C6.35,6.28,6.35,6.28,6.35,6.28c-0.15,0-0.15,0-0.15,0c-0.04,0-0.04,0-0.04,0
				C6.08,6.32,6.08,6.32,6.08,6.32C6,6.32,6,6.32,6,6.32c-0.08,0-0.08,0-0.08,0c-0.08,0-0.08,0-0.08,0
				C5.78,6.28,5.78,6.28,5.78,6.28c-0.04,0-0.04,0-0.04,0c-0.08,0-0.08,0-0.08,0C5.58,6.24,5.58,6.24,5.58,6.24
				c-0.08,0-0.08,0-0.08,0C5.43,6.2,5.43,6.2,5.43,6.2C5.39,6.17,5.39,6.17,5.39,6.17c-0.08,0-0.08,0-0.08,0
				C5.28,6.13,5.28,6.13,5.28,6.13c-0.08,0-0.08,0-0.08,0C5.16,6.09,5.16,6.09,5.16,6.09c-0.08,0-0.08,0-0.08,0
				C5.05,6.05,5.05,6.05,5.05,6.05C4.94,6.01,4.94,6.01,4.94,6.01C4.9,5.94,4.9,5.94,4.9,5.94C4.86,5.9,4.86,5.9,4.86,5.9
				c0-0.08,0-0.08,0-0.08C4.82,5.75,4.82,5.75,4.82,5.75c0.11,0.04,0.11,0.04,0.11,0.04c0.08,0,0.08,0,0.08,0
				c0.08,0.04,0.08,0.04,0.08,0.04c0.08,0.04,0.08,0.04,0.08,0.04c0.08,0,0.08,0,0.08,0C5.32,5.9,5.32,5.9,5.32,5.9
				c0.08,0.04,0.08,0.04,0.08,0.04c0.08,0.04,0.08,0.04,0.08,0.04c0.08,0,0.08,0,0.08,0c0.04,0.04,0.04,0.04,0.04,0.04
				c0.08,0,0.08,0,0.08,0C5.7,6.05,5.7,6.05,5.7,6.05c0.08,0,0.08,0,0.08,0c0.04,0,0.04,0,0.04,0c0.08,0,0.08,0,0.08,0
				c0.08,0.04,0.08,0.04,0.08,0.04c0.04,0,0.04,0,0.04,0c0.08-0.04,0.08-0.04,0.08-0.04c0.04,0,0.04,0,0.04,0c0.08,0,0.08,0,0.08,0
				c0.04,0,0.04,0,0.04,0c0.08-0.04,0.08-0.04,0.08-0.04c0.04,0,0.04,0,0.04,0c0.08,0,0.08,0,0.08,0c0.04-0.04,0.04-0.04,0.04-0.04
				c0.08-0.04,0.08-0.04,0.08-0.04c0.04,0,0.04,0,0.04,0C6.65,5.9,6.65,5.9,6.65,5.9c0.04,0,0.04,0,0.04,0
				c0.04-0.04,0.04-0.04,0.04-0.04c0.08-0.04,0.08-0.04,0.08-0.04c0.04-0.04,0.04-0.04,0.04-0.04c0.04-0.04,0.04-0.04,0.04-0.04
				c0.08-0.04,0.08-0.04,0.08-0.04C7,5.67,7,5.67,7,5.67c0.04-0.04,0.04-0.04,0.04-0.04c0.04-0.04,0.04-0.04,0.04-0.04
				c0.04-0.04,0.04-0.04,0.04-0.04c0.04-0.04,0.04-0.04,0.04-0.04c0.04-0.04,0.04-0.04,0.04-0.04c0.04-0.04,0.04-0.04,0.04-0.04
				C7.27,5.4,7.27,5.4,7.27,5.4c0-0.04,0-0.04,0-0.04C7.3,5.33,7.3,5.33,7.3,5.33c0.04-0.04,0.04-0.04,0.04-0.04
				c0-0.04,0-0.04,0-0.04c0.04-0.04,0.04-0.04,0.04-0.04c0-0.04,0-0.04,0-0.04c0.04-0.04,0.04-0.04,0.04-0.04c0-0.04,0-0.04,0-0.04
				c0-0.04,0-0.04,0-0.04c0.04-0.04,0.04-0.04,0.04-0.04c0-0.04,0-0.04,0-0.04c0-0.04,0-0.04,0-0.04c0.04-0.04,0.04-0.04,0.04-0.04
				c0-0.04,0-0.04,0-0.04l0,0c0-0.04,0-0.04,0-0.04c0-0.04,0-0.04,0-0.04c0-0.04,0-0.04,0-0.04c0-0.04,0-0.04,0-0.04
				c0-0.04,0-0.04,0-0.04c0-0.04,0-0.04,0-0.04C7.46,4.6,7.46,4.6,7.46,4.6c0-0.04,0-0.04,0-0.04c0-0.04,0-0.04,0-0.04
				c0-0.04,0-0.04,0-0.04c-0.04,0-0.04,0-0.04,0c0-0.04,0-0.04,0-0.04c0-0.04,0-0.04,0-0.04C7.38,4.37,7.38,4.37,7.38,4.37
				c0-0.04,0-0.04,0-0.04C7.34,4.29,7.34,4.29,7.34,4.29C7.3,4.26,7.3,4.26,7.3,4.26C7.27,4.22,7.27,4.22,7.27,4.22
				c-0.04,0-0.04,0-0.04,0c0-0.04,0-0.04,0-0.04C7.19,4.14,7.19,4.14,7.19,4.14c-0.04,0-0.04,0-0.04,0C7.11,4.1,7.11,4.1,7.11,4.1
				c-0.04,0-0.04,0-0.04,0C7.04,4.06,7.04,4.06,7.04,4.06C7,4.06,7,4.06,7,4.06c-0.04,0-0.04,0-0.04,0c-0.04,0-0.04,0-0.04,0
				c-0.04,0-0.04,0-0.04,0l0,0c-0.04,0-0.04,0-0.04,0c-0.08,0-0.08,0-0.08,0c-0.04,0-0.04,0-0.04,0c-0.04,0-0.04,0-0.04,0
				C6.65,4.1,6.65,4.1,6.65,4.1c-0.04,0-0.04,0-0.04,0c-0.04,0-0.04,0-0.04,0C6.46,4.14,6.46,4.14,6.46,4.14
				C6.39,4.18,6.39,4.18,6.39,4.18C6.27,4.22,6.27,4.22,6.27,4.22C6.16,4.29,6.16,4.29,6.16,4.29C6.04,4.33,6.04,4.33,6.04,4.33
				C5.85,4.45,5.85,4.45,5.85,4.45C5.74,4.48,5.74,4.48,5.74,4.48C5.62,4.52,5.62,4.52,5.62,4.52C5.55,4.56,5.55,4.56,5.55,4.56
				C5.47,4.6,5.47,4.6,5.47,4.6c-0.08,0-0.08,0-0.08,0C5.32,4.64,5.32,4.64,5.32,4.64c-0.08,0-0.08,0-0.08,0
				C5.13,4.68,5.13,4.68,5.13,4.68c-0.08,0-0.08,0-0.08,0c-0.11,0-0.11,0-0.11,0L4.97,4.64z M5.24,4.18C5.28,4.1,5.28,4.1,5.28,4.1
				c0.04-0.08,0.04-0.08,0.04-0.08c0.08-0.04,0.08-0.04,0.08-0.04c0.04-0.04,0.04-0.04,0.04-0.04c0.04-0.04,0.04-0.04,0.04-0.04
				c0.08-0.04,0.08-0.04,0.08-0.04c0.11-0.04,0.11-0.04,0.11-0.04c0.19-0.11,0.19-0.11,0.19-0.11c0.11-0.04,0.11-0.04,0.11-0.04
				c0.15-0.08,0.15-0.08,0.15-0.08c0.11-0.04,0.11-0.04,0.11-0.04c0.08-0.04,0.08-0.04,0.08-0.04c0.08-0.04,0.08-0.04,0.08-0.04
				c0.08,0,0.08,0,0.08,0C6.5,3.45,6.5,3.45,6.5,3.45c0.08,0,0.08,0,0.08,0c0.08-0.04,0.08-0.04,0.08-0.04c0.08,0,0.08,0,0.08,0
				c0.04-0.04,0.04-0.04,0.04-0.04c0.08,0,0.08,0,0.08,0c0.08,0,0.08,0,0.08,0c0.08,0,0.08,0,0.08,0c0.04,0,0.04,0,0.04,0
				c0.08,0,0.08,0,0.08,0c0.08,0,0.08,0,0.08,0c0.08,0,0.08,0,0.08,0C7.3,3.42,7.3,3.42,7.3,3.42c0.08,0,0.08,0,0.08,0
				c0.08,0.04,0.08,0.04,0.08,0.04c0.04,0.04,0.04,0.04,0.04,0.04c0.04,0,0.04,0,0.04,0c0.04,0.04,0.04,0.04,0.04,0.04
				c0.04,0,0.04,0,0.04,0c0,0.04,0,0.04,0,0.04c0.04,0,0.04,0,0.04,0c0.04,0.04,0.04,0.04,0.04,0.04c0.04,0,0.04,0,0.04,0
				c0,0.04,0,0.04,0,0.04c0.04,0.04,0.04,0.04,0.04,0.04C7.8,3.72,7.8,3.72,7.8,3.72c0.04,0,0.04,0,0.04,0c0,0.04,0,0.04,0,0.04
				C7.88,3.8,7.88,3.8,7.88,3.8c0.04,0.04,0.04,0.04,0.04,0.04c0.04,0.08,0.04,0.08,0.04,0.08c0.04,0.04,0.04,0.04,0.04,0.04
				c0.04,0.08,0.04,0.08,0.04,0.08C8.07,4.1,8.07,4.1,8.07,4.1c0.04,0.08,0.04,0.08,0.04,0.08c0,0.08,0,0.08,0,0.08
				c0.04,0.04,0.04,0.04,0.04,0.04c0,0.08,0,0.08,0,0.08c0.04,0.08,0.04,0.08,0.04,0.08c0,0.08,0,0.08,0,0.08c0,0.08,0,0.08,0,0.08
				c0,0.08,0,0.08,0,0.08c0,0.04,0,0.04,0,0.04c0,0.08,0,0.08,0,0.08c0,0.08,0,0.08,0,0.08C8.14,4.94,8.14,4.94,8.14,4.94
				c0,0.04,0,0.04,0,0.04c0,0.08,0,0.08,0,0.08C8.11,5.13,8.11,5.13,8.11,5.13c0,0.08,0,0.08,0,0.08C8.07,5.25,8.07,5.25,8.07,5.25
				C8.03,5.33,8.03,5.33,8.03,5.33C7.99,5.4,7.99,5.4,7.99,5.4c0,0.04,0,0.04,0,0.04C7.95,5.52,7.95,5.52,7.95,5.52
				C7.92,5.59,7.92,5.59,7.92,5.59C7.88,5.63,7.88,5.63,7.88,5.63C7.84,5.71,7.84,5.71,7.84,5.71C7.8,5.75,7.8,5.75,7.8,5.75
				C7.76,5.82,7.76,5.82,7.76,5.82C7.72,5.86,7.72,5.86,7.72,5.86C7.69,5.94,7.69,5.94,7.69,5.94C7.61,6.01,7.61,6.01,7.61,6.01
				C7.53,6.09,7.53,6.09,7.53,6.09C7.46,6.17,7.46,6.17,7.46,6.17C7.38,6.2,7.38,6.2,7.38,6.2C7.3,6.28,7.3,6.28,7.3,6.28
				C7.19,6.36,7.19,6.36,7.19,6.36C7.11,6.43,7.11,6.43,7.11,6.43C7,6.47,7,6.47,7,6.47C6.92,6.55,6.92,6.55,6.92,6.55
				C6.85,6.59,6.85,6.59,6.85,6.59C6.77,6.62,6.77,6.62,6.77,6.62c-0.04,0-0.04,0-0.04,0C6.69,6.66,6.69,6.66,6.69,6.66
				c-0.08,0-0.08,0-0.08,0C6.58,6.7,6.58,6.7,6.58,6.7c-0.04,0-0.04,0-0.04,0C6.46,6.74,6.46,6.74,6.46,6.74c-0.04,0-0.04,0-0.04,0
				c-0.08,0-0.08,0-0.08,0C6.31,6.78,6.31,6.78,6.31,6.78c-0.04,0-0.04,0-0.04,0c-0.08,0-0.08,0-0.08,0c-0.04,0-0.04,0-0.04,0
				c-0.08,0-0.08,0-0.08,0C6,6.78,6,6.78,6,6.78c-0.08,0-0.08,0-0.08,0c-0.08,0-0.08,0-0.08,0C5.81,6.74,5.81,6.74,5.81,6.74
				c-0.08,0-0.08,0-0.08,0C5.66,6.7,5.66,6.7,5.66,6.7c-0.04,0-0.04,0-0.04,0C5.55,6.66,5.55,6.66,5.55,6.66
				C5.51,6.62,5.51,6.62,5.51,6.62c-0.08,0-0.08,0-0.08,0C5.39,6.59,5.39,6.59,5.39,6.59C5.32,6.55,5.32,6.55,5.32,6.55
				C5.28,6.51,5.28,6.51,5.28,6.51C5.24,6.43,5.24,6.43,5.24,6.43c-0.04,0-0.04,0-0.04,0C5.16,6.4,5.16,6.4,5.16,6.4
				C5.13,6.36,5.13,6.36,5.13,6.36C5.09,6.32,5.09,6.32,5.09,6.32c0.08,0.04,0.08,0.04,0.08,0.04c0.08,0,0.08,0,0.08,0
				C5.28,6.4,5.28,6.4,5.28,6.4c0.08,0.04,0.08,0.04,0.08,0.04c0.08,0.04,0.08,0.04,0.08,0.04c0.04,0,0.04,0,0.04,0
				c0.08,0.04,0.08,0.04,0.08,0.04c0.08,0.04,0.08,0.04,0.08,0.04c0.08,0,0.08,0,0.08,0c0.08,0,0.08,0,0.08,0c0.08,0,0.08,0,0.08,0
				c0.08,0,0.08,0,0.08,0C6,6.59,6,6.59,6,6.59c0.08-0.04,0.08-0.04,0.08-0.04c0.04,0,0.04,0,0.04,0c0.08,0,0.08,0,0.08,0
				c0.08-0.04,0.08-0.04,0.08-0.04c0.08,0,0.08,0,0.08,0c0.08-0.04,0.08-0.04,0.08-0.04c0.08,0,0.08,0,0.08,0
				c0.08-0.04,0.08-0.04,0.08-0.04C6.65,6.4,6.65,6.4,6.65,6.4c0.04,0,0.04,0,0.04,0c0.08-0.04,0.08-0.04,0.08-0.04
				c0.08-0.04,0.08-0.04,0.08-0.04c0.08-0.04,0.08-0.04,0.08-0.04c0.04-0.04,0.04-0.04,0.04-0.04c0.08-0.08,0.08-0.08,0.08-0.08
				c0.08-0.04,0.08-0.04,0.08-0.04c0.04-0.04,0.04-0.04,0.04-0.04c0.08-0.04,0.08-0.04,0.08-0.04c0.04-0.08,0.04-0.08,0.04-0.08
				c0.08-0.04,0.08-0.04,0.08-0.04c0.04-0.08,0.04-0.08,0.04-0.08c0.08-0.04,0.08-0.04,0.08-0.04c0.04-0.04,0.04-0.04,0.04-0.04
				c0.04-0.08,0.04-0.08,0.04-0.08c0.04-0.04,0.04-0.04,0.04-0.04c0.04-0.04,0.04-0.04,0.04-0.04c0.04-0.04,0.04-0.04,0.04-0.04
				c0-0.08,0-0.08,0-0.08c0.04-0.04,0.04-0.04,0.04-0.04c0.04-0.04,0.04-0.04,0.04-0.04c0.04-0.08,0.04-0.08,0.04-0.08
				C7.8,5.33,7.8,5.33,7.8,5.33c0-0.08,0-0.08,0-0.08c0.04-0.04,0.04-0.04,0.04-0.04c0.04-0.08,0.04-0.08,0.04-0.08
				c0-0.04,0-0.04,0-0.04c0-0.08,0-0.08,0-0.08c0.04-0.04,0.04-0.04,0.04-0.04c0-0.08,0-0.08,0-0.08c0-0.04,0-0.04,0-0.04
				c0.04-0.08,0.04-0.08,0.04-0.08c0-0.04,0-0.04,0-0.04c0-0.08,0-0.08,0-0.08c0-0.08,0-0.08,0-0.08c0-0.04,0-0.04,0-0.04
				c0-0.08,0-0.08,0-0.08C7.92,4.45,7.92,4.45,7.92,4.45c0-0.08,0-0.08,0-0.08c0-0.04,0-0.04,0-0.04C7.88,4.26,7.88,4.26,7.88,4.26
				C7.84,4.22,7.84,4.22,7.84,4.22c0-0.08,0-0.08,0-0.08C7.8,4.1,7.8,4.1,7.8,4.1C7.76,4.03,7.76,4.03,7.76,4.03
				C7.72,3.99,7.72,3.99,7.72,3.99C7.69,3.91,7.69,3.91,7.69,3.91C7.65,3.87,7.65,3.87,7.65,3.87C7.57,3.84,7.57,3.84,7.57,3.84
				C7.53,3.8,7.53,3.8,7.53,3.8C7.49,3.76,7.49,3.76,7.49,3.76C7.46,3.72,7.46,3.72,7.46,3.72C7.38,3.68,7.38,3.68,7.38,3.68
				c-0.04,0-0.04,0-0.04,0C7.3,3.64,7.3,3.64,7.3,3.64c-0.08,0-0.08,0-0.08,0C7.19,3.61,7.19,3.61,7.19,3.61c-0.04,0-0.04,0-0.04,0
				c-0.08,0-0.08,0-0.08,0c-0.04,0-0.04,0-0.04,0c-0.08,0-0.08,0-0.08,0c-0.04,0-0.04,0-0.04,0c-0.08,0-0.08,0-0.08,0
				C6.81,3.64,6.81,3.64,6.81,3.64c-0.08,0-0.08,0-0.08,0c-0.04,0-0.04,0-0.04,0C6.62,3.68,6.62,3.68,6.62,3.68
				c-0.04,0-0.04,0-0.04,0C6.5,3.72,6.5,3.72,6.5,3.72c-0.04,0-0.04,0-0.04,0C6.31,3.8,6.31,3.8,6.31,3.8
				C6.2,3.84,6.2,3.84,6.2,3.84C6.08,3.87,6.08,3.87,6.08,3.87C5.93,3.95,5.93,3.95,5.93,3.95C5.74,4.06,5.74,4.06,5.74,4.06
				C5.62,4.1,5.62,4.1,5.62,4.1C5.51,4.14,5.51,4.14,5.51,4.14C5.43,4.18,5.43,4.18,5.43,4.18c-0.08,0-0.08,0-0.08,0
				C5.28,4.22,5.28,4.22,5.28,4.22C5.16,4.26,5.16,4.26,5.16,4.26L5.24,4.18z M4.32,9.22c0.38,0,0.76-0.04,1.07-0.11
				C5.55,9.03,5.62,9.03,5.7,8.96c3.63-3.63,3.63-3.63,3.63-3.63c0.38-0.38,0.34-0.96-0.04-1.3c0,0,0,0-0.92-0.92l0,0
				C7.46,2.19,7.42,2.15,7.42,2.15C7.07,1.77,6.5,1.77,6.12,2.12C2.49,5.75,2.49,5.75,2.49,5.75C2.41,5.82,2.41,5.9,2.38,6.09
				C2.3,6.36,2.26,6.78,2.22,7.12c0,0.08,0.04,0.23,0.08,0.27c0,0,0.15,0.15,0.31,0.34C2.8,7.54,2.99,7.39,3.25,7.27
				c0-0.04,0-0.04,0.04-0.04c0.27-0.31,0.69-0.31,0.96,0c0.27,0.27,0.27,0.69,0,0.96C4.09,8.38,3.87,8.42,3.64,8.38
				C3.56,8.42,3.52,8.5,3.45,8.57C3.67,8.8,4.06,9.15,4.06,9.15C4.13,9.22,4.25,9.22,4.32,9.22z"/>
			<path class="st1" d="M3.79,7.43 M5.78,0.89c-2.67,0-4.85,2.18-4.85,4.85c0,1.15,0.38,2.22,1.07,3.06
				c0.08-0.19,0.15-0.38,0.23-0.53c-0.5-0.73-0.8-1.6-0.8-2.52c0-2.41,1.95-4.36,4.36-4.36s4.36,1.95,4.36,4.36
				c0,2.41-1.95,4.36-4.36,4.36c-1.11,0-2.14-0.42-2.9-1.11l0,0C3.18,8.04,3.9,7.92,3.9,7.92c0.15-0.08,0.23-0.23,0.15-0.38
				C4.02,7.5,4.02,7.46,3.98,7.46C3.9,7.39,3.79,7.35,3.67,7.43C3.64,7.46,2.64,7.65,2.3,8.95C2.26,9.07,2.38,9.26,2.53,9.34l0,0
				c0.88,0.8,1.99,1.26,3.25,1.26c2.67,0,4.85-2.18,4.85-4.85S8.45,0.89,5.78,0.89z"/>
		</g>
	</g>
</g>
</svg>
