<?xml version="1.0" encoding="utf-8"?>
<!-- Generator: Adobe Illustrator 27.3.1, SVG Export Plug-In . SVG Version: 6.00 Build 0)  -->
<svg version="1.1" id="Layer_1" xmlns="http://www.w3.org/2000/svg" xmlns:xlink="http://www.w3.org/1999/xlink" x="0px" y="0px"
	 viewBox="0 0 11.52 11.52" style="enable-background:new 0 0 11.52 11.52;" xml:space="preserve">
<style type="text/css">
	.st0{fill:#28A8E0;}
	.st1{fill-rule:evenodd;clip-rule:evenodd;fill:#FFFFFF;}
</style>
<g>
	<g>
		<g>
			<path class="st0" d="M11.52,5.76c0,3.18-2.58,5.76-5.76,5.76S0,8.94,0,5.76C0,2.58,2.58,0,5.76,0S11.52,2.58,11.52,5.76z"/>
		</g>
		<g>
			<g>
				<path class="st1" d="M3.44,5.73C3.23,5.78,3.1,5.99,3.15,6.2C3.2,6.41,3.41,6.54,3.62,6.49c1.05-0.23,2.1,0.44,2.34,1.5
					C5.98,8.1,6.04,8.18,6.13,8.24c0.08,0.05,0.19,0.07,0.29,0.05c0.21-0.05,0.35-0.26,0.3-0.47C6.39,6.33,4.92,5.4,3.44,5.73"/>
			</g>
			<g>
				<path class="st1" d="M4.61,7.52c-0.35-0.21-0.8-0.11-1.02,0.23C3.37,8.08,3.47,8.52,3.82,8.74c0.35,0.21,0.81,0.11,1.03-0.22
					C5.07,8.18,4.96,7.73,4.61,7.52"/>
			</g>
			<g>
				<path class="st1" d="M3.28,4.22H3.26c-0.22,0.06-0.37,0.3-0.31,0.52c0.08,0.24,0.29,0.37,0.54,0.32h0.02l0.05-0.01
					C5.22,4.66,6.89,5.71,7.28,7.4l0.01,0.08L7.3,7.5c0.05,0.23,0.27,0.39,0.49,0.36C8.04,7.8,8.2,7.58,8.14,7.34L8.13,7.31
					l-0.02-0.1C7.6,5.04,5.49,3.7,3.36,4.2L3.28,4.22z"/>
			</g>
			<g>
				<path class="st1" d="M9.4,7.79c-0.22,0-0.41-0.16-0.45-0.38C8.8,6.45,8.2,5.12,6.96,4.25C5.55,3.26,3.89,3.19,2.87,3.56
					c-0.24,0.09-0.5-0.04-0.59-0.27C2.2,3.05,2.32,2.79,2.56,2.71c1.52-0.55,3.45-0.24,4.93,0.8c1.25,0.88,2.14,2.29,2.37,3.75
					c0.04,0.25-0.14,0.48-0.38,0.52C9.45,7.79,9.42,7.79,9.4,7.79"/>
			</g>
		</g>
	</g>
</g>
</svg>
