<?xml version="1.0" encoding="utf-8"?>
<!-- Generator: Adobe Illustrator 27.3.1, SVG Export Plug-In . SVG Version: 6.00 Build 0)  -->
<svg version="1.1" id="Layer_1" xmlns="http://www.w3.org/2000/svg" xmlns:xlink="http://www.w3.org/1999/xlink" x="0px" y="0px"
	 viewBox="0 0 11.52 11.52" style="enable-background:new 0 0 11.52 11.52;" xml:space="preserve">
<style type="text/css">
	.st0{fill:#28A8E0;}
	.st1{fill:#FFFFFF;}
</style>
<g>
	<g>
		<g>
			<path class="st0" d="M11.52,5.76c0,3.18-2.58,5.76-5.76,5.76S0,8.94,0,5.76C0,2.58,2.58,0,5.76,0S11.52,2.58,11.52,5.76z"/>
		</g>
		<g>
			<g>
				<g>
					<g>
						<path class="st1" d="M5.66,10.73c-0.11,0-0.23-0.01-0.34-0.02l0.03-0.33c0.11,0.01,0.21,0.01,0.32,0.02L5.66,10.73z
							 M6.01,10.72l-0.02-0.33c0.11-0.01,0.21-0.02,0.32-0.03l0.04,0.33C6.23,10.71,6.12,10.72,6.01,10.72z M4.98,10.67
							c-0.11-0.02-0.23-0.04-0.34-0.06l0.07-0.32c0.1,0.02,0.21,0.04,0.31,0.06L4.98,10.67z M6.69,10.64l-0.06-0.32
							c0.1-0.02,0.21-0.04,0.31-0.07l0.09,0.32C6.91,10.59,6.8,10.62,6.69,10.64z M4.32,10.52c-0.11-0.03-0.22-0.07-0.32-0.11
							l0.12-0.31c0.1,0.04,0.2,0.07,0.3,0.1L4.32,10.52z M7.35,10.46l-0.11-0.31c0.1-0.03,0.2-0.07,0.3-0.12l0.13,0.3
							C7.56,10.38,7.45,10.42,7.35,10.46z M3.68,10.27c-0.1-0.05-0.21-0.1-0.31-0.16l0.16-0.29c0.09,0.05,0.19,0.1,0.28,0.15
							L3.68,10.27z M7.97,10.19L7.82,9.9C7.92,9.85,8.01,9.8,8.1,9.74l0.17,0.28C8.17,10.08,8.07,10.14,7.97,10.19z M3.08,9.94
							c-0.1-0.06-0.19-0.13-0.28-0.2L3,9.48C3.08,9.54,3.17,9.6,3.26,9.66L3.08,9.94z M8.56,9.84L8.37,9.57
							c0.09-0.06,0.17-0.13,0.25-0.19l0.21,0.26C8.74,9.7,8.65,9.77,8.56,9.84z M2.53,9.53C2.45,9.45,2.36,9.37,2.28,9.29l0.23-0.23
							c0.07,0.07,0.15,0.15,0.23,0.22L2.53,9.53z M9.09,9.41L8.86,9.16c0.08-0.07,0.15-0.15,0.23-0.23l0.24,0.23
							C9.25,9.25,9.17,9.33,9.09,9.41z M2.05,9.04C1.98,8.96,1.9,8.87,1.83,8.78l0.26-0.2c0.06,0.08,0.13,0.17,0.2,0.25L2.05,9.04z
							 M9.55,8.9L9.3,8.7c0.07-0.08,0.13-0.17,0.19-0.26l0.27,0.19C9.69,8.72,9.63,8.82,9.55,8.9z M1.64,8.5
							C1.58,8.4,1.52,8.3,1.46,8.21l0.29-0.16C1.8,8.14,1.86,8.23,1.91,8.32L1.64,8.5z M9.95,8.34L9.66,8.17
							c0.05-0.09,0.11-0.18,0.15-0.28l0.29,0.15C10.06,8.15,10,8.25,9.95,8.34z M1.3,7.9C1.26,7.8,1.21,7.69,1.17,7.59l0.31-0.12
							c0.04,0.1,0.08,0.2,0.13,0.29L1.3,7.9z M10.26,7.73l-0.3-0.13c0.04-0.1,0.08-0.2,0.11-0.3l0.31,0.11
							C10.34,7.52,10.3,7.63,10.26,7.73z M1.06,7.26C1.02,7.16,0.99,7.05,0.97,6.93l0.32-0.08c0.02,0.1,0.05,0.21,0.08,0.31
							L1.06,7.26z M10.48,7.09L10.16,7c0.03-0.1,0.05-0.21,0.07-0.31l0.32,0.06C10.54,6.87,10.51,6.98,10.48,7.09z M0.9,6.6
							C0.88,6.49,0.87,6.37,0.86,6.26l0.33-0.03C1.2,6.33,1.21,6.44,1.23,6.55L0.9,6.6z M10.61,6.42l-0.33-0.04
							c0.01-0.1,0.02-0.21,0.03-0.32l0.33,0.02C10.64,6.19,10.63,6.3,10.61,6.42z M0.84,5.92c0-0.04,0-0.08,0-0.12
							c0-0.11,0-0.23,0.01-0.34l0.33,0.02C1.17,5.58,1.17,5.69,1.17,5.8c0,0.04,0,0.08,0,0.11L0.84,5.92z M10.32,5.74
							c0-0.11-0.01-0.21-0.01-0.32l0.33-0.03c0.01,0.11,0.01,0.23,0.02,0.34L10.32,5.74z M1.21,5.16L0.88,5.11
							C0.9,5,0.92,4.89,0.94,4.78l0.32,0.07C1.24,4.95,1.23,5.05,1.21,5.16z M10.27,5.1c-0.02-0.1-0.04-0.21-0.06-0.31l0.32-0.07
							c0.02,0.11,0.05,0.22,0.06,0.34L10.27,5.1z M1.34,4.53L1.02,4.44c0.03-0.11,0.07-0.22,0.1-0.33l0.31,0.11
							C1.4,4.33,1.37,4.43,1.34,4.53z M10.13,4.48c-0.03-0.1-0.06-0.2-0.1-0.3l0.31-0.12c0.04,0.11,0.08,0.22,0.11,0.32L10.13,4.48z
							 M1.56,3.93L1.25,3.8C1.3,3.7,1.35,3.59,1.4,3.49L1.7,3.65C1.65,3.74,1.6,3.84,1.56,3.93z M9.91,3.88
							C9.86,3.79,9.81,3.69,9.76,3.6l0.29-0.16c0.05,0.1,0.11,0.2,0.15,0.31L9.91,3.88z M1.85,3.37L1.57,3.2
							C1.63,3.1,1.7,3,1.76,2.91L2.03,3.1C1.97,3.19,1.91,3.28,1.85,3.37z M9.6,3.32C9.55,3.23,9.49,3.14,9.42,3.06l0.27-0.2
							c0.07,0.09,0.13,0.19,0.19,0.28L9.6,3.32z M2.23,2.85L1.97,2.64C2.04,2.55,2.12,2.47,2.2,2.38l0.24,0.23
							C2.37,2.69,2.29,2.77,2.23,2.85z M9.22,2.81C9.16,2.73,9.08,2.65,9.01,2.57l0.24-0.23C9.33,2.42,9.4,2.51,9.48,2.59L9.22,2.81
							z M2.67,2.39L2.44,2.14C2.53,2.07,2.61,1.99,2.7,1.92l0.21,0.26C2.83,2.25,2.74,2.32,2.67,2.39z M8.78,2.35
							C8.7,2.28,8.62,2.21,8.53,2.15l0.2-0.26C8.83,1.96,8.91,2.03,9,2.1L8.78,2.35z M3.17,1.99L2.98,1.72
							c0.09-0.06,0.19-0.13,0.29-0.18l0.17,0.29C3.34,1.87,3.25,1.93,3.17,1.99z M8.28,1.96C8.19,1.9,8.1,1.84,8,1.79l0.16-0.29
							c0.1,0.06,0.2,0.12,0.29,0.18L8.28,1.96z M3.72,1.67l-0.15-0.3c0.1-0.05,0.21-0.1,0.31-0.14l0.13,0.31
							C3.91,1.58,3.81,1.62,3.72,1.67z M7.72,1.64C7.63,1.6,7.53,1.55,7.43,1.51l0.12-0.31C7.66,1.25,7.76,1.3,7.87,1.35L7.72,1.64z
							 M4.3,1.42L4.2,1.11c0.11-0.04,0.22-0.07,0.33-0.1l0.08,0.32C4.51,1.36,4.4,1.39,4.3,1.42z M7.13,1.41
							c-0.1-0.03-0.2-0.06-0.31-0.09L6.9,1c0.11,0.03,0.22,0.06,0.33,0.09L7.13,1.41z M4.92,1.27L4.86,0.94
							C4.97,0.92,5.09,0.9,5.2,0.89l0.04,0.33C5.13,1.23,5.03,1.25,4.92,1.27z M6.51,1.26C6.4,1.24,6.3,1.22,6.19,1.21l0.03-0.33
							C6.34,0.9,6.45,0.91,6.56,0.93L6.51,1.26z M5.55,1.2L5.54,0.87c0.11,0,0.23-0.01,0.34,0L5.87,1.19
							C5.77,1.19,5.66,1.19,5.55,1.2z"/>
					</g>
				</g>
			</g>
			<g>
				<polygon class="st1" points="7.94,7.15 5.91,7.15 5.91,8.32 7.94,8.32 7.94,8.91 9.09,7.75 9.11,7.73 7.94,6.56 				"/>
				<polygon class="st1" points="7.94,6.27 9.09,5.12 9.11,5.1 7.94,3.92 7.94,4.52 5.91,4.52 5.91,5.68 7.94,5.68 				"/>
				<polygon class="st1" points="3.64,5.29 2.49,6.44 2.47,6.46 3.64,7.64 3.64,7.04 5.67,7.04 5.67,5.88 3.64,5.88 				"/>
				<polygon class="st1" points="3.64,2.62 2.49,3.78 2.47,3.8 3.64,4.97 3.64,4.38 5.67,4.38 5.67,3.21 3.64,3.21 				"/>
			</g>
		</g>
	</g>
</g>
</svg>
