<?xml version="1.0" encoding="utf-8"?>
<!-- Generator: Adobe Illustrator 27.3.1, SVG Export Plug-In . SVG Version: 6.00 Build 0)  -->
<svg version="1.1" id="Layer_1" xmlns="http://www.w3.org/2000/svg" xmlns:xlink="http://www.w3.org/1999/xlink" x="0px" y="0px"
	 viewBox="0 0 11.52 11.52" style="enable-background:new 0 0 11.52 11.52;" xml:space="preserve">
<style type="text/css">
	.st0{fill:#28A8E0;}
	.st1{fill:#FFFFFF;}
</style>
<g>
	<g>
		<g>
			<path class="st0" d="M11.52,5.76c0,3.18-2.58,5.76-5.76,5.76S0,8.94,0,5.76C0,2.58,2.58,0,5.76,0C8.94,0,11.52,2.58,11.52,5.76z"
				/>
		</g>
		<path class="st1" d="M5.78,2.35c-1.71,0-3.44,0.39-3.44,1.14v4.82c0,0.75,1.73,1.14,3.44,1.14s3.44-0.39,3.44-1.14V3.49
			C9.22,2.74,7.49,2.35,5.78,2.35z M5.78,2.8c1.83,0,2.95,0.45,2.95,0.69c0,0.23-1.04,0.69-2.95,0.69S2.83,3.73,2.83,3.49
			C2.83,3.25,3.95,2.8,5.78,2.8z M5.78,9.01c-1.91,0-2.95-0.46-2.95-0.69V7.33c0.63,0.35,1.8,0.53,2.95,0.53S8.1,7.68,8.73,7.33
			v0.98C8.73,8.55,7.69,9.01,5.78,9.01z M5.78,7.4c-1.91,0-2.95-0.46-2.95-0.69V5.72c0.63,0.35,1.8,0.53,2.95,0.53
			S8.1,6.07,8.73,5.72v0.99C8.73,6.95,7.69,7.4,5.78,7.4z M5.78,5.8c-1.91,0-2.95-0.46-2.95-0.69v-1c0.63,0.35,1.8,0.53,2.95,0.53
			S8.1,4.46,8.73,4.11v1C8.73,5.34,7.69,5.8,5.78,5.8z"/>
	</g>
</g>
</svg>
