<?xml version="1.0" encoding="utf-8"?>
<!-- Generator: Adobe Illustrator 27.3.1, SVG Export Plug-In . SVG Version: 6.00 Build 0)  -->
<svg version="1.1" id="Layer_1" xmlns="http://www.w3.org/2000/svg" xmlns:xlink="http://www.w3.org/1999/xlink" x="0px" y="0px"
	 viewBox="0 0 11.52 11.52" style="enable-background:new 0 0 11.52 11.52;" xml:space="preserve">
<style type="text/css">
	.st0{fill:#28A8E0;}
	.st1{fill:#FFFFFF;}
</style>
<g>
	<g>
		<g>
			<path class="st0" d="M11.52,5.76c0,3.18-2.58,5.76-5.76,5.76S0,8.94,0,5.76C0,2.58,2.58,0,5.76,0S11.52,2.58,11.52,5.76z"/>
		</g>
		<g>
			<path class="st1" d="M5.77,1.84c-2.15,0-3.89,1.74-3.89,3.89s1.74,3.89,3.89,3.89c2.15,0,3.89-1.74,3.89-3.89
				S7.92,1.84,5.77,1.84z M6.09,2.6H6.6v2.28h1.35V4.52l1.07,0.62L7.96,5.76V5.4H6.09V2.6z M2.61,4.88h2.28V3.52H4.52l0.62-1.07
				l0.62,1.07H5.4V5.4h-2.8V4.88z M5.4,8.88H4.89V6.61H3.53v0.36L2.46,6.35l1.07-0.62v0.36H5.4V8.88z M8.88,6.61H6.6v1.35h0.36
				L6.34,9.04L5.72,7.96h0.36V6.09h2.8V6.61z"/>
		</g>
	</g>
</g>
</svg>
