<?xml version="1.0" encoding="utf-8"?>
<!-- Generator: Adobe Illustrator 27.3.1, SVG Export Plug-In . SVG Version: 6.00 Build 0)  -->
<svg version="1.1" id="Layer_1" xmlns="http://www.w3.org/2000/svg" xmlns:xlink="http://www.w3.org/1999/xlink" x="0px" y="0px"
	 viewBox="0 0 11.52 11.52" style="enable-background:new 0 0 11.52 11.52;" xml:space="preserve">
<style type="text/css">
	.st0{fill:#28A8E0;}
	.st1{fill-rule:evenodd;clip-rule:evenodd;fill:#FFFFFF;}
	.st2{fill:#FFFFFF;}
</style>
<g>
	<g>
		<g>
			<path class="st0" d="M11.52,5.76c0,3.18-2.58,5.76-5.76,5.76S0,8.94,0,5.76C0,2.58,2.58,0,5.76,0S11.52,2.58,11.52,5.76z"/>
		</g>
		<g>
			<polygon class="st1" points="5.55,6.45 6.37,6.45 6.33,6.28 5.61,6.28 			"/>
			<polygon class="st2" points="5.17,6.45 5.23,6.28 5.46,6.28 5.47,6.45 			"/>
			<polygon class="st2" points="5.36,5.84 5.42,5.68 5.44,5.68 5.44,5.84 			"/>
			<polygon class="st2" points="5.02,5.27 4.98,5.08 5.25,5.08 5.19,5.27 			"/>
			<path class="st1" d="M5.39,4.64l0.06-0.16h-0.8c-0.03,0.05-0.07,0.11-0.1,0.16H5.39z"/>
			<path class="st1" d="M4.64,5.27L4.7,5.08H4.39C4.38,5.14,4.38,5.2,4.38,5.27H4.64z"/>
			<polygon class="st1" points="6.75,5.27 6.81,5.08 6.32,5.08 6.38,5.27 			"/>
			<path class="st1" d="M4.4,5.68c0.02,0.04,0.02,0.07,0.03,0.11l0.05-0.11H4.4z"/>
			<polygon class="st1" points="5.74,5.84 6.18,5.84 6.13,5.68 5.82,5.68 			"/>
			<path class="st1" d="M7.64,3.43l0.03,0.03h2.48c0.04,0,0.09-0.03,0.09-0.1c0-0.05-0.04-0.1-0.09-0.1H7.49
				C7.54,3.31,7.59,3.36,7.64,3.43"/>
			<path class="st1" d="M6.18,4.64h0.76C6.92,4.58,6.87,4.53,6.83,4.47H6.13L6.18,4.64z"/>
			<path class="st1" d="M4.76,6.28c0,0,0.01,0,0.01,0.01c0.05,0.04,0.11,0.1,0.18,0.15L4.91,6.28H4.76z"/>
			<polygon class="st1" points="5.76,4.64 5.84,4.64 5.91,4.47 5.74,4.47 			"/>
			<path class="st1" d="M5.17,4.06h0.42l0.04-0.14C5.46,3.94,5.31,3.98,5.17,4.06"/>
			<path class="st1" d="M10.14,6.28H8.25C8.22,6.34,8.19,6.39,8.18,6.45h1.96c0.04,0,0.09-0.04,0.09-0.08
				C10.23,6.31,10.18,6.28,10.14,6.28"/>
			<path class="st1" d="M10.14,5.68H8.4c0,0.05-0.01,0.11-0.03,0.16h1.77c0.04,0,0.09-0.03,0.09-0.08
				C10.23,5.72,10.18,5.68,10.14,5.68"/>
			<path class="st1" d="M2.55,6.45h0.76C3.29,6.39,3.27,6.34,3.24,6.28H2.55c-0.06,0-0.09,0.03-0.09,0.08
				C2.46,6.41,2.49,6.45,2.55,6.45"/>
			<path class="st1" d="M2.55,5.84h0.57C3.1,5.79,3.09,5.73,3.09,5.68H2.55c-0.06,0-0.09,0.04-0.09,0.08
				C2.46,5.82,2.49,5.84,2.55,5.84"/>
			<path class="st1" d="M10.14,3.87H8.01C8.06,3.93,8.08,4,8.11,4.06h2.03c0.04,0,0.09-0.05,0.09-0.1
				C10.23,3.9,10.18,3.87,10.14,3.87"/>
			<path class="st1" d="M10.14,5.08H8.42C8.44,5.14,8.44,5.2,8.44,5.27h1.7c0.04,0,0.09-0.05,0.09-0.1
				C10.23,5.11,10.18,5.08,10.14,5.08"/>
			<path class="st1" d="M10.14,4.47H8.29C8.3,4.53,8.31,4.58,8.33,4.64h1.81c0.04,0,0.09-0.03,0.09-0.08
				C10.23,4.51,10.18,4.47,10.14,4.47"/>
			<path class="st1" d="M2.55,3.46H3.8c0.01-0.02,0.03-0.02,0.04-0.03c0.04-0.06,0.1-0.11,0.14-0.16H2.55
				c-0.06,0-0.09,0.05-0.09,0.1C2.46,3.43,2.49,3.46,2.55,3.46"/>
			<path class="st1" d="M2.55,5.27h0.5c0-0.06,0-0.13,0.01-0.19H2.55c-0.06,0-0.08,0.03-0.08,0.1C2.46,5.22,2.49,5.27,2.55,5.27"/>
			<path class="st1" d="M6.78,5.68L6.73,5.84h0.28c0.03-0.05,0.04-0.11,0.07-0.16H6.78z"/>
			<path class="st1" d="M5.72,3.92v0.14h0.6C6.13,3.98,5.94,3.92,5.74,3.92H5.72z"/>
			<path class="st1" d="M2.55,4.64h0.59C3.16,4.58,3.18,4.53,3.2,4.47H2.55c-0.06,0-0.09,0.04-0.09,0.08
				C2.46,4.61,2.49,4.64,2.55,4.64"/>
			<path class="st1" d="M6.63,6.28L6.59,6.39c0.05-0.03,0.1-0.07,0.12-0.1l0.01-0.01H6.63z"/>
			<path class="st1" d="M2.55,4.06h0.82C3.4,4,3.44,3.93,3.47,3.87H2.55c-0.06,0-0.09,0.03-0.09,0.1C2.46,4.01,2.49,4.06,2.55,4.06"
				/>
			<path class="st1" d="M5.55,6.21l0.48-1.25l0.46,1.53l0.25-0.96l0.23-0.04l0.14-0.45C7.09,4.94,7.07,4.84,7.02,4.77L7.01,4.78
				L6.84,5.34L6.6,5.38L6.47,5.85L6.04,4.42L5.7,5.34L5.67,4.17L5.09,5.89L4.87,4.93L4.51,5.92c0.03,0.07,0.06,0.13,0.1,0.2
				l0.23-0.58l0.22,0.98v0.01l0.46-1.38L5.55,6.21z"/>
			<path class="st1" d="M7.45,3.59C6.98,3.13,6.37,2.88,5.76,2.88c-0.62,0-1.26,0.25-1.75,0.71C3.2,4.42,3.11,5.67,3.68,6.61
				L1.85,8.47C1.7,8.6,1.7,8.86,1.85,9.02l0.2,0.2c0.16,0.16,0.42,0.16,0.55,0l1.85-1.84c0.41,0.25,0.84,0.36,1.3,0.36
				c0.61,0,1.22-0.23,1.69-0.7C8.42,6.09,8.42,4.54,7.45,3.59 M6.9,6.48c-0.3,0.3-0.72,0.48-1.14,0.48c-0.45,0-0.87-0.17-1.19-0.48
				c-0.64-0.65-0.64-1.68,0-2.32c0.32-0.32,0.74-0.51,1.19-0.51c0.42,0,0.84,0.19,1.14,0.51C7.22,4.45,7.4,4.87,7.4,5.32
				C7.4,5.74,7.22,6.16,6.9,6.48"/>
		</g>
	</g>
</g>
</svg>
