<?xml version="1.0" encoding="utf-8"?>
<!-- Generator: Adobe Illustrator 27.3.1, SVG Export Plug-In . SVG Version: 6.00 Build 0)  -->
<svg version="1.1" id="Layer_1" xmlns="http://www.w3.org/2000/svg" xmlns:xlink="http://www.w3.org/1999/xlink" x="0px" y="0px"
	 viewBox="0 0 11.52 11.52" style="enable-background:new 0 0 11.52 11.52;" xml:space="preserve">
<style type="text/css">
	.st0{fill:#28A8E0;}
	.st1{fill-rule:evenodd;clip-rule:evenodd;fill:#FFFFFF;}
	.st2{fill:#FFFFFF;}
</style>
<g>
	<g>
		<path class="st0" d="M11.52,5.76c0,3.18-2.58,5.76-5.76,5.76S0,8.94,0,5.76C0,2.58,2.58,0,5.76,0S11.52,2.58,11.52,5.76z"/>
	</g>
</g>
<g>
	<path class="st1" d="M4.26,5.03v0.86h0.18c0.21,0,0.33-0.13,0.33-0.43c0-0.3-0.13-0.43-0.34-0.43H4.26z"/>
	<path class="st2" d="M7.3,6.09l1.6-0.36l1.7,0.39c0.01-0.11,0.01-0.23,0.01-0.34c0-2.69-2.19-4.88-4.88-4.88S0.85,3.08,0.85,5.78
		s2.19,4.88,4.88,4.88c0.82,0,1.6-0.21,2.28-0.57C7.86,9.97,7.72,9.85,7.6,9.71c-0.38,0.18-0.78,0.31-1.21,0.37
		c0.3-0.3,0.57-0.63,0.79-0.98C7.14,9.01,7.1,8.93,7.06,8.84c-0.29,0.47-0.64,0.9-1.06,1.27c-0.05,0-0.1,0-0.14,0V7.78
		C6.34,7.8,6.81,7.89,7.25,8.06C7.4,9,8.03,9.78,8.9,10.13c0.97-0.4,1.66-1.35,1.66-2.46v-1.2L9.95,6.33v0.22L9.28,6.4V6.17
		L8.9,6.09L8.51,6.17V6.4L7.84,6.55V6.33L7.22,6.46v1.2c0,0.05,0,0.09,0,0.14c-0.44-0.16-0.9-0.24-1.37-0.26V6.57h0.98V6.19
		l0.33-0.07c-0.04,0-0.08,0.01-0.12,0.01c-0.33,0-0.52-0.16-0.56-0.4h0.28c0.02,0.11,0.11,0.2,0.28,0.2c0.17,0,0.24-0.06,0.24-0.15
		c0-0.13-0.14-0.17-0.32-0.21c-0.21-0.05-0.43-0.13-0.43-0.4c0-0.23,0.17-0.37,0.51-0.37c0.3,0,0.47,0.13,0.51,0.35H7.27
		C7.26,5.06,7.17,5,7.04,5C6.89,5,6.83,5.05,6.83,5.13c0,0.1,0.08,0.14,0.26,0.18c0.24,0.05,0.49,0.15,0.49,0.43
		C7.58,5.89,7.5,6.03,7.3,6.09z M10.1,7.31v0.36c0,0.16-0.01,0.3-0.05,0.45C9.93,8.75,9.49,9.31,8.9,9.62
		C8.66,9.5,8.45,9.34,8.26,9.15L10.1,7.31z M7.68,7.06L8.9,6.78C9.35,6.89,9.63,6.96,9.8,7L8,8.8C7.87,8.59,7.78,8.35,7.73,8.11
		C7.69,7.97,7.68,7.82,7.68,7.67V7.06z M10.08,5.65H8.16C8.15,4.91,8,4.19,7.73,3.53c0.41-0.21,0.78-0.47,1.11-0.8
		C9.58,3.49,10.05,4.51,10.08,5.65z M8.67,2.57c-0.31,0.3-0.65,0.55-1.03,0.74C7.33,2.63,6.9,2,6.36,1.47
		C7.24,1.6,8.04,1.99,8.67,2.57z M5.86,1.43c0.04,0,0.08,0,0.12,0C6.6,1.99,7.09,2.66,7.43,3.41C6.94,3.63,6.41,3.75,5.86,3.77V1.43
		z M5.49,1.43c0.04,0,0.09,0,0.13,0v2.34C5.08,3.75,4.54,3.63,4.04,3.41C4.38,2.66,4.87,1.99,5.49,1.43z M3.71,4.39
		c0.06-0.26,0.14-0.52,0.24-0.76C4.47,3.86,5.04,3.99,5.63,4v0.39H3.71z M5.08,5.46c0,0.45-0.23,0.64-0.63,0.64H3.97V4.82h0.48
		C4.86,4.82,5.08,5.03,5.08,5.46z M5.11,1.47C4.57,2,4.14,2.63,3.83,3.31C3.45,3.12,3.11,2.86,2.8,2.56
		C3.43,1.99,4.23,1.6,5.11,1.47z M2.63,2.73c0.33,0.32,0.7,0.59,1.11,0.8C3.63,3.8,3.53,4.09,3.47,4.39L3.44,4.51
		C3.36,4.88,3.31,5.26,3.31,5.65H1.38C1.42,4.51,1.89,3.48,2.63,2.73z M1.38,5.88H3.3c0.01,0.75,0.16,1.47,0.43,2.15
		c-0.41,0.21-0.77,0.47-1.1,0.79C1.88,8.07,1.41,7.03,1.38,5.88z M2.8,8.99c0.3-0.3,0.64-0.55,1.02-0.74
		c0.3,0.68,0.72,1.29,1.25,1.83C4.21,9.95,3.43,9.56,2.8,8.99z M5.63,10.12c-0.05,0-0.11,0-0.16-0.01c-0.62-0.56-1.1-1.23-1.43-1.98
		l0.01,0C4.54,7.92,5.08,7.8,5.63,7.78V10.12z M5.63,7.55C5.04,7.56,4.47,7.69,3.95,7.92l-0.01,0C3.77,7.49,3.65,7.04,3.59,6.57
		h2.03V7.55z M6.33,6.1H6.02L5.52,5.2V6.1H5.26V4.82h0.33L6.07,5.7V4.82h0.25V6.1z M5.86,4.39V4C6.44,3.99,7,3.86,7.52,3.63
		c0.1,0.25,0.18,0.5,0.24,0.76H5.86z"/>
</g>
</svg>
