<?xml version="1.0" encoding="utf-8"?>
<!-- Generator: Adobe Illustrator 27.3.1, SVG Export Plug-In . SVG Version: 6.00 Build 0)  -->
<svg version="1.1" id="Layer_1" xmlns="http://www.w3.org/2000/svg" xmlns:xlink="http://www.w3.org/1999/xlink" x="0px" y="0px"
	 viewBox="0 0 11.52 11.52" style="enable-background:new 0 0 11.52 11.52;" xml:space="preserve">
<style type="text/css">
	.st0{fill:#6ABD46;}
	.st1{fill:#FFFFFF;}
</style>
<g>
	<g>
		<g>
			<g>
				<path class="st0" d="M11.52,5.76c0,3.18-2.58,5.76-5.76,5.76S-0.01,8.94,0,5.76C0.01,2.57,2.58,0,5.76,0
					C8.94,0,11.52,2.58,11.52,5.76z"/>
			</g>
		</g>
	</g>
</g>
<path class="st1" d="M8.51,6.89L8.51,6.89l0-3.36c0-0.26-0.21-0.47-0.47-0.47c-0.26,0-0.47,0.21-0.47,0.47v2.48
	C7.5,5.99,7.42,5.96,7.34,5.94V2.56c0-0.26-0.21-0.47-0.47-0.47c-0.26,0-0.47,0.21-0.47,0.47v3.19C6.33,5.74,6.25,5.73,6.18,5.73
	V2.14c0-0.26-0.21-0.47-0.47-0.47S5.24,1.88,5.24,2.14v3.52c-0.13,0-0.22,0-0.24,0v-3.1C5,2.3,4.79,2.09,4.54,2.09
	c-0.26,0-0.47,0.21-0.47,0.47V6.6L2.85,5.36c0,0,0,0,0,0l0,0l0,0C2.64,5.14,2.3,5.11,2.06,5.29c-0.27,0.2-0.33,0.58-0.13,0.85
	l2.15,2.91C4.4,9.49,4.9,9.75,5.44,9.75h1.18c0.68,0,1.29-0.42,1.54-1.05c0.17-0.45,0.33-1.04,0.36-1.74
	C8.51,6.93,8.51,6.91,8.51,6.89z"/>
</svg>
