<?xml version="1.0" encoding="utf-8"?>
<!-- Generator: Adobe Illustrator 27.3.1, SVG Export Plug-In . SVG Version: 6.00 Build 0)  -->
<svg version="1.1" id="Layer_1" xmlns="http://www.w3.org/2000/svg" xmlns:xlink="http://www.w3.org/1999/xlink" x="0px" y="0px"
	 viewBox="0 0 11.52 11.52" style="enable-background:new 0 0 11.52 11.52;" xml:space="preserve">
<style type="text/css">
	.st0{fill:#28A8E0;}
	.st1{fill:#FFFFFF;}
</style>
<g>
	<g>
		<g>
			<path class="st0" d="M11.52,5.76c0,3.18-2.58,5.76-5.76,5.76S0,8.94,0,5.76C0,2.58,2.58,0,5.76,0S11.52,2.58,11.52,5.76z"/>
		</g>
	</g>
</g>
<g>
	<path class="st1" d="M3.38,6.56c0.32,0,0.58-0.26,0.58-0.58c0-0.32-0.26-0.58-0.58-0.58c-0.32,0-0.58,0.26-0.58,0.58
		C2.81,6.3,3.07,6.56,3.38,6.56z"/>
	<path class="st1" d="M8.14,6.56c0.32,0,0.58-0.26,0.58-0.58c0-0.32-0.26-0.58-0.58-0.58c-0.32,0-0.58,0.26-0.58,0.58
		C7.56,6.3,7.82,6.56,8.14,6.56z"/>
	<path class="st1" d="M8.92,6.77H7.5L6.35,4.77l0.07-1.82l0.1,0l0,1.56c0,0.16,0.13,0.28,0.28,0.28c0.15,0,0.28-0.13,0.28-0.28
		l0-1.92c0-0.32-0.26-0.58-0.58-0.58H4.94c-0.32,0-0.58,0.26-0.58,0.58l0,1.92c0,0.16,0.13,0.28,0.28,0.28
		c0.16,0,0.28-0.13,0.28-0.28l0-1.56l0.1,0L5.1,4.78h0L3.95,6.77H2.6c-0.32,0-0.58,0.26-0.58,0.58l0,1.92
		c0,0.16,0.13,0.28,0.28,0.28c0.16,0,0.28-0.13,0.28-0.28l0-1.56l0.1,0l0.07,1.82h1.25L4.08,7.7l0.1,0l0,1.56
		c0,0.16,0.13,0.28,0.28,0.28c0.15,0,0.28-0.13,0.28-0.28l0-1.22h2.04l0,1.22c0,0.16,0.13,0.28,0.28,0.28
		c0.16,0,0.28-0.13,0.28-0.28l0-1.56l0.1,0l0.07,1.82h1.25L8.83,7.7l0.1,0l0,1.56c0,0.16,0.13,0.28,0.28,0.28
		c0.15,0,0.28-0.13,0.28-0.28l0-1.92C9.49,7.03,9.23,6.77,8.92,6.77z M4.74,7.55l0-0.2c0-0.21-0.11-0.39-0.27-0.49l1.2-2.08h0.1
		L7,6.89C6.86,7,6.78,7.16,6.78,7.34l0,0.2H4.74z"/>
	<path class="st1" d="M5.72,1.81c0.32,0,0.58-0.26,0.58-0.58c0-0.32-0.26-0.58-0.58-0.58c-0.32,0-0.58,0.26-0.58,0.58
		C5.14,1.55,5.4,1.81,5.72,1.81z"/>
</g>
</svg>
