<?xml version="1.0" encoding="utf-8"?>
<!-- Generator: Adobe Illustrator 27.3.1, SVG Export Plug-In . SVG Version: 6.00 Build 0)  -->
<svg version="1.1" id="Layer_1" xmlns="http://www.w3.org/2000/svg" xmlns:xlink="http://www.w3.org/1999/xlink" x="0px" y="0px"
	 viewBox="0 0 11.52 11.52" style="enable-background:new 0 0 11.52 11.52;" xml:space="preserve">
<style type="text/css">
	.st0{fill:#28A8E0;}
	.st1{fill:#FFFFFF;}
</style>
<g>
	<g>
		<g>
			<g>
				<path class="st0" d="M11.52,5.76c0,3.18-2.58,5.76-5.76,5.76S0,8.94,0,5.76C0,2.58,2.58,0,5.76,0S11.52,2.58,11.52,5.76z"/>
			</g>
		</g>
	</g>
</g>
<g>
	<path class="st1" d="M6.68,5.67H6.57v-0.3c0-0.52-0.35-0.88-0.84-0.88c-0.49,0-0.84,0.36-0.84,0.88v0.3h-0.1
		c-0.08,0-0.14,0.06-0.14,0.14v1.75c0,0.08,0.06,0.14,0.14,0.14h1.89c0.08,0,0.14-0.06,0.14-0.14V5.81
		C6.82,5.73,6.76,5.67,6.68,5.67z M6.29,5.67H5.17v-0.3c0-0.36,0.23-0.6,0.56-0.6c0.33,0,0.56,0.24,0.56,0.6V5.67z"/>
	<path class="st1" d="M10.68,5.58c-0.01-0.02-0.02-0.03-0.04-0.05L9.66,4.55c-0.1-0.1-0.25-0.1-0.34,0L9.28,4.58
		c-0.1,0.1-0.1,0.25,0,0.34L9.86,5.5H8.22V3.84L6.97,2.59H3.84c-0.3,0-0.54,0.24-0.54,0.54V5.5H1.66l0.58-0.58
		c0.1-0.1,0.1-0.25,0-0.34L2.2,4.55c-0.1-0.1-0.25-0.1-0.34,0L0.87,5.53C0.85,5.55,0.84,5.56,0.83,5.58
		c-0.04,0.04-0.07,0.1-0.07,0.17V5.8c0,0.08,0.03,0.14,0.09,0.19C0.86,5.99,0.86,6,0.87,6l0.98,0.98c0.1,0.1,0.25,0.1,0.34,0
		l0.03-0.03c0.1-0.1,0.1-0.25,0-0.34L1.67,6.04H3.3v2.39c0,0.3,0.24,0.54,0.54,0.54h3.85c0.3,0,0.54-0.24,0.54-0.54V6.04h1.63
		L9.28,6.61c-0.1,0.1-0.1,0.25,0,0.34l0.03,0.03c0.1,0.1,0.25,0.1,0.34,0L10.65,6c0.01-0.01,0.01-0.01,0.01-0.02
		c0.05-0.04,0.09-0.11,0.09-0.19V5.75C10.75,5.68,10.72,5.62,10.68,5.58z M3.88,8.39V3.17h2.58V4.1c0,0.14,0.11,0.26,0.26,0.26h0.93
		v4.04H3.88z"/>
</g>
</svg>
