<?xml version="1.0" encoding="utf-8"?>
<!-- Generator: Adobe Illustrator 27.3.1, SVG Export Plug-In . SVG Version: 6.00 Build 0)  -->
<svg version="1.1" id="Layer_1" xmlns="http://www.w3.org/2000/svg" xmlns:xlink="http://www.w3.org/1999/xlink" x="0px" y="0px"
	 viewBox="0 0 11.52 11.52" style="enable-background:new 0 0 11.52 11.52;" xml:space="preserve">
<style type="text/css">
	.st0{fill:#28A8E0;}
	.st1{fill:#FFFFFF;}
</style>
<g>
	<g>
		<g>
			<path class="st0" d="M11.52,5.76c0,3.18-2.58,5.76-5.76,5.76S0,8.94,0,5.76C0,2.58,2.58,0,5.76,0S11.52,2.58,11.52,5.76z"/>
		</g>
	</g>
</g>
<g>
	<path class="st1" d="M5.72,3.97c0.58,0,1.06-0.47,1.06-1.06c0-0.58-0.47-1.06-1.06-1.06c-0.58,0-1.06,0.47-1.06,1.06
		C4.67,3.49,5.14,3.97,5.72,3.97z"/>
	<path class="st1" d="M6.87,9.38L7,6.06l0.18,0l0,2.86c0,0.28,0.23,0.51,0.51,0.51c0.28,0,0.51-0.23,0.51-0.51l0-3.51
		c0-0.58-0.47-1.05-1.05-1.05H4.29c-0.58,0-1.05,0.47-1.05,1.05l0,3.51c0,0.28,0.23,0.51,0.51,0.51c0.28,0,0.51-0.23,0.51-0.51
		l0-2.86l0.18,0l0.13,3.32H6.87z"/>
</g>
<g>
	<g>
		<g>
			<path class="st0" d="M11.52,5.76c0,3.18-2.58,5.76-5.76,5.76S0,8.94,0,5.76C0,2.58,2.58,0,5.76,0S11.52,2.58,11.52,5.76z"/>
		</g>
	</g>
</g>
<g>
	<path class="st1" d="M5.72,3.97c0.58,0,1.06-0.47,1.06-1.06c0-0.58-0.47-1.06-1.06-1.06c-0.58,0-1.06,0.47-1.06,1.06
		C4.67,3.49,5.14,3.97,5.72,3.97z"/>
	<path class="st1" d="M6.87,9.38L7,6.06l0.18,0l0,2.86c0,0.28,0.23,0.51,0.51,0.51c0.28,0,0.51-0.23,0.51-0.51l0-3.51
		c0-0.58-0.47-1.05-1.05-1.05H4.29c-0.58,0-1.05,0.47-1.05,1.05l0,3.51c0,0.28,0.23,0.51,0.51,0.51c0.28,0,0.51-0.23,0.51-0.51
		l0-2.86l0.18,0l0.13,3.32H6.87z"/>
</g>
</svg>
