<?xml version="1.0" encoding="utf-8"?>
<!-- Generator: Adobe Illustrator 27.3.1, SVG Export Plug-In . SVG Version: 6.00 Build 0)  -->
<svg version="1.1" id="Layer_1" xmlns="http://www.w3.org/2000/svg" xmlns:xlink="http://www.w3.org/1999/xlink" x="0px" y="0px"
	 viewBox="0 0 11.52 11.52" style="enable-background:new 0 0 11.52 11.52;" xml:space="preserve">
<style type="text/css">
	.st0{fill:#28A8E0;}
	.st1{fill-rule:evenodd;clip-rule:evenodd;fill:#FFFFFF;}
	.st2{fill:#FFFFFF;}
</style>
<g>
	<path class="st0" d="M11.52,5.76c0,3.18-2.58,5.76-5.76,5.76S0,8.94,0,5.76C0,2.58,2.58,0,5.76,0S11.52,2.58,11.52,5.76z"/>
</g>
<g>
	<path class="st1" d="M7.18,3.72C6.75,3.29,6.2,3.08,5.65,3.08c-0.56,0-1.14,0.21-1.59,0.64C3.33,4.47,3.25,5.6,3.76,6.46L2.11,8.14
		c-0.14,0.12-0.14,0.36,0,0.5l0.18,0.18c0.14,0.14,0.38,0.14,0.5,0l1.68-1.67c0.37,0.22,0.76,0.33,1.18,0.33
		c0.55,0,1.1-0.21,1.54-0.63C8.06,5.99,8.06,4.58,7.18,3.72 M6.69,6.34C6.41,6.62,6.03,6.77,5.65,6.77c-0.41,0-0.79-0.16-1.08-0.43
		C4,5.75,4,4.8,4.57,4.22c0.29-0.29,0.67-0.45,1.08-0.45c0.38,0,0.76,0.16,1.04,0.45C6.97,4.5,7.13,4.88,7.13,5.29
		C7.13,5.67,6.97,6.05,6.69,6.34"/>
</g>
<g>
	<g>
		<g>
			<path class="st1" d="M7.18,3.72C6.75,3.29,6.2,3.08,5.65,3.08c-0.56,0-1.14,0.21-1.59,0.64C3.33,4.47,3.25,5.6,3.76,6.46
				L2.11,8.14c-0.14,0.12-0.14,0.36,0,0.5l0.18,0.18c0.14,0.14,0.38,0.14,0.5,0l1.68-1.67c0.37,0.22,0.76,0.33,1.18,0.33
				c0.55,0,1.1-0.21,1.54-0.63C8.06,5.99,8.06,4.58,7.18,3.72 M6.69,6.34C6.41,6.62,6.03,6.77,5.65,6.77
				c-0.41,0-0.79-0.16-1.08-0.43C4,5.75,4,4.8,4.57,4.22c0.29-0.29,0.67-0.45,1.08-0.45c0.38,0,0.76,0.16,1.04,0.45
				C6.97,4.5,7.13,4.88,7.13,5.29C7.13,5.67,6.97,6.05,6.69,6.34"/>
		</g>
		<path class="st2" d="M9.41,3.39C8.98,2.96,8.4,2.72,7.78,2.72c-0.38,0-0.76,0.09-1.09,0.27C6.79,3.04,6.89,3.1,6.99,3.16
			c0.2-0.08,0.4-0.13,0.6-0.15C7.49,3.09,7.37,3.2,7.23,3.34C7.27,3.37,7.3,3.4,7.34,3.43c0.2-0.22,0.39-0.35,0.49-0.42
			c0.26,0,0.5,0.05,0.72,0.14c0.01,0.21,0,0.43-0.02,0.68C8.11,3.65,7.74,3.59,7.49,3.58c0.05,0.05,0.09,0.1,0.13,0.15
			c0.3,0.04,0.6,0.12,0.89,0.24C8.45,4.34,8.33,4.72,8.16,5.12c0,0.05,0.01,0.1,0.01,0.15c0,0.06,0,0.11,0,0.17
			c0.24-0.47,0.4-0.94,0.48-1.4c0.14,0.08,0.3,0.17,0.44,0.29c-0.08,0.21-0.17,0.4-0.28,0.57c-0.19,0.3-0.41,0.56-0.67,0.76
			C8.12,5.72,8.11,5.79,8.09,5.86c0.34-0.24,0.63-0.55,0.84-0.9c0.11-0.19,0.2-0.39,0.27-0.55C9.4,4.58,9.56,4.75,9.69,4.93
			C9.36,5.12,8.78,5.51,8.3,6.09c-0.09,0-0.18-0.01-0.26-0.02C8.02,6.12,8,6.16,7.98,6.21c0.06,0.01,0.13,0.02,0.21,0.02
			C8,6.48,7.84,6.75,7.73,7.01C7.65,7.01,7.57,7,7.49,6.99C7.47,7.02,7.44,7.05,7.41,7.08l0,0C7.35,7.13,7.3,7.18,7.24,7.23
			c0.17,0.04,0.35,0.07,0.54,0.07c1.28,0,2.31-1.03,2.31-2.29C10.09,4.39,9.85,3.82,9.41,3.39z M9.14,4.18
			C8.96,4.05,8.8,3.96,8.67,3.89C8.69,3.65,8.7,3.43,8.69,3.22c0.22,0.11,0.41,0.26,0.57,0.43C9.25,3.73,9.22,3.93,9.14,4.18z
			 M9.25,4.27c0.07-0.2,0.11-0.36,0.13-0.49c0.23,0.3,0.38,0.67,0.41,1.05C9.64,4.63,9.46,4.44,9.25,4.27z M8.84,6.72
			C8.55,6.89,8.22,6.99,7.89,7.01c0.13-0.27,0.29-0.53,0.48-0.77h0.08c0.37,0,0.72-0.05,1.04-0.15C9.32,6.34,9.1,6.56,8.84,6.72z
			 M8.49,6.09c0.53-0.6,1.12-0.95,1.29-1.04C9.79,5.06,9.8,5.06,9.8,5.07C9.79,5.36,9.72,5.64,9.59,5.89
			C9.26,6.02,8.9,6.08,8.49,6.09z"/>
	</g>
	<g>
		<path class="st2" d="M5.95,4.71h0.95C6.89,4.67,6.86,4.62,6.84,4.58H5.95C5.92,4.5,5.85,4.44,5.76,4.44
			c-0.11,0-0.21,0.09-0.21,0.21c0,0.09,0.06,0.17,0.14,0.2V5.3h-0.8V5.09c0.07-0.03,0.12-0.11,0.12-0.19c0-0.08-0.05-0.16-0.12-0.19
			V4.34h0.93V3.89C5.78,3.89,5.73,3.88,5.69,3.88v0.33H4.76V4.7C4.67,4.72,4.6,4.81,4.6,4.91c0,0.1,0.07,0.18,0.16,0.2v0.33h0.93
			v0.52C5.63,5.97,5.58,6.02,5.56,6.08H4.5c0.03,0.05,0.07,0.09,0.1,0.13h0.96c0.03,0.08,0.11,0.14,0.2,0.14
			c0.09,0,0.17-0.06,0.2-0.14h0.25v0.33C6.25,6.53,6.3,6.5,6.34,6.48V6.22h0.32C6.7,6.17,6.73,6.13,6.77,6.08H6.34V5.57
			C6.4,5.55,6.45,5.5,6.47,5.44h0.55C7.02,5.39,7.03,5.35,7.03,5.3H6.47c-0.03-0.08-0.11-0.14-0.2-0.14c-0.09,0-0.17,0.06-0.2,0.14
			H5.82V4.84C5.88,4.82,5.93,4.77,5.95,4.71z M6.08,5.44C6.1,5.5,6.15,5.55,6.21,5.57v0.52H5.95C5.93,6.02,5.88,5.97,5.82,5.95V5.44
			H6.08z"/>
	</g>
</g>
</svg>
