<?xml version="1.0" encoding="utf-8"?>
<!-- Generator: Adobe Illustrator 27.3.1, SVG Export Plug-In . SVG Version: 6.00 Build 0)  -->
<svg version="1.1" id="Layer_1" xmlns="http://www.w3.org/2000/svg" xmlns:xlink="http://www.w3.org/1999/xlink" x="0px" y="0px"
	 viewBox="0 0 11.52 11.52" style="enable-background:new 0 0 11.52 11.52;" xml:space="preserve">
<style type="text/css">
	.st0{fill:#28A8E0;}
	.st1{fill-rule:evenodd;clip-rule:evenodd;fill:#FFFFFF;}
</style>
<g>
	<g>
		<g>
			<path class="st0" d="M11.52,5.76c0,3.18-2.58,5.76-5.76,5.76S0,8.94,0,5.76C0,2.58,2.58,0,5.76,0S11.52,2.58,11.52,5.76z"/>
		</g>
		<g>
			<path class="st1" d="M4.71,4.56C4.68,4.58,4.64,4.58,4.59,4.58v0.09h0.15v0.38h0.12V4.48h-0.1C4.74,4.52,4.73,4.54,4.71,4.56"/>
			<path class="st1" d="M5.06,5.66c0-0.14,0.04-0.2,0.1-0.2c0.06,0,0.09,0.06,0.09,0.2c0,0.14-0.03,0.2-0.09,0.2
				C5.11,5.86,5.06,5.8,5.06,5.66 M5.33,5.87c0.03-0.05,0.05-0.12,0.05-0.21c0-0.09-0.02-0.17-0.05-0.22
				C5.29,5.39,5.24,5.36,5.17,5.36C5.1,5.36,5.04,5.39,5,5.44C4.97,5.49,4.95,5.57,4.95,5.66c0,0.09,0.02,0.17,0.05,0.22
				C5.04,5.93,5.1,5.96,5.17,5.96C5.24,5.96,5.29,5.93,5.33,5.87"/>
			<path class="st1" d="M4.51,5.66c0-0.14,0.03-0.2,0.1-0.2c0.06,0,0.11,0.06,0.11,0.2c0,0.14-0.04,0.2-0.11,0.2
				C4.54,5.86,4.51,5.8,4.51,5.66 M4.77,5.87C4.8,5.82,4.82,5.74,4.82,5.66c0-0.09-0.02-0.17-0.05-0.22
				C4.73,5.39,4.68,5.36,4.6,5.36c-0.07,0-0.13,0.03-0.17,0.08C4.4,5.49,4.38,5.57,4.38,5.66c0,0.09,0.02,0.17,0.05,0.22
				c0.04,0.05,0.1,0.08,0.17,0.08C4.68,5.96,4.73,5.93,4.77,5.87"/>
			<path class="st1" d="M4.69,6.34C4.67,6.36,4.62,6.37,4.57,6.37v0.09h0.15v0.38h0.12V6.26h-0.1C4.73,6.29,4.71,6.32,4.69,6.34"/>
			<path class="st1" d="M4.06,5.45C4.03,5.47,4,5.48,3.94,5.48v0.08h0.15v0.38h0.12V5.37H4.1C4.09,5.41,4.08,5.43,4.06,5.45"/>
			<path class="st1" d="M5.28,6.76c-0.07,0-0.1-0.07-0.1-0.21c0-0.14,0.03-0.2,0.1-0.2c0.06,0,0.09,0.06,0.09,0.2
				C5.38,6.68,5.34,6.76,5.28,6.76 M5.28,6.25c-0.07,0-0.12,0.02-0.17,0.07C5.08,6.39,5.06,6.46,5.06,6.55
				c0,0.09,0.01,0.17,0.05,0.22c0.03,0.05,0.09,0.08,0.17,0.08c0.07,0,0.12-0.03,0.17-0.08C5.48,6.72,5.5,6.64,5.5,6.55
				c0-0.08-0.02-0.16-0.06-0.21C5.41,6.27,5.34,6.25,5.28,6.25"/>
			<path class="st1" d="M5.29,4.97c-0.06,0-0.09-0.07-0.09-0.2c0-0.14,0.03-0.21,0.09-0.21c0.06,0,0.1,0.07,0.1,0.21
				C5.4,4.9,5.36,4.97,5.29,4.97 M5.29,4.47c-0.07,0-0.13,0.02-0.17,0.08C5.09,4.6,5.07,4.68,5.07,4.77c0,0.08,0.02,0.16,0.05,0.21
				c0.04,0.05,0.09,0.08,0.17,0.08c0.07,0,0.13-0.03,0.17-0.08c0.03-0.05,0.05-0.13,0.05-0.21c0-0.09-0.02-0.17-0.05-0.22
				C5.42,4.5,5.37,4.47,5.29,4.47"/>
			<path class="st1" d="M5.66,5.94h0.12V5.37H5.68C5.67,5.41,5.65,5.43,5.63,5.45C5.61,5.47,5.57,5.48,5.51,5.48v0.08h0.15V5.94z"/>
			<path class="st1" d="M6.27,5.66c0,0.14-0.03,0.2-0.1,0.2c-0.06,0-0.09-0.06-0.09-0.2c0-0.14,0.03-0.2,0.09-0.2
				C6.24,5.46,6.27,5.52,6.27,5.66 M5.41,6.95c-0.06,0.03-0.13,0.04-0.2,0.06C5.17,7.03,5.13,7.03,5.07,7.04
				c-0.04,0-0.09,0.01-0.14,0.01c-0.05,0-0.09-0.01-0.15-0.01C4.75,7.03,4.7,7.03,4.66,7.02c-0.06-0.02-0.14-0.03-0.2-0.06
				C4.42,6.94,4.37,6.92,4.34,6.9C4.3,6.89,4.26,6.87,4.23,6.85c0.05-0.01,0.09-0.04,0.13-0.08c0.04-0.05,0.05-0.13,0.05-0.22
				c0-0.08-0.01-0.16-0.05-0.21C4.31,6.28,4.26,6.25,4.19,6.25S4.06,6.28,4.03,6.33C3.99,6.39,3.97,6.46,3.97,6.55
				c0,0.04,0.01,0.07,0.01,0.1L3.96,6.63l0.01,0.01L3.95,6.62l0.01,0.01C3.95,6.62,3.94,6.6,3.91,6.59C3.87,6.54,3.83,6.48,3.8,6.43
				C3.78,6.41,3.76,6.38,3.75,6.36C3.74,6.34,3.7,6.26,3.7,6.26C3.66,6.18,3.62,6.1,3.6,6c0-0.01,0-0.03-0.01-0.05
				c0,0.01,0,0.01,0.01,0.01c0.07,0,0.13-0.03,0.17-0.09C3.8,5.82,3.82,5.74,3.82,5.66c0-0.09-0.02-0.17-0.06-0.22
				C3.73,5.39,3.66,5.36,3.6,5.36H3.59C3.6,5.33,3.61,5.28,3.62,5.24C3.64,5.18,3.66,5.12,3.7,5.05C3.71,5.04,3.73,5,3.73,5
				C3.75,4.96,3.77,4.92,3.8,4.89C3.85,4.79,3.92,4.72,4,4.65C3.99,4.68,3.99,4.72,3.99,4.77c0,0.08,0.02,0.16,0.05,0.21
				c0.04,0.05,0.09,0.08,0.17,0.08c0.07,0,0.13-0.03,0.17-0.08c0.03-0.05,0.05-0.13,0.05-0.21c0-0.09-0.02-0.17-0.05-0.22
				C4.33,4.5,4.29,4.48,4.23,4.47c0.21-0.13,0.45-0.2,0.71-0.2c0.31,0,0.61,0.11,0.85,0.29c-0.03,0.02-0.06,0.02-0.1,0.02v0.09h0.15
				v0.38h0.11V4.72c0.05,0.05,0.09,0.1,0.14,0.17C6.1,4.92,6.12,4.96,6.14,5c0.05,0.07,0.08,0.16,0.1,0.24
				c0.02,0.04,0.03,0.08,0.03,0.13c0,0,0.01,0.01,0.01,0.02C6.25,5.37,6.21,5.36,6.17,5.36c-0.07,0-0.13,0.03-0.16,0.08
				C5.97,5.49,5.95,5.57,5.95,5.66c0,0.09,0.02,0.17,0.05,0.22C6.04,5.93,6.1,5.96,6.17,5.96c0.04,0,0.08-0.01,0.11-0.03
				c0,0,0,0.01-0.01,0.01c0,0.02,0,0.04-0.01,0.06C6.22,6.16,6.16,6.3,6.08,6.43C6.07,6.39,6.06,6.36,6.03,6.34
				C5.99,6.28,5.94,6.25,5.87,6.25S5.74,6.28,5.71,6.33C5.67,6.39,5.65,6.46,5.65,6.55c0,0.09,0.02,0.17,0.05,0.22
				c0.01,0.01,0.02,0.02,0.02,0.02C5.67,6.84,5.6,6.87,5.53,6.9C5.49,6.92,5.45,6.94,5.41,6.95 M4.09,6.55c0-0.14,0.03-0.2,0.09-0.2
				c0.07,0,0.1,0.06,0.1,0.2c0,0.14-0.03,0.21-0.1,0.21C4.12,6.75,4.09,6.68,4.09,6.55 M2.08,6.19c-0.03-0.01-0.13-0.2-0.13-0.53
				c0-0.34,0.09-0.53,0.13-0.54c0.04,0.01,0.14,0.2,0.14,0.54C2.21,5.99,2.12,6.18,2.08,6.19 M3.56,5.66c0-0.07,0.01-0.14,0.01-0.2
				H3.6c0.06,0,0.09,0.06,0.09,0.2c0,0.14-0.03,0.2-0.09,0.2H3.57C3.57,5.8,3.56,5.72,3.56,5.66 M4.21,4.56
				c0.06,0,0.09,0.07,0.09,0.21c0,0.13-0.03,0.2-0.09,0.2c-0.07,0-0.1-0.07-0.1-0.2C4.1,4.64,4.13,4.56,4.21,4.56 M5.77,6.55
				c0-0.14,0.03-0.2,0.09-0.2c0.07,0,0.1,0.06,0.1,0.2v0.02C5.96,6.58,5.96,6.58,5.95,6.59C5.94,6.61,5.92,6.62,5.91,6.64
				C5.88,6.67,5.85,6.69,5.82,6.72C5.78,6.69,5.77,6.64,5.77,6.55 M2.08,8.21c-0.03-0.01-0.13-0.2-0.13-0.54
				c0-0.33,0.09-0.52,0.13-0.53c0.04,0.01,0.14,0.2,0.14,0.53C2.21,8.01,2.12,8.19,2.08,8.21 M2.08,4.18
				c-0.03-0.01-0.13-0.2-0.13-0.54c0-0.33,0.09-0.52,0.13-0.53c0.04,0.01,0.14,0.2,0.14,0.53C2.21,3.98,2.12,4.17,2.08,4.18
				 M9.37,4.4H5.9c-0.24-0.19-0.53-0.3-0.86-0.33l-1.05-1.1H2.08c-0.18,0-0.26,0.35-0.26,0.67c0,0.32,0.08,0.68,0.26,0.68h1.47
				l0.24,0.25C3.66,4.69,3.57,4.84,3.5,4.98H2.08c-0.18,0-0.26,0.35-0.26,0.68c0,0.32,0.08,0.67,0.26,0.67H3.5
				c0.07,0.16,0.17,0.3,0.28,0.42L3.55,6.99H2.08c-0.18,0-0.26,0.34-0.26,0.67c0,0.32,0.08,0.68,0.26,0.68h1.91l1.04-1.1
				c0.32-0.02,0.63-0.14,0.88-0.33h3.46c0.34,0,0.49-0.65,0.49-1.25C9.86,5.04,9.71,4.4,9.37,4.4"/>
		</g>
	</g>
</g>
</svg>
