<?xml version="1.0" encoding="utf-8"?>
<!-- Generator: Adobe Illustrator 27.3.1, SVG Export Plug-In . SVG Version: 6.00 Build 0)  -->
<svg version="1.1" id="Layer_1" xmlns="http://www.w3.org/2000/svg" xmlns:xlink="http://www.w3.org/1999/xlink" x="0px" y="0px"
	 viewBox="0 0 11.52 11.52" style="enable-background:new 0 0 11.52 11.52;" xml:space="preserve">
<style type="text/css">
	.st0{fill:#28A8E0;}
	.st1{fill:none;stroke:#FFFFFF;stroke-width:0.4763;stroke-miterlimit:10;}
	.st2{fill:#FFFFFF;}
	.st3{fill:none;stroke:#FFFFFF;stroke-width:0.4763;stroke-linecap:round;stroke-miterlimit:10;}
</style>
<g>
	<g>
		<g>
			<path class="st0" d="M11.52,5.76c0,3.18-2.58,5.76-5.76,5.76S0,8.94,0,5.76C0,2.58,2.58,0,5.76,0S11.52,2.58,11.52,5.76z"/>
		</g>
	</g>
</g>
<path class="st1" d="M6.6,7.16V2.42c0-0.48-0.39-0.86-0.86-0.86c-0.48,0-0.86,0.39-0.86,0.86v4.74C4.43,7.45,4.13,7.94,4.13,8.51
	c0,0.89,0.72,1.6,1.6,1.6c0.89,0,1.6-0.72,1.6-1.6C7.34,7.94,7.04,7.45,6.6,7.16z"/>
<path class="st2" d="M7.76,5.03l0.76-0.76c0.11-0.11,0.28-0.11,0.38,0l0.76,0.76C9.84,5.2,9.72,5.49,9.47,5.49H7.95
	C7.71,5.49,7.59,5.2,7.76,5.03z"/>
<path class="st2" d="M7.76,6.5l0.76,0.76c0.11,0.11,0.28,0.11,0.38,0L9.67,6.5c0.17-0.17,0.05-0.46-0.19-0.46H7.95
	C7.71,6.04,7.59,6.33,7.76,6.5z"/>
<line class="st3" x1="5.86" y1="3.18" x2="6.58" y2="3.18"/>
<line class="st3" x1="5.86" y1="4.66" x2="6.58" y2="4.66"/>
<line class="st3" x1="5.86" y1="6.14" x2="6.58" y2="6.14"/>
</svg>
