<?xml version="1.0" encoding="utf-8"?>
<!-- Generator: Adobe Illustrator 27.3.1, SVG Export Plug-In . SVG Version: 6.00 Build 0)  -->
<svg version="1.1" id="Layer_1" xmlns="http://www.w3.org/2000/svg" xmlns:xlink="http://www.w3.org/1999/xlink" x="0px" y="0px"
	 viewBox="0 0 11.52 11.52" style="enable-background:new 0 0 11.52 11.52;" xml:space="preserve">
<style type="text/css">
	.st0{fill:#28A8E0;}
	.st1{fill:#FFFFFF;}
</style>
<g>
	<g>
		<g>
			<path class="st0" d="M11.52,5.76c0,3.18-2.58,5.76-5.76,5.76S0,8.94,0,5.76C0,2.58,2.58,0,5.76,0S11.52,2.58,11.52,5.76z"/>
		</g>
	</g>
</g>
<g>
	<path class="st1" d="M4.58,4.05h2.38c0.12,0,0.21-0.09,0.21-0.21c0-0.12-0.09-0.21-0.21-0.21H4.58c-0.12,0-0.21,0.09-0.21,0.21
		C4.36,3.95,4.46,4.05,4.58,4.05z"/>
	<path class="st1" d="M4.58,5.24h2.38c0.12,0,0.21-0.09,0.21-0.21c0-0.12-0.09-0.21-0.21-0.21H4.58c-0.12,0-0.21,0.09-0.21,0.21
		C4.36,5.14,4.46,5.24,4.58,5.24z"/>
	<path class="st1" d="M5.62,6H4.58C4.46,6,4.36,6.1,4.36,6.22s0.09,0.21,0.21,0.21h1.04c0.12,0,0.21-0.09,0.21-0.21S5.73,6,5.62,6z"
		/>
	<path class="st1" d="M8.41,8.68L8.58,8.6c0.03-0.02,0.05-0.05,0.05-0.08L8.61,8.25c0-0.03,0.01-0.08,0.03-0.1l0.15-0.22
		c0.02-0.03,0.02-0.07,0-0.1L8.64,7.61c-0.02-0.02-0.03-0.07-0.03-0.1l0.02-0.27c0-0.04-0.02-0.07-0.05-0.08L8.34,7.04
		C8.32,7.03,8.28,6.99,8.27,6.96L8.15,6.72C8.13,6.69,8.1,6.67,8.07,6.67L7.8,6.69c-0.03,0-0.08-0.01-0.1-0.03L7.48,6.51
		c0,0,0,0,0,0c0,0-0.03-0.01-0.05-0.01c-0.02,0-0.04,0.01-0.05,0.01c0,0,0,0,0,0L7.15,6.67c-0.02,0.02-0.07,0.03-0.1,0.03L6.79,6.67
		c-0.03,0-0.07,0.02-0.08,0.05L6.59,6.96C6.57,6.99,6.54,7.03,6.51,7.04L6.27,7.15C6.24,7.17,6.22,7.2,6.22,7.24l0.02,0.27
		c0,0.03-0.01,0.08-0.03,0.1L6.06,7.83c-0.02,0.03-0.02,0.07,0,0.1l0.15,0.22c0.02,0.02,0.03,0.07,0.03,0.1L6.22,8.52
		c0,0.04,0.02,0.07,0.05,0.08l0.17,0.08L5.89,9.55c-0.02,0.03-0.02,0.07,0,0.1c0.02,0.03,0.06,0.04,0.09,0.03l0.52-0.15l0.15,0.52
		c0.01,0.04,0.04,0.06,0.08,0.06c0,0,0,0,0.01,0c0.03,0,0.07-0.02,0.08-0.05l0.39-0.94l0.17,0.12c0,0,0,0,0,0
		c0,0,0.01,0.01,0.02,0.01c0,0,0,0,0.01,0c0.01,0,0.01,0,0.02,0c0,0,0,0,0,0h0c0,0,0,0,0,0c0.01,0,0.01,0,0.02,0c0,0,0,0,0.01,0
		c0.01,0,0.01,0,0.02-0.01c0,0,0,0,0,0l0.17-0.12l0.39,0.94c0.01,0.03,0.04,0.05,0.08,0.05c0,0,0,0,0.01,0
		c0.04,0,0.07-0.03,0.08-0.06l0.15-0.52l0.52,0.15c0.03,0.01,0.07,0,0.09-0.03c0.02-0.03,0.02-0.07,0-0.1L8.41,8.68z M7.43,8.7
		C6.97,8.7,6.6,8.33,6.6,7.88c0-0.46,0.37-0.83,0.83-0.83c0.46,0,0.83,0.37,0.83,0.83C8.26,8.33,7.89,8.7,7.43,8.7z"/>
	<path class="st1" d="M10.68,5.58c-0.01-0.02-0.02-0.03-0.04-0.05L9.66,4.55c-0.1-0.1-0.25-0.1-0.34,0L9.28,4.58
		c-0.1,0.1-0.1,0.25,0,0.34L9.86,5.5H8.35V3.07c0-0.43-0.35-0.78-0.78-0.78H3.92c-0.43,0-0.78,0.35-0.78,0.78V5.5H1.66l0.58-0.58
		c0.1-0.1,0.1-0.25,0-0.34L2.2,4.55c-0.1-0.1-0.25-0.1-0.34,0L0.87,5.53C0.85,5.55,0.84,5.56,0.83,5.58
		c-0.04,0.04-0.07,0.1-0.07,0.17V5.8c0,0.08,0.03,0.14,0.09,0.19C0.86,5.99,0.86,6,0.87,6l0.98,0.98c0.1,0.1,0.25,0.1,0.34,0
		l0.03-0.03c0.1-0.1,0.1-0.25,0-0.34L1.67,6.04h1.48v2.03c0,0.43,0.35,0.78,0.78,0.78h1.72V8.37H3.92c-0.17,0-0.3-0.14-0.3-0.3v-5
		c0-0.17,0.14-0.3,0.3-0.3h3.64c0.17,0,0.3,0.14,0.3,0.3v2.97H8.2h0.15h1.5L9.28,6.61c-0.1,0.1-0.1,0.25,0,0.34l0.03,0.03
		c0.1,0.1,0.25,0.1,0.34,0L10.65,6c0.01-0.01,0.01-0.01,0.01-0.02c0.05-0.04,0.09-0.11,0.09-0.19V5.75
		C10.75,5.68,10.72,5.62,10.68,5.58z"/>
</g>
</svg>
