<?xml version="1.0" encoding="utf-8"?>
<!-- Generator: Adobe Illustrator 27.3.1, SVG Export Plug-In . SVG Version: 6.00 Build 0)  -->
<svg version="1.1" id="Layer_1" xmlns="http://www.w3.org/2000/svg" xmlns:xlink="http://www.w3.org/1999/xlink" x="0px" y="0px"
	 viewBox="0 0 11.52 11.52" style="enable-background:new 0 0 11.52 11.52;" xml:space="preserve">
<style type="text/css">
	.st0{fill:#6ABD46;}
	.st1{fill-rule:evenodd;clip-rule:evenodd;fill:#FFFFFF;}
</style>
<g>
	<g>
		<g>
			<path class="st0" d="M11.52,5.76c0,3.18-2.58,5.76-5.76,5.76S0,8.94,0,5.76C0,2.58,2.58,0,5.76,0S11.52,2.58,11.52,5.76z"/>
		</g>
	</g>
</g>
<path class="st1" d="M8.18,9.12L7.83,8.39c0.27-0.25,0.54-0.51,0.76-0.84L9.34,7.8c0.18,0.1,0.4,0,0.47-0.22l0.24-0.69
	c0.1-0.19,0-0.39-0.22-0.47L9.03,6.13c0.07-0.32,0.05-0.73-0.05-1.1l0.76-0.37c0.17-0.08,0.25-0.3,0.17-0.47L9.59,3.5
	C9.52,3.33,9.3,3.26,9.09,3.37L8.38,3.7C8.16,3.4,7.86,3.16,7.54,2.94l0.29-0.78C7.86,1.97,7.79,1.8,7.61,1.7L6.92,1.44
	C6.7,1.38,6.48,1.48,6.41,1.7L6.16,2.46C5.78,2.39,5.41,2.44,5.04,2.54L4.68,1.75C4.58,1.6,4.4,1.51,4.18,1.61L3.54,1.9
	C3.34,2,3.26,2.22,3.34,2.39l0.37,0.76c-0.3,0.22-0.54,0.51-0.76,0.84L2.16,3.7C2.01,3.64,1.79,3.74,1.71,3.92L1.46,4.61
	C1.39,4.83,1.49,5.05,1.69,5.09l0.77,0.29c-0.03,0.35-0.02,0.76,0.05,1.1L1.76,6.84c-0.17,0.08-0.24,0.3-0.13,0.51L1.91,8
	c0.1,0.2,0.32,0.27,0.54,0.19l0.71-0.35c0.22,0.3,0.5,0.54,0.81,0.73L3.74,9.35c-0.1,0.19,0,0.4,0.18,0.49l0.72,0.22
	c0.18,0.1,0.37-0.03,0.47-0.22l0.25-0.76C5.73,9.12,6.13,9.12,6.5,9l0.32,0.76c0.13,0.19,0.32,0.27,0.52,0.19l0.69-0.32
	C8.18,9.5,8.26,9.32,8.18,9.12 M3.73,6.74C3.19,5.59,3.66,4.28,4.8,3.72C5.93,3.15,7.25,3.65,7.81,4.8c0.5,1.11,0.07,2.48-1.08,3.02
	C5.62,8.34,4.28,7.88,3.73,6.74"/>
<path class="st1" d="M6.11,4.04V4.7c0,0.08-0.06,0.14-0.14,0.14H5.55C5.47,4.84,5.4,4.78,5.4,4.7V4.04c-0.29,0.13-0.5,0.43-0.5,0.77
	c0,0.3,0.15,0.56,0.38,0.71v1.59c0,0.26,0.21,0.46,0.46,0.46h0c0.26,0,0.46-0.21,0.46-0.46V5.52C6.45,5.37,6.6,5.11,6.6,4.81
	C6.6,4.47,6.4,4.17,6.11,4.04z M5.76,7.35c-0.13,0-0.23-0.1-0.23-0.23s0.1-0.23,0.23-0.23c0.13,0,0.23,0.1,0.23,0.23
	S5.89,7.35,5.76,7.35z"/>
</svg>
