<?xml version="1.0" encoding="utf-8"?>
<!-- Generator: Adobe Illustrator 27.3.1, SVG Export Plug-In . SVG Version: 6.00 Build 0)  -->
<svg version="1.1" id="Layer_1" xmlns="http://www.w3.org/2000/svg" xmlns:xlink="http://www.w3.org/1999/xlink" x="0px" y="0px"
	 viewBox="0 0 11.52 11.52" style="enable-background:new 0 0 11.52 11.52;" xml:space="preserve">
<style type="text/css">
	.st0{fill:#28A8E0;}
	.st1{fill:#FFFFFF;}
</style>
<g>
	<path class="st0" d="M11.52,5.76c0,3.18-2.58,5.76-5.76,5.76S0,8.94,0,5.76C0,2.58,2.58,0,5.76,0S11.52,2.58,11.52,5.76z"/>
</g>
<g>
	<path class="st1" d="M6.38,2.09c0,0.02-0.03,0.06-0.01,0.09C6.38,2.2,6.41,2.2,6.42,2.2h0.06h0.01c0.09,0.01,0.14,0.08,0.2,0.12
		C6.74,2.34,6.8,2.37,6.87,2.38h0.1c0.04,0,0.06,0.01,0.07,0.04c0.01,0.05-0.07,0.07-0.08,0.11C7,2.59,6.94,2.61,6.94,2.66
		c0,0.03,0.04,0.08,0.07,0.09c0.06,0,0.13-0.05,0.15-0.1c0.03-0.07,0.02-0.15,0.06-0.21c0.26,0.01,0.47-0.11,0.46-0.38
		C7.67,2.04,7.66,2.01,7.67,1.98c0-0.04,0.07-0.08,0.06-0.13c0.03-0.01,0.05-0.03,0.06-0.05C7.82,1.75,7.84,1.71,7.87,1.7
		c0.01,0,0.01-0.01,0.01-0.01c0.02,0,0.05,0,0.07,0.01h0.02C8,1.71,8.05,1.73,8.09,1.73c0.02,0,0.04-0.01,0.06-0.02
		C7.96,1.6,7.76,1.5,7.56,1.41c0.02,0.02,0.06,0.04,0.08,0.06c0.05,0.03,0.09,0.05,0.11,0.1C7.73,1.61,7.72,1.62,7.7,1.62
		C7.66,1.63,7.61,1.59,7.56,1.58c-0.05,0-0.13,0.08-0.19,0.07c-0.03,0-0.05-0.01-0.07-0.05c0.02-0.05,0.08-0.07,0.1-0.12
		c-0.01,0-0.02,0-0.02,0.01C7.35,1.5,7.32,1.51,7.29,1.52C7.26,1.54,7.22,1.56,7.18,1.57c-0.04,0.01-0.07,0-0.11,0.01
		C7.01,1.6,6.97,1.65,6.9,1.67C6.87,1.68,6.83,1.68,6.8,1.69c-0.06,0.02-0.14,0.06-0.2,0.1C6.53,1.82,6.45,1.87,6.41,1.91
		C6.38,1.93,6.32,2,6.32,2.02C6.32,2.05,6.38,2.06,6.38,2.09z"/>
	<path class="st1" d="M8.43,2.08c0.04,0,0.09-0.01,0.12-0.03c0.02-0.01,0.03-0.02,0.04-0.03C8.53,1.97,8.47,1.93,8.4,1.88
		C8.39,1.93,8.35,1.94,8.35,1.99C8.36,2.04,8.4,2.07,8.43,2.08z"/>
	<path class="st1" d="M5.77,7.58c0.6-0.32,1.05-0.89,1.18-1.54c0.04-0.15,0.05-0.3,0.05-0.45V5.23L5.12,7.1
		C5.31,7.29,5.52,7.46,5.77,7.58z"/>
	<path class="st1" d="M5.77,4.69L4.53,4.98v0.61c0,0.16,0.01,0.31,0.05,0.45c0.05,0.25,0.15,0.48,0.28,0.7l1.83-1.83
		C6.51,4.87,6.22,4.8,5.77,4.69z"/>
	<path class="st1" d="M10.35,4.82c-0.02-0.08-0.04-0.16-0.06-0.25c-0.02-0.06-0.03-0.12-0.05-0.17c-0.22-0.73-0.62-1.41-1.18-1.97
		C9,2.37,8.93,2.3,8.86,2.24C8.85,2.26,8.85,2.28,8.85,2.3c0.01,0.09,0.12,0.09,0.18,0.13C9.05,2.45,9.05,2.48,9.07,2.5
		c0.02,0.04,0.06,0.04,0.06,0.08c0.01,0.09-0.08,0.09-0.08,0.21C9.04,2.83,8.99,2.82,8.99,2.88c0,0.04,0.03,0.04,0.07,0.05H9.1
		c0.02,0.01,0.04,0.01,0.05,0.03c0.02,0.04,0,0.06-0.02,0.11C9.18,3.13,9.18,3.21,9.1,3.21H9.09c-0.05,0-0.06-0.05-0.1-0.06
		c-0.03,0-0.05,0-0.08-0.01H8.9c-0.03,0-0.05-0.01-0.08-0.01c-0.03-0.01-0.07-0.01-0.1-0.01c-0.03,0-0.06,0-0.08-0.02
		c0.06-0.09,0.14-0.17,0.22-0.25c0.03-0.02,0.08-0.04,0.07-0.08C8.92,2.76,8.91,2.76,8.9,2.76c-0.03,0-0.07,0.02-0.1,0.04
		c-0.05,0.02-0.1,0.06-0.15,0.07c-0.09,0.01-0.2-0.03-0.29,0.02C8.35,2.94,8.45,2.92,8.43,2.98c-0.02,0.01-0.04,0.01-0.05,0
		c-0.02,0-0.04,0-0.06-0.02C8.3,2.94,8.31,2.91,8.3,2.89C8.27,2.88,8.25,2.87,8.22,2.87c-0.04-0.01-0.07-0.01-0.09,0
		C8.07,2.88,8.02,2.92,8.01,2.97h0.05c0.04,0,0.08-0.01,0.11,0.01c0.02,0,0.04,0.01,0.05,0.03C8.18,3.08,8.09,3.12,8.1,3.21
		C8.11,3.24,8.14,3.29,8.17,3.3c0.03,0,0.04-0.02,0.07-0.02h0.01c0.03,0,0.03,0.02,0.05,0.03c0.05-0.03,0.08-0.09,0.14-0.09h0.01
		C8.53,3.31,8.4,3.35,8.32,3.38C8.23,3.41,8.12,3.42,8.05,3.45C8.02,3.46,7.94,3.54,7.9,3.52c-0.02,0-0.04,0-0.04-0.03
		c-0.02-0.07,0.06-0.05,0.07-0.1C7.86,3.38,7.78,3.42,7.71,3.45c-0.11,0.04-0.3,0.07-0.33,0.2c0,0.02,0.01,0.06,0,0.08
		C7.37,3.74,7.29,3.75,7.25,3.76C7.2,3.77,7.16,3.81,7.13,3.82C7.1,3.83,7.07,3.83,7.05,3.83c-0.01,0-0.02,0.01-0.02,0.02L5.77,3.56
		L3.65,4.04v1.55c0,0.18,0.02,0.35,0.04,0.53C3.67,6.11,3.64,6.11,3.63,6.09C3.59,6.08,3.56,6.04,3.51,6.01
		c-0.04-0.02-0.09-0.07-0.09-0.1c0-0.04,0.04-0.08,0.04-0.12c0.02-0.12-0.08-0.23-0.14-0.3c-0.04-0.06-0.09-0.1-0.13-0.15V5.25
		c-0.04-0.03-0.06-0.08-0.1-0.13c-0.03-0.04-0.09-0.09-0.1-0.13C2.97,4.92,3,4.86,2.98,4.81c-0.04-0.1-0.17-0.06-0.15,0.07
		c0,0.04,0.05,0.08,0.06,0.12c0.02,0.03,0.02,0.08,0.03,0.12c0.01,0.04,0.06,0.08,0.07,0.12C3.01,5.32,3.01,5.4,3.03,5.46
		C3.05,5.5,3.13,5.54,3.08,5.59C3.03,5.6,3.01,5.55,2.98,5.52C2.96,5.5,2.9,5.47,2.89,5.43C2.88,5.39,2.91,5.35,2.9,5.31
		C2.88,5.23,2.73,5.23,2.73,5.16c0-0.05,0.06-0.06,0.06-0.11c0-0.05-0.07-0.09-0.08-0.13C2.69,4.87,2.69,4.8,2.69,4.75
		c-0.01-0.05,0-0.12-0.01-0.16C2.67,4.55,2.6,4.5,2.57,4.48C2.52,4.45,2.48,4.46,2.46,4.42c-0.02-0.03-0.03-0.1-0.04-0.13
		c-0.01-0.07,0-0.14,0-0.22c-0.01-0.06-0.01-0.12,0-0.2H2.4V3.86C2.43,3.8,2.48,3.78,2.5,3.73C2.52,3.69,2.53,3.65,2.55,3.6
		C2.59,3.53,2.68,3.47,2.74,3.4C2.8,3.33,2.86,3.25,2.89,3.16C2.9,3.13,2.94,3.07,2.93,3.03c0-0.05-0.1-0.09-0.09-0.16
		c0-0.03,0.06-0.03,0.07-0.07c0.01-0.02,0.02-0.07,0.02-0.1c0-0.05-0.03-0.1-0.02-0.15c0.01-0.05,0.08-0.07,0.05-0.12
		C2.95,2.4,2.94,2.4,2.93,2.39C2.91,2.4,2.88,2.41,2.85,2.41c-0.01,0-0.02,0-0.03-0.01c-0.04-0.03,0-0.06,0.01-0.12
		c0-0.02-0.02-0.05-0.01-0.06c0-0.03,0.05-0.07,0.03-0.08C2.84,2.11,2.83,2.09,2.82,2.07C2.78,2.1,2.75,2.12,2.71,2.14
		C1.69,3.01,1.04,4.3,1.04,5.75c0,2.61,2.1,4.73,4.7,4.73c0.39,0,0.77-0.05,1.13-0.14c0-0.01-0.01-0.01-0.01-0.02
		c0-0.1,0.01-0.17,0-0.28C6.85,9.97,6.83,9.87,6.81,9.82c-0.03-0.05-0.15-0.13-0.2-0.16C6.57,9.63,6.53,9.62,6.49,9.6
		C6.47,9.59,6.45,9.58,6.43,9.57L6.41,9.54L6.18,9.3V9.29C6.15,9.24,6.1,9.19,6.07,9.14C6,9.04,5.95,8.9,5.87,8.8
		c-0.03-0.06-0.06-0.12-0.1-0.16c-0.02-0.02-0.09-0.05-0.1-0.08c0-0.02-0.01-0.04-0.02-0.06l0.11,0.05l0.16-0.06
		c0.57-0.23,1.05-0.62,1.4-1.13c0.1-0.14,0.19-0.3,0.26-0.45c0.01-0.01,0.03-0.02,0.05-0.01h0.01C7.62,6.94,7.65,6.96,7.67,7
		c0.01,0.02,0.01,0.04,0.02,0.05C7.72,7.08,7.76,7.08,7.8,7.1c0.04,0.03,0.06,0.07,0.11,0.12c0.04,0.05,0.11,0.1,0.18,0.11
		c0.05,0,0.1-0.02,0.14-0.01h0.01h0.01C8.38,7.35,8.45,7.4,8.52,7.46c0.05,0.03,0.09,0.06,0.1,0.1c0.01,0.02,0,0.06,0.02,0.09
		c0.02,0.07,0.12,0.1,0.08,0.22c0.02,0.04,0.05,0.05,0.09,0.07C8.85,7.97,8.87,8,8.9,8.01h0.06h0.02c0.06,0.01,0.1,0.03,0.15,0.05
		c0.03,0.01,0.07,0.02,0.1,0.03C9.26,8.11,9.27,8.17,9.3,8.18c0.02,0.01,0.06,0,0.09,0L9.4,8.19h0.01c0.02,0,0.06,0.01,0.09,0.02
		c0.03,0.01,0.05,0.02,0.08,0.02c0.03,0,0.05-0.02,0.08-0.01h0.01h0.01c0.01,0,0.03,0.01,0.04,0.01c0.45-0.72,0.72-1.56,0.72-2.48
		C10.44,5.44,10.41,5.12,10.35,4.82z M7.46,5.59c0,1.13-0.7,2.1-1.69,2.5c-1-0.4-1.7-1.37-1.7-2.5V4.37l0.62-0.14v0.23L5.37,4.3
		V4.07l0.4-0.09l0.39,0.09V4.3l0.68,0.16V4.23l0.62,0.14V5.59z"/>
</g>
</svg>
