<?xml version="1.0" encoding="utf-8"?>
<!-- Generator: Adobe Illustrator 27.3.1, SVG Export Plug-In . SVG Version: 6.00 Build 0)  -->
<svg version="1.1" id="Layer_1" xmlns="http://www.w3.org/2000/svg" xmlns:xlink="http://www.w3.org/1999/xlink" x="0px" y="0px"
	 viewBox="0 0 11.52 11.52" style="enable-background:new 0 0 11.52 11.52;" xml:space="preserve">
<style type="text/css">
	.st0{fill:#28A8E0;}
	.st1{fill-rule:evenodd;clip-rule:evenodd;fill:#FFFFFF;}
</style>
<g>
	<g>
		<g>
			<path class="st0" d="M11.52,5.76c0,3.18-2.58,5.76-5.76,5.76S0,8.94,0,5.76C0,2.58,2.58,0,5.76,0S11.52,2.58,11.52,5.76z"/>
		</g>
		<g>
			<path class="st1" d="M7.22,5.62c0,0.16-0.04,0.23-0.11,0.23c-0.08,0-0.12-0.07-0.12-0.23s0.04-0.23,0.12-0.23
				C7.18,5.38,7.22,5.46,7.22,5.62 M6.24,7.14C6.16,7.18,6.09,7.19,6.02,7.21C5.96,7.23,5.92,7.23,5.86,7.24
				c-0.05,0-0.09,0.01-0.15,0.01c-0.05,0-0.11-0.01-0.15-0.01C5.49,7.23,5.44,7.23,5.38,7.21C5.31,7.19,5.24,7.18,5.17,7.14
				C5.12,7.13,5.08,7.1,5.03,7.08C4.98,7.07,4.95,7.04,4.9,7.02C4.97,7,5.02,6.97,5.05,6.92c0.04-0.06,0.06-0.15,0.06-0.26
				c0-0.1-0.02-0.18-0.07-0.25C5,6.34,4.93,6.32,4.86,6.32c-0.08,0-0.14,0.02-0.19,0.09C4.63,6.48,4.61,6.56,4.61,6.66v0.12
				L4.59,6.76c0.01,0,0.01,0,0.01,0.01L4.58,6.75l0.01,0.01C4.58,6.75,4.57,6.72,4.55,6.71C4.5,6.65,4.45,6.59,4.41,6.52
				C4.39,6.5,4.38,6.46,4.35,6.44C4.34,6.41,4.31,6.33,4.31,6.33c-0.05-0.1-0.08-0.2-0.11-0.31C4.19,6.01,4.19,5.98,4.19,5.96v0.01
				c0.08,0,0.14-0.04,0.19-0.11C4.41,5.8,4.44,5.71,4.44,5.62c0-0.11-0.02-0.2-0.06-0.26c-0.05-0.06-0.11-0.1-0.19-0.1H4.18
				C4.19,5.22,4.2,5.17,4.21,5.12C4.24,5.05,4.27,4.98,4.31,4.9c0-0.01,0.02-0.06,0.02-0.06c0.02-0.05,0.06-0.1,0.08-0.14
				c0.07-0.11,0.14-0.2,0.22-0.28c0,0.04-0.01,0.09-0.01,0.15c0,0.1,0.02,0.18,0.06,0.25c0.05,0.06,0.11,0.1,0.19,0.1
				s0.15-0.04,0.19-0.1C5.1,4.76,5.12,4.67,5.12,4.57c0-0.11-0.02-0.2-0.06-0.26C5.03,4.25,4.97,4.23,4.9,4.21
				c0.24-0.15,0.51-0.23,0.8-0.23c0.37,0,0.7,0.14,0.96,0.34C6.64,4.35,6.59,4.35,6.54,4.35v0.11h0.17V4.9h0.13V4.51
				c0.06,0.06,0.11,0.12,0.15,0.2c0.04,0.04,0.06,0.09,0.08,0.14c0.05,0.09,0.08,0.18,0.12,0.28c0.01,0.05,0.02,0.1,0.04,0.15V5.3
				C7.19,5.27,7.16,5.26,7.11,5.26c-0.08,0-0.14,0.04-0.19,0.1C6.87,5.42,6.86,5.5,6.86,5.62s0.01,0.2,0.06,0.26
				c0.04,0.06,0.11,0.1,0.19,0.1c0.05,0,0.08-0.01,0.12-0.04v0.01C7.22,5.97,7.22,6,7.22,6.02C7.17,6.21,7.1,6.37,6.99,6.52
				C6.98,6.48,6.97,6.44,6.95,6.41c-0.04-0.07-0.11-0.1-0.18-0.1c-0.08,0-0.14,0.02-0.19,0.09C6.53,6.48,6.52,6.56,6.52,6.66
				c0,0.11,0.01,0.2,0.06,0.26c0,0.01,0.01,0.02,0.02,0.02C6.53,7,6.46,7.04,6.38,7.08C6.33,7.1,6.28,7.13,6.24,7.14 M4.74,6.66
				c0-0.16,0.04-0.23,0.12-0.23c0.07,0,0.11,0.07,0.11,0.23S4.93,6.91,4.86,6.91C4.78,6.91,4.74,6.82,4.74,6.66 M1.42,6.8
				C1.34,6.78,1.15,6.35,1.15,5.6s0.19-1.18,0.27-1.19C1.5,4.42,1.69,4.85,1.69,5.6S1.5,6.78,1.42,6.8 M4.87,4.33
				c0.07,0,0.12,0.09,0.12,0.25c0,0.15-0.05,0.23-0.12,0.23c-0.07,0-0.11-0.09-0.11-0.23C4.77,4.41,4.8,4.33,4.87,4.33 M4.14,5.62
				c0-0.09,0.01-0.16,0.02-0.23h0.02c0.07,0,0.11,0.07,0.11,0.23S4.26,5.85,4.19,5.85H4.16C4.15,5.78,4.14,5.69,4.14,5.62
				 M6.65,6.66c0-0.16,0.04-0.23,0.12-0.23c0.07,0,0.11,0.07,0.11,0.23v0.02c0,0.01-0.01,0.01-0.02,0.02
				C6.84,6.73,6.83,6.75,6.8,6.77C6.77,6.81,6.73,6.83,6.7,6.87C6.66,6.83,6.65,6.77,6.65,6.66 M9.98,4.12H6.79
				C6.48,3.88,6.11,3.74,5.7,3.74c-0.4,0-0.78,0.14-1.09,0.38h-3.2c-0.38,0-0.56,0.77-0.56,1.49c0,0.71,0.18,1.49,0.56,1.49h3.17
				C4.9,7.34,5.29,7.5,5.7,7.5c0.41,0,0.8-0.16,1.11-0.41h3.16c0.38,0,0.56-0.77,0.56-1.49C10.53,4.89,10.35,4.12,9.98,4.12"/>
			<path class="st1" d="M5.44,4.32C5.42,4.35,5.37,4.35,5.31,4.35v0.11h0.17V4.9h0.13V4.23H5.5C5.49,4.27,5.47,4.3,5.44,4.32"/>
			<path class="st1" d="M5.86,5.61c0-0.16,0.04-0.23,0.11-0.23c0.08,0,0.12,0.07,0.12,0.23S6.05,5.85,5.97,5.85
				C5.89,5.85,5.86,5.77,5.86,5.61 M6.15,5.86C6.2,5.8,6.21,5.71,6.21,5.61c0-0.11-0.02-0.2-0.06-0.26c-0.05-0.06-0.11-0.1-0.19-0.1
				c-0.08,0-0.14,0.04-0.18,0.1C5.74,5.42,5.72,5.5,5.72,5.61s0.02,0.2,0.06,0.26c0.05,0.06,0.11,0.1,0.19,0.1
				C6.05,5.97,6.12,5.93,6.15,5.86"/>
			<path class="st1" d="M5.22,5.61c0-0.16,0.04-0.23,0.11-0.23c0.08,0,0.12,0.07,0.12,0.23c0,0.16-0.04,0.23-0.12,0.23
				C5.25,5.85,5.22,5.77,5.22,5.61 M5.51,5.86C5.56,5.8,5.57,5.71,5.57,5.61c0-0.11-0.01-0.2-0.06-0.26
				c-0.05-0.06-0.11-0.1-0.19-0.1c-0.07,0-0.14,0.04-0.18,0.1C5.1,5.42,5.08,5.5,5.08,5.61s0.02,0.2,0.07,0.26
				c0.04,0.06,0.11,0.1,0.18,0.1C5.41,5.97,5.48,5.93,5.51,5.86"/>
			<path class="st1" d="M5.43,6.41C5.4,6.44,5.35,6.45,5.3,6.45v0.11h0.15V7H5.6V6.33H5.48C5.47,6.36,5.46,6.4,5.43,6.41"/>
			<path class="st1" d="M4.71,5.37C4.69,5.39,4.64,5.4,4.58,5.4v0.1h0.17v0.44h0.13V5.27H4.77C4.76,5.32,4.73,5.34,4.71,5.37"/>
			<path class="st1" d="M6.09,6.91c-0.07,0-0.12-0.09-0.12-0.24s0.05-0.23,0.12-0.23c0.07,0,0.11,0.07,0.11,0.23
				S6.17,6.91,6.09,6.91 M6.09,6.32c-0.08,0-0.14,0.02-0.19,0.09C5.87,6.48,5.85,6.56,5.85,6.66c0,0.11,0.02,0.2,0.06,0.26
				c0.05,0.06,0.11,0.1,0.19,0.1c0.08,0,0.14-0.04,0.19-0.1c0.04-0.06,0.06-0.15,0.06-0.26c0-0.1-0.02-0.18-0.06-0.24
				C6.24,6.34,6.18,6.32,6.09,6.32"/>
			<path class="st1" d="M6.11,4.8C6.04,4.8,6,4.72,6,4.57c0-0.16,0.04-0.24,0.11-0.24c0.08,0,0.12,0.09,0.12,0.24
				C6.23,4.72,6.19,4.8,6.11,4.8 M6.11,4.22c-0.07,0-0.14,0.02-0.18,0.1C5.88,4.37,5.86,4.46,5.86,4.57c0,0.1,0.02,0.18,0.07,0.24
				c0.04,0.06,0.11,0.1,0.18,0.1c0.08,0,0.15-0.04,0.19-0.1c0.05-0.06,0.06-0.15,0.06-0.24c0-0.11-0.01-0.2-0.06-0.26
				C6.25,4.25,6.19,4.22,6.11,4.22"/>
			<path class="st1" d="M6.52,5.95h0.13V5.27H6.54c-0.01,0.05-0.04,0.07-0.06,0.1C6.46,5.39,6.41,5.4,6.36,5.4v0.1h0.16V5.95z"/>
		</g>
	</g>
</g>
</svg>
