<?xml version="1.0" encoding="utf-8"?>
<!-- Generator: Adobe Illustrator 27.3.1, SVG Export Plug-In . SVG Version: 6.00 Build 0)  -->
<svg version="1.1" id="Layer_1" xmlns="http://www.w3.org/2000/svg" xmlns:xlink="http://www.w3.org/1999/xlink" x="0px" y="0px"
	 viewBox="0 0 11.52 11.52" style="enable-background:new 0 0 11.52 11.52;" xml:space="preserve">
<style type="text/css">
	.st0{fill:#28A8E0;}
	.st1{fill:#FFFFFF;}
</style>
<g>
	<g>
		<g>
			<path class="st0" d="M11.52,5.76c0,3.18-2.58,5.76-5.76,5.76S0,8.94,0,5.76C0,2.58,2.58,0,5.76,0S11.52,2.58,11.52,5.76z"/>
		</g>
		<path class="st1" d="M5.04,2.82c0.18,0,0.32,0.14,0.32,0.32l0,1.81c0,0.01,0,0.02,0,0.03c0.01,0.09-0.02,0.19-0.09,0.26L5.22,5.28
			C5.16,5.34,5.08,5.37,5,5.38C4.98,5.38,4.95,5.39,4.92,5.39l-1.81,0c-0.18,0-0.32-0.14-0.32-0.32l0-0.06
			c0-0.18,0.14-0.32,0.32-0.32l1.06,0L2.36,2.87c-0.12-0.12-0.12-0.33,0-0.45L2.4,2.38c0.12-0.12,0.33-0.12,0.45,0l1.8,1.8l0-1.04
			c0-0.18,0.14-0.32,0.32-0.32L5.04,2.82z M8.66,6.44c0-0.18-0.14-0.32-0.32-0.32l-1.81,0c-0.01,0-0.02,0-0.03,0
			C6.4,6.12,6.31,6.15,6.24,6.22L6.19,6.26C6.14,6.32,6.1,6.4,6.1,6.48C6.1,6.5,6.09,6.53,6.09,6.55l0,1.81
			c0,0.18,0.14,0.32,0.32,0.32l0.06,0c0.18,0,0.32-0.14,0.32-0.32l0-1.06L8.6,9.12c0.12,0.12,0.33,0.12,0.45,0L9.1,9.08
			c0.12-0.12,0.12-0.33,0-0.45l-1.8-1.8l1.04,0c0.18,0,0.32-0.14,0.32-0.32L8.66,6.44z M4.76,8.86c0-0.18-0.14-0.32-0.32-0.32
			l-1.04,0l1.8-1.8c0.12-0.12,0.12-0.33,0-0.45L5.16,6.25c-0.12-0.12-0.33-0.12-0.45,0L2.9,8.06L2.9,7c0-0.18-0.14-0.32-0.32-0.32
			l-0.06,0C2.34,6.68,2.2,6.82,2.2,7l0,1.81c0,0.03,0,0.05,0.01,0.08c0,0.08,0.03,0.15,0.09,0.21l0.05,0.05
			c0.07,0.07,0.16,0.1,0.26,0.09c0.01,0,0.02,0,0.03,0l1.81,0c0.18,0,0.32-0.14,0.32-0.32L4.76,8.86z M8.89,4.8
			c0.18,0,0.32-0.14,0.32-0.32l0-1.81c0-0.01,0-0.02,0-0.03c0.01-0.09-0.02-0.19-0.09-0.26L9.07,2.34C9.01,2.28,8.93,2.25,8.86,2.24
			C8.83,2.24,8.81,2.23,8.78,2.23l-1.81,0c-0.18,0-0.32,0.14-0.32,0.32l0,0.06c0,0.18,0.14,0.32,0.32,0.32l1.06,0L6.21,4.75
			c-0.12,0.12-0.12,0.33,0,0.45l0.05,0.05c0.12,0.12,0.33,0.12,0.45,0l1.8-1.8l0,1.04c0,0.18,0.14,0.32,0.32,0.32L8.89,4.8z"/>
	</g>
</g>
</svg>
