<?xml version="1.0" encoding="utf-8"?>
<!-- Generator: Adobe Illustrator 27.3.1, SVG Export Plug-In . SVG Version: 6.00 Build 0)  -->
<svg version="1.1" id="Layer_1" xmlns="http://www.w3.org/2000/svg" xmlns:xlink="http://www.w3.org/1999/xlink" x="0px" y="0px"
	 viewBox="0 0 11.52 11.52" style="enable-background:new 0 0 11.52 11.52;" xml:space="preserve">
<style type="text/css">
	.st0{fill:#28A8E0;}
	.st1{fill-rule:evenodd;clip-rule:evenodd;fill:#FFFFFF;}
</style>
<g>
	<g>
		<g>
			<path class="st0" d="M11.52,5.76c0,3.18-2.58,5.76-5.76,5.76S0,8.94,0,5.76C0,2.58,2.58,0,5.76,0S11.52,2.58,11.52,5.76z"/>
		</g>
	</g>
</g>
<g>
	<g>
		<g>
			<path class="st1" d="M2.89,4.36L2.87,4.37C2.72,4.54,2.72,4.83,2.89,4.99c0.2,0.16,0.45,0.15,0.62-0.03l0.02-0.01l0.03-0.04
				c1.18-1.23,3.16-1.25,4.41-0.04l0.06,0.06l0.02,0.01C8.21,5.1,8.48,5.11,8.65,4.97c0.17-0.18,0.18-0.45,0-0.63L8.64,4.32
				L8.56,4.25C6.96,2.71,4.46,2.73,2.94,4.3L2.89,4.36z"/>
		</g>
		<g>
			<path class="st1" d="M9.96,4.03C9.78,4.15,9.53,4.12,9.38,3.95c-0.65-0.72-1.87-1.5-3.39-1.57C4.27,2.33,2.84,3.17,2.18,4.03
				c-0.15,0.2-0.44,0.24-0.64,0.09c-0.2-0.15-0.24-0.44-0.09-0.64C2.44,2.2,4.23,1.41,6.03,1.48c1.53,0.06,3.04,0.76,4.03,1.86
				c0.17,0.19,0.15,0.48-0.04,0.64C10,4,9.98,4.02,9.96,4.03"/>
		</g>
	</g>
	<path class="st1" d="M6.81,6.67L5.49,6.01l0,0C5.48,6.01,5.47,6.01,5.46,6.01c-0.03,0-0.06,0.03-0.06,0.06v1.69
		C5.44,7.78,5.48,7.8,5.52,7.81V7.15L6.81,6.67z"/>
	<g>
		<path class="st1" d="M7.03,5.62C6.69,5.27,6.26,5.1,5.83,5.1c-0.44,0-0.89,0.17-1.24,0.52C4.01,6.23,3.95,7.15,4.35,7.84L3.06,9.2
			c-0.11,0.1-0.11,0.29,0,0.4L3.2,9.75c0.11,0.12,0.3,0.12,0.39,0L4.9,8.4C5.19,8.58,5.5,8.67,5.83,8.67c0.43,0,0.86-0.17,1.2-0.51
			C7.71,7.45,7.71,6.32,7.03,5.62 M6.64,7.74C6.42,7.97,6.12,8.09,5.83,8.09c-0.32,0-0.61-0.13-0.84-0.35
			c-0.45-0.48-0.45-1.24,0-1.71c0.23-0.23,0.52-0.36,0.84-0.36c0.3,0,0.59,0.13,0.81,0.36c0.23,0.22,0.35,0.53,0.35,0.86
			C6.98,7.2,6.86,7.51,6.64,7.74"/>
	</g>
</g>
</svg>
