<?xml version="1.0" encoding="utf-8"?>
<!-- Generator: Adobe Illustrator 27.3.1, SVG Export Plug-In . SVG Version: 6.00 Build 0)  -->
<svg version="1.1" id="Layer_1" xmlns="http://www.w3.org/2000/svg" xmlns:xlink="http://www.w3.org/1999/xlink" x="0px" y="0px"
	 viewBox="0 0 11.52 11.52" style="enable-background:new 0 0 11.52 11.52;" xml:space="preserve">
<style type="text/css">
	.st0{fill:#28A8E0;}
	.st1{fill-rule:evenodd;clip-rule:evenodd;fill:#FFFFFF;}
	.st2{fill:#FFFFFF;}
</style>
<g>
	<path class="st0" d="M11.52,5.76c0,3.18-2.58,5.76-5.76,5.76S0,8.94,0,5.76C0,2.58,2.58,0,5.76,0S11.52,2.58,11.52,5.76z"/>
</g>
<g>
	<path class="st1" d="M6.65,5.11L5.09,4.33C5.08,4.3,5.05,4.27,5.01,4.27c-0.04,0-0.08,0.04-0.08,0.08V6.5
		c0.05,0.03,0.1,0.05,0.16,0.06V5.68L6.65,5.11z M5.34,4.75c0-0.04,0.03-0.07,0.07-0.07c0.04,0,0.07,0.03,0.07,0.07v0.27
		c0,0.04-0.03,0.07-0.07,0.07c-0.04,0-0.07-0.03-0.07-0.07V4.75z M5.41,5.21c0.05,0,0.09,0.04,0.09,0.09c0,0.05-0.04,0.09-0.09,0.09
		c-0.05,0-0.09-0.04-0.09-0.09C5.32,5.25,5.36,5.21,5.41,5.21z"/>
	<g>
		<path class="st1" d="M6.98,3.82C6.54,3.39,5.99,3.18,5.44,3.18c-0.56,0-1.14,0.21-1.59,0.64C3.12,4.57,3.04,5.7,3.55,6.56
			L1.9,8.24c-0.14,0.12-0.14,0.36,0,0.5l0.18,0.18c0.14,0.14,0.38,0.14,0.5,0l1.68-1.67c0.37,0.22,0.76,0.33,1.18,0.33
			c0.55,0,1.1-0.21,1.54-0.63C7.85,6.08,7.85,4.68,6.98,3.82 M6.48,6.44C6.2,6.71,5.82,6.87,5.44,6.87c-0.41,0-0.79-0.16-1.08-0.43
			c-0.58-0.59-0.58-1.54,0-2.12c0.29-0.29,0.67-0.45,1.08-0.45c0.38,0,0.76,0.16,1.04,0.45C6.77,4.6,6.92,4.98,6.92,5.39
			C6.92,5.77,6.77,6.15,6.48,6.44"/>
	</g>
	<path class="st2" d="M9.2,3.49C8.77,3.06,8.19,2.82,7.57,2.82c-0.38,0-0.76,0.09-1.09,0.27c0.11,0.05,0.21,0.11,0.31,0.17
		c0.2-0.08,0.4-0.13,0.6-0.15C7.28,3.19,7.16,3.3,7.02,3.43c0.04,0.03,0.07,0.06,0.11,0.09c0.2-0.22,0.39-0.35,0.49-0.42
		c0.26,0,0.5,0.05,0.72,0.14c0.01,0.21,0,0.43-0.02,0.68C7.9,3.75,7.53,3.69,7.28,3.67c0.05,0.05,0.09,0.1,0.13,0.15
		c0.3,0.04,0.6,0.12,0.89,0.24C8.24,4.43,8.12,4.82,7.95,5.22c0,0.05,0.01,0.1,0.01,0.15c0,0.06,0,0.11,0,0.17
		c0.24-0.47,0.4-0.94,0.48-1.4c0.14,0.08,0.3,0.17,0.44,0.29C8.8,4.63,8.71,4.82,8.6,4.99c-0.19,0.3-0.41,0.56-0.67,0.76
		C7.91,5.82,7.9,5.89,7.88,5.96c0.34-0.24,0.63-0.55,0.84-0.9C8.84,4.87,8.93,4.67,9,4.51c0.19,0.17,0.35,0.34,0.48,0.52
		C9.15,5.22,8.57,5.6,8.09,6.19c-0.09,0-0.18-0.01-0.26-0.02c-0.02,0.05-0.03,0.1-0.05,0.14C7.84,6.32,7.9,6.32,7.98,6.33
		C7.79,6.58,7.63,6.84,7.52,7.11c-0.08,0-0.16-0.01-0.24-0.02C7.26,7.12,7.23,7.15,7.2,7.18l0,0c-0.05,0.05-0.11,0.1-0.17,0.15
		C7.2,7.37,7.38,7.39,7.57,7.39c1.28,0,2.31-1.03,2.31-2.29C9.88,4.49,9.64,3.92,9.2,3.49z M8.93,4.27
		C8.75,4.15,8.59,4.06,8.46,3.99c0.02-0.24,0.03-0.46,0.03-0.68C8.71,3.43,8.9,3.57,9.05,3.74C9.04,3.82,9.01,4.03,8.93,4.27z
		 M9.04,4.37c0.07-0.2,0.11-0.36,0.13-0.49c0.23,0.3,0.38,0.67,0.41,1.05C9.43,4.72,9.25,4.54,9.04,4.37z M8.63,6.82
		C8.34,6.99,8.01,7.09,7.68,7.1C7.8,6.84,7.96,6.58,8.16,6.33h0.08c0.37,0,0.72-0.05,1.04-0.15C9.11,6.44,8.89,6.66,8.63,6.82z
		 M8.28,6.19c0.53-0.6,1.12-0.95,1.29-1.04c0.01,0.01,0.01,0.01,0.02,0.02C9.58,5.45,9.51,5.74,9.38,5.99
		C9.05,6.11,8.69,6.18,8.28,6.19z"/>
</g>
</svg>
