<?xml version="1.0" encoding="utf-8"?>
<!-- Generator: Adobe Illustrator 27.3.1, SVG Export Plug-In . SVG Version: 6.00 Build 0)  -->
<svg version="1.1" id="Layer_1" xmlns="http://www.w3.org/2000/svg" xmlns:xlink="http://www.w3.org/1999/xlink" x="0px" y="0px"
	 viewBox="0 0 11.52 11.52" style="enable-background:new 0 0 11.52 11.52;" xml:space="preserve">
<style type="text/css">
	.st0{fill:#28A8E0;}
	.st1{fill:#FFFFFF;}
</style>
<g>
	<g>
		<g>
			<path class="st0" d="M11.52,5.76c0,3.18-2.58,5.76-5.76,5.76S0,8.94,0,5.76C0,2.58,2.58,0,5.76,0S11.52,2.58,11.52,5.76z"/>
		</g>
		<g>
			<path class="st1" d="M5.78,1.78c-2.15,0-3.89,1.74-3.89,3.89s1.74,3.89,3.89,3.89c2.15,0,3.89-1.74,3.89-3.89
				S7.93,1.78,5.78,1.78z M6.1,2.55h0.52v2.28h1.35V4.46l1.07,0.62L7.97,5.7V5.34H6.1V2.55z M2.62,4.82H4.9V3.47H4.54L5.16,2.4
				l0.62,1.07H5.42v1.87h-2.8V4.82z M5.42,8.83H4.9V6.55H3.54v0.36L2.47,6.29l1.07-0.62v0.36h1.87V8.83z M8.89,6.55H6.62v1.35h0.36
				L6.36,8.98L5.74,7.91H6.1V6.03h2.8V6.55z"/>
			<g>
				<path class="st1" d="M5.7,10.61c-0.11,0-0.23-0.01-0.34-0.02l0.03-0.33c0.11,0.01,0.21,0.01,0.32,0.02L5.7,10.61z M6.04,10.6
					l-0.02-0.33c0.11-0.01,0.21-0.02,0.32-0.03l0.04,0.33C6.27,10.58,6.16,10.59,6.04,10.6z M5.02,10.55
					c-0.11-0.02-0.23-0.04-0.34-0.06l0.07-0.32c0.1,0.02,0.21,0.04,0.31,0.06L5.02,10.55z M6.72,10.52l-0.06-0.32
					c0.1-0.02,0.21-0.04,0.31-0.07l0.09,0.32C6.94,10.47,6.83,10.49,6.72,10.52z M4.35,10.39c-0.11-0.03-0.22-0.07-0.32-0.11
					l0.12-0.31c0.1,0.04,0.2,0.07,0.3,0.1L4.35,10.39z M7.38,10.34l-0.11-0.31c0.1-0.03,0.2-0.07,0.3-0.12l0.13,0.3
					C7.6,10.26,7.49,10.3,7.38,10.34z M3.71,10.15c-0.1-0.05-0.21-0.1-0.31-0.16L3.57,9.7c0.09,0.05,0.19,0.1,0.28,0.15L3.71,10.15z
					 M8.01,10.07L7.86,9.77c0.09-0.05,0.19-0.1,0.28-0.16L8.31,9.9C8.21,9.96,8.11,10.02,8.01,10.07z M3.11,9.82
					c-0.1-0.06-0.19-0.13-0.28-0.2l0.2-0.26C3.12,9.42,3.21,9.48,3.3,9.54L3.11,9.82z M8.59,9.71L8.4,9.44
					c0.09-0.06,0.17-0.13,0.25-0.19l0.21,0.26C8.78,9.58,8.69,9.65,8.59,9.71z M2.57,9.4C2.48,9.33,2.4,9.25,2.32,9.17l0.23-0.23
					c0.07,0.07,0.15,0.15,0.23,0.22L2.57,9.4z M9.12,9.28L8.9,9.04c0.08-0.07,0.15-0.15,0.23-0.23l0.24,0.23
					C9.29,9.12,9.21,9.2,9.12,9.28z M2.09,8.92C2.01,8.83,1.94,8.75,1.87,8.65l0.26-0.2C2.2,8.54,2.27,8.62,2.33,8.7L2.09,8.92z
					 M9.59,8.78L9.33,8.57C9.4,8.49,9.46,8.4,9.52,8.32L9.8,8.51C9.73,8.6,9.66,8.69,9.59,8.78z M1.67,8.37
					C1.61,8.28,1.55,8.18,1.5,8.08l0.29-0.16c0.05,0.09,0.11,0.18,0.16,0.27L1.67,8.37z M9.98,8.22L9.7,8.05
					C9.75,7.96,9.8,7.87,9.85,7.77l0.29,0.15C10.1,8.02,10.04,8.12,9.98,8.22z M1.34,7.78c-0.05-0.1-0.09-0.21-0.13-0.31l0.31-0.12
					c0.04,0.1,0.08,0.2,0.13,0.29L1.34,7.78z M10.29,7.61l-0.3-0.13c0.04-0.1,0.08-0.2,0.11-0.3l0.31,0.11
					C10.38,7.4,10.34,7.51,10.29,7.61z M1.09,7.14C1.06,7.03,1.03,6.92,1,6.81l0.32-0.08c0.02,0.1,0.05,0.21,0.08,0.31L1.09,7.14z
					 M10.52,6.96L10.2,6.88c0.03-0.1,0.05-0.21,0.07-0.31l0.32,0.06C10.57,6.74,10.55,6.85,10.52,6.96z M0.94,6.48
					C0.92,6.36,0.9,6.25,0.89,6.14l0.33-0.03c0.01,0.11,0.02,0.21,0.04,0.32L0.94,6.48z M10.65,6.29l-0.33-0.04
					c0.01-0.1,0.02-0.21,0.03-0.32l0.33,0.02C10.67,6.07,10.66,6.18,10.65,6.29z M0.87,5.79c0-0.04,0-0.08,0-0.12
					c0-0.11,0-0.23,0.01-0.34l0.33,0.02C1.21,5.46,1.2,5.57,1.2,5.67c0,0.04,0,0.08,0,0.11L0.87,5.79z M10.35,5.61
					c0-0.11-0.01-0.21-0.01-0.32l0.33-0.03c0.01,0.11,0.01,0.23,0.02,0.34L10.35,5.61z M1.25,5.04L0.92,4.99
					c0.02-0.11,0.04-0.23,0.06-0.34L1.3,4.72C1.28,4.82,1.26,4.93,1.25,5.04z M10.3,4.98c-0.02-0.1-0.04-0.21-0.06-0.31l0.32-0.07
					c0.02,0.11,0.05,0.22,0.06,0.34L10.3,4.98z M1.38,4.41L1.06,4.32C1.09,4.21,1.12,4.1,1.16,4l0.31,0.11
					C1.44,4.21,1.41,4.31,1.38,4.41z M10.17,4.36c-0.03-0.1-0.06-0.2-0.1-0.3l0.31-0.12c0.04,0.11,0.08,0.22,0.11,0.32L10.17,4.36z
					 M1.59,3.81l-0.3-0.13c0.05-0.1,0.1-0.21,0.15-0.31l0.29,0.15C1.68,3.62,1.64,3.71,1.59,3.81z M9.94,3.76
					C9.9,3.66,9.85,3.57,9.8,3.47l0.29-0.16c0.05,0.1,0.11,0.2,0.15,0.31L9.94,3.76z M1.89,3.25L1.61,3.07
					c0.06-0.1,0.12-0.19,0.19-0.28l0.27,0.19C2.01,3.07,1.95,3.16,1.89,3.25z M9.64,3.2C9.58,3.11,9.52,3.02,9.46,2.94l0.27-0.2
					c0.07,0.09,0.13,0.19,0.19,0.28L9.64,3.2z M2.26,2.73L2.01,2.52c0.07-0.09,0.15-0.17,0.23-0.26l0.24,0.23
					C2.4,2.57,2.33,2.65,2.26,2.73z M9.26,2.68C9.19,2.6,9.12,2.52,9.05,2.45l0.24-0.23C9.36,2.3,9.44,2.38,9.51,2.47L9.26,2.68z
					 M2.7,2.26L2.48,2.02C2.56,1.94,2.65,1.87,2.74,1.8l0.21,0.26C2.86,2.12,2.78,2.19,2.7,2.26z M8.82,2.23
					c-0.08-0.07-0.16-0.14-0.25-0.2l0.2-0.26c0.09,0.07,0.18,0.14,0.26,0.22L8.82,2.23z M3.2,1.87L3.01,1.6
					C3.11,1.53,3.21,1.47,3.3,1.41L3.47,1.7C3.38,1.75,3.29,1.81,3.2,1.87z M8.31,1.84C8.22,1.78,8.13,1.72,8.04,1.67L8.2,1.38
					C8.3,1.44,8.4,1.5,8.49,1.56L8.31,1.84z M3.75,1.54L3.6,1.25c0.1-0.05,0.21-0.1,0.31-0.14l0.13,0.31
					C3.94,1.45,3.85,1.5,3.75,1.54z M7.76,1.52c-0.1-0.05-0.19-0.09-0.29-0.13l0.12-0.31C7.69,1.13,7.8,1.17,7.9,1.22L7.76,1.52z
					 M4.34,1.3l-0.1-0.31c0.11-0.04,0.22-0.07,0.33-0.1l0.08,0.32C4.54,1.24,4.44,1.27,4.34,1.3z M7.16,1.28
					c-0.1-0.03-0.2-0.06-0.31-0.09l0.08-0.32C7.05,0.9,7.16,0.93,7.26,0.97L7.16,1.28z M4.96,1.14L4.9,0.82
					C5.01,0.8,5.12,0.78,5.24,0.77L5.27,1.1C5.17,1.11,5.06,1.12,4.96,1.14z M6.54,1.13C6.44,1.12,6.33,1.1,6.23,1.09l0.03-0.33
					C6.37,0.77,6.49,0.79,6.6,0.81L6.54,1.13z M5.59,1.07L5.58,0.74c0.11,0,0.23-0.01,0.34,0L5.91,1.07C5.8,1.07,5.7,1.07,5.59,1.07
					z"/>
			</g>
		</g>
	</g>
</g>
</svg>
