<?xml version="1.0" encoding="utf-8"?>
<!-- Generator: Adobe Illustrator 27.3.1, SVG Export Plug-In . SVG Version: 6.00 Build 0)  -->
<svg version="1.1" id="Layer_1" xmlns="http://www.w3.org/2000/svg" xmlns:xlink="http://www.w3.org/1999/xlink" x="0px" y="0px"
	 viewBox="0 0 11.52 11.52" style="enable-background:new 0 0 11.52 11.52;" xml:space="preserve">
<style type="text/css">
	.st0{fill:#28A8E0;}
	.st1{fill-rule:evenodd;clip-rule:evenodd;fill:#FFFFFF;}
</style>
<g>
	<g>
		<g>
			<path class="st0" d="M11.52,5.76c0,3.18-2.58,5.76-5.76,5.76S0,8.94,0,5.76C0,2.58,2.58,0,5.76,0S11.52,2.58,11.52,5.76z"/>
		</g>
		<g>
			<path class="st1" d="M7.22,7.4L6.99,6.94C7.16,6.78,7.33,6.62,7.47,6.4l0.48,0.16c0.12,0.06,0.26,0,0.3-0.14l0.15-0.44
				c0.06-0.12,0-0.25-0.14-0.3L7.76,5.5c0.04-0.2,0.03-0.46-0.03-0.7l0.48-0.24c0.11-0.05,0.16-0.19,0.11-0.3l-0.2-0.44
				C8.08,3.71,7.94,3.66,7.8,3.73L7.34,3.94C7.21,3.75,7.01,3.6,6.81,3.46l0.18-0.5c0.02-0.13-0.02-0.24-0.14-0.3L6.41,2.5
				C6.27,2.46,6.13,2.52,6.09,2.66L5.93,3.15C5.68,3.1,5.44,3.13,5.21,3.2L4.98,2.69C4.92,2.6,4.8,2.54,4.66,2.61L4.25,2.79
				C4.12,2.85,4.07,2.99,4.12,3.1l0.24,0.49C4.17,3.73,4.02,3.91,3.88,4.13l-0.5-0.18C3.28,3.9,3.14,3.96,3.08,4.08L2.92,4.53
				c-0.04,0.14,0.02,0.28,0.15,0.3l0.49,0.18C3.54,5.24,3.55,5.5,3.6,5.71L3.11,5.95C3.01,6,2.96,6.14,3.03,6.27l0.18,0.42
				c0.06,0.13,0.2,0.17,0.34,0.12l0.45-0.23c0.14,0.19,0.32,0.34,0.52,0.46L4.38,7.55c-0.06,0.12,0,0.26,0.12,0.31l0.46,0.14
				c0.12,0.06,0.24-0.02,0.3-0.14l0.16-0.49C5.65,7.4,5.91,7.4,6.14,7.33l0.2,0.49c0.09,0.12,0.2,0.17,0.33,0.12l0.44-0.2
				C7.22,7.65,7.27,7.53,7.22,7.4 M4.37,5.88C4.03,5.15,4.33,4.31,5.06,3.95c0.72-0.37,1.57-0.04,1.92,0.69
				C7.3,5.36,7.02,6.23,6.29,6.57C5.58,6.91,4.72,6.62,4.37,5.88"/>
			<path class="st1" d="M4.36,5.39l0.16-0.02c0.01,0.05,0.02,0.09,0.05,0.12C4.6,5.51,4.63,5.52,4.69,5.52S4.77,5.51,4.8,5.49
				c0.02-0.02,0.04-0.04,0.04-0.07c0-0.02-0.01-0.03-0.02-0.04C4.81,5.35,4.79,5.34,4.77,5.33c-0.02,0-0.06-0.01-0.12-0.03
				C4.56,5.28,4.5,5.26,4.47,5.23C4.42,5.18,4.4,5.13,4.4,5.07c0-0.04,0.01-0.08,0.03-0.12c0.02-0.03,0.05-0.06,0.09-0.07
				c0.04-0.02,0.09-0.03,0.16-0.03c0.09,0,0.17,0.02,0.22,0.06c0.05,0.04,0.07,0.11,0.08,0.18H4.81c0-0.04-0.02-0.06-0.04-0.08
				C4.75,4.98,4.72,4.97,4.68,4.97c-0.05,0-0.08,0.01-0.1,0.03C4.55,5.02,4.54,5.04,4.54,5.06c0,0.02,0.01,0.03,0.02,0.04
				c0.02,0.02,0.07,0.04,0.15,0.05c0.08,0.02,0.14,0.04,0.17,0.06c0.04,0.01,0.07,0.04,0.09,0.07C4.99,5.32,5,5.36,5,5.42
				C5,5.46,4.98,5.5,4.96,5.54c-0.02,0.04-0.06,0.07-0.1,0.08c-0.04,0.02-0.1,0.03-0.17,0.03c-0.1,0-0.18-0.02-0.23-0.06
				C4.41,5.54,4.37,5.48,4.36,5.39"/>
			<polygon class="st1" points="5.46,5.68 5.46,4.87 6.05,4.87 6.05,5.01 5.62,5.01 5.62,5.18 6.02,5.18 6.02,5.32 5.62,5.32 
				5.62,5.54 6.07,5.54 6.07,5.68 			"/>
			<rect x="5.13" y="4.85" class="st1" width="0.17" height="0.81"/>
			<polygon class="st1" points="6.18,5.66 6.18,4.85 6.42,4.85 6.56,5.4 6.71,4.85 6.94,4.85 6.94,5.66 6.79,5.66 6.79,5.02 
				6.65,5.66 6.49,5.66 6.33,5.02 6.33,5.66 			"/>
			<path class="st1" d="M9.55,5.34c0.19-0.1,0.26-0.32,0.16-0.52C9.62,4.64,9.38,4.57,9.2,4.66S8.94,5,9.04,5.18
				C9.13,5.38,9.37,5.44,9.55,5.34 M10.37,4.8l-0.02,0.49c0,0.02-0.02,0.04-0.04,0.04L9.95,5.31C9.93,5.34,9.92,5.36,9.9,5.39
				l0.17,0.32c0.01,0.02,0,0.04-0.02,0.05L9.62,5.99C9.6,6,9.58,5.99,9.56,5.97L9.39,5.66H9.31l-0.19,0.3
				C9.1,5.98,9.07,5.98,9.05,5.97l-0.4-0.26C8.63,5.7,8.62,5.67,8.63,5.65l0.19-0.3C8.81,5.33,8.81,5.32,8.8,5.31
				C8.79,5.29,8.79,5.28,8.78,5.27L8.43,5.25c-0.02,0-0.04-0.02-0.04-0.04L8.4,4.72c0-0.02,0.02-0.04,0.04-0.04L8.8,4.7
				c0.02-0.03,0.03-0.05,0.05-0.08L8.68,4.3c-0.01-0.02,0-0.04,0.02-0.05l0.43-0.23C9.16,4,9.18,4.02,9.2,4.04l0.16,0.31
				c0.03,0,0.05,0,0.09,0.01l0.19-0.31C9.65,4.04,9.68,4.03,9.7,4.04l0.41,0.26c0.01,0.01,0.02,0.04,0.01,0.06l-0.19,0.3
				c0.01,0.01,0.01,0.02,0.02,0.04c0.01,0.01,0.01,0.02,0.02,0.03l0.35,0.02C10.35,4.76,10.37,4.78,10.37,4.8"/>
			<path class="st1" d="M3.17,8.47C3.4,8.39,3.5,8.14,3.42,7.93C3.33,7.71,3.09,7.59,2.87,7.69C2.65,7.77,2.55,8.01,2.63,8.23
				C2.72,8.45,2.96,8.55,3.17,8.47 M4.13,7.98L4.05,8.5c0,0.03-0.03,0.04-0.05,0.04L3.61,8.49C3.6,8.52,3.57,8.54,3.54,8.57
				l0.14,0.36c0.02,0.03,0.01,0.05-0.02,0.06l-0.49,0.2c-0.03,0.01-0.06,0-0.07-0.03L2.96,8.79c-0.03,0-0.06-0.01-0.1-0.01
				L2.62,9.09C2.6,9.1,2.57,9.11,2.55,9.1L2.14,8.76C2.12,8.74,2.11,8.71,2.13,8.69l0.25-0.31L2.36,8.33L2.35,8.29L1.95,8.23
				c-0.02,0-0.04-0.03-0.04-0.05l0.08-0.52c0-0.02,0.03-0.04,0.05-0.04l0.39,0.06C2.45,7.65,2.48,7.62,2.5,7.59L2.36,7.22
				c-0.02-0.02,0-0.04,0.02-0.06l0.49-0.18c0.03-0.01,0.06,0,0.06,0.02l0.14,0.37c0.03,0,0.06,0,0.1,0.01l0.25-0.31
				C3.44,7.05,3.48,7.05,3.5,7.07l0.41,0.33c0.02,0.02,0.03,0.05,0.01,0.07L3.67,7.78l0.01,0.04L3.7,7.87l0.39,0.05
				C4.12,7.93,4.14,7.95,4.13,7.98"/>
		</g>
	</g>
</g>
</svg>
