<?xml version="1.0" encoding="utf-8"?>
<!-- Generator: Adobe Illustrator 27.3.1, SVG Export Plug-In . SVG Version: 6.00 Build 0)  -->
<svg version="1.1" id="Layer_1" xmlns="http://www.w3.org/2000/svg" xmlns:xlink="http://www.w3.org/1999/xlink" x="0px" y="0px"
	 viewBox="0 0 11.52 11.52" style="enable-background:new 0 0 11.52 11.52;" xml:space="preserve">
<style type="text/css">
	.st0{fill:#28A8E0;}
	.st1{fill:#FFFFFF;}
</style>
<g>
	<g>
		<path class="st0" d="M11.52,5.76c0,3.18-2.58,5.76-5.76,5.76S0,8.94,0,5.76C0,2.58,2.58,0,5.76,0S11.52,2.58,11.52,5.76z"/>
	</g>
</g>
<g>
	<path class="st1" d="M4.92,4.54L4.88,4.49C4.72,4.58,4.57,4.7,4.41,4.86C4.24,5.02,4.11,5.18,4,5.35L3.98,5.29
		c-0.05-0.11-0.1-0.18-0.16-0.18c-0.05,0-0.12,0.02-0.18,0.1c0.04,0.01,0.08,0.04,0.1,0.08c0.03,0.02,0.05,0.06,0.07,0.1h0
		C3.82,5.4,3.82,5.43,3.84,5.45l0.03,0.07c0.03,0.07,0.04,0.12,0.05,0.15c0,0,0,0,0,0c0,0,0,0,0,0c0.03-0.02,0.05-0.05,0.12-0.09
		l0.07-0.04c0,0,0,0,0,0l0.01-0.01c0.02-0.05,0.05-0.09,0.08-0.14H4.19c0.08-0.13,0.17-0.27,0.29-0.4C4.63,4.78,4.79,4.63,4.92,4.54
		z"/>
	<path class="st1" d="M4.19,4.16h3.13C7.31,4.11,7.31,4.07,7.3,4.03C7.25,3.76,7.11,3.57,6.82,3.51C6.78,3.5,6.75,3.48,6.71,3.47
		C6.57,3.41,6.5,3.32,6.5,3.17c0-0.11,0-0.23,0-0.34C6.49,2.45,6.18,2.14,5.82,2.11c-0.4-0.02-0.74,0.23-0.8,0.61
		C5,2.88,5.01,3.03,5.01,3.18C5,3.31,4.95,3.4,4.84,3.45C4.79,3.47,4.75,3.49,4.7,3.5C4.37,3.58,4.22,3.8,4.19,4.16z M5.74,2.62
		c0.13,0,0.24,0.1,0.24,0.23c0,0.13-0.11,0.23-0.24,0.23c-0.13,0-0.24-0.11-0.24-0.23C5.5,2.72,5.61,2.62,5.74,2.62z"/>
	<path class="st1" d="M8.6,3.06c0-0.27-0.2-0.47-0.47-0.47H7.06H6.97v0.2c0,0.21,0.12,0.33,0.34,0.34h0.52
		C8,3.13,8.08,3.2,8.08,3.38c0,0.49,0.01,0.97,0.01,1.46v3.74c0,0.16-0.08,0.24-0.24,0.24c-1.39,0-2.77,0-4.15,0
		c-0.17,0-0.25-0.08-0.25-0.25V3.37c0-0.16,0.08-0.24,0.24-0.24c0.19,0,0.37,0,0.56,0c0.16,0,0.29-0.1,0.31-0.26
		c0.01-0.09,0-0.18,0-0.28H4.46H3.38c-0.27,0-0.47,0.2-0.47,0.46c0,1.95,0,3.89,0,5.84c0,0.26,0.2,0.45,0.46,0.45h4.78
		c0.26,0,0.45-0.19,0.45-0.46C8.6,6.95,8.6,5,8.6,3.06z"/>
	<path class="st1" d="M7.17,5.56V5.39V5.29H4.39v0.35h0.2c-0.06,0.05-0.12,0.1-0.18,0.16C4.24,5.97,4.11,6.13,4,6.3L3.98,6.23
		c-0.05-0.11-0.1-0.18-0.16-0.18c-0.05,0-0.12,0.03-0.18,0.1c0.04,0.01,0.08,0.04,0.1,0.08c0.04,0.04,0.07,0.1,0.11,0.18l0.03,0.06
		C3.9,6.54,3.91,6.59,3.92,6.61c0.03-0.02,0.05-0.05,0.12-0.09l0.07-0.04c0.08-0.18,0.21-0.37,0.37-0.55
		c0.09-0.11,0.17-0.21,0.26-0.29h2.44V5.56z"/>
	<path class="st1" d="M7.17,6.56V6.39V6.3H4.39v0.35h0.14C4.49,6.69,4.45,6.73,4.41,6.77C4.24,6.94,4.11,7.11,4,7.29L3.98,7.22
		C3.92,7.1,3.87,7.04,3.82,7.04c-0.05,0-0.12,0.03-0.18,0.11c0.04,0.01,0.08,0.04,0.1,0.08c0.04,0.04,0.07,0.11,0.11,0.19l0.03,0.07
		C3.9,7.54,3.91,7.59,3.92,7.62c0.03-0.03,0.05-0.05,0.12-0.09l0.07-0.04C4.19,7.3,4.32,7.1,4.47,6.9c0.07-0.09,0.13-0.17,0.2-0.24
		h0.01c0.01-0.01,0.01-0.01,0.02-0.02h2.47V6.56z"/>
	<polygon class="st1" points="4.39,7.66 7.17,7.66 7.17,7.56 7.17,7.39 7.17,7.31 4.39,7.31 	"/>
</g>
</svg>
