<?xml version="1.0" encoding="utf-8"?>
<!-- Generator: Adobe Illustrator 27.3.1, SVG Export Plug-In . SVG Version: 6.00 Build 0)  -->
<svg version="1.1" id="Layer_1" xmlns="http://www.w3.org/2000/svg" xmlns:xlink="http://www.w3.org/1999/xlink" x="0px" y="0px"
	 viewBox="0 0 11.52 11.52" style="enable-background:new 0 0 11.52 11.52;" xml:space="preserve">
<style type="text/css">
	.st0{fill:#28A8E0;}
	.st1{fill:#FFFFFF;}
</style>
<g>
	<g>
		<g>
			<path class="st0" d="M11.52,5.76c0,3.18-2.58,5.76-5.76,5.76S0,8.94,0,5.76C0,2.58,2.58,0,5.76,0S11.52,2.58,11.52,5.76z"/>
		</g>
		<g>
			<path class="st1" d="M5.76,2.2c-2.11,0-4.24,0.49-4.24,1.41v4.53c0,0.93,2.14,1.41,4.24,1.41S10,9.07,10,8.15V3.62
				C10,2.69,7.87,2.2,5.76,2.2z M5.76,2.76c2.26,0,3.64,0.55,3.64,0.85c0,0.29-1.29,0.85-3.64,0.85S2.12,3.9,2.12,3.62
				C2.12,3.31,3.5,2.76,5.76,2.76z M5.76,9C3.4,9,2.12,8.44,2.12,8.15V4.38C2.9,4.81,4.33,5.03,5.76,5.03S8.62,4.81,9.4,4.38v3.77
				C9.4,8.44,8.11,9,5.76,9z"/>
		</g>
	</g>
</g>
</svg>
