<?xml version="1.0" encoding="utf-8"?>
<!-- Generator: Adobe Illustrator 27.3.1, SVG Export Plug-In . SVG Version: 6.00 Build 0)  -->
<svg version="1.1" id="Layer_1" xmlns="http://www.w3.org/2000/svg" xmlns:xlink="http://www.w3.org/1999/xlink" x="0px" y="0px"
	 viewBox="0 0 11.52 11.52" style="enable-background:new 0 0 11.52 11.52;" xml:space="preserve">
<style type="text/css">
	.st0{fill:#28A8E0;}
	.st1{fill-rule:evenodd;clip-rule:evenodd;fill:#FFFFFF;}
</style>
<g>
	<g>
		<g>
			<path class="st0" d="M11.52,5.76c0,3.18-2.58,5.76-5.76,5.76S0,8.94,0,5.76C0,2.58,2.58,0,5.76,0S11.52,2.58,11.52,5.76z"/>
		</g>
		<g>
			<g>
				<path class="st1" d="M3.58,4.94v1.62h0.34V5.42l0.15,0.27c0.01-0.17,0.04-0.34,0.07-0.51L4.01,4.94H3.58z"/>
			</g>
			<g>
				<path class="st1" d="M5.32,2.71c0.16,0,0.28,0.1,0.33,0.31h0.36C5.96,2.65,5.68,2.45,5.32,2.45c-0.46,0-0.74,0.3-0.74,0.84
					c0,0.34,0.11,0.58,0.28,0.72C4.94,3.93,5.03,3.86,5.1,3.79c-0.09-0.08-0.14-0.24-0.14-0.5C4.96,2.88,5.1,2.71,5.32,2.71"/>
			</g>
			<g>
				<path class="st1" d="M7.77,3.64c0.03-0.09,0.04-0.2,0.04-0.32c0-0.54-0.27-0.8-0.78-0.8H6.45v0.8h0.11c0.09,0,0.18,0,0.25,0.01
					V2.77h0.23c0.25,0,0.41,0.17,0.41,0.54c0,0.06,0,0.11-0.01,0.17C7.55,3.53,7.66,3.58,7.77,3.64"/>
			</g>
			<g>
				<path class="st1" d="M7.44,8.12C7.33,8.16,7.21,8.2,7.09,8.22L6.96,8.71L6.84,8.26c-0.1,0.01-0.18,0.01-0.27,0.01H6.51
					l0.23,0.72h0.43L7.44,8.12z"/>
			</g>
			<g>
				<path class="st1" d="M4.8,7.59V7.58C4.74,7.53,4.7,7.49,4.65,7.43H4.52v1.05c0,0.35,0.25,0.57,0.68,0.57s0.68-0.21,0.68-0.57
					V8.2C5.76,8.17,5.65,8.12,5.52,8.07v0.44c0,0.19-0.11,0.28-0.32,0.28c-0.19,0-0.31-0.09-0.31-0.28V7.67
					C4.86,7.65,4.84,7.61,4.8,7.59"/>
			</g>
			<g>
				<path class="st1" d="M2.01,6.58C2,6.56,2,6.54,1.99,6.51C2,6.54,2,6.56,2.01,6.58 M2.01,4.98C2,5.01,2,5.03,1.99,5.06
					C2,5.03,2,5.01,2.01,4.98 M3.39,2.77h0.12c0.14,0,0.24,0.07,0.24,0.19c0,0.14-0.09,0.21-0.23,0.21H3.33V2.82L3.39,2.77z
					 M3.54,3.88H3.33V3.41h0.22c0.17,0,0.26,0.08,0.26,0.24C3.81,3.81,3.73,3.88,3.54,3.88 M5.7,9.6c-0.73,0-1.42-0.21-2-0.58v-1.3
					h0.47V7.44H2.85v0.28h0.47v1.03c-0.31-0.26-0.58-0.57-0.8-0.9c-0.2-0.33-0.43-0.88-0.51-1.27h0.26v-0.7l0.59,0.7h0.49L2.6,5.72
					l0.67-0.75H2.83L2.26,5.66V4.98H2.01C2.07,4.69,2.17,4.39,2.3,4.12h0.31L2.49,3.78c0.14-0.22,0.29-0.42,0.47-0.61v0.96h0.58
					c0.47,0,0.66-0.16,0.66-0.46c0-0.21-0.13-0.35-0.36-0.39c0.16-0.03,0.29-0.16,0.29-0.32c0-0.23-0.12-0.37-0.41-0.41
					C4.29,2.19,4.97,1.97,5.7,1.97c2.08,0,3.78,1.7,3.78,3.81c0,0.55-0.11,1.06-0.32,1.52l0.43,0.44c0.3-0.59,0.47-1.26,0.47-1.97
					c0-2.41-1.96-4.38-4.36-4.38c-1.17,0-2.26,0.46-3.08,1.29C1.8,3.51,1.34,4.61,1.34,5.78c0,2.43,1.96,4.4,4.36,4.4
					c1.12,0,2.16-0.43,2.94-1.15L8.22,8.62C7.55,9.23,6.67,9.6,5.7,9.6"/>
			</g>
			<g>
				<path class="st1" d="M7.61,6.85C7.34,7.12,6.96,7.27,6.57,7.27c-0.39,0-0.76-0.16-1.03-0.42C5.27,6.56,5.1,6.19,5.1,5.8
					c0-0.39,0.17-0.77,0.44-1.03c0.27-0.28,0.64-0.44,1.03-0.44c0.39,0,0.76,0.17,1.04,0.44C8.18,5.33,8.18,6.27,7.61,6.85
					 M10.04,8.61L8.41,6.95C8.93,6.12,8.84,5,8.11,4.27c-0.42-0.42-1-0.63-1.54-0.63c-0.55,0-1.1,0.21-1.53,0.63
					c-0.84,0.84-0.84,2.23,0,3.07c0.43,0.41,0.97,0.62,1.53,0.62c0.41,0,0.8-0.1,1.15-0.31l1.65,1.63c0.12,0.14,0.35,0.14,0.49,0
					l0.18-0.18C10.18,8.96,10.18,8.73,10.04,8.61"/>
			</g>
			<g>
				<path class="st1" d="M6.54,6.28c-0.07,0-0.12-0.07-0.12-0.13c0-0.08,0.05-0.13,0.12-0.13c0.08,0,0.13,0.06,0.13,0.13
					C6.67,6.21,6.62,6.28,6.54,6.28 M6.44,5.38c0-0.06,0.04-0.1,0.1-0.1c0.05,0,0.1,0.04,0.1,0.1v0.39c0,0.06-0.04,0.1-0.1,0.1
					c-0.05,0-0.1-0.04-0.1-0.1V5.38z M7.56,6.29L7.55,6.27l-0.87-1.5C6.65,4.73,6.59,4.69,6.54,4.69c-0.05,0-0.11,0.04-0.13,0.1
					L5.55,6.27C5.52,6.29,5.51,6.32,5.51,6.36c0,0.08,0.07,0.14,0.15,0.14h1.76c0.08,0,0.14-0.07,0.14-0.14
					C7.57,6.32,7.57,6.3,7.56,6.29"/>
			</g>
		</g>
	</g>
</g>
</svg>
