<?xml version="1.0" encoding="utf-8"?>
<!-- Generator: Adobe Illustrator 27.3.1, SVG Export Plug-In . SVG Version: 6.00 Build 0)  -->
<svg version="1.1" id="Layer_1" xmlns="http://www.w3.org/2000/svg" xmlns:xlink="http://www.w3.org/1999/xlink" x="0px" y="0px"
	 viewBox="0 0 11.52 11.52" style="enable-background:new 0 0 11.52 11.52;" xml:space="preserve">
<style type="text/css">
	.st0{fill:#28A8E0;}
	.st1{fill:#FFFFFF;}
</style>
<g>
	<g>
		<g>
			<path class="st0" d="M11.52,5.76c0,3.18-2.58,5.76-5.76,5.76S0,8.94,0,5.76C0,2.58,2.58,0,5.76,0S11.52,2.58,11.52,5.76z"/>
		</g>
		<path class="st1" d="M10.56,5.61c-0.01-0.02-0.02-0.03-0.03-0.04L9.67,4.71c-0.08-0.08-0.22-0.08-0.3,0L9.34,4.74
			c-0.08,0.08-0.08,0.22,0,0.3l0.5,0.5H8.29c-0.05-0.52-0.25-1-0.57-1.38l1.09-1.09v0.7c0,0.12,0.1,0.21,0.21,0.21h0.04
			c0.12,0,0.21-0.1,0.21-0.21l0-1.22c0-0.01,0-0.01,0-0.02c0.01-0.06-0.01-0.12-0.06-0.17L9.19,2.33C9.15,2.29,9.1,2.27,9.05,2.27
			c-0.02,0-0.04-0.01-0.05-0.01H7.78c-0.12,0-0.21,0.1-0.21,0.21l0,0.04c0,0.12,0.1,0.21,0.21,0.21h0.71l-1.1,1.1
			C7.01,3.51,6.54,3.3,6.02,3.26V1.71l0.5,0.5c0.08,0.08,0.22,0.08,0.3,0l0.03-0.03c0.08-0.08,0.08-0.22,0-0.3L5.98,1.02
			c0,0-0.01-0.01-0.02-0.01C5.93,0.96,5.87,0.93,5.8,0.93H5.76c-0.06,0-0.11,0.02-0.15,0.06C5.6,0.99,5.58,1,5.57,1.02L4.71,1.88
			c-0.08,0.08-0.08,0.22,0,0.3l0.03,0.03c0.08,0.08,0.22,0.08,0.3,0l0.5-0.5v1.55c-0.53,0.05-1,0.26-1.39,0.57l-1.1-1.1h0.71
			c0.12,0,0.21-0.1,0.21-0.21l0-0.04c0-0.12-0.1-0.21-0.21-0.21H2.56c-0.02,0-0.04,0-0.05,0.01c-0.05,0-0.1,0.02-0.14,0.06
			L2.33,2.36C2.28,2.41,2.26,2.47,2.27,2.54c0,0.01,0,0.01,0,0.02v1.22c0,0.12,0.1,0.21,0.21,0.21h0.04c0.12,0,0.21-0.1,0.21-0.21
			v-0.7l1.09,1.09C3.51,4.54,3.31,5.02,3.26,5.54H1.71l0.5-0.5c0.08-0.08,0.08-0.22,0-0.3L2.18,4.71c-0.08-0.08-0.22-0.08-0.3,0
			L1.02,5.57C1.01,5.58,1,5.59,0.99,5.61C0.95,5.65,0.93,5.7,0.93,5.76V5.8c0,0.07,0.03,0.13,0.08,0.16c0,0,0.01,0.01,0.01,0.01
			l0.86,0.86c0.08,0.08,0.22,0.08,0.3,0l0.03-0.03c0.08-0.08,0.08-0.22,0-0.3l-0.5-0.5h1.54c0.05,0.52,0.26,1,0.57,1.38l-1.1,1.1
			V7.77c0-0.12-0.1-0.21-0.21-0.21l-0.04,0c-0.12,0-0.21,0.1-0.21,0.21v1.22c0,0.02,0,0.04,0.01,0.05c0,0.05,0.02,0.1,0.06,0.14
			l0.03,0.03c0.05,0.05,0.11,0.07,0.17,0.06c0.01,0,0.01,0,0.02,0h1.22c0.12,0,0.21-0.1,0.21-0.21V9.02c0-0.12-0.1-0.21-0.21-0.21
			h-0.7l1.09-1.09c0.38,0.32,0.86,0.52,1.38,0.57v1.55l-0.5-0.5c-0.08-0.08-0.22-0.08-0.3,0L4.71,9.37c-0.08,0.08-0.08,0.22,0,0.3
			l0.86,0.86c0.01,0.01,0.03,0.02,0.04,0.03c0.04,0.04,0.09,0.06,0.15,0.06H5.8c0.07,0,0.13-0.03,0.16-0.08c0,0,0.01-0.01,0.02-0.01
			l0.86-0.86c0.08-0.08,0.08-0.22,0-0.3L6.81,9.34c-0.08-0.08-0.22-0.08-0.3,0l-0.5,0.5V8.29c0.52-0.05,0.99-0.25,1.37-0.57
			l1.09,1.09h-0.7c-0.12,0-0.21,0.1-0.21,0.21v0.04c0,0.12,0.1,0.21,0.21,0.21l1.22,0c0.01,0,0.01,0,0.02,0
			c0.06,0.01,0.12-0.01,0.17-0.06l0.03-0.03C9.25,9.15,9.28,9.1,9.28,9.04c0-0.02,0.01-0.04,0.01-0.05V7.77
			c0-0.12-0.1-0.21-0.21-0.21l-0.04,0c-0.12,0-0.21,0.1-0.21,0.21v0.71l-1.1-1.1c0.32-0.38,0.52-0.86,0.57-1.38h1.54l-0.5,0.5
			c-0.08,0.08-0.08,0.22,0,0.3l0.03,0.03c0.08,0.08,0.22,0.08,0.3,0l0.86-0.86c0,0,0.01-0.01,0.01-0.01
			c0.05-0.04,0.08-0.1,0.08-0.16V5.76C10.62,5.7,10.6,5.65,10.56,5.61z"/>
	</g>
</g>
</svg>
