<?xml version="1.0" encoding="utf-8"?>
<!-- Generator: Adobe Illustrator 27.3.1, SVG Export Plug-In . SVG Version: 6.00 Build 0)  -->
<svg version="1.1" id="Layer_1" xmlns="http://www.w3.org/2000/svg" xmlns:xlink="http://www.w3.org/1999/xlink" x="0px" y="0px"
	 viewBox="0 0 11.52 11.52" style="enable-background:new 0 0 11.52 11.52;" xml:space="preserve">
<style type="text/css">
	.st0{fill:#28A8E0;}
	.st1{fill:none;stroke:#FFFFFF;stroke-width:0.4233;stroke-linecap:round;stroke-linejoin:round;stroke-miterlimit:10;}
	.st2{fill:none;stroke:#FFFFFF;stroke-width:0.3175;stroke-linecap:round;stroke-linejoin:round;stroke-miterlimit:10;}
	.st3{fill:none;stroke:#FFFFFF;stroke-width:0.3528;stroke-linecap:round;stroke-linejoin:round;stroke-miterlimit:10;}
</style>
<g>
	<g>
		<g>
			<path class="st0" d="M11.52,5.76c0,3.18-2.58,5.76-5.76,5.76S0,8.94,0,5.76C0,2.58,2.58,0,5.76,0S11.52,2.58,11.52,5.76z"/>
		</g>
	</g>
</g>
<path class="st1" d="M5.75,9.48c2.16,0,3.13-1.84,3.13-3.15c0-0.96-0.74-1.65-1.07-1.91c-0.4-0.32-0.76-0.59-1.2-0.9
	c-0.42-0.3-0.86-0.26-0.86-0.26S5.31,3.21,4.89,3.51c-0.44,0.31-0.8,0.58-1.2,0.9C3.36,4.68,2.62,5.37,2.62,6.33
	C2.62,7.64,3.58,9.48,5.75,9.48z"/>
<path class="st1" d="M6.82,4.78c0,0-0.39-0.52-1.07-0.52S4.67,4.78,4.67,4.78"/>
<line class="st1" x1="7.09" y1="5.94" x2="4.35" y2="5.94"/>
<line class="st1" x1="7.09" y1="7.87" x2="4.35" y2="7.87"/>
<line class="st1" x1="7.5" y1="6.9" x2="3.99" y2="6.9"/>
<line class="st2" x1="3.28" y1="6.22" x2="3.28" y2="6.8"/>
<line class="st2" x1="8.22" y1="6.22" x2="8.22" y2="6.8"/>
<path class="st3" d="M8.34,6.45c0,0,0.97-0.61,0.84-1.21C9.06,4.63,8.51,3.92,8.7,3.38C8.89,2.84,9.57,2.19,10,2.63
	c0.43,0.43-0.24,0.93-0.6,1.04S7.75,3.85,7.11,3.81"/>
<path class="st3" d="M4.77,3.57C4.4,3.55,2.91,3.27,2.38,4.38c-0.4,0.85,0.36,1.92,0.77,2.15"/>
</svg>
