<?xml version="1.0" encoding="utf-8"?>
<!-- Generator: Adobe Illustrator 27.3.1, SVG Export Plug-In . SVG Version: 6.00 Build 0)  -->
<svg version="1.1" id="Layer_1" xmlns="http://www.w3.org/2000/svg" xmlns:xlink="http://www.w3.org/1999/xlink" x="0px" y="0px"
	 viewBox="0 0 11.52 11.52" style="enable-background:new 0 0 11.52 11.52;" xml:space="preserve">
<style type="text/css">
	.st0{fill:#28A8E0;}
	.st1{fill:#FFFFFF;}
</style>
<g>
	<g>
		<g>
			<path class="st0" d="M11.52,5.76c0,3.18-2.58,5.76-5.76,5.76S0,8.94,0,5.76C0,2.58,2.58,0,5.76,0C8.94,0,11.52,2.58,11.52,5.76z"
				/>
		</g>
	</g>
</g>
<g>
	<path class="st1" d="M5.8,6.37c0.47,0,0.86-0.38,0.86-0.85c0-0.54-0.49-0.95-1.03-0.84c-0.34,0.07-0.61,0.36-0.67,0.7
		C4.88,5.91,5.28,6.37,5.8,6.37z"/>
	<path class="st1" d="M9.23,2.35H2.31c-0.23,0-0.42,0.19-0.42,0.42v5.76c0,0.23,0.19,0.42,0.42,0.42h6.92
		c0.23,0,0.42-0.19,0.42-0.42V2.77C9.65,2.54,9.46,2.35,9.23,2.35z M4.65,2.83c0.17,0,0.31,0.14,0.31,0.31
		c0,0.17-0.14,0.31-0.31,0.31S4.34,3.31,4.34,3.14C4.34,2.97,4.48,2.83,4.65,2.83z M3.67,2.83c0.17,0,0.31,0.14,0.31,0.31
		c0,0.17-0.14,0.31-0.31,0.31c-0.17,0-0.31-0.14-0.31-0.31C3.36,2.97,3.5,2.83,3.67,2.83z M2.68,2.83C2.86,2.83,3,2.97,3,3.14
		c0,0.17-0.14,0.31-0.31,0.31c-0.17,0-0.31-0.14-0.31-0.31C2.37,2.97,2.51,2.83,2.68,2.83z M4.55,8.37H4.19L4.25,8.2
		C4.28,8.14,4.33,8.1,4.4,8.1c0.08,0,0.15,0.07,0.15,0.15V8.37z M7,8.37V8.26C7,8.17,7.07,8.1,7.15,8.1c0.06,0,0.12,0.04,0.14,0.1
		l0.06,0.16H7z M9.18,8.09c0,0.15-0.12,0.28-0.28,0.28H8.28L7.84,7.16c-0.11-0.31-0.4-0.51-0.73-0.51H4.43
		c-0.33,0-0.62,0.2-0.73,0.51L3.27,8.37h-0.6c-0.15,0-0.28-0.12-0.28-0.28V4.3c0-0.15,0.12-0.28,0.28-0.28H8.9
		c0.15,0,0.28,0.12,0.28,0.28V8.09z"/>
</g>
</svg>
