<?xml version="1.0" encoding="utf-8"?>
<!-- Generator: Adobe Illustrator 27.3.1, SVG Export Plug-In . SVG Version: 6.00 Build 0)  -->
<svg version="1.1" id="Layer_1" xmlns="http://www.w3.org/2000/svg" xmlns:xlink="http://www.w3.org/1999/xlink" x="0px" y="0px"
	 viewBox="0 0 27.36 23.69" style="enable-background:new 0 0 27.36 23.69;" xml:space="preserve">
<style type="text/css">
	.st0{fill:#FFFFFF;}
	.st1{fill:#9F53A0;}
</style>
<g>
	<g>
		<polygon class="st0" points="20.15,23.05 26.62,11.85 20.15,0.64 7.21,0.64 0.74,11.85 7.21,23.05 		"/>
		<path class="st1" d="M20.52,23.69H6.84L0,11.85L6.84,0h13.68l6.84,11.85L20.52,23.69z M7.58,22.41h12.19l6.1-10.56l-6.1-10.56
			H7.58l-6.1,10.56L7.58,22.41z"/>
	</g>
</g>
<path class="st1" d="M19.57,14.38c-0.54,0-1.03,0.19-1.41,0.5l-2.12-1.79c0.25-0.4,0.4-0.87,0.4-1.38c0-1.23-0.85-2.26-1.99-2.54
	V6.01h1.93l-2.6-3.35l-2.6,3.35h1.98v3.18c-1.12,0.3-1.95,1.32-1.95,2.53c0,0.51,0.15,0.98,0.4,1.39l-2.06,1.74
	c-0.37-0.28-0.83-0.46-1.33-0.46c-1.24,0-2.24,1-2.24,2.22c0,1.24,1,2.24,2.24,2.24c1.21,0,2.21-1,2.21-2.24
	c0-0.42-0.12-0.81-0.32-1.14l2.05-1.73c0.35,0.29,0.77,0.49,1.24,0.57v1.62c-0.99,0.23-1.73,1.12-1.73,2.18c0,1.24,1,2.24,2.24,2.24
	c1.21,0,2.21-1,2.21-2.24c0-1.13-0.83-2.06-1.9-2.21v-1.58c0.49-0.07,0.93-0.28,1.29-0.58l2.13,1.79c-0.18,0.32-0.29,0.69-0.29,1.08
	c0,1.24,1,2.24,2.24,2.24c1.21,0,2.21-1,2.21-2.24C21.79,15.39,20.79,14.38,19.57,14.38z M13.82,11.57h-1.85
	c0.07-0.96,0.87-1.72,1.85-1.72c0.97,0,1.77,0.75,1.85,1.7L13.82,11.57z"/>
</svg>
