<?xml version="1.0" encoding="UTF-8"?><svg id="uuid-725ada32-c51c-4ca7-bebd-8beb0adf6647" xmlns="http://www.w3.org/2000/svg" width=".54in" height=".5in" viewBox="0 0 38.88 35.96"><path d="m38.43,20.4c-.23-.46-.61-.71-.61-.71,0,0-1.93-1.54-2.81.32-.87,1.85-3.55,2.78-3.55,2.78l-3.07,1.16s0-.02,0-.03c2.86-2.5,4.67-6.17,4.67-10.27,0-7.53-6.11-13.64-13.64-13.64S5.78,6.11,5.78,13.64c0,4.08,1.79,7.74,4.64,10.24-2.26-.83-3.77-1.39-3.77-1.39,0,0,.05-2.15-1.48-2.81-1.54-.66-2.22.98-2.41,1.64,0,0-2.89.16-2.75,1.83.13,1.67,2.89,1.93,4.87.74l6.55,2.47c.27,1.25.82,2.4,1.59,3.37l-4.69,1.74c-1.99-1.19-4.74-.93-4.87.74-.13,1.67,2.75,1.83,2.75,1.83.19.66.87,2.3,2.41,1.64,1.54-.66,1.48-2.81,1.48-2.81,0,0,.45-.12,4.51-1.61,1.36.99,3.03,1.57,4.83,1.57s3.52-.6,4.89-1.61l5.06,1.23s1.84.72,2.71,2.57c.87,1.85,2.81.32,2.81.32,0,0,.38-.26.61-.71.5-.99.9-2.6-.61-2.38,0,0,.85-1.09.58-1.8-.26-.71-1.64-1.14-2.6-.74-.95.4-2.09,1.08-3.24.88-.31-.05-.8.02-3.66-1.01.66-.88,1.15-1.89,1.42-2.99,2.51-.91,4.32-1.55,4.6-1.62,1.09-.26,2.83-.05,3.79.34.95.4,2.33-.03,2.6-.74.26-.71-.58-1.8-.58-1.8,1.5.22,1.11-1.39.61-2.38" fill="#f06650" fill-rule="evenodd"/><g><path d="m19.54,16.75c-1.85,0-3.35,1.5-3.35,3.35,0,.14.07.27.19.35.12.08.27.09.39.03.01,0,1.25-.55,2.76-.55s2.75.54,2.76.55c.05.02.11.04.17.04.08,0,.16-.02.23-.07.12-.08.19-.21.19-.35,0-1.85-1.5-3.35-3.35-3.35Zm0,2.35c-1,0-1.88.21-2.44.38.28-1.09,1.27-1.9,2.44-1.9s2.17.81,2.44,1.9c-.57-.18-1.45-.38-2.44-.38Z" fill="#fff"/><path d="m18.16,14.29c0-.23-.19-.41-.41-.41h-1.93c-.23,0-.41.19-.41.41s.19.41.41.41h1.93c.23,0,.41-.19.41-.41Z" fill="#fff"/><path d="m21.24,14.71h1.93c.23,0,.41-.19.41-.41s-.19-.41-.41-.41h-1.93c-.23,0-.41.19-.41.41s.19.41.41.41Z" fill="#fff"/><path d="m27.62,12.65c-.16-.16-.42-.16-.59,0l-.71.71v-4.37c0-.13-.06-.26-.17-.34-.11-.08-.25-.1-.38-.05-.01,0-.63.22-1.6.45-.85-1.74-2.62-2.86-4.57-2.86s-3.71,1.11-4.56,2.84c-.92-.22-1.51-.42-1.52-.43-.13-.04-.27-.02-.38.05-.11.08-.17.2-.17.34v4.51l-.85-.85c-.16-.16-.42-.16-.59,0-.16.16-.16.42,0,.59l1.37,1.37s.04.04.07.06v2.19c0,1.01.2,2.01.59,2.96.37.89.88,1.7,1.53,2.42.62.69,1.36,1.25,2.13,1.64.8.4,1.63.61,2.42.61s1.62-.21,2.42-.61c.77-.39,1.51-.96,2.13-1.64.65-.71,1.16-1.53,1.53-2.42.39-.95.59-1.95.59-2.96v-2.32l1.29-1.29c.16-.16.16-.42,0-.59Zm-8.01-5.76c1.62,0,3.1.9,3.85,2.31-1.07.22-2.41.41-3.8.41s-2.8-.2-3.89-.43c.76-1.4,2.22-2.29,3.84-2.29Zm5.89,9.95c0,.9-.18,1.79-.53,2.65-.33.8-.79,1.53-1.38,2.17-1.13,1.24-2.61,1.99-3.94,1.99s-2.81-.74-3.94-1.99c-.58-.64-1.05-1.37-1.38-2.17-.35-.85-.53-1.74-.53-2.65v-7.29c1.02.3,3.33.88,5.84.88s4.82-.58,5.84-.88v7.29Z" fill="#fff"/></g></svg>