<?xml version="1.0" encoding="UTF-8"?>
<!DOCTYPE svg PUBLIC "-//W3C//DTD SVG 1.1//EN" "http://www.w3.org/Graphics/SVG/1.1/DTD/svg11.dtd">
<svg version="1.2" width="215.9mm" height="279.4mm" viewBox="0 0 21590 27940" preserveAspectRatio="xMidYMid" fill-rule="evenodd" stroke-width="28.222" stroke-linejoin="round" xmlns="http://www.w3.org/2000/svg" xmlns:ooo="http://xml.openoffice.org/svg/export" xmlns:xlink="http://www.w3.org/1999/xlink" xmlns:presentation="http://sun.com/xmlns/staroffice/presentation" xmlns:smil="http://www.w3.org/2001/SMIL20/" xmlns:anim="urn:oasis:names:tc:opendocument:xmlns:animation:1.0" xmlns:svg="urn:oasis:names:tc:opendocument:xmlns:svg-compatible:1.0" xml:space="preserve">
 <defs class="ClipPathGroup">
  <clipPath id="presentation_clip_path" clipPathUnits="userSpaceOnUse">
   <rect x="0" y="0" width="21590" height="27940"/>
  </clipPath>
  <clipPath id="presentation_clip_path_shrink" clipPathUnits="userSpaceOnUse">
   <rect x="21" y="27" width="21547" height="27885"/>
  </clipPath>
 </defs>
 <defs class="TextShapeIndex">
  <g ooo:slide="id1" ooo:id-list="id3 id4 id5 id6 id7 id8 id9 id10 id11 id12 id13 id14 id15"/>
 </defs>
 <defs class="EmbeddedBulletChars">
  <g id="bullet-char-template-57356" transform="scale(0.00048828125,-0.00048828125)">
   <path d="M 580,1141 L 1163,571 580,0 -4,571 580,1141 Z"/>
  </g>
  <g id="bullet-char-template-57354" transform="scale(0.00048828125,-0.00048828125)">
   <path d="M 8,1128 L 1137,1128 1137,0 8,0 8,1128 Z"/>
  </g>
  <g id="bullet-char-template-10146" transform="scale(0.00048828125,-0.00048828125)">
   <path d="M 174,0 L 602,739 174,1481 1456,739 174,0 Z M 1358,739 L 309,1346 659,739 1358,739 Z"/>
  </g>
  <g id="bullet-char-template-10132" transform="scale(0.00048828125,-0.00048828125)">
   <path d="M 2015,739 L 1276,0 717,0 1260,543 174,543 174,936 1260,936 717,1481 1274,1481 2015,739 Z"/>
  </g>
  <g id="bullet-char-template-10007" transform="scale(0.00048828125,-0.00048828125)">
   <path d="M 0,-2 C -7,14 -16,27 -25,37 L 356,567 C 262,823 215,952 215,954 215,979 228,992 255,992 264,992 276,990 289,987 310,991 331,999 354,1012 L 381,999 492,748 772,1049 836,1024 860,1049 C 881,1039 901,1025 922,1006 886,937 835,863 770,784 769,783 710,716 594,584 L 774,223 C 774,196 753,168 711,139 L 727,119 C 717,90 699,76 672,76 641,76 570,178 457,381 L 164,-76 C 142,-110 111,-127 72,-127 30,-127 9,-110 8,-76 1,-67 -2,-52 -2,-32 -2,-23 -1,-13 0,-2 Z"/>
  </g>
  <g id="bullet-char-template-10004" transform="scale(0.00048828125,-0.00048828125)">
   <path d="M 285,-33 C 182,-33 111,30 74,156 52,228 41,333 41,471 41,549 55,616 82,672 116,743 169,778 240,778 293,778 328,747 346,684 L 369,508 C 377,444 397,411 428,410 L 1163,1116 C 1174,1127 1196,1133 1229,1133 1271,1133 1292,1118 1292,1087 L 1292,965 C 1292,929 1282,901 1262,881 L 442,47 C 390,-6 338,-33 285,-33 Z"/>
  </g>
  <g id="bullet-char-template-9679" transform="scale(0.00048828125,-0.00048828125)">
   <path d="M 813,0 C 632,0 489,54 383,161 276,268 223,411 223,592 223,773 276,916 383,1023 489,1130 632,1184 813,1184 992,1184 1136,1130 1245,1023 1353,916 1407,772 1407,592 1407,412 1353,268 1245,161 1136,54 992,0 813,0 Z"/>
  </g>
  <g id="bullet-char-template-8226" transform="scale(0.00048828125,-0.00048828125)">
   <path d="M 346,457 C 273,457 209,483 155,535 101,586 74,649 74,723 74,796 101,859 155,911 209,963 273,989 346,989 419,989 480,963 531,910 582,859 608,796 608,723 608,648 583,586 532,535 482,483 420,457 346,457 Z"/>
  </g>
  <g id="bullet-char-template-8211" transform="scale(0.00048828125,-0.00048828125)">
   <path d="M -4,459 L 1135,459 1135,606 -4,606 -4,459 Z"/>
  </g>
  <g id="bullet-char-template-61548" transform="scale(0.00048828125,-0.00048828125)">
   <path d="M 173,740 C 173,903 231,1043 346,1159 462,1274 601,1332 765,1332 928,1332 1067,1274 1183,1159 1299,1043 1357,903 1357,740 1357,577 1299,437 1183,322 1067,206 928,148 765,148 601,148 462,206 346,322 231,437 173,577 173,740 Z"/>
  </g>
 </defs>
 <g>
  <g id="id2" class="Master_Slide">
   <g id="bg-id2" class="Background"/>
   <g id="bo-id2" class="BackgroundObjects"/>
  </g>
 </g>
 <g class="SlideGroup">
  <g>
   <g id="container-id1">
    <g id="id1" class="Slide" clip-path="url(#presentation_clip_path)">
     <g class="Page">
      <g class="com.sun.star.drawing.PolyPolygonShape">
       <g id="id3">
        <rect class="BoundingBox" stroke="none" fill="none" x="11343" y="13341" width="73" height="647"/>
        <path fill="rgb(2,112,159)" stroke="none" d="M 11408,13922 L 11408,13357 11351,13407 11351,13971 11408,13922 Z"/>
        <path fill="none" stroke="rgb(255,255,255)" stroke-width="14" stroke-linejoin="miter" d="M 11408,13922 L 11408,13357 11351,13407 11351,13971 11408,13922 Z"/>
       </g>
      </g>
      <g class="com.sun.star.drawing.PolyPolygonShape">
       <g id="id4">
        <rect class="BoundingBox" stroke="none" fill="none" x="10243" y="13401" width="1115" height="577"/>
        <path fill="rgb(2,112,159)" stroke="none" d="M 11350,13970 L 11350,13408 10251,13408 10251,13970 11350,13970 Z"/>
        <path fill="none" stroke="rgb(255,255,255)" stroke-width="14" stroke-linejoin="miter" d="M 11350,13970 L 11350,13408 10251,13408 10251,13970 11350,13970 Z"/>
       </g>
      </g>
      <g class="com.sun.star.drawing.PolyPolygonShape">
       <g id="id5">
        <rect class="BoundingBox" stroke="none" fill="none" x="10232" y="13351" width="1196" height="66"/>
        <path fill="rgb(2,112,159)" stroke="none" d="M 11408,13358 L 10309,13358 10251,13409 11350,13409 11408,13358 Z"/>
        <path fill="none" stroke="rgb(255,255,255)" stroke-width="14" stroke-linejoin="miter" d="M 11408,13358 L 10309,13358 10251,13409 11350,13409 11408,13358 Z"/>
       </g>
      </g>
      <g class="com.sun.star.drawing.PolyPolygonShape">
       <g id="id6">
        <rect class="BoundingBox" stroke="none" fill="none" x="11349" y="13358" width="60" height="52"/>
       </g>
      </g>
      <g class="com.sun.star.drawing.LineShape">
       <g id="id7">
        <rect class="BoundingBox" stroke="none" fill="none" x="11344" y="13352" width="70" height="64"/>
        <path fill="none" stroke="rgb(255,255,255)" stroke-width="14" stroke-linejoin="miter" d="M 11408,13358 L 11349,13409"/>
       </g>
      </g>
      <g class="com.sun.star.drawing.OpenBezierShape">
       <g id="id8">
        <rect class="BoundingBox" stroke="none" fill="none" x="10889" y="13448" width="383" height="442"/>
        <path fill="none" stroke="rgb(255,255,255)" stroke-width="14" stroke-linejoin="miter" d="M 10894,13508 L 10952,13458 C 11157,13696 10999,13882 10999,13882 L 11271,13882"/>
       </g>
      </g>
      <g class="com.sun.star.drawing.PolyLineShape">
       <g id="id9">
        <rect class="BoundingBox" stroke="none" fill="none" x="10287" y="13436" width="178" height="454"/>
        <path fill="none" stroke="rgb(255,255,255)" stroke-width="14" stroke-linejoin="miter" d="M 10459,13502 L 10401,13452 10412,13882 10287,13882"/>
       </g>
      </g>
      <g class="com.sun.star.drawing.ClosedBezierShape">
       <g id="id10">
        <rect class="BoundingBox" stroke="none" fill="none" x="10451" y="13495" width="489" height="418"/>
        <path fill="rgb(2,112,159)" stroke="none" d="M 10458,13567 C 10458,13510 10517,13502 10517,13502 10517,13502 10808,13502 10863,13502 10934,13502 10931,13569 10931,13569 10931,13569 10931,13809 10931,13848 10931,13889 10877,13905 10877,13905 10877,13905 10575,13905 10525,13905 10475,13905 10458,13852 10458,13852 L 10458,13567 Z"/>
        <path fill="none" stroke="rgb(255,255,255)" stroke-width="14" stroke-linejoin="miter" d="M 10458,13567 C 10458,13510 10517,13502 10517,13502 L 10863,13502 C 10934,13502 10931,13569 10931,13569 L 10931,13848 C 10931,13889 10877,13905 10877,13905 L 10525,13905 C 10475,13905 10458,13852 10458,13852 L 10458,13567 Z"/>
       </g>
      </g>
      <g class="com.sun.star.drawing.PolyPolygonShape">
       <g id="id11">
        <rect class="BoundingBox" stroke="none" fill="none" x="10999" y="13529" width="272" height="1"/>
       </g>
      </g>
      <g class="com.sun.star.drawing.LineShape">
       <g id="id12">
        <rect class="BoundingBox" stroke="none" fill="none" x="10999" y="13522" width="272" height="15"/>
        <path fill="none" stroke="rgb(255,255,255)" stroke-width="14" stroke-linejoin="miter" d="M 11270,13529 L 10999,13529"/>
       </g>
      </g>
      <g class="com.sun.star.drawing.PolyPolygonShape">
       <g id="id13">
        <rect class="BoundingBox" stroke="none" fill="none" x="10287" y="13529" width="125" height="1"/>
       </g>
      </g>
      <g class="com.sun.star.drawing.LineShape">
       <g id="id14">
        <rect class="BoundingBox" stroke="none" fill="none" x="10287" y="13522" width="125" height="15"/>
        <path fill="none" stroke="rgb(255,255,255)" stroke-width="14" stroke-linejoin="miter" d="M 10411,13529 L 10287,13529"/>
       </g>
      </g>
      <g class="com.sun.star.drawing.LineShape">
       <g id="id15">
        <rect class="BoundingBox" stroke="none" fill="none" x="10400" y="13445" width="528" height="15"/>
        <path fill="none" stroke="rgb(255,255,255)" stroke-width="14" stroke-linejoin="miter" d="M 10400,13452 L 10927,13452"/>
       </g>
      </g>
     </g>
    </g>
   </g>
  </g>
 </g>
</svg>