<?xml version="1.0" encoding="utf-8"?>
<!-- Generator: Adobe Illustrator 27.3.1, SVG Export Plug-In . SVG Version: 6.00 Build 0)  -->
<svg version="1.1" id="Layer_1" xmlns="http://www.w3.org/2000/svg" xmlns:xlink="http://www.w3.org/1999/xlink" x="0px" y="0px"
	 viewBox="0 0 27.4 23.7" style="enable-background:new 0 0 27.4 23.7;" xml:space="preserve">
<style type="text/css">
	.st0{fill:#A153A0;}
	.st1{fill:#FFFFFF;}
	.st2{fill-rule:evenodd;clip-rule:evenodd;fill:#FFFFFF;}
</style>
<g>
	<g>
		<polygon class="st0" points="20.5,23.7 27.4,11.8 20.5,0 6.8,0 0,11.8 6.8,23.7 		"/>
	</g>
</g>
<g>
	<g>
		<g>
			<path class="st1" d="M14.7,18.3c-0.1,0-0.2,0-0.3-0.1l-2-2.5c0-0.1-0.1-0.1-0.1-0.2v-3.5L9,7.9C9,7.8,8.9,7.7,9,7.6
				C9,7.5,9.2,7.4,9.3,7.4h8.8c0.1,0,0.2,0.1,0.3,0.2c0.1,0.1,0,0.3,0,0.4L15,11.8v6.2c0,0.1-0.1,0.3-0.2,0.3
				C14.8,18.3,14.7,18.3,14.7,18.3z M13,15.3l1.3,1.7v-5.3c0-0.1,0-0.2,0.1-0.2L17.3,8H10l3,3.5c0.1,0.1,0.1,0.1,0.1,0.2V15.3z"/>
		</g>
		<path class="st2" d="M17.7,18.4l0.7,1.1c1.1-0.7,2-1.5,2.7-2.6L20,16.2C19.4,17,18.6,17.8,17.7,18.4z"/>
		<path class="st2" d="M20.4,15.5l1.1,0.6c0.6-1.1,0.9-2.3,1-3.6l-1.3-0.1C21.2,13.5,20.9,14.5,20.4,15.5z"/>
		<path class="st2" d="M21.3,11.6l1.3,0c0-1.2-0.3-2.5-0.9-3.6l-1.2,0.6C21,9.5,21.3,10.6,21.3,11.6z"/>
		<path class="st2" d="M20.1,7.8l1.1-0.7c-0.7-1.1-1.5-2-2.6-2.7L18,5.5C18.8,6.2,19.6,6.9,20.1,7.8z"/>
		<path class="st2" d="M17.3,5.2L17.9,4c-1.1-0.6-2.3-0.9-3.5-1l-0.1,1.3C15.3,4.3,16.3,4.6,17.3,5.2z"/>
		<path class="st2" d="M13.4,4.2l0-1.3c-1.3,0-2.5,0.3-3.6,0.9L10.3,5C11.3,4.5,12.4,4.3,13.4,4.2z"/>
		<path class="st2" d="M9.7,5.4L9,4.3C7.9,5,7,5.8,6.3,6.9l1.1,0.7C8,6.7,8.7,6,9.7,5.4z"/>
		<path class="st2" d="M7,8.3L5.8,7.7c-0.6,1.1-0.9,2.3-1,3.5l1.3,0.1C6.1,10.3,6.4,9.2,7,8.3z"/>
		<path class="st2" d="M6,12.1l-1.3,0c0,1.3,0.3,2.5,0.9,3.6l1.1-0.5C6.3,14.2,6.1,13.2,6,12.1z"/>
		<path class="st2" d="M7.2,15.9l-1.1,0.7c0.7,1.1,1.5,2,2.6,2.7l0.7-1.1C8.5,17.6,7.8,16.8,7.2,15.9z"/>
		<path class="st2" d="M10.1,18.6l-0.6,1.1c1.1,0.6,2.3,0.9,3.5,1l0.1-1.3C12.1,19.4,11,19.1,10.1,18.6z"/>
		<path class="st2" d="M13.9,19.5l0,1.3c1.2,0,2.5-0.3,3.6-0.9L17,18.7C16,19.2,15,19.5,13.9,19.5z"/>
	</g>
</g>
<g>
</g>
<g>
</g>
<g>
</g>
<g>
</g>
<g>
</g>
<g>
</g>
</svg>
