<?xml version="1.0" encoding="utf-8"?>
<!-- Generator: Adobe Illustrator 27.3.1, SVG Export Plug-In . SVG Version: 6.00 Build 0)  -->
<svg version="1.1" id="Layer_1" xmlns="http://www.w3.org/2000/svg" xmlns:xlink="http://www.w3.org/1999/xlink" x="0px" y="0px"
	 viewBox="0 0 27.4 23.7" style="enable-background:new 0 0 27.4 23.7;" xml:space="preserve">
<style type="text/css">
	.st0{fill:#A153A0;}
	.st1{fill:#FFFFFF;}
</style>
<g>
	<g>
		<polygon class="st0" points="20.5,23.7 27.4,11.8 20.5,0 6.8,0 0,11.8 6.8,23.7 		"/>
	</g>
</g>
<g>
	<g>
		<g>
			<polygon class="st1" points="18.8,15.3 14,15.3 14,18 18.8,18 18.8,19.4 21.5,16.7 21.6,16.6 18.8,13.9 			"/>
			<polygon class="st1" points="18.8,13.2 21.5,10.4 21.6,10.4 18.8,7.6 18.8,9 14,9 14,11.8 18.8,11.8 			"/>
			<polygon class="st1" points="8.6,10.8 5.9,13.6 5.8,13.6 8.6,16.4 8.6,15 13.4,15 13.4,12.2 8.6,12.2 			"/>
			<polygon class="st1" points="8.6,4.5 5.9,7.2 5.8,7.3 8.6,10.1 8.6,8.7 13.4,8.7 13.4,5.9 8.6,5.9 			"/>
		</g>
	</g>
</g>
<g>
</g>
<g>
</g>
<g>
</g>
<g>
</g>
<g>
</g>
<g>
</g>
</svg>
