<?xml version="1.0" encoding="utf-8"?>
<!-- Generator: Adobe Illustrator 27.3.1, SVG Export Plug-In . SVG Version: 6.00 Build 0)  -->
<svg version="1.1" id="Layer_1" xmlns="http://www.w3.org/2000/svg" xmlns:xlink="http://www.w3.org/1999/xlink" x="0px" y="0px"
	 viewBox="0 0 27.4 23.7" style="enable-background:new 0 0 27.4 23.7;" xml:space="preserve">
<style type="text/css">
	.st0{fill:#A153A0;}
	.st1{fill:#FFFFFF;}
</style>
<g>
	<g>
		<polygon class="st0" points="20.5,23.7 27.4,11.8 20.5,0 6.8,0 0,11.8 6.8,23.7 		"/>
	</g>
</g>
<g>
	<path class="st1" d="M12,9.4l-0.1-0.1c-0.3,0.2-0.6,0.4-1,0.7c-0.3,0.3-0.6,0.7-0.8,1L10,10.9c-0.1-0.2-0.2-0.4-0.3-0.4
		c-0.1,0-0.2,0-0.4,0.2c0.1,0,0.2,0.1,0.2,0.2c0.1,0,0.1,0.1,0.1,0.2h0c0,0,0,0.1,0.1,0.1l0.1,0.1c0.1,0.1,0.1,0.2,0.1,0.3
		c0,0,0,0,0,0c0,0,0,0,0,0c0.1,0,0.1-0.1,0.2-0.2l0.1-0.1c0,0,0,0,0,0l0,0c0-0.1,0.1-0.2,0.2-0.3h0c0.2-0.3,0.4-0.5,0.6-0.8
		C11.4,9.9,11.7,9.6,12,9.4z"/>
	<path class="st1" d="M10.5,8.6h6.4c0-0.1,0-0.2,0-0.3c-0.1-0.5-0.4-0.9-1-1.1c-0.1,0-0.2,0-0.2-0.1c-0.3-0.1-0.4-0.3-0.4-0.6
		c0-0.2,0-0.5,0-0.7c0-0.8-0.7-1.4-1.4-1.4c-0.8,0-1.5,0.5-1.6,1.3c0,0.3,0,0.6,0,0.9c0,0.3-0.1,0.4-0.3,0.5c-0.1,0-0.2,0.1-0.3,0.1
		C10.9,7.4,10.5,7.9,10.5,8.6z M13.6,5.5c0.3,0,0.5,0.2,0.5,0.5c0,0.3-0.2,0.5-0.5,0.5c-0.3,0-0.5-0.2-0.5-0.5
		C13.2,5.7,13.4,5.5,13.6,5.5z"/>
	<path class="st1" d="M19.5,6.4c0-0.6-0.4-1-1-1h-2.2h-0.2v0.4c0,0.4,0.2,0.7,0.7,0.7h1.1c0.4,0,0.5,0.1,0.5,0.5c0,1,0,2,0,3v7.6
		c0,0.3-0.2,0.5-0.5,0.5c-2.8,0-5.7,0-8.5,0c-0.4,0-0.5-0.2-0.5-0.5V7c0-0.3,0.2-0.5,0.5-0.5c0.4,0,0.8,0,1.1,0
		c0.3,0,0.6-0.2,0.6-0.5c0-0.2,0-0.4,0-0.6H11H8.8c-0.5,0-1,0.4-1,0.9c0,4,0,7.9,0,11.9c0,0.5,0.4,0.9,0.9,0.9h9.8
		c0.5,0,0.9-0.4,0.9-0.9C19.5,14.3,19.5,10.3,19.5,6.4z"/>
	<path class="st1" d="M16.6,11.5v-0.3v-0.2h-5.7v0.7h0.4c-0.1,0.1-0.2,0.2-0.4,0.3c-0.3,0.3-0.6,0.7-0.8,1L10,12.9
		c-0.1-0.2-0.2-0.4-0.3-0.4c-0.1,0-0.2,0.1-0.4,0.2c0.1,0,0.2,0.1,0.2,0.2c0.1,0.1,0.1,0.2,0.2,0.4l0.1,0.1c0.1,0.1,0.1,0.2,0.1,0.3
		c0.1,0,0.1-0.1,0.2-0.2l0.1-0.1c0.2-0.4,0.4-0.7,0.7-1.1c0.2-0.2,0.4-0.4,0.5-0.6h5V11.5z"/>
	<path class="st1" d="M16.6,13.5v-0.3V13h-5.7v0.7h0.3c-0.1,0.1-0.2,0.2-0.3,0.2c-0.3,0.4-0.6,0.7-0.8,1.1L10,14.9
		c-0.1-0.2-0.2-0.4-0.3-0.4c-0.1,0-0.2,0.1-0.4,0.2c0.1,0,0.2,0.1,0.2,0.2c0.1,0.1,0.1,0.2,0.2,0.4l0.1,0.1c0.1,0.1,0.1,0.2,0.1,0.3
		c0.1-0.1,0.1-0.1,0.2-0.2l0.1-0.1c0.2-0.4,0.4-0.8,0.7-1.2c0.1-0.2,0.3-0.3,0.4-0.5h0c0,0,0,0,0,0h5.1V13.5z"/>
	<polygon class="st1" points="10.9,15.8 16.6,15.8 16.6,15.6 16.6,15.2 16.6,15 10.9,15 	"/>
</g>
<g>
</g>
<g>
</g>
<g>
</g>
<g>
</g>
<g>
</g>
<g>
</g>
</svg>
