<?xml version="1.0" encoding="utf-8"?>
<!-- Generator: Adobe Illustrator 27.3.1, SVG Export Plug-In . SVG Version: 6.00 Build 0)  -->
<svg version="1.1" id="Layer_1" xmlns="http://www.w3.org/2000/svg" xmlns:xlink="http://www.w3.org/1999/xlink" x="0px" y="0px"
	 viewBox="0 0 27.4 23.7" style="enable-background:new 0 0 27.4 23.7;" xml:space="preserve">
<style type="text/css">
	.st0{fill:#A153A0;}
	.st1{fill:#FFFFFF;}
</style>
<g>
	<g>
		<polygon class="st0" points="20.5,23.7 27.4,11.8 20.5,0 6.8,0 0,11.8 6.8,23.7 		"/>
	</g>
</g>
<g>
	<path class="st1" d="M14.9,4.4c0,0-0.1,0.1,0,0.2c0,0,0.1,0,0.1,0h0.1h0c0.2,0,0.3,0.2,0.4,0.3c0.1,0,0.2,0.1,0.4,0.1h0.2
		c0.1,0,0.1,0,0.1,0.1c0,0.1-0.1,0.1-0.2,0.2c0.1,0.1,0,0.1,0,0.3c0,0.1,0.1,0.2,0.1,0.2c0.1,0,0.3-0.1,0.3-0.2
		c0.1-0.1,0-0.3,0.1-0.4c0.5,0,1-0.2,0.9-0.8c0,0,0-0.1,0-0.2c0-0.1,0.1-0.2,0.1-0.3c0.1,0,0.1-0.1,0.1-0.1c0-0.1,0.1-0.2,0.1-0.2
		c0,0,0,0,0,0c0,0,0.1,0,0.1,0h0c0.1,0,0.2,0.1,0.3,0.1c0,0,0.1,0,0.1,0c-0.4-0.2-0.8-0.4-1.2-0.6c0,0,0.1,0.1,0.2,0.1
		c0.1,0.1,0.2,0.1,0.2,0.2c0,0.1-0.1,0.1-0.1,0.1c-0.1,0-0.2-0.1-0.3-0.1c-0.1,0-0.3,0.2-0.4,0.1c-0.1,0-0.1,0-0.1-0.1
		c0-0.1,0.2-0.1,0.2-0.3c0,0,0,0,0,0c-0.1,0-0.1,0-0.2,0.1c-0.1,0-0.1,0.1-0.2,0.1c-0.1,0-0.1,0-0.2,0c-0.1,0-0.2,0.1-0.4,0.2
		c-0.1,0-0.1,0-0.2,0c-0.1,0-0.3,0.1-0.4,0.2C15.2,3.8,15.1,3.9,15,4c0,0-0.2,0.2-0.2,0.2C14.8,4.3,14.9,4.3,14.9,4.4z"/>
	<path class="st1" d="M19.1,4.4c0.1,0,0.2,0,0.2-0.1c0,0,0.1,0,0.1-0.1c-0.1-0.1-0.2-0.2-0.4-0.3c0,0.1-0.1,0.1-0.1,0.2
		C19,4.3,19,4.3,19.1,4.4z"/>
	<path class="st1" d="M13.7,15.6c1.2-0.6,2.1-1.8,2.4-3.1c0.1-0.3,0.1-0.6,0.1-0.9v-0.7l-3.8,3.8C12.7,15,13.2,15.3,13.7,15.6z"/>
	<path class="st1" d="M13.7,9.7l-2.5,0.6v1.2c0,0.3,0,0.6,0.1,0.9c0.1,0.5,0.3,1,0.6,1.4l3.7-3.7C15.2,10.1,14.6,9.9,13.7,9.7z"/>
	<path class="st1" d="M23,10c0-0.2-0.1-0.3-0.1-0.5c0-0.1-0.1-0.3-0.1-0.4c-0.5-1.5-1.3-2.9-2.4-4C20.3,5,20.1,4.8,20,4.7
		c0,0,0,0.1,0,0.1C20,5,20.2,5,20.3,5.1c0,0,0,0.1,0.1,0.1c0,0.1,0.1,0.1,0.1,0.2c0,0.2-0.2,0.2-0.2,0.4c0,0.1-0.1,0.1-0.1,0.2
		c0,0.1,0.1,0.1,0.1,0.1h0.1c0,0,0.1,0,0.1,0.1c0,0.1,0,0.1,0,0.2c0.1,0.1,0.1,0.3-0.1,0.3h0c-0.1,0-0.1-0.1-0.2-0.1
		c-0.1,0-0.1,0-0.2,0h0c-0.1,0-0.1,0-0.2,0c-0.1,0-0.1,0-0.2,0c-0.1,0-0.1,0-0.2,0c0.1-0.2,0.3-0.4,0.5-0.5c0.1,0,0.2-0.1,0.1-0.2
		c0,0,0,0-0.1,0c-0.1,0-0.1,0-0.2,0.1c-0.1,0-0.2,0.1-0.3,0.1c-0.2,0-0.4-0.1-0.6,0c0,0.1,0.2,0,0.1,0.2c0,0-0.1,0-0.1,0
		c0,0-0.1,0-0.1,0c0,0,0-0.1,0-0.1c0,0-0.1,0-0.1,0c-0.1,0-0.1,0-0.2,0c-0.1,0-0.2,0.1-0.3,0.2h0.1c0.1,0,0.2,0,0.2,0
		c0,0,0.1,0,0.1,0.1c-0.1,0.1-0.3,0.2-0.3,0.4c0,0.1,0.1,0.1,0.1,0.2c0.1,0,0.1,0,0.1,0h0c0.1,0,0.1,0,0.1,0.1
		C19,6.8,19,6.7,19.1,6.7h0C19.3,6.9,19,7,18.9,7s-0.4,0.1-0.5,0.1c-0.1,0-0.2,0.2-0.3,0.1c0,0-0.1,0-0.1-0.1c0-0.1,0.1-0.1,0.1-0.2
		c-0.1,0-0.3,0.1-0.4,0.1C17.4,7.2,17,7.3,17,7.6c0,0,0,0.1,0,0.2c0,0-0.2,0-0.3,0.1c-0.1,0-0.2,0.1-0.3,0.1c-0.1,0-0.1,0-0.2,0
		c0,0,0,0,0,0l-2.6-0.6l-4.3,1v3.2c0,0.4,0,0.7,0.1,1.1c-0.1,0-0.1,0-0.1-0.1c-0.1,0-0.1-0.1-0.2-0.2c-0.1,0-0.2-0.1-0.2-0.2
		C8.9,12.1,9,12,9,11.9c0-0.3-0.2-0.5-0.3-0.6c-0.1-0.1-0.2-0.2-0.3-0.3v-0.2c-0.1-0.1-0.1-0.2-0.2-0.3C8.1,10.5,8,10.4,8,10.3
		c0-0.1,0-0.3,0-0.4c-0.1-0.2-0.4-0.1-0.3,0.1c0,0.1,0.1,0.2,0.1,0.3c0,0.1,0,0.2,0.1,0.3c0,0.1,0.1,0.2,0.1,0.3
		c0,0.1,0,0.3,0.1,0.4c0,0.1,0.2,0.2,0.1,0.3c-0.1,0-0.1-0.1-0.2-0.1c0,0-0.2-0.1-0.2-0.2c0-0.1,0-0.1,0-0.2c0-0.2-0.4-0.2-0.4-0.3
		c0-0.1,0.1-0.1,0.1-0.2c0-0.1-0.1-0.2-0.2-0.3c0-0.1,0-0.2,0-0.3c0-0.1,0-0.3,0-0.3c0-0.1-0.1-0.2-0.2-0.2C7,9.2,7,9.2,6.9,9.1
		c0-0.1-0.1-0.2-0.1-0.3c0-0.1,0-0.3,0-0.4c0-0.1,0-0.3,0-0.4h0v0C6.9,7.9,7,7.8,7,7.7c0-0.1,0.1-0.2,0.1-0.3
		c0.1-0.1,0.3-0.3,0.4-0.4c0.1-0.1,0.3-0.3,0.3-0.5c0-0.1,0.1-0.2,0.1-0.3c0-0.1-0.2-0.2-0.2-0.3c0-0.1,0.1-0.1,0.1-0.1
		c0,0,0-0.1,0-0.2c0-0.1-0.1-0.2,0-0.3C7.9,5.2,8,5.1,7.9,5c0,0,0,0-0.1,0c0,0-0.1,0-0.2,0c0,0,0,0-0.1,0c-0.1-0.1,0-0.1,0-0.3
		c0,0,0-0.1,0-0.1c0-0.1,0.1-0.1,0.1-0.2c0,0,0-0.1-0.1-0.1C7.6,4.4,7.5,4.5,7.4,4.5C5.3,6.3,4,8.9,4,11.9c0,5.3,4.3,9.7,9.6,9.7
		c0.8,0,1.6-0.1,2.3-0.3c0,0,0,0,0,0c0-0.2,0-0.4,0-0.6c0-0.1-0.1-0.4-0.1-0.5c-0.1-0.1-0.3-0.3-0.4-0.3c-0.1,0-0.2-0.1-0.3-0.1
		c0,0-0.1,0-0.1-0.1l0-0.1l-0.5-0.5v0c-0.1-0.1-0.2-0.2-0.2-0.3c-0.1-0.2-0.3-0.5-0.4-0.7c-0.1-0.1-0.1-0.3-0.2-0.3
		c0,0-0.2-0.1-0.2-0.2c0,0,0-0.1,0-0.1l0.2,0.1l0.3-0.1c1.2-0.5,2.2-1.3,2.9-2.3c0.2-0.3,0.4-0.6,0.5-0.9c0,0,0.1,0,0.1,0h0
		c0,0.1,0,0.1,0.1,0.2c0,0,0,0.1,0,0.1c0.1,0.1,0.1,0.1,0.2,0.1c0.1,0.1,0.1,0.1,0.2,0.3c0.1,0.1,0.2,0.2,0.4,0.2c0.1,0,0.2,0,0.3,0
		h0h0c0.2,0,0.4,0.1,0.5,0.3c0.1,0.1,0.2,0.1,0.2,0.2c0,0,0,0.1,0,0.2c0,0.1,0.3,0.2,0.2,0.4c0,0.1,0.1,0.1,0.2,0.1
		c0.1,0,0.1,0.1,0.2,0.1h0.1h0c0.1,0,0.2,0.1,0.3,0.1c0.1,0,0.1,0,0.2,0.1c0,0,0.1,0.2,0.1,0.2c0,0,0.1,0,0.2,0l0,0h0
		c0,0,0.1,0,0.2,0c0.1,0,0.1,0,0.2,0c0.1,0,0.1,0,0.2,0h0h0c0,0,0.1,0,0.1,0c0.9-1.5,1.5-3.2,1.5-5.1C23.2,11.2,23.2,10.6,23,10z
		 M17.1,11.5c0,2.3-1.4,4.3-3.5,5.1c-2-0.8-3.5-2.8-3.5-5.1V9l1.3-0.3v0.5l1.4-0.3V8.4l0.8-0.2l0.8,0.2v0.5l1.4,0.3V8.8L17.1,9V11.5
		z"/>
</g>
<g>
</g>
<g>
</g>
<g>
</g>
<g>
</g>
<g>
</g>
<g>
</g>
</svg>
