<?xml version="1.0" encoding="UTF-8"?><svg id="uuid-cb336f69-fcd4-4b01-872d-1b0ef41f26eb" xmlns="http://www.w3.org/2000/svg" width=".54in" height=".5in" viewBox="0 0 38.88 35.96"><path d="m38.43,20.4c-.23-.46-.61-.71-.61-.71,0,0-1.93-1.54-2.81.32-.87,1.85-3.55,2.78-3.55,2.78l-3.07,1.16s0-.02,0-.03c2.86-2.5,4.67-6.17,4.67-10.27,0-7.53-6.11-13.64-13.64-13.64S5.78,6.11,5.78,13.64c0,4.08,1.79,7.74,4.64,10.24-2.26-.83-3.77-1.39-3.77-1.39,0,0,.05-2.15-1.48-2.81-1.54-.66-2.22.98-2.41,1.64,0,0-2.89.16-2.75,1.83.13,1.67,2.89,1.93,4.87.74l6.55,2.47c.27,1.25.82,2.4,1.59,3.37l-4.69,1.74c-1.99-1.19-4.74-.93-4.87.74-.13,1.67,2.75,1.83,2.75,1.83.19.66.87,2.3,2.41,1.64,1.54-.66,1.48-2.81,1.48-2.81,0,0,.45-.12,4.51-1.61,1.36.99,3.03,1.57,4.83,1.57s3.52-.6,4.89-1.61l5.06,1.23s1.84.72,2.71,2.57c.87,1.85,2.81.32,2.81.32,0,0,.38-.26.61-.72.5-.99.9-2.6-.61-2.38,0,0,.85-1.09.58-1.8-.26-.71-1.64-1.14-2.6-.74-.95.4-2.09,1.08-3.24.88-.31-.05-.8.02-3.66-1.01.66-.88,1.15-1.89,1.42-2.99,2.51-.91,4.32-1.55,4.6-1.62,1.09-.26,2.83-.05,3.79.34.95.4,2.33-.03,2.6-.74.26-.72-.58-1.8-.58-1.8,1.5.22,1.11-1.39.61-2.38" fill="#f06650" fill-rule="evenodd"/><path d="m23.7,4.82h-8.39c-.7,0-1.26.57-1.26,1.26v15.83c0,.69.57,1.26,1.26,1.26h8.4c.7,0,1.26-.57,1.26-1.26V6.09c0-.7-.57-1.26-1.26-1.26Zm-3.66,16.99c0,.2-.16.36-.35.36h-.37c-.2,0-.36-.16-.36-.36v-.37c0-.2.16-.36.36-.36h.37c.2,0,.35.16.35.36v.37Zm3.38-1.87h-7.85V6.49h7.85v13.45Z" fill="#fff"/></svg>