<?xml version="1.0" encoding="UTF-8"?><svg id="uuid-3ab3f151-c792-49bc-b2aa-99cc934f10d3" xmlns="http://www.w3.org/2000/svg" width=".54in" height=".54in" viewBox="0 0 38.88 38.88"><path d="m38.88,19.44c0,10.74-8.7,19.44-19.44,19.44C8.7,38.88,0,30.18,0,19.44,0,8.7,8.7,0,19.44,0s19.44,8.7,19.44,19.44Z" fill="#f06650"/><g><path d="m24.14,13.73h-2.94v-1.31h.68c.3,0,.54-.24.54-.54v-6.52c0-.3-.24-.54-.54-.54s-.54.24-.54.54v5.98h-4.05v-5.98c0-.3-.24-.54-.54-.54s-.54.24-.54.54v6.52c0,.3.24.54.54.54h.68v1.31h-2.94c-1.48,0-2.69,1.21-2.69,2.69v14.78c0,1.48,1.21,2.69,2.69,2.69h9.63c1.48,0,2.69-1.21,2.69-2.69v-14.78c0-1.48-1.21-2.69-2.69-2.69Zm-4.01-1.31v2.8h-1.61v-2.8h1.61Zm5.63,18.77c0,.89-.72,1.62-1.62,1.62h-9.63c-.89,0-1.62-.72-1.62-1.62v-14.78c0-.89.72-1.62,1.62-1.62h2.94v.95c0,.3.24.54.54.54h2.68c.3,0,.54-.24.54-.54v-.95h2.94c.89,0,1.62.72,1.62,1.62v14.78Z" fill="#fff"/><path d="m22.61,26.85c-.49-.37-1.04-.64-1.61-.82,1.07-.55,1.8-1.67,1.8-2.95,0-1.83-1.49-3.32-3.32-3.32s-3.32,1.49-3.32,3.32c0,1.25.7,2.35,1.73,2.91-.63.18-1.22.47-1.75.86-.92.69-1.6,1.62-1.95,2.71-.09.28.07.58.35.67.05.02.11.03.16.03.23,0,.44-.15.51-.37.28-.88.82-1.63,1.56-2.18.76-.56,1.66-.86,2.6-.86s1.84.3,2.6.86c.74.55,1.28,1.3,1.56,2.18.09.28.39.44.67.35.28-.09.44-.39.35-.67-.35-1.09-1.02-2.03-1.95-2.71Zm-.88-3.78c0,.43-.12.83-.33,1.17l-3.09-3.09c.34-.21.74-.33,1.17-.33,1.24,0,2.25,1.01,2.25,2.25Zm-4.18-1.16l3.09,3.09c-.34.21-.74.32-1.16.32-1.24,0-2.25-1.01-2.25-2.25,0-.42.12-.82.32-1.16Z" fill="#fff"/></g></svg>