<?xml version="1.0" encoding="UTF-8"?><svg id="uuid-6e72031f-cc91-4ba2-b026-8ca8f991ca40" xmlns="http://www.w3.org/2000/svg" width=".54in" height=".5in" viewBox="0 0 38.88 35.96"><path d="m38.43,20.4c-.23-.46-.61-.71-.61-.71,0,0-1.93-1.54-2.81.32-.87,1.85-3.55,2.78-3.55,2.78l-3.07,1.16s0-.02,0-.03c2.86-2.5,4.67-6.17,4.67-10.27,0-7.53-6.11-13.64-13.64-13.64S5.78,6.11,5.78,13.64c0,4.08,1.79,7.74,4.64,10.24-2.26-.83-3.77-1.39-3.77-1.39,0,0,.05-2.15-1.48-2.81-1.54-.66-2.22.98-2.41,1.64,0,0-2.89.16-2.75,1.83.13,1.67,2.89,1.93,4.87.74l6.55,2.47c.27,1.25.82,2.4,1.59,3.37l-4.69,1.74c-1.99-1.19-4.74-.93-4.87.74-.13,1.67,2.75,1.83,2.75,1.83.19.66.87,2.3,2.41,1.64,1.54-.66,1.48-2.81,1.48-2.81,0,0,.45-.12,4.51-1.61,1.36.99,3.03,1.57,4.83,1.57s3.52-.6,4.89-1.61l5.06,1.23s1.84.72,2.71,2.57c.87,1.85,2.81.32,2.81.32,0,0,.38-.26.61-.71.5-.99.9-2.6-.61-2.38,0,0,.85-1.09.58-1.8-.26-.71-1.64-1.14-2.6-.74-.95.4-2.09,1.08-3.24.88-.31-.05-.8.02-3.66-1.01.66-.88,1.15-1.89,1.42-2.99,2.51-.91,4.32-1.55,4.6-1.62,1.09-.26,2.83-.05,3.79.34.95.4,2.33-.03,2.6-.74.26-.71-.58-1.8-.58-1.8,1.5.22,1.11-1.39.61-2.38" fill="#f06650" fill-rule="evenodd"/><g><path d="m25.47,23.04c-.06-.45-.22-.82-.24-.87-.04-.08-.7-1.56-1.58-3.31-1.22-2.41-2.25-4.16-3.07-5.2-.64-.81-1.38-1.25-2.2-1.31-.07,0-.13,0-.2,0l1.38-1.45c.12-.13.12-.33-.01-.46s-.33-.12-.46.01l-1.01,1.06-.05-10.24c0-.18-.14-.32-.32-.32h0c-.18,0-.32.15-.32.32l.06,10.92s-.05.1-.05.15l-.75-2.16c-.07-.21-.23-.37-.44-.45-.22-.08-.47-.07-.68.05l-.51.28-.21-.34c-.13-.21-.34-.35-.58-.39-.26-.05-.54.02-.76.2l-.63.5c-.22.17-.35.42-.37.69-.01.25.07.48.25.66l.27.27-.42.46c-.16.18-.24.42-.21.65.03.22.15.41.34.53l1.43.91c.05.03.11.05.17.05.11,0,.21-.05.27-.15.1-.15.05-.35-.1-.44l-1.43-.91s-.04-.04-.05-.07c0-.05.01-.1.05-.14l.39-.44,1,1.01c.13.13.33.13.46,0,.13-.13.13-.33,0-.46l-1.73-1.74c-.05-.05-.06-.12-.06-.17,0-.08.05-.17.12-.22l.63-.5c.07-.06.16-.08.25-.07.05,0,.11.03.15.1l.33.54s.01.03.02.05c.01.03.03.05.05.07l1.47,2.39c-.1.07-.17.13-.2.16-.18.12-1.25.91-1.46,2.17-.13.81.12,1.64.76,2.44.82,1.04,2.28,2.45,4.35,4.19,1.53,1.29,2.84,2.3,2.86,2.31.01.01.35.26.8.43.26.09.51.14.74.14.35,0,.66-.1.92-.31h0c.45-.36.65-.91.57-1.59Zm-10.12-12.43l.48-.26s.1-.03.14-.01c.03.01.05.03.06.06l.8,2.28c-.05.03-.11.05-.16.08l-1.32-2.14Zm9.15,13.51h0c-.16.13-.34.17-.53.17-.56,0-1.14-.43-1.14-.44,0,0-.2-.15-.51-.4l.85-.67c.14-.11.16-.31.05-.45-.11-.14-.31-.16-.45-.05l-.97.77c-.75-.6-1.81-1.47-2.88-2.4l2.44-1.93c.14-.11.16-.31.05-.45-.11-.14-.31-.16-.45-.05l-2.53,2c-.99-.89-1.94-1.81-2.58-2.59l2.16-1.7c.14-.11.16-.31.05-.45-.11-.14-.31-.16-.45-.05l-2.14,1.69c-.32-.53-.45-1.05-.37-1.56.17-1.06,1.19-1.75,1.2-1.75.02-.01.03-.02.04-.04,0,0,.83-.76,1.84-.76.05,0,.1,0,.15,0,.63.05,1.22.4,1.74,1.06.3.38.61.84.94,1.36l-1.66,1.31c-.14.11-.16.31-.05.45.06.08.16.12.25.12.07,0,.14-.02.2-.07l1.6-1.26c.69,1.16,1.39,2.5,1.96,3.65l-1.03.81c-.14.11-.16.31-.05.45.06.08.16.12.25.12.07,0,.14-.02.2-.07l.92-.72c.62,1.27,1.03,2.2,1.04,2.22,0,0,0,0,0,0,0,.01.54,1.14-.14,1.68Z" fill="#fff"/><path d="m18.51,17.39l-.22.17c-.14.11-.16.31-.05.45.06.08.16.12.25.12.07,0,.14-.02.2-.07l.22-.17c.14-.11.16-.31.05-.45-.11-.14-.31-.16-.45-.05Z" fill="#fff"/><path d="m18.61,14.63l-.22.17c-.14.11-.16.31-.05.45.06.08.16.12.25.12.07,0,.14-.02.2-.07l.22-.17c.14-.11.16-.31.05-.45-.11-.14-.31-.16-.45-.05Z" fill="#fff"/></g></svg>