<?xml version="1.0" encoding="UTF-8"?><svg id="uuid-c417226d-da9c-466f-a1a5-fbcbf3ccbb72" xmlns="http://www.w3.org/2000/svg" width=".54in" height=".54in" viewBox="0 0 38.88 38.88"><path d="m38.88,19.44c0,10.74-8.7,19.44-19.44,19.44C8.7,38.88,0,30.18,0,19.44,0,8.7,8.7,0,19.44,0s19.44,8.7,19.44,19.44Z" fill="#f06650"/><g><path d="m29.29,19.51c-.19-.08-.42-.13-.68-.15-.11-2.37-.81-4.35-2.03-5.75-1.12-1.28-2.65-2.05-4.32-2.16-.18-.01-.36.05-.49.18-.13.12-.21.3-.21.48,0,.34.27.63.61.65,3.79.26,5.14,3.93,5.14,7.27v.66h1.34s.05.02.05.05c.06.75-.05,1.75-.22,2.02l-1.03.06-.11.48c-.38,1.63-1.12,3.28-2.05,4.52-.99,1.33-2.14,2.13-3.22,2.26-.33.04-.58.32-.58.65,0,.19.08.37.22.49.12.11.28.17.44.17.02,0,.05,0,.07,0,1.41-.16,2.79-1.06,3.98-2.59,1.02-1.3,1.83-2.97,2.3-4.72h.14c.32-.03.61-.18.83-.44.75-.89.55-2.97.53-3.2-.05-.43-.29-.75-.7-.92Z" fill="#fff"/><path d="m30.25,9.73c-.63-.66-1.56-1.34-2.62-1.91-1.06-.57-2.14-.97-3.04-1.13-1.5-.26-2.1.21-2.34.66h0c-.24.45-.31,1.21.74,2.31.63.66,1.56,1.34,2.62,1.91,1.06.57,2.14.97,3.04,1.13.3.05.56.08.79.08.93,0,1.36-.38,1.55-.74.24-.45.31-1.21-.74-2.31Zm-1.63,1.45c-.69-.16-1.51-.49-2.3-.91-.79-.43-1.51-.93-2.03-1.41-.36-.34-.54-.59-.62-.74.18-.02.49,0,.96.11.69.16,1.51.49,2.3.91.79.43,1.51.93,2.03,1.41.36.34.54.59.62.74-.18.02-.49,0-.96-.11Z" fill="#fff"/><path d="m16.82,30.07c-1.09-.12-2.23-.93-3.22-2.26-.93-1.24-1.67-2.89-2.05-4.52l-.11-.48-.96-.06c-.27-.36-.57-1.41-.69-2.24.21.14.45.23.73.23h1.05s0-.72,0-.72c0-5.11,2.65-7.1,5.14-7.27.34-.02.61-.31.61-.65,0-.18-.08-.36-.21-.48-.13-.12-.31-.19-.49-.18-.35.02-.69.08-1.03.16-.4-.87-.7-1.96-.74-2.74-.02-.43,0-.87.06-1.3v-.02s.01-.52.01-.52l-.89-.62-.48.39c-.71.58-1.29,1.26-1.73,2.02-1.07,1.85-1.32,4.08-.68,6.13l.09.29c-.54,1.11-.86,2.43-.95,3.9-.07-.06-.13-.12-.19-.18-.47-.45-.96-.91-1.39-.69-.4.2-.49.86-.32,2.27,0,.02.28,2.2,1.04,3.1.22.26.51.41.83.43h.13c.47,1.76,1.28,3.43,2.3,4.73,1.19,1.53,2.57,2.43,3.98,2.59.02,0,.05,0,.07,0,.16,0,.32-.06.44-.17.14-.12.22-.3.22-.49,0-.33-.25-.61-.58-.65Zm-4.35-16.66c-.17-1.3.1-2.64.76-3.78.02-.03.03-.06.05-.09.12.92.39,1.8.81,2.62-.6.32-1.14.74-1.62,1.25Z" fill="#fff"/><path d="m19.87,1.29s0-.04-.01-.06c0-.02-.01-.04-.02-.05,0-.02-.02-.04-.02-.05,0-.02-.02-.03-.03-.05-.01-.02-.02-.03-.03-.05-.01-.02-.03-.03-.04-.04s-.03-.03-.04-.04c-.01-.01-.03-.02-.05-.03-.02-.01-.03-.02-.05-.03-.02,0-.03-.02-.05-.02-.02,0-.04-.01-.05-.02-.02,0-.04-.01-.06-.01-.02,0-.04,0-.06,0-.04,0-.08,0-.12,0-.02,0-.04,0-.06,0-.02,0-.04,0-.06.01-.02,0-.04.01-.05.02-.02,0-.04.02-.05.02-.02,0-.03.02-.05.03-.02.01-.03.02-.05.03-.02.01-.03.03-.04.04s-.03.03-.04.04c-.01.01-.02.03-.03.05-.01.02-.02.03-.03.05,0,.02-.02.03-.02.05,0,.02-.01.04-.02.05,0,.02-.01.04-.01.06,0,.02,0,.04,0,.06,0,.02,0,.04,0,.06s0,.04,0,.06c0,.02,0,.04,0,.06,0,.02,0,.04.01.06,0,.02.01.04.02.05s.02.04.02.05c0,.02.02.03.03.05.01.02.02.03.03.05.01.02.03.03.04.04s.03.03.04.04c.01.01.03.02.05.03.02.01.03.02.05.03.02,0,.03.02.05.02.02,0,.04.01.05.02.02,0,.04.01.06.01.02,0,.04,0,.06,0,.02,0,.04,0,.06,0s.04,0,.06,0c.02,0,.04,0,.06,0,.02,0,.04,0,.06-.01.02,0,.04-.01.05-.02.02,0,.04-.02.05-.02.02,0,.03-.02.05-.03.02-.01.03-.02.05-.03.02-.01.03-.03.04-.04s.03-.03.04-.04c.01-.01.02-.03.03-.05.01-.02.02-.03.03-.05,0-.02.02-.03.02-.05s.01-.04.02-.05c0-.02.01-.04.01-.06,0-.02,0-.04,0-.06,0-.02,0-.04,0-.06s0-.04,0-.06c0-.02,0-.04,0-.06Z" fill="#fff"/><circle cx="19.28" cy="26.96" r=".6" fill="#fff"/><circle cx="19.28" cy="24.83" r=".6" fill="#fff"/><circle cx="19.28" cy="29.09" r=".6" fill="#fff"/><circle cx="19.28" cy="22.7" r=".6" fill="#fff"/><circle cx="19.28" cy="35.47" r=".6" fill="#fff"/><circle cx="19.28" cy="33.34" r=".6" fill="#fff"/><circle cx="19.28" cy="31.22" r=".6" fill="#fff"/><circle cx="19.28" cy="20.57" r=".6" fill="#fff"/><circle cx="19.28" cy="5.67" r=".6" fill="#fff"/><circle cx="19.28" cy="7.79" r=".6" fill="#fff"/><circle cx="19.28" cy="9.92" r=".6" fill="#fff"/><circle cx="19.28" cy="3.54" r=".6" fill="#fff"/><path d="m19.28,17.85c-.33,0-.6.27-.6.6s.27.6.6.6.6-.27.6-.6-.27-.6-.6-.6Z" fill="#fff"/><circle cx="19.28" cy="12.05" r=".6" fill="#fff"/><circle cx="19.28" cy="16.31" r=".6" fill="#fff"/><circle cx="19.28" cy="14.18" r=".6" fill="#fff"/><path d="m19.87,37.49s0-.04-.01-.06c0-.02-.01-.04-.02-.05,0-.02-.02-.04-.02-.05,0-.02-.02-.03-.03-.05-.01-.02-.02-.03-.03-.05-.01-.02-.03-.03-.04-.04s-.03-.03-.04-.04c-.01-.01-.03-.02-.05-.03-.02-.01-.03-.02-.05-.03-.02,0-.03-.02-.05-.02-.02,0-.04-.01-.05-.02-.02,0-.04-.01-.06-.01-.02,0-.04,0-.06,0-.04,0-.08,0-.12,0-.02,0-.04,0-.06,0-.02,0-.04,0-.06.01-.02,0-.04.01-.05.02-.02,0-.04.02-.05.02-.02,0-.03.02-.05.03-.02.01-.03.02-.05.03-.02.01-.03.03-.04.04s-.03.03-.04.04c-.01.01-.02.03-.03.05-.01.02-.02.03-.03.05,0,.02-.02.03-.02.05,0,.02-.01.04-.02.05,0,.02-.01.04-.01.06,0,.02,0,.04,0,.06,0,.02,0,.04,0,.06s0,.04,0,.06c0,.02,0,.04,0,.06,0,.02,0,.04.01.06,0,.02.01.04.02.05,0,.02.02.04.02.05,0,.02.02.03.03.05.01.02.02.03.03.05.01.02.03.03.04.04s.03.03.04.04c.01.01.03.02.05.03.02.01.03.02.05.03.02,0,.03.02.05.02.02,0,.04.01.05.02.02,0,.04.01.06.01.02,0,.04,0,.06,0,.02,0,.04,0,.06,0s.04,0,.06,0c.02,0,.04,0,.06,0,.02,0,.04,0,.06-.01.02,0,.04-.01.05-.02.02,0,.04-.02.05-.02.02,0,.03-.02.05-.03.02-.01.03-.02.05-.03.02-.01.03-.03.04-.04s.03-.03.04-.04c.01-.01.02-.03.03-.05.01-.02.02-.03.03-.05,0-.02.02-.03.02-.05,0-.02.01-.04.02-.05,0-.02.01-.04.01-.06,0-.02,0-.04,0-.06,0-.02,0-.04,0-.06s0-.04,0-.06c0-.02,0-.04,0-.06Z" fill="#fff"/></g></svg>