<?xml version="1.0" encoding="UTF-8"?><svg id="uuid-4214ca18-6637-41de-9c02-6ab2f7fb46cf" xmlns="http://www.w3.org/2000/svg" width=".54in" height=".5in" viewBox="0 0 38.88 35.96"><path d="m38.43,20.4c-.23-.46-.61-.71-.61-.71,0,0-1.93-1.54-2.81.32-.87,1.85-3.55,2.78-3.55,2.78l-3.07,1.16s0-.02,0-.03c2.86-2.5,4.67-6.17,4.67-10.27,0-7.53-6.11-13.64-13.64-13.64S5.78,6.11,5.78,13.64c0,4.08,1.79,7.74,4.64,10.24-2.26-.83-3.77-1.39-3.77-1.39,0,0,.05-2.15-1.48-2.81-1.54-.66-2.22.98-2.41,1.64,0,0-2.89.16-2.75,1.83.13,1.67,2.89,1.93,4.87.74l6.55,2.47c.27,1.25.82,2.4,1.59,3.37l-4.69,1.74c-1.99-1.19-4.74-.93-4.87.74-.13,1.67,2.75,1.83,2.75,1.83.19.66.87,2.3,2.41,1.64,1.54-.66,1.48-2.81,1.48-2.81,0,0,.45-.12,4.51-1.61,1.36.99,3.03,1.57,4.83,1.57s3.52-.6,4.89-1.61l5.06,1.23s1.84.72,2.71,2.57c.87,1.85,2.81.32,2.81.32,0,0,.38-.26.61-.72.5-.99.9-2.6-.61-2.38,0,0,.85-1.09.58-1.8-.26-.71-1.64-1.14-2.6-.74-.95.4-2.09,1.08-3.24.88-.31-.05-.8.02-3.66-1.01.66-.88,1.15-1.89,1.42-2.99,2.51-.91,4.32-1.55,4.6-1.62,1.09-.26,2.83-.05,3.79.34.95.4,2.33-.03,2.6-.74.26-.72-.58-1.8-.58-1.8,1.5.22,1.11-1.39.61-2.38" fill="#f06650" fill-rule="evenodd"/><g><path d="m23.21,15.76l-.05-.11-.07-.08-.09-.08-.1-.06-.12-.03h-.06s-.06-.02-.06-.02h-1.09l-.08-.21-.07-.22-.09-.2-.1-.2.78-.82.04-.05.04-.05.05-.12.03-.12v-.12s0-.12,0-.12l-.03-.13-.05-.11-.04-.05-.04-.04-.78-.83-.04-.04-.05-.04-.11-.05-.11-.04h-.11s-.11,0-.11,0l-.12.04-.1.05-.05.04-.05.04-.77.82-.19-.09-.2-.11-.2-.08-.21-.06v-1.17h0s-.01-.03-.01-.03h0v-.03h0v-.05h0v-.03h0s-.01-.03-.01-.03h0s0-.02,0-.02v-.02h-.01v-.04s-.01,0-.01,0h0s-.01-.03-.01-.03h0s0-.02,0-.02h-.01s0-.02,0-.02v-.02h0s-.01-.02-.01-.02h0s-.01-.02-.01-.02h0s-.01-.02-.01-.02h-.01s0-.02,0-.02h0s0-.02,0-.02h-.01s-.01-.02-.01-.02h0s0-.01,0-.01h0s-.02-.02-.02-.02h0s-.01-.01-.01-.01h0s-.01-.03-.01-.03h-.03s0-.02,0-.02h-.04s-.01,0-.01,0h-.02s-.01-.01-.01-.01h-.03s-.01-.01-.01-.01h-.03s-.02-.01-.02-.01h-1.3s-.11.04-.11.04l-.1.07-.09.07-.08.09-.05.11-.04.12v.13s0,1.17,0,1.17l-.2.06-.21.08-.19.11-.2.09-.77-.82-.05-.04-.05-.04-.1-.05-.11-.04h-.11s-.12,0-.12,0l-.11.04-.1.05-.05.04-.05.04-.78.83-.04.04-.03.05-.05.11-.04.13-.02.12.02.12.04.12.05.12.03.05.04.05.78.82-.1.2-.09.2-.08.22-.06.21h-1.15s-.02.01-.02.01h-.05s-.02.01-.02.01h-.03s-.01.01-.01.01h-.03s-.01.01-.01.01h-.01s-.02.02-.02.02h-.02s-.02.01-.02.01h-.01s0,.03,0,.03h-.01s-.02.01-.02.01h-.01s0,.02,0,.02h0s0,.02,0,.02h-.01s0,.02,0,.02h-.02s0,.02,0,.02h-.01s0,.02,0,.02h0s0,.02,0,.02h-.01s-.01.02-.01.02h0v.02h0s0,.03,0,.03h-.01v.02h-.01s0,.03,0,.03h0s0,.02,0,.02v.02h0v.04s-.01.01-.01.01h0s-.01.03-.01.03h0v.03h0v.07h0v1.21h0v.05h0v.04h0v.03h0s.01.03.01.03h0v.05s.01.01.01.01h0v.03h0v.04s.02.01.02.01h0s.01.02.01.02v.02s.02,0,.02,0h0s0,.02,0,.02h.01s.01.02.01.02h0s0,.02,0,.02h0s.01.02.01.02h0s.02.02.02.02h0s.01.02.01.02h0s0,.02,0,.02h0s.01.02.01.02h.03s0,.02,0,.02h.01s.02.01.02.01h.01s0,.01,0,.01h.02s.01.02.01.02h.02s.02.01.02.01h.03s0,.01,0,.01h.03s.01.01.01.01h.06s.02.01.02.01h1.12l.04.14h-2.02s-.12-.03-.12-.03l-.12-.03-.1-.04-.1-.05-.09-.06-.09-.08-.09-.09-.08-.08-.07-.1-.07-.1-.05-.11-.04-.12-.03-.12-.02-.12v-.13s0-7,0-7h14.16l.08-.03.08-.04.06-.05.05-.07.05-.08.02-.08v-.1s0-2.07,0-2.07v-.14s-.03-.13-.03-.13l-.03-.13-.04-.14-.06-.11-.07-.11-.08-.11-.08-.1-.1-.09-.09-.07-.1-.07-.11-.06-.11-.04-.13-.04-.12-.02h-13.02l-.11.02-.11.03-.1.04-.12.05-.1.06-.1.08-.09.1-.09.11-.08.13-.08.14-.06.15-.05.19-.04.2-.02.21v.24s-.01,9.15-.01,9.15v.22s.04.21.04.21l.05.22.07.2.09.19.11.18.11.16.13.16.14.14.17.12.16.11.19.1.18.07.19.05.22.03h.2s1.99,0,1.99,0l-.58.6-.04.05-.03.05-.05.11-.04.13-.02.12.02.12.04.12.05.12.03.05.04.04.78.83.05.04.05.04.1.05.11.04h.12s.11,0,.11,0l.11-.04.1-.05.05-.04.05-.04.77-.82.2.1.19.09.21.08.2.07v1.2h0s0,.03,0,.03h0v.04h0s.01.03.01.03h0v.03h.01v.05s0,.01,0,.01h.01v.03h0s.01.02.01.02v.02h0s0,.02,0,.02h0s.01.02.01.02v.02s.02,0,.02,0h0s.01.02.01.02h.01v.02h0s.02.02.02.02h.01s.01.02.01.02h.02s0,.02,0,.02h.01s0,.02,0,.02h.02s0,.02,0,.02h.01s.02,0,.02,0h0s.01.02.01.02h.03s0,.02,0,.02h.03s.01.01.01.01h0s.02,0,.02,0h.03s.01.01.01.01h.03s0,0,0,0h1.29s.02,0,.02,0h.03s0-.01,0-.01h.03s.01,0,.01,0h0s.03-.01.03-.01h0s.01-.02.01-.02h.03s0-.02,0-.02h.02s.02-.02.02-.02h0s0,0,0,0h0s.01-.02.01-.02h.01s0-.02,0-.02h0s0-.02,0-.02h.01s.01-.02.01-.02h0s.01-.02.01-.02h0s.01-.02.01-.02h0v-.03h0s.01-.02.01-.02h0v-.04s.02-.01.02-.01h0s.01-.03.01-.03h0s.01-.02.01-.02v-.04s0-.01,0-.01v-.02s.01-.01.01-.01v-.02h0v-.03h0v-.04h0s.01-.03.01-.03v-1.18l.21-.07.2-.08.2-.09.19-.1.77.82.05.04.05.04.1.05.12.04h.11s.11,0,.11,0l.11-.04.11-.05.05-.04.04-.04.78-.83.04-.04.04-.05.05-.12.03-.12v-.12s0-.12,0-.12l-.03-.13-.05-.11-.04-.05-.04-.05-.78-.82.1-.2.09-.21.07-.21.08-.22h1.14s0-.01,0-.01h.06s.02-.01.02-.01h.02s.02-.01.02-.01h.03s.02-.01.02-.01h.01s.02-.02.02-.02h.02s.01-.01.01-.01h.02s.01-.02.01-.02h0s.01-.01.01-.01h0s.01-.02.01-.02h.02s0-.02,0-.02h0s.01-.02.01-.02h0s.01-.02.01-.02h0s.01-.02.01-.02h.01s0-.02,0-.02h0v-.02h0s.01-.02.01-.02h.01s0-.03,0-.03h0s0-.02,0-.02h0v-.03h.01v-.04s.02-.01.02-.01h0v-.05s.01-.01.01-.01v-.02s0,0,0,0v-.02h0s.01-.03.01-.03h0v-.06h0v-1.31s-.05-.12-.05-.12Zm-.79-8.77h1.46v1.58h-1.46v-1.58Zm-2.37,0h1.45v1.58h-1.45v-1.58Zm-1.2,9.73l-.02.13-.03.13-.03.12-.05.1-.06.09-.07.1-.07.1-.1.07-.09.07-.09.06-.1.05-.11.04-.12.02-.12.03h-.12s-.13,0-.13,0l-.11-.03-.11-.02-.11-.04-.11-.05-.1-.06-.09-.07-.08-.07-.07-.1-.07-.1-.07-.09-.05-.1-.04-.12-.03-.13v-.13s-.02-.12-.02-.12v-.13s.02-.14.02-.14l.03-.12.04-.12.05-.1.07-.11.07-.09.07-.1.08-.07.09-.07.1-.06.11-.06.11-.04.11-.03h.11s.13-.02.13-.02h.12s.12.02.12.02l.12.03.11.04.1.06.09.06.09.07.1.07.07.1.07.09.06.11.05.1.03.12.03.12.02.14v.13s0,.12,0,.12Z" fill="#fff" fill-rule="evenodd"/><path d="m30.45,13.91l-.03-.06-.06-.06-.05-.05-.07-.03-.07-.03h-.8l-.04-.16-.05-.14-.06-.13-.06-.13.51-.56.05-.06.04-.06.02-.07v-.16l-.02-.08-.04-.07-.05-.06-.51-.54-.06-.05-.08-.04-.07-.02h-.07s-.08,0-.08,0l-.07.02-.07.04-.07.05-.5.54-.12-.06-.13-.06-.14-.05-.13-.04v-.77h0v-.02h0v-.02h0v-.02h0s-.01-.02-.01-.02h0v-.02h0s0-.02,0-.02h0v-.02h-.01v-.02h-.01v-.02h0s0-.01,0-.01h0s-.01-.02-.01-.02h0s0-.02,0-.02h-.01v-.02h0s-.01-.02-.01-.02h0s-.01-.01-.01-.01h0v-.02h-.02s-.01-.02-.01-.02h0s-.01-.01-.01-.01h-.01s0-.02,0-.02h-.03s-.01-.02-.01-.02h-.03s-.01,0-.01,0h-.03s0-.01,0-.01h-.04s0-.01,0-.01h-.83s-.07.03-.07.03l-.07.04-.06.05-.04.06-.04.07-.02.07v.08s-.01.77-.01.77l-.14.04-.13.05-.13.06-.12.06-.52-.54-.06-.05-.07-.04-.07-.02h-.07s-.08,0-.08,0l-.08.02-.07.04-.06.05-.51.54-.05.06-.03.07-.02.08v.07s0,.08,0,.08l.02.07.03.06.05.06.51.56-.06.13-.06.13-.05.14-.04.16h-.8s-.01,0-.01,0h-.03s0,.01,0,.01h-.02s0,.01,0,.01h-.01s0,.01,0,.01h-.01s0,.01,0,.01h-.01s-.01.02-.01.02h-.03s-.01.02-.01.02h0s-.01.02-.01.02h0s0,.02,0,.02h0s-.01.01-.01.01h0v.02h-.01s0,.02,0,.02h0s-.01.02-.01.02h0s-.01.02-.01.02h0s0,.02,0,.02h0v.02h0v.02h0s0,.02,0,.02h0v.02h0v.02h0v.04h0v.77h0v.02h0v.02h0v.02h0v.02h0v.02h0v.02h0v.04s0,.01,0,.01h.01v.02h0s.01,0,.01,0h0s0,.02,0,.02h0s.01.02.01.02h0s.01.02.01.02h0v.02h.02v.02h.02s.02.02.02.02h0s.01,0,.01,0h0s.01.01.01.01h0s.01.01.01.01h0s.01.01.01.01h0s0,.01,0,.01h.02s.01.01.01.01h.03s0,0,0,0h.04s0,.01,0,.01h.74l.04.14.05.15.06.14.06.13-.51.54-.05.06-.03.08-.02.07v.07s0,.07,0,.07l.02.08.03.06.05.07.51.55.06.05.07.03.08.02h.08s.07,0,.07,0l.07-.02.07-.03.06-.05.52-.55.12.07.13.05.13.05.14.05v.77h0v.02h0v.02h0s.01.02.01.02h0v.02h0s0,.02,0,.02h0v.02h0s.01.02.01.02h0s0,.02,0,.02h0s.01.02.01.02h0s0,.02,0,.02h.01v.02h.01s0,.02,0,.02h0s.01.01.01.01h0v.02h.02v.02h.02s0,.02,0,.02h.02s.01.01.01.01h0s.01.01.01.01h0s0,.01,0,.01h0s.01.01.01.01v.02h.04s.01.01.01.01h.04s.02,0,.02,0h.83s.01,0,.01,0h.04s.01-.01.01-.01h0v-.02h.03s.01-.01.01-.01h0s.01-.01.01-.01h0s.01-.02.01-.02h.02s.01-.02.01-.02h.02v-.02h.02v-.02h.01s0-.02,0-.02h.01s0-.02,0-.02h0s.01-.01.01-.01h0s0-.02,0-.02h0v-.02h.01v-.02h.01v-.02h0s0-.02,0-.02h0v-.02h0s.01-.02.01-.02h0v-.02h0v-.02h0v-.79l.13-.05.14-.05.13-.05.12-.07.5.55.07.05.07.03.07.02h.08s.07,0,.07,0l.07-.02.08-.03.06-.05.51-.55.05-.07.04-.06.02-.08v-.15l-.02-.07-.04-.08-.05-.06-.51-.54.06-.13.06-.14.05-.15.04-.14h.76s0-.01,0-.01h.05s.01,0,.01,0h.02s.01-.01.01-.01h.02s0-.01,0-.01h.01s.01-.01.01-.01h0s.01-.01.01-.01h0s.01-.02.01-.02h0s.01-.02.01-.02h.02v-.02h.02v-.02h.02s0-.02,0-.02h.01v-.02h0v-.02h0s0-.02,0-.02h0v-.04s.01-.01.01-.01h.01v-.02h0v-.02h0v-.02h0v-.02h0v-.02h0v-.02h0v-.86l-.03-.07Zm-2.85.55v.17s-.03.07-.03.07l-.03.07-.03.07-.04.06-.04.06-.05.06-.06.05-.06.05-.07.04-.06.03-.07.02-.08.02h-.07s-.09.02-.09.02h-.08s-.07-.02-.07-.02l-.07-.02-.07-.02-.07-.03-.07-.04-.06-.05-.06-.05-.05-.06-.04-.06-.04-.06-.03-.07-.03-.07v-.07s-.03-.08-.03-.08v-.17l.02-.08v-.07s.04-.07.04-.07l.03-.07.04-.07.04-.06.05-.05.06-.05.06-.04.07-.04.07-.03.07-.03.07-.02h.07s.08,0,.08,0h.16s.08.03.08.03l.07.03.06.03.07.04.06.04.06.05.05.05.04.06.04.07.03.07.03.07.02.07v.08s.01.08.01.08Z" fill="#fff" fill-rule="evenodd"/></g></svg>