<?xml version="1.0" encoding="UTF-8"?><svg id="uuid-dff97e1e-8452-4890-b2ac-ed9b9a185332" xmlns="http://www.w3.org/2000/svg" width=".54in" height=".5in" viewBox="0 0 38.88 35.96"><path d="m38.43,20.4c-.23-.46-.61-.71-.61-.71,0,0-1.93-1.54-2.81.32-.87,1.85-3.55,2.78-3.55,2.78l-3.07,1.16s0-.02,0-.03c2.86-2.5,4.67-6.17,4.67-10.27,0-7.53-6.11-13.64-13.64-13.64S5.78,6.11,5.78,13.64c0,4.08,1.79,7.74,4.64,10.24-2.26-.83-3.77-1.39-3.77-1.39,0,0,.05-2.15-1.48-2.81-1.54-.66-2.22.98-2.41,1.64,0,0-2.89.16-2.75,1.83.13,1.67,2.89,1.93,4.87.74l6.55,2.47c.27,1.25.82,2.4,1.59,3.37l-4.69,1.74c-1.99-1.19-4.74-.93-4.87.74-.13,1.67,2.75,1.83,2.75,1.83.19.66.87,2.3,2.41,1.64,1.54-.66,1.48-2.81,1.48-2.81,0,0,.45-.12,4.51-1.61,1.36.99,3.03,1.57,4.83,1.57s3.52-.6,4.89-1.61l5.06,1.23s1.84.72,2.71,2.57c.87,1.85,2.81.32,2.81.32,0,0,.38-.26.61-.71.5-.99.9-2.6-.61-2.38,0,0,.85-1.09.58-1.8-.26-.71-1.64-1.14-2.6-.74-.95.4-2.09,1.08-3.24.88-.31-.05-.8.02-3.66-1.01.66-.88,1.15-1.89,1.42-2.99,2.51-.91,4.32-1.55,4.6-1.62,1.09-.26,2.83-.05,3.79.34.95.4,2.33-.03,2.6-.74.26-.71-.58-1.8-.58-1.8,1.5.22,1.11-1.39.61-2.38" fill="#f06650" fill-rule="evenodd"/><path d="m27.44,14.63l2.67-1.04-2.61-1.06c-.1-1.18-.49-2.31-1.07-3.28l1.38-2.33-2.57.81c-.84-.83-1.87-1.47-3.04-1.85l-.18-2.41-1.75,2.04h-.41c-1.13,0-2.2.25-3.17.69l-2.14-2.06.58,3.01c-.9.73-1.67,1.64-2.18,2.7h-3.23l2.59,1.97c-.1.48-.14.96-.14,1.45,0,.62.08,1.25.21,1.83l-2.61,1.93,3.41.08c.49.87,1.15,1.64,1.91,2.27l-1.21,3.68,3.48-2.43c.8.27,1.64.42,2.53.42h.14l1.5,2.62.84-3.03c.84-.31,1.65-.75,2.32-1.31l3.15.91-1.42-2.89c.49-.83.84-1.75,1.03-2.72m-2.3-3.05c.33,0,.6.27.6.6s-.27.6-.6.6-.6-.27-.6-.6.27-.6.6-.6m-2.71,0c.33,0,.6.27.6.6s-.27.6-.6.6-.6-.27-.6-.6.27-.6.6-.6m-2.71,0c.33,0,.6.27.6.6s-.27.6-.6.6-.6-.27-.6-.6.27-.6.6-.6m-2.71,0c.33,0,.6.27.6.6s-.27.6-.6.6-.6-.27-.6-.6.27-.6.6-.6m-2.71,0c.33,0,.6.27.6.6s-.27.6-.6.6-.6-.27-.6-.6.27-.6.6-.6m0,3.8c-.33,0-.6-.27-.6-.6s.27-.6.6-.6.6.27.6.6-.27.6-.6.6m2.71,0c-.33,0-.6-.27-.6-.6s.27-.6.6-.6.6.27.6.6-.27.6-.6.6m2.71,0c-.33,0-.6-.27-.6-.6s.27-.6.6-.6.6.27.6.6-.27.6-.6.6m-6.72-1.66c-.1,0-.19-.06-.19-.17s.08-.19.19-.19h13.47c.08,0,.16.08.16.19s-.08.17-.16.17h-13.47Zm9.44,1.66c-.33,0-.6-.27-.6-.6s.27-.6.6-.6.6.27.6.6-.27.6-.6.6m2.71,0c-.33,0-.6-.27-.6-.6s.27-.6.6-.6.6.27.6.6-.27.6-.6.6" fill="#fff" fill-rule="evenodd"/></svg>