<?xml version="1.0" encoding="UTF-8"?><svg id="uuid-588018ea-4804-4dfa-95d1-9c988064e185" xmlns="http://www.w3.org/2000/svg" width=".54in" height=".5in" viewBox="0 0 38.88 35.96"><path d="m38.43,20.4c-.23-.46-.61-.71-.61-.71,0,0-1.93-1.54-2.81.32-.87,1.85-3.55,2.78-3.55,2.78l-3.07,1.16s0-.02,0-.03c2.86-2.5,4.67-6.17,4.67-10.27,0-7.53-6.11-13.64-13.64-13.64S5.78,6.11,5.78,13.64c0,4.08,1.79,7.74,4.64,10.24-2.26-.83-3.77-1.39-3.77-1.39,0,0,.05-2.15-1.48-2.81-1.54-.66-2.22.98-2.41,1.64,0,0-2.89.16-2.75,1.83.13,1.67,2.89,1.93,4.87.74l6.55,2.47c.27,1.25.82,2.4,1.59,3.37l-4.69,1.74c-1.99-1.19-4.74-.93-4.87.74-.13,1.67,2.75,1.83,2.75,1.83.19.66.87,2.3,2.41,1.64,1.54-.66,1.48-2.81,1.48-2.81,0,0,.45-.12,4.51-1.61,1.36.99,3.03,1.57,4.83,1.57s3.52-.6,4.89-1.61l5.06,1.23s1.84.72,2.71,2.57c.87,1.85,2.81.32,2.81.32,0,0,.38-.26.61-.71.5-.99.9-2.6-.61-2.38,0,0,.85-1.09.58-1.8-.26-.71-1.64-1.14-2.6-.74-.95.4-2.09,1.08-3.24.88-.31-.05-.8.02-3.66-1.01.66-.88,1.15-1.89,1.42-2.99,2.51-.91,4.32-1.55,4.6-1.62,1.09-.26,2.83-.05,3.79.34.95.4,2.33-.03,2.6-.74.26-.71-.58-1.8-.58-1.8,1.5.22,1.11-1.39.61-2.38" fill="#f06650" fill-rule="evenodd"/><g><polygon points="28.65 18.34 28.65 18.34 28.65 18.4 28.61 18.49 28.56 18.56 28.48 18.66 28.34 18.81 28.15 18.97 27.7 19.34 27.14 19.77 26.55 20.19 25.97 20.57 25.45 20.9 25.22 21.02 25.02 21.13 24.87 21.17 24.77 21.19 24.67 21.17 24.65 21.16 24.62 21.13 24.59 21.08 24.57 21 24.54 20.9 24.52 20.76 24.49 20.33 24.45 19.74 21.58 19.74 21.45 19.74 21.31 19.72 21.19 19.67 21.07 19.62 20.96 19.54 20.86 19.46 20.76 19.34 20.67 19.23 18.75 16.33 20.26 14.05 20.35 14.21 20.93 15.16 21.46 16.02 21.68 16.36 21.89 16.65 22.04 16.84 22.08 16.9 22.13 16.93 22.15 16.93 22.27 16.95 22.51 16.97 22.9 16.98 23.74 16.97 24.48 16.93 24.5 16.41 24.54 15.97 24.57 15.81 24.59 15.66 24.63 15.56 24.66 15.53 24.77 15.49 24.8 15.49 24.87 15.5 25.04 15.59 25.28 15.71 25.54 15.87 26.18 16.26 26.86 16.74 27.53 17.23 27.83 17.46 28.1 17.69 28.33 17.89 28.5 18.09 28.57 18.15 28.61 18.22 28.65 18.28 28.65 18.34" fill="#fff" fill-rule="evenodd"/><polygon points="11.84 10.29 11.84 10.29 12.58 10.28 13.26 10.27 13.95 10.26 14.37 10.27 14.61 10.27 14.78 10.28 14.86 10.38 15.01 10.59 15.43 11.22 15.98 12.07 16.54 13 16.65 13.16 18.15 10.89 16.22 7.99 16.14 7.88 16.04 7.77 15.92 7.67 15.82 7.61 15.7 7.55 15.57 7.5 15.45 7.47 15.32 7.47 11.84 7.47 11.72 7.47 11.6 7.5 11.49 7.54 11.39 7.57 11.28 7.63 11.18 7.71 11.11 7.79 11.01 7.88 10.95 7.98 10.88 8.1 10.81 8.21 10.77 8.33 10.73 8.45 10.7 8.6 10.67 8.74 10.67 8.87 10.67 9.02 10.7 9.17 10.73 9.31 10.77 9.45 10.81 9.56 10.88 9.67 10.95 9.79 11.01 9.89 11.11 9.97 11.18 10.06 11.29 10.13 11.39 10.19 11.49 10.23 11.62 10.27 11.72 10.29 11.84 10.29" fill="#fff" fill-rule="evenodd"/><polygon points="22.13 10.28 22.13 10.28 22.05 10.38 21.9 10.59 21.41 11.29 19.93 13.54 18.06 16.38 16.22 19.23 16.14 19.34 16.04 19.46 15.92 19.55 15.82 19.62 15.7 19.67 15.57 19.72 15.45 19.74 15.31 19.74 11.84 19.74 11.72 19.74 11.6 19.72 11.49 19.69 11.39 19.64 11.28 19.58 11.18 19.51 11.11 19.42 11.01 19.34 10.95 19.24 10.88 19.13 10.81 19.01 10.77 18.9 10.73 18.76 10.7 18.61 10.67 18.49 10.67 18.34 10.67 18.2 10.7 18.05 10.73 17.93 10.77 17.79 10.81 17.66 10.88 17.55 10.95 17.42 11.01 17.33 11.11 17.24 11.18 17.16 11.28 17.09 11.39 17.02 11.49 16.98 11.6 16.95 11.72 16.92 11.84 16.92 12.57 16.97 13.23 17 13.92 17 14.35 17 14.6 16.97 14.72 16.95 14.76 16.93 14.84 16.84 15.01 16.63 15.48 15.94 16.15 14.92 16.98 13.69 18.85 10.83 20.67 7.99 20.76 7.88 20.86 7.77 20.96 7.67 21.07 7.61 21.19 7.55 21.31 7.5 21.45 7.47 21.58 7.47 24.48 7.47 24.5 6.95 24.54 6.52 24.57 6.36 24.59 6.22 24.63 6.13 24.66 6.09 24.77 6.04 24.8 6.05 24.87 6.06 25.04 6.15 25.28 6.27 25.54 6.43 26.18 6.82 26.86 7.3 27.53 7.79 27.83 8.03 28.1 8.26 28.33 8.45 28.5 8.65 28.57 8.71 28.61 8.79 28.65 8.85 28.65 8.91 28.65 8.97 28.61 9.03 28.56 9.13 28.48 9.23 28.34 9.37 28.15 9.53 27.7 9.9 27.15 10.33 26.55 10.75 25.97 11.14 25.45 11.46 25.22 11.58 25.03 11.69 24.87 11.74 24.77 11.75 24.67 11.74 24.65 11.71 24.62 11.69 24.59 11.64 24.57 11.57 24.54 11.46 24.52 11.32 24.49 10.89 24.45 10.28 23.72 10.26 22.92 10.23 22.51 10.23 22.29 10.26 22.16 10.27 22.13 10.28" fill="#fff" fill-rule="evenodd"/></g></svg>