<?xml version="1.0" encoding="UTF-8"?><svg id="uuid-5b0003a2-955f-40d7-a386-19fbd6149f82" xmlns="http://www.w3.org/2000/svg" width=".54in" height=".54in" viewBox="0 0 38.88 38.88"><path d="m38.88,19.44c0,10.74-8.7,19.44-19.44,19.44C8.7,38.88,0,30.18,0,19.44,0,8.7,8.7,0,19.44,0s19.44,8.7,19.44,19.44Z" fill="#f06650"/><g><path d="m24.14,13.73h-2.94v-1.31h.68c.3,0,.54-.24.54-.54v-6.52c0-.3-.24-.54-.54-.54s-.54.24-.54.54v5.98h-4.05v-5.98c0-.3-.24-.54-.54-.54s-.54.24-.54.54v6.52c0,.3.24.54.54.54h.68v1.31h-2.94c-1.48,0-2.69,1.21-2.69,2.69v14.78c0,1.48,1.21,2.69,2.69,2.69h9.63c1.48,0,2.69-1.21,2.69-2.69v-14.78c0-1.48-1.21-2.69-2.69-2.69Zm-4.01-1.31v2.8h-1.61v-2.8h1.61Zm5.63,18.77c0,.89-.72,1.62-1.62,1.62h-9.63c-.89,0-1.62-.72-1.62-1.62v-14.78c0-.89.72-1.62,1.62-1.62h2.94v.95c0,.3.24.54.54.54h2.68c.3,0,.54-.24.54-.54v-.95h2.94c.89,0,1.62.72,1.62,1.62v14.78Z" fill="#fff"/><circle cx="19.04" cy="29.23" r=".91" fill="#fff"/><path d="m21.58,19.66c-.59-.49-1.41-.76-2.31-.76-1.58,0-2.82.8-3.3,2.15-.07.2-.04.42.08.59.12.17.32.27.53.27.28,0,.53-.18.62-.45.27-.88,1.04-1.4,2.05-1.4,1.13,0,1.95.62,1.95,1.48,0,.72-.32,1.21-1.43,2.17-1.06.91-1.31,1.44-1.35,2.79,0,.17.06.33.18.46.12.12.28.19.45.19.34,0,.62-.27.63-.61.02-.7.15-1.06.48-1.43l.64-.62c1.24-1.21,1.7-2.01,1.7-2.94,0-.73-.32-1.39-.91-1.88Z" fill="#fff"/></g></svg>