<?xml version="1.0" encoding="UTF-8"?><svg id="uuid-e2e3c3cb-d1d8-4d8a-9bea-c93863d1a9d1" xmlns="http://www.w3.org/2000/svg" width=".54in" height=".5in" viewBox="0 0 38.88 35.96"><path d="m38.43,20.4c-.23-.46-.61-.71-.61-.71,0,0-1.93-1.54-2.81.32-.87,1.85-3.55,2.78-3.55,2.78l-3.07,1.16s0-.02,0-.03c2.86-2.5,4.67-6.17,4.67-10.27,0-7.53-6.11-13.64-13.64-13.64S5.78,6.11,5.78,13.64c0,4.08,1.79,7.74,4.64,10.24-2.26-.83-3.77-1.39-3.77-1.39,0,0,.05-2.15-1.48-2.81-1.54-.66-2.22.98-2.41,1.64,0,0-2.89.16-2.75,1.83.13,1.67,2.89,1.93,4.87.74l6.55,2.47c.27,1.25.82,2.4,1.59,3.37l-4.69,1.74c-1.99-1.19-4.74-.93-4.87.74-.13,1.67,2.75,1.83,2.75,1.83.19.66.87,2.3,2.41,1.64,1.54-.66,1.48-2.81,1.48-2.81,0,0,.45-.12,4.51-1.61,1.36.99,3.03,1.57,4.83,1.57s3.52-.6,4.89-1.61l5.06,1.23s1.84.72,2.71,2.57c.87,1.85,2.81.32,2.81.32,0,0,.38-.26.61-.71.5-.99.9-2.6-.61-2.38,0,0,.85-1.09.58-1.8-.26-.71-1.64-1.14-2.6-.74-.95.4-2.09,1.08-3.24.88-.31-.05-.8.02-3.66-1.01.66-.88,1.15-1.89,1.42-2.99,2.51-.91,4.32-1.55,4.6-1.62,1.09-.26,2.83-.05,3.79.34.95.4,2.33-.03,2.6-.74.26-.72-.58-1.8-.58-1.8,1.5.22,1.11-1.39.61-2.38" fill="#f06650" fill-rule="evenodd"/><g><path d="m12.11,9.17c0,.31,1.14.67,2.94.9-.16.47-.27.98-.27,1.53,0,.51.12,1.02.27,1.49h-.2c-.43,0-.78.35-.78.78v.86c-.63.08-1.1.67-1.1,1.41v4.86c0,.78.55,1.41,1.25,1.41h5.17v-6.28h.55v6.28h5.17c.71,0,1.29-.63,1.29-1.41v-4.86c0-.75-.51-1.33-1.14-1.41v-.86c0-.43-.35-.78-.78-.78h-.2c.2-.47.27-.98.27-1.49,0-.55-.08-1.06-.27-1.53,1.8-.24,2.98-.59,2.98-.9-.04-.51-1.41-1.06-3.49-1.29l-1.1-3.77c-.08-.16-.2-.31-.43-.31h-5.17c-.24,0-.35.16-.39.31l-1.14,3.77c-2.08.24-3.45.78-3.45,1.29m3.92,1.69c0-.27.04-.47.16-.67,1.02.12,2.19.16,3.41.16h.2c1.21,0,2.35-.04,3.37-.16.12.2.2.39.2.67v1.41c0,.35-.16.67-.39.82h-.59c-.43,0-.78.35-.78.78v1.57c-1.1.63-2.74.63-3.84,0v-1.57c0-.43-.35-.78-.78-.78h-.59c-.2-.16-.35-.47-.35-.82v-1.41Z" fill="#fff"/><path d="m20.69,10.82h1.57s.08.04.08.12v1.1c0,.35-.27.67-.67.67h-.82c-.35,0-.67-.31-.67-.67v-.63c0-.47.04-.59.51-.59" fill="#fff"/><path d="m16.85,10.82h1.65c.51,0,.43.12.43.55v.67c-.04.35-.31.67-.67.67h-.86c-.35,0-.67-.31-.67-.67v-1.1c0-.08.04-.12.12-.12" fill="#fff"/></g></svg>