<?xml version="1.0" encoding="utf-8"?>
<!-- Generator: Adobe Illustrator 27.2.0, SVG Export Plug-In . SVG Version: 6.00 Build 0)  -->
<svg version="1.1" id="Layer_1" xmlns="http://www.w3.org/2000/svg" xmlns:xlink="http://www.w3.org/1999/xlink" x="0px" y="0px"
	 viewBox="0 0 45.4 45.4" style="enable-background:new 0 0 45.4 45.4;" xml:space="preserve">
<style type="text/css">
	.st0{fill:#C2E0AF;}
	.st1{fill:#DEEED4;}
	.st2{fill:#6ABD46;}
	.st3{fill:#FFFFFF;}
</style>
<g>
	<g>
		<g>
			<path class="st0" d="M15.5,0h14.3c8.6,0,15.5,6.9,15.5,15.5v14.3c0,8.6-6.9,15.5-15.5,15.5H15.5C6.9,45.4,0,38.4,0,29.8V15.5
				C0,6.9,6.9,0,15.5,0"/>
			<path class="st1" d="M23.6,39.7c0,0.5-0.4,0.9-0.9,0.9s-0.9-0.4-0.9-0.9c0-0.5,0.4-0.9,0.9-0.9S23.6,39.2,23.6,39.7"/>
			<path class="st1" d="M23.6,5.7c0,0.5-0.4,0.9-0.9,0.9s-0.9-0.4-0.9-0.9c0-0.5,0.4-0.9,0.9-0.9S23.6,5.2,23.6,5.7"/>
			<path class="st1" d="M40.5,22.7c0,0.5-0.4,0.9-0.9,0.9s-0.9-0.4-0.9-0.9c0-0.5,0.4-0.9,0.9-0.9S40.5,22.2,40.5,22.7"/>
			<path class="st1" d="M6.5,22.7c0,0.5-0.4,0.9-0.9,0.9s-0.9-0.4-0.9-0.9c0-0.5,0.4-0.9,0.9-0.9S6.5,22.2,6.5,22.7"/>
			<path class="st1" d="M9.5,8.7c0,0.5-0.4,0.9-0.9,0.9c-0.5,0-0.9-0.4-0.9-0.9c0-0.5,0.4-0.9,0.9-0.9C9.1,7.8,9.5,8.2,9.5,8.7"/>
			<path class="st1" d="M37.5,36.7c0,0.5-0.4,0.9-0.9,0.9c-0.5,0-0.9-0.4-0.9-0.9c0-0.5,0.4-0.9,0.9-0.9
				C37.1,35.9,37.5,36.3,37.5,36.7"/>
			<path class="st1" d="M9.4,36.7c0,0.5-0.4,0.9-0.9,0.9c-0.5,0-0.9-0.4-0.9-0.9c0-0.5,0.4-0.9,0.9-0.9C9,35.8,9.4,36.2,9.4,36.7"/>
			<path class="st1" d="M37.6,8.6c0,0.5-0.4,0.9-0.9,0.9s-0.9-0.4-0.9-0.9c0-0.5,0.4-0.9,0.9-0.9S37.6,8.1,37.6,8.6"/>
		</g>
		<g>
			<g>
				<path class="st2" d="M15.9,11.3h13.6c2.5,0,4.6,2.1,4.6,4.6v13.6c0,2.5-2.1,4.6-4.6,4.6H15.9c-2.5,0-4.6-2.1-4.6-4.6V15.9
					C11.3,13.4,13.3,11.3,15.9,11.3z"/>
			</g>
		</g>
	</g>
</g>
<path class="st3" d="M31.1,23.1c0-0.1-0.1-0.4-0.6-0.8c-0.7-0.5-1.8-0.9-3.4-1.2c-0.2-0.2-0.6-0.7-1.3-1.2c-1.1-0.9-2.2-1.5-3.1-1.6
	c0,0,0,0,0,0h-5.1c-1.8,0-3.2,1.5-3.2,3.2v2.9c0,0.8,0.7,1.5,1.5,1.5h0.2c0.2,0.7,0.8,1.2,1.6,1.2c0.7,0,1.3-0.5,1.6-1.1h7
	c0.2,0.6,0.8,1.1,1.6,1.1c0.6,0,1.2-0.4,1.5-0.9h1c0,0,0,0,0,0c0,0,0.3,0,0.5-0.2c0.2-0.2,0.5-0.5,0.5-1L31.1,23.1
	C31.1,23.1,31.1,23.1,31.1,23.1z M26.2,21.1h-4.6v-2.2h1C24,19.1,25.5,20.3,26.2,21.1z M18.5,21.1c-0.3,0-0.5-0.2-0.5-0.5v-1.7h3
	v2.2H18.5z M17.4,26.4c-0.6,0-1-0.5-1-1c0-0.6,0.5-1,1-1c0.6,0,1,0.5,1,1C18.5,25.9,18,26.4,17.4,26.4z M27.5,26.4c-0.6,0-1-0.5-1-1
	c0-0.6,0.5-1,1-1c0.6,0,1,0.5,1,1C28.5,25.9,28.1,26.4,27.5,26.4z M30.3,25.4c-0.1,0.1-0.2,0.1-0.3,0.1h-0.8c0,0,0-0.1,0-0.1
	c0-0.9-0.7-1.6-1.6-1.6c-0.9,0-1.6,0.7-1.6,1.6h-6.8c0-0.9-0.8-1.6-1.6-1.6c-0.8,0-1.6,0.6-1.6,1.5h-0.1c-0.5,0-0.9-0.4-0.9-0.9
	v-0.3h0.8c0.2,0,0.3-0.1,0.3-0.3c0-0.2-0.1-0.3-0.3-0.3h-0.8v-2c0-1.4,1.1-2.6,2.5-2.6v1.7c0,0.6,0.5,1.1,1.1,1.1h8.4c0,0,0,0,0,0
	c3.1,0.6,3.5,1.4,3.6,1.5v0.4h-0.8c-0.2,0-0.3,0.1-0.3,0.3s0.1,0.3,0.3,0.3h0.8v0.7C30.5,25.1,30.4,25.3,30.3,25.4z"/>
</svg>
