<?xml version="1.0" encoding="utf-8"?>
<!-- Generator: Adobe Illustrator 27.2.0, SVG Export Plug-In . SVG Version: 6.00 Build 0)  -->
<svg version="1.1" id="Layer_1" xmlns="http://www.w3.org/2000/svg" xmlns:xlink="http://www.w3.org/1999/xlink" x="0px" y="0px"
	 viewBox="0 0 45.4 45.4" style="enable-background:new 0 0 45.4 45.4;" xml:space="preserve">
<style type="text/css">
	.st0{fill:#C2E0AF;}
	.st1{fill:#DEEED4;}
	.st2{fill:#6ABD46;}
	.st3{fill:#FFFFFF;}
</style>
<g>
	<g>
		<g>
			<path class="st0" d="M15.5,0h14.3c8.6,0,15.5,6.9,15.5,15.5v14.3c0,8.6-6.9,15.5-15.5,15.5H15.5C6.9,45.4,0,38.4,0,29.8V15.5
				C0,6.9,6.9,0,15.5,0"/>
			<path class="st1" d="M23.6,39.7c0,0.5-0.4,0.9-0.9,0.9s-0.9-0.4-0.9-0.9c0-0.5,0.4-0.9,0.9-0.9S23.6,39.2,23.6,39.7"/>
			<path class="st1" d="M23.6,5.7c0,0.5-0.4,0.9-0.9,0.9s-0.9-0.4-0.9-0.9c0-0.5,0.4-0.9,0.9-0.9S23.6,5.2,23.6,5.7"/>
			<path class="st1" d="M40.5,22.7c0,0.5-0.4,0.9-0.9,0.9s-0.9-0.4-0.9-0.9c0-0.5,0.4-0.9,0.9-0.9S40.5,22.2,40.5,22.7"/>
			<path class="st1" d="M6.5,22.7c0,0.5-0.4,0.9-0.9,0.9s-0.9-0.4-0.9-0.9c0-0.5,0.4-0.9,0.9-0.9S6.5,22.2,6.5,22.7"/>
			<path class="st1" d="M9.5,8.7c0,0.5-0.4,0.9-0.9,0.9S7.7,9.1,7.7,8.7c0-0.5,0.4-0.9,0.9-0.9S9.5,8.2,9.5,8.7"/>
			<path class="st1" d="M37.5,36.7c0,0.5-0.4,0.9-0.9,0.9s-0.9-0.4-0.9-0.9c0-0.5,0.4-0.9,0.9-0.9S37.5,36.3,37.5,36.7"/>
			<path class="st1" d="M9.4,36.7c0,0.5-0.4,0.9-0.9,0.9s-0.9-0.4-0.9-0.9c0-0.5,0.4-0.9,0.9-0.9S9.4,36.2,9.4,36.7"/>
			<path class="st1" d="M37.6,8.6c0,0.5-0.4,0.9-0.9,0.9c-0.5,0-0.9-0.4-0.9-0.9c0-0.5,0.4-0.9,0.9-0.9C37.2,7.7,37.6,8.1,37.6,8.6"
				/>
		</g>
		<g>
			<g>
				<path class="st2" d="M15.9,11.4h13.6c2.5,0,4.6,2.1,4.6,4.6v13.6c0,2.5-2.1,4.6-4.6,4.6H15.9c-2.5,0-4.6-2.1-4.6-4.6V15.9
					C11.3,13.4,13.4,11.4,15.9,11.4z"/>
			</g>
			<g>
				<path class="st3" d="M21.2,17.8C21.2,17.8,21.2,17.7,21.2,17.8l-1-1c-0.1-0.1-0.2-0.1-0.3,0l0,0c-0.1,0.1-0.1,0.2,0,0.3l0.6,0.6
					h-1.5c0.3-0.4,0.6-0.8,0.8-1.1c0.5-0.8,0.6-1.3,0.4-1.5c-0.1-0.1-0.2-0.1-0.4-0.1c-0.5,0-1.4,0.6-2.3,1.4v-1.6l0.6,0.6
					c0.1,0.1,0.2,0.1,0.3,0l0,0c0.1-0.1,0.1-0.2,0-0.3l-1-1c0,0,0,0,0,0c0-0.1-0.1-0.1-0.2-0.1h0c-0.1,0-0.1,0-0.2,0.1c0,0,0,0,0,0
					l-1,1c-0.1,0.1-0.1,0.2,0,0.3l0,0c0.1,0.1,0.2,0.1,0.3,0l0.6-0.6v1.6c-0.9-0.8-1.8-1.4-2.4-1.4c-0.2,0-0.3,0.1-0.4,0.1
					c-0.3,0.3-0.1,0.8,0.4,1.5c0.2,0.3,0.5,0.7,0.8,1.1h-1.5l0.6-0.6c0.1-0.1,0.1-0.2,0-0.3l0,0c-0.1-0.1-0.2-0.1-0.3,0l-1,1
					c0,0,0,0,0,0c0,0-0.1,0.1-0.1,0.2v0c0,0.1,0,0.1,0.1,0.2c0,0,0,0,0,0l1,1c0.1,0.1,0.2,0.1,0.3,0l0,0c0.1-0.1,0.1-0.2,0-0.3
					l-0.6-0.6h1.6c-0.4,0.4-0.7,0.8-0.9,1.2c-0.5,0.8-0.6,1.3-0.4,1.5c0.1,0.1,0.2,0.1,0.4,0.1h0c0.5,0,1.5-0.6,2.4-1.4v1.5
					l-0.6-0.6c-0.1-0.1-0.2-0.1-0.3,0l0,0c-0.1,0.1-0.1,0.2,0,0.3l1,1c0,0,0,0,0,0c0,0,0.1,0.1,0.2,0.1h0c0.1,0,0.1,0,0.2-0.1
					c0,0,0,0,0,0l1-1c0.1-0.1,0.1-0.2,0-0.3l0,0c-0.1-0.1-0.2-0.1-0.3,0l-0.6,0.6v-1.4c0.9,0.8,1.8,1.4,2.3,1.4
					c0.2,0,0.3-0.1,0.4-0.1c0.3-0.3,0.1-0.8-0.4-1.5c-0.2-0.4-0.6-0.8-0.9-1.2h1.6l-0.6,0.6c-0.1,0.1-0.1,0.2,0,0.3l0,0
					c0.1,0.1,0.2,0.1,0.3,0l1-1c0,0,0,0,0,0c0.1,0,0.1-0.1,0.1-0.2v0C21.3,17.9,21.2,17.8,21.2,17.8z M14.5,20.7
					C14.5,20.7,14.5,20.7,14.5,20.7c-0.1-0.2,0.3-1,1.2-2.1c0.2,0.4,0.5,0.7,0.8,0.8C15.6,20.2,14.8,20.7,14.5,20.7z M15.7,17.5
					c-1-1.1-1.4-1.9-1.3-2.1c0,0,0,0,0,0c0.3,0,1.1,0.4,2.1,1.3C16.2,16.8,15.9,17.1,15.7,17.5z M19.7,15.4
					C19.8,15.4,19.8,15.4,19.7,15.4c0.1,0.2-0.3,1-1.2,2.1c-0.2-0.4-0.5-0.7-0.8-0.8C18.6,15.8,19.4,15.4,19.7,15.4z M19.8,20.7
					C19.8,20.7,19.8,20.7,19.8,20.7c-0.4,0-1.1-0.4-2.1-1.3c0.4-0.2,0.7-0.5,0.8-0.8C19.5,19.7,19.9,20.5,19.8,20.7z"/>
			</g>
			
				<rect x="12.4" y="22.6" transform="matrix(-4.939889e-11 1 -1 -4.939889e-11 45.5347 8.847170e-02)" class="st3" width="20.7" height="0.4"/>
			<g>
				<polygon class="st3" points="31.4,24.6 28.5,24.6 28.5,26.3 31.4,26.3 31.4,27.1 33,25.5 33,25.4 31.4,23.8 				"/>
				<polygon class="st3" points="31.4,23.4 33,21.7 33,21.7 31.4,20 31.4,20.8 28.5,20.8 28.5,22.5 31.4,22.5 				"/>
				<polygon class="st3" points="25.2,21.9 23.6,23.6 23.6,23.6 25.2,25.3 25.2,24.4 28.1,24.4 28.1,22.8 25.2,22.8 				"/>
				<polygon class="st3" points="25.2,18.1 23.6,19.8 23.6,19.8 25.2,21.5 25.2,20.6 28.1,20.6 28.1,19 25.2,19 				"/>
			</g>
			<g>
				<path class="st3" d="M20.8,26.3v-0.6h-0.7v-0.4c0-0.2-0.1-0.3-0.3-0.3h-0.4v-0.7h-0.6v0.7h-1.3v-0.7h-0.6v0.7h-1.3v-0.7h-0.6
					v0.7h-0.4c-0.2,0-0.3,0.1-0.3,0.3v0.4h-0.7v0.6h0.7v1.3h-0.7v0.6h0.7v1.3h-0.7v0.6h0.7v0.4c0,0.2,0.1,0.3,0.3,0.3h0.4v0.7h0.6
					v-0.7h1.3v0.7h0.6v-0.7h1.3v0.7h0.6v-0.7h0.4c0.2,0,0.3-0.1,0.3-0.3v-0.4h0.7v-0.6h-0.7v-1.3h0.7v-0.6h-0.7v-1.3H20.8z
					 M19.4,30.2h-4.7v-4.7h4.7V30.2z"/>
				<rect x="17.6" y="26.4" class="st3" width="1" height="1"/>
				<rect x="15.6" y="28.4" class="st3" width="1" height="1"/>
				<rect x="15.6" y="26.4" class="st3" width="1" height="1"/>
				<rect x="17.6" y="28.4" class="st3" width="1" height="1"/>
			</g>
		</g>
	</g>
</g>
</svg>
