<?xml version="1.0" encoding="utf-8"?>
<!-- Generator: Adobe Illustrator 27.2.0, SVG Export Plug-In . SVG Version: 6.00 Build 0)  -->
<svg version="1.1" id="Layer_1" xmlns="http://www.w3.org/2000/svg" xmlns:xlink="http://www.w3.org/1999/xlink" x="0px" y="0px"
	 viewBox="0 0 45.4 45.4" style="enable-background:new 0 0 45.4 45.4;" xml:space="preserve">
<style type="text/css">
	.st0{fill:#C2E0AF;}
	.st1{fill:#DEEED4;}
	.st2{fill:#6ABD46;}
	.st3{fill:#FFFFFF;}
</style>
<g>
	<g>
		<g>
			<path class="st0" d="M15.5,0h14.3c8.6,0,15.5,6.9,15.5,15.5v14.3c0,8.6-6.9,15.5-15.5,15.5H15.5C6.9,45.4,0,38.4,0,29.8V15.5
				C0,6.9,6.9,0,15.5,0"/>
			<path class="st1" d="M23.6,39.7c0,0.5-0.4,0.9-0.9,0.9s-0.9-0.4-0.9-0.9c0-0.5,0.4-0.9,0.9-0.9S23.6,39.2,23.6,39.7"/>
			<path class="st1" d="M23.6,5.7c0,0.5-0.4,0.9-0.9,0.9s-0.9-0.4-0.9-0.9c0-0.5,0.4-0.9,0.9-0.9S23.6,5.2,23.6,5.7"/>
			<path class="st1" d="M40.5,22.7c0,0.5-0.4,0.9-0.9,0.9s-0.9-0.4-0.9-0.9c0-0.5,0.4-0.9,0.9-0.9S40.5,22.2,40.5,22.7"/>
			<path class="st1" d="M6.5,22.7c0,0.5-0.4,0.9-0.9,0.9s-0.9-0.4-0.9-0.9c0-0.5,0.4-0.9,0.9-0.9S6.5,22.2,6.5,22.7"/>
			<path class="st1" d="M9.5,8.7c0,0.5-0.4,0.9-0.9,0.9c-0.5,0-0.9-0.4-0.9-0.9c0-0.5,0.4-0.9,0.9-0.9C9.1,7.8,9.5,8.2,9.5,8.7"/>
			<path class="st1" d="M37.5,36.7c0,0.5-0.4,0.9-0.9,0.9c-0.5,0-0.9-0.4-0.9-0.9c0-0.5,0.4-0.9,0.9-0.9
				C37.1,35.9,37.5,36.3,37.5,36.7"/>
			<path class="st1" d="M9.4,36.7c0,0.5-0.4,0.9-0.9,0.9c-0.5,0-0.9-0.4-0.9-0.9c0-0.5,0.4-0.9,0.9-0.9C9,35.8,9.4,36.2,9.4,36.7"/>
			<path class="st1" d="M37.6,8.6c0,0.5-0.4,0.9-0.9,0.9s-0.9-0.4-0.9-0.9c0-0.5,0.4-0.9,0.9-0.9S37.6,8.1,37.6,8.6"/>
		</g>
		<g>
			<g>
				<path class="st2" d="M15.9,11.4h13.6c2.5,0,4.6,2.1,4.6,4.6v13.6c0,2.5-2.1,4.6-4.6,4.6H15.9c-2.5,0-4.6-2.1-4.6-4.6V15.9
					C11.3,13.4,13.4,11.4,15.9,11.4z"/>
			</g>
			<g>
				<rect x="12.3" y="20" class="st3" width="20.7" height="0.4"/>
				<path class="st3" d="M27.8,26.8C27.7,26.8,27.7,26.8,27.8,26.8l-1.3-1.3c-0.1-0.1-0.3-0.1-0.4,0l0,0c-0.1,0.1-0.1,0.3,0,0.4
					l0.7,0.7h-1.8c0.4-0.5,0.8-1,1-1.4c0.6-1,0.8-1.6,0.4-1.9c-0.1-0.1-0.2-0.2-0.4-0.2c-0.7,0-1.8,0.7-2.9,1.7V23l0.7,0.7
					c0.1,0.1,0.3,0.1,0.4,0l0,0c0.1-0.1,0.1-0.3,0-0.4L23,22c0,0,0,0,0,0c-0.1-0.1-0.1-0.1-0.2-0.1h-0.1c-0.1,0-0.2,0-0.2,0.1
					c0,0,0,0-0.1,0l-1.2,1.2c-0.1,0.1-0.1,0.3,0,0.4l0,0c0.1,0.1,0.3,0.1,0.4,0l0.7-0.7v2c-1.1-1-2.3-1.7-2.9-1.7
					c-0.2,0-0.4,0.1-0.4,0.2c-0.3,0.3-0.2,1,0.4,1.9c0.3,0.4,0.6,0.9,1,1.4h-1.8l0.7-0.7c0.1-0.1,0.1-0.3,0-0.4l0,0
					c-0.1-0.1-0.3-0.1-0.4,0l-1.2,1.2c0,0,0,0,0,0.1c0,0.1-0.1,0.1-0.1,0.2v0.1c0,0.1,0,0.2,0.1,0.2c0,0,0,0,0,0l1.2,1.2
					c0.1,0.1,0.3,0.1,0.4,0l0,0c0.1-0.1,0.1-0.3,0-0.4l-0.7-0.7h1.9c-0.5,0.5-0.9,1.1-1.2,1.5c-0.6,1-0.8,1.6-0.4,1.9
					c0.1,0.1,0.2,0.2,0.4,0.2h0c0.7,0,1.8-0.8,2.9-1.7v1.8l-0.7-0.7c-0.1-0.1-0.3-0.1-0.4,0l0,0c-0.1,0.1-0.1,0.3,0,0.4l1.2,1.2
					c0,0,0,0,0.1,0c0.1,0,0.1,0.1,0.2,0.1h0.1c0.1,0,0.2,0,0.2-0.1c0,0,0,0,0,0l1.2-1.2c0.1-0.1,0.1-0.3,0-0.4l0,0
					c-0.1-0.1-0.3-0.1-0.4,0L23,31.1v-1.8c1.1,1,2.3,1.7,2.9,1.7c0.2,0,0.4-0.1,0.4-0.2c0.3-0.3,0.2-1-0.4-1.9
					c-0.3-0.5-0.7-1-1.2-1.5h1.9L26,28.1c-0.1,0.1-0.1,0.3,0,0.4l0,0c0.1,0.1,0.3,0.1,0.4,0l1.2-1.2c0,0,0,0,0,0
					c0.1-0.1,0.1-0.1,0.1-0.2V27C27.8,26.9,27.8,26.9,27.8,26.8z M26,23.8c0,0.1,0,0.5-0.6,1.3c-0.3,0.4-0.6,0.8-1,1.3
					c-0.2-0.5-0.6-0.9-1-1C24.6,24.4,25.5,23.8,26,23.8C26,23.8,26,23.8,26,23.8z M19.4,23.8C19.4,23.8,19.4,23.8,19.4,23.8
					c0.4,0,1.4,0.6,2.6,1.6c-0.5,0.2-0.9,0.6-1,1c-0.4-0.5-0.7-0.9-1-1.3C19.4,24.2,19.4,23.9,19.4,23.8z M19.4,30.4
					C19.4,30.4,19.4,30.4,19.4,30.4c-0.1-0.1-0.1-0.4,0.5-1.3c0.3-0.4,0.6-0.8,1-1.3c0.2,0.5,0.6,0.9,1,1
					C20.8,29.8,19.8,30.4,19.4,30.4z M26,30.4C26,30.4,26,30.4,26,30.4c-0.4,0-1.4-0.6-2.6-1.6c0.5-0.2,0.9-0.6,1-1
					c0.4,0.5,0.7,0.9,1,1.3C26,30,26,30.3,26,30.4z"/>
				<path class="st3" d="M26.4,15h2.5v-1.5h-3v0.7h-6.7v-0.7h-3V15h2.6l0.2,0l3.2,0.9L19,16.8h-2.8v1.5h3v-0.7h6.7v0.7h3v-1.5h-2.7
					l-3.2-0.9l3.2-0.9L26.4,15z M25.9,16.9v0.5h-6.7V17l3.4-0.9L25.9,16.9z M25.9,14.9l-3.3,0.9l-3.4-0.9v-0.5h6.7V14.9z"/>
			</g>
		</g>
	</g>
</g>
</svg>
