<?xml version="1.0" encoding="utf-8"?>
<!-- Generator: Adobe Illustrator 27.2.0, SVG Export Plug-In . SVG Version: 6.00 Build 0)  -->
<svg version="1.1" id="Layer_1" xmlns="http://www.w3.org/2000/svg" xmlns:xlink="http://www.w3.org/1999/xlink" x="0px" y="0px"
	 viewBox="0 0 45.4 45.4" style="enable-background:new 0 0 45.4 45.4;" xml:space="preserve">
<style type="text/css">
	.st0{fill:#C2E0AF;}
	.st1{fill:#DEEED4;}
	.st2{fill:#6ABD46;}
	.st3{fill-rule:evenodd;clip-rule:evenodd;fill:#FFFFFF;}
	.st4{fill:#FFFFFF;}
</style>
<g>
	<g>
		<g>
			<path class="st0" d="M15.5,0h14.3c8.6,0,15.5,6.9,15.5,15.5v14.3c0,8.6-6.9,15.5-15.5,15.5H15.5C6.9,45.4,0,38.4,0,29.8V15.5
				C0,6.9,6.9,0,15.5,0"/>
			<path class="st1" d="M23.6,39.7c0,0.5-0.4,0.9-0.9,0.9s-0.9-0.4-0.9-0.9c0-0.5,0.4-0.9,0.9-0.9S23.6,39.2,23.6,39.7"/>
			<path class="st1" d="M23.6,5.7c0,0.5-0.4,0.9-0.9,0.9s-0.9-0.4-0.9-0.9c0-0.5,0.4-0.9,0.9-0.9S23.6,5.2,23.6,5.7"/>
			<path class="st1" d="M40.5,22.7c0,0.5-0.4,0.9-0.9,0.9s-0.9-0.4-0.9-0.9c0-0.5,0.4-0.9,0.9-0.9S40.5,22.2,40.5,22.7"/>
			<path class="st1" d="M6.5,22.7c0,0.5-0.4,0.9-0.9,0.9s-0.9-0.4-0.9-0.9c0-0.5,0.4-0.9,0.9-0.9S6.5,22.2,6.5,22.7"/>
			<path class="st1" d="M9.5,8.7c0,0.5-0.4,0.9-0.9,0.9S7.7,9.1,7.7,8.7c0-0.5,0.4-0.9,0.9-0.9S9.5,8.2,9.5,8.7"/>
			<path class="st1" d="M37.5,36.7c0,0.5-0.4,0.9-0.9,0.9s-0.9-0.4-0.9-0.9c0-0.5,0.4-0.9,0.9-0.9S37.5,36.3,37.5,36.7"/>
			<path class="st1" d="M9.4,36.7c0,0.5-0.4,0.9-0.9,0.9s-0.9-0.4-0.9-0.9c0-0.5,0.4-0.9,0.9-0.9S9.4,36.2,9.4,36.7"/>
			<path class="st1" d="M37.6,8.6c0,0.5-0.4,0.9-0.9,0.9c-0.5,0-0.9-0.4-0.9-0.9c0-0.5,0.4-0.9,0.9-0.9C37.2,7.7,37.6,8.1,37.6,8.6"
				/>
		</g>
		<g>
			<g>
				<path class="st2" d="M15.9,11.4h13.6c2.5,0,4.6,2.1,4.6,4.6v13.6c0,2.5-2.1,4.6-4.6,4.6H15.9c-2.5,0-4.6-2.1-4.6-4.6V15.9
					C11.3,13.4,13.4,11.4,15.9,11.4z"/>
			</g>
		</g>
	</g>
</g>
<g>
	<path class="st3" d="M19.7,21.3V23h0.4c0.4,0,0.7-0.3,0.7-0.8c0-0.6-0.3-0.8-0.7-0.8H19.7z"/>
	<g>
		<path class="st4" d="M32.1,23.4c0-0.2,0-0.4,0-0.7c0-5.3-4.3-9.6-9.6-9.6S13,17.5,13,22.7s4.3,9.6,9.6,9.6c1.6,0,3.1-0.4,4.5-1.1
			c-0.3-0.2-0.6-0.5-0.8-0.8c-0.7,0.4-1.5,0.6-2.4,0.7c0.6-0.6,1.1-1.2,1.6-1.9c-0.1-0.2-0.2-0.3-0.2-0.5c-0.6,0.9-1.3,1.8-2.1,2.5
			c-0.1,0-0.2,0-0.3,0v-4.6c1.1,0,2.1,0.3,3.1,0.7l0.2-0.4c-1-0.4-2.1-0.7-3.2-0.7v-1.9h1.9v-0.7l0.6-0.1c-0.1,0-0.2,0-0.2,0
			c-0.6,0-1-0.3-1.1-0.8h0.6c0,0.2,0.2,0.4,0.5,0.4c0.3,0,0.5-0.1,0.5-0.3c0-0.3-0.3-0.3-0.6-0.4c-0.4-0.1-0.8-0.2-0.8-0.8
			c0-0.4,0.3-0.7,1-0.7c0.6,0,0.9,0.3,1,0.7h-0.5c0-0.2-0.2-0.3-0.5-0.3c-0.3,0-0.4,0.1-0.4,0.3c0,0.2,0.2,0.3,0.5,0.3
			c0.5,0.1,1,0.3,1,0.8c0,0.3-0.2,0.6-0.6,0.7l3.1-0.7L32.1,23.4z M19.1,26.9c-0.3-0.8-0.6-1.7-0.7-2.7h4v1.9
			C21.3,26.2,20.1,26.5,19.1,26.9L19.1,26.9z M19.3,27.4L19.3,27.4c1-0.4,2-0.7,3.1-0.7v4.6c-0.1,0-0.2,0-0.3,0
			C20.9,30.1,19.9,28.8,19.3,27.4 M28.4,16.5c-0.6,0.6-1.3,1.1-2,1.5c-0.6-1.3-1.4-2.6-2.5-3.6C25.6,14.6,27.1,15.3,28.4,16.5z
			 M22.9,14.2c0.1,0,0.2,0,0.2,0c1.2,1.1,2.2,2.4,2.8,3.9c-1,0.4-2,0.7-3.1,0.7V14.2z M22.1,14.2c0.1,0,0.2,0,0.3,0v4.6
			c-1.1,0-2.1-0.3-3.1-0.7C19.9,16.6,20.9,15.3,22.1,14.2z M21.4,14.3c-1.1,1-1.9,2.3-2.5,3.6c-0.7-0.4-1.4-0.9-2-1.5
			C18.1,15.3,19.7,14.6,21.4,14.3z M21.3,31.2c-1.7-0.3-3.2-1-4.5-2.1c0.6-0.6,1.3-1.1,2-1.4C19.5,28.9,20.3,30.1,21.3,31.2z
			 M18.7,27.2c-0.8,0.4-1.5,0.9-2.1,1.6c-1.5-1.5-2.4-3.5-2.5-5.8h3.8C17.9,24.4,18.2,25.8,18.7,27.2z M18.2,20l-0.1,0.2
			c-0.2,0.7-0.2,1.5-0.3,2.2h-3.8c0.1-2.2,1-4.2,2.4-5.7c0.6,0.6,1.4,1.2,2.2,1.6C18.5,18.9,18.3,19.4,18.2,20z M19.1,18.5
			c1,0.5,2.1,0.7,3.3,0.7V20h-3.8C18.8,19.5,18.9,19,19.1,18.5z M20.1,23.4h-0.9v-2.5h0.9c0.8,0,1.2,0.4,1.2,1.2
			C21.3,23,20.9,23.4,20.1,23.4z M23.8,23.4h-0.6l-1-1.8v1.8h-0.5v-2.5h0.6l0.9,1.7v-1.7h0.5V23.4z M22.9,20v-0.8
			c1.1,0,2.2-0.3,3.2-0.7c0.2,0.5,0.3,1,0.5,1.5H22.9z M27.4,22.5c0-1.4-0.3-2.8-0.8-4.2c0.8-0.4,1.5-0.9,2.2-1.6
			c1.5,1.5,2.4,3.5,2.4,5.7H27.4z"/>
	</g>
	<path class="st4" d="M30.9,23.8v0.4l-1.3-0.3v-0.4l-0.7-0.2L28,23.5v0.4l-1.3,0.3v-0.4l-1.2,0.3v2.4c0,2.2,1.4,4,3.3,4.8
		c1.9-0.8,3.3-2.6,3.3-4.8v-2.4L30.9,23.8z M26.4,26.4v-1.2l2.4-0.6c0.9,0.2,1.4,0.3,1.8,0.4l-3.5,3.5c-0.3-0.4-0.4-0.9-0.5-1.3
		C26.4,27,26.4,26.7,26.4,26.4z M31.1,27.3c-0.2,1.3-1.1,2.4-2.3,3c-0.5-0.2-0.9-0.6-1.2-0.9l3.6-3.6v0.7
		C31.2,26.7,31.1,27,31.1,27.3z"/>
</g>
</svg>
