<?xml version="1.0" encoding="utf-8"?>
<!-- Generator: Adobe Illustrator 27.2.0, SVG Export Plug-In . SVG Version: 6.00 Build 0)  -->
<svg version="1.1" id="Layer_1" xmlns="http://www.w3.org/2000/svg" xmlns:xlink="http://www.w3.org/1999/xlink" x="0px" y="0px"
	 viewBox="0 0 45.4 45.4" style="enable-background:new 0 0 45.4 45.4;" xml:space="preserve">
<style type="text/css">
	.st0{fill:#C2E0AF;}
	.st1{fill:#DEEED4;}
	.st2{fill:#6ABD46;}
	.st3{fill:none;stroke:#FFFFFF;stroke-width:1.2853;stroke-linecap:round;stroke-miterlimit:10;}
	.st4{fill:#FFFFFF;}
</style>
<g>
	<g>
		<g>
			<path class="st0" d="M15.5,0h14.3c8.6,0,15.5,6.9,15.5,15.5v14.3c0,8.6-6.9,15.5-15.5,15.5H15.5C6.9,45.4,0,38.4,0,29.8V15.5
				C0,6.9,6.9,0,15.5,0"/>
			<path class="st1" d="M23.6,39.7c0,0.5-0.4,0.9-0.9,0.9s-0.9-0.4-0.9-0.9c0-0.5,0.4-0.9,0.9-0.9S23.6,39.2,23.6,39.7"/>
			<path class="st1" d="M23.6,5.7c0,0.5-0.4,0.9-0.9,0.9s-0.9-0.4-0.9-0.9c0-0.5,0.4-0.9,0.9-0.9S23.6,5.2,23.6,5.7"/>
			<path class="st1" d="M40.5,22.7c0,0.5-0.4,0.9-0.9,0.9s-0.9-0.4-0.9-0.9c0-0.5,0.4-0.9,0.9-0.9S40.5,22.2,40.5,22.7"/>
			<path class="st1" d="M6.5,22.7c0,0.5-0.4,0.9-0.9,0.9s-0.9-0.4-0.9-0.9c0-0.5,0.4-0.9,0.9-0.9S6.5,22.2,6.5,22.7"/>
			<path class="st1" d="M9.5,8.7c0,0.5-0.4,0.9-0.9,0.9c-0.5,0-0.9-0.4-0.9-0.9c0-0.5,0.4-0.9,0.9-0.9C9.1,7.8,9.5,8.2,9.5,8.7"/>
			<path class="st1" d="M37.5,36.7c0,0.5-0.4,0.9-0.9,0.9c-0.5,0-0.9-0.4-0.9-0.9c0-0.5,0.4-0.9,0.9-0.9
				C37.1,35.9,37.5,36.3,37.5,36.7"/>
			<path class="st1" d="M9.4,36.7c0,0.5-0.4,0.9-0.9,0.9c-0.5,0-0.9-0.4-0.9-0.9c0-0.5,0.4-0.9,0.9-0.9C9,35.8,9.4,36.2,9.4,36.7"/>
			<path class="st1" d="M37.6,8.6c0,0.5-0.4,0.9-0.9,0.9s-0.9-0.4-0.9-0.9c0-0.5,0.4-0.9,0.9-0.9S37.6,8.1,37.6,8.6"/>
		</g>
		<g>
			<g>
				<path class="st2" d="M15.9,11.3h13.6c2.5,0,4.6,2.1,4.6,4.6v13.6c0,2.5-2.1,4.6-4.6,4.6H15.9c-2.5,0-4.6-2.1-4.6-4.6V15.9
					C11.3,13.4,13.3,11.3,15.9,11.3z"/>
			</g>
		</g>
	</g>
</g>
<g>
	<path class="st4" d="M23.3,21.8c0.6-0.2,1-0.8,1-1.4c0-0.9-0.7-1.6-1.6-1.6c-0.9,0-1.6,0.7-1.6,1.6c0,0.6,0.4,1.2,0.9,1.4l-3.3,8.5
		c-0.2,0.5,0.2,1,0.7,1h6.5c0.5,0,0.9-0.5,0.7-1L23.3,21.8z M20.1,30l2.5-6.3l2.5,6.3H20.1z"/>
	<path class="st4" d="M25.3,23.2c0.1,0.1,0.3,0.2,0.4,0.2c0.2,0,0.4-0.1,0.5-0.2c0.7-0.8,1.1-1.8,1.1-2.8c0-1-0.4-2-1.1-2.8
		c-0.2-0.3-0.6-0.3-0.9-0.1c-0.3,0.2-0.3,0.6-0.1,0.9c0.5,0.5,0.7,1.2,0.7,1.9s-0.3,1.4-0.7,1.9C25,22.6,25.1,23,25.3,23.2z"/>
	<path class="st4" d="M19,23.1c0.1,0.1,0.3,0.2,0.5,0.2c0.1,0,0.3-0.1,0.4-0.2c0.3-0.2,0.3-0.6,0.1-0.9c-0.5-0.5-0.7-1.2-0.7-1.9
		c0-0.7,0.2-1.4,0.7-1.9c0.2-0.3,0.2-0.7-0.1-0.9c-0.3-0.2-0.7-0.2-0.9,0.1c-0.7,0.8-1,1.7-1,2.7S18.4,22.4,19,23.1z"/>
	<path class="st4" d="M18.4,24.7c-0.6-0.5-1.2-1.1-1.5-1.9c-0.4-0.8-0.6-1.6-0.6-2.4s0.2-1.7,0.6-2.4c0.4-0.7,0.9-1.4,1.5-1.9
		c0.3-0.2,0.3-0.6,0.1-0.9c-0.2-0.3-0.6-0.3-0.9-0.1c-0.8,0.6-1.5,1.4-1.9,2.3c-0.5,0.9-0.7,2-0.7,3s0.2,2.1,0.7,3
		c0.5,0.9,1.1,1.7,1.9,2.3c0.1,0.1,0.3,0.1,0.4,0.1c0.2,0,0.4-0.1,0.5-0.3C18.8,25.3,18.7,24.9,18.4,24.7z"/>
	<path class="st4" d="M29.5,17.3c-0.5-0.9-1.1-1.7-1.9-2.3c-0.3-0.2-0.7-0.2-0.9,0.1s-0.2,0.7,0.1,0.9c0.7,0.5,1.2,1.1,1.6,1.9
		c0.4,0.8,0.6,1.6,0.6,2.5s-0.2,1.7-0.6,2.5c-0.4,0.7-0.9,1.4-1.6,1.9c-0.3,0.2-0.3,0.6-0.1,0.9c0.1,0.2,0.3,0.3,0.5,0.3
		c0.1,0,0.3,0,0.4-0.1c0.8-0.6,1.5-1.4,1.9-2.3c0.5-0.9,0.7-2,0.7-3C30.3,19.3,30,18.3,29.5,17.3z"/>
</g>
</svg>
