<?xml version="1.0" encoding="utf-8"?>
<!-- Generator: Adobe Illustrator 27.2.0, SVG Export Plug-In . SVG Version: 6.00 Build 0)  -->
<svg version="1.1" id="Layer_1" xmlns="http://www.w3.org/2000/svg" xmlns:xlink="http://www.w3.org/1999/xlink" x="0px" y="0px"
	 viewBox="0 0 45.4 45.4" style="enable-background:new 0 0 45.4 45.4;" xml:space="preserve">
<style type="text/css">
	.st0{fill:#C2E0AF;}
	.st1{fill:#DEEED4;}
	.st2{fill:#6ABD46;}
	.st3{fill-rule:evenodd;clip-rule:evenodd;fill:#FFFFFF;}
	.st4{fill:#FFFFFF;}
</style>
<g>
	<g>
		<g>
			<path class="st0" d="M15.5,0h14.3c8.6,0,15.5,6.9,15.5,15.5v14.3c0,8.6-6.9,15.5-15.5,15.5H15.5C6.9,45.4,0,38.4,0,29.8V15.5
				C0,6.9,6.9,0,15.5,0"/>
			<path class="st1" d="M23.6,39.7c0,0.5-0.4,0.9-0.9,0.9s-0.9-0.4-0.9-0.9c0-0.5,0.4-0.9,0.9-0.9S23.6,39.2,23.6,39.7"/>
			<path class="st1" d="M23.6,5.7c0,0.5-0.4,0.9-0.9,0.9s-0.9-0.4-0.9-0.9c0-0.5,0.4-0.9,0.9-0.9S23.6,5.2,23.6,5.7"/>
			<path class="st1" d="M40.5,22.7c0,0.5-0.4,0.9-0.9,0.9s-0.9-0.4-0.9-0.9c0-0.5,0.4-0.9,0.9-0.9S40.5,22.2,40.5,22.7"/>
			<path class="st1" d="M6.5,22.7c0,0.5-0.4,0.9-0.9,0.9s-0.9-0.4-0.9-0.9c0-0.5,0.4-0.9,0.9-0.9S6.5,22.2,6.5,22.7"/>
			<path class="st1" d="M9.5,8.7c0,0.5-0.4,0.9-0.9,0.9c-0.5,0-0.9-0.4-0.9-0.9c0-0.5,0.4-0.9,0.9-0.9C9.1,7.8,9.5,8.2,9.5,8.7"/>
			<path class="st1" d="M37.5,36.7c0,0.5-0.4,0.9-0.9,0.9c-0.5,0-0.9-0.4-0.9-0.9c0-0.5,0.4-0.9,0.9-0.9
				C37.1,35.9,37.5,36.3,37.5,36.7"/>
			<path class="st1" d="M9.4,36.7c0,0.5-0.4,0.9-0.9,0.9c-0.5,0-0.9-0.4-0.9-0.9c0-0.5,0.4-0.9,0.9-0.9C9,35.8,9.4,36.2,9.4,36.7"/>
			<path class="st1" d="M37.6,8.6c0,0.5-0.4,0.9-0.9,0.9s-0.9-0.4-0.9-0.9c0-0.5,0.4-0.9,0.9-0.9S37.6,8.1,37.6,8.6"/>
		</g>
		<g>
			<g>
				<path class="st2" d="M15.9,11.3h13.6c2.5,0,4.6,2.1,4.6,4.6v13.6c0,2.5-2.1,4.6-4.6,4.6H15.9c-2.5,0-4.6-2.1-4.6-4.6V15.9
					C11.3,13.4,13.3,11.3,15.9,11.3z"/>
			</g>
		</g>
	</g>
</g>
<path class="st3" d="M25.6,26.9L25.2,26c0.3-0.3,0.7-0.6,0.9-1l0.9,0.3c0.2,0.1,0.5,0,0.6-0.3l0.3-0.9c0.1-0.2,0-0.5-0.3-0.6l-1-0.4
	c0.1-0.4,0.1-0.9-0.1-1.4l0.9-0.5c0.2-0.1,0.3-0.4,0.2-0.6l-0.4-0.9c-0.1-0.2-0.4-0.3-0.6-0.2l-0.9,0.4c-0.3-0.4-0.6-0.7-1-0.9
	l0.4-1c0-0.3,0-0.5-0.3-0.6l-0.9-0.3c-0.3-0.1-0.5,0-0.6,0.3l-0.3,0.9c-0.5-0.1-0.9,0-1.4,0.1l-0.4-1c-0.1-0.2-0.4-0.3-0.6-0.2
	l-0.8,0.4c-0.2,0.1-0.4,0.4-0.2,0.6l0.5,0.9c-0.4,0.3-0.7,0.6-0.9,1l-1-0.4c-0.2-0.1-0.5,0-0.6,0.3l-0.3,0.9c-0.1,0.3,0,0.5,0.3,0.6
	l1,0.4c0,0.4,0,0.9,0.1,1.4L17.7,24c-0.2,0.1-0.3,0.4-0.2,0.6l0.4,0.8c0.1,0.3,0.4,0.3,0.7,0.2l0.9-0.4c0.3,0.4,0.6,0.7,1,0.9
	l-0.3,1c-0.1,0.2,0,0.5,0.2,0.6l0.9,0.3c0.2,0.1,0.5,0,0.6-0.3l0.3-0.9c0.4,0,0.9,0,1.4-0.1l0.4,0.9c0.2,0.2,0.4,0.3,0.6,0.2
	l0.9-0.4C25.6,27.3,25.7,27.1,25.6,26.9 M20.1,23.9c-0.7-1.4-0.1-3,1.3-3.7c1.4-0.7,3-0.1,3.7,1.3c0.6,1.4,0.1,3.1-1.3,3.7
	C22.5,25.9,20.8,25.3,20.1,23.9"/>
<g>
	<g>
		<path class="st4" d="M26.8,14.8c0.4,0,0.7,0.3,0.7,0.7c0,0.4-0.3,0.7-0.7,0.7s-0.7-0.3-0.7-0.7C26.1,15.1,26.4,14.8,26.8,14.8
			 M26.8,14.3c-0.7,0-1.2,0.6-1.2,1.2c0,0.7,0.6,1.2,1.2,1.2c0.7,0,1.2-0.6,1.2-1.2C28,14.8,27.5,14.3,26.8,14.3L26.8,14.3z"/>
	</g>
</g>
<g>
	<g>
		<path class="st4" d="M29.8,26.1c0.4,0,0.7,0.3,0.7,0.7c0,0.4-0.3,0.7-0.7,0.7s-0.7-0.3-0.7-0.7C29.1,26.5,29.4,26.1,29.8,26.1
			 M29.8,25.6c-0.7,0-1.2,0.6-1.2,1.2c0,0.7,0.6,1.2,1.2,1.2s1.2-0.6,1.2-1.2C31,26.2,30.5,25.6,29.8,25.6L29.8,25.6z"/>
	</g>
</g>
<g>
	<g>
		<path class="st4" d="M15.5,17.8c0.4,0,0.7,0.3,0.7,0.7c0,0.4-0.3,0.7-0.7,0.7c-0.4,0-0.7-0.3-0.7-0.7
			C14.7,18.1,15.1,17.8,15.5,17.8 M15.5,17.3c-0.7,0-1.2,0.6-1.2,1.2c0,0.7,0.6,1.2,1.2,1.2c0.7,0,1.2-0.6,1.2-1.2
			S16.1,17.3,15.5,17.3L15.5,17.3z"/>
	</g>
</g>
<g>
	<g>
		<path class="st4" d="M18.5,29.1c0.4,0,0.7,0.3,0.7,0.7c0,0.4-0.3,0.7-0.7,0.7s-0.7-0.3-0.7-0.7S18.1,29.1,18.5,29.1 M18.5,28.6
			c-0.7,0-1.2,0.6-1.2,1.2s0.6,1.2,1.2,1.2c0.7,0,1.2-0.6,1.2-1.2C19.7,29.2,19.1,28.6,18.5,28.6L18.5,28.6z"/>
	</g>
</g>
<g>
	<path class="st4" d="M22.8,15.3l1.1-1.6c0.1-0.2,0-0.4-0.2-0.4l-2.1,0c-0.2,0-0.3,0.2-0.2,0.4l1.1,1.6
		C22.5,15.4,22.7,15.4,22.8,15.3z"/>
</g>
<g>
	<path class="st4" d="M31.1,23.6l1.1-1.6c0.1-0.2,0-0.4-0.2-0.4l-2.1,0c-0.2,0-0.3,0.2-0.2,0.4l1.1,1.6C30.8,23.8,31,23.8,31.1,23.6
		z"/>
</g>
<g>
	<path class="st4" d="M14.5,23.6l1.1-1.6c0.1-0.2,0-0.4-0.2-0.4l-2.1,0c-0.2,0-0.3,0.2-0.2,0.4l1.1,1.6
		C14.2,23.7,14.4,23.7,14.5,23.6z"/>
</g>
<g>
	<path class="st4" d="M22.8,31.9l1.1-1.6c0.1-0.2,0-0.4-0.2-0.4l-2.1,0c-0.2,0-0.3,0.2-0.2,0.4l1.1,1.6
		C22.5,32.1,22.7,32.1,22.8,31.9z"/>
</g>
<path class="st4" d="M29.1,17.4h1.5c0.2,0,0.4,0.2,0.4,0.4v1.5c0,0.2-0.2,0.4-0.4,0.4h-1.5c-0.2,0-0.4-0.2-0.4-0.4v-1.5
	C28.7,17.6,28.9,17.4,29.1,17.4z"/>
<path class="st4" d="M26,28.8h1.5c0.2,0,0.4,0.2,0.4,0.4v1.5c0,0.2-0.2,0.4-0.4,0.4H26c-0.2,0-0.4-0.2-0.4-0.4v-1.5
	C25.6,28.9,25.8,28.8,26,28.8z"/>
<path class="st4" d="M17.8,14.4h1.5c0.2,0,0.4,0.2,0.4,0.4v1.5c0,0.2-0.2,0.4-0.4,0.4h-1.5c-0.2,0-0.4-0.2-0.4-0.4v-1.5
	C17.4,14.5,17.5,14.4,17.8,14.4z"/>
<path class="st4" d="M14.7,25.7h1.5c0.2,0,0.4,0.2,0.4,0.4v1.5c0,0.2-0.2,0.4-0.4,0.4h-1.5c-0.2,0-0.4-0.2-0.4-0.4v-1.5
	C14.3,25.9,14.5,25.7,14.7,25.7z"/>
</svg>
