<?xml version="1.0" encoding="utf-8"?>
<!-- Generator: Adobe Illustrator 27.2.0, SVG Export Plug-In . SVG Version: 6.00 Build 0)  -->
<svg version="1.1" id="Layer_1" xmlns="http://www.w3.org/2000/svg" xmlns:xlink="http://www.w3.org/1999/xlink" x="0px" y="0px"
	 viewBox="0 0 45.4 45.4" style="enable-background:new 0 0 45.4 45.4;" xml:space="preserve">
<style type="text/css">
	.st0{fill:#C2E0AF;}
	.st1{fill:#DEEED4;}
	.st2{fill:#6ABD46;}
	.st3{fill:#FFFFFF;}
</style>
<g>
	<g>
		<g>
			<path class="st0" d="M15.5,0h14.3c8.6,0,15.5,6.9,15.5,15.5v14.3c0,8.6-6.9,15.5-15.5,15.5H15.5C6.9,45.4,0,38.4,0,29.8V15.5
				C0,6.9,6.9,0,15.5,0"/>
			<path class="st1" d="M23.6,39.7c0,0.5-0.4,0.9-0.9,0.9s-0.9-0.4-0.9-0.9c0-0.5,0.4-0.9,0.9-0.9S23.6,39.2,23.6,39.7"/>
			<path class="st1" d="M23.6,5.7c0,0.5-0.4,0.9-0.9,0.9s-0.9-0.4-0.9-0.9c0-0.5,0.4-0.9,0.9-0.9S23.6,5.2,23.6,5.7"/>
			<path class="st1" d="M40.5,22.7c0,0.5-0.4,0.9-0.9,0.9s-0.9-0.4-0.9-0.9c0-0.5,0.4-0.9,0.9-0.9S40.5,22.2,40.5,22.7"/>
			<path class="st1" d="M6.5,22.7c0,0.5-0.4,0.9-0.9,0.9s-0.9-0.4-0.9-0.9c0-0.5,0.4-0.9,0.9-0.9S6.5,22.2,6.5,22.7"/>
			<path class="st1" d="M9.5,8.7c0,0.5-0.4,0.9-0.9,0.9c-0.5,0-0.9-0.4-0.9-0.9c0-0.5,0.4-0.9,0.9-0.9C9.1,7.8,9.5,8.2,9.5,8.7"/>
			<path class="st1" d="M37.5,36.7c0,0.5-0.4,0.9-0.9,0.9c-0.5,0-0.9-0.4-0.9-0.9c0-0.5,0.4-0.9,0.9-0.9
				C37.1,35.9,37.5,36.3,37.5,36.7"/>
			<path class="st1" d="M9.4,36.7c0,0.5-0.4,0.9-0.9,0.9c-0.5,0-0.9-0.4-0.9-0.9c0-0.5,0.4-0.9,0.9-0.9C9,35.8,9.4,36.2,9.4,36.7"/>
			<path class="st1" d="M37.6,8.6c0,0.5-0.4,0.9-0.9,0.9s-0.9-0.4-0.9-0.9c0-0.5,0.4-0.9,0.9-0.9S37.6,8.1,37.6,8.6"/>
		</g>
		<g>
			<g>
				<path class="st2" d="M15.9,11.4h13.6c2.5,0,4.6,2.1,4.6,4.6v13.6c0,2.5-2.1,4.6-4.6,4.6H15.9c-2.5,0-4.6-2.1-4.6-4.6V15.9
					C11.3,13.4,13.4,11.4,15.9,11.4z"/>
			</g>
		</g>
	</g>
</g>
<g>
	<path class="st3" d="M21,20.5L21,20.5c-0.4,0.1-0.7,0.3-1,0.6c-0.3,0.3-0.6,0.6-0.8,1l-0.1-0.1c-0.1-0.2-0.2-0.3-0.3-0.3
		c-0.1,0-0.2,0-0.4,0.2c0.1,0,0.2,0.1,0.2,0.1c0,0,0.1,0.1,0.1,0.2h0c0,0,0,0.1,0.1,0.1l0.1,0.1c0.1,0.1,0.1,0.2,0.1,0.3
		c0,0,0,0,0,0c0,0,0,0,0,0c0.1,0,0.1-0.1,0.2-0.2l0.1-0.1c0,0,0,0,0,0l0,0c0-0.1,0.1-0.2,0.1-0.3h0c0.1-0.3,0.3-0.5,0.6-0.8
		C20.5,20.9,20.8,20.6,21,20.5z"/>
	<path class="st3" d="M19.6,19.7h6.1c0-0.1,0-0.2,0-0.2c-0.1-0.5-0.4-0.9-0.9-1c-0.1,0-0.2,0-0.2-0.1c-0.3-0.1-0.4-0.3-0.4-0.6
		c0-0.2,0-0.4,0-0.7c0-0.7-0.6-1.3-1.3-1.4c-0.8,0-1.4,0.5-1.6,1.2c0,0.3,0,0.6,0,0.9c0,0.2-0.1,0.4-0.3,0.5c-0.1,0-0.2,0.1-0.3,0.1
		C20,18.6,19.7,19,19.6,19.7z M22.6,16.7c0.3,0,0.5,0.2,0.5,0.5c0,0.2-0.2,0.5-0.5,0.5c-0.3,0-0.5-0.2-0.5-0.5
		C22.2,16.9,22.4,16.7,22.6,16.7z"/>
	<path class="st3" d="M28.3,17.6c0-0.5-0.4-0.9-0.9-0.9h-2.1h-0.2V17c0,0.4,0.2,0.7,0.7,0.7h1c0.4,0,0.5,0.1,0.5,0.5
		c0,1,0,1.9,0,2.9v7.3c0,0.3-0.2,0.5-0.5,0.5c-2.7,0-5.4,0-8.1,0c-0.3,0-0.5-0.2-0.5-0.5V18.2c0-0.3,0.2-0.5,0.5-0.5
		c0.4,0,0.7,0,1.1,0c0.3,0,0.6-0.2,0.6-0.5c0-0.2,0-0.4,0-0.5h-0.2H18c-0.5,0-0.9,0.4-0.9,0.9c0,3.8,0,7.6,0,11.4
		c0,0.5,0.4,0.9,0.9,0.9h9.4c0.5,0,0.9-0.4,0.9-0.9C28.3,25.2,28.3,21.4,28.3,17.6z"/>
	<path class="st3" d="M25.4,22.4v-0.3v-0.2H20v0.7h0.4c-0.1,0.1-0.2,0.2-0.4,0.3c-0.3,0.3-0.6,0.6-0.8,1l-0.1-0.1
		c-0.1-0.2-0.2-0.3-0.3-0.3c-0.1,0-0.2,0.1-0.4,0.2c0.1,0,0.2,0.1,0.2,0.1c0.1,0.1,0.1,0.2,0.2,0.3l0.1,0.1c0,0.1,0.1,0.2,0.1,0.3
		c0.1,0,0.1-0.1,0.2-0.2l0.1-0.1c0.2-0.3,0.4-0.7,0.7-1.1c0.2-0.2,0.3-0.4,0.5-0.6h4.8V22.4z"/>
	<path class="st3" d="M25.4,24.4v-0.3v-0.2H20v0.7h0.3c-0.1,0.1-0.2,0.2-0.2,0.2c-0.3,0.3-0.6,0.7-0.8,1l-0.1-0.1
		c-0.1-0.2-0.2-0.4-0.3-0.4c-0.1,0-0.2,0.1-0.4,0.2c0.1,0,0.2,0.1,0.2,0.2c0.1,0.1,0.1,0.2,0.2,0.4l0.1,0.1c0,0.1,0.1,0.2,0.1,0.3
		c0.1-0.1,0.1-0.1,0.2-0.2l0.1-0.1c0.2-0.4,0.4-0.8,0.7-1.1c0.1-0.2,0.3-0.3,0.4-0.5h0c0,0,0,0,0,0h4.8V24.4z"/>
	<polygon class="st3" points="20,26.6 25.4,26.6 25.4,26.4 25.4,26 25.4,25.9 20,25.9 	"/>
</g>
</svg>
