<?xml version="1.0" encoding="utf-8"?>
<!-- Generator: Adobe Illustrator 27.2.0, SVG Export Plug-In . SVG Version: 6.00 Build 0)  -->
<svg version="1.1" id="Layer_1" xmlns="http://www.w3.org/2000/svg" xmlns:xlink="http://www.w3.org/1999/xlink" x="0px" y="0px"
	 viewBox="0 0 45.4 45.4" style="enable-background:new 0 0 45.4 45.4;" xml:space="preserve">
<style type="text/css">
	.st0{fill:#C2E0AF;}
	.st1{fill:#DEEED4;}
	.st2{fill:#6ABD46;}
	.st3{fill:#FFFFFF;}
</style>
<g>
	<g>
		<g>
			<path class="st0" d="M15.5,0h14.3c8.6,0,15.5,6.9,15.5,15.5v14.3c0,8.6-6.9,15.5-15.5,15.5H15.5C6.9,45.4,0,38.4,0,29.8V15.5
				C0,6.9,6.9,0,15.5,0"/>
			<path class="st1" d="M23.6,39.7c0,0.5-0.4,0.9-0.9,0.9s-0.9-0.4-0.9-0.9c0-0.5,0.4-0.9,0.9-0.9S23.6,39.2,23.6,39.7"/>
			<path class="st1" d="M23.6,5.7c0,0.5-0.4,0.9-0.9,0.9s-0.9-0.4-0.9-0.9c0-0.5,0.4-0.9,0.9-0.9S23.6,5.2,23.6,5.7"/>
			<path class="st1" d="M40.5,22.7c0,0.5-0.4,0.9-0.9,0.9s-0.9-0.4-0.9-0.9c0-0.5,0.4-0.9,0.9-0.9S40.5,22.2,40.5,22.7"/>
			<path class="st1" d="M6.5,22.7c0,0.5-0.4,0.9-0.9,0.9s-0.9-0.4-0.9-0.9c0-0.5,0.4-0.9,0.9-0.9S6.5,22.2,6.5,22.7"/>
			<path class="st1" d="M9.5,8.7c0,0.5-0.4,0.9-0.9,0.9c-0.5,0-0.9-0.4-0.9-0.9c0-0.5,0.4-0.9,0.9-0.9C9.1,7.8,9.5,8.2,9.5,8.7"/>
			<path class="st1" d="M37.5,36.7c0,0.5-0.4,0.9-0.9,0.9c-0.5,0-0.9-0.4-0.9-0.9c0-0.5,0.4-0.9,0.9-0.9
				C37.1,35.9,37.5,36.3,37.5,36.7"/>
			<path class="st1" d="M9.4,36.7c0,0.5-0.4,0.9-0.9,0.9c-0.5,0-0.9-0.4-0.9-0.9c0-0.5,0.4-0.9,0.9-0.9C9,35.8,9.4,36.2,9.4,36.7"/>
			<path class="st1" d="M37.6,8.6c0,0.5-0.4,0.9-0.9,0.9s-0.9-0.4-0.9-0.9c0-0.5,0.4-0.9,0.9-0.9S37.6,8.1,37.6,8.6"/>
		</g>
		<g>
			<g>
				<path class="st2" d="M15.9,11.4h13.6c2.5,0,4.6,2.1,4.6,4.6v13.6c0,2.5-2.1,4.6-4.6,4.6H15.9c-2.5,0-4.6-2.1-4.6-4.6V15.9
					C11.3,13.4,13.4,11.4,15.9,11.4z"/>
			</g>
			<path class="st3" d="M32.7,19.3C32.7,19.3,32.7,19.3,32.7,19.3L31,17.6c-0.2-0.2-0.4-0.2-0.6,0l-0.1,0.1c-0.2,0.2-0.2,0.4,0,0.6
				l1,1h-3.2c-1.2-1.7-3.2-2.9-5.4-2.9c-2.3,0-4.2,1.2-5.4,2.9h-3.6c-0.2,0-0.4,0.2-0.4,0.4v0.1c0,0.2,0.2,0.4,0.4,0.4h3.1
				c-0.4,0.8-0.6,1.7-0.6,2.7c0,0.9,0.2,1.8,0.5,2.6h-2.6l1-1c0.2-0.2,0.2-0.4,0-0.6l-0.1-0.1c-0.2-0.2-0.4-0.2-0.6,0l-1.7,1.7
				c0,0,0,0.1-0.1,0.1c-0.1,0.1-0.1,0.2-0.1,0.3v0.1c0,0.1,0.1,0.2,0.2,0.3c0,0,0,0,0,0l1.7,1.7c0.2,0.2,0.4,0.2,0.6,0l0.1-0.1
				c0.2-0.2,0.2-0.4,0-0.6l-1-1h3.1c1.2,1.8,3.2,3,5.5,3c2.3,0,4.3-1.2,5.5-3h3.6c0.2,0,0.4-0.2,0.4-0.4v-0.1c0-0.2-0.2-0.4-0.4-0.4
				h-3.1c0.3-0.8,0.5-1.7,0.5-2.6c0-0.9-0.2-1.8-0.6-2.7h2.7l-1,1c-0.2,0.2-0.2,0.4,0,0.6l0.1,0.1c0.2,0.2,0.4,0.2,0.6,0l1.7-1.7
				c0,0,0-0.1,0.1-0.1c0.1-0.1,0.1-0.2,0.1-0.3v-0.1C32.9,19.5,32.8,19.4,32.7,19.3z M22.7,17.4c1.6,0,3,0.7,4,1.8h-8
				C19.7,18.1,21.1,17.4,22.7,17.4z M22.7,28.2c-1.6,0-3.1-0.7-4.1-1.9h8.1C25.8,27.5,24.3,28.2,22.7,28.2z M28.1,22.8
				c0,0.9-0.3,1.8-0.7,2.6H18c-0.4-0.8-0.7-1.6-0.7-2.6c0-1,0.3-1.9,0.7-2.7h9.3C27.8,20.9,28.1,21.8,28.1,22.8z"/>
		</g>
	</g>
</g>
</svg>
