<?xml version="1.0" encoding="utf-8"?>
<!-- Generator: Adobe Illustrator 27.2.0, SVG Export Plug-In . SVG Version: 6.00 Build 0)  -->
<svg version="1.1" id="Layer_1" xmlns="http://www.w3.org/2000/svg" xmlns:xlink="http://www.w3.org/1999/xlink" x="0px" y="0px"
	 viewBox="0 0 45.4 45.4" style="enable-background:new 0 0 45.4 45.4;" xml:space="preserve">
<style type="text/css">
	.st0{fill:#C2E0AF;}
	.st1{fill:#DEEED4;}
	.st2{fill:#6ABD46;}
	.st3{fill:#FFFFFF;}
</style>
<g>
	<g>
		<g>
			<path class="st0" d="M15.5,0h14.3c8.6,0,15.5,6.9,15.5,15.5v14.3c0,8.6-6.9,15.5-15.5,15.5H15.5C6.9,45.4,0,38.4,0,29.8V15.5
				C0,6.9,6.9,0,15.5,0"/>
			<path class="st1" d="M23.6,39.7c0,0.5-0.4,0.9-0.9,0.9s-0.9-0.4-0.9-0.9c0-0.5,0.4-0.9,0.9-0.9S23.6,39.2,23.6,39.7"/>
			<path class="st1" d="M23.6,5.7c0,0.5-0.4,0.9-0.9,0.9s-0.9-0.4-0.9-0.9c0-0.5,0.4-0.9,0.9-0.9S23.6,5.2,23.6,5.7"/>
			<path class="st1" d="M40.5,22.7c0,0.5-0.4,0.9-0.9,0.9s-0.9-0.4-0.9-0.9c0-0.5,0.4-0.9,0.9-0.9S40.5,22.2,40.5,22.7"/>
			<path class="st1" d="M6.5,22.7c0,0.5-0.4,0.9-0.9,0.9s-0.9-0.4-0.9-0.9c0-0.5,0.4-0.9,0.9-0.9S6.5,22.2,6.5,22.7"/>
			<path class="st1" d="M9.5,8.7c0,0.5-0.4,0.9-0.9,0.9S7.7,9.1,7.7,8.7c0-0.5,0.4-0.9,0.9-0.9S9.5,8.2,9.5,8.7"/>
			<path class="st1" d="M37.5,36.7c0,0.5-0.4,0.9-0.9,0.9s-0.9-0.4-0.9-0.9c0-0.5,0.4-0.9,0.9-0.9S37.5,36.3,37.5,36.7"/>
			<path class="st1" d="M9.4,36.7c0,0.5-0.4,0.9-0.9,0.9s-0.9-0.4-0.9-0.9c0-0.5,0.4-0.9,0.9-0.9S9.4,36.2,9.4,36.7"/>
			<path class="st1" d="M37.6,8.6c0,0.5-0.4,0.9-0.9,0.9c-0.5,0-0.9-0.4-0.9-0.9c0-0.5,0.4-0.9,0.9-0.9C37.2,7.7,37.6,8.1,37.6,8.6"
				/>
		</g>
		<g>
			<g>
				<path class="st2" d="M15.9,11.4h13.6c2.5,0,4.6,2.1,4.6,4.6v13.6c0,2.5-2.1,4.6-4.6,4.6H15.9c-2.5,0-4.6-2.1-4.6-4.6V15.9
					C11.3,13.4,13.4,11.4,15.9,11.4z"/>
			</g>
			<g>
				<g>
					<g>
						<path class="st3" d="M14.6,24.6L14.6,24.6v0.2v0H17v1.9h-2.4v0v0.1v0h5.2v1.9h-5.2v0V29v0H17v1.9h-2.4v0v0.1v0h5.2V33H20v-1.9
							h5.3V33h0.2v-1.9h5.3v0v-0.1v0h-2.5V29h2.5v0v-0.1v0h-5.3v-1.9h5.3v0v-0.1v0h-2.5v-1.9h2.5v0v-0.1v0H14.6z M17.2,24.8h5.4v1.9
							h-5.4V24.8z M17.2,29h5.4v1.9h-5.4V29z M28.2,30.9h-5.4V29h5.4V30.9z M25.4,28.8H20v-1.9h5.3V28.8z M28.2,26.7h-5.4v-1.9h5.4
							V26.7z"/>
					</g>
				</g>
				<path class="st3" d="M23,12.9c-2.1,0-3.8,1.7-3.8,3.8c0,2.1,1.7,3.8,3.8,3.8c2.1,0,3.8-1.7,3.8-3.8C26.8,14.6,25.1,12.9,23,12.9
					z M23,19.6c-1.6,0-2.9-1.3-2.9-2.9c0-1.6,1.3-2.9,2.9-2.9c1.6,0,2.9,1.3,2.9,2.9C25.9,18.3,24.6,19.6,23,19.6z M18.2,20.1
					L16.3,22c-0.4,0.4-0.4,1,0,1.4c0.4,0.4,1,0.4,1.4,0l1.9-1.9c0.4-0.4,0.4-1,0-1.4C19.2,19.7,18.6,19.7,18.2,20.1z M23.3,16.5
					c-0.1,0.1-0.1,0.3,0,0.4l0,0c0.1,0.1,0.3,0.1,0.4,0l1-1c0,0,0,0,0,0c0.1,0,0.1-0.1,0.1-0.2v-0.1c0-0.1,0-0.1-0.1-0.2
					c0,0,0,0,0-0.1l-1-1c-0.1-0.1-0.3-0.1-0.4,0l0,0c-0.1,0.1-0.1,0.3,0,0.4l0.6,0.6h-3c0,0-0.2,0.2-0.3,0.6c0.9,0,3.3,0,3.3,0
					L23.3,16.5z M22.7,17c0.1-0.1,0.1-0.3,0-0.4l0,0c-0.1-0.1-0.3-0.1-0.4,0l-1,1c0,0,0,0,0,0c-0.1,0-0.1,0.1-0.1,0.2v0.1
					c0,0.1,0,0.1,0.1,0.2c0,0,0,0,0,0.1l1,1c0.1,0.1,0.3,0.1,0.4,0l0,0c0.1-0.1,0.1-0.3,0-0.4l-0.6-0.6h3c0,0,0.2-0.2,0.3-0.6
					c-0.9,0-3.3,0-3.3,0L22.7,17z M29.7,17.7h-2.6L27,18h2.7c0.1,0,0.2-0.1,0.2-0.2v0C29.8,17.7,29.8,17.7,29.7,17.7z M16.4,15.7H19
					l0.1-0.4h-2.7c-0.1,0-0.2,0.1-0.2,0.2v0C16.2,15.6,16.3,15.7,16.4,15.7z"/>
			</g>
		</g>
	</g>
</g>
</svg>
