<?xml version="1.0" encoding="utf-8"?>
<!-- Generator: Adobe Illustrator 27.2.0, SVG Export Plug-In . SVG Version: 6.00 Build 0)  -->
<svg version="1.1" id="Layer_1" xmlns="http://www.w3.org/2000/svg" xmlns:xlink="http://www.w3.org/1999/xlink" x="0px" y="0px"
	 viewBox="0 0 45.4 45.4" style="enable-background:new 0 0 45.4 45.4;" xml:space="preserve">
<style type="text/css">
	.st0{fill:#C2E0AF;}
	.st1{fill:#DEEED4;}
	.st2{fill:#6ABD46;}
	.st3{fill-rule:evenodd;clip-rule:evenodd;fill:#FFFFFF;}
</style>
<g>
	<g>
		<g>
			<path class="st0" d="M15.5,0h14.3c8.6,0,15.5,6.9,15.5,15.5v14.3c0,8.6-6.9,15.5-15.5,15.5H15.5C6.9,45.4,0,38.4,0,29.8V15.5
				C0,6.9,6.9,0,15.5,0"/>
			<path class="st1" d="M23.6,39.7c0,0.5-0.4,0.9-0.9,0.9s-0.9-0.4-0.9-0.9c0-0.5,0.4-0.9,0.9-0.9S23.6,39.2,23.6,39.7"/>
			<path class="st1" d="M23.6,5.7c0,0.5-0.4,0.9-0.9,0.9s-0.9-0.4-0.9-0.9c0-0.5,0.4-0.9,0.9-0.9S23.6,5.2,23.6,5.7"/>
			<path class="st1" d="M40.5,22.7c0,0.5-0.4,0.9-0.9,0.9s-0.9-0.4-0.9-0.9c0-0.5,0.4-0.9,0.9-0.9S40.5,22.2,40.5,22.7"/>
			<path class="st1" d="M6.5,22.7c0,0.5-0.4,0.9-0.9,0.9s-0.9-0.4-0.9-0.9c0-0.5,0.4-0.9,0.9-0.9S6.5,22.2,6.5,22.7"/>
			<path class="st1" d="M9.5,8.7c0,0.5-0.4,0.9-0.9,0.9c-0.5,0-0.9-0.4-0.9-0.9c0-0.5,0.4-0.9,0.9-0.9C9.1,7.8,9.5,8.2,9.5,8.7"/>
			<path class="st1" d="M37.5,36.7c0,0.5-0.4,0.9-0.9,0.9c-0.5,0-0.9-0.4-0.9-0.9c0-0.5,0.4-0.9,0.9-0.9
				C37.1,35.9,37.5,36.3,37.5,36.7"/>
			<path class="st1" d="M9.4,36.7c0,0.5-0.4,0.9-0.9,0.9c-0.5,0-0.9-0.4-0.9-0.9c0-0.5,0.4-0.9,0.9-0.9C9,35.8,9.4,36.2,9.4,36.7"/>
			<path class="st1" d="M37.6,8.6c0,0.5-0.4,0.9-0.9,0.9s-0.9-0.4-0.9-0.9c0-0.5,0.4-0.9,0.9-0.9S37.6,8.1,37.6,8.6"/>
		</g>
		<g>
			<g>
				<path class="st2" d="M15.9,11.4h13.6c2.5,0,4.6,2.1,4.6,4.6v13.6c0,2.5-2.1,4.6-4.6,4.6H15.9c-2.5,0-4.6-2.1-4.6-4.6V15.9
					C11.3,13.4,13.4,11.4,15.9,11.4z"/>
			</g>
		</g>
	</g>
</g>
<g>
	<path class="st3" d="M29.5,28.8h-0.1v-5.1c0-0.5-0.4-1-1-1H25c-0.6-0.9-1.5-1.6-2.5-2c0.7-0.6,1.2-1.5,1.2-2.5
		c0-1.8-1.4-3.2-3.2-3.2c-1.8,0-3.2,1.4-3.2,3.2c0,1,0.4,1.8,1.1,2.4c-2.2,0.8-3.5,3-3.5,5.6v1.9H19v0.6h-0.1
		c-0.5,0-0.9,0.4-0.9,0.9s0.4,0.9,0.9,0.9h10.6c0.5,0,0.9-0.4,0.9-0.9S30,28.8,29.5,28.8z M18,18.2c0-1.4,1.1-2.5,2.5-2.5
		c1.4,0,2.5,1.1,2.5,2.5c0,1.4-1.1,2.5-2.5,2.5C19.1,20.7,18,19.6,18,18.2z M15.6,27.4v-1.1c0-2.6,1.4-4.6,3.6-5.1
		c0.8,0.3,1.7,0.3,2.5,0c0.9,0.2,1.8,0.8,2.4,1.5H20c-0.5,0-1,0.4-1,1v3.8H15.6z M19.8,23.6c0-0.1,0.1-0.2,0.2-0.2h8.4
		c0.1,0,0.2,0.1,0.2,0.2v5.1h-8.8V23.6z"/>
</g>
<g>
	<g>
		<path class="st3" d="M22.5,26.2c-0.1,0-0.2,0.2-0.2,0.3c0,0.1,0.2,0.2,0.3,0.2c0.7-0.2,1.4,0.3,1.5,1c0,0.1,0.1,0.1,0.1,0.2
			c0.1,0,0.1,0,0.2,0c0.1,0,0.2-0.2,0.2-0.3C24.5,26.6,23.5,26,22.5,26.2"/>
	</g>
	<g>
		<path class="st3" d="M23.3,27.4c-0.2-0.1-0.5-0.1-0.7,0.2c-0.1,0.2-0.1,0.5,0.2,0.7c0.2,0.1,0.5,0.1,0.7-0.1
			C23.6,27.8,23.5,27.5,23.3,27.4"/>
	</g>
	<g>
		<path class="st3" d="M22.4,25.2L22.4,25.2c-0.2,0-0.3,0.2-0.2,0.3c0.1,0.2,0.2,0.2,0.4,0.2h0l0,0c1.1-0.3,2.2,0.4,2.5,1.6l0,0.1
			l0,0c0,0.2,0.2,0.3,0.3,0.2c0.2,0,0.3-0.2,0.2-0.3l0,0l0-0.1C25.3,25.8,23.9,24.9,22.4,25.2L22.4,25.2z"/>
	</g>
	<g>
		<path class="st3" d="M26.4,27.6c-0.1,0-0.3-0.1-0.3-0.3c-0.1-0.6-0.5-1.5-1.3-2.1c-0.9-0.7-2-0.7-2.7-0.5c-0.2,0.1-0.3,0-0.4-0.2
			c-0.1-0.2,0-0.3,0.2-0.4c1-0.4,2.3-0.2,3.3,0.5c0.8,0.6,1.4,1.5,1.6,2.5C26.8,27.4,26.7,27.5,26.4,27.6
			C26.5,27.6,26.5,27.6,26.4,27.6"/>
	</g>
</g>
</svg>
