<?xml version="1.0" encoding="utf-8"?>
<!-- Generator: Adobe Illustrator 27.2.0, SVG Export Plug-In . SVG Version: 6.00 Build 0)  -->
<svg version="1.1" id="Layer_1" xmlns="http://www.w3.org/2000/svg" xmlns:xlink="http://www.w3.org/1999/xlink" x="0px" y="0px"
	 viewBox="0 0 45.4 45.4" style="enable-background:new 0 0 45.4 45.4;" xml:space="preserve">
<style type="text/css">
	.st0{fill:#C2E0AF;}
	.st1{fill:#DEEED4;}
	.st2{fill:#6ABD46;}
	.st3{fill:#FFFFFF;}
</style>
<g>
	<g>
		<g>
			<path class="st0" d="M15.5,0h14.3c8.6,0,15.5,6.9,15.5,15.5v14.3c0,8.6-6.9,15.5-15.5,15.5H15.5C6.9,45.4,0,38.4,0,29.8V15.5
				C0,6.9,6.9,0,15.5,0"/>
			<path class="st1" d="M23.6,39.7c0,0.5-0.4,0.9-0.9,0.9s-0.9-0.4-0.9-0.9c0-0.5,0.4-0.9,0.9-0.9S23.6,39.2,23.6,39.7"/>
			<path class="st1" d="M23.6,5.7c0,0.5-0.4,0.9-0.9,0.9s-0.9-0.4-0.9-0.9c0-0.5,0.4-0.9,0.9-0.9S23.6,5.2,23.6,5.7"/>
			<path class="st1" d="M40.5,22.7c0,0.5-0.4,0.9-0.9,0.9s-0.9-0.4-0.9-0.9c0-0.5,0.4-0.9,0.9-0.9S40.5,22.2,40.5,22.7"/>
			<path class="st1" d="M6.5,22.7c0,0.5-0.4,0.9-0.9,0.9s-0.9-0.4-0.9-0.9c0-0.5,0.4-0.9,0.9-0.9S6.5,22.2,6.5,22.7"/>
			<path class="st1" d="M9.5,8.7c0,0.5-0.4,0.9-0.9,0.9c-0.5,0-0.9-0.4-0.9-0.9c0-0.5,0.4-0.9,0.9-0.9C9.1,7.8,9.5,8.2,9.5,8.7"/>
			<path class="st1" d="M37.5,36.7c0,0.5-0.4,0.9-0.9,0.9c-0.5,0-0.9-0.4-0.9-0.9c0-0.5,0.4-0.9,0.9-0.9
				C37.1,35.9,37.5,36.3,37.5,36.7"/>
			<path class="st1" d="M9.4,36.7c0,0.5-0.4,0.9-0.9,0.9c-0.5,0-0.9-0.4-0.9-0.9c0-0.5,0.4-0.9,0.9-0.9C9,35.8,9.4,36.2,9.4,36.7"/>
			<path class="st1" d="M37.6,8.6c0,0.5-0.4,0.9-0.9,0.9s-0.9-0.4-0.9-0.9c0-0.5,0.4-0.9,0.9-0.9S37.6,8.1,37.6,8.6"/>
		</g>
		<g>
			<g>
				<path class="st2" d="M15.9,11.3h13.6c2.5,0,4.6,2.1,4.6,4.6v13.6c0,2.5-2.1,4.6-4.6,4.6H15.9c-2.5,0-4.6-2.1-4.6-4.6V15.9
					C11.3,13.4,13.3,11.3,15.9,11.3z"/>
			</g>
		</g>
	</g>
</g>
<g>
	<path class="st3" d="M21.2,19c0.1,0,0.1,0.1,0.2,0.1l0,0c0.9,0.5,1.6,1.2,2,2h1.2c0.2,0,0.3-0.1,0.3-0.3v-1.8
		c0-0.2-0.1-0.3-0.3-0.3h-3.9C21,18.8,21.1,18.9,21.2,19z"/>
	<path class="st3" d="M24.7,25.2h-0.6c-0.2,0.9-0.7,1.7-1.3,2.4h1.9c0.2,0,0.3-0.1,0.3-0.3v-1.8C25,25.3,24.9,25.2,24.7,25.2z"/>
	<path class="st3" d="M30.3,18.6h-4.2c-0.2,0-0.3,0.1-0.3,0.3v1.8c0,0.2,0.1,0.3,0.3,0.3h4.2c0.2,0,0.3-0.1,0.3-0.3v-1.8
		C30.6,18.8,30.5,18.6,30.3,18.6z"/>
	<path class="st3" d="M30.3,25.2h-4.2c-0.2,0-0.3,0.1-0.3,0.3v1.8c0,0.2,0.1,0.3,0.3,0.3h4.2c0.2,0,0.3-0.1,0.3-0.3v-1.8
		C30.6,25.3,30.5,25.2,30.3,25.2z"/>
	<path class="st3" d="M30.3,21.9h-6.5c0.2,0.6,0.4,1.3,0.4,2c0,0.2,0,0.3,0,0.5h6.1c0.2,0,0.3-0.1,0.3-0.3v-1.8
		C30.6,22,30.5,21.9,30.3,21.9z"/>
	<path class="st3" d="M20.9,20L20.9,20c-0.1,0-0.1-0.1-0.2-0.1l0,0l0,0c-0.3-0.2-0.8-0.5-1.1-1.2c-0.3-0.7-0.4-1.5-0.3-2.5
		c-0.5,0.3-1.4,1-2.2,1.9c-0.8,0.8-1.4,1.6-1.8,2.5c-0.5,1.1-0.8,2.2-0.8,3.3c0,1.2,0.5,2.3,1.3,3.1c0.3,0.3,0.5,0.5,0.8,0.7
		c0.2,0.1,0.3-0.1,0.2-0.2c-0.3-0.4-0.4-0.9-0.4-1.4c0-2.6,2.8-4.3,2.8-4.3c-0.3,1.4,0.3,1.9,0.6,2.1c0,0,0.1,0,0.1,0.1
		c0.7,0.4,1.3,1.2,1.3,2.1c0,0.5-0.2,1-0.4,1.4c-0.1,0.2,0.1,0.3,0.2,0.2c0.3-0.2,0.6-0.4,0.8-0.7c0.8-0.8,1.3-1.9,1.3-3.1
		C23.1,22.3,22.3,20.8,20.9,20z"/>
</g>
</svg>
