<?xml version="1.0" encoding="utf-8"?>
<!-- Generator: Adobe Illustrator 27.2.0, SVG Export Plug-In . SVG Version: 6.00 Build 0)  -->
<svg version="1.1" id="Layer_1" xmlns="http://www.w3.org/2000/svg" xmlns:xlink="http://www.w3.org/1999/xlink" x="0px" y="0px"
	 viewBox="0 0 45.4 45.4" style="enable-background:new 0 0 45.4 45.4;" xml:space="preserve">
<style type="text/css">
	.st0{fill:#C2E0AF;}
	.st1{fill:#DEEED4;}
	.st2{fill:#6ABD46;}
	.st3{fill-rule:evenodd;clip-rule:evenodd;fill:#FFFFFF;}
</style>
<g>
	<g>
		<g>
			<path class="st0" d="M15.5,0h14.3c8.6,0,15.5,6.9,15.5,15.5v14.3c0,8.6-6.9,15.5-15.5,15.5H15.5C6.9,45.4,0,38.4,0,29.8V15.5
				C0,6.9,6.9,0,15.5,0"/>
			<path class="st1" d="M23.6,39.7c0,0.5-0.4,0.9-0.9,0.9s-0.9-0.4-0.9-0.9c0-0.5,0.4-0.9,0.9-0.9S23.6,39.2,23.6,39.7"/>
			<path class="st1" d="M23.6,5.7c0,0.5-0.4,0.9-0.9,0.9s-0.9-0.4-0.9-0.9c0-0.5,0.4-0.9,0.9-0.9S23.6,5.2,23.6,5.7"/>
			<path class="st1" d="M40.5,22.7c0,0.5-0.4,0.9-0.9,0.9s-0.9-0.4-0.9-0.9c0-0.5,0.4-0.9,0.9-0.9S40.5,22.2,40.5,22.7"/>
			<path class="st1" d="M6.5,22.7c0,0.5-0.4,0.9-0.9,0.9s-0.9-0.4-0.9-0.9c0-0.5,0.4-0.9,0.9-0.9S6.5,22.2,6.5,22.7"/>
			<path class="st1" d="M9.5,8.7c0,0.5-0.4,0.9-0.9,0.9c-0.5,0-0.9-0.4-0.9-0.9c0-0.5,0.4-0.9,0.9-0.9C9.1,7.8,9.5,8.2,9.5,8.7"/>
			<path class="st1" d="M37.5,36.7c0,0.5-0.4,0.9-0.9,0.9c-0.5,0-0.9-0.4-0.9-0.9c0-0.5,0.4-0.9,0.9-0.9
				C37.1,35.9,37.5,36.3,37.5,36.7"/>
			<path class="st1" d="M9.4,36.7c0,0.5-0.4,0.9-0.9,0.9c-0.5,0-0.9-0.4-0.9-0.9c0-0.5,0.4-0.9,0.9-0.9C9,35.8,9.4,36.2,9.4,36.7"/>
			<path class="st1" d="M37.6,8.6c0,0.5-0.4,0.9-0.9,0.9s-0.9-0.4-0.9-0.9c0-0.5,0.4-0.9,0.9-0.9S37.6,8.1,37.6,8.6"/>
		</g>
		<g>
			<g>
				<path class="st2" d="M15.9,11.4h13.6c2.5,0,4.6,2.1,4.6,4.6v13.6c0,2.5-2.1,4.6-4.6,4.6H15.9c-2.5,0-4.6-2.1-4.6-4.6V15.9
					C11.3,13.4,13.4,11.4,15.9,11.4z"/>
			</g>
		</g>
	</g>
</g>
<g>
	<g>
		<path class="st3" d="M18.9,16.7h-1.6c0,0-0.1,0-0.1,0.1v3.6c0,0,0,0.1,0.1,0.1h2.7c0,0,0.1,0,0.1-0.1v-2.6L18.9,16.7z M19.7,20.2
			h-2.3V17h1.2v0.8c0,0.2,0.1,0.2,0.2,0.2h0.8V20.2z"/>
	</g>
	<polygon class="st3" points="22.3,15.5 21.7,15.5 21.7,17.2 21.2,17.2 22,18.1 22.8,17.2 22.3,17.2 	"/>
	<polygon class="st3" points="27.7,21.2 27.7,19.7 27.1,19.7 27.1,21.2 26.6,21.2 27.4,22.1 28.2,21.2 	"/>
	<path class="st3" d="M29,24.2l-1.9-1.9c0,0-0.1-0.1-0.1-0.1h-1.7l0,0.5h1.6l1.3,1.3h-11l1.3-1.3h1.8v-0.5h-1.9
		c-0.1,0-0.1,0-0.1,0.1l-1.9,1.9c-0.1,0.1-0.1,0.1,0,0.2c0,0.1,0.1,0.1,0.1,0.1h0.4v6.1c0,0.1,0.1,0.2,0.2,0.2h11.4
		c0.1,0,0.2-0.1,0.2-0.2v-6.1h0.4c0.1,0,0.1,0,0.1-0.1C29.1,24.3,29.1,24.2,29,24.2z M28,30.2H17.3v-5.7H28V30.2z"/>
	<path class="st3" d="M19.4,19.9h-1.5c-0.1,0-0.1-0.1-0.1-0.1l0,0c0-0.1,0.1-0.1,0.1-0.1h1.5c0.1,0,0.1,0.1,0.1,0.1l0,0
		C19.5,19.8,19.4,19.9,19.4,19.9z"/>
	<path class="st3" d="M19.4,18.6h-1.5c-0.1,0-0.1-0.1-0.1-0.1l0,0c0-0.1,0.1-0.1,0.1-0.1h1.5c0.1,0,0.1,0.1,0.1,0.1l0,0
		C19.5,18.5,19.4,18.6,19.4,18.6z"/>
	<path class="st3" d="M19.4,19.2h-1.5c-0.1,0-0.1-0.1-0.1-0.1v0c0-0.1,0.1-0.1,0.1-0.1h1.5c0.1,0,0.1,0.1,0.1,0.1v0
		C19.5,19.2,19.4,19.2,19.4,19.2z"/>
	<g>
		<path class="st3" d="M27.1,14.6h-2c0,0-0.1,0-0.1,0.1v4.5c0,0,0,0.1,0.1,0.1h3.3c0,0,0.1,0,0.1-0.1V16L27.1,14.6z M28.1,18.9h-2.8
			v-4h1.5v1c0,0.2,0.1,0.3,0.3,0.3h1.1V18.9z"/>
	</g>
	<path class="st3" d="M27.6,18.6h-1.9c-0.1,0-0.2-0.1-0.2-0.2l0,0c0-0.1,0.1-0.2,0.2-0.2h1.9c0.1,0,0.2,0.1,0.2,0.2l0,0
		C27.8,18.5,27.7,18.6,27.6,18.6z"/>
	<path class="st3" d="M27.6,17h-1.9c-0.1,0-0.2-0.1-0.2-0.2l0,0c0-0.1,0.1-0.2,0.2-0.2h1.9c0.1,0,0.2,0.1,0.2,0.2l0,0
		C27.8,16.9,27.7,17,27.6,17z"/>
	<path class="st3" d="M27.6,17.8h-1.9c-0.1,0-0.2-0.1-0.2-0.2l0,0c0-0.1,0.1-0.2,0.2-0.2h1.9c0.1,0,0.2,0.1,0.2,0.2l0,0
		C27.8,17.7,27.7,17.8,27.6,17.8z"/>
	<g>
		<path class="st3" d="M23.2,18.8h-2.6c0,0-0.1,0-0.1,0.1v5.4c0,0,0,0.1,0.1,0.1h4.2c0,0,0.1,0,0.1-0.1v-3.7L23.2,18.8z M24.5,24
			h-3.6v-4.7h1.9v1.3c0,0.2,0.2,0.3,0.3,0.3h1.4V24z"/>
	</g>
	<path class="st3" d="M23.9,21.8h-2.4c-0.1,0-0.2-0.1-0.2-0.2l0,0c0-0.1,0.1-0.2,0.2-0.2h2.4c0.1,0,0.2,0.1,0.2,0.2l0,0
		C24.1,21.7,24,21.8,23.9,21.8z"/>
	<path class="st3" d="M23.9,22.8h-2.4c-0.1,0-0.2-0.1-0.2-0.2v0c0-0.1,0.1-0.2,0.2-0.2h2.4c0.1,0,0.2,0.1,0.2,0.2v0
		C24.1,22.7,24,22.8,23.9,22.8z"/>
	<path class="st3" d="M23.9,23.7h-2.4c-0.1,0-0.2-0.1-0.2-0.2v0c0-0.1,0.1-0.2,0.2-0.2h2.4c0.1,0,0.2,0.1,0.2,0.2v0
		C24.1,23.6,24,23.7,23.9,23.7z"/>
</g>
</svg>
