<?xml version="1.0" encoding="utf-8"?>
<!-- Generator: Adobe Illustrator 27.2.0, SVG Export Plug-In . SVG Version: 6.00 Build 0)  -->
<svg version="1.1" id="Layer_1" xmlns="http://www.w3.org/2000/svg" xmlns:xlink="http://www.w3.org/1999/xlink" x="0px" y="0px"
	 viewBox="0 0 45.4 45.4" style="enable-background:new 0 0 45.4 45.4;" xml:space="preserve">
<style type="text/css">
	.st0{fill:#C2E0AF;}
	.st1{fill:#DEEED4;}
	.st2{fill:#6ABD46;}
	.st3{fill-rule:evenodd;clip-rule:evenodd;fill:#FFFFFF;}
	.st4{fill:#FFFFFF;}
</style>
<g>
	<g>
		<g>
			<path class="st0" d="M15.5,0h14.3c8.6,0,15.5,6.9,15.5,15.5v14.3c0,8.6-6.9,15.5-15.5,15.5H15.5C6.9,45.4,0,38.4,0,29.8V15.5
				C0,6.9,6.9,0,15.5,0"/>
			<path class="st1" d="M23.6,39.7c0,0.5-0.4,0.9-0.9,0.9s-0.9-0.4-0.9-0.9c0-0.5,0.4-0.9,0.9-0.9S23.6,39.2,23.6,39.7"/>
			<path class="st1" d="M23.6,5.7c0,0.5-0.4,0.9-0.9,0.9s-0.9-0.4-0.9-0.9c0-0.5,0.4-0.9,0.9-0.9S23.6,5.2,23.6,5.7"/>
			<path class="st1" d="M40.5,22.7c0,0.5-0.4,0.9-0.9,0.9s-0.9-0.4-0.9-0.9c0-0.5,0.4-0.9,0.9-0.9S40.5,22.2,40.5,22.7"/>
			<path class="st1" d="M6.5,22.7c0,0.5-0.4,0.9-0.9,0.9s-0.9-0.4-0.9-0.9c0-0.5,0.4-0.9,0.9-0.9S6.5,22.2,6.5,22.7"/>
			<path class="st1" d="M9.5,8.7c0,0.5-0.4,0.9-0.9,0.9S7.7,9.1,7.7,8.7c0-0.5,0.4-0.9,0.9-0.9S9.5,8.2,9.5,8.7"/>
			<path class="st1" d="M37.5,36.7c0,0.5-0.4,0.9-0.9,0.9s-0.9-0.4-0.9-0.9c0-0.5,0.4-0.9,0.9-0.9S37.5,36.3,37.5,36.7"/>
			<path class="st1" d="M9.4,36.7c0,0.5-0.4,0.9-0.9,0.9s-0.9-0.4-0.9-0.9c0-0.5,0.4-0.9,0.9-0.9S9.4,36.2,9.4,36.7"/>
			<path class="st1" d="M37.6,8.6c0,0.5-0.4,0.9-0.9,0.9c-0.5,0-0.9-0.4-0.9-0.9c0-0.5,0.4-0.9,0.9-0.9C37.2,7.7,37.6,8.1,37.6,8.6"
				/>
		</g>
		<g>
			<g>
				<path class="st2" d="M15.9,11.4h13.6c2.5,0,4.6,2.1,4.6,4.6v13.6c0,2.5-2.1,4.6-4.6,4.6H15.9c-2.5,0-4.6-2.1-4.6-4.6V15.9
					C11.3,13.4,13.4,11.4,15.9,11.4z"/>
			</g>
		</g>
	</g>
</g>
<g>
	<g>
		<g>
			<path class="st3" d="M24.9,18.7c-0.8-0.9-1.9-1.3-3-1.3c-1.1,0-2.2,0.4-3.1,1.3c-1.4,1.5-1.6,3.7-0.6,5.4l-3.2,3.3
				c-0.3,0.2-0.3,0.7,0,1l0.4,0.4c0.3,0.3,0.7,0.3,1,0l3.3-3.3c0.7,0.4,1.5,0.6,2.3,0.6c1.1,0,2.2-0.4,3-1.2
				C26.6,23.2,26.6,20.4,24.9,18.7 M23.9,23.9c-0.5,0.5-1.3,0.9-2,0.9c-0.8,0-1.5-0.3-2.1-0.9c-1.1-1.2-1.1-3,0-4.1
				c0.6-0.6,1.3-0.9,2.1-0.9c0.7,0,1.5,0.3,2,0.9c0.6,0.5,0.9,1.3,0.9,2.1C24.8,22.5,24.5,23.3,23.9,23.9"/>
		</g>
		<path class="st4" d="M29.2,18.1c-0.9-0.8-2-1.3-3.2-1.3c-0.8,0-1.5,0.2-2.1,0.5c0.2,0.1,0.4,0.2,0.6,0.3c0.4-0.2,0.8-0.3,1.2-0.3
			c-0.2,0.2-0.4,0.4-0.7,0.6c0.1,0.1,0.1,0.1,0.2,0.2c0.4-0.4,0.8-0.7,1-0.8c0.5,0,1,0.1,1.4,0.3c0,0.4,0,0.9,0,1.3
			c-0.8-0.4-1.5-0.5-2-0.5c0.1,0.1,0.2,0.2,0.3,0.3c0.6,0.1,1.2,0.2,1.7,0.5c-0.1,0.7-0.4,1.5-0.7,2.2c0,0.1,0,0.2,0,0.3
			c0,0.1,0,0.2,0,0.3c0.5-0.9,0.8-1.8,0.9-2.7c0.3,0.1,0.6,0.3,0.9,0.6c-0.1,0.4-0.3,0.8-0.5,1.1c-0.4,0.6-0.8,1.1-1.3,1.5
			c0,0.1,0,0.3-0.1,0.4c0.7-0.5,1.2-1.1,1.6-1.8c0.2-0.4,0.4-0.8,0.5-1.1c0.4,0.3,0.7,0.7,0.9,1c-0.6,0.4-1.8,1.1-2.7,2.3
			c-0.2,0-0.4,0-0.5,0c0,0.1-0.1,0.2-0.1,0.3c0.1,0,0.3,0,0.4,0c-0.4,0.5-0.7,1-0.9,1.5c-0.2,0-0.3,0-0.5,0
			c-0.1,0.1-0.1,0.1-0.2,0.2l0,0c-0.1,0.1-0.2,0.2-0.3,0.3c0.3,0.1,0.7,0.1,1.1,0.1c2.5,0,4.5-2,4.5-4.5
			C30.6,20,30.1,18.9,29.2,18.1z M28.7,19.6c-0.4-0.2-0.7-0.4-0.9-0.6c0-0.5,0.1-0.9,0.1-1.3c0.4,0.2,0.8,0.5,1.1,0.8
			C28.9,18.7,28.9,19.1,28.7,19.6z M28.9,19.8c0.1-0.4,0.2-0.7,0.3-1c0.5,0.6,0.7,1.3,0.8,2C29.7,20.5,29.3,20.1,28.9,19.8z
			 M28.1,24.6c-0.6,0.3-1.2,0.5-1.9,0.6c0.2-0.5,0.6-1,0.9-1.5h0.2c0.7,0,1.4-0.1,2-0.3C29.1,23.9,28.6,24.3,28.1,24.6z M27.4,23.4
			c1-1.2,2.2-1.9,2.5-2c0,0,0,0,0,0c0,0.6-0.2,1.1-0.4,1.6C28.9,23.2,28.2,23.3,27.4,23.4z"/>
	</g>
	<g>
		<path class="st4" d="M22.5,20.7h1.9c0-0.1-0.1-0.2-0.1-0.3h-1.7c-0.1-0.2-0.2-0.3-0.4-0.3c-0.2,0-0.4,0.2-0.4,0.4
			c0,0.2,0.1,0.3,0.3,0.4v0.9h-1.6v-0.4c0.1-0.1,0.2-0.2,0.2-0.4s-0.1-0.3-0.2-0.4v-0.7h1.8v-0.9c-0.1,0-0.2,0-0.3,0v0.6h-1.8v1
			c-0.2,0-0.3,0.2-0.3,0.4c0,0.2,0.1,0.4,0.3,0.4v0.6H22v1c-0.1,0-0.2,0.1-0.3,0.3h-2.1c0.1,0.1,0.1,0.2,0.2,0.3h1.9
			c0.1,0.2,0.2,0.3,0.4,0.3c0.2,0,0.3-0.1,0.4-0.3H23v0.6c0.1,0,0.2-0.1,0.3-0.1v-0.5h0.6c0.1-0.1,0.1-0.2,0.2-0.3h-0.8v-1
			c0.1,0,0.2-0.1,0.3-0.3h1.1c0-0.1,0-0.2,0-0.3h-1.1c-0.1-0.2-0.2-0.3-0.4-0.3c-0.2,0-0.3,0.1-0.4,0.3h-0.5v-0.9
			C22.3,20.9,22.4,20.8,22.5,20.7z M22.7,22.1c0,0.1,0.1,0.2,0.3,0.3v1h-0.5c0-0.1-0.1-0.2-0.3-0.3v-1H22.7z"/>
	</g>
</g>
</svg>
