<?xml version="1.0" encoding="utf-8"?>
<!-- Generator: Adobe Illustrator 27.2.0, SVG Export Plug-In . SVG Version: 6.00 Build 0)  -->
<svg version="1.1" id="Layer_1" xmlns="http://www.w3.org/2000/svg" xmlns:xlink="http://www.w3.org/1999/xlink" x="0px" y="0px"
	 viewBox="0 0 45.4 45.4" style="enable-background:new 0 0 45.4 45.4;" xml:space="preserve">
<style type="text/css">
	.st0{fill:#C2E0AF;}
	.st1{fill:#DEEED4;}
	.st2{fill:#6ABD46;}
	.st3{fill:#FFFFFF;}
</style>
<g>
	<g>
		<g>
			<path class="st0" d="M15.5,0h14.3c8.6,0,15.5,6.9,15.5,15.5v14.3c0,8.6-6.9,15.5-15.5,15.5H15.5C6.9,45.4,0,38.4,0,29.8V15.5
				C0,6.9,6.9,0,15.5,0"/>
			<path class="st1" d="M23.6,39.7c0,0.5-0.4,0.9-0.9,0.9s-0.9-0.4-0.9-0.9c0-0.5,0.4-0.9,0.9-0.9S23.6,39.2,23.6,39.7"/>
			<path class="st1" d="M23.6,5.7c0,0.5-0.4,0.9-0.9,0.9s-0.9-0.4-0.9-0.9c0-0.5,0.4-0.9,0.9-0.9S23.6,5.2,23.6,5.7"/>
			<path class="st1" d="M40.5,22.7c0,0.5-0.4,0.9-0.9,0.9s-0.9-0.4-0.9-0.9c0-0.5,0.4-0.9,0.9-0.9S40.5,22.2,40.5,22.7"/>
			<path class="st1" d="M6.5,22.7c0,0.5-0.4,0.9-0.9,0.9s-0.9-0.4-0.9-0.9c0-0.5,0.4-0.9,0.9-0.9S6.5,22.2,6.5,22.7"/>
			<path class="st1" d="M9.5,8.7c0,0.5-0.4,0.9-0.9,0.9c-0.5,0-0.9-0.4-0.9-0.9c0-0.5,0.4-0.9,0.9-0.9C9.1,7.8,9.5,8.2,9.5,8.7"/>
			<path class="st1" d="M37.5,36.7c0,0.5-0.4,0.9-0.9,0.9c-0.5,0-0.9-0.4-0.9-0.9c0-0.5,0.4-0.9,0.9-0.9
				C37.1,35.9,37.5,36.3,37.5,36.7"/>
			<path class="st1" d="M9.4,36.7c0,0.5-0.4,0.9-0.9,0.9c-0.5,0-0.9-0.4-0.9-0.9c0-0.5,0.4-0.9,0.9-0.9C9,35.8,9.4,36.2,9.4,36.7"/>
			<path class="st1" d="M37.6,8.6c0,0.5-0.4,0.9-0.9,0.9s-0.9-0.4-0.9-0.9c0-0.5,0.4-0.9,0.9-0.9S37.6,8.1,37.6,8.6"/>
		</g>
		<g>
			<g>
				<path class="st2" d="M15.9,11.3h13.6c2.5,0,4.6,2.1,4.6,4.6v13.6c0,2.5-2.1,4.6-4.6,4.6H15.9c-2.5,0-4.6-2.1-4.6-4.6V15.9
					C11.3,13.4,13.3,11.3,15.9,11.3z"/>
			</g>
		</g>
	</g>
</g>
<path class="st3" d="M27.9,19.7c0.6-0.5,1-1.6,1.1-2.4c0-0.5-0.1-0.8-0.4-1.1c-0.3-0.3-0.6-0.4-1.1-0.4c-0.8,0-1.9,0.5-2.4,1.1
	l-0.9,0.9c0,0,0,0,0,0l-0.2,0.2L22.6,18c0-0.1,0-0.2,0-0.3c0-0.3-0.1-0.6-0.4-0.9c-0.2-0.2-0.5-0.4-0.9-0.4c-0.3,0-0.6,0.1-0.9,0.4
	l-1,1l-1.8-0.1c0,0,0,0,0,0c-0.3,0-0.6,0.1-0.8,0.3l-0.5,0.5c-0.2,0.2-0.3,0.6-0.3,0.9c0.1,0.3,0.3,0.6,0.7,0.7c0,0,0,0,0,0l4.2,1.2
	l-1.9,2.1l-2.4-0.2c-0.3,0-0.5,0.1-0.7,0.3L15.7,24c-0.2,0.2-0.3,0.5-0.2,0.7c0.1,0.3,0.3,0.5,0.5,0.5l1.3,0.4
	c-0.1,0.2-0.2,0.5-0.2,0.8c0,0.4,0.2,0.7,0.4,1c0.3,0.3,0.6,0.4,1,0.4c0.3,0,0.5-0.1,0.7-0.2l0.4,1.3c0.1,0.3,0.3,0.5,0.5,0.5
	c0.1,0,0.1,0,0.2,0c0.2,0,0.4-0.1,0.5-0.2l0.4-0.4c0.2-0.2,0.3-0.4,0.3-0.7l-0.2-2.4l2.1-1.9l1.2,4.2c0,0,0,0,0,0
	c0.1,0.3,0.4,0.6,0.7,0.7c0.1,0,0.2,0,0.2,0c0.3,0,0.5-0.1,0.7-0.3l0.5-0.5c0.2-0.2,0.3-0.5,0.3-0.8c0,0,0,0,0,0l-0.1-1.8l1-1
	c0.2-0.2,0.4-0.5,0.4-0.9c0-0.3-0.1-0.6-0.4-0.9c-0.2-0.2-0.5-0.4-0.9-0.4c0,0,0,0,0,0c-0.1,0-0.2,0-0.3,0l-0.1-1.5l0.2-0.2l0,0
	c0,0,0,0,0,0L27.9,19.7z M21,17.3c0.2-0.2,0.6-0.2,0.9,0c0.1,0.1,0.2,0.3,0.2,0.4c0,0.1,0,0.2-0.1,0.3l-1.6-0.1L21,17.3z M16.8,19.3
	c0-0.1,0-0.3,0.1-0.3l0.5-0.5c0.1-0.1,0.2-0.1,0.4-0.1l1.9,0.1h0l2.4,0.1h0l1.5,0.1l-2,2.2l-4.5-1.3C16.9,19.6,16.9,19.5,16.8,19.3z
	 M16.1,24.5c0,0,0-0.1,0-0.1l0.4-0.4c0.1-0.1,0.1-0.1,0.2-0.1c0,0,0,0,0,0l2,0.1l-0.9,1L16.1,24.5C16.1,24.6,16.1,24.6,16.1,24.5z
	 M20.8,28.4l-0.4,0.4c0,0-0.1,0-0.1,0c0,0-0.1,0-0.1-0.1l-0.4-1.6l1-0.9l0.1,2C20.9,28.2,20.9,28.3,20.8,28.4z M27.2,22.8
	C27.2,22.8,27.2,22.8,27.2,22.8c0.2,0,0.3,0.1,0.4,0.2c0.1,0.1,0.2,0.3,0.2,0.4s-0.1,0.3-0.2,0.4L27,24.5l-0.1-1.6
	C27,22.9,27.1,22.8,27.2,22.8z M26.3,22.8L26.3,22.8l0.1,2.4c0,0,0,0,0,0l0.1,1.9c0,0.1,0,0.3-0.1,0.4L25.9,28
	c-0.1,0.1-0.2,0.1-0.3,0.1c-0.1,0-0.2-0.1-0.3-0.2L24,23.3l0.9-0.8l1.3-1.2L26.3,22.8z M26.6,20.1C26.6,20.1,26.6,20.1,26.6,20.1
	l-0.3,0.3c0,0,0,0,0,0l-1.6,1.5l-3.8,3.4c0,0,0,0,0,0l0,0l-1.7,1.6c-0.3,0.3-0.8,0.3-1.1,0c-0.1-0.1-0.2-0.3-0.2-0.5
	c0-0.2,0.1-0.4,0.2-0.5l0.2-0.2c0,0,0,0,0,0l1.4-1.6l0,0l2.3-2.6c0,0,0,0,0,0l2.6-2.8c0,0,0,0,0,0l0.3-0.3c0,0,0,0,0,0l0.9-0.9
	c0.4-0.4,1.2-0.8,1.9-0.9c0.2,0,0.5,0,0.6,0.2c0.2,0.2,0.2,0.4,0.2,0.6c0,0.7-0.5,1.6-0.9,1.9L26.6,20.1z"/>
</svg>
