<?xml version="1.0" encoding="utf-8"?>
<!-- Generator: Adobe Illustrator 27.2.0, SVG Export Plug-In . SVG Version: 6.00 Build 0)  -->
<svg version="1.1" id="Layer_1" xmlns="http://www.w3.org/2000/svg" xmlns:xlink="http://www.w3.org/1999/xlink" x="0px" y="0px"
	 viewBox="0 0 45.4 45.4" style="enable-background:new 0 0 45.4 45.4;" xml:space="preserve">
<style type="text/css">
	.st0{fill:#C2E0AF;}
	.st1{fill:#DEEED4;}
	.st2{fill:#6ABD46;}
	.st3{fill:#FFFFFF;}
</style>
<g>
	<g>
		<g>
			<path class="st0" d="M15.5,0h14.3c8.6,0,15.5,6.9,15.5,15.5v14.3c0,8.6-6.9,15.5-15.5,15.5H15.5C6.9,45.4,0,38.4,0,29.8V15.5
				C0,6.9,6.9,0,15.5,0"/>
			<path class="st1" d="M23.6,39.7c0,0.5-0.4,0.9-0.9,0.9s-0.9-0.4-0.9-0.9c0-0.5,0.4-0.9,0.9-0.9S23.6,39.2,23.6,39.7"/>
			<path class="st1" d="M23.6,5.7c0,0.5-0.4,0.9-0.9,0.9s-0.9-0.4-0.9-0.9c0-0.5,0.4-0.9,0.9-0.9S23.6,5.2,23.6,5.7"/>
			<path class="st1" d="M40.5,22.7c0,0.5-0.4,0.9-0.9,0.9s-0.9-0.4-0.9-0.9c0-0.5,0.4-0.9,0.9-0.9S40.5,22.2,40.5,22.7"/>
			<path class="st1" d="M6.5,22.7c0,0.5-0.4,0.9-0.9,0.9s-0.9-0.4-0.9-0.9c0-0.5,0.4-0.9,0.9-0.9S6.5,22.2,6.5,22.7"/>
			<path class="st1" d="M9.5,8.7c0,0.5-0.4,0.9-0.9,0.9S7.7,9.1,7.7,8.7c0-0.5,0.4-0.9,0.9-0.9S9.5,8.2,9.5,8.7"/>
			<path class="st1" d="M37.5,36.7c0,0.5-0.4,0.9-0.9,0.9s-0.9-0.4-0.9-0.9c0-0.5,0.4-0.9,0.9-0.9S37.5,36.3,37.5,36.7"/>
			<path class="st1" d="M9.4,36.7c0,0.5-0.4,0.9-0.9,0.9s-0.9-0.4-0.9-0.9c0-0.5,0.4-0.9,0.9-0.9S9.4,36.2,9.4,36.7"/>
			<path class="st1" d="M37.6,8.6c0,0.5-0.4,0.9-0.9,0.9c-0.5,0-0.9-0.4-0.9-0.9c0-0.5,0.4-0.9,0.9-0.9C37.2,7.7,37.6,8.1,37.6,8.6"
				/>
		</g>
		<g>
			<g>
				<path class="st2" d="M15.9,11.4h13.6c2.5,0,4.6,2.1,4.6,4.6v13.6c0,2.5-2.1,4.6-4.6,4.6H15.9c-2.5,0-4.6-2.1-4.6-4.6V15.9
					C11.3,13.4,13.4,11.4,15.9,11.4z"/>
			</g>
		</g>
	</g>
</g>
<path class="st3" d="M30.4,21.3c-0.7,0-1.3,0.5-1.4,1.1h-1.2c-0.4-0.5-0.9-0.8-1.5-0.9c0-0.1,0-0.2,0-0.2c0-0.5-0.2-0.9-0.6-1.1
	l1.7-1.7c0.6,0.4,1.3,0.3,1.8-0.2c0.6-0.6,0.6-1.5,0-2.1s-1.5-0.6-2.1,0c-0.5,0.5-0.6,1.2-0.2,1.8l-1.8,1.8c-0.1,0-0.2,0-0.3,0
	c-0.3,0-0.6,0.1-0.8,0.3c-0.2-0.4-0.6-0.8-1-1.1v-2.6c0.7-0.1,1.1-0.7,1.1-1.4c0-0.8-0.6-1.5-1.5-1.5c-0.8,0-1.5,0.6-1.5,1.5
	c0,0.7,0.5,1.3,1.1,1.4v2.3c-0.2-0.1-0.5-0.1-0.8-0.1c-0.7,0-1.3,0.3-1.8,0.7L18.4,18c0.4-0.6,0.3-1.3-0.2-1.8
	c-0.6-0.6-1.5-0.6-2.1,0c-0.6,0.6-0.6,1.5,0,2.1c0.5,0.5,1.2,0.6,1.8,0.2l1.4,1.4c-0.3,0.4-0.4,0.9-0.4,1.4c0,0.1,0,0.2,0,0.2
	c-0.6,0.1-1.1,0.4-1.4,0.9h-1.3c-0.1-0.7-0.7-1.1-1.4-1.1c-0.8,0-1.5,0.6-1.5,1.5s0.6,1.5,1.5,1.5c0.7,0,1.3-0.5,1.4-1.1h1
	c-0.1,0.2-0.1,0.4-0.1,0.7c0,1.1,0.9,2.1,2,2.2L18,27c-0.6-0.4-1.3-0.3-1.8,0.2c-0.6,0.6-0.6,1.5,0,2.1s1.5,0.6,2.1,0
	c0.5-0.5,0.6-1.2,0.2-1.8l1.6-1.6h2.4v3.2c-0.7,0.1-1.1,0.7-1.1,1.4c0,0.8,0.6,1.5,1.5,1.5c0.8,0,1.5-0.6,1.5-1.5
	c0-0.7-0.5-1.3-1.1-1.4v-3.2h2.4l1.5,1.5c-0.4,0.6-0.3,1.3,0.2,1.8c0.6,0.6,1.5,0.6,2.1,0c0.6-0.6,0.6-1.5,0-2.1
	c-0.5-0.5-1.2-0.6-1.8-0.2l-1.1-1.1c1.1-0.1,1.9-1,1.9-2.2c0-0.2,0-0.4-0.1-0.7H29c0.1,0.7,0.7,1.1,1.4,1.1c0.8,0,1.5-0.6,1.5-1.5
	S31.2,21.3,30.4,21.3z"/>
</svg>
