<?xml version="1.0" encoding="utf-8"?>
<!-- Generator: Adobe Illustrator 27.2.0, SVG Export Plug-In . SVG Version: 6.00 Build 0)  -->
<svg version="1.1" id="Layer_1" xmlns="http://www.w3.org/2000/svg" xmlns:xlink="http://www.w3.org/1999/xlink" x="0px" y="0px"
	 viewBox="0 0 45.4 45.4" style="enable-background:new 0 0 45.4 45.4;" xml:space="preserve">
<style type="text/css">
	.st0{fill:#C2E0AF;}
	.st1{fill:#DEEED4;}
	.st2{fill:#6ABD46;}
	.st3{fill:#FFFFFF;}
</style>
<g>
	<g>
		<g>
			<path class="st0" d="M15.5,0h14.3c8.6,0,15.5,6.9,15.5,15.5v14.3c0,8.6-6.9,15.5-15.5,15.5H15.5C6.9,45.4,0,38.4,0,29.8V15.5
				C0,6.9,6.9,0,15.5,0"/>
			<path class="st1" d="M23.6,39.7c0,0.5-0.4,0.9-0.9,0.9s-0.9-0.4-0.9-0.9c0-0.5,0.4-0.9,0.9-0.9S23.6,39.2,23.6,39.7"/>
			<path class="st1" d="M23.6,5.7c0,0.5-0.4,0.9-0.9,0.9s-0.9-0.4-0.9-0.9c0-0.5,0.4-0.9,0.9-0.9S23.6,5.2,23.6,5.7"/>
			<path class="st1" d="M40.5,22.7c0,0.5-0.4,0.9-0.9,0.9s-0.9-0.4-0.9-0.9c0-0.5,0.4-0.9,0.9-0.9S40.5,22.2,40.5,22.7"/>
			<path class="st1" d="M6.5,22.7c0,0.5-0.4,0.9-0.9,0.9s-0.9-0.4-0.9-0.9c0-0.5,0.4-0.9,0.9-0.9S6.5,22.2,6.5,22.7"/>
			<path class="st1" d="M9.5,8.7c0,0.5-0.4,0.9-0.9,0.9c-0.5,0-0.9-0.4-0.9-0.9c0-0.5,0.4-0.9,0.9-0.9C9.1,7.8,9.5,8.2,9.5,8.7"/>
			<path class="st1" d="M37.5,36.7c0,0.5-0.4,0.9-0.9,0.9c-0.5,0-0.9-0.4-0.9-0.9c0-0.5,0.4-0.9,0.9-0.9
				C37.1,35.9,37.5,36.3,37.5,36.7"/>
			<path class="st1" d="M9.4,36.7c0,0.5-0.4,0.9-0.9,0.9c-0.5,0-0.9-0.4-0.9-0.9c0-0.5,0.4-0.9,0.9-0.9C9,35.8,9.4,36.2,9.4,36.7"/>
			<path class="st1" d="M37.6,8.6c0,0.5-0.4,0.9-0.9,0.9s-0.9-0.4-0.9-0.9c0-0.5,0.4-0.9,0.9-0.9S37.6,8.1,37.6,8.6"/>
		</g>
		<g>
			<g>
				<path class="st2" d="M15.9,11.4h13.6c2.5,0,4.6,2.1,4.6,4.6v13.6c0,2.5-2.1,4.6-4.6,4.6H15.9c-2.5,0-4.6-2.1-4.6-4.6V15.9
					C11.3,13.4,13.4,11.4,15.9,11.4z"/>
			</g>
			<g>
				<rect x="12.3" y="25" class="st3" width="20.7" height="0.4"/>
			</g>
			<path class="st3" d="M27,30.9l-1.4-2.4h0.9v-1.5h-2.9v1.5h0l-0.7,0.4l-0.8-0.5v-1.5h-2.9v1.5h0.9l-1.4,2.4h-1.8v1.5h2.9v-1.5
				l1.9-1.1l0.6,1.1h-1v1.5h2.9v-1.5h-0.8l0.6-1.1l1.9,1.1h-0.1v1.5h2.9v-1.5H27z M24,28.4h0.5l-0.6,1L23.1,29L24,28.4z M21.8,28.4
				l0.9,0.5l-0.9,0.5l-0.6-1H21.8z M19.5,30.9h-0.6l1.4-2.4H21l0.6,1.2L19.5,30.9z M23.2,30.9h-0.6l-0.7-1.2l1-0.6l1,0.6L23.2,30.9z
				 M24.1,29.6l0.6-1.2h0.6l1.4,2.4h-0.4L24.1,29.6z"/>
			<g>
				<path class="st3" d="M24.1,23.7h-2.7c-0.6,0-1-0.5-1-1V20c0-0.6,0.5-1,1-1h2.7c0.6,0,1,0.5,1,1v2.7
					C25.1,23.3,24.7,23.7,24.1,23.7z M21.4,19.6c-0.3,0-0.5,0.2-0.5,0.5v2.7c0,0.3,0.2,0.5,0.5,0.5h2.7c0.3,0,0.5-0.2,0.5-0.5V20
					c0-0.3-0.2-0.5-0.5-0.5H21.4z"/>
				<g>
					<path class="st3" d="M22,20.2c0.2,0,0.4,0,0.7,0c0.3,0,0.5,0.1,0.7,0.2c0.1,0.1,0.2,0.3,0.2,0.5c0,0.2-0.1,0.4-0.2,0.5
						c-0.2,0.2-0.4,0.2-0.7,0.2c-0.1,0-0.1,0-0.2,0v0.8H22V20.2z M22.5,21.3c0,0,0.1,0,0.2,0c0.3,0,0.4-0.1,0.4-0.4
						c0-0.2-0.1-0.3-0.4-0.3c-0.1,0-0.2,0-0.2,0V21.3z"/>
				</g>
				<path class="st3" d="M27.2,16.7h-8.4v-2.8h0.9l-1.4-1.6L17,13.9h0.9v5v1.2v0.5H17l1.4,1.6l1.4-1.6h-0.9v-0.5v-1.2v-1.2h8.4
					c0.9,0,1.6,0.7,1.6,1.6c0,0.9-0.7,1.6-1.6,1.6V20l-1.6,1.4l1.6,1.4v-0.9v0c1.4,0,2.5-1.1,2.5-2.5C29.8,17.9,28.6,16.7,27.2,16.7
					z"/>
			</g>
		</g>
	</g>
</g>
</svg>
