<?xml version="1.0" encoding="utf-8"?>
<!-- Generator: Adobe Illustrator 27.2.0, SVG Export Plug-In . SVG Version: 6.00 Build 0)  -->
<svg version="1.1" id="Layer_1" xmlns="http://www.w3.org/2000/svg" xmlns:xlink="http://www.w3.org/1999/xlink" x="0px" y="0px"
	 viewBox="0 0 45.4 45.4" style="enable-background:new 0 0 45.4 45.4;" xml:space="preserve">
<style type="text/css">
	.st0{fill:#C2E0AF;}
	.st1{fill:#DEEED4;}
	.st2{fill:#6ABD46;}
	.st3{fill:#FFFFFF;}
</style>
<g>
	<g>
		<g>
			<path class="st0" d="M15.5,0h14.3c8.6,0,15.5,6.9,15.5,15.5v14.3c0,8.6-6.9,15.5-15.5,15.5H15.5C6.9,45.4,0,38.4,0,29.8V15.5
				C0,6.9,6.9,0,15.5,0"/>
			<path class="st1" d="M23.6,39.7c0,0.5-0.4,0.9-0.9,0.9s-0.9-0.4-0.9-0.9c0-0.5,0.4-0.9,0.9-0.9S23.6,39.2,23.6,39.7"/>
			<path class="st1" d="M23.6,5.7c0,0.5-0.4,0.9-0.9,0.9s-0.9-0.4-0.9-0.9c0-0.5,0.4-0.9,0.9-0.9S23.6,5.2,23.6,5.7"/>
			<path class="st1" d="M40.5,22.7c0,0.5-0.4,0.9-0.9,0.9s-0.9-0.4-0.9-0.9c0-0.5,0.4-0.9,0.9-0.9S40.5,22.2,40.5,22.7"/>
			<path class="st1" d="M6.5,22.7c0,0.5-0.4,0.9-0.9,0.9s-0.9-0.4-0.9-0.9c0-0.5,0.4-0.9,0.9-0.9S6.5,22.2,6.5,22.7"/>
			<path class="st1" d="M9.5,8.7c0,0.5-0.4,0.9-0.9,0.9S7.7,9.1,7.7,8.7c0-0.5,0.4-0.9,0.9-0.9S9.5,8.2,9.5,8.7"/>
			<path class="st1" d="M37.5,36.7c0,0.5-0.4,0.9-0.9,0.9s-0.9-0.4-0.9-0.9c0-0.5,0.4-0.9,0.9-0.9S37.5,36.3,37.5,36.7"/>
			<path class="st1" d="M9.4,36.7c0,0.5-0.4,0.9-0.9,0.9s-0.9-0.4-0.9-0.9c0-0.5,0.4-0.9,0.9-0.9S9.4,36.2,9.4,36.7"/>
			<path class="st1" d="M37.6,8.6c0,0.5-0.4,0.9-0.9,0.9c-0.5,0-0.9-0.4-0.9-0.9c0-0.5,0.4-0.9,0.9-0.9C37.2,7.7,37.6,8.1,37.6,8.6"
				/>
		</g>
		<g>
			<g>
				<path class="st2" d="M15.9,11.4h13.6c2.5,0,4.6,2.1,4.6,4.6v13.6c0,2.5-2.1,4.6-4.6,4.6H15.9c-2.5,0-4.6-2.1-4.6-4.6V15.9
					C11.3,13.4,13.4,11.4,15.9,11.4z"/>
			</g>
			<g>
				<path class="st3" d="M26.8,28.3C26.8,28.2,26.8,28.2,26.8,28.3l-1-1c-0.1-0.1-0.2-0.1-0.3,0l0,0c-0.1,0.1-0.1,0.2,0,0.3l0.6,0.6
					h-1.5c0.3-0.4,0.6-0.8,0.8-1.1c0.5-0.8,0.6-1.3,0.4-1.5c-0.1-0.1-0.2-0.1-0.4-0.1c-0.5,0-1.4,0.6-2.3,1.4v-1.6l0.6,0.6
					c0.1,0.1,0.2,0.1,0.3,0l0,0c0.1-0.1,0.1-0.2,0-0.3l-1-1c0,0,0,0,0,0c0-0.1-0.1-0.1-0.2-0.1h0c-0.1,0-0.1,0-0.2,0.1c0,0,0,0,0,0
					l-1,1c-0.1,0.1-0.1,0.2,0,0.3l0,0c0.1,0.1,0.2,0.1,0.3,0l0.6-0.6v1.6c-0.9-0.8-1.8-1.4-2.4-1.4c-0.2,0-0.3,0.1-0.4,0.1
					c-0.3,0.3-0.1,0.8,0.4,1.5c0.2,0.3,0.5,0.7,0.8,1.1h-1.5l0.6-0.6c0.1-0.1,0.1-0.2,0-0.3l0,0c-0.1-0.1-0.2-0.1-0.3,0l-1,1
					c0,0,0,0,0,0c0,0-0.1,0.1-0.1,0.2v0c0,0.1,0,0.1,0.1,0.2c0,0,0,0,0,0l1,1c0.1,0.1,0.2,0.1,0.3,0l0,0c0.1-0.1,0.1-0.2,0-0.3
					l-0.6-0.6h1.6c-0.4,0.4-0.7,0.8-0.9,1.2c-0.5,0.8-0.6,1.3-0.4,1.5c0.1,0.1,0.2,0.1,0.4,0.1h0c0.5,0,1.5-0.6,2.4-1.4v1.5
					l-0.6-0.6c-0.1-0.1-0.2-0.1-0.3,0l0,0c-0.1,0.1-0.1,0.2,0,0.3l1,1c0,0,0,0,0,0c0,0,0.1,0.1,0.2,0.1h0c0.1,0,0.1,0,0.2-0.1
					c0,0,0,0,0,0l1-1c0.1-0.1,0.1-0.2,0-0.3l0,0c-0.1-0.1-0.2-0.1-0.3,0L23,31.7v-1.4c0.9,0.8,1.8,1.4,2.3,1.4
					c0.2,0,0.3-0.1,0.4-0.1c0.3-0.3,0.1-0.8-0.4-1.5c-0.2-0.4-0.6-0.8-0.9-1.2H26l-0.6,0.6c-0.1,0.1-0.1,0.2,0,0.3l0,0
					c0.1,0.1,0.2,0.1,0.3,0l1-1c0,0,0,0,0,0c0.1,0,0.1-0.1,0.1-0.2v0C26.9,28.4,26.8,28.3,26.8,28.3z M20.1,31.2
					C20.1,31.2,20.1,31.2,20.1,31.2c-0.1-0.2,0.3-1,1.2-2.1c0.2,0.4,0.5,0.7,0.8,0.8C21.2,30.7,20.4,31.2,20.1,31.2z M21.4,28
					c-1-1.1-1.4-1.9-1.3-2.1c0,0,0,0,0,0c0.3,0,1.1,0.4,2.1,1.3C21.8,27.3,21.5,27.6,21.4,28z M25.4,25.8
					C25.4,25.8,25.4,25.8,25.4,25.8c0.1,0.2-0.3,1-1.2,2.1c-0.2-0.4-0.5-0.7-0.8-0.8C24.3,26.3,25,25.8,25.4,25.8z M25.4,31.2
					C25.4,31.2,25.4,31.2,25.4,31.2c-0.4,0-1.1-0.4-2.1-1.3c0.4-0.2,0.7-0.5,0.8-0.8C25.1,30.2,25.5,31,25.4,31.2z"/>
			</g>
			<g>
				<polygon class="st3" points="25.8,19.2 22.9,19.2 22.9,20.9 25.8,20.9 25.8,21.7 27.5,20.1 27.5,20 25.8,18.4 				"/>
				<polygon class="st3" points="25.8,18 27.5,16.3 27.5,16.3 25.8,14.6 25.8,15.4 22.9,15.4 22.9,17.1 25.8,17.1 				"/>
				<polygon class="st3" points="19.7,16.5 18.1,18.2 18,18.2 19.7,19.9 19.7,19.1 22.6,19.1 22.6,17.4 19.7,17.4 				"/>
				<polygon class="st3" points="19.7,12.7 18.1,14.4 18,14.4 19.7,16.1 19.7,15.2 22.6,15.2 22.6,13.6 19.7,13.6 				"/>
			</g>
			<g>
				<rect x="12.3" y="22.6" class="st3" width="20.7" height="0.4"/>
			</g>
		</g>
	</g>
</g>
</svg>
