<?xml version="1.0" encoding="utf-8"?>
<!-- Generator: Adobe Illustrator 27.2.0, SVG Export Plug-In . SVG Version: 6.00 Build 0)  -->
<svg version="1.1" id="Layer_1" xmlns="http://www.w3.org/2000/svg" xmlns:xlink="http://www.w3.org/1999/xlink" x="0px" y="0px"
	 viewBox="0 0 31 31" style="enable-background:new 0 0 31 31;" xml:space="preserve">
<style type="text/css">
	.st0{fill:#999999;}
	.st1{fill:#FFFFFF;}
</style>
<g>
	<path class="st0" d="M31,15.5C31,24,24,31,15.5,31S0,24,0,15.5C0,6.9,6.9,0,15.5,0C24,0,31,6.9,31,15.5z"/>
</g>
<path class="st1" d="M22.3,11.8c0.8-0.7,1.4-2.2,1.5-3.3c0-0.6-0.2-1.1-0.5-1.5c-0.3-0.3-0.9-0.5-1.5-0.5c-1.1,0-2.6,0.7-3.3,1.5
	l-1.2,1.3c0,0,0,0,0,0l-0.2,0.3l-2-0.1c0-0.1,0.1-0.3,0.1-0.4c0-0.4-0.2-0.9-0.5-1.2c-0.3-0.3-0.7-0.5-1.2-0.5
	c-0.4,0-0.9,0.2-1.2,0.5l-1.3,1.3L8.5,9c0,0,0,0,0,0C8,9,7.6,9.2,7.3,9.5l-0.7,0.7c-0.3,0.3-0.5,0.8-0.4,1.3c0.1,0.5,0.5,0.8,0.9,1
	c0,0,0,0,0,0l5.8,1.7L10.4,17L7,16.8c-0.4,0-0.7,0.1-1,0.4l-0.5,0.5c-0.3,0.3-0.4,0.6-0.3,1C5.4,19,5.7,19.3,6,19.4l1.8,0.5
	c-0.2,0.3-0.3,0.7-0.3,1.1c0,0.5,0.2,1,0.6,1.3c0.4,0.4,0.9,0.6,1.4,0.6c0.4,0,0.7-0.1,1-0.3l0.5,1.8c0.1,0.4,0.4,0.6,0.7,0.7
	c0.1,0,0.2,0,0.3,0c0.3,0,0.5-0.1,0.7-0.3l0.5-0.5c0.3-0.3,0.4-0.6,0.4-1l-0.2-3.4l2.9-2.6l1.7,5.8c0,0,0,0,0,0
	c0.1,0.5,0.5,0.8,1,0.9c0.1,0,0.2,0,0.3,0c0.4,0,0.7-0.1,1-0.4l0.7-0.7c0.3-0.3,0.5-0.7,0.4-1.1c0,0,0,0,0,0l-0.1-2.4l1.3-1.3
	c0.3-0.3,0.5-0.7,0.5-1.2c0-0.4-0.2-0.9-0.5-1.2c-0.3-0.3-0.7-0.5-1.2-0.5c0,0,0,0,0,0c-0.1,0-0.3,0-0.4,0.1l-0.1-2L21,13l0,0
	c0,0,0,0,0,0L22.3,11.8z M12.9,8.4c0.2-0.2,0.4-0.2,0.6-0.2s0.4,0.1,0.6,0.2c0.2,0.2,0.2,0.4,0.2,0.6c0,0.1,0,0.2-0.1,0.4L12,9.3
	L12.9,8.4z M7.1,11.2c0-0.2,0-0.4,0.1-0.5l0.7-0.7C8.1,10,8.2,9.9,8.4,9.9L11,10l3.3,0.2l2,0.1l-2.7,3l-6.2-1.8
	C7.3,11.6,7.2,11.4,7.1,11.2z M6.1,18.4c0,0,0-0.1,0-0.2l0.5-0.5c0.1-0.1,0.2-0.1,0.3-0.1c0,0,0,0,0,0l2.7,0.2l-1.2,1.3l-2.2-0.6
	C6.2,18.5,6.1,18.4,6.1,18.4z M12.6,23.7l-0.5,0.5c-0.1,0.1-0.1,0.1-0.2,0c0,0-0.1,0-0.1-0.1l-0.6-2.2l1.3-1.2l0.2,2.7
	C12.7,23.5,12.7,23.6,12.6,23.7z M21.3,16.1c0.2,0,0.4,0.1,0.6,0.2c0.2,0.2,0.2,0.4,0.2,0.6c0,0.2-0.1,0.4-0.2,0.6l-0.8,0.8
	l-0.1-2.1C21.1,16.1,21.2,16.1,21.3,16.1z M20.1,16C20.1,16,20.1,16,20.1,16l0.2,3.3c0,0,0,0,0,0l0.2,2.6c0,0.2-0.1,0.4-0.2,0.5
	l-0.7,0.7c-0.1,0.1-0.3,0.2-0.5,0.1c-0.2,0-0.3-0.2-0.4-0.3l-1.8-6.2l1.3-1.2L20,14L20.1,16z M20.5,12.4
	C20.5,12.4,20.5,12.4,20.5,12.4L20,12.7c0,0,0,0,0,0l-2.3,2.1l-7.6,6.9c-0.4,0.4-1.1,0.4-1.5,0c-0.2-0.2-0.3-0.5-0.3-0.7
	c0-0.3,0.1-0.5,0.3-0.7l0.2-0.2c0,0,0,0,0,0l2-2.2c0,0,0,0,0,0l3.2-3.5c0,0,0,0,0,0l3.5-3.9l0,0c0,0,0,0,0,0L18,9.9c0,0,0,0,0,0
	l1.2-1.3c0.5-0.6,1.7-1.2,2.7-1.2c0.3,0,0.6,0,0.9,0.3c0.2,0.2,0.3,0.6,0.3,0.9c0,1-0.6,2.2-1.2,2.7L20.5,12.4z"/>
</svg>
