<?xml version="1.0" encoding="utf-8"?>
<!-- Generator: Adobe Illustrator 27.2.0, SVG Export Plug-In . SVG Version: 6.00 Build 0)  -->
<svg version="1.1" id="Layer_1" xmlns="http://www.w3.org/2000/svg" xmlns:xlink="http://www.w3.org/1999/xlink" x="0px" y="0px"
	 viewBox="0 0 31 31" style="enable-background:new 0 0 31 31;" xml:space="preserve">
<style type="text/css">
	.st0{fill:#999999;}
	.st1{fill:#FFFFFF;}
</style>
<g>
	<path class="st0" d="M31,15.5C31,24,24,31,15.5,31S0,24,0,15.5C0,6.9,6.9,0,15.5,0C24,0,31,6.9,31,15.5z"/>
</g>
<path class="st1" d="M27.2,15.6c0-0.1-0.1-0.6-0.9-1.2c-0.9-0.7-2.5-1.2-4.7-1.6c-0.2-0.3-0.9-1-1.8-1.7c-1.5-1.3-3-2-4.3-2.2
	c0,0,0,0-0.1,0H8.4C6,8.9,4,10.9,4,13.3v4c0,1.1,0.9,2,2,2h0.2C6.5,20.3,7.4,21,8.4,21c1,0,1.8-0.6,2.1-1.5h9.6
	c0.3,0.9,1.1,1.5,2.1,1.5c0.9,0,1.6-0.5,2-1.2h1.4c0,0,0,0,0,0c0,0,0.4,0,0.7-0.3c0.3-0.2,0.7-0.6,0.7-1.4L27.2,15.6
	C27.2,15.6,27.2,15.6,27.2,15.6z M20.4,12.8h-6.4V9.7h1.4C17.5,10.1,19.4,11.8,20.4,12.8z M9.8,12.8c-0.4,0-0.7-0.3-0.7-0.7V9.7h4
	v3.1H9.8z M8.4,20.1c-0.8,0-1.4-0.6-1.4-1.4c0-0.8,0.6-1.4,1.4-1.4c0.8,0,1.4,0.6,1.4,1.4C9.8,19.5,9.2,20.1,8.4,20.1z M22.2,20.1
	c-0.8,0-1.4-0.6-1.4-1.4c0-0.8,0.6-1.4,1.4-1.4c0.8,0,1.4,0.6,1.4,1.4C23.6,19.5,23,20.1,22.2,20.1z M26,18.7
	c-0.2,0.1-0.3,0.1-0.4,0.1h-1.1c0-0.1,0-0.1,0-0.2c0-1.2-1-2.3-2.3-2.3c-1.2,0-2.2,0.9-2.3,2.1h-9.3c-0.1-1.2-1.1-2.1-2.3-2.1
	c-1.2,0-2.1,0.9-2.2,2H6c-0.6,0-1.2-0.5-1.2-1.2v-0.4h1.1c0.2,0,0.4-0.2,0.4-0.4c0-0.2-0.2-0.4-0.4-0.4H4.8v-2.7
	c0-1.9,1.5-3.5,3.5-3.6v2.4c0,0.9,0.7,1.6,1.6,1.6h11.5c0,0,0,0,0,0c4.2,0.8,4.8,1.9,4.9,2v0.6h-1.2c-0.2,0-0.4,0.2-0.4,0.4
	c0,0.2,0.2,0.4,0.4,0.4h1.2V18C26.3,18.4,26.2,18.6,26,18.7z"/>
</svg>
