<?xml version="1.0" encoding="utf-8"?>
<!-- Generator: Adobe Illustrator 27.2.0, SVG Export Plug-In . SVG Version: 6.00 Build 0)  -->
<svg version="1.1" id="Layer_1" xmlns="http://www.w3.org/2000/svg" xmlns:xlink="http://www.w3.org/1999/xlink" x="0px" y="0px"
	 viewBox="0 0 31 31" style="enable-background:new 0 0 31 31;" xml:space="preserve">
<style type="text/css">
	.st0{fill:#999999;}
	.st1{fill:#FFFFFF;}
</style>
<g>
	<g>
		<path class="st0" d="M31,15.5C31,24,24,31,15.5,31S0,24,0,15.5C0,6.9,6.9,0,15.5,0C24,0,31,6.9,31,15.5z"/>
	</g>
</g>
<g>
	<path class="st1" d="M27.6,14.4c-0.3-1.9-0.8-3.2-0.8-3.3l-0.1-0.3h-2.8v1.9H23V12c0-1-0.8-1.8-1.8-1.8H20V9.1
		c0-0.2-0.2-0.4-0.4-0.4h-2.1v-1h1.6c0.7,0,1.2-0.5,1.2-1.2s-0.5-1.2-1.2-1.2h-7.6c-0.7,0-1.2,0.5-1.2,1.2s0.5,1.2,1.2,1.2h1.6v1H11
		c-0.2,0-0.4,0.2-0.4,0.4v1.1H9.7c-1,0-1.8,0.8-1.8,1.8v1.8H6.9v-1.7c0-0.5-0.2-1-0.5-1.3c-0.3-0.3-0.8-0.5-1.3-0.5
		c-1,0-1.8,0.8-1.8,1.8v7c0,1,0.8,1.8,1.8,1.8c1,0,1.8-0.8,1.8-1.8v-1.8h0.9v1.6c0,1,0.8,1.8,1.8,1.8h3.7c0.3,0,0.5,0.1,0.7,0.3
		l1.3,1.7c0.3,0.4,0.8,0.7,1.4,0.7h4.4c1,0,1.8-0.8,1.8-1.8v-1.6h0.9v2h2.8l0.1-0.3c0.5-1.2,0.8-2.5,0.9-3.9
		C27.8,16.7,27.8,15.6,27.6,14.4z M11.1,6.5c0-0.2,0.2-0.4,0.4-0.4h7.6c0.2,0,0.4,0.2,0.4,0.4c0,0.2-0.2,0.4-0.4,0.4h-7.6
		C11.3,6.8,11.1,6.7,11.1,6.5z M13.9,7.7h2.7v1h-2.7V7.7z M11.4,9.6h7.8v0.7h-2.1h-3.6h-2.1V9.6z M6.1,19c0,0.5-0.4,1-1,1
		c-0.5,0-1-0.4-1-1v-7c0-0.5,0.4-1,1-1c0.3,0,0.5,0.1,0.7,0.3c0.2,0.2,0.3,0.4,0.3,0.7v2.2c0,0,0,0,0,0v2.5c0,0,0,0,0,0V19z
		 M6.9,14.7h0.9v1.7H6.9V14.7z M22.1,21.5c0,0.5-0.4,0.9-0.9,0.9h-4.4c-0.3,0-0.5-0.1-0.7-0.3l-1.3-1.7c-0.3-0.4-0.8-0.7-1.4-0.7
		H9.7c-0.5,0-0.9-0.4-0.9-0.9v-1.6v-0.4v-2.5v-0.4V12c0-0.5,0.4-0.9,0.9-0.9H11h2.5h3.6h2.5h1.6c0.5,0,0.9,0.4,0.9,0.9V21.5z
		 M23,19.1v-5.4h0.9v5.4H23z M26.9,17.8c-0.1,1.2-0.3,2.3-0.7,3.3h-1.4v-9.4h1.4c0.2,0.5,0.5,1.5,0.7,2.9
		C26.9,15.7,27,16.7,26.9,17.8z"/>
	<path class="st1" d="M12.2,12.8c-0.2,0-0.4,0.2-0.4,0.4v4.5c0,0.2,0.2,0.4,0.4,0.4s0.4-0.2,0.4-0.4v-4.5
		C12.6,13,12.4,12.8,12.2,12.8z"/>
	<path class="st1" d="M14.6,12.8c-0.2,0-0.4,0.2-0.4,0.4v4.5c0,0.2,0.2,0.4,0.4,0.4S15,18,15,17.7v-4.5C15,13,14.8,12.8,14.6,12.8z"
		/>
	<path class="st1" d="M17,12.8c-0.2,0-0.4,0.2-0.4,0.4v4.5c0,0.2,0.2,0.4,0.4,0.4s0.4-0.2,0.4-0.4v-4.5C17.4,13,17.2,12.8,17,12.8z"
		/>
</g>
</svg>
