<?xml version="1.0" encoding="utf-8"?>
<!-- Generator: Adobe Illustrator 27.2.0, SVG Export Plug-In . SVG Version: 6.00 Build 0)  -->
<svg version="1.1" id="Layer_1" xmlns="http://www.w3.org/2000/svg" xmlns:xlink="http://www.w3.org/1999/xlink" x="0px" y="0px"
	 viewBox="0 0 31 31" style="enable-background:new 0 0 31 31;" xml:space="preserve">
<style type="text/css">
	.st0{fill:#999999;}
	.st1{fill:#FFFFFF;}
</style>
<g>
	<g>
		<g>
			<path class="st0" d="M31,15.5C31,24,24,31,15.5,31S0,24,0,15.5C0,6.9,6.9,0,15.5,0S31,6.9,31,15.5z"/>
		</g>
	</g>
</g>
<g>
	<path class="st1" d="M10.7,16.8c1.7-2.2,1.8-4.2,1.8-4.4c0-2.5-2-4.4-4.4-4.4c-2.5,0-4.4,2-4.4,4.4c0,0.1,0.1,2.2,1.8,4.4
		c0.4,0.6,0.4,1.6,0.4,1.9c-0.2,0-0.3,0.2-0.3,0.4c0,0.2,0.2,0.4,0.4,0.4h4.4c0.2,0,0.4-0.2,0.4-0.4c0-0.2-0.1-0.3-0.3-0.4
		C10.3,18.3,10.3,17.3,10.7,16.8z"/>
	<path class="st1" d="M10.3,20H5.8c-0.2,0-0.4,0.2-0.4,0.4c0,0.2,0.2,0.4,0.4,0.4h4.4c0.2,0,0.4-0.2,0.4-0.4
		C10.6,20.1,10.5,20,10.3,20z"/>
	<path class="st1" d="M16.3,23.9V6.3c0-0.4-0.3-0.8-0.8-0.8c-0.4,0-0.8,0.3-0.8,0.8v17.6c0,0.4,0.3,0.8,0.8,0.8
		C15.9,24.7,16.3,24.3,16.3,23.9z"/>
	<path class="st1" d="M10,21.3H6.2c-0.2,0-0.4,0.2-0.4,0.4C5.8,21.8,6,22,6.2,22h1c0.1,0.4,0.4,0.8,0.9,0.8h0c0.5,0,0.8-0.3,0.9-0.8
		h1c0.2,0,0.4-0.2,0.4-0.4C10.3,21.4,10.2,21.3,10,21.3z"/>
</g>
<g>
	<path class="st1" d="M20.3,16.8c-1.7-2.2-1.8-4.2-1.8-4.4c0-2.5,2-4.4,4.4-4.4c2.5,0,4.4,2,4.4,4.4c0,0.1-0.1,2.2-1.8,4.4
		c-0.4,0.6-0.4,1.6-0.4,1.9c0.2,0,0.3,0.2,0.3,0.4c0,0.2-0.2,0.4-0.4,0.4h-4.4c-0.2,0-0.4-0.2-0.4-0.4c0-0.2,0.1-0.3,0.3-0.4
		C20.7,18.3,20.7,17.3,20.3,16.8z"/>
	<path class="st1" d="M20.7,20h4.4c0.2,0,0.4,0.2,0.4,0.4c0,0.2-0.2,0.4-0.4,0.4h-4.4c-0.2,0-0.4-0.2-0.4-0.4
		C20.4,20.1,20.5,20,20.7,20z"/>
	<path class="st1" d="M21,21.3h3.8c0.2,0,0.4,0.2,0.4,0.4c0,0.2-0.2,0.4-0.4,0.4h-1c-0.1,0.4-0.4,0.8-0.9,0.8h0
		c-0.5,0-0.8-0.3-0.9-0.8h-1c-0.2,0-0.4-0.2-0.4-0.4C20.7,21.4,20.8,21.3,21,21.3z"/>
</g>
</svg>
