<?xml version="1.0" encoding="utf-8"?>
<!-- Generator: Adobe Illustrator 27.2.0, SVG Export Plug-In . SVG Version: 6.00 Build 0)  -->
<svg version="1.1" id="Layer_1" xmlns="http://www.w3.org/2000/svg" xmlns:xlink="http://www.w3.org/1999/xlink" x="0px" y="0px"
	 viewBox="0 0 31 31" style="enable-background:new 0 0 31 31;" xml:space="preserve">
<style type="text/css">
	.st0{fill:#999999;}
	.st1{fill:#FFFFFF;}
</style>
<g>
	<g>
		<g>
			<path class="st0" d="M31,15.5C31,24,24,31,15.5,31S0,24,0,15.5C0,6.9,6.9,0,15.5,0C24,0,31,6.9,31,15.5z"/>
		</g>
		<path class="st1" d="M27.1,15.1c0,0-0.1-0.1-0.1-0.1l-2.8-2.8c-0.3-0.3-0.7-0.3-1,0l-0.1,0.1c-0.3,0.3-0.3,0.7,0,1l1.6,1.6h-4.2
			c0.9-1.1,1.7-2.2,2.4-3.2c1.4-2.2,1.8-3.6,1-4.4c-0.2-0.2-0.5-0.4-1-0.4c-1.5,0-4.1,1.7-6.7,3.9V6.3l1.6,1.6c0.3,0.3,0.7,0.3,1,0
			l0.1-0.1c0.3-0.3,0.3-0.7,0-1l-2.8-2.8c0,0,0,0,0,0c-0.1-0.2-0.3-0.2-0.5-0.2h-0.1c-0.2,0-0.3,0.1-0.5,0.2c0,0-0.1,0.1-0.1,0.1
			l-2.8,2.8c-0.3,0.3-0.3,0.7,0,1l0.1,0.1c0.3,0.3,0.7,0.3,1,0l1.6-1.6v4.5c-2.6-2.2-5.2-3.9-6.7-3.9c-0.5,0-0.8,0.2-1,0.4
			c-0.7,0.7-0.4,2.2,1,4.4c0.6,1,1.4,2.1,2.4,3.2H6.3l1.6-1.6c0.3-0.3,0.3-0.7,0-1l-0.1-0.1c-0.3-0.3-0.7-0.3-1,0l-2.8,2.8
			C4,15,4,15,4,15.1c-0.1,0.1-0.2,0.3-0.2,0.5v0.1c0,0.2,0.1,0.4,0.2,0.5c0,0,0,0,0,0L6.8,19c0.3,0.3,0.7,0.3,1,0l0.1-0.1
			c0.3-0.3,0.3-0.7,0-1l-1.6-1.6h4.4c-1.1,1.2-2,2.4-2.6,3.5c-1.4,2.2-1.8,3.6-1,4.4c0.2,0.2,0.5,0.4,1,0.4h0c1.5,0,4.1-1.7,6.7-3.9
			v4.2l-1.6-1.6c-0.3-0.3-0.7-0.3-1,0l-0.1,0.1c-0.3,0.3-0.3,0.7,0,1l2.8,2.8c0,0,0.1,0.1,0.1,0.1c0.1,0.1,0.3,0.2,0.5,0.2h0.1
			c0.2,0,0.4-0.1,0.5-0.2c0,0,0,0,0,0l2.8-2.8c0.3-0.3,0.3-0.7,0-1l-0.1-0.1c-0.3-0.3-0.7-0.3-1,0l-1.6,1.6v-4.1
			c2.6,2.2,5.2,3.9,6.7,3.9c0.5,0,0.8-0.2,1-0.4c0.7-0.7,0.4-2.2-1-4.4c-0.7-1.1-1.6-2.3-2.6-3.5h4.5l-1.6,1.6c-0.3,0.3-0.3,0.7,0,1
			l0.1,0.1c0.3,0.3,0.7,0.3,1,0l2.8-2.8c0,0,0,0,0,0c0.2-0.1,0.2-0.3,0.2-0.5v-0.1C27.3,15.3,27.2,15.2,27.1,15.1z M8.1,23.3
			c-0.1,0-0.1,0-0.1,0c-0.2-0.5,0.9-2.8,3.6-6c0.4,1.1,1.3,2,2.4,2.4C11.2,22.1,9,23.3,8.1,23.3z M11.6,14.2c-2.7-3.2-3.8-5.5-3.6-6
			c0,0,0.1,0,0.1,0c0.9,0,3.1,1.3,5.9,3.6C12.9,12.2,12,13.1,11.6,14.2z M22.9,8.2c0.1,0,0.1,0,0.1,0c0.2,0.5-0.9,2.8-3.6,6
			c-0.4-1.1-1.3-2-2.4-2.4C19.8,9.4,22,8.2,22.9,8.2z M23.1,23.3c0,0-0.1,0-0.1,0c-0.9,0-3.1-1.3-5.9-3.6c1.1-0.4,2-1.3,2.4-2.4
			C22.2,20.5,23.3,22.8,23.1,23.3z"/>
	</g>
</g>
</svg>
