<?xml version="1.0" encoding="utf-8"?>
<!-- Generator: Adobe Illustrator 27.2.0, SVG Export Plug-In . SVG Version: 6.00 Build 0)  -->
<svg version="1.1" id="Layer_1" xmlns="http://www.w3.org/2000/svg" xmlns:xlink="http://www.w3.org/1999/xlink" x="0px" y="0px"
	 viewBox="0 0 31 31" style="enable-background:new 0 0 31 31;" xml:space="preserve">
<style type="text/css">
	.st0{fill:#999999;}
	.st1{fill:#FFFFFF;}
</style>
<g>
	<g>
		<path class="st0" d="M31,15.5C31,24,24,31,15.5,31S0,24,0,15.5C0,6.9,6.9,0,15.5,0C24,0,31,6.9,31,15.5z"/>
	</g>
</g>
<g>
	<path class="st1" d="M15.5,4.7c-6,0-10.8,4.9-10.8,10.8c0,6,4.9,10.8,10.8,10.8c6,0,10.8-4.9,10.8-10.8C26.4,9.6,21.5,4.7,15.5,4.7
		z M22.5,9.8c1.2,1.4,1.9,3.2,2,5.1h-1.5c0,0,0,0,0,0c-0.1-1.5-0.7-2.9-1.6-4L22.5,9.8C22.5,9.9,22.5,9.8,22.5,9.8z M16.1,6.6
		c2.1,0.1,4,1,5.5,2.4c0,0,0,0-0.1,0l-1,1c-1.2-1.1-2.7-1.7-4.4-1.9V6.6z M14.9,6.6v1.6C13.2,8.3,11.7,9,10.5,10l-1-1c0,0,0,0-0.1,0
		C10.9,7.6,12.8,6.7,14.9,6.6z M8.6,9.8C8.6,9.8,8.6,9.9,8.6,9.8l1.1,1.1C8.7,12,8.1,13.4,8,15c0,0,0,0,0,0H6.5
		C6.7,13,7.4,11.2,8.6,9.8z M6.5,16.2H8c0,0,0,0,0,0c0.1,1.6,0.7,3.1,1.7,4.3l-1,1C7.5,20.1,6.7,18.2,6.5,16.2z M15.5,24.6
		c-2.3,0-4.5-0.9-6.1-2.3l1.7-1.7l-0.4-0.4C9.7,19,9,17.4,9,15.7c0-3.6,2.9-6.5,6.5-6.5c3.6,0,6.5,2.9,6.5,6.5
		c0,1.7-0.6,3.3-1.8,4.5l-0.4,0.4l1.7,1.7C20,23.7,17.8,24.6,15.5,24.6z M22.3,21.5l-1-1c1-1.2,1.6-2.7,1.7-4.3c0,0,0,0,0,0h1.5
		C24.4,18.2,23.6,20.1,22.3,21.5z"/>
	<path class="st1" d="M19.7,18c-0.4-0.3-0.9-0.2-1.2,0.2c-0.7,0.9-1.8,1.4-3,1.4c-1.2,0-2.3-0.5-3-1.4c-0.3-0.4-0.8-0.5-1.2-0.2
		c-0.4,0.3-0.5,0.8-0.2,1.2c1,1.4,2.6,2.2,4.4,2.2s3.4-0.8,4.4-2.2C20.2,18.8,20.1,18.2,19.7,18z"/>
	<path class="st1" d="M15.5,17.6c0.7,0,1.3-0.4,1.7-0.9v0l0,0c0-0.1,0.1-0.1,0.1-0.2l2.3-4l-4.4,1.1l0,0c-0.9,0.2-1.7,1-1.7,2
		C13.5,16.7,14.4,17.6,15.5,17.6z M15.5,14.8c0.4,0,0.8,0.4,0.8,0.8c0,0.4-0.4,0.8-0.8,0.8s-0.8-0.4-0.8-0.8
		C14.7,15.1,15.1,14.8,15.5,14.8z"/>
</g>
</svg>
