<?xml version="1.0" encoding="utf-8"?>
<!-- Generator: Adobe Illustrator 27.2.0, SVG Export Plug-In . SVG Version: 6.00 Build 0)  -->
<svg version="1.1" id="Layer_1" xmlns="http://www.w3.org/2000/svg" xmlns:xlink="http://www.w3.org/1999/xlink" x="0px" y="0px"
	 viewBox="0 0 31 31" style="enable-background:new 0 0 31 31;" xml:space="preserve">
<style type="text/css">
	.st0{fill:#999999;}
	.st1{fill:#FFFFFF;}
</style>
<g>
	<g>
		<path class="st0" d="M31,15.5C31,24,24,31,15.5,31S0,24,0,15.5C0,6.9,6.9,0,15.5,0C24,0,31,6.9,31,15.5z"/>
	</g>
</g>
<g>
	<path class="st1" d="M22.5,5.3H8.3C7.3,5.3,6.5,6,6.5,7v16.9c0,1,0.8,1.8,1.8,1.8h14.2c1,0,1.8-0.8,1.8-1.8V7
		C24.2,6,23.4,5.3,22.5,5.3z M22.8,7v7.8h-8V6.7h7.7C22.7,6.7,22.8,6.8,22.8,7z M7.9,23.9V7c0-0.2,0.2-0.3,0.3-0.3h5.1v17.6H8.3
		C8.1,24.3,7.9,24.1,7.9,23.9z M22.5,24.3h-7.7v-8h8v7.7C22.8,24.1,22.7,24.3,22.5,24.3z"/>
	<path class="st1" d="M16.7,9.1h4.7c0.3,0,0.5-0.2,0.5-0.5c0-0.3-0.2-0.5-0.5-0.5h-4.7c-0.3,0-0.5,0.2-0.5,0.5
		C16.2,8.8,16.4,9.1,16.7,9.1z"/>
	<path class="st1" d="M10.7,14c0.3,0,0.5-0.2,0.5-0.5V8.8c0-0.3-0.2-0.5-0.5-0.5c-0.3,0-0.5,0.2-0.5,0.5v4.7
		C10.3,13.8,10.5,14,10.7,14z"/>
	<path class="st1" d="M16.7,11.2h4.7c0.3,0,0.5-0.2,0.5-0.5c0-0.3-0.2-0.5-0.5-0.5h-4.7c-0.3,0-0.5,0.2-0.5,0.5
		C16.2,11,16.4,11.2,16.7,11.2z"/>
	<path class="st1" d="M21.4,12.4h-4.7c-0.3,0-0.5,0.2-0.5,0.5c0,0.3,0.2,0.5,0.5,0.5h4.7c0.3,0,0.5-0.2,0.5-0.5
		C21.8,12.6,21.6,12.4,21.4,12.4z"/>
	<path class="st1" d="M21.4,17.7h-4.7c-0.3,0-0.5,0.2-0.5,0.5s0.2,0.5,0.5,0.5h4.7c0.3,0,0.5-0.2,0.5-0.5S21.6,17.7,21.4,17.7z"/>
	<path class="st1" d="M21.4,19.8h-4.7c-0.3,0-0.5,0.2-0.5,0.5c0,0.3,0.2,0.5,0.5,0.5h4.7c0.3,0,0.5-0.2,0.5-0.5
		C21.8,20,21.6,19.8,21.4,19.8z"/>
	<path class="st1" d="M21.4,21.9h-4.7c-0.3,0-0.5,0.2-0.5,0.5c0,0.3,0.2,0.5,0.5,0.5h4.7c0.3,0,0.5-0.2,0.5-0.5
		C21.8,22.1,21.6,21.9,21.4,21.9z"/>
	<circle class="st1" cx="10.7" cy="18.3" r="0.6"/>
	<circle class="st1" cx="10.7" cy="21" r="0.6"/>
</g>
</svg>
