<?xml version="1.0" encoding="utf-8"?>
<!-- Generator: Adobe Illustrator 27.2.0, SVG Export Plug-In . SVG Version: 6.00 Build 0)  -->
<svg version="1.1" id="Layer_1" xmlns="http://www.w3.org/2000/svg" xmlns:xlink="http://www.w3.org/1999/xlink" x="0px" y="0px"
	 viewBox="0 0 31 31" style="enable-background:new 0 0 31 31;" xml:space="preserve">
<style type="text/css">
	.st0{fill:#999999;}
	.st1{fill:#FFFFFF;}
</style>
<g>
	<g>
		<g>
			<path class="st0" d="M31,15.5C31,24,24,31,15.5,31S0,24,0,15.5C0,6.9,6.9,0,15.5,0C24,0,31,6.9,31,15.5z"/>
		</g>
	</g>
</g>
<path class="st1" d="M23.1,5H7.9C7.4,5,7,5.4,7,5.9v12.6c0,0.5,0.4,0.9,0.9,0.9h15.2c0.5,0,0.9-0.4,0.9-0.9V5.9
	C24,5.4,23.6,5,23.1,5z M13.1,6.1c0.4,0,0.7,0.3,0.7,0.7c0,0.4-0.3,0.7-0.7,0.7c-0.4,0-0.7-0.3-0.7-0.7C12.4,6.4,12.7,6.1,13.1,6.1z
	 M10.9,6.1c0.4,0,0.7,0.3,0.7,0.7c0,0.4-0.3,0.7-0.7,0.7s-0.7-0.3-0.7-0.7C10.2,6.4,10.5,6.1,10.9,6.1z M8.8,6.1
	c0.4,0,0.7,0.3,0.7,0.7c0,0.4-0.3,0.7-0.7,0.7c-0.4,0-0.7-0.3-0.7-0.7C8.1,6.4,8.4,6.1,8.8,6.1z M8.7,18.2c-0.3,0-0.6-0.3-0.6-0.6
	V9.3c0-0.3,0.3-0.6,0.6-0.6h13.7C22.7,8.7,23,9,23,9.3v8.3c0,0.3-0.3,0.6-0.6,0.6H8.7z"/>
<path class="st1" d="M11.5,14.9l0,0.5c0,0,0,0.1,0.1,0.1l0.3,0c0,0,0.1,0,0.1,0.1l0.1,0.3c0,0,0,0.1,0,0.1l-0.2,0.2c0,0,0,0.1,0,0.1
	l0.3,0.4c0,0,0.1,0,0.1,0l0.2-0.2c0,0,0.1,0,0.1,0l0.3,0.2c0,0,0,0.1,0,0.1L12.8,17c0,0,0,0.1,0,0.1l0.5,0.2c0,0,0.1,0,0.1,0
	l0.1-0.3c0,0,0.1-0.1,0.1,0l0.3,0.1c0,0,0.1,0,0.1,0.1l0,0.3c0,0,0,0.1,0.1,0.1l0.5,0c0,0,0.1,0,0.1-0.1l0-0.3c0,0,0-0.1,0.1-0.1
	l0.3-0.1c0,0,0.1,0,0.1,0l0.2,0.2c0,0,0.1,0,0.1,0l0.4-0.3c0,0,0-0.1,0-0.1l-0.2-0.2c0,0,0-0.1,0-0.1l0.2-0.3c0,0,0.1,0,0.1,0
	l0.3,0.1c0,0,0.1,0,0.1,0l0.2-0.5c0,0,0-0.1,0-0.1l-0.3-0.1c0,0-0.1-0.1,0-0.1l0.1-0.3c0,0,0-0.1,0.1-0.1l0.3,0c0,0,0.1,0,0.1-0.1
	l0-0.5c0,0,0-0.1-0.1-0.1l-0.3,0c0,0-0.1,0-0.1-0.1L16.1,14c0,0,0-0.1,0-0.1l0.2-0.2c0,0,0-0.1,0-0.1l-0.3-0.4c0,0-0.1,0-0.1,0
	l-0.2,0.2c0,0-0.1,0-0.1,0l-0.3-0.2c0,0,0-0.1,0-0.1l0.1-0.3c0,0,0-0.1,0-0.1L15,12.4c0,0-0.1,0-0.1,0l-0.1,0.3c0,0-0.1,0.1-0.1,0
	l-0.3-0.1c0,0-0.1,0-0.1-0.1l0-0.3c0,0,0-0.1-0.1-0.1l-0.5,0c0,0-0.1,0-0.1,0.1l0,0.3c0,0,0,0.1-0.1,0.1l-0.3,0.1c0,0-0.1,0-0.1,0
	l-0.2-0.2c0,0-0.1,0-0.1,0l-0.4,0.3c0,0,0,0.1,0,0.1l0.2,0.2c0,0,0,0.1,0,0.1l-0.2,0.3c0,0-0.1,0-0.1,0L12,13.5c0,0-0.1,0-0.1,0
	L11.7,14c0,0,0,0.1,0,0.1l0.3,0.1c0,0,0.1,0.1,0,0.1L12,14.7c0,0,0,0.1-0.1,0.1L11.5,14.9C11.6,14.8,11.5,14.8,11.5,14.9z M13.3,15
	c0-0.5,0.3-0.9,0.8-0.9c0.5,0,0.9,0.3,0.9,0.8c0,0.5-0.3,0.9-0.8,0.9C13.7,15.8,13.3,15.4,13.3,15z"/>
<path class="st1" d="M15.5,11.6l0,0.4c0,0,0,0,0.1,0l0.2,0c0,0,0.1,0,0.1,0l0.1,0.2c0,0,0,0.1,0,0.1l-0.2,0.1c0,0,0,0,0,0.1l0.2,0.3
	c0,0,0,0,0.1,0l0.2-0.1c0,0,0.1,0,0.1,0l0.2,0.2c0,0,0,0,0,0.1l-0.1,0.2c0,0,0,0.1,0,0.1l0.3,0.2c0,0,0.1,0,0.1,0l0.1-0.2
	c0,0,0,0,0.1,0l0.2,0c0,0,0,0,0.1,0.1l0,0.2c0,0,0,0,0.1,0l0.4,0c0,0,0,0,0-0.1l0-0.2c0,0,0-0.1,0-0.1l0.2-0.1c0,0,0.1,0,0.1,0
	l0.1,0.2c0,0,0,0,0.1,0l0.3-0.2c0,0,0,0,0-0.1l-0.1-0.2c0,0,0-0.1,0-0.1l0.2-0.2c0,0,0,0,0.1,0l0.2,0.1c0,0,0.1,0,0.1,0l0.2-0.3
	c0,0,0-0.1,0-0.1L18.8,12c0,0,0,0,0-0.1l0-0.2c0,0,0,0,0.1-0.1l0.2,0c0,0,0,0,0-0.1l0-0.4c0,0,0,0-0.1,0l-0.2,0c0,0-0.1,0-0.1,0
	l-0.1-0.2c0,0,0-0.1,0-0.1l0.2-0.1c0,0,0,0,0-0.1l-0.2-0.3c0,0,0,0-0.1,0l-0.2,0.1c0,0-0.1,0-0.1,0l-0.2-0.2c0,0,0,0,0-0.1l0.1-0.2
	c0,0,0-0.1,0-0.1l-0.3-0.2c0,0-0.1,0-0.1,0l-0.1,0.2c0,0,0,0-0.1,0l-0.2,0c0,0,0,0-0.1-0.1l0-0.2c0,0,0,0-0.1,0l-0.4,0
	c0,0,0,0,0,0.1l0,0.2c0,0,0,0.1,0,0.1l-0.2,0.1c0,0-0.1,0-0.1,0L16.5,10c0,0,0,0-0.1,0l-0.3,0.2c0,0,0,0,0,0.1l0.1,0.2
	c0,0,0,0.1,0,0.1l-0.2,0.2c0,0,0,0-0.1,0l-0.2-0.1c0,0-0.1,0-0.1,0L15.6,11c0,0,0,0.1,0,0.1l0.2,0.1c0,0,0,0,0,0.1l0,0.2
	c0,0,0,0-0.1,0.1L15.5,11.6C15.5,11.5,15.5,11.5,15.5,11.6z M16.7,11.6c0-0.3,0.2-0.6,0.5-0.6c0.3,0,0.6,0.2,0.6,0.5
	c0,0.3-0.2,0.6-0.5,0.6C17,12.2,16.7,11.9,16.7,11.6z"/>
<path class="st1" d="M24,24.5h-0.8v-2c0-0.2-0.2-0.4-0.4-0.4H8.2c-0.2,0-0.4,0.2-0.4,0.4v2H7v-2c0-0.7,0.5-1.2,1.2-1.2h14.6
	c0.7,0,1.2,0.5,1.2,1.2V24.5z"/>
<rect x="15.1" y="18.5" class="st1" width="0.8" height="6.5"/>
<path class="st1" d="M14.7,23.1h1.5c0.3,0,0.5,0.2,0.5,0.5v1.5c0,0.3-0.2,0.5-0.5,0.5h-1.5c-0.3,0-0.5-0.2-0.5-0.5v-1.5
	C14.2,23.4,14.5,23.1,14.7,23.1z"/>
<path class="st1" d="M22.9,23.1h1.5c0.3,0,0.5,0.2,0.5,0.5v1.5c0,0.3-0.2,0.5-0.5,0.5h-1.5c-0.3,0-0.5-0.2-0.5-0.5v-1.5
	C22.3,23.4,22.6,23.1,22.9,23.1z"/>
<path class="st1" d="M6.6,23.1h1.5c0.3,0,0.5,0.2,0.5,0.5v1.5c0,0.3-0.2,0.5-0.5,0.5H6.6c-0.3,0-0.5-0.2-0.5-0.5v-1.5
	C6.1,23.4,6.3,23.1,6.6,23.1z"/>
</svg>
