<?xml version="1.0" encoding="utf-8"?>
<!-- Generator: Adobe Illustrator 27.2.0, SVG Export Plug-In . SVG Version: 6.00 Build 0)  -->
<svg version="1.1" id="Layer_1" xmlns="http://www.w3.org/2000/svg" xmlns:xlink="http://www.w3.org/1999/xlink" x="0px" y="0px"
	 viewBox="0 0 31 31" style="enable-background:new 0 0 31 31;" xml:space="preserve">
<style type="text/css">
	.st0{fill:#999999;}
	.st1{fill:#FFFFFF;}
</style>
<g>
	<g>
		<path class="st0" d="M31,15.5C31,24,24,31,15.5,31S0,24,0,15.5C0,6.9,6.9,0,15.5,0C24,0,31,6.9,31,15.5z"/>
	</g>
</g>
<g>
	<path class="st1" d="M19.9,6.5H11c-0.3,0-0.5,0.2-0.5,0.5v5.1c0,0.3,0.2,0.5,0.5,0.5h8.8c0.3,0,0.5-0.2,0.5-0.5V7
		C20.3,6.7,20.1,6.5,19.9,6.5z M19.4,11.7h-7.9V7.4h7.9V11.7z"/>
	<path class="st1" d="M12.5,13.7h-1.3c-0.3,0-0.5,0.2-0.5,0.5s0.2,0.5,0.5,0.5h1.3c0.3,0,0.5-0.2,0.5-0.5S12.7,13.7,12.5,13.7z"/>
	<path class="st1" d="M16.2,13.7h-1.3c-0.3,0-0.5,0.2-0.5,0.5s0.2,0.5,0.5,0.5h1.3c0.3,0,0.5-0.2,0.5-0.5S16.4,13.7,16.2,13.7z"/>
	<path class="st1" d="M16.2,15.7h-1.3c-0.3,0-0.5,0.2-0.5,0.5c0,0.3,0.2,0.5,0.5,0.5h1.3c0.3,0,0.5-0.2,0.5-0.5
		C16.6,15.9,16.4,15.7,16.2,15.7z"/>
</g>
<path class="st1" d="M19.8,13.7h-1.3c-0.3,0-0.5,0.2-0.5,0.5s0.2,0.5,0.5,0.5h1.3c0.3,0,0.5-0.2,0.5-0.5S20.1,13.7,19.8,13.7z"/>
<path class="st1" d="M19.8,15.7h-1.3c-0.3,0-0.5,0.2-0.5,0.5c0,0.3,0.2,0.5,0.5,0.5h1.3c0.3,0,0.5-0.2,0.5-0.5
	C20.3,15.9,20.1,15.7,19.8,15.7z"/>
<path class="st1" d="M25.3,24.7c-0.1-0.3-0.4-0.8-0.6-1.1l0,0c-0.2-0.3-0.3-0.6-0.3-0.8c0-0.3,0-0.6-0.1-0.8l0-0.1
	c-0.3-1.7-1-3.1-2.1-4.2V4.8c0-0.3-0.2-0.5-0.5-0.5H9.1c-0.3,0-0.5,0.2-0.5,0.5v17c0,0.3,0.2,0.5,0.5,0.5h5.1v0
	c0,0.1,0.1,0.1,0.1,0.2c0.1,0.1,0.1,0.1,0,0.2c-0.3,0.6-0.3,1.2,0,1.8c0.4,0.6,0.9,1.1,1.4,1.4c0.9,0.6,1.8,1,2.6,1.3
	c0.1,0,0.1,0.1,0.1,0.1c0.3,0.3,0.9,1,1.2,1.4c0.1,0.1,0.2,0.2,0.4,0.2c0.1,0,0.2,0,0.3-0.1c0.2-0.2,0.2-0.5,0.1-0.7
	c-0.3-0.4-0.8-1-1.2-1.4c-0.1-0.1-0.3-0.2-0.5-0.3c-0.7-0.3-1.6-0.7-2.4-1.3c-0.4-0.3-0.9-0.6-1.1-1.1c-0.2-0.3-0.2-0.6,0-0.9
	c0.2-0.3,0.3-0.7,0-1.2c-0.6-0.8-1.1-1.7-1.7-2.5L12,17.2c-0.1-0.1-0.1-0.2-0.1-0.2c0,0,0,0,0,0c-0.1-0.3-0.1-0.6,0.2-0.8
	c0.1-0.1,0.3-0.1,0.4-0.1c0.2,0,0.3,0.1,0.4,0.3l1.7,2.4c0,0,0,0,0,0c0,0,0,0,0,0l0.9,1.3c0.1,0.1,0.2,0.2,0.4,0.2
	c0.1,0,0.2,0,0.3-0.1c0.2-0.2,0.2-0.4,0.1-0.7l-0.4-0.6c0,0,0,0,0,0c0,0,0.1,0,0.1-0.1c0.1-0.1,0.2-0.2,0.3-0.2
	c0.2-0.1,0.4-0.1,0.6,0c0.1,0,0.1,0,0.2,0.1l0.4,0.7c0.1,0.1,0.2,0.2,0.4,0.2c0.1,0,0.2,0,0.3-0.1c0.2-0.1,0.3-0.4,0.1-0.6l-0.3-0.5
	c0.3-0.3,0.5-0.4,0.8-0.4c0.1,0,0.2,0,0.3,0.1l0.4,0.6c0.1,0.1,0.2,0.2,0.4,0.2c0.1,0,0.2,0,0.3-0.1c0.2-0.1,0.3-0.4,0.1-0.6
	l-0.2-0.2c0.1-0.1,0.2-0.1,0.4-0.1c0.4-0.1,0.8,0.1,1.2,0.4c1,1,1.6,2.2,1.8,3.7l0,0.1c0,0.2,0.1,0.5,0.1,0.7c0,0.5,0.2,1,0.4,1.3
	l0,0c0.2,0.3,0.4,0.7,0.5,1c0.1,0.2,0.4,0.3,0.6,0.2C25.3,25.2,25.4,24.9,25.3,24.7z M21.4,17c-0.3-0.1-0.7-0.2-1.1-0.1
	c-0.3,0-0.5,0.2-0.7,0.3c0,0-0.1,0-0.1,0c-0.1,0-0.1,0-0.2,0c-0.1,0-0.3-0.1-0.4-0.1c-0.6-0.1-1.2,0.2-1.6,0.7c0,0,0,0,0,0
	c0,0,0,0-0.1,0c-0.4-0.2-0.9-0.1-1.3,0.1c-0.2,0.1-0.3,0.2-0.5,0.3c0,0-0.1,0-0.1,0.1c0,0,0,0,0,0l-1.6-2.4
	c-0.3-0.4-0.7-0.7-1.3-0.7c-0.8,0-1.5,0.7-1.5,1.5c0,0.3,0.1,0.6,0.2,0.8l1.6,2.4c0.3,0.5,0.7,1,1,1.4H9.6V5.2h11.8V17z"/>
</svg>
