<?xml version="1.0" encoding="utf-8"?>
<!-- Generator: Adobe Illustrator 27.2.0, SVG Export Plug-In . SVG Version: 6.00 Build 0)  -->
<svg version="1.1" id="Layer_1" xmlns="http://www.w3.org/2000/svg" xmlns:xlink="http://www.w3.org/1999/xlink" x="0px" y="0px"
	 viewBox="0 0 31 31" style="enable-background:new 0 0 31 31;" xml:space="preserve">
<style type="text/css">
	.st0{fill:#999999;}
	.st1{fill:#FFFFFF;}
</style>
<g>
	<path class="st0" d="M31,15.5C31,24,24,31,15.5,31S0,24,0,15.5C0,6.9,6.9,0,15.5,0C24,0,31,6.9,31,15.5z"/>
</g>
<path class="st1" d="M25.4,16.5l-3.3-5c-0.1-0.1-0.2-0.2-0.3-0.2h-4.2V9.7c0-0.2-0.2-0.4-0.4-0.4H6.7c-0.1,0-0.2,0-0.3,0.1
	C6.4,9.5,6.3,9.6,6.3,9.7v10c0,0.2,0.2,0.4,0.4,0.4h1.7c0,1.4,1.1,2.5,2.5,2.5s2.5-1.1,2.5-2.5h3.7h1.7c0,1.4,1.1,2.5,2.5,2.5
	c1.4,0,2.5-1.1,2.5-2.5h1.2c0.2,0,0.4-0.2,0.4-0.4v-2.9C25.5,16.7,25.5,16.6,25.4,16.5z M10.9,21.8c-0.9,0-1.7-0.7-1.7-1.7
	c0-0.9,0.7-1.7,1.7-1.7c0.9,0,1.7,0.7,1.7,1.7C12.6,21,11.8,21.8,10.9,21.8z M16.7,19.3h-3.5c-0.3-1-1.3-1.7-2.4-1.7
	c-1.1,0-2,0.7-2.4,1.7H7.2v-9.2h9.6V19.3z M23.5,15.1h-2.7v-2.9h0.8L23.5,15.1z M21.3,21.8c-0.9,0-1.7-0.7-1.7-1.7
	c0-0.9,0.7-1.7,1.7-1.7c0.9,0,1.7,0.7,1.7,1.7C23,21,22.2,21.8,21.3,21.8z M24.7,19.3h-1c-0.3-1-1.3-1.7-2.4-1.7
	c-1.1,0-2,0.7-2.4,1.7h-1.4v-7.1h2.3v3.4c0,0.2,0.2,0.4,0.4,0.4H24l0.6,0.9V19.3z"/>
</svg>
