<?xml version="1.0" encoding="utf-8"?>
<!-- Generator: Adobe Illustrator 27.2.0, SVG Export Plug-In . SVG Version: 6.00 Build 0)  -->
<svg version="1.1" id="Layer_1" xmlns="http://www.w3.org/2000/svg" xmlns:xlink="http://www.w3.org/1999/xlink" x="0px" y="0px"
	 viewBox="0 0 31 31" style="enable-background:new 0 0 31 31;" xml:space="preserve">
<style type="text/css">
	.st0{fill:#999999;}
	.st1{fill-rule:evenodd;clip-rule:evenodd;fill:#FFFFFF;}
	.st2{fill:#FFFFFF;}
</style>
<g>
	<g>
		<g>
			<path class="st0" d="M31,15.5C31,24,24,31,15.5,31S0,24,0,15.5C0,6.9,6.9,0,15.5,0S31,6.9,31,15.5z"/>
		</g>
	</g>
</g>
<g>
	<g>
		<path class="st1" d="M15.1,3c0.8-1,1.8-1,1.8-1s0.2,0.9-0.6,1.8c-0.8,1-1.7,0.8-1.7,0.8S14.4,3.9,15.1,3z"/>
		<path class="st1" d="M14.7,5.3c0.4,0,1.1-0.5,2-0.5c1.6,0,2.3,1.1,2.3,1.1s-1.2,0.6-1.2,2.2c0,1.7,1.5,2.3,1.5,2.3s-1.1,3-2.5,3
			c-0.7,0-1.2-0.5-1.9-0.5c-0.7,0-1.4,0.5-1.9,0.5c-1.3,0-3-2.9-3-5.2c0-2.3,1.4-3.5,2.8-3.5C13.6,4.8,14.3,5.3,14.7,5.3z"/>
	</g>
	<g>
		<polygon class="st2" points="20.2,19.4 20.2,15.4 16,16 16,19.4 		"/>
		<polygon class="st2" points="20.8,19.4 26.2,19.4 26.2,14.6 20.8,15.4 		"/>
		<polygon class="st2" points="20.8,20 20.8,24.1 26.2,24.8 26.2,20 		"/>
		<polygon class="st2" points="20.2,20 16,20 16,23.4 20.2,24 		"/>
	</g>
	<g>
		<path class="st2" d="M10,15.5l0.5-0.7c0,0,0-0.1,0-0.1c0,0-0.1,0-0.1,0l-0.5,0.8c-0.4-0.1-0.8-0.2-1.2-0.2c-0.4,0-0.8,0.1-1.2,0.2
			l-0.5-0.8c0,0-0.1-0.1-0.1,0c0,0-0.1,0.1,0,0.1l0.5,0.7c-0.9,0.4-1.5,1.2-1.5,2.1h5.7C11.5,16.7,10.9,15.9,10,15.5z M7.4,16.7
			c-0.2,0-0.3-0.1-0.3-0.3c0-0.2,0.1-0.3,0.3-0.3c0.2,0,0.3,0.1,0.3,0.3C7.7,16.6,7.6,16.7,7.4,16.7z M9.9,16.7
			c-0.2,0-0.3-0.1-0.3-0.3c0-0.2,0.1-0.3,0.3-0.3c0.2,0,0.3,0.1,0.3,0.3C10.2,16.6,10,16.7,9.9,16.7z"/>
		<path class="st2" d="M4.7,18c-0.3,0-0.6,0.3-0.6,0.6v2.6c0,0.3,0.3,0.6,0.6,0.6c0.3,0,0.6-0.3,0.6-0.6v-2.6
			C5.4,18.2,5.1,18,4.7,18z"/>
		<path class="st2" d="M12.5,18c-0.3,0-0.6,0.3-0.6,0.6v2.6c0,0.3,0.3,0.6,0.6,0.6c0.3,0,0.6-0.3,0.6-0.6v-2.6
			C13.1,18.2,12.9,18,12.5,18z"/>
		<path class="st2" d="M5.8,22.5c0,0.4,0.3,0.6,0.6,0.6h0.4v1.3c0,0.3,0.3,0.6,0.6,0.6c0.3,0,0.6-0.3,0.6-0.6v-1.3h1.1v1.3
			c0,0.3,0.3,0.6,0.6,0.6c0.3,0,0.6-0.3,0.6-0.6v-1.3h0.4c0.4,0,0.6-0.3,0.6-0.6V18H5.8V22.5z"/>
	</g>
</g>
</svg>
