<?xml version="1.0" encoding="utf-8"?>
<!-- Generator: Adobe Illustrator 27.2.0, SVG Export Plug-In . SVG Version: 6.00 Build 0)  -->
<svg version="1.1" id="Layer_1" xmlns="http://www.w3.org/2000/svg" xmlns:xlink="http://www.w3.org/1999/xlink" x="0px" y="0px"
	 viewBox="0 0 31 31" style="enable-background:new 0 0 31 31;" xml:space="preserve">
<style type="text/css">
	.st0{fill:#999999;}
	.st1{fill-rule:evenodd;clip-rule:evenodd;fill:#FFFFFF;}
</style>
<g>
	<path class="st0" d="M31,15.5C31,24,24,31,15.5,31S0,24,0,15.5C0,6.9,6.9,0,15.5,0C24,0,31,6.9,31,15.5z"/>
</g>
<g>
	<g>
		<path class="st1" d="M8.7,10.1h15.7V8.7C24.4,8.3,24,8,23.6,8h-4.3C19.1,8,19,8,18.8,8.1l-1.2,1.1c-0.1,0.1-0.3,0.2-0.5,0.2H5.4
			c-0.4,0-0.8,0.4-0.8,0.8V22l2.7-10.9C7.5,10.6,8.1,10.1,8.7,10.1z"/>
		<path class="st1" d="M19.4,16.9c-0.3,0-0.5,0.2-0.5,0.7c0,0.6,0.2,0.7,0.5,0.7c0.3,0,0.5-0.2,0.5-0.7
			C19.9,17.1,19.7,16.9,19.4,16.9z"/>
		<path class="st1" d="M16.6,16.9c-0.3,0-0.5,0.2-0.5,0.7c0,0.6,0.2,0.7,0.5,0.7c0.3,0,0.5-0.2,0.5-0.7
			C17.1,17.1,16.9,16.9,16.6,16.9z"/>
		<polygon class="st1" points="13.2,17.5 14,17.5 13.6,16.1 		"/>
	</g>
	<g>
		<g>
			<path class="st1" d="M27.5,11.6L27.5,11.6c0-0.1,0-0.2,0-0.2c-0.1-0.1-0.2-0.1-0.3-0.1H9.1c-0.3,0-0.6,0.2-0.7,0.5l0,0l0,0
				L5.6,23.3l0,0l0,0c0,0.1,0,0.2,0,0.2c0.1,0.1,0.1,0.1,0.3,0.1H24c0.3,0,0.6-0.2,0.7-0.5l0,0l0,0L27.5,11.6L27.5,11.6z M14.4,18.7
				L14.2,18h-1.1l-0.2,0.7h-0.7l1.1-3.2h0.8l1.1,3.2H14.4z M16.8,18.8c-0.3,0-0.5-0.1-0.6-0.3v1h-0.7v-3.1H16l0.1,0.3
				c0.2-0.2,0.4-0.3,0.7-0.3c0.6,0,1,0.4,1,1.2C17.8,18.3,17.4,18.8,16.8,18.8z M19.5,18.8c-0.2,0-0.5-0.1-0.6-0.3v1h-0.7v-3.1h0.5
				l0.1,0.3c0.1-0.2,0.4-0.3,0.7-0.3c0.6,0,1,0.4,1,1.2C20.6,18.3,20.2,18.8,19.5,18.8z"/>
		</g>
	</g>
</g>
</svg>
