<?xml version="1.0" encoding="utf-8"?>
<!-- Generator: Adobe Illustrator 27.2.0, SVG Export Plug-In . SVG Version: 6.00 Build 0)  -->
<svg version="1.1" id="Layer_1" xmlns="http://www.w3.org/2000/svg" xmlns:xlink="http://www.w3.org/1999/xlink" x="0px" y="0px"
	 viewBox="0 0 31 31" style="enable-background:new 0 0 31 31;" xml:space="preserve">
<style type="text/css">
	.st0{fill:#999999;}
	.st1{fill-rule:evenodd;clip-rule:evenodd;fill:#FFFFFF;}
</style>
<g>
	<g>
		<path class="st0" d="M31,15.5C31,24,24,31,15.5,31S0,24,0,15.5C0,6.9,6.9,0,15.5,0C24,0,31,6.9,31,15.5z"/>
	</g>
</g>
<g>
	<path class="st1" d="M9,22.4h12.2c0.5,0,0.9,0.4,0.9,0.9v3.1h-14v-3.1C8.1,22.8,8.5,22.4,9,22.4L9,22.4z M18.3,6.2h1.7l2-1.9l4,1.8
		l-0.2,0.4h-1L22.4,6l-1.3,1.2v3.5l1.3,1.2l2.6-0.6h0.9l0.2,0.4l-4,1.8l-2-1.9h-1.7c-0.3,0-0.4-0.2-0.5-0.5l-0.1-0.3h-3.9
		c0.3-0.6,0.4-1.2,0.4-1.9c0-0.7-0.2-1.3-0.4-1.9h3.9l0.1-0.3C18,6.5,18.1,6.2,18.3,6.2L18.3,6.2z M23.3,7.2v3.4h3.4V7.2H23.3
		L23.3,7.2z M9.9,8c0.5,0,0.9,0.4,0.9,0.9c0,0.5-0.4,0.9-0.9,0.9C9.4,9.8,9,9.4,9,8.9C9,8.4,9.4,8,9.9,8L9.9,8z M11.3,21.7h7.1
		l-4.9-10.4c-0.8,1.1-2.1,1.9-3.6,1.9c-0.4,0-0.8-0.1-1.2-0.2L11.3,21.7L11.3,21.7z M9.9,5.2c-2.1,0-3.7,1.7-3.7,3.7
		c0,2.1,1.7,3.7,3.7,3.7c2.1,0,3.7-1.7,3.7-3.7C13.7,6.8,12,5.2,9.9,5.2L9.9,5.2z M9.9,7c-1,0-1.9,0.8-1.9,1.9c0,1,0.8,1.9,1.9,1.9
		c1,0,1.9-0.8,1.9-1.9C11.8,7.9,11,7,9.9,7z"/>
</g>
</svg>
