<?xml version="1.0" encoding="utf-8"?>
<!-- Generator: Adobe Illustrator 27.3.1, SVG Export Plug-In . SVG Version: 6.00 Build 0)  -->
<svg version="1.1" id="Layer_1" xmlns="http://www.w3.org/2000/svg" xmlns:xlink="http://www.w3.org/1999/xlink" x="0px" y="0px"
	 viewBox="0 0 27.4 23.7" style="enable-background:new 0 0 27.4 23.7;" xml:space="preserve">
<style type="text/css">
	.st0{fill:#FFFFFF;}
	.st1{fill:#9F53A0;}
	.st2{fill:#A153A0;}
</style>
<g>
	<g>
		<polygon class="st0" points="20.1,23 26.6,11.8 20.1,0.6 7.2,0.6 0.7,11.8 7.2,23 		"/>
		<path class="st1" d="M20.5,23.7H6.8L0,11.8L6.8,0h13.7l6.8,11.8L20.5,23.7z M7.6,22.4h12.2l6.1-10.6L19.8,1.3H7.6L1.5,11.8
			L7.6,22.4z"/>
	</g>
</g>
<g>
	<path class="st2" d="M11.8,8.8c0.1,0,0.1,0.1,0.2,0.1l0,0c0.8,0.5,1.5,1.1,2,1.9h1.2c0.2,0,0.3-0.1,0.3-0.3V8.8
		c0-0.2-0.1-0.3-0.3-0.3h-3.8C11.6,8.6,11.7,8.7,11.8,8.8z"/>
	<path class="st2" d="M15.2,14.9h-0.6c-0.2,0.9-0.7,1.7-1.3,2.4h1.9c0.2,0,0.3-0.1,0.3-0.3v-1.8C15.5,15.1,15.4,14.9,15.2,14.9z"/>
	<path class="st2" d="M20.8,8.5h-4.1c-0.2,0-0.3,0.1-0.3,0.3v1.8c0,0.2,0.1,0.3,0.3,0.3h4.1c0.2,0,0.3-0.1,0.3-0.3V8.8
		C21.1,8.6,21,8.5,20.8,8.5z"/>
	<path class="st2" d="M20.8,14.9h-4.1c-0.2,0-0.3,0.1-0.3,0.3V17c0,0.2,0.1,0.3,0.3,0.3h4.1c0.2,0,0.3-0.1,0.3-0.3v-1.8
		C21.1,15.1,21,14.9,20.8,14.9z"/>
	<path class="st2" d="M20.8,11.7h-6.4c0.2,0.6,0.4,1.3,0.4,1.9c0,0.1,0,0.3,0,0.4h6c0.2,0,0.3-0.1,0.3-0.3V12
		C21.1,11.8,21,11.7,20.8,11.7z"/>
</g>
<path class="st2" d="M11.5,9.8L11.5,9.8c-0.1,0-0.1-0.1-0.2-0.1l0,0l0,0c-0.3-0.2-0.8-0.5-1.1-1.2C9.8,7.8,9.7,7,9.9,6.1
	C9.4,6.4,8.5,7,7.7,7.9c-0.8,0.8-1.4,1.6-1.8,2.5c-0.5,1.1-0.8,2.1-0.8,3.2c0,1.1,0.4,2.2,1.3,3c0.3,0.3,0.5,0.5,0.8,0.6
	c0.2,0.1,0.3-0.1,0.2-0.2C7.2,16.7,7,16.2,7,15.7c0-2.6,2.8-4.2,2.8-4.2c-0.3,1.4,0.3,1.9,0.6,2.1c0,0,0.1,0,0.1,0.1
	c0.7,0.4,1.2,1.2,1.2,2.1c0,0.5-0.2,1-0.4,1.3c-0.1,0.2,0.1,0.3,0.2,0.2c0.3-0.2,0.6-0.4,0.8-0.6c0.8-0.8,1.3-1.9,1.3-3
	C13.7,12,12.8,10.6,11.5,9.8z"/>
<g>
</g>
<g>
</g>
<g>
</g>
<g>
</g>
<g>
</g>
<g>
</g>
</svg>
