<?xml version="1.0" encoding="utf-8"?>
<!-- Generator: Adobe Illustrator 27.3.1, SVG Export Plug-In . SVG Version: 6.00 Build 0)  -->
<svg version="1.1" id="Layer_1" xmlns="http://www.w3.org/2000/svg" xmlns:xlink="http://www.w3.org/1999/xlink" x="0px" y="0px"
	 viewBox="0 0 27.4 23.7" style="enable-background:new 0 0 27.4 23.7;" xml:space="preserve">
<style type="text/css">
	.st0{fill:#FFFFFF;}
	.st1{fill:#9F53A0;}
	.st2{fill-rule:evenodd;clip-rule:evenodd;fill:#9F53A0;}
</style>
<g>
	<g>
		<polygon class="st0" points="20.1,23 26.6,11.8 20.1,0.6 7.2,0.6 0.7,11.8 7.2,23 		"/>
		<path class="st1" d="M20.5,23.7H6.8L0,11.8L6.8,0h13.7l6.8,11.8L20.5,23.7z M7.6,22.4h12.2l6.1-10.6L19.8,1.3H7.6L1.5,11.8
			L7.6,22.4z"/>
	</g>
</g>
<g>
	<path class="st2" d="M20.6,16.5h-0.1v-5c0-0.5-0.4-1-1-1h-3.3c-0.6-0.9-1.4-1.6-2.5-2c0.7-0.6,1.1-1.5,1.1-2.4
		c0-1.7-1.4-3.2-3.1-3.2c-1.8,0-3.2,1.4-3.2,3.2C8.6,7,9,7.9,9.7,8.5c-2.2,0.8-3.5,2.9-3.5,5.6v1.8h4.1v0.6h-0.1
		c-0.5,0-0.9,0.4-0.9,0.9s0.4,0.9,0.9,0.9h10.4c0.5,0,0.9-0.4,0.9-0.9S21.1,16.5,20.6,16.5z M9.3,6.1c0-1.3,1.1-2.4,2.5-2.4
		c1.3,0,2.4,1.1,2.4,2.4c0,1.3-1.1,2.4-2.4,2.4C10.4,8.5,9.3,7.4,9.3,6.1z M6.9,15.2v-1.1c0-2.5,1.4-4.5,3.6-5.1
		c0.8,0.3,1.7,0.3,2.5,0c0.9,0.2,1.7,0.7,2.4,1.5h-4c-0.5,0-1,0.4-1,1v3.7H6.9z M11,11.4c0-0.1,0.1-0.2,0.2-0.2h8.3
		c0.1,0,0.2,0.1,0.2,0.2v5H11V11.4z"/>
	<path class="st2" d="M16.5,12.9c-0.5,0-0.9,0.3-1,0.7h-2L13.1,14l0.3,0.4h0.4l0.2,0.1l0.2,0.1l0.2-0.1l0.2-0.1l0.2,0.1l0.2,0.1
		l0.2-0.1l0.2-0.1h0.4c0.2,0.4,0.6,0.7,1,0.7c0.6,0,1.1-0.5,1.1-1.1C17.6,13.4,17.1,12.9,16.5,12.9z M17,14.3
		c-0.2,0-0.3-0.1-0.3-0.3c0-0.2,0.1-0.3,0.3-0.3c0.2,0,0.3,0.1,0.3,0.3C17.3,14.1,17.2,14.3,17,14.3z"/>
</g>
<g>
</g>
<g>
</g>
<g>
</g>
<g>
</g>
<g>
</g>
<g>
</g>
</svg>
