<?xml version="1.0" encoding="utf-8"?>
<!-- Generator: Adobe Illustrator 27.3.1, SVG Export Plug-In . SVG Version: 6.00 Build 0)  -->
<svg version="1.1" id="Layer_1" xmlns="http://www.w3.org/2000/svg" xmlns:xlink="http://www.w3.org/1999/xlink" x="0px" y="0px"
	 viewBox="0 0 27.36 23.69" style="enable-background:new 0 0 27.36 23.69;" xml:space="preserve">
<style type="text/css">
	.st0{fill:#FFFFFF;}
	.st1{fill:#9F53A0;}
	.st2{fill-rule:evenodd;clip-rule:evenodd;fill:#9F53A0;}
</style>
<g>
	<g>
		<polygon class="st0" points="20.15,23.05 26.62,11.85 20.15,0.64 7.21,0.64 0.74,11.85 7.21,23.05 		"/>
		<path class="st1" d="M20.52,23.69H6.84L0,11.85L6.84,0h13.68l6.84,11.85L20.52,23.69z M7.58,22.41h12.19l6.1-10.56l-6.1-10.56
			H7.58l-6.1,10.56L7.58,22.41z"/>
	</g>
</g>
<g>
	<g>
		<g>
			<path class="st2" d="M10.36,9.97c-0.18,0-0.31-0.15-0.31-0.31c0-0.18,0.13-0.33,0.31-0.33c0.18,0,0.31,0.15,0.31,0.33
				C10.67,9.82,10.54,9.97,10.36,9.97 M10.13,7.75c0-0.13,0.1-0.25,0.23-0.25c0.13,0,0.25,0.12,0.25,0.25V8.7
				c0,0.13-0.11,0.23-0.25,0.23c-0.13,0-0.23-0.1-0.23-0.23V7.75z M12.87,10L12.87,10l-0.02-0.03V9.95l-2.18-3.7
				c-0.05-0.1-0.18-0.18-0.31-0.18c-0.15,0-0.28,0.1-0.33,0.23L7.88,9.94C7.83,10,7.8,10.09,7.8,10.17c0,0.2,0.16,0.36,0.38,0.36
				h4.36c0.21,0,0.38-0.16,0.38-0.36C12.92,10.1,12.9,10.05,12.87,10"/>
		</g>
		<g>
			<rect x="7.99" y="16.02" class="st2" width="0.81" height="1.35"/>
			<rect x="9.24" y="11.92" class="st2" width="0.81" height="5.45"/>
			<rect x="10.5" y="14.18" class="st2" width="0.81" height="3.19"/>
			<rect x="11.75" y="12.93" class="st2" width="0.81" height="4.43"/>
			
				<rect x="14.33" y="12.69" transform="matrix(-1.836970e-16 1 -1 -1.836970e-16 27.9005 -1.5741)" class="st2" width="0.81" height="0.96"/>
			
				<rect x="17.37" y="11.23" transform="matrix(-1.836970e-16 1 -1 -1.836970e-16 30.9357 -4.6093)" class="st2" width="0.81" height="3.86"/>
			
				<rect x="14.33" y="13.95" transform="matrix(-1.836970e-16 1 -1 -1.836970e-16 29.1674 -0.3072)" class="st2" width="0.81" height="0.96"/>
			
				<rect x="17.37" y="12.5" transform="matrix(-1.836970e-16 1 -1 -1.836970e-16 32.2026 -3.3424)" class="st2" width="0.81" height="3.86"/>
			
				<rect x="14.33" y="15.22" transform="matrix(-1.836970e-16 1 -1 -1.836970e-16 30.4343 0.9596)" class="st2" width="0.81" height="0.96"/>
			
				<rect x="17.37" y="13.76" transform="matrix(-1.836970e-16 1 -1 -1.836970e-16 33.4694 -2.0755)" class="st2" width="0.81" height="3.86"/>
			
				<rect x="14.33" y="16.49" transform="matrix(-1.836970e-16 1 -1 -1.836970e-16 31.7011 2.2265)" class="st2" width="0.81" height="0.96"/>
			
				<rect x="17.37" y="15.03" transform="matrix(-1.836970e-16 1 -1 -1.836970e-16 34.7363 -0.8087)" class="st2" width="0.81" height="3.86"/>
		</g>
		<path class="st1" d="M16.19,10.65c-0.09,0-0.17-0.05-0.21-0.13l-0.54-1.01l-1.16,0.86c-0.11,0.08-0.26,0.06-0.34-0.05
			c-0.08-0.11-0.06-0.26,0.05-0.34l1.39-1.03c0.06-0.04,0.13-0.06,0.2-0.04c0.07,0.02,0.13,0.06,0.16,0.12l0.42,0.77l0.98-2.8
			c0.04-0.11,0.14-0.17,0.25-0.16c0.11,0.01,0.2,0.1,0.21,0.21l0.21,1.85l0.57-0.41c0.09-0.06,0.2-0.06,0.29,0l1.03,0.77
			c0.11,0.08,0.13,0.23,0.05,0.34c-0.08,0.11-0.23,0.13-0.34,0.05L18.51,9l-0.76,0.54c-0.07,0.05-0.16,0.06-0.24,0.02
			c-0.08-0.03-0.13-0.11-0.14-0.19l-0.14-1.21l-0.81,2.32c-0.03,0.09-0.11,0.15-0.21,0.16C16.21,10.65,16.2,10.65,16.19,10.65z"/>
	</g>
</g>
<path class="st1" d="M20.02,18.92H7.35c-0.86,0-1.56-0.7-1.56-1.56V6.24c0-0.86,0.7-1.56,1.56-1.56h12.67c0.86,0,1.56,0.7,1.56,1.56
	v11.12C21.59,18.22,20.88,18.92,20.02,18.92z M7.35,5.19c-0.58,0-1.05,0.47-1.05,1.05v11.12c0,0.58,0.47,1.05,1.05,1.05h12.67
	c0.58,0,1.05-0.47,1.05-1.05V6.24c0-0.58-0.47-1.05-1.05-1.05H7.35z"/>
</svg>
