<?xml version="1.0" encoding="utf-8"?>
<!-- Generator: Adobe Illustrator 27.3.1, SVG Export Plug-In . SVG Version: 6.00 Build 0)  -->
<svg version="1.1" id="Layer_1" xmlns="http://www.w3.org/2000/svg" xmlns:xlink="http://www.w3.org/1999/xlink" x="0px" y="0px"
	 viewBox="0 0 27.36 23.69" style="enable-background:new 0 0 27.36 23.69;" xml:space="preserve">
<style type="text/css">
	.st0{fill:#FFFFFF;}
	.st1{fill:#9F53A0;}
	.st2{fill-rule:evenodd;clip-rule:evenodd;fill:#9F53A0;}
</style>
<g>
	<g>
		<polygon class="st0" points="20.15,23.05 26.62,11.85 20.15,0.64 7.21,0.64 0.74,11.85 7.21,23.05 		"/>
		<path class="st1" d="M20.52,23.69H6.84L0,11.85L6.84,0h13.68l6.84,11.85L20.52,23.69z M7.58,22.41h12.19l6.1-10.56l-6.1-10.56
			H7.58l-6.1,10.56L7.58,22.41z"/>
	</g>
</g>
<g>
	<path class="st2" d="M12,9.66C11.94,9.7,11.88,9.7,11.78,9.7v0.18h0.28v0.73h0.22V9.5h-0.2C12.06,9.58,12.04,9.62,12,9.66"/>
	<path class="st2" d="M12.69,11.79c0-0.26,0.08-0.38,0.2-0.38c0.12,0,0.18,0.12,0.18,0.38s-0.06,0.38-0.18,0.38
		C12.77,12.17,12.69,12.05,12.69,11.79 M13.21,12.19c0.06-0.1,0.1-0.24,0.1-0.4c0-0.18-0.04-0.32-0.1-0.42
		c-0.08-0.1-0.18-0.16-0.32-0.16c-0.14,0-0.24,0.06-0.32,0.16c-0.06,0.1-0.1,0.24-0.1,0.42s0.04,0.32,0.1,0.42
		c0.08,0.1,0.18,0.16,0.32,0.16C13.03,12.37,13.13,12.31,13.21,12.19"/>
	<path class="st2" d="M11.61,11.79c0-0.26,0.06-0.38,0.18-0.38c0.12,0,0.2,0.12,0.2,0.38s-0.08,0.38-0.2,0.38
		C11.68,12.17,11.61,12.05,11.61,11.79 M12.12,12.19c0.06-0.1,0.1-0.24,0.1-0.4c0-0.18-0.04-0.32-0.1-0.42
		c-0.08-0.1-0.18-0.16-0.33-0.16s-0.24,0.06-0.33,0.16c-0.06,0.1-0.1,0.24-0.1,0.42s0.04,0.32,0.1,0.42
		c0.08,0.1,0.18,0.16,0.33,0.16S12.04,12.31,12.12,12.19"/>
	<path class="st2" d="M11.96,13.09c-0.04,0.04-0.12,0.06-0.23,0.06v0.18h0.29v0.73h0.23v-1.12h-0.19
		C12.05,13.01,12,13.07,11.96,13.09"/>
	<path class="st2" d="M10.75,11.38c-0.06,0.04-0.12,0.06-0.22,0.06v0.16h0.28v0.73h0.22v-1.11h-0.2
		C10.81,11.3,10.79,11.34,10.75,11.38"/>
	<path class="st2" d="M13.11,13.9c-0.14,0-0.2-0.14-0.2-0.41c0-0.26,0.06-0.39,0.2-0.39c0.12,0,0.18,0.12,0.18,0.39
		C13.29,13.76,13.23,13.9,13.11,13.9 M13.11,12.93c-0.14,0-0.24,0.04-0.32,0.14c-0.08,0.12-0.1,0.26-0.1,0.43
		c0,0.18,0.02,0.32,0.1,0.43c0.06,0.1,0.18,0.16,0.32,0.16c0.14,0,0.24-0.06,0.32-0.16c0.06-0.1,0.1-0.24,0.1-0.43
		c0-0.16-0.04-0.3-0.12-0.41C13.35,12.97,13.23,12.93,13.11,12.93"/>
	<path class="st2" d="M13.13,10.45c-0.12,0-0.18-0.14-0.18-0.38c0-0.26,0.06-0.4,0.18-0.4c0.12,0,0.2,0.14,0.2,0.4
		C13.34,10.31,13.25,10.45,13.13,10.45 M13.13,9.48c-0.14,0-0.24,0.04-0.32,0.16c-0.06,0.1-0.1,0.24-0.1,0.42
		c0,0.16,0.04,0.3,0.1,0.4c0.08,0.1,0.18,0.16,0.32,0.16c0.14,0,0.24-0.06,0.32-0.16c0.06-0.1,0.1-0.24,0.1-0.4
		c0-0.18-0.04-0.32-0.1-0.42C13.38,9.54,13.27,9.48,13.13,9.48"/>
	<path class="st2" d="M13.84,12.33h0.22v-1.11h-0.18c-0.02,0.08-0.06,0.12-0.1,0.16c-0.04,0.04-0.12,0.06-0.22,0.06v0.16h0.28V12.33
		z"/>
	<path class="st2" d="M15.03,11.78c0,0.26-0.06,0.38-0.2,0.38c-0.12,0-0.18-0.12-0.18-0.38c0-0.26,0.06-0.38,0.18-0.38
		C14.97,11.4,15.03,11.52,15.03,11.78 M13.36,14.28c-0.12,0.06-0.24,0.08-0.38,0.12c-0.08,0.02-0.16,0.02-0.26,0.04
		c-0.08,0-0.18,0.02-0.26,0.02c-0.1,0-0.18-0.02-0.28-0.02c-0.08-0.02-0.18-0.02-0.26-0.04c-0.12-0.04-0.26-0.06-0.38-0.12
		c-0.08-0.02-0.16-0.06-0.22-0.1c-0.08-0.02-0.16-0.06-0.22-0.1c0.1-0.02,0.18-0.08,0.24-0.16c0.08-0.1,0.1-0.24,0.1-0.42
		c0-0.16-0.02-0.3-0.1-0.4c-0.08-0.12-0.18-0.16-0.32-0.16s-0.24,0.04-0.3,0.14c-0.08,0.12-0.12,0.26-0.12,0.42
		c0,0.08,0.02,0.14,0.02,0.2l-0.04-0.04l0.02,0.02l-0.04-0.04l0.02,0.02c-0.02-0.02-0.04-0.06-0.08-0.08
		c-0.08-0.1-0.16-0.2-0.22-0.3c-0.04-0.04-0.08-0.1-0.1-0.14c-0.02-0.04-0.1-0.18-0.1-0.18c-0.06-0.16-0.14-0.32-0.18-0.5
		c0-0.02,0-0.06-0.02-0.1c0,0.02,0,0.02,0.02,0.02c0.14,0,0.24-0.06,0.32-0.18c0.06-0.1,0.1-0.24,0.1-0.4
		c0-0.18-0.04-0.32-0.12-0.42c-0.06-0.1-0.18-0.16-0.3-0.16H9.84c0.02-0.06,0.04-0.14,0.06-0.22c0.04-0.12,0.08-0.24,0.14-0.36
		c0.02-0.02,0.06-0.1,0.06-0.1c0.04-0.08,0.08-0.16,0.14-0.22c0.1-0.18,0.24-0.32,0.38-0.46c-0.02,0.06-0.02,0.14-0.02,0.24
		c0,0.16,0.04,0.3,0.1,0.4c0.08,0.1,0.18,0.16,0.32,0.16c0.14,0,0.24-0.06,0.32-0.16c0.06-0.1,0.1-0.24,0.1-0.4
		c0-0.18-0.04-0.32-0.1-0.42c-0.08-0.1-0.16-0.14-0.28-0.16c0.4-0.24,0.87-0.38,1.37-0.38c0.61,0,1.17,0.22,1.63,0.56
		c-0.06,0.04-0.12,0.04-0.2,0.04v0.18h0.28v0.73h0.22V9.97c0.1,0.1,0.18,0.2,0.26,0.32c0.04,0.06,0.08,0.14,0.12,0.22
		c0.1,0.14,0.16,0.3,0.2,0.46c0.04,0.08,0.06,0.16,0.06,0.24c0,0,0.02,0.02,0.02,0.04c-0.06-0.04-0.14-0.06-0.22-0.06
		c-0.14,0-0.24,0.06-0.3,0.16c-0.08,0.1-0.12,0.24-0.12,0.42c0,0.18,0.04,0.32,0.1,0.42c0.08,0.1,0.18,0.16,0.32,0.16
		c0.08,0,0.16-0.02,0.22-0.06c0,0,0,0.02-0.02,0.02c0,0.04,0,0.08-0.02,0.12c-0.08,0.3-0.2,0.56-0.36,0.83
		c-0.02-0.08-0.04-0.14-0.08-0.18c-0.08-0.12-0.18-0.16-0.32-0.16s-0.24,0.04-0.3,0.14c-0.08,0.12-0.12,0.26-0.12,0.42
		c0,0.18,0.04,0.32,0.1,0.42c0.02,0.02,0.04,0.04,0.04,0.04c-0.1,0.1-0.24,0.16-0.36,0.22C13.52,14.22,13.44,14.26,13.36,14.28
		 M10.81,13.5c0-0.26,0.06-0.38,0.18-0.38c0.14,0,0.2,0.12,0.2,0.38c0,0.26-0.06,0.4-0.2,0.4C10.87,13.9,10.81,13.76,10.81,13.5
		 M6.92,12.81c-0.06-0.02-0.24-0.38-0.24-1.03c0-0.67,0.18-1.03,0.24-1.05c0.08,0.02,0.26,0.38,0.26,1.05
		C7.18,12.43,7,12.79,6.92,12.81 M9.78,11.78c0-0.14,0.02-0.26,0.02-0.38h0.06c0.12,0,0.18,0.12,0.18,0.38
		c0,0.26-0.06,0.38-0.18,0.38H9.8C9.8,12.04,9.78,11.9,9.78,11.78 M11.03,9.67c0.12,0,0.18,0.14,0.18,0.4
		c0,0.24-0.06,0.38-0.18,0.38c-0.14,0-0.2-0.14-0.2-0.38C10.83,9.81,10.89,9.67,11.03,9.67 M14.06,13.5c0-0.26,0.06-0.38,0.18-0.38
		c0.14,0,0.2,0.12,0.2,0.38v0.04c-0.02,0.02-0.02,0.02-0.04,0.04c-0.02,0.04-0.06,0.06-0.08,0.1c-0.06,0.06-0.12,0.1-0.18,0.16
		C14.08,13.78,14.06,13.68,14.06,13.5 M6.92,16.7c-0.06-0.02-0.24-0.38-0.24-1.05c0-0.65,0.18-1.01,0.24-1.03
		c0.08,0.02,0.26,0.38,0.26,1.03C7.18,16.32,7,16.68,6.92,16.7 M6.92,8.92C6.86,8.9,6.68,8.54,6.68,7.87c0-0.65,0.18-1.01,0.24-1.03
		C7,6.86,7.18,7.23,7.18,7.87C7.18,8.54,7,8.9,6.92,8.92 M21,9.34h-6.7c-0.46-0.36-1.03-0.58-1.65-0.65l-2.04-2.12H6.92
		c-0.34,0-0.5,0.69-0.5,1.29c0,0.62,0.16,1.31,0.5,1.31h2.85l0.46,0.48c-0.24,0.24-0.42,0.52-0.56,0.81H6.92
		c-0.34,0-0.5,0.69-0.5,1.31c0,0.62,0.16,1.29,0.5,1.29h2.74c0.14,0.3,0.32,0.58,0.54,0.81l-0.44,0.48H6.92
		c-0.34,0-0.5,0.67-0.5,1.29c0,0.62,0.16,1.31,0.5,1.31h3.69l2.02-2.12c0.63-0.04,1.21-0.26,1.69-0.65H21
		c0.67,0,0.95-1.25,0.95-2.42C21.95,10.59,21.67,9.34,21,9.34"/>
</g>
</svg>
