<?xml version="1.0" encoding="utf-8"?>
<!-- Generator: Adobe Illustrator 27.3.1, SVG Export Plug-In . SVG Version: 6.00 Build 0)  -->
<svg version="1.1" id="Layer_1" xmlns="http://www.w3.org/2000/svg" xmlns:xlink="http://www.w3.org/1999/xlink" x="0px" y="0px"
	 viewBox="0 0 27.36 23.69" style="enable-background:new 0 0 27.36 23.69;" xml:space="preserve">
<style type="text/css">
	.st0{fill:#FFFFFF;}
	.st1{fill:#9F53A0;}
	.st2{fill:#A153A0;}
</style>
<g>
	<g>
		<polygon class="st0" points="20.15,23.05 26.62,11.85 20.15,0.64 7.21,0.64 0.74,11.85 7.21,23.05 		"/>
		<path class="st1" d="M20.52,23.69H6.84L0,11.85L6.84,0h13.68l6.84,11.85L20.52,23.69z M7.58,22.41h12.19l6.1-10.56l-6.1-10.56
			H7.58l-6.1,10.56L7.58,22.41z"/>
	</g>
</g>
<path class="st2" d="M13.55,12.94l0.21-0.09l0.21-0.53v-0.12c0,0,0.18-0.12,0.26-0.03l0.09,0.09c0.53,0.44,1.29,0.59,1.97,0.3
	c0.97-0.41,1.44-1.54,1.03-2.52C16.86,9.06,15.75,8.58,14.78,9c-0.68,0.3-1.12,0.95-1.17,1.66c0.03,0.27-0.35,0.44-0.35,0.44
	l-2.85,1.21c0,0-0.23,0.09-0.29,0.27c-0.06,0.18-0.29,0.68-0.29,0.68s-0.06,0.33,0.32,0.41l0.65,0.24l0.23-0.09l0.12-0.3l0.18-0.09
	l0.26,0.12l0.26-0.12l0.09-0.24l0.32-0.12l0.26,0.09l0.12-0.06l0.18-0.39l0.56-0.24L13.55,12.94z M16.01,10.03
	c0.23-0.09,0.5,0,0.59,0.24c0.09,0.24,0,0.5-0.23,0.59c-0.23,0.12-0.5,0-0.59-0.24C15.66,10.39,15.78,10.12,16.01,10.03z"/>
<path class="st2" d="M13.72,2.36c-5.2,0-9.45,4.29-9.45,9.54c0,5.27,4.26,9.57,9.45,9.57c5.23,0,9.48-4.29,9.48-9.57
	C23.2,6.66,18.95,2.36,13.72,2.36z M22.35,11.45c-0.03,0.03-0.06,0.06-0.12,0.09c-0.82-1.1-1.67-1.95-2.55-2.7
	c0.38-1.1,0.56-2.01,0.65-2.58C21.5,7.69,22.27,9.5,22.35,11.45z M21.53,13.11c0.06,0.06,0.06,0.18,0,0.24
	c-0.06,0.06-0.18,0.06-0.23,0c-0.41-0.41-0.47-0.47-0.47-0.47c-0.41,0.41-0.47,0.47-0.47,0.47c-0.06,0.06-0.18,0.06-0.23,0
	c-0.06-0.06-0.06-0.18,0-0.24c0.41-0.41,0.47-0.47,0.47-0.47c-0.41-0.41-0.47-0.47-0.47-0.47c-0.06-0.06-0.06-0.18,0-0.24
	c0.06-0.06,0.18-0.06,0.23,0c0.41,0.41,0.47,0.47,0.47,0.47l0.47-0.47c0.06-0.06,0.18-0.06,0.23,0c0.06,0.06,0.06,0.18,0,0.24
	c-0.41,0.41-0.47,0.47-0.47,0.47C21.47,13.05,21.53,13.11,21.53,13.11z M20.83,11.13c-0.82,0-1.5,0.68-1.5,1.51
	c0,0.24,0.06,0.47,0.18,0.68c-0.85,0.65-1.79,1.45-2.7,2.46c-0.23-0.12-0.47-0.21-0.76-0.21c-0.65,0-1.2,0.41-1.38,1.01
	c-0.41-0.03-0.7-0.09-0.97-0.15V16.4v-0.09c0.03-0.06,0.09-0.12,0.12-0.21c2.23-1.24,3.67-2.93,4.58-4.44
	c0.53-0.89,0.94-1.78,1.2-2.58c0.85,0.71,1.67,1.54,2.44,2.58c-0.03,0-0.03,0-0.06,0.03C21.71,11.34,21.3,11.13,20.83,11.13z
	 M16.86,16.67l-0.85,1.16c-0.03,0.03-0.09,0.06-0.12,0.06h-0.03c-0.03,0-0.09-0.03-0.12-0.06l-0.62-0.59
	c-0.06-0.06-0.06-0.18,0-0.24c0.06-0.06,0.18-0.06,0.23,0l0.47,0.47l0.76-1.01c0.06-0.09,0.18-0.09,0.23-0.03
	C16.92,16.49,16.92,16.58,16.86,16.67z M13.25,15.33c-0.26-0.27-0.62-0.41-1.03-0.41c-0.5,0-0.94,0.24-1.2,0.59
	c-1-0.47-1.85-1.07-2.58-1.66c0.12-0.21,0.18-0.47,0.18-0.74c0-0.59-0.35-1.1-0.85-1.33c0.5-1.6,1.17-2.96,1.88-4.06
	c0.18,0.06,0.38,0.12,0.59,0.12c0.18,0,0.35-0.06,0.53-0.12c0.56,0.86,1.12,1.9,1.59,3.17l0.21-0.09c-0.47-1.33-1.03-2.37-1.56-3.2
	c0.41-0.24,0.7-0.74,0.7-1.27V6.18c0.12,0,0.21,0.03,0.29,0.03c1.15,0.03,2.41,0.24,3.76,0.71c0.12,0.59,0.53,1.04,1.09,1.18
	c-0.03,0.18-0.06,0.36-0.09,0.53c0.06,0.03,0.15,0.09,0.21,0.15c0.03-0.21,0.09-0.41,0.12-0.62h0.15c0.29,0,0.56-0.09,0.76-0.21
	c0.47,0.3,0.97,0.62,1.44,0.98c-0.29,0.8-0.68,1.72-1.23,2.61c-0.85,1.39-2.14,2.93-4.11,4.15c0.09-0.15,0.18-0.27,0.26-0.41
	c0.35-0.62,0.7-1.3,1.06-2.04c-0.09,0-0.18,0-0.26-0.03c-0.32,0.71-0.68,1.36-1,1.95c-0.18,0.27-0.32,0.53-0.5,0.77v0.03
	c-0.03-0.09-0.06-0.18-0.12-0.27c-0.03-0.74-0.12-1.42-0.23-2.07l-0.15-0.3l-0.09,0.21h-0.03C13.13,14.12,13.22,14.71,13.25,15.33z
	 M12.93,16.87c0.06,0.06,0.06,0.18,0,0.24c-0.09,0.06-0.18,0.06-0.23,0c-0.41-0.41-0.47-0.47-0.47-0.47
	c-0.41,0.41-0.47,0.47-0.47,0.47c-0.09,0.06-0.18,0.06-0.23,0c-0.06-0.06-0.06-0.18,0-0.24c0.41-0.41,0.47-0.47,0.47-0.47
	c-0.41-0.41-0.47-0.47-0.47-0.47c-0.06-0.06-0.06-0.18,0-0.24c0.06-0.06,0.15-0.06,0.23,0c0.41,0.41,0.47,0.47,0.47,0.47l0.47-0.47
	c0.06-0.06,0.15-0.06,0.23,0c0.06,0.09,0.06,0.18,0,0.24c-0.41,0.41-0.47,0.47-0.47,0.47C12.87,16.81,12.93,16.87,12.93,16.87z
	 M9.32,6.48C9.23,6.42,9.23,6.33,9.29,6.24c0.06-0.06,0.18-0.06,0.23,0l0.5,0.47l0.73-1.01c0.06-0.06,0.18-0.09,0.23-0.03
	c0.09,0.06,0.09,0.15,0.06,0.24l-0.88,1.16c-0.03,0.03-0.06,0.06-0.12,0.06c-0.06,0-0.09,0-0.12-0.03L9.32,6.48z M20.12,6.03
	c-0.06,0.47-0.21,1.45-0.62,2.67c-0.44-0.33-0.88-0.62-1.32-0.89c0.32-0.27,0.53-0.68,0.53-1.13c0-0.77-0.59-1.42-1.32-1.51
	c0-0.39,0-0.77-0.03-1.18C18.42,4.49,19.36,5.2,20.12,6.03z M17.69,5.97c0.06-0.06,0.18-0.06,0.23,0c0.06,0.06,0.06,0.18,0,0.24
	c-0.41,0.41-0.47,0.47-0.47,0.47c0.41,0.41,0.47,0.47,0.47,0.47c0.06,0.06,0.06,0.15,0,0.21c-0.06,0.09-0.18,0.09-0.23,0
	c-0.41-0.41-0.47-0.47-0.47-0.47c-0.41,0.41-0.47,0.47-0.47,0.47c-0.06,0.09-0.15,0.09-0.23,0c-0.06-0.06-0.06-0.15,0-0.21
	c0.41-0.41,0.47-0.47,0.47-0.47c-0.41-0.41-0.47-0.5-0.47-0.5c-0.06-0.06-0.06-0.15,0-0.21c0.09-0.09,0.18-0.09,0.23,0
	c0.41,0.41,0.47,0.47,0.47,0.47L17.69,5.97z M13.9,3.19c1.15,0.03,2.23,0.27,3.23,0.71c0.03,0.41,0.03,0.86,0.03,1.27
	c-0.79,0.03-1.41,0.68-1.41,1.48C14.4,6.21,13.13,6,12.02,5.97c-0.12-0.03-0.23-0.03-0.35-0.03c-0.06-0.18-0.15-0.36-0.26-0.53
	C12.43,4.29,13.37,3.58,13.9,3.19z M13.49,3.19c-0.56,0.41-1.38,1.1-2.26,2.04c-0.26-0.24-0.62-0.41-1-0.41
	c-0.47,0-0.85,0.21-1.15,0.53C8.88,5.18,8.7,5.03,8.58,4.91C9.96,3.87,11.64,3.25,13.49,3.19z M8.38,5.06
	C8.5,5.18,8.7,5.32,8.94,5.56C8.85,5.74,8.76,5.95,8.73,6.18c-0.76,0.15-1.41,0.3-1.88,0.44C7.29,6.03,7.82,5.53,8.38,5.06z
	 M6.62,6.95C7.09,6.8,7.82,6.6,8.73,6.42c0.03,0.5,0.32,0.92,0.7,1.18c-0.7,1.1-1.38,2.46-1.88,4.09c-0.15-0.03-0.29-0.06-0.44-0.06
	c-0.26,0-0.5,0.06-0.7,0.18c-0.56-0.65-0.94-1.24-1.15-1.6C5.5,9.03,5.97,7.93,6.62,6.95z M6.79,17.11c-1.06-1.45-1.7-3.26-1.7-5.21
	c0-0.44,0.03-0.89,0.09-1.33c0.23,0.36,0.59,0.83,1.03,1.39c-0.35,0.27-0.56,0.68-0.56,1.16c0,0.77,0.56,1.39,1.29,1.48
	C6.85,15.39,6.79,16.22,6.79,17.11z M6.94,13.91c-0.03,0-0.09,0-0.12-0.03L6.2,13.29c-0.06-0.06-0.06-0.18,0-0.24
	c0.06-0.09,0.18-0.09,0.23-0.03l0.47,0.47l0.76-1.01c0.06-0.06,0.18-0.09,0.23-0.03C8,12.52,8,12.64,7.94,12.7l-0.85,1.16
	C7.06,13.88,7,13.91,6.97,13.91H6.94z M7.03,17.44C7,16.43,7.06,15.51,7.17,14.62c0.47-0.03,0.85-0.24,1.12-0.59
	c0.76,0.62,1.61,1.21,2.61,1.69c-0.12,0.21-0.18,0.44-0.18,0.68c0,0.27,0.06,0.47,0.18,0.68c-1.06,0.33-2.26,0.56-3.58,0.65
	C7.23,17.64,7.12,17.53,7.03,17.44z M7.53,17.97c1.29-0.12,2.47-0.36,3.49-0.68c0.26,0.39,0.7,0.62,1.2,0.62h0.09
	c-0.79,1.07-1.44,1.81-1.73,2.13C9.41,19.57,8.38,18.86,7.53,17.97z M13.63,20.64c-0.97-0.03-1.94-0.21-2.82-0.5
	c0.35-0.39,1.03-1.18,1.85-2.31c0.53-0.15,0.91-0.59,1.03-1.16c0.23,0.06,0.53,0.12,0.91,0.15c-0.03,0.09-0.03,0.18-0.03,0.27
	c0,0.39,0.15,0.77,0.41,1.04C14.48,18.89,14.01,19.72,13.63,20.64z M13.9,20.64c0.35-0.86,0.79-1.66,1.26-2.37
	c0.23,0.18,0.56,0.3,0.88,0.3c0.82,0,1.5-0.65,1.5-1.48V16.9c1.15-0.06,2.44-0.3,3.76-0.77C19.86,18.77,17.07,20.58,13.9,20.64z
	 M17.48,16.67c-0.09-0.3-0.26-0.56-0.5-0.77c0.88-0.95,1.82-1.75,2.64-2.37c0.26,0.36,0.7,0.59,1.2,0.59c0.82,0,1.47-0.65,1.47-1.48
	c0-0.27-0.06-0.53-0.21-0.77c0.03,0,0.06-0.03,0.09-0.03c0.06,0.09,0.12,0.18,0.21,0.3c-0.06,1.3-0.38,2.55-0.91,3.67
	C20.06,16.37,18.68,16.61,17.48,16.67z"/>
</svg>
