<?xml version="1.0" encoding="utf-8"?>
<!-- Generator: Adobe Illustrator 27.3.1, SVG Export Plug-In . SVG Version: 6.00 Build 0)  -->
<svg version="1.1" id="Layer_1" xmlns="http://www.w3.org/2000/svg" xmlns:xlink="http://www.w3.org/1999/xlink" x="0px" y="0px"
	 viewBox="0 0 27.4 23.7" style="enable-background:new 0 0 27.4 23.7;" xml:space="preserve">
<style type="text/css">
	.st0{fill:#FFFFFF;}
	.st1{fill:#9F53A0;}
</style>
<g>
	<g>
		<polygon class="st0" points="20.1,23 26.6,11.8 20.1,0.6 7.2,0.6 0.7,11.8 7.2,23 		"/>
		<path class="st1" d="M20.5,23.7H6.8L0,11.8L6.8,0h13.7l6.8,11.8L20.5,23.7z M7.6,22.4h12.2l6.1-10.6L19.8,1.3H7.6L1.5,11.8
			L7.6,22.4z"/>
	</g>
</g>
<g>
	<path class="st1" d="M18.7,15.5c2.1,0,3.2-0.7,3.2-2.2c0-1.6-0.8-2.1-1.7-2.4c0.1-0.9-0.7-1.3-1.3-1.3c0.9-5.2-6.9-5.7-7.5-2
		c-2.1-1.1-3.7,0.7-3.5,2c-4.1,0-3.7,5.9-0.2,5.9c1.3,0,4.9,0,4.9,0s0.4,0,0.9,0v0.8c-0.2,0.1-0.3,0.2-0.4,0.4H9.7
		c-0.1-0.3-0.4-0.5-0.7-0.5c-0.4,0-0.7,0.3-0.7,0.7c0,0.4,0.3,0.7,0.7,0.7c0.3,0,0.6-0.2,0.7-0.5H13c0.1,0.3,0.4,0.5,0.7,0.5
		c0.3,0,0.6-0.2,0.7-0.5h3.4c0.1,0.3,0.4,0.5,0.7,0.5c0.4,0,0.7-0.3,0.7-0.7c0-0.4-0.3-0.7-0.7-0.7c-0.3,0-0.6,0.2-0.7,0.5h-3.4
		c-0.1-0.2-0.2-0.3-0.4-0.4v-0.8C15.3,15.5,17.4,15.5,18.7,15.5z M13.7,14.8l-0.3-0.1c-0.8-0.3-1.4-0.8-1.9-1.5
		c-0.5-0.7-0.8-1.5-0.8-2.4V8.6l2.9-0.7l2.9,0.7v2.2c0,0.9-0.3,1.7-0.7,2.4c-0.5,0.7-1.1,1.2-1.9,1.5L13.7,14.8z"/>
	<path class="st1" d="M15.1,8.9v0.3L14.2,9V8.7l-0.5-0.1l-0.5,0.1V9l-0.9,0.2V8.9l-0.8,0.2v1.6c0,1.5,0.9,2.8,2.2,3.3
		c1.3-0.5,2.2-1.8,2.2-3.3V9.1L15.1,8.9z M12.1,10.7V9.9l1.6-0.4c0.6,0.1,1,0.2,1.2,0.3l-2.4,2.4c-0.2-0.3-0.3-0.6-0.4-0.9
		C12.1,11.1,12.1,10.9,12.1,10.7z M15.3,11.3c-0.2,0.9-0.8,1.6-1.5,2c-0.3-0.2-0.6-0.4-0.8-0.6l2.5-2.5v0.5
		C15.3,10.9,15.3,11.1,15.3,11.3z"/>
</g>
<g>
</g>
<g>
</g>
<g>
</g>
<g>
</g>
<g>
</g>
<g>
</g>
</svg>
