<?xml version="1.0" encoding="utf-8"?>
<!-- Generator: Adobe Illustrator 27.3.1, SVG Export Plug-In . SVG Version: 6.00 Build 0)  -->
<svg version="1.1" id="Layer_1" xmlns="http://www.w3.org/2000/svg" xmlns:xlink="http://www.w3.org/1999/xlink" x="0px" y="0px"
	 viewBox="0 0 27.36 23.69" style="enable-background:new 0 0 27.36 23.69;" xml:space="preserve">
<style type="text/css">
	.st0{fill:#FFFFFF;}
	.st1{fill:#9F53A0;}
</style>
<g>
	<g>
		<polygon class="st0" points="20.15,23.05 26.62,11.85 20.15,0.64 7.21,0.64 0.74,11.85 7.21,23.05 		"/>
		<path class="st1" d="M20.52,23.69H6.84L0,11.85L6.84,0h13.68l6.84,11.85L20.52,23.69z M7.58,22.41h12.19l6.1-10.56l-6.1-10.56
			H7.58l-6.1,10.56L7.58,22.41z"/>
	</g>
</g>
<g>
	<path class="st1" d="M13.73,12.74c0.81,0,1.49-0.66,1.49-1.48c0-0.93-0.85-1.65-1.79-1.46c-0.59,0.12-1.07,0.62-1.16,1.21
		C12.12,11.94,12.82,12.74,13.73,12.74z"/>
	<path class="st1" d="M19.69,5.75H7.66c-0.4,0-0.73,0.33-0.73,0.73v10.01c0,0.4,0.33,0.73,0.73,0.73h12.03
		c0.4,0,0.73-0.33,0.73-0.73V6.48C20.42,6.08,20.09,5.75,19.69,5.75z M11.73,6.59c0.3,0,0.54,0.24,0.54,0.54s-0.24,0.54-0.54,0.54
		s-0.54-0.24-0.54-0.54S11.43,6.59,11.73,6.59z M10.02,6.59c0.3,0,0.54,0.24,0.54,0.54s-0.24,0.54-0.54,0.54S9.48,7.43,9.48,7.13
		S9.72,6.59,10.02,6.59z M8.31,6.59c0.3,0,0.54,0.24,0.54,0.54S8.6,7.67,8.31,7.67c-0.3,0-0.54-0.24-0.54-0.54S8.01,6.59,8.31,6.59z
		 M11.54,16.22h-0.61l0.1-0.28c0.04-0.1,0.14-0.17,0.25-0.17c0.15,0,0.26,0.12,0.26,0.26V16.22z M15.81,16.22v-0.19
		c0-0.15,0.12-0.26,0.26-0.26c0.11,0,0.21,0.07,0.25,0.17l0.1,0.28H15.81z M19.6,15.73c0,0.27-0.22,0.49-0.49,0.49h-1.08l-0.76-2.1
		c-0.19-0.53-0.7-0.89-1.26-0.89h-4.68c-0.57,0-1.07,0.35-1.26,0.89l-0.76,2.1H8.28c-0.27,0-0.49-0.22-0.49-0.49V9.14
		c0-0.27,0.22-0.49,0.49-0.49h10.84c0.27,0,0.49,0.22,0.49,0.49V15.73z"/>
</g>
</svg>
