<?xml version="1.0" encoding="utf-8"?>
<!-- Generator: Adobe Illustrator 27.3.1, SVG Export Plug-In . SVG Version: 6.00 Build 0)  -->
<svg version="1.1" id="Layer_1" xmlns="http://www.w3.org/2000/svg" xmlns:xlink="http://www.w3.org/1999/xlink" x="0px" y="0px"
	 viewBox="0 0 27.36 23.69" style="enable-background:new 0 0 27.36 23.69;" xml:space="preserve">
<style type="text/css">
	.st0{fill:#FFFFFF;}
	.st1{fill:#9F53A0;}
</style>
<g>
	<g>
		<polygon class="st0" points="20.15,23.05 26.62,11.85 20.15,0.64 7.21,0.64 0.74,11.85 7.21,23.05 		"/>
		<path class="st1" d="M20.52,23.69H6.84L0,11.85L6.84,0h13.68l6.84,11.85L20.52,23.69z M7.58,22.41h12.19l6.1-10.56l-6.1-10.56
			H7.58l-6.1,10.56L7.58,22.41z"/>
	</g>
</g>
<g>
	<path class="st1" d="M9.42,9.29c0.85,0,1.53-0.69,1.53-1.53c0-0.85-0.68-1.53-1.53-1.53c-0.85,0-1.53,0.69-1.53,1.53
		C7.89,8.6,8.58,9.29,9.42,9.29z"/>
	<path class="st1" d="M11.08,17.13l0.19-4.81l0.26,0l0,4.14c0,0.41,0.33,0.74,0.74,0.74c0.41,0,0.74-0.33,0.74-0.74l0-5.09
		c0-0.84-0.68-1.52-1.52-1.52H7.35c-0.84,0-1.52,0.68-1.52,1.52l0,5.09c0,0.41,0.33,0.74,0.74,0.74c0.41,0,0.74-0.33,0.74-0.74
		l0-4.14l0.26,0l0.19,4.81H11.08z"/>
</g>
<g>
	<path class="st1" d="M17.96,9.29c0.85,0,1.53-0.69,1.53-1.53c0-0.85-0.68-1.53-1.53-1.53c-0.85,0-1.53,0.69-1.53,1.53
		C16.43,8.6,17.11,9.29,17.96,9.29z"/>
	<path class="st1" d="M13.72,7.43c0.85,0,1.53-0.69,1.53-1.53c0-0.85-0.68-1.53-1.53-1.53c-0.85,0-1.53,0.69-1.53,1.53
		C12.19,6.75,12.87,7.43,13.72,7.43z"/>
	<path class="st1" d="M19.62,17.13l0.19-4.81l0.26,0l0,4.14c0,0.41,0.33,0.74,0.74,0.74c0.41,0,0.74-0.33,0.74-0.74l0-5.09
		c0-0.84-0.68-1.52-1.52-1.52h-4.14c-0.84,0-1.52,0.68-1.52,1.52l0,5.09c0,0.41,0.33,0.74,0.74,0.74c0.41,0,0.74-0.33,0.74-0.74
		l0-4.14l0.26,0l0.19,4.81H19.62z"/>
</g>
</svg>
