<?xml version="1.0" encoding="utf-8"?>
<!-- Generator: Adobe Illustrator 27.3.1, SVG Export Plug-In . SVG Version: 6.00 Build 0)  -->
<svg version="1.1" id="Layer_1" xmlns="http://www.w3.org/2000/svg" xmlns:xlink="http://www.w3.org/1999/xlink" x="0px" y="0px"
	 viewBox="0 0 27.36 23.69" style="enable-background:new 0 0 27.36 23.69;" xml:space="preserve">
<style type="text/css">
	.st0{fill:#FFFFFF;}
	.st1{fill:#9F53A0;}
	.st2{fill-rule:evenodd;clip-rule:evenodd;fill:#9F53A0;}
</style>
<g>
	<g>
		<polygon class="st0" points="20.15,23.05 26.62,11.85 20.15,0.64 7.21,0.64 0.74,11.85 7.21,23.05 		"/>
		<path class="st1" d="M20.52,23.69H6.84L0,11.85L6.84,0h13.68l6.84,11.85L20.52,23.69z M7.58,22.41h12.19l6.1-10.56l-6.1-10.56
			H7.58l-6.1,10.56L7.58,22.41z"/>
	</g>
</g>
<g>
	<path class="st2" d="M13.22,3.28h0.46c0.49,0.38-0.65,0.62-0.82,0.27C12.86,3.33,13.11,3.37,13.22,3.28"/>
	<path class="st2" d="M15.18,3.92c-0.3,0-0.53-0.09-0.76,0.05c0.43,0.28,1.08,0.3,1.6,0.5c0.47,0.18,1.07,0.36,1.11,0.96
		c-0.47-0.11-0.88-0.41-1.38-0.59c-0.77-0.28-1.48-0.21-2.53-0.32c-0.29-0.03-0.56-0.18-0.84-0.18C11.85,4.35,11.45,4.82,11,4.56
		c0.19-0.95,1.58-0.55,2.49-0.68C14.06,3.8,14.99,3.07,15.18,3.92"/>
	<path class="st2" d="M16.38,4.36c-0.31,0.1-0.7-0.11-0.9-0.27C15.57,3.63,16.44,3.94,16.38,4.36"/>
	<path class="st2" d="M18.94,9.38c-0.35-0.33-0.46-0.72-0.72-1.11C18,7.92,17.57,7.65,17.42,7.29c-0.08-0.2-0.03-0.49-0.13-0.71
		C17,5.9,15.49,5.32,14.42,5.24c-0.87-0.07-1.44-0.07-2.19-0.22c0.29,0.53,1.28,0.39,2.06,0.45c1.25,0.09,2.61,0.55,2.77,1.51
		c-0.91-0.39-1.68-1.02-2.86-1.11c-0.38-0.03-0.81,0.04-1.21,0c-0.34-0.04-0.65-0.29-0.98-0.31c-1.23-0.09-1.82,1.4-3,1.38
		C8.93,6.4,9.63,6.24,10.04,6c0.48-0.29,1.12-0.86,1.7-1.2c0.46-0.27,0.97-0.09,1.52,0c0.43,0.07,0.86,0.01,1.3,0.04
		c1,0.07,2.61,0.66,3.09,1.34c0.19,0.28,0.16,0.6,0.27,0.89C18,7.29,18.23,7.38,18.41,7.6C18.78,8.04,19.13,8.7,18.94,9.38"/>
	<path class="st2" d="M10.93,4.85c-0.16,0.51-0.71,0.84-1.17,0.85C9.91,5.19,10.33,4.74,10.93,4.85"/>
	<path class="st2" d="M12.31,5.97c-0.68,0.45-1.41,0.64-1.88,1.26c-0.13,0.18-0.17,0.42-0.31,0.58C9.82,8.14,9.38,8.33,9.04,8.67
		S8.56,9.47,8.1,9.66C7.96,9.02,8.5,8.58,8.95,8.18c0.25-0.22,0.6-0.34,0.81-0.54c0.21-0.21,0.3-0.64,0.54-0.9
		C10.71,6.3,11.78,5.57,12.31,5.97"/>
	<path class="st2" d="M19.62,12.67v0.95c-0.18,0.45-0.12,1.14-0.58,1.31c-0.03-0.78,0.19-1.57,0.13-2.35
		c-0.13-1.73-1.29-3.68-2.18-4.61c-1.1-1.15-3.44-2.06-5.3-0.99c-0.4,0.23-0.58,0.76-1.11,0.68c0.14-0.6,0.75-0.93,1.25-1.18
		c0.77-0.37,1.9-0.53,2.8-0.32C17.41,6.83,19.22,9.58,19.62,12.67"/>
	<path class="st2" d="M7.62,12.03v-0.36c0.39-1.31,1.37-2.91,2.46-3.44c0.28-0.14,0.58-0.18,0.85-0.32
		c0.37-0.19,0.65-0.51,0.94-0.68c0.58-0.33,1.31-0.49,2.32-0.45c1.17,0.05,2.23,0.85,2.86,1.58c0.96,1.12,1.88,2.76,1.88,4.61
		c0,0.53,0.08,1.15-0.4,1.54c-0.23-0.59-0.07-1.16-0.09-1.67c-0.08-1.66-0.87-3.03-1.65-3.98c-0.89-1.09-2.78-2.12-4.56-1.27
		c-0.44,0.2-0.73,0.64-1.21,0.86c-0.23,0.1-0.54,0.09-0.8,0.23c-0.85,0.42-1.45,1.46-1.83,2.26C8.2,11.34,8,12.22,7.62,12.03"/>
	<path class="st2" d="M9.76,6.96C9.68,7.69,9.05,7.86,8.53,8.13C8.52,7.49,9.11,7.07,9.76,6.96"/>
	<path class="st2" d="M12.07,8.76c0.37,0.02,0.61-0.19,0.94-0.22c2.1-0.25,4.06,1.68,4.06,3.49c0,0.11-0.02,0.26-0.04,0.36
		c-0.42,2.07-0.28,3.76-1.52,4.93c-0.47,0.45-1.04,0.53-1.7,0.76c-0.45,0.16-0.73,0.53-1.21,0.72c-0.44,0.18-0.96,0.1-1.47,0.22
		c-0.27,0.07-0.51,0.36-0.89,0.27c-0.02-0.82,1.18-0.64,1.87-0.9c1.6-0.57,2.98-2,3.35-3.81c0.08-0.36-0.06-0.82,0.27-1.16
		c0.56,0.22,0.21,1.01,0.09,1.48c-0.25,0.94-0.57,1.74-1.12,2.33c1.26-0.47,1.48-2.05,1.61-3.72c0.06-0.69,0.27-1.29,0.13-1.88
		c-0.28-1.23-1.42-2.53-2.86-2.55c-0.89-0.01-1.61,0.35-2.19,0.81c-0.42,0.35-1.02,0.87-1.38,1.3c-0.4,0.47-0.65,1.39-0.98,2.06
		c-0.28,0.57-0.45,1.31-1.07,1.57c-0.2-0.64,0.36-1.24,0.67-1.88c0.29-0.59,0.46-1.32,0.8-1.88c0.3-0.5,0.88-0.94,1.29-1.39
		c0.84-0.88,1.15-1.88,2.63-2.02c0.25-0.02,0.78-0.06,0.8,0.22C14.2,8.23,13.35,8.14,13,8.22C12.61,8.31,12.23,8.44,12.07,8.76"/>
	<path class="st2" d="M17.7,14.52c-0.31-0.41,0.06-1.14-0.04-1.71c-0.03-0.21-0.17-0.38-0.22-0.59c-0.18-0.65-0.25-1.17-0.54-1.71
		c-0.39-0.72-1.05-1.5-1.7-1.89c-0.3-0.18-0.83-0.17-0.89-0.68c0.51-0.36,1.8,0.59,2.23,1.13c0.77,0.96,1.47,2.41,1.56,3.56
		C18.16,13.31,18.17,14.2,17.7,14.52"/>
	<path class="st2" d="M10.81,8.76c0.06,0.67-0.65,0.92-1.02,1.3c-0.36,0.38-0.71,0.9-0.93,1.44c-0.29,0.7-0.36,1.53-1.02,1.98
		c-0.09-0.61,0.23-1.18,0.44-1.71c0.21-0.53,0.39-1.13,0.66-1.57c0.34-0.53,1.24-1.13,1.77-1.44H10.81z"/>
	<path class="st2" d="M15.77,13.2c-0.04-1.68-0.58-3.16-2.1-3.2c-0.76-0.02-1.56,0.35-2.05,0.81c-0.12,0.11-0.18,0.27-0.31,0.41
		c-0.26,0.25-0.8,0.39-0.71,0.86c0.95-0.47,2.27-2.62,3.97-1.49c1.08,0.72,0.78,3.72,0.22,4.97c-0.39,0.88-1.16,1.75-1.87,2.17
		c-0.25,0.15-0.55,0.23-0.8,0.36c-0.23,0.12-0.47,0.39-0.76,0.27c0.27-0.85,1.06-0.86,1.65-1.31c0.9-0.7,1.45-1.75,1.6-3.25
		c0.09-0.86,0.38-1.85-0.09-2.53c-0.4-0.58-1.38-0.63-2.01-0.27c-0.35,0.19-0.52,0.61-0.89,0.99c-0.19,0.2-0.52,0.34-0.67,0.59
		c-0.23,0.41-0.09,0.82-0.18,1.4c-0.08,0.51-0.47,1.16-0.76,1.58c-0.29,0.42-0.68,0.91-1.29,0.9c0.06-0.67,0.66-0.93,0.94-1.4
		c0.26-0.43,0.53-1.14,0.45-1.94c-0.06-0.52-0.23-0.99,0-1.49c0.23-0.49,0.89-0.95,1.38-1.35c1.43-1.16,3.57-1.05,4.41,0.77
		C16.12,11.51,16.45,13.01,15.77,13.2"/>
	<path class="st2" d="M14.33,11.74c-0.29-0.11-0.56-0.25-0.94-0.27C13.2,10.7,14.65,11.15,14.33,11.74"/>
	<path class="st2" d="M13.25,11.3c0.02,0.29-0.31,0.24-0.46,0.36c-0.23,0.49-0.76,0.73-1.09,1.13c-0.24,0.29-0.21,0.75-0.59,0.95
		c-0.39-0.77,0.51-1.44,0.96-1.95C12.33,11.51,12.73,10.77,13.25,11.3"/>
	<path class="st2" d="M9.65,18.45c0.12-0.35,0.44-0.36,0.76-0.59c0.47-0.33,0.83-0.95,1.29-1.22c0.21-0.12,0.48-0.14,0.71-0.27
		c0.76-0.43,1.43-1.59,1.47-2.52c0.01-0.17-0.06-0.34-0.04-0.5c0.02-0.46,0.23-1.09-0.31-1.17c-0.5-0.08-0.64,0.39-0.76,0.81
		c-1.15,1-1.63,3.19-2.99,4.06c-0.18,0.11-0.46,0.25-0.71,0.18c0-0.56,0.51-0.61,0.85-0.9c0.87-0.77,1.06-2.21,1.83-3.16
		c0.15-0.17,0.4-0.29,0.58-0.5c0.21-0.24,0.33-0.57,0.54-0.72c0.61-0.43,1.52-0.07,1.56,0.59c0.02,0.29-0.11,0.61-0.13,0.86
		c-0.02,0.33,0.03,0.64,0,0.95c-0.1,0.89-0.62,1.77-1.25,2.25c-0.29,0.23-0.69,0.29-1.03,0.5C11.28,17.54,10.75,18.68,9.65,18.45"/>
	<path class="st2" d="M12.09,15.41c0.58-0.07,0.99-0.91,0.93-1.62c-0.06,0-0.06-0.06-0.13-0.05C12.67,14.34,12.35,14.84,12.09,15.41
		 M13.51,12.44c0.22,0.25,0,0.64-0.09,0.86c0.4,0.51-0.21,2.2-0.8,2.48c-0.69,0.33-1.17,0.52-1.64,1.08
		c-0.33,0.38-1.11,1.34-1.78,0.95c0.19-0.41,0.56-0.42,0.84-0.63c0.33-0.24,1.31-1.21,1.47-1.62c0.34-0.87,0.78-1.9,1.51-2.43
		c0.08-0.28,0.12-0.61,0.4-0.68H13.51z"/>
	<path class="st2" d="M17.29,12.64c0.33,0.34,0.15,1.51-0.26,1.67C17,13.8,16.86,12.82,17.29,12.64"/>
	<path class="st2" d="M9.68,12.84c0.21,0.65-0.03,1.29-0.32,1.74c-0.28,0.43-0.65,0.93-1.04,1.19c-0.23-1.2,0.97-1.73,1.13-2.84
		c0.02-0.06,0.08-0.07,0.09-0.14C9.62,12.78,9.62,12.84,9.68,12.84"/>
	<path class="st2" d="M17.17,14.73c0.17,0.75-0.21,1.53-0.54,2.11c-0.32,0.58-0.71,1.21-1.29,1.53c-0.6,0.34-1.35,0.29-1.87,0.81
		c0.66,0.15,1.24-0.39,1.74-0.4c-0.06,1.05-1.36,0.66-2.14,0.94c-0.51,0.18-0.83,0.76-1.38,0.58c0.06-0.4,0.41-0.4,0.62-0.58
		c0.35-0.28,0.57-0.74,0.89-0.99c0.69-0.52,1.57-0.47,2.19-0.94c0.96-0.74,1.03-1.69,1.56-2.88c0.02-0.04,0.03-0.12,0.09-0.18H17.17
		z"/>
	<path class="st2" d="M18.67,14.84c0.19,0.8-0.25,1.71-0.75,2.17c-0.2,0.19-0.52,0.25-0.75,0.45c-0.51,0.45-0.84,1.49-1.68,1.27
		c0-0.43,0.34-0.43,0.58-0.63c0.6-0.52,1.1-1.57,1.33-2.44c0.08-0.27,0.06-0.7,0.4-0.81c0.43,0.5-0.23,1.29-0.35,1.81
		c0.63-0.17,0.65-1.36,1.11-1.85C18.57,14.82,18.61,14.84,18.67,14.84"/>
	<path class="st2" d="M18.38,16.95c0.07,0.56-0.57,0.79-0.85,1.15c0.12,0.14,0.19-0.17,0.4-0.09c0.01,0.36-0.27,0.42-0.4,0.64
		c-1.16,0.17-1.68,1.23-2.81,1.28c0.18-0.44,0.67-0.61,1.03-0.83c0.38-0.23,0.85-0.46,1.16-0.78c0.43-0.44,0.7-1.1,1.34-1.38H18.38z
		"/>
	<path class="st2" d="M12.31,19.26c-0.16,0.44-1.09,0.87-1.52,0.48C10.89,19.23,11.88,19.17,12.31,19.26"/>
	<path class="st2" d="M13.38,20.41h-0.45c-0.42-0.43,0.79-0.76,1.17-0.48C14.03,20.28,13.65,20.28,13.38,20.41"/>
</g>
</svg>
