<?xml version="1.0" encoding="utf-8"?>
<!-- Generator: Adobe Illustrator 27.3.1, SVG Export Plug-In . SVG Version: 6.00 Build 0)  -->
<svg version="1.1" id="Layer_1" xmlns="http://www.w3.org/2000/svg" xmlns:xlink="http://www.w3.org/1999/xlink" x="0px" y="0px"
	 viewBox="0 0 27.36 23.69" style="enable-background:new 0 0 27.36 23.69;" xml:space="preserve">
<style type="text/css">
	.st0{fill:#FFFFFF;}
	.st1{fill:#9F53A0;}
</style>
<g>
	<g>
		<polygon class="st0" points="20.15,23.05 26.62,11.85 20.15,0.64 7.21,0.64 0.74,11.85 7.21,23.05 		"/>
		<path class="st1" d="M20.52,23.69H6.84L0,11.85L6.84,0h13.68l6.84,11.85L20.52,23.69z M7.58,22.41h12.19l6.1-10.56l-6.1-10.56
			H7.58l-6.1,10.56L7.58,22.41z"/>
	</g>
</g>
<g>
	<g>
		<g>
			<polygon class="st1" points="24.74,11.79 22.88,10.25 22.88,11.26 22.16,11.26 20.89,11.26 20.16,11.26 20.16,10.25 18.3,11.79 
				20.16,13.34 20.16,12.32 20.89,12.32 22.16,12.32 22.88,12.32 22.88,13.34 			"/>
			<polygon class="st1" points="11.93,10.9 11.93,12.78 11.93,14.58 17.67,11.84 11.93,9.1 			"/>
			<polygon class="st1" points="4.49,11.79 6.35,13.34 6.35,12.32 7.08,12.32 8.35,12.32 9.08,12.32 9.08,13.34 10.94,11.79 
				9.08,10.25 9.08,11.26 8.35,11.26 7.08,11.26 6.35,11.26 6.35,10.25 			"/>
			<polygon class="st1" points="9.54,7.24 8.88,6.93 8.88,6.93 7.08,6.08 7.51,5.16 5.17,5.77 6.19,7.96 6.63,7.04 8.43,7.89 
				8.43,7.89 9.09,8.2 8.66,9.12 11,8.51 9.98,6.32 			"/>
			<polygon class="st1" points="9.09,15.36 8.43,15.67 8.43,15.67 6.63,16.52 6.19,15.61 5.17,17.8 7.51,18.4 7.08,17.48 
				7.74,17.17 7.74,17.17 9.54,16.32 9.98,17.24 11,15.05 8.66,14.45 			"/>
		</g>
	</g>
</g>
</svg>
