<?xml version="1.0" encoding="utf-8"?>
<!-- Generator: Adobe Illustrator 27.3.1, SVG Export Plug-In . SVG Version: 6.00 Build 0)  -->
<svg version="1.1" id="Layer_1" xmlns="http://www.w3.org/2000/svg" xmlns:xlink="http://www.w3.org/1999/xlink" x="0px" y="0px"
	 viewBox="0 0 27.36 23.69" style="enable-background:new 0 0 27.36 23.69;" xml:space="preserve">
<style type="text/css">
	.st0{fill:#FFFFFF;}
	.st1{fill:#9F53A0;}
	.st2{fill-rule:evenodd;clip-rule:evenodd;fill:#9F53A0;}
</style>
<g>
	<g>
		<polygon class="st0" points="20.15,23.05 26.62,11.85 20.15,0.64 7.21,0.64 0.74,11.85 7.21,23.05 		"/>
		<path class="st1" d="M20.52,23.69H6.84L0,11.85L6.84,0h13.68l6.84,11.85L20.52,23.69z M7.58,22.41h12.19l6.1-10.56l-6.1-10.56
			H7.58l-6.1,10.56L7.58,22.41z"/>
	</g>
</g>
<g>
	<path class="st2" d="M10.06,5.75H8.45c-0.03,0-0.05,0.03-0.05,0.06v3.55c0,0.03,0.03,0.06,0.05,0.06h2.62
		c0.03,0,0.05-0.03,0.05-0.06V6.82L10.06,5.75z M10.87,9.15H8.65V6h1.18v0.82c0,0.15,0.11,0.2,0.2,0.2h0.84V9.15z"/>
	<polygon class="st2" points="13.39,4.58 12.82,4.58 12.82,6.25 12.3,6.25 13.11,7.06 13.91,6.25 13.39,6.25 	"/>
	<polygon class="st2" points="18.7,10.22 18.7,8.72 18.15,8.72 18.15,10.22 17.62,10.22 18.43,11.01 19.23,10.22 	"/>
	<path class="st2" d="M20.01,13.1l-1.88-1.88c-0.03-0.03-0.08-0.06-0.11-0.06h-1.69l0,0.48h1.54l1.26,1.28H8.3l1.26-1.28h1.74
		l0-0.48H9.44c-0.06,0-0.08,0.03-0.14,0.06L7.42,13.1c-0.06,0.06-0.06,0.14-0.03,0.19c0.03,0.06,0.08,0.11,0.14,0.11h0.39v5.98
		c0,0.11,0.06,0.17,0.17,0.17h11.28c0.08,0,0.17-0.06,0.17-0.17V13.4h0.36c0.06,0,0.12-0.02,0.15-0.11
		C20.06,13.24,20.06,13.15,20.01,13.1z M19,19.01H8.46V13.4H19V19.01z"/>
	<path class="st2" d="M10.5,8.85H9.02c-0.07,0-0.13-0.06-0.13-0.13l0,0c0-0.07,0.06-0.13,0.13-0.13h1.48c0.07,0,0.13,0.06,0.13,0.13
		l0,0C10.63,8.79,10.57,8.85,10.5,8.85z"/>
	<path class="st2" d="M10.5,7.58H9.02c-0.07,0-0.13-0.06-0.13-0.13v0c0-0.07,0.06-0.13,0.13-0.13h1.48c0.07,0,0.13,0.06,0.13,0.13v0
		C10.63,7.52,10.57,7.58,10.5,7.58z"/>
	<path class="st2" d="M10.5,8.21H9.02c-0.07,0-0.13-0.06-0.13-0.13l0,0c0-0.07,0.06-0.13,0.13-0.13h1.48c0.07,0,0.13,0.06,0.13,0.13
		l0,0C10.63,8.15,10.57,8.21,10.5,8.21z"/>
	<path class="st2" d="M18.09,3.71h-2.01c-0.03,0-0.07,0.03-0.07,0.07v4.42c0,0.03,0.03,0.07,0.07,0.07h3.27
		c0.03,0,0.07-0.03,0.07-0.07V5.04L18.09,3.71z M19.09,7.94h-2.76V4.03h1.47v1.02c0,0.19,0.14,0.25,0.25,0.25h1.04V7.94z"/>
	<path class="st2" d="M18.63,7.56h-1.84c-0.09,0-0.16-0.07-0.16-0.16v0c0-0.09,0.07-0.16,0.16-0.16h1.84c0.09,0,0.16,0.07,0.16,0.16
		v0C18.79,7.49,18.72,7.56,18.63,7.56z"/>
	<path class="st2" d="M18.63,5.98h-1.84c-0.09,0-0.16-0.07-0.16-0.16v0c0-0.09,0.07-0.16,0.16-0.16h1.84c0.09,0,0.16,0.07,0.16,0.16
		v0C18.79,5.91,18.72,5.98,18.63,5.98z"/>
	<path class="st2" d="M18.63,6.77h-1.84c-0.09,0-0.16-0.07-0.16-0.16v0c0-0.09,0.07-0.16,0.16-0.16h1.84c0.09,0,0.16,0.07,0.16,0.16
		v0C18.79,6.7,18.72,6.77,18.63,6.77z"/>
	<path class="st2" d="M14.3,7.84h-2.57c-0.04,0-0.09,0.04-0.09,0.09v5.32c0,0.04,0.04,0.09,0.09,0.09h4.19
		c0.04,0,0.09-0.04,0.09-0.09V9.55L14.3,7.84z M15.59,12.92h-3.54V8.25h1.89v1.3c0,0.24,0.17,0.32,0.32,0.32h1.34V12.92z"/>
	<path class="st2" d="M14.99,10.76h-2.36c-0.11,0-0.21-0.09-0.21-0.21l0,0c0-0.11,0.09-0.21,0.21-0.21h2.36
		c0.11,0,0.21,0.09,0.21,0.21l0,0C15.2,10.67,15.11,10.76,14.99,10.76z"/>
	<path class="st2" d="M14.99,11.7h-2.36c-0.11,0-0.21-0.09-0.21-0.21v0c0-0.11,0.09-0.21,0.21-0.21h2.36c0.11,0,0.21,0.09,0.21,0.21
		v0C15.2,11.61,15.11,11.7,14.99,11.7z"/>
	<path class="st2" d="M14.99,12.65h-2.36c-0.11,0-0.21-0.09-0.21-0.21v0c0-0.11,0.09-0.21,0.21-0.21h2.36
		c0.11,0,0.21,0.09,0.21,0.21v0C15.2,12.56,15.11,12.65,14.99,12.65z"/>
</g>
</svg>
