<?xml version="1.0" encoding="utf-8"?>
<!-- Generator: Adobe Illustrator 27.3.1, SVG Export Plug-In . SVG Version: 6.00 Build 0)  -->
<svg version="1.1" id="Layer_1" xmlns="http://www.w3.org/2000/svg" xmlns:xlink="http://www.w3.org/1999/xlink" x="0px" y="0px"
	 viewBox="0 0 27.36 23.69" style="enable-background:new 0 0 27.36 23.69;" xml:space="preserve">
<style type="text/css">
	.st0{fill:#FFFFFF;}
	.st1{fill:#9F53A0;}
	.st2{fill:#A153A0;}
</style>
<g>
	<g>
		<polygon class="st0" points="20.15,23.05 26.62,11.85 20.15,0.64 7.21,0.64 0.74,11.85 7.21,23.05 		"/>
		<path class="st1" d="M20.52,23.69H6.84L0,11.85L6.84,0h13.68l6.84,11.85L20.52,23.69z M7.58,22.41h12.19l6.1-10.56l-6.1-10.56
			H7.58l-6.1,10.56L7.58,22.41z"/>
	</g>
</g>
<g>
	<path class="st2" d="M8.72,5.76c-0.33-0.33-0.87-0.33-1.2,0s-0.33,0.87,0,1.2l4.85,4.85l-4.85,4.85c-0.33,0.33-0.33,0.87,0,1.2
		s0.87,0.33,1.2,0l6.05-6.05L8.72,5.76z"/>
	
		<rect x="14.05" y="7.21" transform="matrix(0.7071 -0.7071 0.7071 0.7071 -0.6305 14.6063)" class="st2" width="6.52" height="1.7"/>
	
		<rect x="16.46" y="12.3" transform="matrix(0.7071 -0.7071 0.7071 0.7071 -5.9301 16.8015)" class="st2" width="1.7" height="6.52"/>
</g>
</svg>
