<?xml version="1.0" encoding="utf-8"?>
<!-- Generator: Adobe Illustrator 27.3.1, SVG Export Plug-In . SVG Version: 6.00 Build 0)  -->
<svg version="1.1" id="Layer_1" xmlns="http://www.w3.org/2000/svg" xmlns:xlink="http://www.w3.org/1999/xlink" x="0px" y="0px"
	 viewBox="0 0 27.4 23.7" style="enable-background:new 0 0 27.4 23.7;" xml:space="preserve">
<style type="text/css">
	.st0{fill:#FFFFFF;}
	.st1{fill:#9F53A0;}
</style>
<g>
	<g>
		<polygon class="st0" points="20.1,23 26.6,11.8 20.1,0.6 7.2,0.6 0.7,11.8 7.2,23 		"/>
		<path class="st1" d="M20.5,23.7H6.8L0,11.8L6.8,0h13.7l6.8,11.8L20.5,23.7z M7.6,22.4h12.2l6.1-10.6L19.8,1.3H7.6L1.5,11.8
			L7.6,22.4z"/>
	</g>
</g>
<g>
	<g>
		<path class="st1" d="M21.8,9.9h2.1V9.3c-1,0-2.1,0-2.1,0l0.6-0.6c0.1-0.1,0.1-0.3,0-0.4l0,0c-0.1-0.1-0.3-0.1-0.4,0l-1,1
			c0,0,0,0,0,0c-0.1,0-0.1,0.1-0.1,0.2v0.1c0,0.1,0,0.1,0.1,0.2c0,0,0,0,0,0.1l1,1c0.1,0.1,0.3,0.1,0.4,0l0,0c0.1-0.1,0.1-0.3,0-0.4
			L21.8,9.9z"/>
		<path class="st1" d="M5.6,9.9H3.5V9.3c1,0,2.1,0,2.1,0L5,8.8C4.9,8.7,4.9,8.5,5,8.4l0,0c0.1-0.1,0.3-0.1,0.4,0l1,1c0,0,0,0,0,0
			c0.1,0,0.1,0.1,0.1,0.2v0.1c0,0.1,0,0.1-0.1,0.2c0,0,0,0,0,0.1l-1,1C5.3,11,5.1,11,5,10.9l0,0c-0.1-0.1-0.1-0.3,0-0.4L5.6,9.9z"/>
		<path class="st1" d="M13.6,9c-2.1,0-3.8,1.7-3.8,3.8c0,2.1,1.7,3.8,3.8,3.8c2.1,0,3.8-1.7,3.8-3.8C17.3,10.7,15.6,9,13.6,9z
			 M13.6,15.6c-1.6,0-2.8-1.3-2.8-2.8c0-1.6,1.3-2.8,2.8-2.8c1.6,0,2.8,1.3,2.8,2.8C16.4,14.4,15.1,15.6,13.6,15.6z"/>
		<path class="st1" d="M8.8,16.1L6.9,18c-0.4,0.4-0.4,1,0,1.4c0.4,0.4,1,0.4,1.4,0l1.9-1.9c0.4-0.4,0.4-1,0-1.4
			C9.8,15.8,9.2,15.8,8.8,16.1z"/>
		<path class="st1" d="M19,5.7H8.4c-0.6,0-1,0.5-1,1v5.8c0,0.6,0.5,1,1,1h1.6c-0.1-0.2-0.1-0.4-0.1-0.6H8.4c-0.2,0-0.4-0.2-0.4-0.4
			V6.7c0,0,0,0,0,0l5.8,3.2l5.7-3.1v5.6c0,0.2-0.2,0.4-0.4,0.4h-1.7c0,0.2-0.1,0.4-0.1,0.6H19c0.6,0,1-0.5,1-1V6.7
			C20,6.1,19.6,5.7,19,5.7z M8.5,6.3H19c0,0,0.1,0,0.1,0l-5.4,2.9L8.5,6.3z"/>
	</g>
</g>
<g>
</g>
<g>
</g>
<g>
</g>
<g>
</g>
<g>
</g>
<g>
</g>
</svg>
