<?xml version="1.0" encoding="utf-8"?>
<!-- Generator: Adobe Illustrator 27.3.1, SVG Export Plug-In . SVG Version: 6.00 Build 0)  -->
<svg version="1.1" id="Layer_1" xmlns="http://www.w3.org/2000/svg" xmlns:xlink="http://www.w3.org/1999/xlink" x="0px" y="0px"
	 viewBox="0 0 27.4 23.7" style="enable-background:new 0 0 27.4 23.7;" xml:space="preserve">
<style type="text/css">
	.st0{fill:#FFFFFF;}
	.st1{fill:#9F53A0;}
	.st2{fill-rule:evenodd;clip-rule:evenodd;fill:#9F53A0;}
</style>
<g>
	<g>
		<polygon class="st0" points="20.1,23 26.6,11.8 20.1,0.6 7.2,0.6 0.7,11.8 7.2,23 		"/>
		<path class="st1" d="M20.5,23.7H6.8L0,11.8L6.8,0h13.7l6.8,11.8L20.5,23.7z M7.6,22.4h12.2l6.1-10.6L19.8,1.3H7.6L1.5,11.8
			L7.6,22.4z"/>
	</g>
</g>
<g>
	<g>
		<g>
			<g>
				<path class="st2" d="M12.6,10.6v-0.5l1-0.2c0.5,0.1,0.7,0.2,0.9,0.2l-1.5,1.4c-0.1-0.2-0.2-0.4-0.3-0.6
					C12.6,10.8,12.6,10.7,12.6,10.6 M14.5,10.6c0,0.1,0,0.2,0,0.3c-0.1,0.5-0.4,0.9-0.9,1.2c-0.2-0.1-0.4-0.2-0.5-0.4l1.5-1.4V10.6z
					 M13.6,12.5c0.8-0.3,1.3-1,1.3-1.9V9.7l-0.5-0.1v0.2l-0.5-0.1V9.4l-0.3-0.1l-0.3,0.1v0.2l-0.5,0.1V9.6l-0.5,0.1v0.9
					C12.3,11.4,12.8,12.2,13.6,12.5"/>
			</g>
		</g>
	</g>
</g>
<g>
	<path class="st1" d="M16.8,8.1c0.2,0.1,0.3,0.3,0.5,0.5l1.1-1.1c0.6,0.4,1.4,0.3,1.9-0.2c0.6-0.6,0.6-1.5,0-2.1
		c-0.6-0.6-1.5-0.6-2.1,0c-0.5,0.5-0.6,1.3-0.2,1.9L16.8,8.1z"/>
	<path class="st1" d="M8.8,7.5l1.1,1.1c0.1-0.2,0.3-0.4,0.5-0.5L9.3,7.1c0.4-0.6,0.3-1.4-0.2-1.9C8.5,4.6,7.6,4.6,7,5.2
		C6.4,5.8,6.4,6.7,7,7.3C7.5,7.8,8.3,7.9,8.8,7.5z"/>
	<path class="st1" d="M13.3,5.4v2.5h0.7V5.4c0.7-0.2,1.2-0.8,1.2-1.5c0-0.8-0.7-1.5-1.5-1.5c-0.8,0-1.5,0.7-1.5,1.5
		C12.1,4.7,12.6,5.3,13.3,5.4z"/>
	<path class="st1" d="M9.7,11.5H7.2c-0.2-0.7-0.8-1.2-1.5-1.2c-0.8,0-1.5,0.7-1.5,1.5s0.7,1.5,1.5,1.5c0.7,0,1.3-0.5,1.5-1.2h2.5
		V11.5z"/>
	<path class="st1" d="M21.5,10.3c-0.7,0-1.3,0.5-1.5,1.2h-2.5v0.7H20c0.2,0.7,0.8,1.2,1.5,1.2c0.8,0,1.5-0.7,1.5-1.5
		S22.3,10.3,21.5,10.3z"/>
</g>
<path class="st1" d="M10.2,15.7c-0.2-0.1-0.3-0.3-0.4-0.5l-0.9,0.9c-0.6-0.4-1.4-0.3-1.9,0.2c-0.6,0.6-0.6,1.5,0,2.1
	c0.6,0.6,1.5,0.6,2.1,0c0.5-0.5,0.6-1.3,0.2-1.9L10.2,15.7z"/>
<path class="st1" d="M16.1,13.3h-4.9c-0.4,0-0.8-0.4-0.8-0.8V9.3c0-0.4,0.4-0.8,0.8-0.8h4.9c0.4,0,0.8,0.4,0.8,0.8v3.2
	C16.9,12.9,16.5,13.3,16.1,13.3z M11.1,9.1c-0.1,0-0.2,0.1-0.2,0.2v3.2c0,0.1,0.1,0.2,0.2,0.2h4.9c0.1,0,0.2-0.1,0.2-0.2V9.3
	c0-0.1-0.1-0.2-0.2-0.2H11.1z"/>
<path class="st1" d="M20.2,16.3c-0.5-0.5-1.3-0.6-1.9-0.2l-0.9-0.9c-0.1,0.2-0.2,0.4-0.4,0.5l0.9,0.9c-0.4,0.6-0.3,1.4,0.2,1.9
	c0.6,0.6,1.5,0.6,2.1,0C20.8,17.9,20.8,16.9,20.2,16.3z"/>
<path class="st1" d="M13.9,18.2v-2.4h-0.7v2.4c-0.7,0.2-1.2,0.8-1.2,1.5c0,0.8,0.7,1.5,1.5,1.5c0.8,0,1.5-0.7,1.5-1.5
	C15.1,19,14.6,18.4,13.9,18.2z"/>
<path class="st1" d="M16.6,13.6h-5.9c-0.2,0-0.3,0.1-0.3,0.3v1c0,0.2,0.1,0.3,0.3,0.3h5.9c0.2,0,0.3-0.1,0.3-0.3v-1
	C16.9,13.8,16.7,13.6,16.6,13.6z M16.3,14.6C16.3,14.6,16.2,14.7,16.3,14.6l-3,0.1c-0.1,0-0.1,0-0.1-0.1v-0.3c0-0.1,0-0.1,0.1-0.1h3
	c0.1,0,0.1,0,0.1,0.1V14.6z"/>
<g>
</g>
<g>
</g>
<g>
</g>
<g>
</g>
<g>
</g>
<g>
</g>
</svg>
