<?xml version="1.0" encoding="utf-8"?>
<!-- Generator: Adobe Illustrator 27.3.1, SVG Export Plug-In . SVG Version: 6.00 Build 0)  -->
<svg version="1.1" id="Layer_1" xmlns="http://www.w3.org/2000/svg" xmlns:xlink="http://www.w3.org/1999/xlink" x="0px" y="0px"
	 viewBox="0 0 27.36 23.69" style="enable-background:new 0 0 27.36 23.69;" xml:space="preserve">
<style type="text/css">
	.st0{fill:#FFFFFF;}
	.st1{fill:#9F53A0;}
	.st2{fill-rule:evenodd;clip-rule:evenodd;fill:#9F53A0;}
</style>
<g>
	<g>
		<polygon class="st0" points="20.15,23.05 26.62,11.85 20.15,0.64 7.21,0.64 0.74,11.85 7.21,23.05 		"/>
		<path class="st1" d="M20.52,23.69H6.84L0,11.85L6.84,0h13.68l6.84,11.85L20.52,23.69z M7.58,22.41h12.19l6.1-10.56l-6.1-10.56
			H7.58l-6.1,10.56L7.58,22.41z"/>
	</g>
</g>
<g>
	<path class="st2" d="M22.69,14.69l-0.86-1.35h-5.52v1.73h6.17C22.67,15.07,22.79,14.85,22.69,14.69z"/>
	<path class="st2" d="M21.36,12.31c0,0.18-0.18,0.34-0.37,0.34h-4.69v0.39h5.03c0.26,0,0.47-0.21,0.47-0.47v-0.5
		c-0.13,0-0.29,0.03-0.45,0.05V12.31z"/>
	<path class="st2" d="M15.4,14.68H9.78v-2.26c-0.16,0-0.31,0-0.47-0.03v3.49c0,0.18,0.13,0.31,0.29,0.31h5.99
		c0.16,0,0.29-0.13,0.29-0.31v-3.41c-0.16,0.03-0.31,0.03-0.47,0.03V14.68z M12.61,15.81c-0.21,0-0.37-0.16-0.37-0.37
		c0-0.21,0.16-0.37,0.37-0.37c0.18,0,0.34,0.16,0.34,0.37C12.95,15.65,12.79,15.81,12.61,15.81"/>
	<path class="st2" d="M13.62,12.07c5.8,0,10.54-0.52,10.59-1.18c0-0.29-0.89-0.55-2.41-0.73V9.26c0-0.26-0.21-0.47-0.47-0.47h-5.02
		v0.42H21c0.18,0,0.34,0.16,0.34,0.34v1.86c-1.31,0.18-3.24,0.31-5.46,0.39V7.95c0-0.16-0.13-0.29-0.29-0.29H9.59
		c-0.18,0-0.31,0.13-0.31,0.29v3.75c-1.33-0.05-2.51-0.16-3.4-0.29V9.58h2.98V8.71C8.55,8.56,8.13,8.48,7.9,8.48H7.42H7.35H6.93
		c-0.44,0-1.41,0.29-1.41,0.76v0.89c-1.57,0.21-2.51,0.47-2.51,0.76C3.06,11.55,7.79,12.07,13.62,12.07 M21.81,10.31
		c0.92,0.16,1.41,0.34,1.41,0.52c0,0.1-0.18,0.21-0.47,0.31c-0.24,0.08-0.55,0.13-0.94,0.21V10.31z M9.78,8.61h5.62v3.2
		c-0.58,0-1.18,0.03-1.78,0.03c-1.36,0-2.67-0.05-3.84-0.1V8.61z M6.72,9.13h1.36c0.05,0,0.1,0.05,0.1,0.1c0,0.05-0.05,0.1-0.1,0.1
		H6.72c-0.03,0-0.1-0.05-0.1-0.1C6.61,9.18,6.69,9.13,6.72,9.13 M5.52,10.31v1.05c-0.42-0.05-0.78-0.13-1.02-0.21
		c-0.31-0.1-0.47-0.21-0.5-0.31C4,10.63,4.55,10.47,5.52,10.31"/>
</g>
<path class="st2" d="M5.88,14.28v-2.16c-0.13,0-0.26-0.03-0.37-0.05v2.55c0,0.4,0.97,0.76,1.41,0.76h0.31h0.13H7.9
	c0.26,0,0.65-0.11,0.97-0.26v-0.84H5.88z M7.41,14.99c-0.13,0-0.23-0.1-0.23-0.23c0-0.13,0.1-0.23,0.23-0.23
	c0.13,0,0.23,0.1,0.23,0.23C7.65,14.89,7.54,14.99,7.41,14.99z"/>
</svg>
