<?xml version="1.0" encoding="utf-8"?>
<!-- Generator: Adobe Illustrator 27.3.1, SVG Export Plug-In . SVG Version: 6.00 Build 0)  -->
<svg version="1.1" id="Layer_1" xmlns="http://www.w3.org/2000/svg" xmlns:xlink="http://www.w3.org/1999/xlink" x="0px" y="0px"
	 viewBox="0 0 27.36 23.69" style="enable-background:new 0 0 27.36 23.69;" xml:space="preserve">
<style type="text/css">
	.st0{fill:#FFFFFF;}
	.st1{fill:#9F53A0;}
</style>
<g>
	<g>
		<polygon class="st0" points="20.15,23.05 26.62,11.85 20.15,0.64 7.21,0.64 0.74,11.85 7.21,23.05 		"/>
		<path class="st1" d="M20.52,23.69H6.84L0,11.85L6.84,0h13.68l6.84,11.85L20.52,23.69z M7.58,22.41h12.19l6.1-10.56l-6.1-10.56
			H7.58l-6.1,10.56L7.58,22.41z"/>
	</g>
</g>
<g>
	<g>
		<g>
			<path class="st1" d="M13.73,14.47c-0.31,0-0.53,0.02-0.69,0.05v2.23h0.51v-0.81c0.05,0.01,0.11,0.01,0.17,0.01
				c0.3,0,0.56-0.07,0.74-0.24c0.13-0.13,0.21-0.32,0.21-0.54c0-0.22-0.1-0.41-0.24-0.52C14.27,14.53,14.04,14.47,13.73,14.47z
				 M13.71,15.56c-0.07,0-0.13,0-0.17-0.01v-0.67c0.04-0.01,0.11-0.02,0.21-0.02c0.26,0,0.4,0.12,0.4,0.33
				C14.15,15.42,13.99,15.56,13.71,15.56z"/>
			<path class="st1" d="M17.91,2.61H9.55c-0.7,0-1.26,0.57-1.26,1.26v15.92c0,0.7,0.57,1.26,1.26,1.26h8.35
				c0.7,0,1.26-0.57,1.26-1.26V3.87C19.17,3.17,18.6,2.61,17.91,2.61z M9.55,3.43h8.35c0.25,0,0.45,0.2,0.45,0.45v4.1H9.11v-4.1
				C9.11,3.63,9.31,3.43,9.55,3.43z M17.91,20.24H9.55c-0.25,0-0.45-0.2-0.45-0.45v-11h9.25v11C18.35,20.04,18.15,20.24,17.91,20.24
				z"/>
			<rect x="10.64" y="5.21" class="st1" width="6.03" height="0.82"/>
			<path class="st1" d="M15.3,16.94H16h0.09v0.54c0,0.25-0.21,0.46-0.46,0.46h-3.66c-0.25,0-0.46-0.21-0.46-0.46v-1.83l-0.27,0.32
				l-0.26-0.32v1.83c0,0.55,0.45,0.99,0.99,0.99h3.66c0.55,0,0.99-0.44,0.99-0.99v-0.54h0.12h0.7l-1.07-1.29L15.3,16.94z"/>
			<path class="st1" d="M12.32,14.33h-0.7h-0.1v-0.5c0-0.25,0.21-0.46,0.46-0.46h3.66c0.25,0,0.46,0.21,0.46,0.46v1.82l0.28-0.34
				l0.25,0.3v-1.78c0-0.55-0.45-0.99-0.99-0.99h-3.66c-0.55,0-0.99,0.44-0.99,0.99v0.5h-0.1h-0.7l1.07,1.29L12.32,14.33z"/>
		</g>
	</g>
</g>
</svg>
