<?xml version="1.0" encoding="utf-8"?>
<!-- Generator: Adobe Illustrator 27.3.1, SVG Export Plug-In . SVG Version: 6.00 Build 0)  -->
<svg version="1.1" id="Layer_1" xmlns="http://www.w3.org/2000/svg" xmlns:xlink="http://www.w3.org/1999/xlink" x="0px" y="0px"
	 viewBox="0 0 27.36 23.69" style="enable-background:new 0 0 27.36 23.69;" xml:space="preserve">
<style type="text/css">
	.st0{fill:#FFFFFF;}
	.st1{fill:#9F53A0;}
	.st2{fill-rule:evenodd;clip-rule:evenodd;fill:#9F53A0;}
</style>
<g>
	<g>
		<polygon class="st0" points="20.15,23.05 26.62,11.85 20.15,0.64 7.21,0.64 0.74,11.85 7.21,23.05 		"/>
		<path class="st1" d="M20.52,23.69H6.84L0,11.85L6.84,0h13.68l6.84,11.85L20.52,23.69z M7.58,22.41h12.19l6.1-10.56l-6.1-10.56
			H7.58l-6.1,10.56L7.58,22.41z"/>
	</g>
</g>
<g>
	<g>
		<g>
			<path class="st2" d="M17.82,2.59H9.46c-0.7,0-1.26,0.57-1.26,1.26v15.92c0,0.7,0.57,1.26,1.26,1.26h8.35
				c0.7,0,1.26-0.57,1.26-1.26V3.86C19.08,3.16,18.51,2.59,17.82,2.59z M9.46,3.41h8.35c0.25,0,0.45,0.2,0.45,0.45V7.1H9.02V3.86
				C9.02,3.61,9.22,3.41,9.46,3.41z M17.82,20.23H9.46c-0.25,0-0.45-0.2-0.45-0.45V7.92h9.25v11.86
				C18.26,20.03,18.06,20.23,17.82,20.23z"/>
			<path class="st2" d="M13.64,11.46c0.62,0,1.12-0.5,1.12-1.12c0-0.48-0.31-0.89-0.73-1.05v1.08h-0.77V9.29
				c-0.43,0.16-0.73,0.57-0.73,1.05C12.52,10.96,13.02,11.46,13.64,11.46z"/>
			<path class="st2" d="M15.39,15.09c-0.35,0-0.35,0-0.35,0c0-0.05,0-0.05,0-0.1c0-0.6,0-0.6,0-0.6c0-0.7-0.6-1.35-1.36-1.35
				c-0.75,0-1.36,0.65-1.36,1.35c0,0.7,0,0.7,0,0.7c-0.4,0-0.4,0-0.4,0c-0.05,0-0.05,0-0.05,0.05c0,2.86,0,2.86,0,2.86
				c0,0.05,0,0.1,0.05,0.1c0.4,0,0.4,0,0.4,0c0.1,0,0.25,0,0.35,0c1.25,0,1.25,0,1.25,0c0.05,0,0.1,0,0.1,0c1.36,0,1.36,0,1.36,0
				c0.05,0,0.1-0.05,0.1-0.1c0-0.2,0-0.2,0-0.2c0-0.1,0-0.2,0-0.25c0-0.95,0-0.95,0-0.95c0-0.1,0-0.2,0-0.3c0-0.35,0-0.35,0-0.35
				c0-0.05,0-0.1,0-0.15c0-0.55,0-0.55,0-0.55c0-0.1,0-0.1,0-0.1C15.49,15.09,15.44,15.09,15.39,15.09z M13.88,16.5
				c0,0.1,0,0.1,0,0.1c0,0.3,0,0.3,0,0.3c0,0.1-0.1,0.2-0.2,0.2c-0.15,0-0.25-0.1-0.25-0.2c0-0.2,0-0.2,0-0.2c0-0.1,0-0.1,0-0.1
				c0-0.1,0-0.1,0-0.1c0-0.2,0-0.2,0-0.2c0-0.15,0.1-0.25,0.25-0.25c0.05,0,0.1,0.05,0.15,0.1c0.05,0.05,0.05,0.1,0.05,0.15V16.5z
				 M14.58,15.09c-1.81,0-1.81,0-1.81,0c0-0.7,0-0.7,0-0.7c0-0.5,0.4-0.9,0.9-0.9c0.5,0,0.9,0.4,0.9,0.9
				C14.58,15.09,14.58,15.09,14.58,15.09z"/>
		</g>
	</g>
</g>
</svg>
