<?xml version="1.0" encoding="utf-8"?>
<!-- Generator: Adobe Illustrator 27.3.1, SVG Export Plug-In . SVG Version: 6.00 Build 0)  -->
<svg version="1.1" id="Layer_1" xmlns="http://www.w3.org/2000/svg" xmlns:xlink="http://www.w3.org/1999/xlink" x="0px" y="0px"
	 viewBox="0 0 27.36 23.69" style="enable-background:new 0 0 27.36 23.69;" xml:space="preserve">
<style type="text/css">
	.st0{fill:#FFFFFF;}
	.st1{fill:#9F53A0;}
</style>
<g>
	<g>
		<polygon class="st0" points="20.15,23.05 26.62,11.85 20.15,0.64 7.21,0.64 0.74,11.85 7.21,23.05 		"/>
		<path class="st1" d="M20.52,23.69H6.84L0,11.85L6.84,0h13.68l6.84,11.85L20.52,23.69z M7.58,22.41h12.19l6.1-10.56l-6.1-10.56
			H7.58l-6.1,10.56L7.58,22.41z"/>
	</g>
</g>
<g>
	<g>
		<path class="st1" d="M13.66,4.91c-3.3,0-6.64,0.76-6.64,2.21v9.32c0,1.45,3.34,2.21,6.64,2.21s6.64-0.76,6.64-2.21V7.12
			C20.3,5.67,16.96,4.91,13.66,4.91z M13.66,5.78c3.54,0,5.7,0.86,5.7,1.33c0,0.45-2.01,1.33-5.7,1.33s-5.7-0.88-5.7-1.33
			C7.96,6.65,10.12,5.78,13.66,5.78z M13.66,17.77c-3.69,0-5.7-0.88-5.7-1.33v-1.9c1.23,0.67,3.47,1.02,5.7,1.02s4.47-0.35,5.7-1.02
			v1.9C19.36,16.89,17.34,17.77,13.66,17.77z M13.66,14.68c-3.69,0-5.7-0.88-5.7-1.33v-1.91c1.23,0.67,3.47,1.02,5.7,1.02
			s4.47-0.35,5.7-1.02v1.91C19.36,13.8,17.34,14.68,13.66,14.68z M13.66,11.57c-3.69,0-5.7-0.88-5.7-1.33V8.31
			c1.22,0.67,3.47,1.02,5.7,1.02s4.48-0.35,5.7-1.02v1.93C19.36,10.69,17.34,11.57,13.66,11.57z"/>
	</g>
</g>
</svg>
