<?xml version="1.0" encoding="utf-8"?>
<!-- Generator: Adobe Illustrator 27.3.1, SVG Export Plug-In . SVG Version: 6.00 Build 0)  -->
<svg version="1.1" id="Layer_1" xmlns="http://www.w3.org/2000/svg" xmlns:xlink="http://www.w3.org/1999/xlink" x="0px" y="0px"
	 viewBox="0 0 27.36 23.69" style="enable-background:new 0 0 27.36 23.69;" xml:space="preserve">
<style type="text/css">
	.st0{fill:#FFFFFF;}
	.st1{fill:#9F53A0;}
</style>
<g>
	<g>
		<polygon class="st0" points="20.15,23.05 26.62,11.85 20.15,0.64 7.21,0.64 0.74,11.85 7.21,23.05 		"/>
		<path class="st1" d="M20.52,23.69H6.84L0,11.85L6.84,0h13.68l6.84,11.85L20.52,23.69z M7.58,22.41h12.19l6.1-10.56l-6.1-10.56
			H7.58l-6.1,10.56L7.58,22.41z"/>
	</g>
</g>
<g>
	<path class="st1" d="M12.06,9.46l-0.08-0.1c-0.31,0.17-0.61,0.41-0.91,0.71c-0.33,0.32-0.58,0.63-0.78,0.95l-0.05-0.12
		c-0.1-0.22-0.2-0.34-0.3-0.34c-0.1,0-0.23,0.05-0.35,0.2c0.07,0.02,0.15,0.07,0.2,0.15c0.05,0.05,0.09,0.11,0.13,0.19h0
		c0.02,0.04,0.04,0.08,0.06,0.12l0.06,0.13c0.05,0.13,0.08,0.24,0.11,0.29c0,0,0,0,0,0c0,0,0,0,0,0c0.05-0.05,0.1-0.1,0.23-0.17
		l0.13-0.07c0,0,0,0,0,0l0.02-0.01c0.04-0.09,0.09-0.18,0.15-0.28h-0.01c0.15-0.25,0.34-0.51,0.55-0.78
		C11.5,9.92,11.8,9.63,12.06,9.46z"/>
	<path class="st1" d="M10.65,8.71h6.04c-0.01-0.09-0.02-0.16-0.04-0.24c-0.1-0.52-0.37-0.89-0.92-1.02
		c-0.08-0.02-0.15-0.04-0.22-0.08c-0.26-0.1-0.4-0.29-0.4-0.58c0.01-0.22,0.01-0.44,0-0.66c-0.03-0.72-0.62-1.32-1.33-1.37
		c-0.77-0.04-1.43,0.45-1.54,1.19c-0.04,0.29-0.02,0.58-0.03,0.88c0,0.24-0.11,0.41-0.33,0.52c-0.09,0.04-0.17,0.08-0.27,0.1
		C11,7.59,10.71,8.03,10.65,8.71z M13.64,5.74c0.25,0,0.46,0.2,0.46,0.45c0,0.24-0.2,0.45-0.46,0.45c-0.25,0-0.46-0.2-0.46-0.45
		C13.18,5.94,13.38,5.74,13.64,5.74z"/>
	<path class="st1" d="M19.17,6.6c0-0.52-0.38-0.9-0.91-0.9h-2.07h-0.17v0.39c0,0.41,0.23,0.64,0.65,0.65h1
		c0.35,0,0.49,0.14,0.49,0.49c0,0.94,0.01,1.88,0.01,2.82v7.23c0,0.32-0.16,0.47-0.47,0.47c-2.68,0-5.35,0-8.03,0.01
		c-0.34,0-0.49-0.15-0.49-0.49V7.2c0-0.32,0.16-0.47,0.47-0.47c0.36,0,0.72,0,1.08,0c0.31,0,0.56-0.2,0.59-0.49
		c0.02-0.17,0-0.35,0-0.54h-0.17H9.08c-0.52,0-0.91,0.38-0.91,0.89c0,3.76,0,7.52,0,11.28c0,0.5,0.38,0.88,0.88,0.88h9.23
		c0.5,0,0.88-0.38,0.88-0.88C19.17,14.11,19.17,10.35,19.17,6.6z"/>
	<path class="st1" d="M16.4,11.42v-0.32v-0.18h-5.36v0.68h0.38c-0.12,0.1-0.23,0.2-0.35,0.31c-0.33,0.32-0.58,0.64-0.78,0.95
		l-0.05-0.12c-0.1-0.22-0.2-0.34-0.3-0.34c-0.1,0-0.23,0.05-0.35,0.2c0.07,0.02,0.15,0.07,0.2,0.15c0.08,0.07,0.13,0.2,0.2,0.34
		l0.05,0.12c0.05,0.12,0.07,0.22,0.1,0.27c0.05-0.05,0.1-0.09,0.23-0.17l0.13-0.07c0.15-0.34,0.41-0.71,0.71-1.07
		c0.17-0.22,0.34-0.4,0.5-0.55h4.71V11.42z"/>
	<path class="st1" d="M16.4,13.35v-0.32v-0.17h-5.36v0.68h0.27c-0.08,0.07-0.16,0.15-0.24,0.23c-0.33,0.33-0.58,0.66-0.78,1
		l-0.05-0.13c-0.1-0.23-0.2-0.36-0.3-0.36c-0.1,0-0.23,0.05-0.35,0.21c0.07,0.02,0.15,0.07,0.2,0.15c0.08,0.08,0.13,0.21,0.2,0.36
		l0.05,0.13c0.05,0.13,0.07,0.23,0.1,0.28c0.05-0.05,0.1-0.1,0.23-0.18l0.13-0.08c0.15-0.36,0.41-0.74,0.71-1.12
		c0.13-0.17,0.25-0.32,0.38-0.46h0.02c0.01-0.01,0.02-0.02,0.03-0.03h4.78V13.35z"/>
	<polygon class="st1" points="11.03,15.48 16.4,15.48 16.4,15.29 16.4,14.97 16.4,14.8 11.03,14.8 	"/>
</g>
</svg>
