<?xml version="1.0" encoding="utf-8"?>
<!-- Generator: Adobe Illustrator 27.3.1, SVG Export Plug-In . SVG Version: 6.00 Build 0)  -->
<svg version="1.1" id="Layer_1" xmlns="http://www.w3.org/2000/svg" xmlns:xlink="http://www.w3.org/1999/xlink" x="0px" y="0px"
	 viewBox="0 0 27.36 23.69" style="enable-background:new 0 0 27.36 23.69;" xml:space="preserve">
<style type="text/css">
	.st0{fill:#FFFFFF;}
	.st1{fill:#9F53A0;}
	.st2{fill-rule:evenodd;clip-rule:evenodd;fill:#9F53A0;}
</style>
<g>
	<g>
		<polygon class="st0" points="20.15,23.05 26.62,11.85 20.15,0.64 7.21,0.64 0.74,11.85 7.21,23.05 		"/>
		<path class="st1" d="M20.52,23.69H6.84L0,11.85L6.84,0h13.68l6.84,11.85L20.52,23.69z M7.58,22.41h12.19l6.1-10.56l-6.1-10.56
			H7.58l-6.1,10.56L7.58,22.41z"/>
	</g>
</g>
<g>
	<g>
		<path class="st2" d="M13.09,6.41c-0.07,0.05-0.13,0.07-0.25,0.07v0.18h0.31v0.81h0.25V6.23h-0.22
			C13.15,6.32,13.13,6.36,13.09,6.41"/>
		<path class="st2" d="M13.86,8.78c0-0.3,0.09-0.43,0.22-0.43c0.13,0,0.2,0.14,0.2,0.43c0,0.3-0.07,0.45-0.2,0.45
			C13.95,9.24,13.86,9.08,13.86,8.78 M14.44,9.26c0.07-0.11,0.11-0.27,0.11-0.48c0-0.2-0.04-0.34-0.11-0.45
			c-0.09-0.14-0.2-0.18-0.36-0.18c-0.16,0-0.27,0.05-0.36,0.16c-0.07,0.11-0.11,0.27-0.11,0.48c0,0.2,0.04,0.36,0.11,0.48
			c0.09,0.11,0.2,0.18,0.36,0.18C14.24,9.44,14.35,9.37,14.44,9.26"/>
		<path class="st2" d="M12.66,8.78c0-0.3,0.07-0.43,0.2-0.43c0.13,0,0.22,0.14,0.22,0.43c0,0.3-0.09,0.45-0.22,0.45
			C12.73,9.24,12.66,9.08,12.66,8.78 M13.22,9.26c0.07-0.11,0.11-0.27,0.11-0.48c0-0.2-0.04-0.34-0.11-0.45
			c-0.09-0.14-0.2-0.18-0.36-0.18c-0.16,0-0.27,0.05-0.36,0.16c-0.07,0.11-0.11,0.27-0.11,0.48c0,0.2,0.04,0.36,0.11,0.48
			c0.09,0.11,0.2,0.18,0.36,0.18C13.02,9.44,13.13,9.37,13.22,9.26"/>
		<path class="st2" d="M13.04,10.28c-0.05,0.05-0.14,0.07-0.25,0.07v0.18h0.32v0.81h0.25V10.1h-0.2
			C13.13,10.19,13.08,10.23,13.04,10.28"/>
		<path class="st2" d="M11.69,8.33c-0.07,0.05-0.13,0.07-0.25,0.07v0.18h0.31v0.84H12V8.17h-0.22C11.76,8.24,11.73,8.31,11.69,8.33"
			/>
		<path class="st2" d="M14.33,11.15c-0.16,0-0.22-0.14-0.22-0.43c0-0.29,0.07-0.45,0.22-0.45c0.13,0,0.2,0.16,0.2,0.45
			C14.53,11.02,14.46,11.15,14.33,11.15 M14.33,10.07c-0.16,0-0.27,0.07-0.36,0.18c-0.09,0.11-0.11,0.27-0.11,0.47
			c0,0.18,0.02,0.34,0.11,0.45c0.07,0.14,0.2,0.18,0.36,0.18c0.16,0,0.27-0.05,0.36-0.18c0.07-0.11,0.11-0.27,0.11-0.45
			c0-0.2-0.04-0.36-0.13-0.47C14.6,10.14,14.46,10.07,14.33,10.07"/>
		<path class="st2" d="M14.35,7.29c-0.14,0-0.2-0.14-0.2-0.43c0-0.29,0.07-0.45,0.2-0.45c0.14,0,0.23,0.16,0.23,0.45
			C14.58,7.15,14.49,7.29,14.35,7.29 M14.35,6.2c-0.16,0-0.27,0.07-0.36,0.18c-0.07,0.11-0.11,0.27-0.11,0.47
			c0,0.2,0.05,0.34,0.11,0.45c0.09,0.14,0.2,0.18,0.36,0.18c0.16,0,0.27-0.05,0.36-0.18c0.07-0.11,0.11-0.27,0.11-0.45
			c0-0.2-0.05-0.36-0.11-0.47C14.62,6.27,14.51,6.2,14.35,6.2"/>
		<path class="st2" d="M15.08,8.33c-0.05,0.05-0.14,0.07-0.25,0.07v0.18h0.32v0.84h0.25V8.17h-0.2C15.17,8.24,15.12,8.31,15.08,8.33
			"/>
		<path class="st2" d="M16.48,8.79c0,0.29-0.07,0.45-0.23,0.45c-0.14,0-0.2-0.16-0.2-0.45c0-0.29,0.07-0.43,0.2-0.43
			C16.41,8.36,16.48,8.49,16.48,8.79 M16.25,8.15c-0.16,0-0.27,0.05-0.34,0.16c-0.09,0.11-0.14,0.27-0.14,0.47
			c0,0.2,0.05,0.36,0.11,0.47c0.09,0.11,0.2,0.18,0.36,0.18c0.09,0,0.18-0.02,0.25-0.07c0,0.02,0,0.02-0.02,0.05
			c0,0.05,0,0.07-0.02,0.11c-0.09,0.34-0.23,0.66-0.41,0.93c-0.02-0.07-0.05-0.14-0.09-0.2c-0.09-0.11-0.2-0.18-0.36-0.18
			c-0.16,0-0.27,0.07-0.34,0.18c-0.09,0.11-0.14,0.27-0.14,0.47c0,0.18,0.05,0.34,0.11,0.45c0.02,0.02,0.05,0.05,0.05,0.07
			c-0.11,0.09-0.27,0.18-0.41,0.25c-0.09,0.05-0.18,0.07-0.27,0.11c-0.14,0.05-0.27,0.09-0.43,0.11c-0.09,0.02-0.18,0.05-0.29,0.05
			c-0.09,0.02-0.2,0.02-0.29,0.02c-0.11,0-0.2,0-0.32-0.02c-0.09,0-0.2-0.02-0.29-0.05c-0.14-0.02-0.29-0.07-0.43-0.11
			c-0.09-0.05-0.18-0.07-0.25-0.11c-0.09-0.05-0.18-0.09-0.25-0.14c0.11-0.02,0.2-0.09,0.27-0.18c0.09-0.11,0.11-0.27,0.11-0.45
			c0-0.2-0.02-0.36-0.11-0.47c-0.09-0.11-0.2-0.18-0.36-0.18c-0.16,0-0.27,0.07-0.34,0.18c-0.09,0.11-0.14,0.27-0.14,0.47
			c0,0.07,0.02,0.14,0.02,0.2l-0.05-0.05c0,0.02,0,0.02,0.02,0.02l-0.05-0.05l0.02,0.02l-0.09-0.09c-0.09-0.09-0.18-0.2-0.25-0.34
			c-0.05-0.05-0.09-0.11-0.11-0.16c-0.02-0.05-0.11-0.2-0.11-0.2c-0.07-0.18-0.16-0.36-0.2-0.57c0-0.02,0-0.07-0.02-0.09h0.02
			c0.16,0,0.27-0.07,0.36-0.18c0.07-0.11,0.11-0.27,0.11-0.47c0-0.2-0.05-0.34-0.14-0.45c-0.07-0.14-0.2-0.18-0.34-0.18h-0.02
			c0.02-0.09,0.05-0.18,0.07-0.25c0.05-0.16,0.09-0.29,0.16-0.43c0.02-0.02,0.07-0.11,0.07-0.11c0.05-0.09,0.09-0.16,0.16-0.25
			c0.11-0.18,0.27-0.36,0.43-0.52c-0.02,0.07-0.02,0.16-0.02,0.27c0,0.2,0.05,0.34,0.11,0.45c0.09,0.14,0.2,0.18,0.36,0.18
			c0.16,0,0.27-0.05,0.36-0.18c0.07-0.11,0.11-0.27,0.11-0.45c0-0.2-0.05-0.36-0.11-0.47c-0.09-0.11-0.18-0.16-0.32-0.18
			c0.45-0.27,0.97-0.41,1.54-0.41c0.68,0,1.31,0.23,1.83,0.63c-0.07,0.02-0.14,0.05-0.23,0.05v0.18h0.32v0.81h0.25V6.75
			c0.11,0.11,0.2,0.23,0.29,0.36c0.05,0.09,0.09,0.16,0.14,0.25c0.11,0.16,0.18,0.34,0.23,0.54c0.05,0.09,0.07,0.18,0.07,0.27
			c0,0,0.02,0,0.02,0.05C16.43,8.18,16.34,8.15,16.25,8.15 M15.82,10.75c-0.02,0.02-0.02,0.05-0.05,0.05
			c-0.02,0.05-0.07,0.07-0.09,0.11c-0.07,0.07-0.14,0.14-0.2,0.18c-0.07-0.07-0.09-0.18-0.09-0.36c0-0.29,0.07-0.45,0.2-0.45
			c0.16,0,0.23,0.16,0.23,0.45V10.75z M11.76,10.73c0-0.29,0.07-0.45,0.2-0.45c0.16,0,0.23,0.16,0.23,0.45
			c0,0.29-0.07,0.43-0.23,0.43C11.83,11.16,11.76,11.02,11.76,10.73 M10.61,8.79c0-0.14,0.02-0.29,0.02-0.43h0.07
			c0.14,0,0.2,0.14,0.2,0.43c0,0.29-0.07,0.45-0.2,0.45c-0.02,0-0.05,0-0.07-0.02C10.63,9.08,10.61,8.94,10.61,8.79 M12.01,6.41
			c0.14,0,0.2,0.16,0.2,0.45s-0.07,0.43-0.2,0.43c-0.16,0-0.23-0.14-0.23-0.43S11.85,6.41,12.01,6.41 M4.92,14.91
			c-0.09-0.02-0.27-0.43-0.27-1.18c0-0.72,0.18-1.13,0.27-1.15c0.09,0.02,0.27,0.43,0.27,1.15C5.19,14.48,5.01,14.89,4.92,14.91
			 M22.57,12.29h-2.42L17,8.74c-0.02-1.88-1.54-3.41-3.41-3.41c-0.93,0-1.78,0.36-2.44,1.02C10.52,7,10.16,7.86,10.16,8.79
			c0,0.11,0,0.2,0.02,0.29l-2.84,3.21H4.92c-0.38,0-0.56,0.75-0.56,1.45s0.18,1.47,0.56,1.47h7.16v-0.54h-3.3l0.34-0.41h2.33v-0.54
			H9.59l1.92-2.17c0.59,0.43,1.29,0.7,2.08,0.7c0.86,0,1.65-0.32,2.23-0.86l2.05,2.33h-1.02v0.54h1.51l0.34,0.41h-1.22v0.54h5.08
			c0.38,0,0.56-0.77,0.56-1.47S22.96,12.29,22.57,12.29"/>
		<rect x="12.35" y="13.71" class="st2" width="1.35" height="0.55"/>
		<rect x="14.6" y="13.71" class="st2" width="1.35" height="0.55"/>
		<rect x="15.23" y="14.67" class="st2" width="1.35" height="0.54"/>
		<rect x="12.97" y="14.67" class="st2" width="1.35" height="0.54"/>
	</g>
</g>
</svg>
