<?xml version="1.0" encoding="utf-8"?>
<!-- Generator: Adobe Illustrator 27.3.1, SVG Export Plug-In . SVG Version: 6.00 Build 0)  -->
<svg version="1.1" id="Layer_1" xmlns="http://www.w3.org/2000/svg" xmlns:xlink="http://www.w3.org/1999/xlink" x="0px" y="0px"
	 viewBox="0 0 27.36 23.69" style="enable-background:new 0 0 27.36 23.69;" xml:space="preserve">
<style type="text/css">
	.st0{fill:#FFFFFF;}
	.st1{fill:#9F53A0;}
</style>
<g>
	<g>
		<polygon class="st0" points="20.15,23.05 26.62,11.85 20.15,0.64 7.21,0.64 0.74,11.85 7.21,23.05 		"/>
		<path class="st1" d="M20.52,23.69H6.84L0,11.85L6.84,0h13.68l6.84,11.85L20.52,23.69z M7.58,22.41h12.19l6.1-10.56l-6.1-10.56
			H7.58l-6.1,10.56L7.58,22.41z"/>
	</g>
</g>
<g>
	<g>
		<g>
			<g>
				<path class="st1" d="M8.91,7.88v8.57c0,1.06-0.86,1.91-1.91,1.91H6.82c-1.06,0-1.91-0.86-1.91-1.91V7.88
					c0-0.91,0.63-1.67,1.48-1.86v2.55c0,0.28,0.22,0.5,0.5,0.5h0.05c0.28,0,0.5-0.22,0.5-0.5V6.02C8.28,6.22,8.91,6.98,8.91,7.88z
					 M21.94,6.96v10.48c0,0.53-0.43,0.96-0.96,0.96h-10.5c-0.53,0-0.96-0.43-0.96-0.96V6.96C9.53,6.43,9.96,6,10.49,6h10.5
					C21.52,6,21.94,6.43,21.94,6.96z M11.91,14.8c0-0.35-0.29-0.64-0.64-0.64c-0.35,0-0.64,0.29-0.64,0.64
					c0,0.35,0.29,0.64,0.64,0.64C11.62,15.43,11.91,15.15,11.91,14.8z M13.82,14.8c0-0.35-0.29-0.64-0.64-0.64
					c-0.35,0-0.64,0.29-0.64,0.64c0,0.35,0.29,0.64,0.64,0.64C13.53,15.43,13.82,15.15,13.82,14.8z M15.73,14.8
					c0-0.35-0.29-0.64-0.64-0.64s-0.64,0.29-0.64,0.64c0,0.35,0.29,0.64,0.64,0.64S15.73,15.15,15.73,14.8z M16.95,7.21h-6.11v5.53
					h6.11V7.21z M20.81,11.99c0-0.33-0.27-0.6-0.61-0.62v0h-1.39v0c0,0,0,0,0,0c-0.35,0-0.64,0.28-0.64,0.62
					c0,0.34,0.29,0.62,0.64,0.62c0,0,0,0,0,0v0h1.39v0C20.54,12.59,20.81,12.32,20.81,11.99z M20.81,9.84c0-0.33-0.27-0.6-0.61-0.62
					v0h-1.39v0c0,0,0,0,0,0c-0.35,0-0.64,0.28-0.64,0.62c0,0.34,0.29,0.62,0.64,0.62c0,0,0,0,0,0v0h1.39v0
					C20.54,10.44,20.81,10.17,20.81,9.84z M20.81,7.69c0-0.33-0.27-0.6-0.61-0.62v0h-1.39v0c0,0,0,0,0,0
					c-0.35,0-0.64,0.28-0.64,0.62c0,0.34,0.29,0.62,0.64,0.62c0,0,0,0,0,0v0h1.39v0C20.54,8.29,20.81,8.02,20.81,7.69z"/>
			</g>
		</g>
	</g>
</g>
</svg>
