<?xml version="1.0" encoding="utf-8"?>
<!-- Generator: Adobe Illustrator 27.3.1, SVG Export Plug-In . SVG Version: 6.00 Build 0)  -->
<svg version="1.1" id="Layer_1" xmlns="http://www.w3.org/2000/svg" xmlns:xlink="http://www.w3.org/1999/xlink" x="0px" y="0px"
	 viewBox="0 0 27.36 23.69" style="enable-background:new 0 0 27.36 23.69;" xml:space="preserve">
<style type="text/css">
	.st0{fill:#FFFFFF;}
	.st1{fill:#9F53A0;}
	.st2{fill-rule:evenodd;clip-rule:evenodd;fill:#9F53A0;}
</style>
<g>
	<g>
		<polygon class="st0" points="20.15,23.05 26.62,11.85 20.15,0.64 7.21,0.64 0.74,11.85 7.21,23.05 		"/>
		<path class="st1" d="M20.52,23.69H6.84L0,11.85L6.84,0h13.68l6.84,11.85L20.52,23.69z M7.58,22.41h12.19l6.1-10.56l-6.1-10.56
			H7.58l-6.1,10.56L7.58,22.41z"/>
	</g>
</g>
<g>
	<path class="st2" d="M11.05,12.01l-0.24-0.77c0.3-0.21,0.61-0.42,0.87-0.71l0.7,0.36c0.17,0.13,0.4,0.06,0.5-0.14l0.34-0.64
		c0.13-0.17,0.06-0.38-0.14-0.5l-0.73-0.4c0.12-0.3,0.16-0.71,0.12-1.09l0.8-0.25c0.18-0.06,0.29-0.26,0.24-0.44L13.3,6.7
		c-0.04-0.18-0.24-0.28-0.47-0.21l-0.75,0.22c-0.17-0.33-0.43-0.61-0.71-0.88l0.4-0.72c0.06-0.19,0.02-0.37-0.14-0.5l-0.64-0.35
		c-0.2-0.1-0.43-0.03-0.53,0.17l-0.36,0.71C9.72,5.02,9.35,5.02,8.97,5.06L8.75,4.23C8.67,4.06,8.5,3.95,8.27,4.02L7.6,4.2
		C7.39,4.27,7.27,4.47,7.33,4.65l0.25,0.8C7.24,5.62,6.97,5.87,6.7,6.17l-0.73-0.4C5.83,5.67,5.6,5.74,5.49,5.91L5.14,6.55
		c-0.1,0.21-0.03,0.44,0.16,0.5l0.72,0.4C5.92,7.8,5.88,8.2,5.89,8.54l-0.8,0.25C4.91,8.84,4.81,9.05,4.88,9.26l0.18,0.69
		c0.07,0.21,0.27,0.31,0.5,0.26l0.75-0.24c0.17,0.33,0.41,0.61,0.68,0.84l-0.34,0.75c-0.13,0.17-0.06,0.4,0.11,0.51l0.68,0.33
		c0.17,0.13,0.37,0.02,0.5-0.14l0.36-0.71c0.34,0.09,0.74,0.15,1.12,0.09l0.2,0.8c0.1,0.2,0.27,0.31,0.48,0.26l0.73-0.21
		C10.99,12.39,11.1,12.22,11.05,12.01 M7.04,8.99c-0.35-1.21,0.31-2.43,1.52-2.8c1.19-0.39,2.42,0.31,2.79,1.52
		c0.32,1.17-0.31,2.45-1.52,2.8C8.66,10.85,7.41,10.2,7.04,8.99"/>
</g>
<path class="st1" d="M21.2,17.05h-0.12v-4.61c0-0.48-0.39-0.87-0.87-0.87h-7.58c-0.48,0-0.87,0.39-0.87,0.87v4.61h-0.12
	c-0.43,0-0.78,0.35-0.78,0.78s0.35,0.78,0.78,0.78h9.56c0.43,0,0.78-0.35,0.78-0.78S21.63,17.05,21.2,17.05z M12.44,12.43
	c0-0.1,0.08-0.19,0.19-0.19h7.58c0.1,0,0.19,0.08,0.19,0.19v4.61h-7.96V12.43z"/>
</svg>
