<?xml version="1.0" encoding="utf-8"?>
<!-- Generator: Adobe Illustrator 27.3.1, SVG Export Plug-In . SVG Version: 6.00 Build 0)  -->
<svg version="1.1" id="Layer_1" xmlns="http://www.w3.org/2000/svg" xmlns:xlink="http://www.w3.org/1999/xlink" x="0px" y="0px"
	 viewBox="0 0 27.4 23.7" style="enable-background:new 0 0 27.4 23.7;" xml:space="preserve">
<style type="text/css">
	.st0{fill:#FFFFFF;}
	.st1{fill:#9F53A0;}
	.st2{fill-rule:evenodd;clip-rule:evenodd;fill:#9F53A0;}
</style>
<g>
	<g>
		<polygon class="st0" points="20.1,23 26.6,11.8 20.1,0.6 7.2,0.6 0.7,11.8 7.2,23 		"/>
		<path class="st1" d="M20.5,23.7H6.8L0,11.8L6.8,0h13.7l6.8,11.8L20.5,23.7z M7.6,22.4h12.2l6.1-10.6L19.8,1.3H7.6L1.5,11.8
			L7.6,22.4z"/>
	</g>
</g>
<g>
	<path class="st2" d="M16.8,11.7c0,0.3-0.1,0.4-0.2,0.4c-0.1,0-0.2-0.1-0.2-0.4s0.1-0.4,0.2-0.4C16.7,11.2,16.8,11.4,16.8,11.7
		 M15,14.3c-0.1,0.1-0.3,0.1-0.4,0.1c-0.1,0-0.2,0-0.3,0c-0.1,0-0.2,0-0.3,0c-0.1,0-0.2,0-0.3,0c-0.1,0-0.2,0-0.3,0
		c-0.1,0-0.3-0.1-0.4-0.1c-0.1,0-0.2-0.1-0.3-0.1c-0.1,0-0.1-0.1-0.2-0.1c0.1,0,0.2-0.1,0.3-0.2c0.1-0.1,0.1-0.3,0.1-0.5
		c0-0.2,0-0.3-0.1-0.4c-0.1-0.1-0.2-0.2-0.3-0.2c-0.1,0-0.3,0-0.3,0.2c-0.1,0.1-0.1,0.3-0.1,0.5v0.2l0,0c0,0,0,0,0,0l0,0l0,0
		c0,0,0-0.1-0.1-0.1c-0.1-0.1-0.2-0.2-0.3-0.3c0,0-0.1-0.1-0.1-0.2c0,0-0.1-0.2-0.1-0.2c-0.1-0.2-0.1-0.3-0.2-0.5c0,0,0-0.1,0-0.1v0
		c0.1,0,0.3-0.1,0.3-0.2c0.1-0.1,0.1-0.3,0.1-0.4c0-0.2,0-0.3-0.1-0.5c-0.1-0.1-0.2-0.2-0.3-0.2h0c0-0.1,0-0.2,0.1-0.2
		c0-0.1,0.1-0.3,0.2-0.4c0,0,0-0.1,0-0.1c0-0.1,0.1-0.2,0.1-0.2c0.1-0.2,0.3-0.3,0.4-0.5c0,0.1,0,0.2,0,0.3c0,0.2,0,0.3,0.1,0.4
		c0.1,0.1,0.2,0.2,0.3,0.2s0.3-0.1,0.3-0.2c0.1-0.1,0.1-0.3,0.1-0.4c0-0.2,0-0.3-0.1-0.5c-0.1-0.1-0.2-0.2-0.3-0.2
		c0.4-0.3,0.9-0.4,1.4-0.4c0.6,0,1.2,0.2,1.7,0.6c0,0-0.1,0-0.2,0v0.2h0.3v0.8h0.2V9.7c0.1,0.1,0.2,0.2,0.3,0.3
		c0.1,0.1,0.1,0.2,0.1,0.2c0.1,0.2,0.1,0.3,0.2,0.5c0,0.1,0,0.2,0.1,0.3v0c-0.1,0-0.1-0.1-0.2-0.1c-0.1,0-0.3,0.1-0.3,0.2
		c-0.1,0.1-0.1,0.3-0.1,0.5s0,0.3,0.1,0.5c0.1,0.1,0.2,0.2,0.3,0.2c0.1,0,0.1,0,0.2-0.1v0c0,0,0,0.1,0,0.1c-0.1,0.3-0.2,0.6-0.4,0.9
		c0-0.1,0-0.2-0.1-0.2c-0.1-0.1-0.2-0.2-0.3-0.2c-0.1,0-0.3,0-0.3,0.2c-0.1,0.1-0.1,0.3-0.1,0.5c0,0.2,0,0.3,0.1,0.5c0,0,0,0,0,0
		c-0.1,0.1-0.3,0.2-0.4,0.2C15.2,14.3,15.1,14.3,15,14.3 M12.4,13.5c0-0.3,0.1-0.4,0.2-0.4c0.1,0,0.2,0.1,0.2,0.4
		c0,0.3-0.1,0.4-0.2,0.4C12.5,13.9,12.4,13.8,12.4,13.5 M6.6,13.7c-0.1,0-0.5-0.8-0.5-2.1s0.3-2.1,0.5-2.1c0.1,0,0.5,0.8,0.5,2.1
		S6.7,13.7,6.6,13.7 M12.6,9.4c0.1,0,0.2,0.2,0.2,0.4c0,0.3-0.1,0.4-0.2,0.4c-0.1,0-0.2-0.2-0.2-0.4C12.5,9.5,12.5,9.4,12.6,9.4
		 M11.3,11.7c0-0.2,0-0.3,0-0.4h0c0.1,0,0.2,0.1,0.2,0.4s-0.1,0.4-0.2,0.4h0C11.4,11.9,11.3,11.8,11.3,11.7 M15.8,13.5
		c0-0.3,0.1-0.4,0.2-0.4c0.1,0,0.2,0.1,0.2,0.4v0c0,0,0,0,0,0c0,0,0,0.1-0.1,0.1c-0.1,0.1-0.1,0.1-0.2,0.2
		C15.8,13.8,15.8,13.7,15.8,13.5 M21.6,9H16c-0.5-0.4-1.2-0.7-1.9-0.7c-0.7,0-1.4,0.2-1.9,0.7H6.6c-0.7,0-1,1.4-1,2.6
		c0,1.3,0.3,2.6,1,2.6h5.6c0.5,0.4,1.2,0.7,2,0.7c0.7,0,1.4-0.3,2-0.7h5.6c0.7,0,1-1.4,1-2.6C22.6,10.4,22.3,9,21.6,9"/>
	<path class="st2" d="M13.6,9.4c0,0-0.1,0-0.2,0v0.2h0.3v0.8h0.2V9.2h-0.2C13.7,9.3,13.7,9.3,13.6,9.4"/>
	<path class="st2" d="M14.4,11.7c0-0.3,0.1-0.4,0.2-0.4c0.1,0,0.2,0.1,0.2,0.4s-0.1,0.4-0.2,0.4C14.4,12.1,14.4,11.9,14.4,11.7
		 M14.9,12.1C15,12,15,11.8,15,11.7c0-0.2,0-0.3-0.1-0.5c-0.1-0.1-0.2-0.2-0.3-0.2c-0.1,0-0.2,0.1-0.3,0.2c-0.1,0.1-0.1,0.3-0.1,0.5
		s0,0.3,0.1,0.5c0.1,0.1,0.2,0.2,0.3,0.2C14.7,12.3,14.8,12.2,14.9,12.1"/>
	<path class="st2" d="M13.2,11.7c0-0.3,0.1-0.4,0.2-0.4c0.1,0,0.2,0.1,0.2,0.4c0,0.3-0.1,0.4-0.2,0.4C13.3,12.1,13.2,11.9,13.2,11.7
		 M13.8,12.1c0.1-0.1,0.1-0.3,0.1-0.4c0-0.2,0-0.3-0.1-0.5c-0.1-0.1-0.2-0.2-0.3-0.2c-0.1,0-0.2,0.1-0.3,0.2
		C13,11.3,13,11.5,13,11.7s0,0.3,0.1,0.5c0.1,0.1,0.2,0.2,0.3,0.2C13.6,12.3,13.7,12.2,13.8,12.1"/>
	<path class="st2" d="M13.6,13.1c-0.1,0-0.1,0.1-0.2,0.1v0.2h0.3v0.8h0.3v-1.2h-0.2C13.7,13,13.7,13,13.6,13.1"/>
	<path class="st2" d="M12.3,11.2c0,0-0.1,0.1-0.2,0.1v0.2h0.3v0.8h0.2V11h-0.2C12.4,11.1,12.4,11.2,12.3,11.2"/>
	<path class="st2" d="M14.8,13.9c-0.1,0-0.2-0.2-0.2-0.4s0.1-0.4,0.2-0.4c0.1,0,0.2,0.1,0.2,0.4S14.9,13.9,14.8,13.9 M14.8,12.9
		c-0.1,0-0.2,0-0.3,0.2c-0.1,0.1-0.1,0.3-0.1,0.5c0,0.2,0,0.3,0.1,0.5c0.1,0.1,0.2,0.2,0.3,0.2c0.1,0,0.2-0.1,0.3-0.2
		c0.1-0.1,0.1-0.3,0.1-0.5c0-0.2,0-0.3-0.1-0.4C15,12.9,14.9,12.9,14.8,12.9"/>
	<path class="st2" d="M14.8,10.2c-0.1,0-0.2-0.2-0.2-0.4c0-0.3,0.1-0.4,0.2-0.4C15,9.4,15,9.5,15,9.8C15,10.1,15,10.2,14.8,10.2
		 M14.8,9.2c-0.1,0-0.3,0-0.3,0.2c-0.1,0.1-0.1,0.3-0.1,0.5c0,0.2,0,0.3,0.1,0.4c0.1,0.1,0.2,0.2,0.3,0.2c0.1,0,0.3-0.1,0.3-0.2
		c0.1-0.1,0.1-0.3,0.1-0.4c0-0.2,0-0.3-0.1-0.5C15.1,9.3,15,9.2,14.8,9.2"/>
	<path class="st2" d="M15.5,12.2h0.2V11h-0.2c0,0.1-0.1,0.1-0.1,0.2c0,0-0.1,0.1-0.2,0.1v0.2h0.3V12.2z"/>
</g>
<g>
</g>
<g>
</g>
<g>
</g>
<g>
</g>
<g>
</g>
<g>
</g>
</svg>
