<?xml version="1.0" encoding="utf-8"?>
<!-- Generator: Adobe Illustrator 27.3.1, SVG Export Plug-In . SVG Version: 6.00 Build 0)  -->
<svg version="1.1" id="Layer_1" xmlns="http://www.w3.org/2000/svg" xmlns:xlink="http://www.w3.org/1999/xlink" x="0px" y="0px"
	 viewBox="0 0 27.4 23.7" style="enable-background:new 0 0 27.4 23.7;" xml:space="preserve">
<style type="text/css">
	.st0{fill:#A153A0;}
	.st1{fill:#FFFFFF;}
</style>
<polygon class="st0" points="20.5,23.7 27.4,11.8 20.5,0 6.8,0 0,11.8 6.8,23.7 "/>
<path class="st1" d="M19.1,8.9c0.6-0.5,1.1-1.6,1.1-2.5c0-0.5-0.1-0.9-0.4-1.1c-0.3-0.3-0.7-0.4-1.1-0.4c-0.8,0-1.9,0.5-2.5,1.1
	l-0.9,1c0,0,0,0,0,0l-0.2,0.2l-1.6-0.1c0-0.1,0-0.2,0-0.3c0-0.3-0.1-0.7-0.4-0.9c-0.2-0.2-0.6-0.4-0.9-0.4c0,0,0,0,0,0
	c-0.3,0-0.7,0.1-0.9,0.4l-1,1L8.6,6.8c0,0,0,0,0,0c-0.3,0-0.6,0.1-0.9,0.3L7.2,7.7c-0.3,0.3-0.4,0.6-0.3,1C7,9,7.2,9.3,7.6,9.4
	c0,0,0,0,0,0l4.4,1.3l-2,2.2l-2.6-0.2c-0.3,0-0.5,0.1-0.7,0.3l-0.4,0.4c-0.2,0.2-0.3,0.5-0.2,0.7c0.1,0.3,0.3,0.5,0.5,0.6l1.4,0.4
	c-0.1,0.2-0.2,0.5-0.2,0.8c0,0.4,0.2,0.7,0.4,1c0.3,0.3,0.7,0.4,1,0.4c0.3,0,0.5-0.1,0.8-0.2l0.4,1.4c0.1,0.3,0.3,0.5,0.6,0.5
	c0.1,0,0.1,0,0.2,0c0.2,0,0.4-0.1,0.5-0.2l0.4-0.4c0.2-0.2,0.3-0.5,0.3-0.7l-0.2-2.6l2.2-2l1.3,4.4c0,0,0,0,0,0
	c0.1,0.3,0.4,0.6,0.7,0.7c0.1,0,0.2,0,0.3,0c0.3,0,0.5-0.1,0.7-0.3l0.5-0.5c0.2-0.2,0.4-0.5,0.3-0.9c0,0,0,0,0,0l-0.1-1.8l1-1
	c0.5-0.5,0.5-1.3,0-1.8c-0.2-0.2-0.6-0.4-0.9-0.4c0,0,0,0,0,0c-0.1,0-0.2,0-0.3,0L17.9,10l0.2-0.2l0,0c0,0,0,0,0,0L19.1,8.9z
	 M11.9,6.4c0.2-0.2,0.6-0.2,0.9,0C12.9,6.5,13,6.7,13,6.8c0,0.1,0,0.2-0.1,0.3L11.3,7L11.9,6.4z M7.5,8.5c0-0.1,0-0.3,0.1-0.4
	l0.5-0.5c0.1-0.1,0.2-0.2,0.4-0.1l2,0.1L13,7.8l1.5,0.1l-2.1,2.3L7.8,8.8C7.6,8.7,7.6,8.6,7.5,8.5z M6.8,14c0,0,0-0.1,0-0.1l0.4-0.4
	c0.1-0.1,0.1-0.1,0.2-0.1c0,0,0,0,0,0l2,0.1l-0.9,1L6.8,14C6.8,14,6.8,14,6.8,14z M11.7,17.9l-0.4,0.4c0,0-0.1,0-0.1,0
	c0,0-0.1,0-0.1-0.1l-0.5-1.7l1-0.9l0.1,2C11.8,17.8,11.7,17.9,11.7,17.9z M18.3,12.2C18.3,12.2,18.3,12.2,18.3,12.2
	c0.2,0,0.3,0.1,0.4,0.2c0.2,0.2,0.2,0.6,0,0.9l-0.6,0.6L18,12.2C18.1,12.2,18.2,12.2,18.3,12.2z M17.4,12.1l0.2,2.5l0.1,2
	c0,0.1,0,0.3-0.1,0.4L17,17.5c-0.1,0.1-0.2,0.1-0.4,0.1c-0.1,0-0.2-0.1-0.3-0.3L15,12.7l0.9-0.8l1.4-1.3L17.4,12.1z M17.7,9.3
	C17.7,9.4,17.7,9.4,17.7,9.3l-0.3,0.3c0,0,0,0,0,0l-1.9,1.7l-5.6,5.1c-0.3,0.3-0.8,0.3-1.1,0c-0.1-0.1-0.2-0.3-0.2-0.6
	c0-0.2,0.1-0.4,0.2-0.6l0.2-0.2c0,0,0,0,0,0l1.5-1.7c0,0,0,0,0,0l2.4-2.7c0,0,0,0,0,0l2.7-3l0,0c0,0,0,0,0,0l0.3-0.3c0,0,0,0,0,0
	l0.9-1c0.4-0.4,1.3-0.9,2-0.9c0.2,0,0.5,0,0.7,0.2c0.2,0.2,0.2,0.4,0.2,0.7c0,0.7-0.5,1.6-0.9,2L17.7,9.3z"/>
<g>
</g>
<g>
</g>
<g>
</g>
<g>
</g>
<g>
</g>
<g>
</g>
</svg>
