<?xml version="1.0" encoding="utf-8"?>
<!-- Generator: Adobe Illustrator 27.3.1, SVG Export Plug-In . SVG Version: 6.00 Build 0)  -->
<svg version="1.1" id="Layer_1" xmlns="http://www.w3.org/2000/svg" xmlns:xlink="http://www.w3.org/1999/xlink" x="0px" y="0px"
	 viewBox="0 0 27.4 23.7" style="enable-background:new 0 0 27.4 23.7;" xml:space="preserve">
<style type="text/css">
	.st0{fill:#A153A0;}
	.st1{fill:#FFFFFF;}
</style>
<g>
	<g>
		<polygon class="st0" points="20.5,23.7 27.4,11.8 20.5,0 6.8,0 0,11.8 6.8,23.7 		"/>
		<g>
			<path class="st1" d="M18.1,2H9.3C8.6,2,8,2.6,8,3.4v16.8c0,0.7,0.6,1.3,1.3,1.3h8.8c0.7,0,1.3-0.6,1.3-1.3V3.4
				C19.5,2.6,18.9,2,18.1,2z M9.3,2.9h8.8c0.3,0,0.5,0.2,0.5,0.5v3.4H8.8V3.4C8.8,3.1,9,2.9,9.3,2.9z M18.1,20.7H9.3
				c-0.3,0-0.5-0.2-0.5-0.5V7.7h9.8v12.5C18.6,20.5,18.4,20.7,18.1,20.7z"/>
			<path class="st1" d="M14.1,9.1v1.1h-0.8V9.1c-0.5,0.2-0.8,0.6-0.8,1.1c0,0.7,0.5,1.2,1.2,1.2s1.2-0.5,1.2-1.2
				C14.9,9.7,14.6,9.3,14.1,9.1z"/>
		</g>
	</g>
</g>
<g>
</g>
<g>
</g>
<g>
</g>
<g>
</g>
<g>
</g>
<g>
</g>
</svg>
