<?xml version="1.0" encoding="utf-8"?>
<!-- Generator: Adobe Illustrator 27.3.1, SVG Export Plug-In . SVG Version: 6.00 Build 0)  -->
<svg version="1.1" id="Layer_1" xmlns="http://www.w3.org/2000/svg" xmlns:xlink="http://www.w3.org/1999/xlink" x="0px" y="0px"
	 viewBox="0 0 27.4 23.7" style="enable-background:new 0 0 27.4 23.7;" xml:space="preserve">
<style type="text/css">
	.st0{fill:#A153A0;}
	.st1{fill-rule:evenodd;clip-rule:evenodd;fill:#FFFFFF;}
</style>
<g>
	<g>
		<polygon class="st0" points="20.5,23.7 27.4,11.8 20.5,0 6.8,0 0,11.8 6.8,23.7 		"/>
	</g>
</g>
<g>
	<g>
		<path class="st1" d="M23.2,14.9l-0.9-1.4h-5.8v1.8H23C23.2,15.3,23.3,15.1,23.2,14.9z"/>
		<path class="st1" d="M21.8,12.4c0,0.2-0.2,0.4-0.4,0.4h-5v0.4h5.3c0.3,0,0.5-0.2,0.5-0.5v-0.5c-0.1,0-0.3,0-0.5,0.1V12.4z"/>
		<path class="st1" d="M15.5,14.9H9.6v-2.4c-0.2,0-0.3,0-0.5,0v3.7c0,0.2,0.1,0.3,0.3,0.3h6.3c0.2,0,0.3-0.1,0.3-0.3v-3.6
			c-0.2,0-0.3,0-0.5,0V14.9z M12.6,16.1c-0.2,0-0.4-0.2-0.4-0.4c0-0.2,0.2-0.4,0.4-0.4c0.2,0,0.4,0.2,0.4,0.4
			C12.9,15.9,12.7,16.1,12.6,16.1"/>
		<path class="st1" d="M13.6,12.2c6.1,0,11.1-0.6,11.2-1.2c0-0.3-0.9-0.6-2.5-0.8V9.2c0-0.3-0.2-0.5-0.5-0.5h-5.3v0.4h4.9
			c0.2,0,0.4,0.2,0.4,0.4v2c-1.4,0.2-3.4,0.3-5.8,0.4V7.8c0-0.2-0.1-0.3-0.3-0.3H9.4C9.2,7.5,9,7.6,9,7.8v4
			c-1.4-0.1-2.7-0.2-3.6-0.3V9.5h3.2V8.6c-0.3-0.2-0.8-0.2-1-0.2H7.1H7H6.5c-0.5,0-1.5,0.3-1.5,0.8v0.9c-1.7,0.2-2.7,0.5-2.7,0.8
			C2.5,11.6,7.5,12.2,13.6,12.2 M22.3,10.3c1,0.2,1.5,0.4,1.5,0.6c0,0.1-0.2,0.2-0.5,0.3c-0.2,0.1-0.6,0.1-1,0.2V10.3z M9.6,8.5h5.9
			v3.4c-0.6,0-1.2,0-1.9,0c-1.4,0-2.8-0.1-4.1-0.1V8.5z M6.3,9.1h1.4c0.1,0,0.1,0.1,0.1,0.1S7.8,9.3,7.8,9.3H6.3
			c0,0-0.1-0.1-0.1-0.1S6.3,9.1,6.3,9.1 M5.1,10.3v1.1c-0.4-0.1-0.8-0.1-1.1-0.2c-0.3-0.1-0.5-0.2-0.5-0.3C3.5,10.6,4,10.5,5.1,10.3
			"/>
	</g>
	<path class="st1" d="M5.4,14.5v-2.3c-0.1,0-0.3,0-0.4-0.1v2.7c0,0.4,1,0.8,1.5,0.8h0.3H7h0.6c0.3,0,0.7-0.1,1-0.3v-0.9H5.4z
		 M7.1,15.2c-0.1,0-0.2-0.1-0.2-0.2s0.1-0.2,0.2-0.2s0.2,0.1,0.2,0.2S7.2,15.2,7.1,15.2z"/>
</g>
<g>
</g>
<g>
</g>
<g>
</g>
<g>
</g>
<g>
</g>
<g>
</g>
</svg>
