<?xml version="1.0" encoding="utf-8"?>
<!-- Generator: Adobe Illustrator 27.3.1, SVG Export Plug-In . SVG Version: 6.00 Build 0)  -->
<svg version="1.1" id="Layer_1" xmlns="http://www.w3.org/2000/svg" xmlns:xlink="http://www.w3.org/1999/xlink" x="0px" y="0px"
	 viewBox="0 0 27.4 23.7" style="enable-background:new 0 0 27.4 23.7;" xml:space="preserve">
<style type="text/css">
	.st0{fill:#A153A0;}
	.st1{fill:#FFFFFF;}
</style>
<g>
	<g>
		<polygon class="st0" points="20.5,23.7 27.4,11.8 20.5,0 6.8,0 0,11.8 6.8,23.7 		"/>
		<g>
			<g>
				<g>
					<g>
						<path class="st1" d="M5.2,13.8L5.2,13.8v0.2v0h2.5v2H5.2v0v0.1v0h5.4v2H5.2v0v0.1v0h2.5v2H5.2v0v0.1v0h5.4v1.9h0.2v-1.9h5.6
							v1.9h0.2v-1.9h5.6v0v-0.1v0h-2.6v-2h2.6v0v-0.1v0h-5.6v-2h5.6v0V16v0h-2.6v-2h2.6v0v-0.1v0H5.2z M7.9,14h5.6v2H7.9V14z
							 M7.9,18.4h5.6v2H7.9V18.4z M19.3,20.3h-5.6v-2h5.6V20.3z M16.4,18.1h-5.6v-2h5.6V18.1z M19.3,15.9h-5.6v-2h5.6V15.9z"/>
					</g>
				</g>
				<path class="st1" d="M13.9,1.5c-2.2,0-4,1.8-4,4c0,2.2,1.8,4,4,4c2.2,0,4-1.8,4-4C17.9,3.3,16.1,1.5,13.9,1.5z M13.9,8.5
					c-1.7,0-3-1.3-3-3c0-1.7,1.3-3,3-3c1.7,0,3,1.3,3,3C16.9,7.2,15.6,8.5,13.9,8.5z M8.9,9.1l-2,2c-0.4,0.4-0.4,1.1,0,1.5
					C7.3,13,8,13,8.4,12.5l2-2c0.4-0.4,0.4-1.1,0-1.5C10,8.7,9.3,8.7,8.9,9.1z M14.2,5.3c-0.1,0.1-0.1,0.3,0,0.4l0,0
					c0.1,0.1,0.3,0.1,0.4,0l1.1-1.1c0,0,0,0,0,0c0.1,0,0.1-0.1,0.1-0.2V4.3c0-0.1,0-0.1-0.1-0.2c0,0,0,0,0-0.1L14.7,3
					c-0.1-0.1-0.3-0.1-0.4,0l0,0c-0.1,0.1-0.1,0.3,0,0.4l0.6,0.6h-3.1c0,0-0.2,0.3-0.3,0.6c1,0,3.4,0,3.4,0L14.2,5.3z M13.6,5.8
					c0.1-0.1,0.1-0.3,0-0.4l0,0c-0.1-0.1-0.3-0.1-0.4,0l-1.1,1.1c0,0,0,0,0,0c-0.1,0-0.1,0.1-0.1,0.2v0.1c0,0.1,0,0.1,0.1,0.2
					c0,0,0,0,0,0.1L13.2,8c0.1,0.1,0.3,0.1,0.4,0l0,0c0.1-0.1,0.1-0.3,0-0.4L13,7h3.1c0,0,0.2-0.3,0.3-0.6c-1,0-3.4,0-3.4,0
					L13.6,5.8z M20.8,6.5h-2.7L18,6.9h2.8c0.1,0,0.2-0.1,0.2-0.2v0C21,6.6,20.9,6.5,20.8,6.5z M7,4.5h2.7l0.1-0.4H7
					c-0.1,0-0.2,0.1-0.2,0.2v0C6.8,4.4,6.9,4.5,7,4.5z"/>
			</g>
		</g>
	</g>
</g>
<g>
</g>
<g>
</g>
<g>
</g>
<g>
</g>
<g>
</g>
<g>
</g>
</svg>
