<?xml version="1.0" encoding="utf-8"?>
<!-- Generator: Adobe Illustrator 27.3.1, SVG Export Plug-In . SVG Version: 6.00 Build 0)  -->
<svg version="1.1" id="Layer_1" xmlns="http://www.w3.org/2000/svg" xmlns:xlink="http://www.w3.org/1999/xlink" x="0px" y="0px"
	 viewBox="0 0 27.4 23.7" style="enable-background:new 0 0 27.4 23.7;" xml:space="preserve">
<style type="text/css">
	.st0{fill:#A153A0;}
	.st1{fill-rule:evenodd;clip-rule:evenodd;fill:#FFFFFF;}
</style>
<g>
	<g>
		<polygon class="st0" points="20.5,23.7 27.4,11.8 20.5,0 6.8,0 0,11.8 6.8,23.7 		"/>
	</g>
</g>
<g>
	<path class="st1" d="M8.1,17.3h9.2c0.4,0,0.7,0.3,0.7,0.7v2.4H7.4V18C7.4,17.7,7.7,17.3,8.1,17.3L8.1,17.3z M15.2,5h1.3L18,3.6
		L21,5l-0.1,0.3h-0.7l-1.9-0.4l-1,0.9v2.6l1,0.9l2-0.5h0.7L21,9.1l-3,1.4l-1.5-1.4h-1.3c-0.2,0-0.3-0.2-0.4-0.4l-0.1-0.3h-3
		C11.9,8,12,7.6,12,7.1c0-0.5-0.1-1-0.3-1.4h3l0.1-0.3C14.9,5.2,15,5,15.2,5L15.2,5z M18.9,5.8v2.6h2.6V5.8H18.9L18.9,5.8z M8.8,6.4
		c0.4,0,0.7,0.3,0.7,0.7c0,0.4-0.3,0.7-0.7,0.7c-0.4,0-0.7-0.3-0.7-0.7C8.1,6.7,8.4,6.4,8.8,6.4L8.8,6.4z M9.8,16.8h5.4l-3.7-7.9
		c-0.6,0.9-1.6,1.4-2.7,1.4c-0.3,0-0.6,0-0.9-0.1L9.8,16.8L9.8,16.8z M8.8,4.2c-1.6,0-2.8,1.3-2.8,2.8c0,1.6,1.3,2.8,2.8,2.8
		c1.6,0,2.8-1.3,2.8-2.8C11.6,5.5,10.3,4.2,8.8,4.2L8.8,4.2z M8.8,5.6C8,5.6,7.3,6.3,7.3,7.1c0,0.8,0.6,1.4,1.4,1.4
		c0.8,0,1.4-0.6,1.4-1.4C10.2,6.3,9.6,5.6,8.8,5.6z"/>
</g>
<g>
</g>
<g>
</g>
<g>
</g>
<g>
</g>
<g>
</g>
<g>
</g>
</svg>
