<?xml version="1.0" encoding="utf-8"?>
<!-- Generator: Adobe Illustrator 27.3.1, SVG Export Plug-In . SVG Version: 6.00 Build 0)  -->
<svg version="1.1" id="Layer_1" xmlns="http://www.w3.org/2000/svg" xmlns:xlink="http://www.w3.org/1999/xlink" x="0px" y="0px"
	 viewBox="0 0 27.4 23.7" style="enable-background:new 0 0 27.4 23.7;" xml:space="preserve">
<style type="text/css">
	.st0{fill:#A153A0;}
	.st1{fill-rule:evenodd;clip-rule:evenodd;fill:#FFFFFF;}
</style>
<polygon class="st0" points="20.5,23.7 27.4,11.8 20.5,0 6.8,0 0,11.8 6.8,23.7 "/>
<path class="st1" d="M20.3,12.4c0,0.1,0,0.3,0,0.4c0,0.1,0,0.2,0,0.2c0,0.1,0,0.2,0,0.2c0,0.2-0.1,0.3-0.1,0.5
	c-0.4,1.7-1.6,3.2-3.1,4.2c-0.4,0.2-0.8,0.4-1.2,0.6c0,0,0-0.1,0-0.1c0,0,0-0.1,0-0.1c0.4-0.1,0.8-0.3,1.1-0.5
	c1.5-0.9,2.7-2.3,3.1-4c0.1-0.2,0.1-0.3,0.1-0.5c0-0.1,0-0.2,0-0.2c0-0.1,0-0.2,0-0.2C20.2,12.7,20.2,12.5,20.3,12.4l0-0.4
	c0-0.2,0-0.5,0-0.7c0-0.2,0-0.3-0.1-0.5c-0.1-0.3-0.1-0.4-0.1-0.4l0.1,0.4c0,0.2,0.1,0.3,0.1,0.5c0,0.2,0.1,0.5,0.1,0.7
	C20.3,12.1,20.3,12.3,20.3,12.4z M9.4,14.2c0.1-0.1,0.2-0.2,0.4-0.3c0,0,0-0.1-0.1-0.1l-0.1-0.2l-0.1-0.1l-0.1-0.1l-0.1-0.3
	c0-0.1,0-0.2-0.1-0.3c0-0.1,0-0.2-0.1-0.3c-0.1-0.7,0-1.4,0.3-2c0.2-0.3,0.3-0.6,0.6-0.8C10,9.6,9.8,9.5,9.7,9.3
	C9.4,9.6,9.2,10,9,10.4c-0.3,0.7-0.4,1.5-0.3,2.3l0,0c0,0.1,0,0.2,0.1,0.3c0,0.1,0,0.2,0.1,0.3L9,13.5l0.1,0.1L9.3,14
	C9.3,14.1,9.4,14.1,9.4,14.2z M11.5,8.7c0.1-0.4-0.2-0.8-0.6-0.9c0,0,0,0,0,0c-0.4-0.1-0.8,0.2-0.9,0.6c-0.1,0.4,0.2,0.8,0.6,0.9
	C11,9.3,11.4,9.1,11.5,8.7 M15.2,18.6c0.1-0.4-0.2-0.8-0.6-0.9c-0.4-0.1-0.8,0.2-0.9,0.6c-0.1,0.4,0.2,0.8,0.6,0.9
	C14.7,19.3,15.1,19,15.2,18.6L15.2,18.6z M13.6,5.7c0.1-0.4-0.2-0.8-0.6-0.9c0,0,0,0,0,0c-0.4-0.1-0.8,0.2-0.9,0.6
	c-0.1,0.4,0.2,0.8,0.6,0.9C13.1,6.4,13.5,6.1,13.6,5.7 M22.5,11.8L22.5,11.8c0-0.3,0-0.6-0.1-0.9c0-0.2-0.1-0.4-0.1-0.6l-0.1-0.5
	l0.1,0.5c0,0.2,0.1,0.4,0.1,0.6C22.4,11.2,22.5,11.5,22.5,11.8l0,0.5c0,0.2,0,0.4-0.1,0.6c0,0.1,0,0.2,0,0.3c0,0.1,0,0.2-0.1,0.3
	c0,0.2-0.1,0.4-0.1,0.6c-0.6,2.2-2,4-3.9,5.2c-1.1,0.7-2.4,1.1-3.8,1.2c-1.4,0.1-2.8-0.1-4.1-0.7c-0.2-0.1-0.3-0.1-0.5-0.2
	c-0.2-0.1-0.3-0.2-0.5-0.3c-0.3-0.2-0.6-0.4-0.9-0.6c-0.6-0.5-1.1-1-1.5-1.6c-0.2-0.3-0.4-0.6-0.6-0.9c-0.1-0.2-0.2-0.3-0.3-0.5
	L6,15.2l-0.1-0.2l-0.1-0.3l-0.2-0.5c0-0.1-0.1-0.3-0.1-0.5c0-0.2-0.1-0.3-0.1-0.5c0-0.4-0.1-0.7-0.1-1.1c0-0.2,0-0.4,0-0.5L5.4,11
	c0-0.2,0-0.3,0.1-0.5L5.6,10l0.2-0.5C5.8,9.3,5.9,9.2,6,9c0.5-1.2,1.2-2.3,2.2-3.2c0.4-0.4,0.9-0.7,1.4-1c0.2-0.1,0.5-0.3,0.8-0.4
	c0.2-0.1,0.5-0.2,0.8-0.3c1.6-0.5,3.4-0.6,5.1,0c0.1,0,0.3,0.1,0.4,0.1l0.3,0.1l0.2,0.1l-0.5,1.1l-0.1-0.1l-0.3-0.1
	c-0.1,0-0.2-0.1-0.4-0.1C15.2,5.1,14.6,5,14,5c0.1,0.2,0.1,0.3,0.1,0.5c0,0.1,0,0.1,0,0.2c0.5,0,0.9,0.1,1.4,0.3
	c0.1,0,0.2,0.1,0.3,0.1l0.3,0.1l0.1,0.1l-0.5,1.1l0,0c-0.2-0.1-0.3-0.1-0.5-0.2C14.7,7.1,14.3,7,13.8,7c-0.6,0-1.2,0.1-1.7,0.3
	c-0.2,0.1-0.3,0.1-0.5,0.2c0,0-0.1,0-0.1,0.1c0.2,0.1,0.3,0.3,0.4,0.6c0,0,0,0,0,0C12.1,8,12.2,8,12.4,7.9c0.5-0.2,1-0.2,1.5-0.2
	c0.4,0,0.8,0.1,1.1,0.2c0.1,0,0.3,0.1,0.4,0.1l-0.6,1.1c-0.1,0-0.1-0.1-0.2-0.1c-0.6-0.2-1.2-0.1-1.8,0.1c-0.1,0-0.2,0.1-0.3,0.1
	c-0.1,0-0.2,0.1-0.3,0.1c-0.2,0.1-0.3,0.2-0.5,0.4c-0.3,0.3-0.6,0.7-0.7,1.1c-0.2,0.4-0.2,0.9-0.1,1.4c0,0.1,0,0.1,0,0.2
	c0,0.1,0,0.1,0,0.2l0.1,0.2l0,0.1l0,0.1l0.1,0.2l0.1,0.2c0.1,0.1,0.1,0.2,0.2,0.3c0.3,0.4,0.7,0.7,1.1,0.8c0.4,0.2,0.9,0.2,1.3,0.2
	c0.4,0,0.8-0.2,1.2-0.4c0.3-0.2,0.6-0.5,0.8-0.8c0.2-0.3,0.3-0.5,0.4-0.8c0.1-0.2,0.1-0.5,0.1-0.7c0-0.2,0-0.3-0.1-0.5
	c0-0.1,0-0.2,0-0.2l0,0.2c0,0.1,0,0.3,0,0.4c0,0.5-0.2,1.1-0.5,1.5c-0.2,0.3-0.5,0.5-0.8,0.7c-0.3,0.2-0.7,0.3-1.1,0.3
	c-0.4,0-0.8-0.1-1.2-0.2c-0.4-0.2-0.7-0.4-0.9-0.8c-0.1-0.2-0.2-0.3-0.3-0.5l0-0.1l0-0.1l0-0.2c0-0.1,0-0.2,0-0.3
	c-0.1-0.8,0.2-1.5,0.8-2c0.1-0.1,0.3-0.2,0.4-0.3c0.1,0,0.1-0.1,0.2-0.1c0.1,0,0.1-0.1,0.2-0.1c0.3-0.1,0.5-0.1,0.8-0.1
	c0.2,0,0.4,0,0.6,0.1c0,0,0.1,0,0.1,0L13.9,11c-0.1,0-0.1,0-0.2,0c-0.6,0-1,0.5-1,1c0,0.6,0.5,1,1,1c0.5,0,1-0.5,1-1
	c0-0.2-0.1-0.5-0.2-0.6l2.3-4.7l1.4-2.7l-0.5-0.2c-0.1-0.1-0.2-0.1-0.3-0.1l-0.4-0.2c-0.1-0.1-0.3-0.1-0.5-0.1
	c-1.8-0.5-3.8-0.5-5.6,0.1c-0.3,0.1-0.6,0.2-0.8,0.3C9.7,3.8,9.4,3.9,9.2,4.1C8.6,4.4,8.1,4.8,7.6,5.3c-1,1-1.8,2.2-2.3,3.5
	C5.2,8.9,5.1,9.1,5.1,9.3L5,9.8c0,0.2-0.1,0.4-0.1,0.5c0,0.2-0.1,0.4-0.1,0.6c0,0.2,0,0.4,0,0.6c0,0.2,0,0.4,0,0.6
	c0,0.4,0,0.8,0.1,1.1c0,0.2,0.1,0.4,0.1,0.6c0,0.2,0.1,0.4,0.1,0.6l0.3,0.8l0.1,0.3l0.2,0.5c0.1,0.2,0.2,0.3,0.3,0.5
	c0.2,0.3,0.4,0.7,0.6,1c0.5,0.6,1,1.2,1.6,1.6c0.3,0.2,0.6,0.4,0.9,0.6c0.2,0.1,0.3,0.2,0.5,0.3c0.2,0.1,0.3,0.2,0.5,0.2
	c1.4,0.6,2.8,0.8,4.3,0.7c1.4-0.1,2.7-0.6,3.9-1.3c1.9-1.2,3.3-3.1,3.9-5.3c0.1-0.2,0.1-0.4,0.1-0.7c0-0.1,0-0.2,0.1-0.3
	c0-0.1,0-0.2,0-0.3c0-0.2,0-0.4,0-0.6C22.5,12.1,22.5,12,22.5,11.8z M7.8,12.2c0.1-0.4-0.2-0.8-0.6-0.9c0,0,0,0,0,0
	c-0.4-0.1-0.8,0.2-0.9,0.6c-0.1,0.4,0.2,0.8,0.6,0.9C7.3,12.9,7.7,12.6,7.8,12.2 M11.2,15.2c0.1-0.4-0.2-0.8-0.6-0.9c0,0,0,0,0,0
	c-0.4-0.1-0.8,0.2-0.9,0.6c-0.1,0.4,0.2,0.8,0.6,0.9C10.7,15.9,11.1,15.6,11.2,15.2 M11.6,5.5C11.6,5.5,11.6,5.5,11.6,5.5
	C11.6,5.5,11.6,5.5,11.6,5.5L11.6,5.5c-0.2,0-0.4,0.1-0.6,0.2c-0.2,0.1-0.4,0.2-0.6,0.3C9.9,6.3,9.4,6.6,9.1,6.9
	C8.3,7.6,7.7,8.5,7.3,9.4C7.3,9.6,7.2,9.7,7.2,9.8c0,0.1-0.1,0.3-0.1,0.4C7,10.3,7,10.5,7,10.6c0,0,0,0.1,0,0.1c0,0,0.1,0,0.1,0
	c0.2,0,0.3,0,0.4,0.1c0,0,0-0.1,0-0.1l0.1-0.4L7.7,10c0-0.1,0.1-0.2,0.1-0.3C8.2,8.7,8.8,8,9.5,7.3c0.3-0.3,0.7-0.5,1.1-0.8
	c0.2-0.1,0.4-0.2,0.6-0.3c0.2-0.1,0.3-0.1,0.5-0.2C11.6,5.9,11.6,5.7,11.6,5.5z M17.9,10.9c0,0,0,0.1,0,0.3c0,0,0,0,0,0l0,0
	C17.9,11,17.9,10.9,17.9,10.9z M18,12c0-0.2,0-0.3,0-0.5c0-0.1,0-0.2-0.1-0.3l0,0c0,0.1,0,0.2,0.1,0.3C18,11.7,18,11.9,18,12l0,0.3
	c0,0.1,0,0.2,0,0.3c0,0.1,0,0.2-0.1,0.3c0,0.1,0,0.2-0.1,0.3c-0.3,1.2-1.1,2.2-2.1,2.8c-0.6,0.4-1.3,0.6-2,0.6
	c-0.7,0.1-1.5-0.1-2.2-0.4c-0.1,0-0.2-0.1-0.3-0.1c-0.1,0-0.1-0.1-0.2-0.1c-0.1,0.1-0.2,0.1-0.3,0.2l0.1,0.1
	c0.1,0.1,0.2,0.1,0.3,0.1c0.1,0,0.2,0.1,0.3,0.1c0.7,0.3,1.5,0.4,2.3,0.4c0.7-0.1,1.4-0.3,2.1-0.7c1-0.7,1.7-1.7,2-2.9
	c0-0.1,0-0.2,0.1-0.4c0-0.1,0-0.2,0-0.3c0-0.1,0-0.2,0-0.3C18.1,12.2,18,12.1,18,12z M13.1,18.4C13.1,18.4,13.1,18.4,13.1,18.4
	c-0.7-0.1-1.3-0.3-1.9-0.6c-0.1-0.1-0.3-0.1-0.4-0.2c-0.1-0.1-0.3-0.1-0.4-0.2c-0.2-0.1-0.5-0.3-0.7-0.5c-0.4-0.3-0.8-0.8-1.2-1.2
	c-0.2-0.2-0.3-0.5-0.5-0.7C8.1,15,8,14.9,7.9,14.7l-0.2-0.4l-0.1-0.2L7.6,14l-0.1-0.4c0-0.1,0-0.2-0.1-0.3c-0.1,0-0.3,0.1-0.4,0.1
	c0,0-0.1,0-0.1,0c0,0,0,0,0,0c0,0.1,0,0.2,0.1,0.4l0,0l0.1,0.4l0.1,0.2l0.1,0.2l0.2,0.4c0.1,0.1,0.1,0.3,0.2,0.4
	c0.2,0.3,0.3,0.5,0.5,0.7c0.4,0.5,0.8,0.9,1.3,1.2c0.2,0.2,0.5,0.3,0.7,0.5c0.1,0.1,0.3,0.1,0.4,0.2c0.1,0.1,0.3,0.1,0.4,0.2
	c0.7,0.3,1.4,0.4,2.1,0.5C13.1,18.6,13.1,18.5,13.1,18.4z"/>
<g>
</g>
<g>
</g>
<g>
</g>
<g>
</g>
<g>
</g>
<g>
</g>
</svg>
