<?xml version="1.0" encoding="utf-8"?>
<!-- Generator: Adobe Illustrator 27.3.1, SVG Export Plug-In . SVG Version: 6.00 Build 0)  -->
<svg version="1.1" id="Layer_1" xmlns="http://www.w3.org/2000/svg" xmlns:xlink="http://www.w3.org/1999/xlink" x="0px" y="0px"
	 viewBox="0 0 27.4 23.7" style="enable-background:new 0 0 27.4 23.7;" xml:space="preserve">
<style type="text/css">
	.st0{fill:#A153A0;}
	.st1{fill-rule:evenodd;clip-rule:evenodd;fill:#FFFFFF;}
	.st2{fill:#FFFFFF;}
</style>
<g>
	<g>
		<polygon class="st0" points="20.5,23.7 27.4,11.8 20.5,0 6.8,0 0,11.8 6.8,23.7 		"/>
	</g>
</g>
<g>
	<g>
		<g>
			<path class="st1" d="M10.2,9.9c-0.2,0-0.3-0.2-0.3-0.3c0-0.2,0.1-0.3,0.3-0.3c0.2,0,0.3,0.2,0.3,0.3C10.5,9.8,10.4,9.9,10.2,9.9
				 M9.9,7.6c0-0.1,0.1-0.3,0.2-0.3c0.1,0,0.3,0.1,0.3,0.3v1c0,0.1-0.1,0.2-0.3,0.2c-0.1,0-0.2-0.1-0.2-0.2V7.6z M12.8,10L12.8,10
				L12.8,10L12.8,10l-2.3-4c-0.1-0.1-0.2-0.2-0.3-0.2c-0.2,0-0.3,0.1-0.3,0.2L7.6,9.9c-0.1,0.1-0.1,0.2-0.1,0.2
				c0,0.2,0.2,0.4,0.4,0.4h4.6c0.2,0,0.4-0.2,0.4-0.4C12.9,10.1,12.9,10,12.8,10"/>
		</g>
		<g>
			<rect x="7.7" y="16.3" class="st1" width="0.9" height="1.4"/>
			<rect x="9" y="12" class="st1" width="0.9" height="5.8"/>
			<rect x="10.3" y="14.4" class="st1" width="0.9" height="3.4"/>
			<rect x="11.6" y="13.1" class="st1" width="0.9" height="4.7"/>
			
				<rect x="14.4" y="12.8" transform="matrix(-1.836970e-16 1 -1 -1.836970e-16 28.1221 -1.4872)" class="st1" width="0.9" height="1"/>
			
				<rect x="17.6" y="11.3" transform="matrix(-1.836970e-16 1 -1 -1.836970e-16 31.3314 -4.6965)" class="st1" width="0.9" height="4.1"/>
			
				<rect x="14.4" y="14.2" transform="matrix(-1.836970e-16 1 -1 -1.836970e-16 29.4617 -0.1477)" class="st1" width="0.9" height="1"/>
			
				<rect x="17.6" y="12.6" transform="matrix(-1.836970e-16 1 -1 -1.836970e-16 32.6709 -3.3569)" class="st1" width="0.9" height="4.1"/>
			
				<rect x="14.4" y="15.5" transform="matrix(-1.836970e-16 1 -1 -1.836970e-16 30.8012 1.1919)" class="st1" width="0.9" height="1"/>
			
				<rect x="17.6" y="14" transform="matrix(-1.836970e-16 1 -1 -1.836970e-16 34.0105 -2.0174)" class="st1" width="0.9" height="4.1"/>
			
				<rect x="14.4" y="16.8" transform="matrix(-1.836970e-16 1 -1 -1.836970e-16 32.1407 2.5314)" class="st1" width="0.9" height="1"/>
			
				<rect x="17.6" y="15.3" transform="matrix(-1.836970e-16 1 -1 -1.836970e-16 35.35 -0.6779)" class="st1" width="0.9" height="4.1"/>
		</g>
		<path class="st2" d="M16.3,10.7c-0.1,0-0.2-0.1-0.2-0.1l-0.6-1.1l-1.2,0.9c-0.1,0.1-0.3,0.1-0.4-0.1C13.9,10.2,13.9,10,14,10
			l1.5-1.1c0.1,0,0.1-0.1,0.2,0c0.1,0,0.1,0.1,0.2,0.1l0.4,0.8l1-3c0-0.1,0.2-0.2,0.3-0.2c0.1,0,0.2,0.1,0.2,0.2l0.2,2l0.6-0.4
			c0.1-0.1,0.2-0.1,0.3,0L20,9.2c0.1,0.1,0.1,0.2,0.1,0.4c-0.1,0.1-0.2,0.1-0.4,0.1l-0.9-0.7L18,9.5c-0.1,0.1-0.2,0.1-0.3,0
			c-0.1,0-0.1-0.1-0.2-0.2L17.4,8l-0.9,2.5C16.6,10.6,16.5,10.7,16.3,10.7C16.4,10.7,16.4,10.7,16.3,10.7z"/>
	</g>
</g>
<path class="st2" d="M20.4,19.4H7c-0.9,0-1.7-0.7-1.7-1.7V6c0-0.9,0.7-1.7,1.7-1.7h13.4C21.3,4.3,22,5.1,22,6v11.8
	C22,18.7,21.3,19.4,20.4,19.4z M7,4.9C6.4,4.9,5.9,5.4,5.9,6v11.8c0,0.6,0.5,1.1,1.1,1.1h13.4c0.6,0,1.1-0.5,1.1-1.1V6
	c0-0.6-0.5-1.1-1.1-1.1H7z"/>
<g>
</g>
<g>
</g>
<g>
</g>
<g>
</g>
<g>
</g>
<g>
</g>
</svg>
