<?xml version="1.0" encoding="utf-8"?>
<!-- Generator: Adobe Illustrator 27.3.1, SVG Export Plug-In . SVG Version: 6.00 Build 0)  -->
<svg version="1.1" id="Layer_1" xmlns="http://www.w3.org/2000/svg" xmlns:xlink="http://www.w3.org/1999/xlink" x="0px" y="0px"
	 viewBox="0 0 27.4 23.7" style="enable-background:new 0 0 27.4 23.7;" xml:space="preserve">
<style type="text/css">
	.st0{fill:#A153A0;}
	.st1{fill:#FFFFFF;}
</style>
<g>
	<g>
		<polygon class="st0" points="20.5,23.7 27.4,11.8 20.5,0 6.8,0 0,11.8 6.8,23.7 		"/>
		<g>
			<g>
				<path class="st1" d="M21.6,11.4C21.6,11.4,21.6,11.3,21.6,11.4l-2-2c-0.2-0.2-0.5-0.2-0.7,0l-0.1,0.1c-0.2,0.2-0.2,0.5,0,0.7
					l1.1,1.1h-2.9c0.6-0.8,1.2-1.5,1.6-2.2c1-1.5,1.2-2.5,0.7-3c-0.1-0.1-0.3-0.3-0.7-0.3c-1,0-2.8,1.2-4.6,2.7V5.4l1.1,1.1
					c0.2,0.2,0.5,0.2,0.7,0L16,6.4c0.2-0.2,0.2-0.5,0-0.7l-1.9-1.9c0,0,0,0,0,0c-0.1-0.1-0.2-0.2-0.4-0.2h-0.1c-0.1,0-0.2,0-0.3,0.1
					c0,0-0.1,0-0.1,0.1l-1.9,1.9c-0.2,0.2-0.2,0.5,0,0.7l0.1,0.1c0.2,0.2,0.5,0.2,0.7,0l1.1-1.1v3.1C11.4,7,9.6,5.8,8.5,5.8
					c-0.4,0-0.6,0.1-0.7,0.3c-0.5,0.5-0.3,1.5,0.7,3c0.4,0.7,1,1.4,1.6,2.2H7.3l1.1-1.1c0.2-0.2,0.2-0.5,0-0.7L8.3,9.4
					c-0.2-0.2-0.5-0.2-0.7,0l-1.9,1.9c0,0-0.1,0.1-0.1,0.1c-0.1,0.1-0.1,0.2-0.1,0.3v0.1c0,0.1,0.1,0.3,0.2,0.4c0,0,0,0,0,0l1.9,1.9
					c0.2,0.2,0.5,0.2,0.7,0L8.4,14c0.2-0.2,0.2-0.5,0-0.7l-1.1-1.1h3c-0.7,0.8-1.3,1.7-1.8,2.4c-1,1.5-1.2,2.5-0.7,3
					c0.1,0.1,0.3,0.3,0.7,0.3h0c1,0,2.8-1.2,4.6-2.7v2.9L12,17c-0.2-0.2-0.5-0.2-0.7,0l-0.1,0.1c-0.2,0.2-0.2,0.5,0,0.7l1.9,1.9
					c0,0,0.1,0.1,0.1,0.1c0.1,0.1,0.2,0.1,0.3,0.1h0.1c0.1,0,0.3-0.1,0.4-0.2c0,0,0,0,0,0l1.9-1.9c0.2-0.2,0.2-0.5,0-0.7L15.9,17
					c-0.2-0.2-0.5-0.2-0.7,0l-1.1,1.1v-2.8c1.8,1.5,3.6,2.7,4.6,2.7c0.4,0,0.6-0.1,0.7-0.3c0.5-0.5,0.3-1.5-0.7-3
					c-0.5-0.7-1.1-1.6-1.8-2.4H20l-1.1,1.1c-0.2,0.2-0.2,0.5,0,0.7l0.1,0.1c0.2,0.2,0.5,0.2,0.7,0l1.9-1.9c0,0,0,0,0,0
					c0.1-0.1,0.2-0.2,0.2-0.4v-0.1C21.7,11.6,21.7,11.5,21.6,11.4z M8.5,17.1C8.5,17.1,8.5,17.1,8.5,17.1c-0.2-0.4,0.5-1.9,2.4-4.2
					c0.3,0.8,0.9,1.4,1.7,1.7C10.7,16.2,9.1,17.1,8.5,17.1z M10.9,10.8C9.1,8.6,8.3,7,8.4,6.7c0,0,0,0,0.1,0c0.6,0,2.2,0.9,4.1,2.5
					C11.8,9.5,11.2,10.1,10.9,10.8z M18.7,6.7C18.8,6.7,18.8,6.7,18.7,6.7c0.2,0.4-0.5,1.9-2.4,4.2c-0.3-0.8-0.9-1.4-1.7-1.7
					C16.6,7.5,18.1,6.7,18.7,6.7z M18.8,17.1C18.8,17.1,18.8,17.1,18.8,17.1c-0.7,0-2.2-0.9-4.1-2.5c0.8-0.3,1.4-0.9,1.7-1.7
					C18.2,15.1,19,16.7,18.8,17.1z"/>
			</g>
		</g>
	</g>
</g>
<g>
</g>
<g>
</g>
<g>
</g>
<g>
</g>
<g>
</g>
<g>
</g>
</svg>
