<?xml version="1.0" encoding="utf-8"?>
<!-- Generator: Adobe Illustrator 27.3.1, SVG Export Plug-In . SVG Version: 6.00 Build 0)  -->
<svg version="1.1" id="Layer_1" xmlns="http://www.w3.org/2000/svg" xmlns:xlink="http://www.w3.org/1999/xlink" x="0px" y="0px"
	 viewBox="0 0 27.4 23.7" style="enable-background:new 0 0 27.4 23.7;" xml:space="preserve">
<style type="text/css">
	.st0{fill:#A153A0;}
	.st1{fill-rule:evenodd;clip-rule:evenodd;fill:#FFFFFF;}
</style>
<g>
	<g>
		<polygon class="st0" points="20.5,23.7 27.4,11.8 20.5,0 6.8,0 0,11.8 6.8,23.7 		"/>
	</g>
</g>
<g>
	<path class="st1" d="M16.2,14.7l-0.5-0.9c0.4-0.3,0.7-0.7,1-1.1l1,0.3c0.2,0.1,0.5,0,0.6-0.3l0.3-0.9c0.1-0.2,0-0.5-0.3-0.6l-1-0.4
		c0.1-0.4,0.1-0.9-0.1-1.4l1-0.5c0.2-0.1,0.3-0.4,0.2-0.6L18,7.4c-0.1-0.2-0.4-0.3-0.7-0.2l-0.9,0.4c-0.3-0.4-0.7-0.7-1.1-1l0.4-1
		c0-0.3,0-0.5-0.3-0.6l-0.9-0.3c-0.3-0.1-0.6,0-0.7,0.3l-0.3,1c-0.5-0.1-1,0-1.5,0.1l-0.5-1c-0.1-0.2-0.4-0.3-0.7-0.2l-0.8,0.4
		C9.9,5.4,9.8,5.7,9.9,5.9l0.5,1C10,7.2,9.6,7.6,9.4,8l-1-0.4c-0.2-0.1-0.5,0-0.6,0.3L7.4,8.8c-0.1,0.3,0,0.6,0.3,0.6l1,0.4
		c0,0.5,0,1,0.1,1.4l-1,0.5c-0.2,0.1-0.3,0.4-0.2,0.7L8,13.3c0.1,0.3,0.4,0.4,0.7,0.2L9.6,13c0.3,0.4,0.7,0.7,1.1,0.9l-0.3,1
		c-0.1,0.2,0,0.5,0.2,0.6l0.9,0.3c0.2,0.1,0.5,0,0.6-0.3l0.3-1c0.5,0,1,0,1.5-0.1l0.4,1c0.2,0.2,0.4,0.4,0.7,0.2l0.9-0.4
		C16.2,15.2,16.3,15,16.2,14.7 M10.4,11.6c-0.7-1.5-0.1-3.2,1.4-3.9c1.5-0.7,3.2-0.1,3.9,1.4c0.7,1.5,0.1,3.2-1.4,3.9
		C12.8,13.7,11.1,13.1,10.4,11.6"/>
	<path class="st1" d="M10.4,10.6l0.3,0c0,0.1,0,0.2,0.1,0.2c0.1,0,0.1,0.1,0.2,0.1s0.2,0,0.2-0.1c0,0,0.1-0.1,0.1-0.2
		c0,0,0-0.1,0-0.1c0,0-0.1-0.1-0.1-0.1c0,0-0.1,0-0.3-0.1c-0.2,0-0.3-0.1-0.4-0.2c-0.1-0.1-0.1-0.2-0.1-0.3c0-0.1,0-0.2,0.1-0.2
		c0-0.1,0.1-0.1,0.2-0.2c0.1,0,0.2-0.1,0.3-0.1c0.2,0,0.3,0,0.4,0.1c0.1,0.1,0.1,0.2,0.2,0.4h-0.3c0-0.1,0-0.1-0.1-0.2
		c0,0-0.1-0.1-0.2-0.1c-0.1,0-0.2,0-0.2,0.1c0,0-0.1,0.1-0.1,0.1c0,0,0,0.1,0,0.1c0,0,0.1,0.1,0.3,0.1c0.2,0,0.3,0.1,0.3,0.1
		c0.1,0,0.1,0.1,0.2,0.2c0,0.1,0.1,0.2,0.1,0.3c0,0.1,0,0.2-0.1,0.3c0,0.1-0.1,0.2-0.2,0.2c-0.1,0-0.2,0.1-0.3,0.1
		c-0.2,0-0.4,0-0.5-0.1C10.4,10.9,10.4,10.8,10.4,10.6"/>
	<polygon class="st1" points="12.6,11.2 12.6,9.5 13.8,9.5 13.8,9.8 12.9,9.8 12.9,10.2 13.7,10.2 13.7,10.5 12.9,10.5 12.9,10.9 
		13.8,10.9 13.8,11.2 	"/>
	<rect x="11.9" y="9.5" class="st1" width="0.4" height="1.7"/>
	<polygon class="st1" points="14.1,11.2 14.1,9.5 14.6,9.5 14.8,10.6 15.1,9.5 15.6,9.5 15.6,11.2 15.3,11.2 15.3,9.9 15,11.2 
		14.7,11.2 14.4,9.9 14.4,11.2 	"/>
	<path class="st1" d="M21,10.5c0.4-0.2,0.5-0.7,0.3-1.1c-0.2-0.4-0.7-0.5-1.1-0.3c-0.4,0.2-0.5,0.7-0.3,1.1
		C20.1,10.6,20.6,10.7,21,10.5 M22.6,9.4l0,1c0,0,0,0.1-0.1,0.1l-0.7,0c0,0.1-0.1,0.1-0.1,0.2l0.4,0.7c0,0,0,0.1,0,0.1l-0.9,0.5
		c0,0-0.1,0-0.1,0l-0.4-0.6h-0.2l-0.4,0.6c0,0-0.1,0-0.1,0l-0.8-0.5c0,0-0.1-0.1,0-0.1l0.4-0.6c0,0,0,0,0-0.1c0,0,0-0.1,0-0.1
		l-0.7,0c0,0-0.1,0-0.1-0.1l0-1c0,0,0-0.1,0.1-0.1l0.7,0c0-0.1,0.1-0.1,0.1-0.2l-0.4-0.7c0,0,0-0.1,0-0.1l0.9-0.5c0,0,0.1,0,0.1,0
		l0.3,0.6c0.1,0,0.1,0,0.2,0l0.4-0.6c0,0,0.1,0,0.1,0l0.8,0.5c0,0,0,0.1,0,0.1l-0.4,0.6c0,0,0,0,0,0.1c0,0,0,0,0,0.1L22.6,9.4
		C22.6,9.3,22.6,9.4,22.6,9.4"/>
	<path class="st1" d="M7.9,16.9c0.5-0.2,0.7-0.7,0.5-1.1c-0.2-0.5-0.7-0.7-1.1-0.5c-0.5,0.2-0.7,0.7-0.5,1.1
		C7,16.9,7.5,17.1,7.9,16.9 M9.9,15.9L9.7,17c0,0.1-0.1,0.1-0.1,0.1l-0.8-0.1c0,0.1-0.1,0.1-0.1,0.2L9,17.8c0,0.1,0,0.1,0,0.1
		l-1,0.4c-0.1,0-0.1,0-0.1-0.1l-0.3-0.7c-0.1,0-0.1,0-0.2,0l-0.5,0.6c0,0-0.1,0.1-0.1,0l-0.8-0.7c0,0-0.1-0.1,0-0.1l0.5-0.6l0-0.1
		l0-0.1l-0.8-0.1c0,0-0.1-0.1-0.1-0.1l0.2-1.1c0,0,0.1-0.1,0.1-0.1l0.8,0.1c0-0.1,0.1-0.1,0.1-0.2l-0.3-0.8c0,0,0-0.1,0-0.1l1-0.4
		c0.1,0,0.1,0,0.1,0l0.3,0.8c0.1,0,0.1,0,0.2,0l0.5-0.6c0-0.1,0.1-0.1,0.1,0l0.8,0.7c0,0,0.1,0.1,0,0.2l-0.5,0.6l0,0.1l0,0.1
		l0.8,0.1C9.8,15.8,9.9,15.8,9.9,15.9"/>
</g>
<g>
</g>
<g>
</g>
<g>
</g>
<g>
</g>
<g>
</g>
<g>
</g>
</svg>
