<?xml version="1.0" encoding="utf-8"?>
<!-- Generator: Adobe Illustrator 27.3.1, SVG Export Plug-In . SVG Version: 6.00 Build 0)  -->
<svg version="1.1" id="Layer_1" xmlns="http://www.w3.org/2000/svg" xmlns:xlink="http://www.w3.org/1999/xlink" x="0px" y="0px"
	 viewBox="0 0 27.4 23.7" style="enable-background:new 0 0 27.4 23.7;" xml:space="preserve">
<style type="text/css">
	.st0{fill:#A153A0;}
	.st1{fill:#FFFFFF;}
</style>
<g>
	<g>
		<polygon class="st0" points="20.5,23.7 27.4,11.8 20.5,0 6.8,0 0,11.8 6.8,23.7 		"/>
		<g>
			<g>
				<path class="st1" d="M17.7,2.4c-1.9,0-3.5,1.6-3.5,3.5c0,1.9,1.6,3.5,3.5,3.5c1.9,0,3.5-1.6,3.5-3.5C21.2,3.9,19.6,2.4,17.7,2.4
					z M17.7,8.5c-1.5,0-2.6-1.2-2.6-2.6c0-1.5,1.2-2.6,2.6-2.6c1.5,0,2.6,1.2,2.6,2.6C20.3,7.3,19.2,8.5,17.7,8.5z M13.3,9l-1.7,1.7
					c-0.4,0.4-0.4,1,0,1.3c0.4,0.4,1,0.4,1.3,0l1.7-1.7c0.4-0.4,0.4-1,0-1.3C14.2,8.6,13.6,8.6,13.3,9z"/>
				<path class="st1" d="M6.3,18.7c-0.1,0-0.2,0-0.3-0.1l-1.8-1.6c-0.2-0.2-0.2-0.5,0-0.7c0.2-0.2,0.5-0.2,0.7,0l1.4,1.3l2.2-2.8
					c0.2-0.2,0.5-0.3,0.7-0.1c0.2,0.2,0.3,0.5,0.1,0.7l-2.5,3.3C6.6,18.6,6.5,18.7,6.3,18.7C6.3,18.7,6.3,18.7,6.3,18.7z"/>
				<g>
					<g>
						<path class="st1" d="M7.2,6.6l1.2-1.2c0.2-0.2,0.2-0.5,0-0.7c-0.2-0.2-0.5-0.2-0.7,0L6.5,5.9L5.3,4.7c-0.2-0.2-0.5-0.2-0.7,0
							c-0.2,0.2-0.2,0.5,0,0.7l1.2,1.2L4.5,7.8C4.4,8,4.4,8.3,4.5,8.5c0.1,0.1,0.2,0.1,0.4,0.1s0.3,0,0.4-0.1l1.2-1.2l1.2,1.2
							C7.8,8.6,7.9,8.7,8,8.7c0.1,0,0.3,0,0.4-0.1c0.2-0.2,0.2-0.5,0-0.7L7.2,6.6z"/>
					</g>
				</g>
			</g>
			<g>
				<path class="st1" d="M10,13.1L10,13.1v0.2v0h2.2V15H10v0v0.1v0h4.8v1.7H10v0v0.1v0h2.2v1.7H10v0V19v0h4.8v1.7h0.2V19h4.9v1.7H20
					V19H23v0v-0.1v0h-0.4v-1.7h1.1v0v-0.1v0H20v-1.7h4.9v0V15v0h-2.3v-1.7h2.3v0v-0.1v0H10z M12.4,15v-1.7h4.9V15H12.4z M19.8,15.2
					v1.7h-4.9v-1.7H19.8z M17.3,18.8h-4.9v-1.7h4.9V18.8z M22.4,17.1v1.7h-4.9v-1.7H22.4z M22.4,15h-4.9v-1.7h4.9V15z"/>
				<polygon class="st1" points="9.8,11.4 3.5,11.4 3.5,11.6 9.8,11.6 9.8,22.6 10,22.6 10,1 9.8,1 				"/>
			</g>
		</g>
	</g>
</g>
<g>
</g>
<g>
</g>
<g>
</g>
<g>
</g>
<g>
</g>
<g>
</g>
</svg>
