<?xml version="1.0" encoding="utf-8"?>
<!-- Generator: Adobe Illustrator 27.3.1, SVG Export Plug-In . SVG Version: 6.00 Build 0)  -->
<svg version="1.1" id="Layer_1" xmlns="http://www.w3.org/2000/svg" xmlns:xlink="http://www.w3.org/1999/xlink" x="0px" y="0px"
	 viewBox="0 0 27.4 23.7" style="enable-background:new 0 0 27.4 23.7;" xml:space="preserve">
<style type="text/css">
	.st0{fill:#A153A0;}
	.st1{fill:#FFFFFF;}
</style>
<g>
	<g>
		<polygon class="st0" points="20.5,23.7 27.4,11.8 20.5,0 6.8,0 0,11.8 6.8,23.7 		"/>
		<g>
			<g>
				<path class="st1" d="M13.8,12c-1.6,0-3-1.3-3-3c0-1.6,1.3-3,3-3c1.6,0,3,1.3,3,3C16.7,10.6,15.4,12,13.8,12L13.8,12z M13.8,6.6
					c-1.3,0-2.4,1.1-2.4,2.4c0,1.3,1.1,2.4,2.4,2.4c1.3,0,2.4-1.1,2.4-2.4C16.1,7.7,15.1,6.6,13.8,6.6L13.8,6.6z"/>
				<g>
					<path class="st1" d="M17.8,7.6c0.1,0.1,0.4,0.1,0.5,0l0.8-0.8v2.9c0,0.2,0.2,0.4,0.4,0.4h0.1c0.2,0,0.4-0.2,0.4-0.4V6.8
						l0.8,0.8c0.1,0.1,0.4,0.1,0.5,0l0.1-0.1c0.1-0.1,0.1-0.4,0-0.5l-1.4-1.4c0,0,0,0,0,0c-0.1-0.1-0.2-0.1-0.3-0.1h-0.1
						c-0.1,0-0.2,0-0.2,0.1c0,0-0.1,0-0.1,0.1l-1.4,1.4C17.6,7.2,17.6,7.4,17.8,7.6L17.8,7.6z"/>
					<path class="st1" d="M7.6,9.7C7.6,9.8,7.8,10,8,10h0.1c0.2,0,0.4-0.2,0.4-0.4V6.8l0.8,0.8c0.1,0.1,0.4,0.1,0.5,0l0.1-0.1
						c0.1-0.1,0.1-0.4,0-0.5L8.4,5.6c0,0,0,0,0,0C8.3,5.5,8.2,5.5,8.1,5.5H8c-0.1,0-0.2,0-0.2,0.1c0,0-0.1,0-0.1,0.1L6.2,7.1
						c-0.1,0.1-0.1,0.4,0,0.5l0.1,0.1c0.1,0.1,0.4,0.1,0.5,0l0.8-0.8V9.7z"/>
					<path class="st1" d="M15.5,15.5c-0.1-0.1-0.4-0.1-0.5,0l-0.8,0.8v-2.9c0-0.2-0.2-0.4-0.4-0.4h-0.1c-0.2,0-0.4,0.2-0.4,0.4v2.9
						l-0.8-0.8c-0.1-0.1-0.4-0.1-0.5,0L12,15.6c-0.1,0.1-0.1,0.4,0,0.5l1.4,1.4c0,0,0,0,0.1,0.1c0.1,0.1,0.1,0.1,0.2,0.1h0.1
						c0.1,0,0.2-0.1,0.3-0.1c0,0,0,0,0,0l1.4-1.4C15.6,15.9,15.6,15.7,15.5,15.5L15.5,15.5z"/>
					<path class="st1" d="M6.6,11.2L6.6,11.2c-0.2-0.1-0.5,0-0.5,0.1l-2,4.1l-0.4-1.1c-0.1-0.2-0.3-0.3-0.5-0.2l-0.1,0
						c-0.2,0.1-0.3,0.3-0.2,0.5l0.7,1.9c0,0,0,0.1,0,0.1c0,0.1,0.1,0.2,0.2,0.2l0.1,0c0.1,0,0.2,0,0.3,0c0,0,0,0,0,0l1.9-0.7
						c0.2-0.1,0.3-0.3,0.2-0.5l0-0.1c-0.1-0.2-0.3-0.3-0.5-0.2l-1.1,0.4l2-4.1C6.8,11.5,6.7,11.3,6.6,11.2z"/>
					<path class="st1" d="M24.3,14.2L24.3,14.2c-0.3-0.1-0.5,0-0.5,0.2l-0.4,1.1l-2-4.1c-0.1-0.2-0.3-0.3-0.5-0.2l-0.1,0
						c-0.2,0.1-0.3,0.3-0.2,0.5l2,4.1l-1.1-0.4c-0.2-0.1-0.4,0-0.5,0.2l0,0.1c-0.1,0.2,0,0.4,0.2,0.5l1.9,0.7c0,0,0,0,0,0
						c0.1,0,0.2,0,0.3,0l0.1,0c0.1,0,0.1-0.1,0.2-0.2c0,0,0-0.1,0-0.1l0.7-1.9C24.6,14.4,24.5,14.2,24.3,14.2z"/>
					<path class="st1" d="M20,14.8L20,14.8c-0.2-0.1-0.5-0.1-0.5,0.1l-0.6,1l-1-3.3c-0.1-0.2-0.3-0.3-0.4-0.2l-0.1,0
						c-0.2,0.1-0.3,0.3-0.2,0.4l1,3.3l-1-0.6c-0.2-0.1-0.4,0-0.5,0.1l0,0.1c-0.1,0.2,0,0.4,0.1,0.5l1.8,1c0,0,0,0,0,0
						c0.1,0.1,0.2,0.1,0.3,0l0.1,0c0.1,0,0.2-0.1,0.2-0.2c0,0,0,0,0.1-0.1l1-1.8C20.3,15.1,20.2,14.9,20,14.8z"/>
					<path class="st1" d="M10.9,15.8c-0.1-0.2-0.3-0.2-0.5-0.1l-1,0.6l1-3.3c0.1-0.2-0.1-0.4-0.2-0.4l-0.1,0
						c-0.2-0.1-0.4,0.1-0.4,0.2l-1,3.3l-0.6-1c-0.1-0.2-0.3-0.2-0.5-0.1l-0.1,0c-0.2,0.1-0.2,0.3-0.1,0.5l1,1.8c0,0,0,0.1,0.1,0.1
						c0,0.1,0.1,0.1,0.2,0.2l0.1,0c0.1,0,0.2,0,0.3,0c0,0,0,0,0,0l1.8-1C11,16.2,11.1,16,10.9,15.8L10.9,15.8z"/>
				</g>
			</g>
		</g>
	</g>
</g>
<g>
</g>
<g>
</g>
<g>
</g>
<g>
</g>
<g>
</g>
<g>
</g>
</svg>
