<?xml version="1.0" encoding="utf-8"?>
<!-- Generator: Adobe Illustrator 27.3.1, SVG Export Plug-In . SVG Version: 6.00 Build 0)  -->
<svg version="1.1" id="Layer_1" xmlns="http://www.w3.org/2000/svg" xmlns:xlink="http://www.w3.org/1999/xlink" x="0px" y="0px"
	 viewBox="0 0 27.4 23.7" style="enable-background:new 0 0 27.4 23.7;" xml:space="preserve">
<style type="text/css">
	.st0{fill:#A153A0;}
	.st1{fill:#FFFFFF;}
</style>
<polygon class="st0" points="20.5,23.7 27.4,11.8 20.5,0 6.8,0 0,11.8 6.8,23.7 "/>
<g>
	<path class="st1" d="M11.7,8.7c0.1,0,0.1,0.1,0.2,0.1l0,0c0.9,0.5,1.6,1.2,2.1,2.1h1.3c0.2,0,0.3-0.1,0.3-0.3V8.7
		c0-0.2-0.1-0.3-0.3-0.3h-4.1C11.5,8.5,11.6,8.6,11.7,8.7z"/>
	<path class="st1" d="M15.4,15.2h-0.6c-0.2,0.9-0.7,1.8-1.4,2.5h2c0.2,0,0.3-0.1,0.3-0.3v-1.9C15.7,15.4,15.6,15.2,15.4,15.2z"/>
	<path class="st1" d="M21.3,8.4h-4.3c-0.2,0-0.3,0.1-0.3,0.3v1.9c0,0.2,0.1,0.3,0.3,0.3h4.3c0.2,0,0.3-0.1,0.3-0.3V8.7
		C21.6,8.5,21.4,8.4,21.3,8.4z"/>
	<path class="st1" d="M21.3,15.2h-4.3c-0.2,0-0.3,0.1-0.3,0.3v1.9c0,0.2,0.1,0.3,0.3,0.3h4.3c0.2,0,0.3-0.1,0.3-0.3v-1.9
		C21.6,15.4,21.4,15.2,21.3,15.2z"/>
	<path class="st1" d="M21.3,11.8h-6.7c0.2,0.6,0.4,1.3,0.4,2c0,0.2,0,0.3,0,0.5h6.4c0.2,0,0.3-0.1,0.3-0.3v-1.9
		C21.6,11.9,21.4,11.8,21.3,11.8z"/>
	<path class="st1" d="M11.4,9.8L11.4,9.8c-0.1,0-0.2-0.1-0.2-0.1l0,0l0,0c-0.3-0.2-0.8-0.6-1.2-1.3C9.6,7.7,9.5,6.8,9.7,5.8
		c-0.5,0.3-1.4,1-2.3,2c-0.8,0.8-1.4,1.7-1.9,2.6c-0.6,1.1-0.8,2.3-0.8,3.4C4.6,15,5.1,16.2,6,17c0.3,0.3,0.6,0.5,0.9,0.7
		c0.2,0.1,0.4-0.1,0.2-0.3c-0.3-0.4-0.4-0.9-0.4-1.4c0-2.7,3-4.5,3-4.5c-0.4,1.4,0.4,2,0.7,2.2c0,0,0.1,0,0.1,0.1
		c0.8,0.4,1.3,1.3,1.3,2.2c0,0.5-0.2,1-0.4,1.4c-0.1,0.2,0.1,0.4,0.2,0.3c0.3-0.2,0.6-0.4,0.9-0.7c0.9-0.9,1.3-2,1.3-3.2
		C13.7,12.2,12.8,10.6,11.4,9.8z"/>
</g>
<g>
</g>
<g>
</g>
<g>
</g>
<g>
</g>
<g>
</g>
<g>
</g>
</svg>
