<?xml version="1.0" encoding="utf-8"?>
<!-- Generator: Adobe Illustrator 27.3.1, SVG Export Plug-In . SVG Version: 6.00 Build 0)  -->
<svg version="1.1" id="Layer_1" xmlns="http://www.w3.org/2000/svg" xmlns:xlink="http://www.w3.org/1999/xlink" x="0px" y="0px"
	 viewBox="0 0 27.4 23.7" style="enable-background:new 0 0 27.4 23.7;" xml:space="preserve">
<style type="text/css">
	.st0{fill:#A153A0;}
	.st1{fill:#FFFFFF;}
</style>
<polygon class="st0" points="20.5,23.7 27.4,11.8 20.5,0 6.8,0 0,11.8 6.8,23.7 "/>
<path class="st1" d="M13.5,12.9l0.2-0.1l0.2-0.5v-0.1c0,0,0.2-0.1,0.3,0l0.1,0.1c0.5,0.4,1.3,0.6,2,0.3c1-0.4,1.4-1.5,1-2.5
	c-0.4-1-1.6-1.5-2.5-1c-0.7,0.3-1.1,0.9-1.2,1.7c0,0.3-0.4,0.4-0.4,0.4l-2.8,1.2c0,0-0.2,0.1-0.3,0.3c-0.1,0.2-0.3,0.7-0.3,0.7
	s-0.1,0.3,0.3,0.4l0.6,0.2l0.2-0.1l0.1-0.3l0.2-0.1l0.3,0.1l0.3-0.1l0.1-0.2l0.3-0.1l0.3,0.1l0.1-0.1l0.2-0.4l0.6-0.2L13.5,12.9z
	 M16,10c0.2-0.1,0.5,0,0.6,0.2c0.1,0.2,0,0.5-0.2,0.6c-0.2,0.1-0.5,0-0.6-0.2C15.7,10.4,15.8,10.1,16,10z"/>
<path class="st1" d="M13.7,2.4c-5.2,0-9.5,4.3-9.5,9.5c0,5.3,4.3,9.6,9.5,9.6c5.2,0,9.5-4.3,9.5-9.6C23.2,6.7,18.9,2.4,13.7,2.4z
	 M22.4,11.5c0,0-0.1,0.1-0.1,0.1c-0.8-1.1-1.7-2-2.6-2.7c0.4-1.1,0.6-2,0.6-2.6C21.5,7.7,22.3,9.5,22.4,11.5z M21.5,13.1
	c0.1,0.1,0.1,0.2,0,0.2c-0.1,0.1-0.2,0.1-0.2,0c-0.4-0.4-0.5-0.5-0.5-0.5c-0.4,0.4-0.5,0.5-0.5,0.5c-0.1,0.1-0.2,0.1-0.2,0
	c-0.1-0.1-0.1-0.2,0-0.2c0.4-0.4,0.5-0.5,0.5-0.5c-0.4-0.4-0.5-0.5-0.5-0.5c-0.1-0.1-0.1-0.2,0-0.2c0.1-0.1,0.2-0.1,0.2,0
	c0.4,0.4,0.5,0.5,0.5,0.5l0.5-0.5c0.1-0.1,0.2-0.1,0.2,0c0.1,0.1,0.1,0.2,0,0.2c-0.4,0.4-0.5,0.5-0.5,0.5
	C21.5,13.1,21.5,13.1,21.5,13.1z M20.8,11.1c-0.8,0-1.5,0.7-1.5,1.5c0,0.2,0.1,0.5,0.2,0.7c-0.9,0.7-1.8,1.5-2.7,2.5
	c-0.2-0.1-0.5-0.2-0.8-0.2c-0.6,0-1.2,0.4-1.4,1c-0.4,0-0.7-0.1-1-0.1v0v-0.1c0-0.1,0.1-0.1,0.1-0.2c2.2-1.2,3.7-2.9,4.6-4.4
	c0.5-0.9,0.9-1.8,1.2-2.6c0.9,0.7,1.7,1.5,2.4,2.6c0,0,0,0-0.1,0C21.7,11.3,21.3,11.1,20.8,11.1z M16.9,16.7L16,17.8
	c0,0-0.1,0.1-0.1,0.1h0c0,0-0.1,0-0.1-0.1l-0.6-0.6c-0.1-0.1-0.1-0.2,0-0.2c0.1-0.1,0.2-0.1,0.2,0l0.5,0.5l0.8-1
	c0.1-0.1,0.2-0.1,0.2,0C16.9,16.5,16.9,16.6,16.9,16.7z M13.3,15.3c-0.3-0.3-0.6-0.4-1-0.4c-0.5,0-0.9,0.2-1.2,0.6
	c-1-0.5-1.8-1.1-2.6-1.7c0.1-0.2,0.2-0.5,0.2-0.7c0-0.6-0.4-1.1-0.9-1.3c0.5-1.6,1.2-3,1.9-4.1c0.2,0.1,0.4,0.1,0.6,0.1
	c0.2,0,0.4-0.1,0.5-0.1c0.6,0.9,1.1,1.9,1.6,3.2l0.2-0.1c-0.5-1.3-1-2.4-1.6-3.2c0.4-0.2,0.7-0.7,0.7-1.3V6.2c0.1,0,0.2,0,0.3,0
	c1.1,0,2.4,0.2,3.8,0.7c0.1,0.6,0.5,1,1.1,1.2c0,0.2-0.1,0.4-0.1,0.5c0.1,0,0.1,0.1,0.2,0.1c0-0.2,0.1-0.4,0.1-0.6h0.1
	c0.3,0,0.6-0.1,0.8-0.2c0.5,0.3,1,0.6,1.4,1c-0.3,0.8-0.7,1.7-1.2,2.6c-0.9,1.4-2.1,2.9-4.1,4.1c0.1-0.1,0.2-0.3,0.3-0.4
	c0.4-0.6,0.7-1.3,1.1-2c-0.1,0-0.2,0-0.3,0c-0.3,0.7-0.7,1.4-1,2c-0.2,0.3-0.3,0.5-0.5,0.8v0c0-0.1-0.1-0.2-0.1-0.3
	c0-0.7-0.1-1.4-0.2-2.1l-0.1-0.3L13,13.5h0C13.1,14.1,13.2,14.7,13.3,15.3z M12.9,16.9c0.1,0.1,0.1,0.2,0,0.2
	c-0.1,0.1-0.2,0.1-0.2,0c-0.4-0.4-0.5-0.5-0.5-0.5c-0.4,0.4-0.5,0.5-0.5,0.5c-0.1,0.1-0.2,0.1-0.2,0c-0.1-0.1-0.1-0.2,0-0.2
	c0.4-0.4,0.5-0.5,0.5-0.5c-0.4-0.4-0.5-0.5-0.5-0.5c-0.1-0.1-0.1-0.2,0-0.2c0.1-0.1,0.1-0.1,0.2,0c0.4,0.4,0.5,0.5,0.5,0.5l0.5-0.5
	c0.1-0.1,0.1-0.1,0.2,0c0.1,0.1,0.1,0.2,0,0.2c-0.4,0.4-0.5,0.5-0.5,0.5C12.9,16.8,12.9,16.9,12.9,16.9z M9.3,6.5
	c-0.1-0.1-0.1-0.1,0-0.2c0.1-0.1,0.2-0.1,0.2,0L10,6.7l0.7-1c0.1-0.1,0.2-0.1,0.2,0c0.1,0.1,0.1,0.1,0.1,0.2l-0.9,1.2
	c0,0-0.1,0.1-0.1,0.1c-0.1,0-0.1,0-0.1,0L9.3,6.5z M20.1,6c-0.1,0.5-0.2,1.5-0.6,2.7c-0.4-0.3-0.9-0.6-1.3-0.9
	c0.3-0.3,0.5-0.7,0.5-1.1c0-0.8-0.6-1.4-1.3-1.5c0-0.4,0-0.8,0-1.2C18.4,4.5,19.4,5.2,20.1,6z M17.7,6c0.1-0.1,0.2-0.1,0.2,0
	C18,6,18,6.2,17.9,6.2c-0.4,0.4-0.5,0.5-0.5,0.5c0.4,0.4,0.5,0.5,0.5,0.5c0.1,0.1,0.1,0.1,0,0.2c-0.1,0.1-0.2,0.1-0.2,0
	c-0.4-0.4-0.5-0.5-0.5-0.5c-0.4,0.4-0.5,0.5-0.5,0.5c-0.1,0.1-0.1,0.1-0.2,0c-0.1-0.1-0.1-0.1,0-0.2C16.9,6.7,17,6.7,17,6.7
	c-0.4-0.4-0.5-0.5-0.5-0.5c-0.1-0.1-0.1-0.1,0-0.2c0.1-0.1,0.2-0.1,0.2,0c0.4,0.4,0.5,0.5,0.5,0.5L17.7,6z M13.9,3.2
	c1.1,0,2.2,0.3,3.2,0.7c0,0.4,0,0.9,0,1.3c-0.8,0-1.4,0.7-1.4,1.5C14.4,6.2,13.1,6,12,6c-0.1,0-0.2,0-0.4,0
	c-0.1-0.2-0.1-0.4-0.3-0.5C12.4,4.3,13.4,3.6,13.9,3.2z M13.5,3.2c-0.6,0.4-1.4,1.1-2.3,2c-0.3-0.2-0.6-0.4-1-0.4
	C9.8,4.8,9.4,5,9.1,5.4C8.9,5.2,8.7,5,8.6,4.9C10,3.9,11.6,3.3,13.5,3.2z M8.4,5.1c0.1,0.1,0.3,0.3,0.6,0.5C8.8,5.7,8.8,5.9,8.7,6.2
	C8,6.3,7.3,6.5,6.9,6.6C7.3,6,7.8,5.5,8.4,5.1z M6.6,7c0.5-0.1,1.2-0.4,2.1-0.5c0,0.5,0.3,0.9,0.7,1.2c-0.7,1.1-1.4,2.5-1.9,4.1
	c-0.1,0-0.3-0.1-0.4-0.1c-0.3,0-0.5,0.1-0.7,0.2c-0.6-0.7-0.9-1.2-1.1-1.6C5.5,9,6,7.9,6.6,7z M6.8,17.1c-1.1-1.5-1.7-3.3-1.7-5.2
	c0-0.4,0-0.9,0.1-1.3c0.2,0.4,0.6,0.8,1,1.4c-0.4,0.3-0.6,0.7-0.6,1.2c0,0.8,0.6,1.4,1.3,1.5C6.9,15.4,6.8,16.2,6.8,17.1z M6.9,13.9
	c0,0-0.1,0-0.1,0l-0.6-0.6c-0.1-0.1-0.1-0.2,0-0.2C6.3,13,6.4,13,6.4,13l0.5,0.5l0.8-1c0.1-0.1,0.2-0.1,0.2,0c0.1,0.1,0.1,0.2,0,0.2
	l-0.9,1.2C7.1,13.9,7,13.9,6.9,13.9L6.9,13.9z M7,17.4c0-1,0-1.9,0.1-2.8c0.5,0,0.9-0.2,1.1-0.6c0.8,0.6,1.6,1.2,2.6,1.7
	c-0.1,0.2-0.2,0.4-0.2,0.7c0,0.3,0.1,0.5,0.2,0.7c-1.1,0.3-2.3,0.6-3.6,0.7C7.2,17.6,7.1,17.5,7,17.4z M7.5,18
	c1.3-0.1,2.5-0.4,3.5-0.7c0.3,0.4,0.7,0.6,1.2,0.6h0.1c-0.8,1.1-1.4,1.8-1.7,2.1C9.4,19.6,8.4,18.9,7.5,18z M13.6,20.6
	c-1,0-1.9-0.2-2.8-0.5c0.4-0.4,1-1.2,1.8-2.3c0.5-0.1,0.9-0.6,1-1.2c0.2,0.1,0.5,0.1,0.9,0.1c0,0.1,0,0.2,0,0.3c0,0.4,0.1,0.8,0.4,1
	C14.5,18.9,14,19.7,13.6,20.6z M13.9,20.6c0.4-0.9,0.8-1.7,1.3-2.4c0.2,0.2,0.6,0.3,0.9,0.3c0.8,0,1.5-0.7,1.5-1.5v-0.2
	c1.1-0.1,2.4-0.3,3.8-0.8C19.9,18.8,17.1,20.6,13.9,20.6z M17.5,16.7c-0.1-0.3-0.3-0.6-0.5-0.8c0.9-0.9,1.8-1.7,2.6-2.4
	c0.3,0.4,0.7,0.6,1.2,0.6c0.8,0,1.5-0.7,1.5-1.5c0-0.3-0.1-0.5-0.2-0.8c0,0,0.1,0,0.1,0c0.1,0.1,0.1,0.2,0.2,0.3
	c-0.1,1.3-0.4,2.5-0.9,3.7C20.1,16.4,18.7,16.6,17.5,16.7z"/>
<g>
</g>
<g>
</g>
<g>
</g>
<g>
</g>
<g>
</g>
<g>
</g>
</svg>
