<?xml version="1.0" encoding="utf-8"?>
<!-- Generator: Adobe Illustrator 27.3.1, SVG Export Plug-In . SVG Version: 6.00 Build 0)  -->
<svg version="1.1" id="Layer_1" xmlns="http://www.w3.org/2000/svg" xmlns:xlink="http://www.w3.org/1999/xlink" x="0px" y="0px"
	 viewBox="0 0 27.4 23.7" style="enable-background:new 0 0 27.4 23.7;" xml:space="preserve">
<style type="text/css">
	.st0{fill:#A153A0;}
	.st1{fill:#FFFFFF;}
</style>
<g>
	<g>
		<polygon class="st0" points="20.5,23.7 27.4,11.8 20.5,0 6.8,0 0,11.8 6.8,23.7 		"/>
	</g>
</g>
<g>
	<path class="st1" d="M5.6,12.8c3.6,3,6.1,3,6.1,8.3c0,0.5,0.9,0.9,2,0.9c1.1,0,2-0.4,2-0.9c0-5.2,2.4-5.2,6-8.3
		c-1.8,0.9-4.7,1.4-8.1,1.4C10.3,14.2,7.3,13.7,5.6,12.8z"/>
	<path class="st1" d="M17.6,13.1c0.5-0.1,1-0.2,1.5-0.2c2.1-0.4,3.5-1.1,3.5-1.9c0-0.6-0.8-1.1-2.1-1.6c0-0.2,0-0.4,0-0.6
		c0-0.9-0.2-1.8-0.5-2.6c-0.3-0.8-0.8-1.5-1.4-2.1c-0.6-0.6-1.3-1.1-2.1-1.4C15.5,2.2,14.6,2,13.7,2c-0.9,0-1.8,0.2-2.6,0.5
		C10.3,2.9,9.5,3.3,8.9,4C8.3,4.6,7.8,5.3,7.5,6.1C7.1,6.9,6.9,7.8,6.9,8.7c0,0.2,0,0.4,0,0.6c0,0,0,0,0,0c-1.3,0.4-2.1,1-2.1,1.6
		c0,0.8,1.4,1.5,3.5,1.9c0.5,0.1,0.9,0.2,1.5,0.2c-0.1-0.1-0.2-0.2-0.3-0.2c-1.1-1.1-1.7-2.6-1.7-4.1s0.6-3,1.7-4.1
		c0.1-0.1,0.2-0.2,0.3-0.3c0,0,0,0.1,0,0.1c0,0,0.1-0.1,0.2,0c0,0.1,0,0.1-0.1,0.2c0,0.1,0,0.1,0,0.2c0,0,0,0.1,0,0.1
		c0,0-0.1,0-0.1,0.1c0,0.1,0.1,0.1,0.1,0.2c0,0,0,0.1-0.1,0.2c0,0.1-0.1,0.2-0.2,0.3C9.7,5.8,9.6,5.9,9.5,6c0,0,0,0.1,0,0.1
		c0,0.1-0.1,0.1-0.1,0.2v0.3v0.3c0,0,0,0.1,0.1,0.2c0,0.1,0.1,0,0.1,0.1c0,0,0.1,0.1,0.1,0.1c0,0.1,0,0.1,0,0.2c0,0.1,0,0.2,0,0.2
		c0,0.1,0.1,0.1,0.1,0.2S9.7,7.9,9.7,8C9.7,8,9.9,8,10,8.1c0,0,0,0.1,0,0.2c0,0,0.1,0.1,0.1,0.1c0,0,0.1,0.1,0.1,0.1
		c0,0,0-0.1-0.1-0.2c0,0,0-0.2,0-0.3C10.1,8,10,8,10,7.9c0,0,0-0.1,0-0.2c0,0-0.1-0.1-0.1-0.1c0-0.2,0.1-0.2,0.2-0.1
		c0,0.1,0,0.2,0,0.2c0,0.1,0.1,0.1,0.1,0.2c0,0.1,0.1,0.1,0.1,0.2c0,0,0,0,0,0.1c0.1,0.1,0.1,0.1,0.2,0.2c0.1,0.1,0.2,0.2,0.2,0.4
		c0,0.1,0,0.1,0,0.2c0,0,0,0.1,0.1,0.1c0.1,0,0.1,0.1,0.2,0.1c0,0,0.1,0,0.1,0c0,0,0.1,0.1,0.1,0.1c0.1,0,0.2,0.1,0.3,0.1
		c0.1,0,0.2,0.1,0.3,0.1c0.1,0,0.1-0.1,0.2-0.1c0.2,0,0.3,0.2,0.4,0.3c0,0,0.1,0,0.1,0c0,0,0.1,0,0.1,0c0.1,0,0.2,0,0.2,0
		c0.1,0,0.2,0.2,0.2,0.2v0.1c0,0.1,0.1,0,0.2,0.1c0.1,0,0.1,0.1,0.2,0.2h0.1c0.1,0,0.1,0.1,0.2,0.1c0.1,0,0-0.1,0.1-0.1
		c0,0,0.1-0.1,0.1-0.1c0.1,0,0.1,0.1,0.1,0.2c0,0.1,0,0.1,0.1,0.1c0,0.1,0,0.4,0,0.4c0,0-0.1,0.1-0.2,0.1c0,0,0,0.1-0.1,0.1
		c0,0-0.1,0-0.1,0.1c0,0,0,0.1,0,0.1c0,0.1-0.1,0.2-0.1,0.3c0,0,0.1,0.1,0.1,0.1c0,0-0.1,0.1-0.1,0.2c0,0,0,0.1,0,0.2
		c0,0,0.1,0.1,0.1,0.1c0,0,0.1,0.1,0.1,0.2c0.1,0.1,0.2,0.3,0.3,0.4c0,0.1,0.1,0.1,0.1,0.2v0C15.4,13.3,16.5,13.2,17.6,13.1z
		 M20.4,9.6C20.4,9.6,20.4,9.6,20.4,9.6C20.4,9.6,20.4,9.6,20.4,9.6z M16.2,4c0,0.4-0.3,0.5-0.6,0.5c-0.1,0.1,0,0.2-0.1,0.3
		c0,0.1-0.1,0.1-0.2,0.1c0,0-0.1-0.1-0.1-0.1c0-0.1,0.1-0.1,0-0.2c0,0,0.1-0.1,0.1-0.2c0-0.1-0.1,0-0.2,0c-0.1,0-0.2,0-0.2-0.1
		c-0.1,0-0.1-0.1-0.3-0.2c0,0-0.1,0-0.1,0c0,0,0-0.1,0-0.1c0,0-0.1-0.1-0.1-0.1c0,0,0.1-0.1,0.1-0.2c0.1,0,0.2-0.1,0.3-0.1
		c0.1,0,0.2-0.1,0.3-0.1c0,0,0.1,0,0.1,0c0.1,0,0.1-0.1,0.2-0.1c0,0,0.1,0,0.1,0c0.1,0,0.1,0,0.2-0.1c0,0,0.1,0,0.1,0c0,0,0,0,0,0.1
		c0.1,0.1,0.1,0,0.2,0c0.1,0.1,0.3,0.1,0.4,0.2c0,0,0,0,0,0c0,0,0,0.1-0.1,0.1c0,0.1-0.1,0.1-0.1,0.2C16.2,3.9,16.2,3.9,16.2,4z
		 M7,9.6C7,9.6,7,9.6,7,9.6C7,9.6,7,9.6,7,9.6z M17.5,11.2c0,0,0-0.1,0-0.1c0,0-0.1-0.1-0.1-0.1c-0.1-0.1-0.2-0.1-0.4-0.2
		c-0.1,0-0.1,0-0.2,0c-0.1,0-0.2-0.1-0.2-0.2c-0.1,0-0.1-0.1-0.1-0.1c0,0-0.1,0-0.1-0.1c0,0,0,0,0-0.1c0,0,0-0.1,0-0.1
		c0,0-0.1,0-0.1,0c0-0.1-0.1-0.1-0.2-0.1c0,0-0.1,0.1-0.1,0.1c-0.1,0-0.1,0-0.2-0.1c0,0-0.1,0-0.1,0c-0.1,0-0.1-0.1-0.1-0.1
		c0,0-0.1-0.1-0.1-0.1c-0.1,0-0.1,0.1-0.2,0.1c0-0.1,0.1-0.1,0-0.2c0,0-0.1,0-0.1,0c0,0-0.1,0.1-0.1,0.1c-0.1,0-0.2,0-0.2,0.1
		c-0.1,0-0.1,0.1-0.1,0.2c0,0-0.1,0.1-0.2,0.1c0,0-0.1-0.1-0.2-0.1c-0.2-0.1-0.2,0-0.4,0c-0.1,0-0.3-0.2-0.3-0.3c0-0.1,0-0.2,0-0.3
		c0-0.1,0-0.1,0-0.2c0-0.1-0.1-0.2-0.2-0.2c-0.1,0-0.3,0-0.5,0c0,0,0-0.1,0-0.1c0,0,0,0,0-0.1c0,0,0.1-0.1,0.1-0.1c0,0,0-0.1,0-0.1
		c0,0,0-0.1,0-0.1c0,0,0-0.1,0-0.1c-0.1,0-0.2,0-0.3,0c-0.1,0.1-0.1,0.3-0.3,0.3c-0.1,0-0.1,0-0.2,0c0,0-0.1,0-0.2,0
		c-0.1,0-0.2-0.1-0.2-0.1c0,0-0.1-0.2-0.1-0.3c-0.1-0.2,0-0.4,0.1-0.5c0,0,0,0,0-0.1c0,0,0-0.1,0-0.2c0-0.1,0.2-0.2,0.2-0.2
		c0.1,0,0.2-0.1,0.3-0.1c0,0,0.1,0,0.2,0c0.1,0,0.1,0,0.1,0c0.1,0,0.2-0.1,0.3-0.1c0.1,0,0.2,0,0.3,0c0.1,0,0.1,0.1,0.2,0.1
		c0,0,0.1,0,0.1,0c0,0,0.1,0.1,0.1,0.1c0,0.1,0,0.1,0,0.2C13.8,8,13.9,8,14,8.1c0.1,0,0-0.1,0-0.2V7.8c0,0,0-0.1,0-0.1
		c0-0.2,0.2-0.3,0.3-0.4c0,0,0.1-0.1,0.1-0.1c0.1,0,0.1,0,0.2-0.1c0.1-0.1,0.2-0.1,0.3-0.2c0-0.1,0-0.2,0-0.3c0,0,0.1,0,0.1,0
		c0.1,0,0.1-0.1,0.1-0.1c0,0,0.1,0,0.1-0.1c0.1,0,0.1-0.1,0.1-0.1c0,0,0.1,0,0.1,0c0,0,0.1,0,0.2-0.1c0,0,0.1,0,0.2,0V6
		c0-0.2,0.3-0.2,0.4-0.3c0.1,0,0.2-0.1,0.3-0.1c0,0.1-0.1,0-0.1,0.1c0,0.1,0.2,0,0.2-0.1c0.1,0,0.2,0,0.4-0.1c0.1,0,0.3-0.1,0.2-0.2
		c-0.1,0-0.1,0.1-0.2,0.1c0,0,0,0-0.1,0c0,0-0.1,0-0.1,0c0,0-0.1-0.1-0.1-0.1c0-0.1,0.1-0.2,0.2-0.3c0-0.1-0.2,0-0.3-0.1
		c0,0,0.1-0.1,0.2-0.1c0,0,0.2,0,0.2,0c0,0,0,0,0,0.1c0,0,0.1,0,0.1,0c0-0.1-0.1,0-0.1-0.1c0.1-0.1,0.2,0,0.4,0c0.1,0,0.1,0,0.2-0.1
		c0,0,0.1-0.1,0.2,0c0,0-0.1,0.1-0.1,0.1c-0.1,0.1-0.2,0.2-0.3,0.3c0,0,0.1,0,0.2,0c0,0,0.1,0,0.1,0c0,0,0.1,0,0.1,0
		c0.1,0,0.1,0.1,0.1,0.1c0.1,0,0.1-0.1,0-0.2c0-0.1,0-0.1,0-0.1c0-0.1-0.2,0-0.2-0.1c0-0.1,0.1-0.1,0.1-0.1c0,0,0,0,0-0.1
		c1,1.1,1.5,2.4,1.5,3.9c0,1.1-0.3,2.2-0.9,3.2c0,0-0.1,0-0.1,0c0,0-0.1,0-0.1,0c0,0,0-0.1-0.1-0.1c0,0-0.1,0-0.1,0
		c-0.1,0-0.1,0-0.2-0.1c0,0-0.1,0-0.1,0c0,0-0.1-0.1-0.1-0.1c0,0-0.1,0-0.1-0.1C17.6,11.3,17.5,11.3,17.5,11.2z"/>
</g>
<g>
</g>
<g>
</g>
<g>
</g>
<g>
</g>
<g>
</g>
<g>
</g>
</svg>
