<?xml version="1.0" encoding="utf-8"?>
<!-- Generator: Adobe Illustrator 27.3.1, SVG Export Plug-In . SVG Version: 6.00 Build 0)  -->
<svg version="1.1" id="Layer_1" xmlns="http://www.w3.org/2000/svg" xmlns:xlink="http://www.w3.org/1999/xlink" x="0px" y="0px"
	 viewBox="0 0 27.4 23.7" style="enable-background:new 0 0 27.4 23.7;" xml:space="preserve">
<style type="text/css">
	.st0{fill:#A153A0;}
	.st1{fill:#FFFFFF;}
</style>
<g>
	<g>
		<polygon class="st0" points="20.5,23.7 27.4,11.8 20.5,0 6.8,0 0,11.8 6.8,23.7 		"/>
		<g>
			<rect x="2.8" y="14.3" class="st1" width="21.6" height="0.4"/>
			<path class="st1" d="M16.7,17.9h0.9v-1.6h-3v1.6h0l-0.7,0.4L13,17.8v-1.5h-3v1.6h0.9l-1.4,2.6H7.6v1.6h3v-1.6l2-1.2l0.6,1.2h-1.1
				v1.6h3v-1.6h-0.9l0.6-1.2l1.9,1.2h-0.2v1.6h3v-1.6h-1.8L16.7,17.9z M15,17.9h0.6L15,19l-0.9-0.5L15,17.9z M12.7,17.9l0.9,0.6
				L12.8,19l-0.6-1.1H12.7z M10.3,20.5H9.7l1.4-2.6h0.8l0.7,1.2L10.3,20.5z M14.2,20.5h-0.6l-0.7-1.3l1-0.6l1,0.6L14.2,20.5z
				 M15.2,19.1l0.7-1.2h0.6l1.4,2.6h-0.5L15.2,19.1z"/>
			<path class="st1" d="M8.7,9.2v0.6H7.8l1.4,1.7l1.4-1.7H9.7V9.2V7.9V6.7h8.7c0.9,0,1.7,0.8,1.7,1.7c0,0.9-0.7,1.7-1.7,1.7V9.1
				l-1.7,1.4l1.7,1.4V11v0c1.5,0,2.6-1.2,2.6-2.7c0-1.5-1.2-2.7-2.7-2.7H9.7v-3h0.9L9.2,1.1L7.8,2.8h0.9v5.2V9.2z"/>
			<path class="st1" d="M12.3,8.1c-0.6,0-1,0.5-1,1V12c0,0.6,0.5,1,1,1h2.8c0.6,0,1-0.5,1-1V9.2c0-0.6-0.5-1-1-1H12.3z M15.6,9.2V12
				c0,0.3-0.2,0.5-0.5,0.5h-2.8c-0.3,0-0.5-0.2-0.5-0.5V9.2c0-0.3,0.2-0.5,0.5-0.5h2.8C15.4,8.7,15.6,8.9,15.6,9.2z"/>
			<path class="st1" d="M14.4,9.5c-0.2-0.1-0.4-0.2-0.7-0.2c-0.3,0-0.6,0-0.7,0v2.4h0.5v-0.9c0,0,0.1,0,0.2,0c0.3,0,0.6-0.1,0.8-0.3
				c0.1-0.1,0.2-0.3,0.2-0.6C14.6,9.8,14.5,9.6,14.4,9.5z M13.6,10.5c-0.1,0-0.1,0-0.2,0V9.7c0,0,0.1,0,0.2,0c0.3,0,0.4,0.1,0.4,0.4
				C14.1,10.3,13.9,10.5,13.6,10.5z"/>
		</g>
	</g>
</g>
<g>
</g>
<g>
</g>
<g>
</g>
<g>
</g>
<g>
</g>
<g>
</g>
</svg>
