<?xml version="1.0" encoding="utf-8"?>
<!-- Generator: Adobe Illustrator 27.3.1, SVG Export Plug-In . SVG Version: 6.00 Build 0)  -->
<svg version="1.1" id="Layer_1" xmlns="http://www.w3.org/2000/svg" xmlns:xlink="http://www.w3.org/1999/xlink" x="0px" y="0px"
	 viewBox="0 0 27.4 23.7" style="enable-background:new 0 0 27.4 23.7;" xml:space="preserve">
<style type="text/css">
	.st0{fill:#9F53A0;}
	.st1{fill-rule:evenodd;clip-rule:evenodd;fill:#FFFFFF;}
	.st2{fill:#FFFFFF;}
</style>
<g>
	<g>
		<polygon class="st0" points="20.5,23.7 27.4,11.8 20.5,0 6.8,0 0,11.8 6.8,23.7 		"/>
	</g>
</g>
<g>
	<g>
		<g>
			<g>
				<path class="st1" d="M12.5,10.5V10l1-0.2c0.5,0.1,0.8,0.2,0.9,0.2l-1.6,1.5c-0.1-0.2-0.2-0.4-0.3-0.7
					C12.5,10.7,12.5,10.6,12.5,10.5 M14.5,10.5c0,0.1,0,0.2-0.1,0.4c-0.1,0.5-0.5,1-1,1.2c-0.2-0.1-0.4-0.2-0.5-0.4l1.6-1.5V10.5z
					 M13.5,12.5c0.8-0.3,1.4-1.1,1.4-2v-1l-0.5-0.1v0.2l-0.6-0.1V9.3l-0.3-0.1l-0.3,0.1v0.2l-0.6,0.1V9.4l-0.5,0.1v1
					C12.1,11.4,12.7,12.1,13.5,12.5"/>
			</g>
		</g>
	</g>
</g>
<g>
	<path class="st2" d="M16.9,7.9c0.2,0.1,0.4,0.3,0.5,0.5l1.1-1.1c0.6,0.4,1.4,0.3,2-0.2c0.6-0.6,0.6-1.6,0-2.3
		c-0.6-0.6-1.6-0.6-2.3,0c-0.5,0.5-0.6,1.4-0.2,2L16.9,7.9z"/>
	<path class="st2" d="M8.5,7.2l1.1,1.1C9.7,8.2,9.9,8,10.1,7.9L9,6.7c0.4-0.6,0.3-1.4-0.2-2c-0.6-0.6-1.6-0.6-2.3,0
		C5.9,5.4,5.9,6.4,6.5,7C7,7.6,7.9,7.6,8.5,7.2z"/>
	<path class="st2" d="M13.2,5v2.6h0.7V5c0.7-0.2,1.2-0.8,1.2-1.6c0-0.9-0.7-1.6-1.6-1.6s-1.6,0.7-1.6,1.6C11.9,4.2,12.5,4.9,13.2,5z
		"/>
	<path class="st2" d="M9.4,11.4H6.7c-0.2-0.7-0.8-1.2-1.6-1.2c-0.9,0-1.6,0.7-1.6,1.6s0.7,1.6,1.6,1.6c0.8,0,1.4-0.5,1.6-1.2h2.7
		V11.4z"/>
	<path class="st2" d="M21.8,10.2c-0.8,0-1.4,0.5-1.6,1.2h-2.7v0.7h2.7c0.2,0.7,0.8,1.2,1.6,1.2c0.9,0,1.6-0.7,1.6-1.6
		S22.7,10.2,21.8,10.2z"/>
</g>
<path class="st2" d="M9.9,15.9c-0.2-0.1-0.4-0.3-0.4-0.5l-1,1c-0.6-0.4-1.4-0.3-2,0.2c-0.6,0.6-0.6,1.6,0,2.3c0.6,0.6,1.6,0.6,2.3,0
	c0.5-0.5,0.6-1.4,0.2-2L9.9,15.9z"/>
<path class="st2" d="M16.1,13.3h-5.2c-0.5,0-0.8-0.4-0.8-0.8V9.1c0-0.5,0.4-0.8,0.8-0.8h5.2c0.5,0,0.8,0.4,0.8,0.8v3.3
	C17,12.9,16.6,13.3,16.1,13.3z M10.9,8.9c-0.1,0-0.3,0.1-0.3,0.3v3.3c0,0.1,0.1,0.3,0.3,0.3h5.2c0.1,0,0.3-0.1,0.3-0.3V9.1
	c0-0.1-0.1-0.3-0.3-0.3H10.9z"/>
<path class="st2" d="M20.5,16.5c-0.5-0.5-1.4-0.6-2-0.2l-1-1c-0.1,0.2-0.2,0.4-0.4,0.5l0.9,0.9c-0.4,0.6-0.3,1.4,0.2,2
	c0.6,0.6,1.6,0.6,2.3,0C21.2,18.2,21.2,17.2,20.5,16.5z"/>
<path class="st2" d="M13.9,18.6V16h-0.7v2.5c-0.7,0.2-1.2,0.8-1.2,1.6c0,0.9,0.7,1.6,1.6,1.6s1.6-0.7,1.6-1.6
	C15.1,19.4,14.6,18.7,13.9,18.6z"/>
<path class="st2" d="M16.6,13.7h-6.3c-0.2,0-0.3,0.1-0.3,0.3v1c0,0.2,0.1,0.3,0.3,0.3h6.3c0.2,0,0.3-0.1,0.3-0.3v-1
	C17,13.8,16.8,13.7,16.6,13.7z M16.4,14.7C16.4,14.8,16.3,14.8,16.4,14.7l-3.2,0.1c-0.1,0-0.1,0-0.1-0.1v-0.3c0-0.1,0-0.1,0.1-0.1
	h3.1c0.1,0,0.1,0,0.1,0.1V14.7z"/>
<g>
</g>
<g>
</g>
<g>
</g>
<g>
</g>
<g>
</g>
<g>
</g>
</svg>
