<?xml version="1.0" encoding="utf-8"?>
<!-- Generator: Adobe Illustrator 27.3.1, SVG Export Plug-In . SVG Version: 6.00 Build 0)  -->
<svg version="1.1" id="Layer_1" xmlns="http://www.w3.org/2000/svg" xmlns:xlink="http://www.w3.org/1999/xlink" x="0px" y="0px"
	 viewBox="0 0 27.4 23.7" style="enable-background:new 0 0 27.4 23.7;" xml:space="preserve">
<style type="text/css">
	.st0{fill:#A153A0;}
	.st1{fill:#9F53A0;}
	.st2{fill:#FFFFFF;}
</style>
<g>
	<g>
		<polygon class="st0" points="20.4,23.5 27.2,11.8 20.4,0 6.8,0 0.1,11.8 6.8,23.5 		"/>
	</g>
</g>
<g>
	<polygon class="st1" points="20.5,23.7 27.4,11.8 20.5,0 6.8,0 0,11.8 6.8,23.7 	"/>
</g>
<g>
	<g>
		<g>
			
				<rect x="5.1" y="12" transform="matrix(-4.939001e-11 1 -1 -4.939001e-11 26.5444 -2.2587)" class="st2" width="18.6" height="0.4"/>
		</g>
	</g>
</g>
<g>
	<path class="st2" d="M12.8,16.5C12.8,16.5,12.8,16.5,12.8,16.5l-0.7-0.7c-0.1-0.1-0.2-0.1-0.2,0l0,0c-0.1,0.1-0.1,0.2,0,0.2
		l0.4,0.4h-1.2c0-0.4-0.2-0.8-0.4-1.1l0.8-0.8v0.5c0,0.1,0.1,0.2,0.2,0.2h0c0.1,0,0.2-0.1,0.2-0.2l0-0.9c0,0,0,0,0,0
		c0,0,0-0.1,0-0.1l0,0c0,0-0.1,0-0.1,0c0,0,0,0,0,0h-0.9c-0.1,0-0.2,0.1-0.2,0.2l0,0c0,0.1,0.1,0.2,0.2,0.2h0.5l-0.8,0.8
		c-0.3-0.2-0.7-0.4-1.1-0.4v-1.2l0.4,0.4c0.1,0.1,0.2,0.1,0.2,0l0,0c0.1-0.1,0.1-0.2,0-0.2L9.3,13c0,0,0,0,0,0c0,0-0.1-0.1-0.1-0.1
		h0c0,0-0.1,0-0.1,0c0,0,0,0,0,0l-0.7,0.7c-0.1,0.1-0.1,0.2,0,0.2l0,0c0.1,0.1,0.2,0.1,0.2,0l0.4-0.4v1.2c-0.4,0-0.8,0.2-1.1,0.4
		L7,14.3h0.5c0.1,0,0.2-0.1,0.2-0.2l0,0C7.8,14,7.7,14,7.6,14H6.7c0,0,0,0,0,0c0,0-0.1,0-0.1,0l0,0c0,0-0.1,0.1,0,0.1c0,0,0,0,0,0
		v0.9c0,0.1,0.1,0.2,0.2,0.2h0c0.1,0,0.2-0.1,0.2-0.2v-0.5l0.8,0.8c-0.2,0.3-0.4,0.7-0.4,1.1H6l0.4-0.4c0.1-0.1,0.1-0.2,0-0.2l0,0
		c-0.1-0.1-0.2-0.1-0.2,0l-0.7,0.7c0,0,0,0,0,0c0,0,0,0.1,0,0.1v0c0,0.1,0,0.1,0.1,0.1c0,0,0,0,0,0l0.7,0.7c0.1,0.1,0.2,0.1,0.2,0
		l0,0c0.1-0.1,0.1-0.2,0-0.2L6,16.8h1.2c0,0.4,0.2,0.8,0.4,1.1l-0.8,0.8v-0.5c0-0.1-0.1-0.2-0.2-0.2l0,0c-0.1,0-0.2,0.1-0.2,0.2v0.9
		c0,0,0,0,0,0c0,0,0,0.1,0,0.1l0,0c0,0,0.1,0.1,0.1,0c0,0,0,0,0,0h0.9c0.1,0,0.2-0.1,0.2-0.2v0c0-0.1-0.1-0.2-0.2-0.2H7.1l0.8-0.8
		c0.3,0.2,0.7,0.4,1.1,0.4v1.2l-0.4-0.4c-0.1-0.1-0.2-0.1-0.2,0l0,0c-0.1,0.1-0.1,0.2,0,0.2L9,20.3c0,0,0,0,0,0c0,0,0.1,0,0.1,0h0
		c0.1,0,0.1,0,0.1-0.1c0,0,0,0,0,0l0.7-0.7c0.1-0.1,0.1-0.2,0-0.2l0,0c-0.1-0.1-0.2-0.1-0.2,0l-0.4,0.4v-1.2c0.4,0,0.8-0.2,1.1-0.4
		l0.8,0.8h-0.5c-0.1,0-0.2,0.1-0.2,0.2v0c0,0.1,0.1,0.2,0.2,0.2l0.9,0c0,0,0,0,0,0c0,0,0.1,0,0.1,0l0,0c0,0,0-0.1,0-0.1c0,0,0,0,0,0
		v-0.9c0-0.1-0.1-0.2-0.2-0.2l0,0c-0.1,0-0.2,0.1-0.2,0.2v0.5l-0.8-0.8c0.2-0.3,0.4-0.7,0.4-1.1h1.2l-0.4,0.4
		c-0.1,0.1-0.1,0.2,0,0.2l0,0c0.1,0.1,0.2,0.1,0.2,0l0.7-0.7c0,0,0,0,0,0c0,0,0.1-0.1,0.1-0.1v0C12.8,16.6,12.8,16.6,12.8,16.5z"/>
</g>
<g>
	<polygon class="st2" points="12.1,9.7 9.5,9.7 9.5,11.2 12.1,11.2 12.1,12 13.6,10.5 13.6,10.5 12.1,9 	"/>
	<polygon class="st2" points="12.1,8.6 13.6,7.1 13.6,7.1 12.1,5.6 12.1,6.3 9.5,6.3 9.5,7.8 12.1,7.8 	"/>
	<polygon class="st2" points="6.6,7.3 5.2,8.8 5.1,8.8 6.6,10.3 6.6,9.6 9.2,9.6 9.2,8.1 6.6,8.1 	"/>
	<polygon class="st2" points="6.6,3.9 5.2,5.4 5.1,5.4 6.6,6.9 6.6,6.2 9.2,6.2 9.2,4.7 6.6,4.7 	"/>
</g>
<g>
	<path class="st2" d="M19.3,3.7c1.2,0,2.8,3.2,2.8,8.4s-1.6,8.4-2.8,8.4s-2.8-3.2-2.8-8.4S18.1,3.7,19.3,3.7 M19.3,3
		c-1.9,0-3.4,4-3.4,9c0,5,1.5,9,3.4,9c1.9,0,3.4-4,3.4-9C22.7,7.1,21.2,3,19.3,3L19.3,3z"/>
</g>
<g>
</g>
<g>
</g>
<g>
</g>
<g>
</g>
<g>
</g>
<g>
</g>
</svg>
