<?xml version="1.0" encoding="utf-8"?>
<!-- Generator: Adobe Illustrator 27.3.1, SVG Export Plug-In . SVG Version: 6.00 Build 0)  -->
<svg version="1.1" id="Layer_1" xmlns="http://www.w3.org/2000/svg" xmlns:xlink="http://www.w3.org/1999/xlink" x="0px" y="0px"
	 viewBox="0 0 27.4 23.7" style="enable-background:new 0 0 27.4 23.7;" xml:space="preserve">
<style type="text/css">
	.st0{fill:#9F53A0;}
	.st1{fill-rule:evenodd;clip-rule:evenodd;fill:#FFFFFF;}
</style>
<g>
	<g>
		<polygon class="st0" points="20.5,23.7 27.4,11.8 20.5,0 6.8,0 0,11.8 6.8,23.7 		"/>
	</g>
</g>
<g>
	<path class="st1" d="M20.8,16.9h-0.1v-5.3c0-0.6-0.5-1-1-1h-3.5c-0.6-1-1.5-1.7-2.6-2.1c0.8-0.6,1.2-1.6,1.2-2.6
		c0-1.8-1.5-3.3-3.3-3.3c-1.9,0-3.4,1.5-3.4,3.3c0,1,0.4,1.9,1.2,2.6C7,9.4,5.6,11.6,5.6,14.4v1.9h4.3v0.6H9.8
		c-0.5,0-0.9,0.4-0.9,0.9s0.4,0.9,0.9,0.9h11c0.5,0,0.9-0.4,0.9-0.9S21.3,16.9,20.8,16.9z M8.8,5.9c0-1.4,1.2-2.6,2.6-2.6
		c1.4,0,2.6,1.2,2.6,2.6c0,1.4-1.2,2.6-2.6,2.6C10,8.5,8.8,7.4,8.8,5.9z M6.4,15.5v-1.2c0-2.7,1.5-4.8,3.8-5.4
		c0.8,0.4,1.8,0.4,2.6,0c1,0.3,1.8,0.8,2.5,1.6h-4.3c-0.6,0-1,0.5-1,1v3.9H6.4z M10.7,11.6c0-0.1,0.1-0.2,0.2-0.2h8.8
		c0.1,0,0.2,0.1,0.2,0.2v5.3h-9.2V11.6z"/>
</g>
<g>
	<g>
		<path class="st1" d="M13.5,14.3c-0.1,0-0.2,0.2-0.2,0.3c0,0.1,0.2,0.2,0.3,0.2c0.7-0.2,1.4,0.3,1.6,1c0,0.1,0.1,0.1,0.1,0.2
			c0.1,0,0.1,0.1,0.2,0c0.1,0,0.2-0.2,0.2-0.3C15.6,14.7,14.6,14,13.5,14.3"/>
	</g>
	<g>
		<path class="st1" d="M14.3,15.5c-0.2-0.1-0.6-0.1-0.7,0.2c-0.2,0.2-0.1,0.5,0.2,0.7c0.2,0.1,0.6,0.1,0.7-0.2
			C14.7,16,14.6,15.6,14.3,15.5"/>
	</g>
	<g>
		<path class="st1" d="M13.4,13.2L13.4,13.2c-0.2,0-0.3,0.2-0.2,0.4c0.1,0.2,0.2,0.3,0.4,0.2h0l0,0c1.1-0.3,2.3,0.5,2.6,1.6l0,0.1
			l0,0c0,0.2,0.2,0.3,0.3,0.2c0.2,0,0.3-0.2,0.2-0.4l0,0l0-0.1C16.4,13.8,15,12.9,13.4,13.2L13.4,13.2z"/>
	</g>
	<g>
		<path class="st1" d="M17.7,15.7c-0.1,0-0.3-0.1-0.3-0.3c-0.1-0.7-0.5-1.6-1.4-2.2c-1-0.7-2.1-0.7-2.8-0.5c-0.2,0.1-0.3,0-0.4-0.2
			c-0.1-0.2,0-0.3,0.2-0.4c1-0.4,2.4-0.2,3.4,0.6c0.9,0.6,1.5,1.6,1.6,2.6C18,15.5,17.9,15.7,17.7,15.7
			C17.7,15.7,17.7,15.7,17.7,15.7"/>
	</g>
</g>
<g>
</g>
<g>
</g>
<g>
</g>
<g>
</g>
<g>
</g>
<g>
</g>
</svg>
