<?xml version="1.0" encoding="utf-8"?>
<!-- Generator: Adobe Illustrator 27.3.1, SVG Export Plug-In . SVG Version: 6.00 Build 0)  -->
<svg version="1.1" id="Layer_1" xmlns="http://www.w3.org/2000/svg" xmlns:xlink="http://www.w3.org/1999/xlink" x="0px" y="0px"
	 viewBox="0 0 27.4 23.7" style="enable-background:new 0 0 27.4 23.7;" xml:space="preserve">
<style type="text/css">
	.st0{fill:#A153A0;}
	.st1{fill:#FFFFFF;}
</style>
<g>
	<g>
		<polygon class="st0" points="20.5,23.7 27.4,11.8 20.5,0 6.8,0 0,11.8 6.8,23.7 		"/>
		<g>
			<g>
				<rect x="2.8" y="9.1" class="st1" width="21.6" height="0.4"/>
				<path class="st1" d="M17.5,3.9h2.6V2.3h-3.1V3H10V2.3H6.9v1.6h2.7l0.2,0l3.3,0.9L9.7,5.8H6.9v1.6H10V6.7h6.9v0.7h3.1V5.8h-2.8
					L14,4.9L17.3,4L17.5,3.9z M16.9,6v0.5H10V6l3.5-1L16.9,6z M16.9,3.8l-3.4,0.9l-3.5-1V3.2h6.9V3.8z"/>
				<g>
					<path class="st1" d="M18.9,16.4C18.9,16.3,18.9,16.3,18.9,16.4l-1-1c-0.1-0.1-0.2-0.1-0.3,0l0,0c-0.1,0.1-0.1,0.2,0,0.3
						l0.6,0.6h-1.7c-0.1-0.6-0.3-1.1-0.6-1.5l1.2-1.2v0.8c0,0.1,0.1,0.2,0.2,0.2h0c0.1,0,0.2-0.1,0.2-0.2l0-1.4c0,0,0,0,0,0
						c0-0.1,0-0.1-0.1-0.2l0,0c0,0-0.1-0.1-0.2-0.1c0,0,0,0-0.1,0h-1.4c-0.1,0-0.2,0.1-0.2,0.2l0,0c0,0.1,0.1,0.2,0.2,0.2h0.8
						l-1.2,1.2c-0.4-0.4-1-0.6-1.5-0.6V12l0.6,0.6c0.1,0.1,0.2,0.1,0.3,0l0,0c0.1-0.1,0.1-0.2,0-0.3l-1-1c0,0,0,0,0,0
						c0-0.1-0.1-0.1-0.2-0.1h0c-0.1,0-0.1,0-0.2,0.1c0,0,0,0,0,0l-1,1c-0.1,0.1-0.1,0.2,0,0.3l0,0c0.1,0.1,0.2,0.1,0.3,0l0.6-0.6
						v1.7c-0.6,0.1-1.1,0.3-1.5,0.6l-1.2-1.2h0.8c0.1,0,0.2-0.1,0.2-0.2l0,0c0-0.1-0.1-0.2-0.2-0.2H10c0,0,0,0-0.1,0
						c-0.1,0-0.1,0-0.2,0.1l0,0c-0.1,0.1-0.1,0.1-0.1,0.2c0,0,0,0,0,0v1.4c0,0.1,0.1,0.2,0.2,0.2h0c0.1,0,0.2-0.1,0.2-0.2v-0.8
						l1.2,1.2c-0.4,0.4-0.6,1-0.6,1.5H9.1l0.6-0.6c0.1-0.1,0.1-0.2,0-0.3l0,0c-0.1-0.1-0.2-0.1-0.3,0l-1,1c0,0,0,0,0,0
						c0,0-0.1,0.1-0.1,0.2v0c0,0.1,0,0.1,0.1,0.2c0,0,0,0,0,0l1,1c0.1,0.1,0.2,0.1,0.3,0l0,0c0.1-0.1,0.1-0.2,0-0.3l-0.6-0.6h1.7
						c0.1,0.6,0.3,1.1,0.6,1.5l-1.2,1.2v-0.8c0-0.1-0.1-0.2-0.2-0.2l0,0c-0.1,0-0.2,0.1-0.2,0.2v1.4c0,0,0,0,0,0.1
						c0,0.1,0,0.1,0.1,0.2l0,0c0.1,0.1,0.1,0.1,0.2,0.1c0,0,0,0,0,0h1.4c0.1,0,0.2-0.1,0.2-0.2v0c0-0.1-0.1-0.2-0.2-0.2h-0.8
						l1.2-1.2c0.4,0.4,1,0.6,1.5,0.6v1.7l-0.6-0.6c-0.1-0.1-0.2-0.1-0.3,0l0,0c-0.1,0.1-0.1,0.2,0,0.3l1,1c0,0,0,0,0,0
						c0,0,0.1,0.1,0.2,0.1h0c0.1,0,0.1,0,0.2-0.1c0,0,0,0,0,0l1-1c0.1-0.1,0.1-0.2,0-0.3l0,0c-0.1-0.1-0.2-0.1-0.3,0l-0.6,0.6v-1.7
						c0.6-0.1,1.1-0.3,1.5-0.6l1.2,1.2h-0.8c-0.1,0-0.2,0.1-0.2,0.2v0c0,0.1,0.1,0.2,0.2,0.2l1.4,0c0,0,0,0,0,0c0.1,0,0.1,0,0.2-0.1
						l0,0c0,0,0.1-0.1,0.1-0.2c0,0,0,0,0-0.1v-1.4c0-0.1-0.1-0.2-0.2-0.2l0,0c-0.1,0-0.2,0.1-0.2,0.2v0.8l-1.2-1.2
						c0.4-0.4,0.6-1,0.6-1.5h1.7l-0.6,0.6c-0.1,0.1-0.1,0.2,0,0.3l0,0c0.1,0.1,0.2,0.1,0.3,0l1-1c0,0,0,0,0,0c0.1,0,0.1-0.1,0.1-0.2
						v0C19,16.5,19,16.4,18.9,16.4z"/>
				</g>
			</g>
		</g>
	</g>
</g>
<g>
</g>
<g>
</g>
<g>
</g>
<g>
</g>
<g>
</g>
<g>
</g>
</svg>
