<?xml version="1.0" encoding="utf-8"?>
<!-- Generator: Adobe Illustrator 27.3.1, SVG Export Plug-In . SVG Version: 6.00 Build 0)  -->
<svg version="1.1" id="Layer_1" xmlns="http://www.w3.org/2000/svg" xmlns:xlink="http://www.w3.org/1999/xlink" x="0px" y="0px"
	 viewBox="0 0 27.4 23.7" style="enable-background:new 0 0 27.4 23.7;" xml:space="preserve">
<style type="text/css">
	.st0{fill:#A153A0;}
	.st1{fill-rule:evenodd;clip-rule:evenodd;fill:#FFFFFF;}
</style>
<g>
	<g>
		<polygon class="st0" points="20.5,23.7 27.4,11.8 20.5,0 6.8,0 0,11.8 6.8,23.7 		"/>
	</g>
</g>
<g>
	<g>
		<path class="st1" d="M13.1,6.2c-0.1,0-0.1,0.1-0.3,0.1v0.2h0.3v0.9h0.3V6h-0.2C13.1,6.1,13.1,6.1,13.1,6.2"/>
		<path class="st1" d="M13.9,8.7c0-0.3,0.1-0.5,0.2-0.5c0.1,0,0.2,0.1,0.2,0.5c0,0.3-0.1,0.5-0.2,0.5C14,9.2,13.9,9,13.9,8.7
			 M14.5,9.2c0.1-0.1,0.1-0.3,0.1-0.5s0-0.4-0.1-0.5C14.4,8.1,14.3,8,14.1,8s-0.3,0-0.4,0.2c-0.1,0.1-0.1,0.3-0.1,0.5s0,0.4,0.1,0.5
			c0.1,0.1,0.2,0.2,0.4,0.2S14.4,9.3,14.5,9.2"/>
		<path class="st1" d="M12.6,8.7c0-0.3,0.1-0.5,0.2-0.5c0.1,0,0.2,0.1,0.2,0.5c0,0.3-0.1,0.5-0.2,0.5C12.7,9.2,12.6,9,12.6,8.7
			 M13.2,9.2c0.1-0.1,0.1-0.3,0.1-0.5s0-0.4-0.1-0.5C13.1,8.1,13,8,12.8,8s-0.3,0-0.4,0.2c-0.1,0.1-0.1,0.3-0.1,0.5s0,0.4,0.1,0.5
			c0.1,0.1,0.2,0.2,0.4,0.2S13.1,9.3,13.2,9.2"/>
		<path class="st1" d="M13,10.3c0,0-0.1,0.1-0.3,0.1v0.2h0.3v0.9h0.3v-1.3h-0.2C13.1,10.2,13.1,10.2,13,10.3"/>
		<path class="st1" d="M11.6,8.2c-0.1,0-0.1,0.1-0.3,0.1v0.2h0.3v0.9h0.3V8.1h-0.2C11.7,8.1,11.6,8.2,11.6,8.2"/>
		<path class="st1" d="M14.4,11.2c-0.2,0-0.2-0.1-0.2-0.5c0-0.3,0.1-0.5,0.2-0.5c0.1,0,0.2,0.2,0.2,0.5
			C14.6,11.1,14.5,11.2,14.4,11.2 M14.4,10.1c-0.2,0-0.3,0.1-0.4,0.2c-0.1,0.1-0.1,0.3-0.1,0.5c0,0.2,0,0.4,0.1,0.5
			c0.1,0.1,0.2,0.2,0.4,0.2c0.2,0,0.3,0,0.4-0.2c0.1-0.1,0.1-0.3,0.1-0.5c0-0.2,0-0.4-0.1-0.5C14.7,10.1,14.5,10.1,14.4,10.1"/>
		<path class="st1" d="M14.4,7.1c-0.1,0-0.2-0.1-0.2-0.5c0-0.3,0.1-0.5,0.2-0.5c0.1,0,0.2,0.2,0.2,0.5C14.6,7,14.5,7.1,14.4,7.1
			 M14.4,6C14.2,6,14.1,6,14,6.2c-0.1,0.1-0.1,0.3-0.1,0.5s0,0.4,0.1,0.5c0.1,0.1,0.2,0.2,0.4,0.2c0.2,0,0.3,0,0.4-0.2
			c0.1-0.1,0.1-0.3,0.1-0.5c0-0.2,0-0.4-0.1-0.5C14.7,6,14.6,6,14.4,6"/>
		<path class="st1" d="M15.2,8.2c0,0-0.1,0.1-0.3,0.1v0.2h0.3v0.9h0.3V8.1h-0.2C15.3,8.1,15.2,8.2,15.2,8.2"/>
		<path class="st1" d="M16.6,8.7c0,0.3-0.1,0.5-0.2,0.5c-0.1,0-0.2-0.2-0.2-0.5s0.1-0.5,0.2-0.5C16.6,8.2,16.6,8.4,16.6,8.7 M16.4,8
			c-0.2,0-0.3,0-0.4,0.2c-0.1,0.1-0.1,0.3-0.1,0.5s0,0.4,0.1,0.5c0.1,0.1,0.2,0.2,0.4,0.2c0.1,0,0.2,0,0.3-0.1c0,0,0,0,0,0
			c0,0,0,0.1,0,0.1c-0.1,0.4-0.2,0.7-0.4,1c0-0.1,0-0.1-0.1-0.2c-0.1-0.1-0.2-0.2-0.4-0.2c-0.2,0-0.3,0.1-0.4,0.2
			c-0.1,0.1-0.1,0.3-0.1,0.5c0,0.2,0,0.4,0.1,0.5c0,0,0,0,0,0.1c-0.1,0.1-0.3,0.2-0.4,0.3c-0.1,0-0.2,0.1-0.3,0.1
			c-0.1,0-0.3,0.1-0.5,0.1c-0.1,0-0.2,0-0.3,0c-0.1,0-0.2,0-0.3,0c-0.1,0-0.2,0-0.3,0c-0.1,0-0.2,0-0.3,0c-0.1,0-0.3-0.1-0.5-0.1
			c-0.1,0-0.2-0.1-0.3-0.1c-0.1,0-0.2-0.1-0.3-0.1c0.1,0,0.2-0.1,0.3-0.2c0.1-0.1,0.1-0.3,0.1-0.5c0-0.2,0-0.4-0.1-0.5
			c-0.1-0.1-0.2-0.2-0.4-0.2c-0.2,0-0.3,0.1-0.4,0.2c-0.1,0.1-0.1,0.3-0.1,0.5c0,0.1,0,0.1,0,0.2l0,0c0,0,0,0,0,0l0,0l0,0l-0.1-0.1
			c-0.1-0.1-0.2-0.2-0.3-0.4c0,0-0.1-0.1-0.1-0.2c0,0-0.1-0.2-0.1-0.2c-0.1-0.2-0.2-0.4-0.2-0.6c0,0,0-0.1,0-0.1h0
			c0.2,0,0.3-0.1,0.4-0.2C11,9.1,11,8.9,11,8.7s0-0.4-0.1-0.5C10.8,8.1,10.7,8,10.5,8h0c0-0.1,0-0.2,0.1-0.3c0-0.2,0.1-0.3,0.2-0.5
			c0,0,0.1-0.1,0.1-0.1c0-0.1,0.1-0.2,0.2-0.3c0.1-0.2,0.3-0.4,0.5-0.5c0,0.1,0,0.2,0,0.3c0,0.2,0,0.4,0.1,0.5
			c0.1,0.1,0.2,0.2,0.4,0.2c0.2,0,0.3,0,0.4-0.2c0.1-0.1,0.1-0.3,0.1-0.5c0-0.2,0-0.4-0.1-0.5C12.2,6.1,12.1,6,12,6
			c0.5-0.3,1-0.4,1.6-0.4c0.7,0,1.4,0.2,1.9,0.7c-0.1,0-0.1,0-0.2,0v0.2h0.3v0.9h0.3V6.6c0.1,0.1,0.2,0.2,0.3,0.4
			c0,0.1,0.1,0.2,0.1,0.3c0.1,0.2,0.2,0.4,0.2,0.6c0,0.1,0.1,0.2,0.1,0.3c0,0,0,0,0,0C16.6,8.1,16.5,8,16.4,8 M16,10.8
			C15.9,10.8,15.9,10.8,16,10.8c-0.1,0.1-0.1,0.1-0.1,0.2c-0.1,0.1-0.1,0.1-0.2,0.2c-0.1-0.1-0.1-0.2-0.1-0.4c0-0.3,0.1-0.5,0.2-0.5
			C15.9,10.3,16,10.4,16,10.8L16,10.8z M11.7,10.8c0-0.3,0.1-0.5,0.2-0.5c0.2,0,0.2,0.2,0.2,0.5c0,0.3-0.1,0.5-0.2,0.5
			C11.7,11.2,11.7,11.1,11.7,10.8 M10.4,8.7c0-0.1,0-0.3,0-0.5h0.1c0.1,0,0.2,0.1,0.2,0.5s-0.1,0.5-0.2,0.5c0,0,0,0-0.1,0
			C10.5,9,10.4,8.9,10.4,8.7 M11.9,6.2c0.1,0,0.2,0.2,0.2,0.5s-0.1,0.5-0.2,0.5c-0.2,0-0.2-0.1-0.2-0.5S11.8,6.2,11.9,6.2 M4.4,15.2
			c-0.1,0-0.3-0.5-0.3-1.2c0-0.8,0.2-1.2,0.3-1.2c0.1,0,0.3,0.5,0.3,1.2C4.7,14.7,4.5,15.2,4.4,15.2 M23.1,12.4h-2.6l-3.3-3.8
			c0-2-1.6-3.6-3.6-3.6c-1,0-1.9,0.4-2.6,1.1C10.3,6.8,10,7.7,10,8.7c0,0.1,0,0.2,0,0.3l-3,3.4H4.4c-0.4,0-0.6,0.8-0.6,1.5
			c0,0.7,0.2,1.6,0.6,1.6H12v-0.6H8.5l0.4-0.4h2.5v-0.6h-2l2-2.3c0.6,0.5,1.4,0.7,2.2,0.7c0.9,0,1.7-0.3,2.4-0.9l2.2,2.5h-1.1v0.6
			h1.6l0.4,0.4h-1.3v0.6h5.4c0.4,0,0.6-0.8,0.6-1.6C23.7,13.2,23.5,12.4,23.1,12.4"/>
		<rect x="12.3" y="13.9" class="st1" width="1.4" height="0.6"/>
		<rect x="14.7" y="13.9" class="st1" width="1.4" height="0.6"/>
		<rect x="15.3" y="14.9" class="st1" width="1.4" height="0.6"/>
		<rect x="12.9" y="14.9" class="st1" width="1.4" height="0.6"/>
	</g>
</g>
<g>
</g>
<g>
</g>
<g>
</g>
<g>
</g>
<g>
</g>
<g>
</g>
</svg>
