<?xml version="1.0" encoding="utf-8"?>
<!-- Generator: Adobe Illustrator 27.3.1, SVG Export Plug-In . SVG Version: 6.00 Build 0)  -->
<svg version="1.1" id="Layer_1" xmlns="http://www.w3.org/2000/svg" xmlns:xlink="http://www.w3.org/1999/xlink" x="0px" y="0px"
	 viewBox="0 0 27.4 23.7" style="enable-background:new 0 0 27.4 23.7;" xml:space="preserve">
<style type="text/css">
	.st0{fill:#A153A0;}
	.st1{fill:#FFFFFF;}
</style>
<polygon class="st0" points="20.5,23.7 27.4,11.8 20.5,0 6.8,0 0,11.8 6.8,23.7 "/>
<g>
	<path class="st1" d="M15.5,18.2c0.2-0.1,0.5-0.3,0.6-0.5c0.6-0.6,1-1.5,1-2.4c0-1.2-0.7-2.4-1.7-3l0,0c-0.1,0-0.1-0.1-0.2-0.1l0,0
		l0,0c-0.2-0.1-0.6-0.4-0.9-0.9c-0.3-0.5-0.3-1.2-0.2-1.9c-0.4,0.3-1.1,0.8-1.7,1.5c-0.6,0.6-1.1,1.3-1.4,1.9
		c-0.4,0.8-0.6,1.7-0.6,2.5c0,0.9,0.4,1.7,1,2.4c0.2,0.2,0.4,0.4,0.6,0.5c0.1,0.1,0.3-0.1,0.2-0.2c-0.2-0.3-0.3-0.7-0.3-1
		c0-2,2.2-3.3,2.2-3.3c-0.3,1.1,0.3,1.5,0.5,1.6c0,0,0.1,0,0.1,0c0.6,0.3,1,0.9,1,1.6c0,0.4-0.1,0.7-0.3,1
		C15.3,18.1,15.4,18.2,15.5,18.2z"/>
	<path class="st1" d="M10.1,8.2h7.4c0-0.1,0-0.2,0-0.3c-0.1-0.6-0.5-1.1-1.1-1.2c-0.1,0-0.2-0.1-0.3-0.1c-0.3-0.1-0.5-0.4-0.5-0.7
		c0-0.3,0-0.5,0-0.8c0-0.9-0.8-1.6-1.6-1.7c-0.9-0.1-1.7,0.6-1.9,1.4c-0.1,0.4,0,0.7,0,1.1c0,0.3-0.1,0.5-0.4,0.6
		c-0.1,0-0.2,0.1-0.3,0.1C10.5,6.8,10.2,7.4,10.1,8.2z M13.7,4.6c0.3,0,0.6,0.2,0.6,0.5c0,0.3-0.2,0.5-0.6,0.5
		c-0.3,0-0.6-0.2-0.6-0.5C13.2,4.8,13.4,4.6,13.7,4.6z"/>
	<path class="st1" d="M20.5,5.6c0-0.6-0.5-1.1-1.1-1.1h-2.5h-0.2V5c0,0.5,0.3,0.8,0.8,0.8h1.2c0.4,0,0.6,0.2,0.6,0.6
		c0,1.1,0,2.3,0,3.4v8.8c0,0.4-0.2,0.6-0.6,0.6c-3.3,0-6.5,0-9.8,0c-0.4,0-0.6-0.2-0.6-0.6V6.3c0-0.4,0.2-0.6,0.6-0.6
		c0.4,0,0.9,0,1.3,0c0.4,0,0.7-0.2,0.7-0.6c0-0.2,0-0.4,0-0.7h-0.2H8.2C7.6,4.5,7.1,5,7.1,5.6c0,4.6,0,9.2,0,13.7
		c0,0.6,0.5,1.1,1.1,1.1h11.3c0.6,0,1.1-0.5,1.1-1.1C20.5,14.8,20.5,10.2,20.5,5.6z"/>
</g>
<g>
</g>
<g>
</g>
<g>
</g>
<g>
</g>
<g>
</g>
<g>
</g>
</svg>
