<?xml version="1.0" encoding="utf-8"?>
<!-- Generator: Adobe Illustrator 27.3.1, SVG Export Plug-In . SVG Version: 6.00 Build 0)  -->
<svg version="1.1" id="Layer_1" xmlns="http://www.w3.org/2000/svg" xmlns:xlink="http://www.w3.org/1999/xlink" x="0px" y="0px"
	 viewBox="0 0 27.4 23.7" style="enable-background:new 0 0 27.4 23.7;" xml:space="preserve">
<style type="text/css">
	.st0{fill:#A153A0;}
	.st1{fill:#FFFFFF;}
</style>
<polygon class="st0" points="20.5,23.7 27.4,11.8 20.5,0 6.8,0 0,11.8 6.8,23.7 "/>
<g>
	<path class="st1" d="M8.5,5.5c-0.4-0.4-0.9-0.4-1.3,0s-0.4,0.9,0,1.3l5.1,5.1L7.2,17c-0.4,0.4-0.4,0.9,0,1.3s0.9,0.4,1.3,0l6.4-6.4
		L8.5,5.5z"/>
	<rect x="14.1" y="7" transform="matrix(0.7071 -0.7071 0.7071 0.7071 -0.4767 14.7508)" class="st1" width="6.9" height="1.8"/>
	<rect x="16.7" y="12.4" transform="matrix(0.7071 -0.7071 0.7071 0.7071 -6.0803 17.0719)" class="st1" width="1.8" height="6.9"/>
</g>
<g>
</g>
<g>
</g>
<g>
</g>
<g>
</g>
<g>
</g>
<g>
</g>
</svg>
