<?xml version="1.0" encoding="utf-8"?>
<!-- Generator: Adobe Illustrator 27.3.1, SVG Export Plug-In . SVG Version: 6.00 Build 0)  -->
<svg version="1.1" id="Layer_1" xmlns="http://www.w3.org/2000/svg" xmlns:xlink="http://www.w3.org/1999/xlink" x="0px" y="0px"
	 viewBox="0 0 27.4 23.7" style="enable-background:new 0 0 27.4 23.7;" xml:space="preserve">
<style type="text/css">
	.st0{fill:#A153A0;}
	.st1{fill:#FFFFFF;}
</style>
<g>
	<g>
		<polygon class="st0" points="20.5,23.7 27.4,11.8 20.5,0 6.8,0 0,11.8 6.8,23.7 		"/>
		<g>
			<g>
				<path class="st1" d="M22.2,9.8h2.2V9.2c-1,0-2.2,0-2.2,0l0.6-0.6c0.1-0.1,0.1-0.3,0-0.4l0,0c-0.1-0.1-0.3-0.1-0.4,0l-1.1,1.1
					c0,0,0,0,0,0c-0.1,0-0.1,0.1-0.1,0.2v0.1c0,0.1,0,0.1,0.1,0.2c0,0,0,0,0,0.1l1.1,1.1c0.1,0.1,0.3,0.1,0.4,0l0,0
					c0.1-0.1,0.1-0.3,0-0.4L22.2,9.8z"/>
				<path class="st1" d="M5.1,9.8H2.9V9.2c1,0,2.2,0,2.2,0L4.5,8.6c-0.1-0.1-0.1-0.3,0-0.4l0,0c0.1-0.1,0.3-0.1,0.4,0l1.1,1.1
					c0,0,0,0,0,0C6,9.3,6,9.4,6,9.5v0.1C6,9.6,6,9.7,6,9.7c0,0,0,0,0,0.1l-1.1,1.1c-0.1,0.1-0.3,0.1-0.4,0l0,0
					c-0.1-0.1-0.1-0.3,0-0.4L5.1,9.8z"/>
				<path class="st1" d="M8.5,16.4l-2,2c-0.4,0.4-0.4,1.1,0,1.5c0.4,0.4,1.1,0.4,1.5,0l2-2c0.4-0.4,0.4-1.1,0-1.5
					C9.6,16,8.9,16,8.5,16.4z"/>
				<path class="st1" d="M19.3,5.4H8.1C7.5,5.4,7,5.8,7,6.5v6.1c0,0.6,0.5,1.1,1.1,1.1h1.6c0.4,1.8,2,3.2,3.9,3.2
					c1.9,0,3.6-1.4,3.9-3.2h1.8c0.6,0,1.1-0.5,1.1-1.1V6.5C20.4,5.8,19.9,5.4,19.3,5.4z M19.3,6C19.3,6,19.3,6,19.3,6L14,8.9
					c-0.1,0-0.3,0-0.4,0c0,0-0.1,0-0.1,0L8.2,6H19.3z M8.1,13c-0.2,0-0.4-0.2-0.4-0.4V6.5c0,0,0,0,0,0l4.8,2.7
					c-1.6,0.5-2.8,2-2.8,3.8c0,0,0,0.1,0,0.1H8.1z M13.5,15.9c-1.7,0-3-1.3-3-3c0-1.7,1.3-3,3-3c1.7,0,3,1.3,3,3
					C16.6,14.5,15.2,15.9,13.5,15.9z M19.7,12.5c0,0.2-0.2,0.4-0.4,0.4h-1.8c0,0,0-0.1,0-0.1c0-1.7-1.1-3.2-2.6-3.7l4.8-2.6V12.5z"
					/>
			</g>
		</g>
	</g>
</g>
<g>
</g>
<g>
</g>
<g>
</g>
<g>
</g>
<g>
</g>
<g>
</g>
</svg>
