<?xml version="1.0" encoding="utf-8"?>
<!-- Generator: Adobe Illustrator 27.3.1, SVG Export Plug-In . SVG Version: 6.00 Build 0)  -->
<svg version="1.1" id="Layer_1" xmlns="http://www.w3.org/2000/svg" xmlns:xlink="http://www.w3.org/1999/xlink" x="0px" y="0px"
	 viewBox="0 0 27.4 23.7" style="enable-background:new 0 0 27.4 23.7;" xml:space="preserve">
<style type="text/css">
	.st0{fill:#A153A0;}
	.st1{fill:#FFFFFF;}
</style>
<g>
	<g>
		<polygon class="st0" points="20.5,23.7 27.4,11.8 20.5,0 6.8,0 0,11.8 6.8,23.7 		"/>
		<g>
			<g>
				<g>
					<path class="st1" d="M22.4,11.6c-0.3-0.7-0.7-1.5-1.6-1.5c-0.8,0-1.2,0.6-1.5,1.2c-0.3-0.6-0.7-1.1-1.3-1.1
						c-0.6,0-1,0.5-1.4,1.1c-0.4-0.7-0.8-1.3-1.5-1.3c-0.8,0-1.2,0.6-1.5,1.2c-0.3-0.6-0.7-1.1-1.3-1.1c-0.6,0-1,0.5-1.3,1.1
						c-0.3-0.6-0.8-1.2-1.5-1.2c-0.8,0-1.2,0.6-1.5,1.2c-0.3-0.6-0.7-1.1-1.3-1.1c-0.8,0-1.2,0.9-1.4,1.3c0,0,0,0,0,0
						c-0.1,0-0.2,0.2-0.2,0.3c0,0.1,0.4,1.6,1.6,1.6c0.7,0,1.1-0.6,1.4-1.2c0.3,0.6,0.7,1.1,1.4,1.1c0.7,0,1-0.5,1.4-1.1
						c0.3,0.6,0.7,1.2,1.5,1.2c0.7,0,1.1-0.6,1.4-1.2c0.3,0.6,0.7,1.1,1.4,1.1c0.6,0,1-0.5,1.3-1.1c0.4,0.6,0.8,1.3,1.5,1.3
						c0.7,0,1.1-0.6,1.4-1.2c0.3,0.6,0.7,1.1,1.4,1.1c0.7,0,1.1-0.7,1.4-1.3c0,0,0,0,0,0C22.4,11.9,22.4,11.7,22.4,11.6z M6.7,12.9
						c-0.7,0-1.1-1.2-1.1-1.2c0,0,0-0.1-0.1-0.1c0.1-0.4,0.5-1.1,1.1-1.1c0.5,0,0.8,0.5,1.1,1.1c0,0,0,0,0,0.1
						C7.4,12.4,7.2,12.9,6.7,12.9z M9.5,13c-0.6,0-0.9-0.5-1.2-1.1c0.3-0.7,0.7-1.3,1.2-1.3c0.6,0,0.9,0.6,1.2,1.3
						C10.4,12.5,10.1,13,9.5,13z M12.3,12.9c-0.5,0-0.8-0.6-1.1-1.2c0,0,0,0,0-0.1c0.3-0.6,0.6-1.1,1.2-1.1c0.5,0,0.8,0.5,1.1,1.1
						c0,0,0,0,0,0.1C13.1,12.4,12.8,12.9,12.3,12.9z M15.2,13c-0.6,0-0.9-0.5-1.2-1.1c0.3-0.7,0.7-1.3,1.2-1.3
						c0.5,0,0.8,0.6,1.2,1.2c0,0,0,0,0,0C16,12.5,15.7,13,15.2,13z M18,12.9c-0.5,0-0.9-0.6-1.2-1.3c0.3-0.6,0.7-1.1,1.2-1.1
						c0.5,0,0.8,0.5,1.1,1.1c0,0,0,0,0,0.1C18.7,12.4,18.5,12.9,18,12.9z M20.8,13c-0.6,0-0.9-0.5-1.2-1.1c0.3-0.7,0.7-1.3,1.2-1.3
						c0.4,0,0.8,0.4,1.1,1.2c0,0,0,0.1,0.1,0.1C21.6,12.6,21.3,13,20.8,13z"/>
				</g>
			</g>
		</g>
	</g>
</g>
<g>
</g>
<g>
</g>
<g>
</g>
<g>
</g>
<g>
</g>
<g>
</g>
</svg>
