<?xml version="1.0" encoding="utf-8"?>
<!-- Generator: Adobe Illustrator 27.3.1, SVG Export Plug-In . SVG Version: 6.00 Build 0)  -->
<svg version="1.1" id="Layer_1" xmlns="http://www.w3.org/2000/svg" xmlns:xlink="http://www.w3.org/1999/xlink" x="0px" y="0px"
	 viewBox="0 0 27.4 23.7" style="enable-background:new 0 0 27.4 23.7;" xml:space="preserve">
<style type="text/css">
	.st0{fill:#A153A0;}
	.st1{fill:#FFFFFF;}
</style>
<g>
	<g>
		<polygon class="st0" points="20.5,23.7 27.4,11.8 20.5,0 6.8,0 0,11.8 6.8,23.7 		"/>
	</g>
</g>
<g>
	<path class="st1" d="M13.7,12.9c0.9,0,1.6-0.7,1.6-1.6c0-1-0.9-1.7-1.9-1.5c-0.6,0.1-1.1,0.7-1.2,1.3C12,12,12.8,12.9,13.7,12.9z"
		/>
	<path class="st1" d="M20,5.5H7.3c-0.4,0-0.8,0.3-0.8,0.8v10.6c0,0.4,0.3,0.8,0.8,0.8H20c0.4,0,0.8-0.3,0.8-0.8V6.3
		C20.8,5.8,20.5,5.5,20,5.5z M11.6,6.4c0.3,0,0.6,0.3,0.6,0.6c0,0.3-0.3,0.6-0.6,0.6c-0.3,0-0.6-0.3-0.6-0.6
		C11.1,6.6,11.3,6.4,11.6,6.4z M9.8,6.4c0.3,0,0.6,0.3,0.6,0.6c0,0.3-0.3,0.6-0.6,0.6S9.2,7.3,9.2,7C9.2,6.6,9.5,6.4,9.8,6.4z
		 M8,6.4c0.3,0,0.6,0.3,0.6,0.6c0,0.3-0.3,0.6-0.6,0.6C7.7,7.5,7.4,7.3,7.4,7C7.4,6.6,7.7,6.4,8,6.4z M11.4,16.6h-0.6l0.1-0.3
		c0-0.1,0.1-0.2,0.3-0.2c0.2,0,0.3,0.1,0.3,0.3V16.6z M15.9,16.6v-0.2c0-0.2,0.1-0.3,0.3-0.3c0.1,0,0.2,0.1,0.3,0.2l0.1,0.3H15.9z
		 M19.9,16c0,0.3-0.2,0.5-0.5,0.5h-1.1l-0.8-2.2c-0.2-0.6-0.7-0.9-1.3-0.9h-4.9c-0.6,0-1.1,0.4-1.3,0.9l-0.8,2.2H8
		c-0.3,0-0.5-0.2-0.5-0.5v-7c0-0.3,0.2-0.5,0.5-0.5h11.5c0.3,0,0.5,0.2,0.5,0.5V16z"/>
</g>
<g>
</g>
<g>
</g>
<g>
</g>
<g>
</g>
<g>
</g>
<g>
</g>
</svg>
