<?xml version="1.0" encoding="utf-8"?>
<!-- Generator: Adobe Illustrator 27.3.1, SVG Export Plug-In . SVG Version: 6.00 Build 0)  -->
<svg version="1.1" id="Layer_1" xmlns="http://www.w3.org/2000/svg" xmlns:xlink="http://www.w3.org/1999/xlink" x="0px" y="0px"
	 viewBox="0 0 27.4 23.7" style="enable-background:new 0 0 27.4 23.7;" xml:space="preserve">
<style type="text/css">
	.st0{fill:#A153A0;}
	.st1{fill:#FFFFFF;}
</style>
<g>
	<g>
		<polygon class="st0" points="20.5,23.7 27.4,11.8 20.5,0 6.8,0 0,11.8 6.8,23.7 		"/>
	</g>
</g>
<g>
	<path class="st1" d="M17,4.3h-6.6c-0.5,0-1,0.4-1,1v12.4c0,0.5,0.4,1,1,1H17c0.5,0,1-0.4,1-1V5.3C18,4.7,17.6,4.3,17,4.3z
		 M14.2,17.6c0,0.2-0.1,0.3-0.3,0.3h-0.3c-0.2,0-0.3-0.1-0.3-0.3v-0.3c0-0.2,0.1-0.3,0.3-0.3h0.3c0.2,0,0.3,0.1,0.3,0.3V17.6z
		 M16.8,16.1h-6.1V5.6h6.1V16.1z"/>
</g>
<g>
</g>
<g>
</g>
<g>
</g>
<g>
</g>
<g>
</g>
<g>
</g>
</svg>
