<?xml version="1.0" encoding="utf-8"?>
<!-- Generator: Adobe Illustrator 27.3.1, SVG Export Plug-In . SVG Version: 6.00 Build 0)  -->
<svg version="1.1" id="Layer_1" xmlns="http://www.w3.org/2000/svg" xmlns:xlink="http://www.w3.org/1999/xlink" x="0px" y="0px"
	 viewBox="0 0 27.4 23.7" style="enable-background:new 0 0 27.4 23.7;" xml:space="preserve">
<style type="text/css">
	.st0{fill:#A153A0;}
	.st1{fill:#FFFFFF;}
</style>
<g>
	<g>
		<polygon class="st0" points="20.5,23.7 27.4,11.8 20.5,0 6.8,0 0,11.8 6.8,23.7 		"/>
		<g>
			<g>
				<g>
					<path class="st1" d="M21.9,19c-0.2-0.6-0.7-1.5-1.5-1.5c-0.7,0-1.1,0.6-1.5,1.2c-0.3-0.6-0.6-1-1.2-1c-0.6,0-1,0.5-1.3,1.1
						c-0.3-0.6-0.7-1.2-1.4-1.2c-0.7,0-1.1,0.6-1.5,1.2c-0.3-0.6-0.6-1-1.2-1c-0.6,0-0.9,0.5-1.2,1.1c-0.3-0.6-0.7-1.2-1.4-1.2
						c-0.7,0-1.1,0.6-1.5,1.2c-0.3-0.6-0.6-1-1.2-1c-0.8,0-1.2,0.8-1.3,1.2c0,0,0,0,0,0c-0.1,0-0.2,0.2-0.2,0.3
						c0,0.1,0.4,1.5,1.5,1.5c0.7,0,1.1-0.6,1.4-1.2c0.3,0.6,0.7,1,1.3,1c0.6,0,1-0.5,1.3-1.1c0.3,0.6,0.7,1.2,1.4,1.2
						c0.7,0,1.1-0.6,1.4-1.2c0.3,0.6,0.7,1,1.3,1c0.6,0,0.9-0.5,1.3-1.1c0.3,0.6,0.8,1.2,1.4,1.2c0.7,0,1.1-0.6,1.4-1.2
						c0.3,0.6,0.7,1,1.3,1c0.7,0,1.1-0.7,1.3-1.2c0,0,0,0,0,0C21.9,19.3,22,19.1,21.9,19z M7,20.2c-0.7,0-1-1.1-1-1.1
						c0,0,0-0.1-0.1-0.1c0.1-0.3,0.5-1,1.1-1c0.5,0,0.8,0.5,1.1,1.1c0,0,0,0,0,0.1C7.7,19.7,7.4,20.2,7,20.2z M9.7,20.3
						c-0.6,0-0.9-0.5-1.2-1.1C8.8,18.6,9.1,18,9.7,18c0.5,0,0.8,0.6,1.2,1.2C10.5,19.8,10.2,20.3,9.7,20.3z M12.4,20.2
						c-0.5,0-0.8-0.6-1.1-1.2c0,0,0,0,0,0c0.3-0.6,0.6-1.1,1.1-1.1c0.5,0,0.8,0.5,1.1,1.1c0,0,0,0,0,0.1
						C13,19.7,12.8,20.2,12.4,20.2z M15,20.3c-0.6,0-0.9-0.5-1.2-1.1c0.3-0.6,0.6-1.2,1.2-1.2c0.5,0,0.8,0.6,1.1,1.2c0,0,0,0,0,0
						C15.8,19.8,15.5,20.3,15,20.3z M17.7,20.2c-0.5,0-0.8-0.6-1.1-1.2c0.3-0.6,0.6-1.1,1.1-1.1c0.5,0,0.8,0.5,1.1,1.1
						c0,0,0,0,0,0.1C18.4,19.7,18.2,20.2,17.7,20.2z M20.4,20.3c-0.6,0-0.9-0.5-1.2-1.1c0.3-0.6,0.6-1.2,1.2-1.2
						c0.4,0,0.7,0.4,1,1.1c0,0,0,0.1,0,0.1C21.2,20,20.8,20.3,20.4,20.3z"/>
				</g>
				<g>
					<polygon class="st1" points="14.4,16.9 14.4,14.4 15.6,14.4 13.7,10.8 11.8,14.4 13,14.4 13,16.9 					"/>
					<polygon class="st1" points="20.9,12.9 18.8,11.6 19.5,10.5 15.5,10.1 17.4,13.7 18.1,12.7 20.2,14.1 					"/>
					<polygon class="st1" points="6.4,12.9 8.5,11.6 7.8,10.5 11.9,10.1 10,13.7 9.3,12.7 7.2,14.1 					"/>
					<polygon class="st1" points="14.9,9.4 14.9,6.4 17.1,6.4 13.7,1.1 10.3,6.4 12.5,6.4 12.5,9.4 					"/>
				</g>
			</g>
		</g>
	</g>
</g>
<g>
</g>
<g>
</g>
<g>
</g>
<g>
</g>
<g>
</g>
<g>
</g>
</svg>
