<?xml version="1.0" encoding="utf-8"?>
<!-- Generator: Adobe Illustrator 27.3.1, SVG Export Plug-In . SVG Version: 6.00 Build 0)  -->
<svg version="1.1" id="Layer_1" xmlns="http://www.w3.org/2000/svg" xmlns:xlink="http://www.w3.org/1999/xlink" x="0px" y="0px"
	 viewBox="0 0 27.4 23.7" style="enable-background:new 0 0 27.4 23.7;" xml:space="preserve">
<style type="text/css">
	.st0{fill:#A153A0;}
	.st1{fill:#FFFFFF;}
</style>
<g>
	<g>
		<polygon class="st0" points="20.5,23.7 27.4,11.8 20.5,0 6.8,0 0,11.8 6.8,23.7 		"/>
		<g>
			<g>
				<path class="st1" d="M22,11.6C21.9,11.6,21.9,11.5,22,11.6L20.4,10c-0.1-0.1-0.4-0.1-0.5,0l-0.1,0.1c-0.1,0.1-0.1,0.4,0,0.5
					l0.9,0.9H18c-0.1-0.9-0.4-1.7-1-2.4l1.9-1.9v1.2c0,0.2,0.2,0.4,0.4,0.4h0.1c0.2,0,0.4-0.2,0.4-0.4l0-2.1c0,0,0,0,0,0
					c0-0.1,0-0.2-0.1-0.3l-0.1-0.1c-0.1-0.1-0.2-0.1-0.2-0.1c0,0-0.1,0-0.1,0h-2.1c-0.2,0-0.4,0.2-0.4,0.4l0,0.1
					c0,0.2,0.2,0.4,0.4,0.4h1.2l-1.9,1.9c-0.7-0.5-1.5-0.9-2.4-1V4.8l0.9,0.9c0.1,0.1,0.4,0.1,0.5,0l0.1-0.1c0.1-0.1,0.1-0.4,0-0.5
					L14,3.6c0,0,0,0,0,0c-0.1-0.1-0.2-0.1-0.3-0.1h-0.1c-0.1,0-0.2,0-0.3,0.1c0,0-0.1,0-0.1,0.1l-1.5,1.5c-0.1,0.1-0.1,0.4,0,0.5
					l0.1,0.1c0.1,0.1,0.4,0.1,0.5,0l0.9-0.9v2.7c-0.9,0.1-1.7,0.4-2.4,1L9,6.6h1.2c0.2,0,0.4-0.2,0.4-0.4l0-0.1
					c0-0.2-0.2-0.4-0.4-0.4H8.1c0,0-0.1,0-0.1,0c-0.1,0-0.2,0-0.2,0.1L7.7,6C7.6,6,7.6,6.2,7.6,6.3c0,0,0,0,0,0v2.1
					c0,0.2,0.2,0.4,0.4,0.4H8c0.2,0,0.4-0.2,0.4-0.4V7.2l1.9,1.9c-0.5,0.7-0.9,1.5-1,2.4H6.6l0.9-0.9c0.1-0.1,0.1-0.4,0-0.5L7.4,10
					c-0.1-0.1-0.4-0.1-0.5,0l-1.5,1.5c0,0,0,0-0.1,0.1c-0.1,0.1-0.1,0.2-0.1,0.3v0.1c0,0.1,0.1,0.2,0.1,0.3c0,0,0,0,0,0l1.5,1.5
					c0.1,0.1,0.4,0.1,0.5,0l0.1-0.1c0.1-0.1,0.1-0.4,0-0.5l-0.9-0.9h2.7c0.1,0.9,0.4,1.7,1,2.4l-1.9,1.9v-1.2C8.4,15.1,8.2,15,8,15
					L8,15c-0.2,0-0.4,0.2-0.4,0.4v2.1c0,0,0,0.1,0,0.1c0,0.1,0,0.2,0.1,0.2l0.1,0.1c0.1,0.1,0.2,0.1,0.3,0.1c0,0,0,0,0,0h2.1
					c0.2,0,0.4-0.2,0.4-0.4v-0.1c0-0.2-0.2-0.4-0.4-0.4H9l1.9-1.9c0.7,0.5,1.5,0.9,2.4,1v2.7L12.4,18c-0.1-0.1-0.4-0.1-0.5,0
					l-0.1,0.1c-0.1,0.1-0.1,0.4,0,0.5l1.5,1.5c0,0,0,0,0.1,0.1c0.1,0.1,0.2,0.1,0.3,0.1h0.1c0.1,0,0.2-0.1,0.3-0.1c0,0,0,0,0,0
					l1.5-1.5c0.1-0.1,0.1-0.4,0-0.5L15.5,18c-0.1-0.1-0.4-0.1-0.5,0l-0.9,0.9v-2.7c0.9-0.1,1.7-0.4,2.4-1l1.9,1.9h-1.2
					c-0.2,0-0.4,0.2-0.4,0.4v0.1c0,0.2,0.2,0.4,0.4,0.4l2.1,0c0,0,0,0,0,0c0.1,0,0.2,0,0.3-0.1l0.1-0.1c0.1-0.1,0.1-0.2,0.1-0.2
					c0,0,0-0.1,0-0.1v-2.1c0-0.2-0.2-0.4-0.4-0.4l-0.1,0c-0.2,0-0.4,0.2-0.4,0.4v1.2L17,14.7c0.5-0.7,0.9-1.5,1-2.4h2.7l-0.9,0.9
					c-0.1,0.1-0.1,0.4,0,0.5l0.1,0.1c0.1,0.1,0.4,0.1,0.5,0l1.5-1.5c0,0,0,0,0,0c0.1-0.1,0.1-0.2,0.1-0.3v-0.1
					C22.1,11.7,22,11.6,22,11.6z"/>
			</g>
		</g>
	</g>
</g>
<g>
</g>
<g>
</g>
<g>
</g>
<g>
</g>
<g>
</g>
<g>
</g>
</svg>
