<?xml version="1.0" encoding="utf-8"?>
<!-- Generator: Adobe Illustrator 27.3.1, SVG Export Plug-In . SVG Version: 6.00 Build 0)  -->
<svg version="1.1" id="Layer_1" xmlns="http://www.w3.org/2000/svg" xmlns:xlink="http://www.w3.org/1999/xlink" x="0px" y="0px"
	 viewBox="0 0 27.4 23.7" style="enable-background:new 0 0 27.4 23.7;" xml:space="preserve">
<style type="text/css">
	.st0{fill:#A153A0;}
	.st1{fill:#FFFFFF;}
</style>
<g>
	<g>
		<polygon class="st0" points="20.5,23.7 27.4,11.8 20.5,0 6.8,0 0,11.8 6.8,23.7 		"/>
		<g>
			<g>
				<path class="st1" d="M12,5.7c-0.4,0-0.7,0.3-0.7,0.7l0,2.1L7.7,4.8C7.4,4.5,7,4.5,6.7,4.8L6.6,4.9c-0.3,0.3-0.3,0.7,0,0.9
					l3.7,3.7l-2.2,0c-0.4,0-0.7,0.3-0.7,0.7l0,0.1c0,0.4,0.3,0.7,0.7,0.7l3.7,0c0.1,0,0.1,0,0.2,0c0.2,0,0.3-0.1,0.4-0.2l0.1-0.1
					c0.1-0.1,0.2-0.3,0.2-0.5c0,0,0,0,0-0.1l0-3.7c0-0.4-0.3-0.7-0.7-0.7L12,5.7z"/>
				<path class="st1" d="M19.6,13.3c0,0.4-0.3,0.7-0.7,0.7l-2.1,0l3.7,3.7c0.3,0.3,0.3,0.7,0,0.9l-0.1,0.1c-0.3,0.3-0.7,0.3-0.9,0
					l-3.7-3.7l0,2.2c0,0.4-0.3,0.7-0.7,0.7l-0.1,0c-0.4,0-0.7-0.3-0.7-0.7l0-3.7c0-0.1,0-0.1,0-0.2c0-0.2,0.1-0.3,0.2-0.4l0.1-0.1
					c0.1-0.1,0.3-0.2,0.5-0.2c0,0,0,0,0.1,0l3.7,0c0.4,0,0.7,0.3,0.7,0.7L19.6,13.3z"/>
				<path class="st1" d="M11.6,18.1c0-0.4-0.3-0.7-0.7-0.7l-2.1,0l3.7-3.7c0.3-0.3,0.3-0.7,0-0.9l-0.1-0.1c-0.3-0.3-0.7-0.3-0.9,0
					l-3.7,3.7l0-2.2c0-0.4-0.3-0.7-0.7-0.7l-0.1,0c-0.4,0-0.7,0.3-0.7,0.7l0,3.7c0,0.1,0,0.1,0,0.2c0,0.2,0.1,0.3,0.2,0.4l0.1,0.1
					c0.1,0.1,0.3,0.2,0.5,0.2c0,0,0,0,0.1,0l3.7,0c0.4,0,0.7-0.3,0.7-0.7L11.6,18.1z"/>
				<path class="st1" d="M20,9.8c-0.4,0-0.7-0.3-0.7-0.7l0-2.1l-3.7,3.7c-0.3,0.3-0.7,0.3-0.9,0l-0.1-0.1c-0.3-0.3-0.3-0.7,0-0.9
					l3.7-3.7l-2.2,0c-0.4,0-0.7-0.3-0.7-0.7l0-0.1c0-0.4,0.3-0.7,0.7-0.7l3.7,0c0.1,0,0.1,0,0.2,0c0.2,0,0.3,0.1,0.4,0.2l0.1,0.1
					c0.1,0.1,0.2,0.3,0.2,0.5c0,0,0,0,0,0.1l0,3.7c0,0.4-0.3,0.7-0.7,0.7L20,9.8z"/>
			</g>
		</g>
	</g>
</g>
<g>
</g>
<g>
</g>
<g>
</g>
<g>
</g>
<g>
</g>
<g>
</g>
</svg>
