<?xml version="1.0" encoding="utf-8"?>
<!-- Generator: Adobe Illustrator 27.3.1, SVG Export Plug-In . SVG Version: 6.00 Build 0)  -->
<svg version="1.1" id="Layer_1" xmlns="http://www.w3.org/2000/svg" xmlns:xlink="http://www.w3.org/1999/xlink" x="0px" y="0px"
	 viewBox="0 0 27.4 23.7" style="enable-background:new 0 0 27.4 23.7;" xml:space="preserve">
<style type="text/css">
	.st0{fill:#A153A0;}
	.st1{fill:#FFFFFF;}
</style>
<g>
	<g>
		<polygon class="st0" points="20.5,23.7 27.4,11.8 20.5,0 6.8,0 0,11.8 6.8,23.7 		"/>
		<g>
			<rect x="2.8" y="9.8" class="st1" width="21.6" height="0.4"/>
			<path class="st1" d="M14.3,17.5h-2.8c-0.6,0-1,0.5-1,1v2.8c0,0.6,0.5,1,1,1h2.8c0.6,0,1-0.5,1-1v-2.8
				C15.3,18,14.9,17.5,14.3,17.5z M14.8,21.3c0,0.3-0.2,0.5-0.5,0.5h-2.8c-0.3,0-0.5-0.2-0.5-0.5v-2.8c0-0.3,0.2-0.5,0.5-0.5h2.8
				c0.3,0,0.5,0.2,0.5,0.5V21.3z"/>
			<path class="st1" d="M13.6,18.9c-0.2-0.1-0.4-0.2-0.7-0.2c-0.3,0-0.6,0-0.7,0v2.4h0.5v-0.9c0,0,0.1,0,0.2,0
				c0.3,0,0.6-0.1,0.8-0.3c0.1-0.1,0.2-0.3,0.2-0.6C13.8,19.2,13.7,19,13.6,18.9z M12.8,19.8c-0.1,0-0.1,0-0.2,0v-0.7
				c0,0,0.1,0,0.2,0c0.3,0,0.4,0.1,0.4,0.4C13.3,19.7,13.1,19.8,12.8,19.8z"/>
			<path class="st1" d="M17.6,15.1H8.8v-3h0.9l-1.4-1.7l-1.4,1.7h0.9v5.2v1.3v0.6H6.9l1.4,1.7l1.4-1.7H8.8v-0.6v-1.3v-1.2h8.7
				c0.9,0,1.7,0.8,1.7,1.7c0,0.9-0.7,1.7-1.7,1.7v-0.9l-1.7,1.4l1.7,1.4v-0.9v0c1.5,0,2.6-1.2,2.6-2.7C20.2,16.3,19,15.1,17.6,15.1z
				"/>
			<path class="st1" d="M10.5,6.3l2-1.2l0.6,1.2H12v1.6h3V6.3h-0.9l0.6-1.2l1.9,1.2h-0.2v1.6h3V6.3h-1.8l-1.4-2.6h0.9V2.1h-3v1.6h0
				l-0.7,0.4l-0.8-0.5V2.1h-3v1.6h0.9L9.3,6.3H7.4v1.6h3V6.3z M14,6.3h-0.6L12.6,5l1-0.6l1,0.6L14,6.3z M17.7,6.3h-0.5l-2.3-1.4
				l0.7-1.2h0.6L17.7,6.3z M14.8,3.7h0.6l-0.6,1.1l-0.9-0.5L14.8,3.7z M12.5,4.8l-0.6-1.1h0.6l0.9,0.6L12.5,4.8z M10.9,3.7h0.8
				l0.7,1.2l-2.3,1.4H9.5L10.9,3.7z"/>
		</g>
	</g>
</g>
<g>
</g>
<g>
</g>
<g>
</g>
<g>
</g>
<g>
</g>
<g>
</g>
</svg>
